<svg xmlns="http://www.w3.org/2000/svg" viewBox="0 0 800 800"><defs><style>.eyes-1{fill:#fff;}.eyes-2{fill:none;}</style></defs><title>5000_eyes_squinty_black</title><g id="Layer_2" data-name="Layer 2"><g id="_5000_eyes_squinty_black" data-name="5000_eyes_squinty_black"><path class="eyes-1" d="M367.26,216.52c.68.85-7.14,19.42-18.05,19.42s-17.55-8.66-17.55-24.7,10.46-33.67,12.1-30.83C350.91,192.84,353.58,199.41,367.26,216.52Z"/><path d="M363.72,212c-2.3-3-4.23-5.62-5.91-8a23.8,23.8,0,0,0-4.33,9.18c-1.78,6.79-1.08,12.84,1.55,13.53s6.19-4.26,8-11.05A30.15,30.15,0,0,0,363.72,212Z"/><path class="eyes-1" d="M433.11,216.52c-.68.85,7.15,19.42,18.06,19.42s17.54-8.66,17.54-24.7-10.46-33.67-12.09-30.83C449.47,192.84,446.8,199.41,433.11,216.52Z"/><path d="M436.66,212c2.29-3,4.22-5.62,5.9-8a23.66,23.66,0,0,1,4.34,9.18c1.77,6.79,1.08,12.84-1.55,13.53s-6.19-4.26-8-11.05A30.15,30.15,0,0,1,436.66,212Z"/><rect class="eyes-2" width="800" height="800"/></g></g></svg>
