<svg xmlns="http://www.w3.org/2000/svg" viewBox="0 0 800 800"><defs><style>.eyes-1{fill:#fff;}.eyes-2{fill:#330;}.eyes-3{fill:none;}</style></defs><title>5000_eyes_wreaths</title><g id="Layer_2" data-name="Layer 2"><g id="_5000_eyes_wreaths" data-name="5000_eyes_wreaths"><ellipse class="eyes-1" cx="448.48" cy="205.52" rx="14.18" ry="28.36"/><ellipse class="eyes-1" cx="349.21" cy="203.21" rx="14.27" ry="28.54"/><path class="eyes-2" d="M358.58,205.28a.33.33,0,0,0-.14,0,.83.83,0,0,0-.59.16,2,2,0,0,0-.72.75.14.14,0,0,1-.07.09.11.11,0,0,0,0-.05l.12-.23a1.82,1.82,0,0,1,.68-.67.11.11,0,0,0,0-.16.1.1,0,0,0-.15,0,2.46,2.46,0,0,1-.34.22l-.06,0c.07-.12.15-.24.23-.36a.93.93,0,0,1,.38-.33l.2-.07s0,0,.06,0a.08.08,0,0,0-.05-.07.17.17,0,0,0-.12,0,.58.58,0,0,0-.48.25.15.15,0,0,1-.06.05,1.34,1.34,0,0,0-.32.49.24.24,0,0,1-.06.09,1.63,1.63,0,0,1,0-.31,2.1,2.1,0,0,1,.15-.3.49.49,0,0,1,.17-.18l.35-.26s.05,0,0-.06a.14.14,0,0,0-.2-.09,1.6,1.6,0,0,0-.4.33h0s0,0,0,0a1.16,1.16,0,0,1,1-.64,1.21,1.21,0,0,1,.19,0c.08,0,.09,0,.05-.1a.1.1,0,0,0-.1,0,1.09,1.09,0,0,1-.31-.08.55.55,0,0,0-.28-.07,1.11,1.11,0,0,0-.79.19h0l-.09,0a.2.2,0,0,1,0-.07,1.07,1.07,0,0,1,.84-.82l.26-.08s.05,0,0,0-.08-.11-.16-.09l-.15,0a2.78,2.78,0,0,0-.49.24.69.69,0,0,0-.36.39.6.6,0,0,1-.06.11s0,0-.06,0a1,1,0,0,1,0-.35c.09-.25.14-.51.24-.76a2.88,2.88,0,0,1,.53-.89,0,0,0,0,0,0-.07.09.09,0,0,0-.13,0l-.1.07a1.22,1.22,0,0,0-.3.3.1.1,0,0,0,0-.05.11.11,0,0,0-.16,0,2.5,2.5,0,0,1-.21.35.84.84,0,0,0-.13.27v0a1.61,1.61,0,0,1,0-.69,3.8,3.8,0,0,1,.18-.6,1.46,1.46,0,0,1,.34-.56s.07-.07,0-.11-.07,0-.1,0a.68.68,0,0,0-.36.26,2,2,0,0,0-.16.28.17.17,0,0,0-.11.06,1.68,1.68,0,0,0-.22.47.61.61,0,0,0,0,.13h0c0-.12,0-.25-.05-.37a.14.14,0,0,0,0-.09.19.19,0,0,0,0-.08c0-.13,0-.26,0-.38a.86.86,0,0,1,.23-.57s.07-.06,0-.11-.09,0-.14,0l-.07,0a.69.69,0,0,0-.24.43,4.19,4.19,0,0,0,0,.5s0,0-.06,0a.21.21,0,0,0-.21-.07,1.3,1.3,0,0,1-.16-.54,1.28,1.28,0,0,1,.29-.79A1.39,1.39,0,0,1,356,199s.08,0,.07-.08a.11.11,0,0,0-.13,0l-.06,0a.75.75,0,0,0-.13.06c-.13.08-.29.05-.42.14a1.54,1.54,0,0,0-.32.25v-.07a2.74,2.74,0,0,1,.09-1s0-.06,0-.07a.1.1,0,0,0-.13.05v0a.23.23,0,0,0-.1.07,1.62,1.62,0,0,0-.28.42,1,1,0,0,0-.16.59,1.32,1.32,0,0,1-.22-.48,4.44,4.44,0,0,1-.1-.62,1.44,1.44,0,0,1,.07-.65s0-.09,0-.11-.07,0-.1,0a.63.63,0,0,0-.21.39,1.9,1.9,0,0,0,.15,1,3.13,3.13,0,0,1,.15.32l-.06-.05a1.82,1.82,0,0,1-.3-.68,1.74,1.74,0,0,1-.05-.39c0-.1,0-.14-.12-.14s-.12,0-.12.12,0,.22,0,.34v.11a4.11,4.11,0,0,1-.21-.42.91.91,0,0,1,0-.61s0-.09,0-.11a.1.1,0,0,0-.13,0,.25.25,0,0,0,0,.07.64.64,0,0,0,0,.49,2.15,2.15,0,0,0,.24.56.61.61,0,0,1,.11.18l-.31-.15a1.88,1.88,0,0,1-.12-.18.62.62,0,0,1-.12-.3c0-.16,0-.32-.05-.48,0,0,0,0,0,0a.13.13,0,0,0-.18.11,1.7,1.7,0,0,0,.07.51.57.57,0,0,1-.08-.13,1.25,1.25,0,0,1-.08-.83,1,1,0,0,1,.19-.4s.06-.08,0-.11-.09,0-.13,0a.1.1,0,0,0,0,.05.43.43,0,0,0-.09.1c-.08.13-.24.17-.33.31a1.22,1.22,0,0,0-.23.78s0,.05,0,.07l0,0-.06,0a1,1,0,0,1-.39-.89,4.26,4.26,0,0,1,.1-.49s0-.09,0-.11-.09,0-.13,0a.16.16,0,0,0-.07.11,1.41,1.41,0,0,0-.07.5.82.82,0,0,0,.17.68s.08.09.05.13l-.05,0a.62.62,0,0,1-.23-.14,1.84,1.84,0,0,0-.25-.23,4.61,4.61,0,0,1-.76-.94,1.73,1.73,0,0,1-.16-.37s0-.09-.07-.07-.1,0-.08.12a.19.19,0,0,1,0,.08,1,1,0,0,0,.14.47.11.11,0,0,0,0,.14c0,.1.12.2.16.3a.92.92,0,0,0,.24.34l-.16,0a2.09,2.09,0,0,1-.41-.17,2.72,2.72,0,0,1-.79-.76,1.48,1.48,0,0,1-.21-.44s0-.05,0-.08h-.05a.39.39,0,0,0-.06.28,1.1,1.1,0,0,0,.33.64l0,0a1.38,1.38,0,0,0,.42.53h0l-.1,0a4,4,0,0,1-.85-.38,1,1,0,0,1-.45-.52s0,0,0,0,0,0-.08,0a.14.14,0,0,0-.05.09.58.58,0,0,0,.16.42,1.85,1.85,0,0,0,.54.37l0,0a.18.18,0,0,0,0,.14,1.22,1.22,0,0,1-.38,0,1,1,0,0,1-.39-.14,1.25,1.25,0,0,1-.54-.85c0-.07,0-.14,0-.21s0-.08,0-.08a.1.1,0,0,0-.09.06.06.06,0,0,0,0,0,1.4,1.4,0,0,1-.1.46s0,.13,0,.2a1.09,1.09,0,0,0,.06.36,3.74,3.74,0,0,1-.58-.33,1.48,1.48,0,0,1-.31-.25s0-.08-.09,0-.07.08,0,.14h0a.19.19,0,0,0,0,.08,1.87,1.87,0,0,0,.07.22,6.18,6.18,0,0,0,.36.53.5.5,0,0,0,.22.16l.06,0h-.27a2.79,2.79,0,0,1-1-.35,1.19,1.19,0,0,1-.37-.3.24.24,0,0,0-.08-.06l0,0a.4.4,0,0,0,.07.28,1.08,1.08,0,0,0,.57.44,2,2,0,0,0,.84.15.1.1,0,0,1,.1,0l0,0h-.18a1.72,1.72,0,0,1-1-.23.13.13,0,0,0-.2.08.09.09,0,0,0,.06.12c.1.05.2.08.3.14l.1.06h-.39a1,1,0,0,1-.63-.28l0,0s-.06,0-.08,0a.09.09,0,0,0,0,.1c.09.13.17.27.32.31a2,2,0,0,0,.73.1.45.45,0,0,1,.2,0v0a2.2,2.2,0,0,1-.25.17l-.24,0a.75.75,0,0,1-.39-.09l-.35-.15s0,0-.05,0a.13.13,0,0,0,0,.21,1.39,1.39,0,0,0,.5.19.49.49,0,0,1-.24,0,1.21,1.21,0,0,1-.85-.54s-.07-.12-.11-.18,0-.07-.07,0-.05,0-.06.09a.43.43,0,0,1,0,0,1.35,1.35,0,0,1,.11.45.48.48,0,0,0,.08.18,1.21,1.21,0,0,0,.51.54h0a.19.19,0,0,0,0,.15h0a1,1,0,0,1-1.11-.34l-.19-.17s0,0-.06,0a.19.19,0,0,0,0,.19.85.85,0,0,0,.16.17,3.65,3.65,0,0,0,.54.32.52.52,0,0,0,.27.05h.24s0,0,0,0a1.3,1.3,0,0,1-.25.1c-.27.06-.53.14-.8.18a3.17,3.17,0,0,1-1,0s-.08,0-.09,0,0,.1,0,.11a.45.45,0,0,1,.12.06,1.46,1.46,0,0,0,.45.1.12.12,0,0,0-.09.16c0,.05,0,.08.1.08s.22,0,.33,0a1.22,1.22,0,0,0,.33,0l-.11.09a2.12,2.12,0,0,1-1.14.4,1.41,1.41,0,0,1-.58,0s-.07,0-.09,0,0,.06,0,.09a.39.39,0,0,0,.1.08.82.82,0,0,0,.59.11c0,.06.05.11.1.11a1.42,1.42,0,0,0,.62-.07,3.23,3.23,0,0,1-.76.5.72.72,0,0,1-.35.08l-.23,0c-.08,0-.1,0-.06.1a.12.12,0,0,0,.05.05.65.65,0,0,0,.45.07,2.45,2.45,0,0,0,.52-.24l0,0a.06.06,0,0,1,0,.07.19.19,0,0,0,0,.26l-.16.17a1.16,1.16,0,0,1-1,.26,1.24,1.24,0,0,1-.4-.16s-.08,0-.1,0a.11.11,0,0,0,0,.13h0a1.91,1.91,0,0,1,.37.33.42.42,0,0,0,.22.14,1.43,1.43,0,0,0,.27.09l0,0a2.89,2.89,0,0,1-.92.44s-.08,0-.06.07,0,.09.09.08h0a.44.44,0,0,0,.2.08,2.8,2.8,0,0,0,.41,0,1,1,0,0,0,.6-.16v0a2.22,2.22,0,0,1-.86.86,1.4,1.4,0,0,1-.54.22s-.07,0-.07.05a.08.08,0,0,0,0,.07l.13,0a.94.94,0,0,0,.65-.2,2,2,0,0,0,.64-.7.39.39,0,0,1,.09-.11.2.2,0,0,0,0,.07.31.31,0,0,0,0,.1,1.84,1.84,0,0,1-.77.79,0,0,0,0,0,0,.06.16.16,0,0,0,.08.15c.06,0,.1,0,.14,0a1.67,1.67,0,0,1,.35-.24,2.85,2.85,0,0,1-.31.46.85.85,0,0,1-.28.22,2,2,0,0,1-.22.08c-.07,0-.07.08,0,.12l.06,0a.66.66,0,0,0,.44-.13,1.84,1.84,0,0,0,.48-.66.24.24,0,0,1,.06-.09c0,.07,0,.14,0,.2s0,.08,0,.11a2.68,2.68,0,0,1-.12.24.59.59,0,0,1-.22.25l-.35.26s0,0,0,0a.14.14,0,0,0,.19.11l.06,0a1.09,1.09,0,0,0,.35-.29,1.17,1.17,0,0,1-.78.64,1,1,0,0,1-.43,0s-.09,0-.09,0a.1.1,0,0,0,.07.11h0a1.65,1.65,0,0,1,.48.14.55.55,0,0,0,.26,0,1.14,1.14,0,0,0,.69-.22h.09a.88.88,0,0,1-.06.27,1.08,1.08,0,0,1-.81.65,1.09,1.09,0,0,0-.24.07c-.05,0-.05,0,0,.07s.19.07.29.05a2.48,2.48,0,0,0,.37-.17.91.91,0,0,0,.51-.49c0-.05,0-.12.08-.11h0a1.17,1.17,0,0,1,0,.32,5.7,5.7,0,0,1-.3.91,2.44,2.44,0,0,1-.47.75s0,.07,0,.09a.09.09,0,0,0,.13,0l.08-.06a.89.89,0,0,0,.3-.31.2.2,0,0,0,.12.08c.07,0,.09,0,.11-.09a1.54,1.54,0,0,1,.23-.37.88.88,0,0,0,.09-.2,2.14,2.14,0,0,1,.06.35,2.64,2.64,0,0,1-.31,1.2,1,1,0,0,1-.25.35.08.08,0,0,0,0,.09s.05,0,.08,0a.23.23,0,0,0,.14,0,.91.91,0,0,0,.41-.5.1.1,0,0,0,.09,0,.21.21,0,0,0,0-.06,1.27,1.27,0,0,0,.23-.58h0a3.83,3.83,0,0,1,.08.83,1,1,0,0,1-.25.74,0,0,0,0,0,0,.06l.07,0a.17.17,0,0,0,.12-.05.69.69,0,0,0,.27-.46,3.55,3.55,0,0,0,0-.46v0a.25.25,0,0,0,.25,0h0a1.22,1.22,0,0,1,.17.59,1.25,1.25,0,0,1-.26.7,1.13,1.13,0,0,1-.4.35s-.06,0-.05.07.05,0,.09.05l.08,0,.23-.1a2,2,0,0,0,.33-.09,1.76,1.76,0,0,0,.33-.27c0,.07,0,.14,0,.22a2.41,2.41,0,0,1-.1.88s0,.07,0,.08a.09.09,0,0,0,.12-.06v0l.06,0a.57.57,0,0,0,.19-.22l.21-.39a.71.71,0,0,0,.08-.47,1.19,1.19,0,0,1,.09.15,2.47,2.47,0,0,1,.24,1.22,1,1,0,0,1-.08.42s0,.07,0,.09,0,0,.08,0a.27.27,0,0,0,.11-.1,1,1,0,0,0,.15-.73,1.94,1.94,0,0,0-.27-.81.67.67,0,0,1-.06-.12l0,0,0,0,.11.17a1.79,1.79,0,0,1,.25,1c0,.07,0,.11.13.12s.12,0,.12-.11,0-.31,0-.47l.16.3a1,1,0,0,1,.08.78s0,.05,0,.06a.08.08,0,0,0,.08,0,.2.2,0,0,0,.09-.09.77.77,0,0,0,0-.54,2.23,2.23,0,0,0-.31-.64.06.06,0,0,1,0-.07l.27.13h0a.18.18,0,0,0,.05.07.75.75,0,0,1,.19.4c0,.16,0,.32,0,.48s0,0,0,.06a.14.14,0,0,0,.18-.14,1.2,1.2,0,0,0-.07-.46.43.43,0,0,1,0,0,1.18,1.18,0,0,1,.11.19,1.25,1.25,0,0,1,.07.74,1.22,1.22,0,0,1-.21.48s-.05.06,0,.08a.09.09,0,0,0,.1,0,.18.18,0,0,0,.07-.05l.17-.19c.07-.08.18-.12.25-.22a1.74,1.74,0,0,0,.24-.58,1.61,1.61,0,0,0,0-.22.16.16,0,0,0,.13,0s0,0,.05.05a1.06,1.06,0,0,1,.23,1.07,2.46,2.46,0,0,0-.07.29s0,.05,0,.05.13,0,.16-.08a.75.75,0,0,0,.09-.29c0-.15,0-.29,0-.44a.66.66,0,0,0-.16-.5l-.06-.1s0-.06,0-.06a.56.56,0,0,1,.24.13l.43.4a4.41,4.41,0,0,1,.61.81,1.36,1.36,0,0,1,.14.33s0,.09.08.07.09-.05.07-.11a.22.22,0,0,1,0-.08,1.08,1.08,0,0,0-.14-.48.11.11,0,0,0,0-.13,4.09,4.09,0,0,1-.25-.46.62.62,0,0,0-.14-.18l.24.08a1.59,1.59,0,0,1,.53.28,3.39,3.39,0,0,1,.49.51,1.69,1.69,0,0,1,.27.47.67.67,0,0,0,.06.15h.05a.35.35,0,0,0,.06-.18,1,1,0,0,0-.3-.7l-.06-.07a1.4,1.4,0,0,0-.25-.35.91.91,0,0,0-.17-.17l.12,0,.29.11a.1.1,0,0,0,0,.05.2.2,0,0,0,.19.07h0a3.9,3.9,0,0,1,.35.19.87.87,0,0,1,.34.37l.06.14c0,.06.07.07.1,0a.14.14,0,0,0,0-.14.65.65,0,0,0-.3-.47.23.23,0,0,1-.1-.07,1,1,0,0,0-.34-.19c0-.05,0-.06.06-.06a.19.19,0,0,0,.2-.12,1.64,1.64,0,0,1,.44.09,1.22,1.22,0,0,1,.73,1,.61.61,0,0,0,0,.14c0,.07,0,.08.1,0s0-.06.05-.1a.88.88,0,0,1,.09-.42.15.15,0,0,0,0-.07,2,2,0,0,0,0-.34c0-.06,0-.11,0-.17a4.59,4.59,0,0,1,.61.35,1.27,1.27,0,0,1,.28.24s0,.07.1,0a.1.1,0,0,0,0-.14h0a.15.15,0,0,0,0-.07.75.75,0,0,0-.09-.25c-.1-.16-.2-.32-.31-.47a.54.54,0,0,0-.3-.21h0a1.9,1.9,0,0,1,.53,0,3.74,3.74,0,0,1,.66.25,1.72,1.72,0,0,1,.45.31,1.31,1.31,0,0,0,.12.11l0,0a.4.4,0,0,0,0-.19,1,1,0,0,0-.58-.51,1.94,1.94,0,0,0-.86-.16.25.25,0,0,1-.12,0l0,0h.12a1.73,1.73,0,0,1,1,.23.13.13,0,0,0,.2-.09.09.09,0,0,0-.05-.11,2.16,2.16,0,0,1-.34-.17l-.08,0a3.62,3.62,0,0,1,.47,0,.89.89,0,0,1,.47.19l.12.11s.08,0,.1,0a.17.17,0,0,0-.05-.14.57.57,0,0,0-.47-.29l-.11,0a1.42,1.42,0,0,0-.41,0,.41.41,0,0,1-.22,0c0-.05.06-.06.09-.08l.15-.11.19,0a.66.66,0,0,1,.34,0l.46.2s0,0,.05,0,.08-.17,0-.2a.65.65,0,0,0-.27-.15l-.25-.06h.05a1.23,1.23,0,0,1,1.1.61.67.67,0,0,0,.06.12c0,.07.08.06.11,0a.14.14,0,0,0,0-.11,1.23,1.23,0,0,1-.1-.42.09.09,0,0,0,0-.07,2.28,2.28,0,0,0-.17-.3,1.13,1.13,0,0,0-.43-.38h0a.21.21,0,0,0-.05-.12l.06,0a1.07,1.07,0,0,1,.92.14c.14.08.23.23.37.33s.05.06.08,0,0-.06,0-.1a.15.15,0,0,0,0-.09.86.86,0,0,0-.19-.19,4.85,4.85,0,0,0-.49-.29.48.48,0,0,0-.35-.06H355s0,0,0,0l.05,0a2.77,2.77,0,0,0,.41-.12,5,5,0,0,1,.84-.16,2.11,2.11,0,0,1,.79,0s.07,0,.07,0a.09.09,0,0,0-.06-.11l-.13,0a1.06,1.06,0,0,0-.46-.1c.09,0,.14-.06.12-.16s0-.08-.09-.08h-.38a.93.93,0,0,0-.29,0l0,0a1.2,1.2,0,0,1,.5-.29,2.69,2.69,0,0,1,.62-.16,2.1,2.1,0,0,1,.5,0l.19,0a.06.06,0,0,0,.07,0,0,0,0,0,0,0-.07.38.38,0,0,0-.11-.11A.94.94,0,0,0,357,209a.12.12,0,0,0-.08-.1,1.08,1.08,0,0,0-.31,0l-.3.07h0a3.23,3.23,0,0,1,.65-.44.84.84,0,0,1,.48-.14l.21,0s.05,0,.07,0a.08.08,0,0,0,0-.08.16.16,0,0,0-.1-.08.57.57,0,0,0-.54,0s-.05,0-.07,0a1.22,1.22,0,0,0-.5.3.24.24,0,0,1-.09.06.75.75,0,0,1,0-.16l.05,0a.19.19,0,0,0,.21-.16.18.18,0,0,0-.08-.19,1.48,1.48,0,0,1,.24-.26,1.17,1.17,0,0,1,1.21-.13l.17.08c.08,0,.1,0,.09-.07a.11.11,0,0,0-.07-.09,1,1,0,0,1-.25-.2.55.55,0,0,0-.21-.19,1.44,1.44,0,0,0-.37-.15l.26-.17a2,2,0,0,1,.73-.3c.05,0,.06,0,0-.08s0-.08-.1-.07h0l-.07,0-.15,0a3.37,3.37,0,0,0-.55,0,.68.68,0,0,0-.45.17,1.39,1.39,0,0,1,.31-.45,2.73,2.73,0,0,1,.49-.41,2.08,2.08,0,0,1,.45-.22l.19-.05a.06.06,0,1,0,0-.11Zm-2.1,1.82,0,0a.4.4,0,0,1,0,.15Zm.13-.06a.1.1,0,0,1,0,0,2.84,2.84,0,0,0-.39-.7,5.88,5.88,0,0,1,.36.51.55.55,0,0,1,.09.19Zm.08-.31a2.33,2.33,0,0,0-.84-1c0,.1,0,.1,0,.19a1.56,1.56,0,0,0,.16.2,4.21,4.21,0,0,0-.37-.36s-.05-.06-.1,0,0,.08,0,.12a.2.2,0,0,0,0,.08c.07.08.12.17.19.25a.06.06,0,0,0,0,.07c.05.08.1.16.14.24a4.34,4.34,0,0,1,.42.93,1.28,1.28,0,0,1,.05.27c0,.06-.05.13-.07.2a.05.05,0,0,1-.07,0,.17.17,0,0,0-.12,0,1.78,1.78,0,0,0-.32-.89s0,0-.06,0-.07.06-.06.12.08.28.11.42a2.58,2.58,0,0,0,.08.26,3.45,3.45,0,0,1-.11.54,3,3,0,0,0-.11-.52.35.35,0,0,0-.1-.19s0,0-.05,0a0,0,0,0,0,0,.05.77.77,0,0,1,0,.15.09.09,0,0,0,0,.06.25.25,0,0,0,0,.08,2.28,2.28,0,0,0,.09.51h0a.22.22,0,0,0,0,.08s0,.06,0,.09a1.81,1.81,0,0,1-.06.57,1.46,1.46,0,0,1-.22.35v-.29a4.23,4.23,0,0,0,0-.87s0-.06-.06,0-.07.07-.06.13a5,5,0,0,1,0,.86c0-.13,0-.26-.06-.39a2.56,2.56,0,0,0-.22-.66s0-.08-.07-.07-.06.06-.07.1a.31.31,0,0,0,0,.1,3.57,3.57,0,0,0,.11.47l0,0h0a3,3,0,0,1,0,.67,3.93,3.93,0,0,1-.07.6.19.19,0,0,1,0,.08,1.14,1.14,0,0,1-.11.11,1.86,1.86,0,0,0,0-.33,2.77,2.77,0,0,0-.14-.86s0-.09,0-.07a.08.08,0,0,0-.06.09,1.93,1.93,0,0,0,0,.24c0,.32,0,.63,0,1,0,0,0,.06,0,.09h0a.17.17,0,0,0-.18,0l.06-.26h0s.07-.1,0-.14,0-.06,0-.08a1.07,1.07,0,0,0-.07-.5s0-.08-.05-.07a.12.12,0,0,0-.08.1c0,.1,0,.21,0,.32a5,5,0,0,1-.07.54c-.13.18-.28.34-.42.51l.06-.21a1.82,1.82,0,0,0,.13-.51s0-.05,0-.06a.07.07,0,0,0-.08,0,.43.43,0,0,0,0,.05s0,0,0,0a.1.1,0,0,0-.1.06l-.05.12c-.07.22-.16.43-.22.66a.91.91,0,0,1-.11.22,2.16,2.16,0,0,1-.27.33l-.09,0c.05-.08.09-.17.13-.25a4.05,4.05,0,0,0,.33-.81s0,0,0,0a.12.12,0,0,0-.1.06h0s0,0-.05,0a4.76,4.76,0,0,1-.28.49.45.45,0,0,0,0-.16s0-.06,0-.06-.07,0-.08,0a3,3,0,0,1-.29.6,3.36,3.36,0,0,1-.32.51.51.51,0,0,1-.23.17c.07-.13.15-.22.21-.34a2.63,2.63,0,0,0,.24-.84s0-.07,0-.08a.09.09,0,0,0-.1.06,2,2,0,0,0-.09.22.42.42,0,0,0,0,.1,2.63,2.63,0,0,0,.08-.3,1,1,0,0,0,.05-.25s0-.05,0-.07a.08.08,0,0,0-.09,0,.62.62,0,0,0-.11.17,1.8,1.8,0,0,1-.08.21l-.05,0-.15.28a4.4,4.4,0,0,1-.57.79,1.8,1.8,0,0,1-.21.19,2.41,2.41,0,0,1-.53.07l-.1,0a1.64,1.64,0,0,0,.87-.85s0-.06,0-.08a.09.09,0,0,0-.12,0l-.09.09c-.12.12-.25.24-.37.37l-.05,0a3.75,3.75,0,0,1-.47.17,3,3,0,0,0,.37-.34.29.29,0,0,0,.1-.16s0,0,0-.06a.07.07,0,0,0-.06,0,2.43,2.43,0,0,1-.32.24s0,0,0-.05.05,0,0-.08a.09.09,0,0,0-.1,0,5,5,0,0,0-.43.35.23.23,0,0,1-.1.07,4.93,4.93,0,0,1-.46.23,1.14,1.14,0,0,1-.55,0,4.94,4.94,0,0,0,1-.64.17.17,0,0,0-.21,0l-.14.1a1.64,1.64,0,0,0,.21-.24.83.83,0,0,0,.16-.21s0,0,0-.07a.09.09,0,0,0-.1,0,.44.44,0,0,0-.16.1,4,4,0,0,0-.35.36l-.06.06,0,0s0,0,0-.05-.06-.06-.1,0a3.74,3.74,0,0,1-.62.34,4.25,4.25,0,0,1-.49.21l-.11,0-.14,0a2.46,2.46,0,0,0,1-.74.17.17,0,0,0-.2,0c-.21.14-.43.29-.65.42l-.32.18-.1,0-.06,0a.25.25,0,0,1-.1-.08l0,0a3.31,3.31,0,0,0,.42-.12h0s.11,0,.11,0h0l.22-.11a.76.76,0,0,0,.25-.22s.07,0,0-.09a.09.09,0,0,0-.12,0c-.16.07-.31.16-.47.22l-.32.12c-.2,0-.41-.07-.61-.1l-.06,0,.36-.07a1.23,1.23,0,0,0,.37-.12s.07,0,0-.05,0,0-.08,0h0v0s-.05-.08-.1-.08l-.09,0c-.23.06-.48.07-.71.14a.82.82,0,0,1-.27,0,2.57,2.57,0,0,1-.4-.07l-.1-.07a4.8,4.8,0,0,0,1.2-.13.14.14,0,0,0-.12-.09v0a.08.08,0,0,0-.07,0,2.54,2.54,0,0,1-.39,0h-.18a.49.49,0,0,0,.17-.06s.06,0,0-.05,0-.07-.09-.06a3.3,3.3,0,0,1-.7.05,4.58,4.58,0,0,1-.53,0,.37.37,0,0,1-.15,0h0l-.12-.08a2.5,2.5,0,0,0,1.32-.22.17.17,0,0,0-.19-.07l-.32,0a1.31,1.31,0,0,0,.27-.06,1.49,1.49,0,0,0,.3-.09s.07,0,.07-.06a.09.09,0,0,0-.09-.07,1,1,0,0,0-.25,0l-.15,0-.08,0h-.52a2.8,2.8,0,0,1-1-.21l-.19-.23s0-.06,0-.09l0-.05a1.86,1.86,0,0,0,1,.2s.07,0,.06,0a.12.12,0,0,0-.05-.11l-.09,0c-.2,0-.39-.11-.59-.15a2.93,2.93,0,0,1-.42-.37,3.27,3.27,0,0,0,.53.17.22.22,0,0,0,.16,0s.05,0,.05,0,0-.05,0-.06l-.18-.07v0a.06.06,0,0,0,0-.08,4.19,4.19,0,0,0-.49-.2.51.51,0,0,1-.17-.07,1.4,1.4,0,0,0-.26-.16,1,1,0,0,1-.38-.44s0-.08,0-.12l.5.31a3.28,3.28,0,0,0,.54.24c0-.08,0-.13-.09-.17a5.28,5.28,0,0,1-.53-.27,2.66,2.66,0,0,0,.55.16c.11,0,.21.05.32.05s.07,0,.08,0a.07.07,0,0,0,0-.1.87.87,0,0,0-.24-.1l-.37-.1s0,0,0,0a3.59,3.59,0,0,1-.75-.46,1.48,1.48,0,0,1-.36-.3c0-.05,0-.1,0-.16a2.43,2.43,0,0,0,1.16.54.14.14,0,0,0-.1-.16c-.33-.16-.66-.34-1-.52l-.12-.09s0,0,.05,0a.18.18,0,0,0,.1-.07l.19.17,0,0s0,.08.1,0l.12.09a.8.8,0,0,0,.49.16.17.17,0,0,0-.09-.17,4.36,4.36,0,0,1-.65-.48,6.56,6.56,0,0,1-.23-.62l.12.13a2.11,2.11,0,0,0,.4.39s.05.06.08,0a.08.08,0,0,0,0-.1h0s0,0,0,0,.05-.07,0-.11a5,5,0,0,0-.42-.5,1.59,1.59,0,0,1-.4-.73.24.24,0,0,0,0-.08l.33.49a3.23,3.23,0,0,0,.38.45.16.16,0,0,0,0-.16h0a0,0,0,0,0,0-.06l-.1-.17-.2-.34a.35.35,0,0,0,.15.12s0,0,.06,0,0,0,0-.08a3.24,3.24,0,0,1-.48-.74,1,1,0,0,1-.21-.53.22.22,0,0,0,0-.08v0a2.42,2.42,0,0,0,.84,1,.14.14,0,0,0,0-.19l-.19-.24a1.8,1.8,0,0,0,.19.2,1.31,1.31,0,0,0,.21.2s.05.05.08,0a.09.09,0,0,0,0-.11,1.18,1.18,0,0,0-.14-.22,1.47,1.47,0,0,0-.1-.13.17.17,0,0,0,0-.11,4.12,4.12,0,0,1-.54-1.19,1.55,1.55,0,0,1,0-.21c.05-.13.09-.26.15-.38a.25.25,0,0,1,.12-.13h0a.34.34,0,0,0,0,.1,1.71,1.71,0,0,0,.31,1s0,.06.07,0,.07,0,.06-.1a4.5,4.5,0,0,0-.17-.63.19.19,0,0,1,0-.08,3.57,3.57,0,0,1,.11-.55,3.57,3.57,0,0,0,.11.55.3.3,0,0,0,.1.18s0,0,.05,0,0,0,0-.06,0-.1,0-.15.05,0,.05-.08a3.45,3.45,0,0,0-.1-.56.09.09,0,0,0,0,0h0c0-.06,0-.12,0-.18s0-.1,0-.15a.9.9,0,0,1,.26-.69.25.25,0,0,1,0,.12,5.25,5.25,0,0,0,0,1s0,.09,0,.08.1,0,.09-.11a4.08,4.08,0,0,1,0-.61v-.29a2.87,2.87,0,0,0,.18.81,1.17,1.17,0,0,0,.1.26s0,.07.07.07a.09.09,0,0,0,.06-.09.74.74,0,0,0,0-.26,2.79,2.79,0,0,0-.1-.39v-.05a1.15,1.15,0,0,1,0-.37c0-.13,0-.26,0-.38a2,2,0,0,1,.09-.55l.1-.1a2.43,2.43,0,0,0,.13,1.28.16.16,0,0,0,.09-.15c0-.32-.05-.63-.06-.94a1.58,1.58,0,0,1,0-.31s0,0,0-.06l.06-.05a.39.39,0,0,1,.16-.07h0l-.05.15c0,.11-.05.22-.07.33l0,.05s0,.07,0,.09h0a1.49,1.49,0,0,0,0,.21.86.86,0,0,0,.1.41s0,0,.06,0a.13.13,0,0,0,.06-.11,3.3,3.3,0,0,1,.09-.83,4.37,4.37,0,0,1,.37-.48l0,0a.3.3,0,0,1,0,.14,2.34,2.34,0,0,0-.14.58s0,.06,0,.06a.06.06,0,0,0,.08,0v0s0,0,0,0a.1.1,0,0,0,.11-.08l.15-.41.09-.27a.71.71,0,0,1,.16-.34,1.71,1.71,0,0,1,.21-.26l.1,0a.19.19,0,0,1,0,.11,5.92,5.92,0,0,0-.38.9s-.05.08,0,.09a.11.11,0,0,0,.13-.06h0s.05,0,.06,0a5.14,5.14,0,0,1,.29-.51h0a2,2,0,0,0,0,.26.12.12,0,0,0,.14-.1.82.82,0,0,1,.15-.33c.07-.11.12-.23.19-.34a1.43,1.43,0,0,1,.41-.53.08.08,0,0,1,.07,0,2.36,2.36,0,0,0-.46,1.25c.07,0,.12,0,.14-.1q.17-.45.36-.87a1.22,1.22,0,0,1,.14-.28l.08-.09h.05a1.7,1.7,0,0,1-.18.26,3.44,3.44,0,0,0-.46,1.16.19.19,0,0,0,0,.08s0,.06,0,.07a.07.07,0,0,0,.09,0,.67.67,0,0,0,.09-.14,2.34,2.34,0,0,1,.09-.24.13.13,0,0,0,.07-.06,5,5,0,0,1,.65-1,1.6,1.6,0,0,1,.27-.25,2,2,0,0,1,.35-.06c.06,0,.1,0,.12.07h0l-.07,0a1.5,1.5,0,0,0-.54.55l-.1.17s-.06.08,0,.11a.09.09,0,0,0,.13,0c.1-.1.21-.2.31-.31l.14-.13.07,0a3.34,3.34,0,0,1,.44-.17l-.34.31a.42.42,0,0,0-.11.18s0,.05,0,.07a0,0,0,0,0,.07,0l.3-.22,0,0s-.05,0,0,.07a.06.06,0,0,0,.08,0,3.57,3.57,0,0,0,.43-.34l0,0a1.66,1.66,0,0,1,.88-.32c.06,0,.12,0,.21,0a5.4,5.4,0,0,0-1,.64c.11.07.11.07.21,0l.18-.12a4.48,4.48,0,0,0-.36.4l0,.07s0,.05,0,.08a.08.08,0,0,0,.1,0,.67.67,0,0,0,.14-.09c.11-.12.24-.22.35-.35l.06-.07s0,.08,0,.09h0a2.77,2.77,0,0,1,.56-.31,4.72,4.72,0,0,1,.56-.24l.09,0,.16,0a2.48,2.48,0,0,0-1.05.74.15.15,0,0,0,.19,0c.27-.19.56-.36.85-.54a.54.54,0,0,1,.2-.1.13.13,0,0,1,0,.06.14.14,0,0,0,0,.11h0l-.23.07h0s-.11,0-.12.05a1.22,1.22,0,0,0-.38.22l-.09.09s-.07.08,0,.11a.12.12,0,0,0,.14,0,2.81,2.81,0,0,1,.39-.19l.37-.14c.21,0,.41.06.62.09l0,0-.49.11-.24.08s-.06,0-.05.05,0,.06.08.05h0v0s0,.09.11.08.21-.05.32-.06l.45-.09a1.18,1.18,0,0,1,.59,0l.08,0,.11.07a4.7,4.7,0,0,0-1.2.14c.05.08.06.1.12.09v0a.07.07,0,0,0,.06,0,3.62,3.62,0,0,1,.57,0l-.14,0c-.06,0-.07.07,0,.11h.05a3.33,3.33,0,0,1,.63,0,4.1,4.1,0,0,1,.61,0,.48.48,0,0,1,.28.13,2.5,2.5,0,0,0-1.33.21.16.16,0,0,0,.18.08l.32-.05a2.78,2.78,0,0,0-.46.11l-.11,0s-.06,0-.06.05a.1.1,0,0,0,.08.07,1.13,1.13,0,0,0,.26,0l.15,0a.17.17,0,0,0,.1,0,3.09,3.09,0,0,1,.43,0,3.36,3.36,0,0,1,1,.19l.07,0a1.84,1.84,0,0,1,.17.22l.14.2a.08.08,0,0,1,0,.07h0a1.52,1.52,0,0,0-.71-.31,3,3,0,0,0-.43,0s-.08,0-.08,0,0,.1.07.11l.32.09.35.09a3.67,3.67,0,0,1,.43.37,4.88,4.88,0,0,0-.54-.18.54.54,0,0,0-.18,0s-.05,0,0,0,0,0,0,.05l.18.07h0a.07.07,0,0,0,0,.09,3.17,3.17,0,0,0,.51.2h0a2.63,2.63,0,0,1,.56.38.9.9,0,0,1,.22.41l-.34-.21a3.39,3.39,0,0,0-.63-.32s-.07-.05-.08,0a.09.09,0,0,0,.05.12q.24.1.48.24l.11.06a3,3,0,0,0-.78-.2h-.12s-.06,0-.07,0a.08.08,0,0,0,0,.1.82.82,0,0,0,.24.1,1.78,1.78,0,0,0,.38.1.05.05,0,0,0,0,.05,5.33,5.33,0,0,1,.72.44,3.47,3.47,0,0,1,.37.3l0,0c0,.05,0,.1,0,.15a2.33,2.33,0,0,0-1.16-.53c0,.11,0,.11.11.16.33.16.67.33,1,.52l.12.09c0,.06,0,.12,0,.17a.06.06,0,0,1,0,.07h0l-.18-.19a1.07,1.07,0,0,1-.16-.14l0,0s0-.09-.09-.07a1.48,1.48,0,0,0-.37-.21.4.4,0,0,0-.15,0s-.08,0-.1,0a.11.11,0,0,0,.05.12l.23.15a4.14,4.14,0,0,1,.46.37c.09.2.16.4.24.61,0,0,0,0-.06,0a3.05,3.05,0,0,0-.47-.48s0,0-.07,0a.08.08,0,0,0,0,.11h0s-.05.09,0,.14a2.88,2.88,0,0,1,.28.33c.09.12.21.21.3.33a1.8,1.8,0,0,1,.24.55s0,.06,0,.1l-.22-.33a3.33,3.33,0,0,0-.43-.56s0-.08-.07,0a.08.08,0,0,0,0,.13h0a.06.06,0,0,0,0,.06,5.48,5.48,0,0,1,.31.52l0,0a.32.32,0,0,0-.12-.11s-.05,0-.06,0-.05.06,0,.09a5.3,5.3,0,0,1,.45.71,3.42,3.42,0,0,1,.21.43.22.22,0,0,1,0,.08s0,0,0,.06A.31.31,0,0,1,356.69,206.73Zm-2.77,4.39-.08,0s0,0,0,0l.16-.21A1.47,1.47,0,0,1,353.92,211.12Zm-2.51,1.24.07-.08.08-.09-.06.09A.24.24,0,0,1,351.41,212.36Zm.25-.06a.38.38,0,0,1,.09-.14,4.42,4.42,0,0,0,.34-.6l-.24.54a.44.44,0,0,1-.14.18Zm-2.27.66h0Zm-1-.59s0,0-.07,0l.43-.29L349,212a2.54,2.54,0,0,1-.36.29l-.15.11Zm1.94-.07a2.39,2.39,0,0,1-.64.26h0a2.67,2.67,0,0,1,.26-.09l.44-.18Zm-.31.31h0Zm-3.43-.63,0,0,0,0a2.46,2.46,0,0,1,.28,0h.07Zm-2.3-1.58.16,0,.08,0h-.1A.34.34,0,0,1,344.33,210.4Zm.18.2a.08.08,0,0,1,.08,0,4,4,0,0,0,.69,0l-.17,0-.37,0a.52.52,0,0,1-.21,0Zm-1.93-7.12a.5.5,0,0,1,0,.13l0-.06a.32.32,0,0,1,0-.16Zm-.11.15s0,0,0,.06a3.62,3.62,0,0,0,.42.74l-.39-.54a.79.79,0,0,1-.09-.23Zm-.11,2.44.12.29,0,0-.12-.17A.44.44,0,0,1,342.36,206.07Zm2.81-6.52.09,0a.07.07,0,0,1,0,.06c-.05.08-.11.15-.16.22A1.28,1.28,0,0,1,345.17,199.55Zm2.41-1.15a.28.28,0,0,1,.1-.09l-.15.17Zm3.16-.11c-.15.1-.3.19-.43.29l-.18.11a2,2,0,0,1,.37-.28l.15-.11Zm-1.88,0a2.23,2.23,0,0,1,.51-.19h0a4.45,4.45,0,0,0-.57.22Zm5.9,2-.21-.05h.08A.19.19,0,0,1,354.76,200.28Zm-.19-.21a.07.07,0,0,1-.06,0,3,3,0,0,0-.67,0l.36,0a.71.71,0,0,1,.36,0Zm-2.05-1.32-.33,0,.2,0h.07Zm4.57,5.49-.06.13c0-.05,0-.1,0-.16h0Zm-.36.36-.13-.3a1,1,0,0,1,.15.2A.3.3,0,0,1,356.73,204.6Zm.84-.95h0a3.55,3.55,0,0,0-.33.29.23.23,0,0,0-.13-.1h0l0,0A1.61,1.61,0,0,1,357.57,203.65Zm-.72-1.58c0,.17-.09.34-.13.52A1.47,1.47,0,0,1,356.85,202.07Zm-.62-.61a.7.7,0,0,1,0-.14.57.57,0,0,1,0,.13,2.17,2.17,0,0,1,0,.36l0-.06A2.81,2.81,0,0,1,356.23,201.46Zm-1-2.07a1.46,1.46,0,0,0-.08.92l0,0a.76.76,0,0,1-.06-.2c0-.14,0-.28-.06-.41A.72.72,0,0,1,355.25,199.39Zm-.57-.59a.43.43,0,0,1,0-.07,1.24,1.24,0,0,0,0,.43c0,.15,0,.29.08.44l-.06.12a.42.42,0,0,1,0,.1l-.08-.11A1,1,0,0,1,354.68,198.8Zm-2.54-1.29a1.48,1.48,0,0,0,.33.87l-.05,0a.19.19,0,0,0-.14-.15s-.06,0-.07-.07a.19.19,0,0,0-.15-.14A.89.89,0,0,1,352.14,197.51Zm-5,0a1.69,1.69,0,0,0,.77.51h-.08l-.33-.1-.24-.08A1.75,1.75,0,0,1,347.15,197.47Zm-.83.12.27.16a3.31,3.31,0,0,0,.53.18.56.56,0,0,0,.05.08c0,.05.1.08.09.12l-.15,0h0A1,1,0,0,1,346.32,197.59Zm-1.4,1.79-.13.12v0a.12.12,0,0,0,0-.08Zm-.91-.12a2.13,2.13,0,0,0,.45.13.2.2,0,0,0-.07.18A1.13,1.13,0,0,1,344,199.26Zm-1.26,1.46a1.5,1.5,0,0,0,.29-.06c.21-.07.42-.12.63-.17l0,0A1.71,1.71,0,0,1,342.75,200.72Zm.39.58-.07.1-.19.12a.72.72,0,0,1-.32.08,2.25,2.25,0,0,0,.46-.24A.27.27,0,0,1,343.14,201.3Zm-1.48,2.13a.19.19,0,0,1-.12,0,1.39,1.39,0,0,0,.82-.4s0,0,0,0l-.11.12c-.13.09-.24.2-.37.3Zm.35.47a1,1,0,0,1-.79.27,1.07,1.07,0,0,0,.44-.27l.27-.23a.57.57,0,0,0,.18,0h.07l-.05.12A.81.81,0,0,1,342,203.9Zm-.41,3.1a.23.23,0,0,1-.12,0,1.37,1.37,0,0,0,.57-.71.31.31,0,0,1,.05.12.15.15,0,0,0,0,.11.09.09,0,0,1-.05.11.21.21,0,0,0-.09.23l-.08,0Zm.64,1.59c0-.14.07-.28.11-.43l0-.12A1.65,1.65,0,0,1,342.24,208.59Zm.63.54a1.55,1.55,0,0,1,0,.21,1.93,1.93,0,0,0,0-.34.62.62,0,0,1,0-.13h0s0,0,0,0Zm.43.58a0,0,0,0,1,0-.07l0,0a.09.09,0,0,1,0,.06v0Zm.6,1.54a.06.06,0,0,1-.06,0,1.35,1.35,0,0,0,.08-.91l0,0a1,1,0,0,1,.05.16c0,.15.05.3.07.45A2.07,2.07,0,0,1,343.9,211.25Zm.6-.21a1.05,1.05,0,0,1-.13.9,1.24,1.24,0,0,0,0-.43c0-.14-.05-.28-.08-.43s.06-.15.1-.22l.06.08,0,.05Zm2.12,1.25.21.06,0,0a.12.12,0,0,0-.05.07Zm.36.81s0,0,0,.05a1.56,1.56,0,0,0-.08-.43h0a.17.17,0,0,0,.17,0v0A1.19,1.19,0,0,1,347,213.1Zm4.85-.18c0,.09.11.17.11.29a1.54,1.54,0,0,0-.77-.51h.08c.18.06.37.11.55.18h0Zm.91.11s0,0,0,.06a1.11,1.11,0,0,0-.4-.22l-.4-.13a.36.36,0,0,0-.07-.1s-.08-.07-.07-.1l.15,0A1,1,0,0,1,352.74,213Zm2.12-1.83c.07.08.17.11.22.22a1.5,1.5,0,0,0-.91-.13.38.38,0,0,0,.09-.09.2.2,0,0,0,.17-.09s0,0,.08,0a.23.23,0,0,0,.18,0A.42.42,0,0,1,354.86,211.2ZM356.4,210l-.21,0c-.19,0-.38.12-.58.16l-.21.05h0A1.75,1.75,0,0,1,356.4,210Zm.07-.89h.06a1.87,1.87,0,0,0-.48.26.23.23,0,0,1-.1,0l.07-.11.12-.08A.63.63,0,0,1,356.47,209.07Zm1-1.81,0,0a1.41,1.41,0,0,0-.82.4.43.43,0,0,1,0-.05,3.45,3.45,0,0,0,.28-.26l.18-.15A1.86,1.86,0,0,1,357.52,207.26Zm.34-.76a1.65,1.65,0,0,0-.32.18,4,4,0,0,0-.39.33l-.15,0h-.09l.06-.13A1,1,0,0,1,357.86,206.5Z"/><path class="eyes-2" d="M361.15,205a.34.34,0,0,0-.14,0,.94.94,0,0,0-.59.16,2.1,2.1,0,0,0-.72.76.14.14,0,0,1-.07.09s0,0,0-.06a2.26,2.26,0,0,0,.11-.22,1.78,1.78,0,0,1,.69-.67.12.12,0,0,0,0-.17.1.1,0,0,0-.15,0L360,205l-.06,0a2.21,2.21,0,0,1,.23-.36,1,1,0,0,1,.38-.34l.2-.06s0,0,.06,0a.1.1,0,0,0-.05-.08.16.16,0,0,0-.12,0,.6.6,0,0,0-.48.24s0,0-.06.06a1.39,1.39,0,0,0-.32.48.15.15,0,0,1-.06.09c0-.1,0-.2,0-.3s.1-.21.16-.31a.46.46,0,0,1,.17-.17l.35-.26s.05,0,0-.07a.13.13,0,0,0-.2-.08,1.41,1.41,0,0,0-.4.33h0s0,0,0,0a1.17,1.17,0,0,1,1-.65H361c.08,0,.09,0,.05-.1a.13.13,0,0,0-.1-.06,1.08,1.08,0,0,1-.31-.07.57.57,0,0,0-.28-.08,1.11,1.11,0,0,0-.79.2h0a.16.16,0,0,0-.09,0,.17.17,0,0,1,0-.07,1.07,1.07,0,0,1,.84-.82l.26-.08s.05,0,0-.06-.08-.1-.16-.08l-.15,0a2.78,2.78,0,0,0-.49.24.63.63,0,0,0-.36.39.33.33,0,0,1-.06.1s0,0-.06,0a1,1,0,0,1,0-.34c.09-.26.14-.52.24-.76a2.77,2.77,0,0,1,.53-.89s0-.05,0-.07a.09.09,0,0,0-.13,0l-.1.07a1.18,1.18,0,0,0-.3.29l0,0a.1.1,0,0,0-.16,0,4.05,4.05,0,0,1-.21.35.91.91,0,0,0-.13.26v0a1.6,1.6,0,0,1,0-.69,4.56,4.56,0,0,1,.18-.6,1.53,1.53,0,0,1,.34-.56s.06-.06,0-.1-.07,0-.1,0a.63.63,0,0,0-.36.25,1.18,1.18,0,0,0-.16.29.14.14,0,0,0-.11.06,1.56,1.56,0,0,0-.22.47.5.5,0,0,0,0,.13h0c0-.13,0-.25-.05-.38a.11.11,0,0,0,0-.08.29.29,0,0,0,0-.09c0-.12,0-.25,0-.38a.92.92,0,0,1,.22-.57s.08-.06.05-.1-.09,0-.14,0a.18.18,0,0,0-.07.05.69.69,0,0,0-.24.43,4.07,4.07,0,0,0,0,.5.07.07,0,0,1-.06,0c-.08-.08-.14-.1-.21-.07a1.3,1.3,0,0,1-.16-.54,1.28,1.28,0,0,1,.29-.79,1.06,1.06,0,0,1,.35-.28s.08,0,.07-.09-.08-.05-.13,0l-.06,0-.13,0c-.13.09-.29.06-.42.14a2.09,2.09,0,0,0-.32.25V199a2.78,2.78,0,0,1,.09-1s0-.06,0-.06a.1.1,0,0,0-.13,0v0s-.07,0-.1.06a1.52,1.52,0,0,0-.28.43,1,1,0,0,0-.16.59,1.45,1.45,0,0,1-.22-.49,3.11,3.11,0,0,1-.1-.61,1.46,1.46,0,0,1,.07-.66s0-.08,0-.11-.07,0-.1,0a.7.7,0,0,0-.22.38,2,2,0,0,0,.16,1.05,3.13,3.13,0,0,1,.15.32l-.06,0a1.71,1.71,0,0,1-.3-.69,1.65,1.65,0,0,1-.05-.38c0-.1,0-.14-.12-.15a.11.11,0,0,0-.12.12c0,.12,0,.23,0,.34v.11a3.17,3.17,0,0,1-.21-.41.91.91,0,0,1,0-.61s0-.09,0-.12-.1,0-.13.05a.16.16,0,0,0,0,.07.64.64,0,0,0,0,.49,2.31,2.31,0,0,0,.24.56.48.48,0,0,1,.1.17l-.3-.15a1,1,0,0,1-.12-.17.66.66,0,0,1-.12-.3l-.06-.48s0,0,0-.05a.14.14,0,0,0-.18.12,1.7,1.7,0,0,0,.07.51l-.08-.13A1.25,1.25,0,0,1,355,197a1,1,0,0,1,.19-.41s.06-.08,0-.11-.09,0-.13,0,0,0,0,0a.87.87,0,0,0-.09.11c-.09.13-.24.17-.33.3a1.24,1.24,0,0,0-.23.79s0,.05,0,.07l0,0-.06,0a1,1,0,0,1-.39-.89,3.86,3.86,0,0,1,.1-.49s0-.09,0-.11a.15.15,0,0,0-.13,0,.15.15,0,0,0-.07.11,1.5,1.5,0,0,0-.07.51.83.83,0,0,0,.17.68s.08.09.05.12a.06.06,0,0,1-.05,0,.59.59,0,0,1-.23-.13l-.25-.24a4.07,4.07,0,0,1-.76-.94,1.17,1.17,0,0,1-.16-.36s0-.09-.07-.07-.1,0-.08.11a.25.25,0,0,1,0,.08,1,1,0,0,0,.14.48.1.1,0,0,0,0,.14c0,.1.11.19.16.3a.88.88,0,0,0,.24.33l-.16,0a2.09,2.09,0,0,1-.41-.17,2.9,2.9,0,0,1-.79-.77,1,1,0,0,1-.21-.43s0-.06,0-.08h-.05a.37.37,0,0,0-.06.27,1.13,1.13,0,0,0,.33.65l0,0a1.46,1.46,0,0,0,.42.53h0l-.1,0a5.38,5.38,0,0,1-.85-.38,1,1,0,0,1-.45-.53s0,0,0,0,0,0-.08,0a.11.11,0,0,0-.05.09.6.6,0,0,0,.16.42,2.07,2.07,0,0,0,.54.37l0,0a.16.16,0,0,0,0,.13,1,1,0,0,1-.38,0,1.3,1.3,0,0,1-.39-.14,1.25,1.25,0,0,1-.54-.85c0-.07,0-.14,0-.21s0-.08,0-.09a.11.11,0,0,0-.09.06l0,0a1.25,1.25,0,0,1-.09.46c0,.05,0,.13,0,.2a1.13,1.13,0,0,0,.06.36A6.65,6.65,0,0,1,349,197a1.53,1.53,0,0,1-.31-.26s0-.08-.09,0-.07.08,0,.14h0a.15.15,0,0,0,0,.07.71.71,0,0,0,.07.22,3.29,3.29,0,0,0,.36.53.4.4,0,0,0,.22.16l.06,0a1.22,1.22,0,0,1-.27,0,2.73,2.73,0,0,1-1-.35,1.1,1.1,0,0,1-.37-.31l-.08-.05,0,0a.42.42,0,0,0,.06.27,1.1,1.1,0,0,0,.58.44,1.87,1.87,0,0,0,.84.15s.07,0,.1,0l0,0h-.18a1.82,1.82,0,0,1-1-.24.13.13,0,0,0-.2.09.09.09,0,0,0,.05.11c.1.05.21.09.31.15l.1.06a2.55,2.55,0,0,1-.39,0,.88.88,0,0,1-.63-.28l0,0s-.06,0-.08,0a.09.09,0,0,0,0,.1c.09.12.17.27.32.31a2,2,0,0,0,.73.1.44.44,0,0,1,.2,0h0l-.25.18-.24,0a.74.74,0,0,1-.39-.08,3.68,3.68,0,0,0-.35-.15,0,0,0,0,0-.05,0,.14.14,0,0,0,0,.22,1.39,1.39,0,0,0,.5.19,1,1,0,0,1-.24,0,1.25,1.25,0,0,1-.85-.54l-.11-.18s0-.07-.07-.06a.13.13,0,0,0-.06.09.43.43,0,0,0,0,0,1.41,1.41,0,0,1,.11.45.52.52,0,0,0,.08.19,1.21,1.21,0,0,0,.51.54h0a.19.19,0,0,0,0,.15h0a1.08,1.08,0,0,1-1.11-.34c-.06-.07-.13-.12-.19-.18s0,0-.06,0,0,.13,0,.19a.52.52,0,0,0,.16.17,4.86,4.86,0,0,0,.54.33.52.52,0,0,0,.27,0l.23,0s0,0,0,0a1.25,1.25,0,0,1-.25.09,7.66,7.66,0,0,1-.8.18,2.69,2.69,0,0,1-1,0s-.08,0-.09,0,0,.09.05.11a.45.45,0,0,1,.12.06,1.46,1.46,0,0,0,.45.1.11.11,0,0,0-.09.15c0,.06,0,.09.1.09h.33a1.22,1.22,0,0,0,.33,0l-.11.08a2.22,2.22,0,0,1-1.14.41,1.26,1.26,0,0,1-.58,0s-.07,0-.09,0a.08.08,0,0,0,0,.09s.06.06.1.09a.88.88,0,0,0,.59.11.14.14,0,0,0,.1.11,1.58,1.58,0,0,0,.62-.07,3.23,3.23,0,0,1-.76.5.85.85,0,0,1-.35.08l-.23,0c-.08,0-.1,0-.06.1s0,0,0,0a.59.59,0,0,0,.46.07A2.42,2.42,0,0,0,345,202l0,0s0,0,0,.07a.19.19,0,0,0,0,.26,1.29,1.29,0,0,1-.16.17,1.17,1.17,0,0,1-1,.27,1.24,1.24,0,0,1-.4-.16s-.08-.05-.1,0a.1.1,0,0,0,0,.13h0a1.91,1.91,0,0,1,.37.33.6.6,0,0,0,.22.14l.27.09-.05,0a2.87,2.87,0,0,1-.92.43s-.08,0-.06.08,0,.09.09.07h0a.28.28,0,0,0,.2.08,2.77,2.77,0,0,0,.41,0,1,1,0,0,0,.6-.16v0a2.29,2.29,0,0,1-.86.86,1.38,1.38,0,0,1-.54.21s-.07,0-.07.06,0,.05,0,.07a.31.31,0,0,0,.13,0,.93.93,0,0,0,.65-.19,2,2,0,0,0,.64-.7.29.29,0,0,1,.09-.11.13.13,0,0,0,0,.06.54.54,0,0,0,0,.11,1.81,1.81,0,0,1-.77.78s0,0,0,.06a.18.18,0,0,0,.09.16c.05,0,.1,0,.13,0a2.74,2.74,0,0,1,.36-.23,3.37,3.37,0,0,1-.31.46.85.85,0,0,1-.28.22l-.22.08c-.07,0-.07.07,0,.11s0,0,.06,0a.61.61,0,0,0,.44-.14,1.81,1.81,0,0,0,.48-.65.15.15,0,0,1,.06-.09c0,.07,0,.13,0,.19a.49.49,0,0,1,0,.12,2.56,2.56,0,0,1-.11.24.65.65,0,0,1-.22.25l-.35.26s0,0,0,0a.14.14,0,0,0,.19.11l.06,0a1.42,1.42,0,0,0,.35-.29,1.17,1.17,0,0,1-.78.64,1.23,1.23,0,0,1-.43,0s-.09,0-.1,0a.13.13,0,0,0,.08.11h0a2,2,0,0,1,.48.14.45.45,0,0,0,.26,0,1.15,1.15,0,0,0,.69-.21h.09a.82.82,0,0,1-.06.27,1.08,1.08,0,0,1-.81.65l-.24.08c-.05,0-.05,0,0,.07s.19.07.29,0a2.48,2.48,0,0,0,.37-.17.85.85,0,0,0,.51-.49s0-.12.08-.11h0a1.24,1.24,0,0,1,0,.33,6.06,6.06,0,0,1-.3.91,2.44,2.44,0,0,1-.47.75s0,.06,0,.09a.09.09,0,0,0,.13,0,.24.24,0,0,1,.08-.06,1.1,1.1,0,0,0,.3-.31.15.15,0,0,0,.12.07c.07,0,.09-.05.11-.09a2.06,2.06,0,0,1,.23-.37.66.66,0,0,0,.09-.19,2,2,0,0,1,.06.35,2.64,2.64,0,0,1-.31,1.2,1,1,0,0,1-.26.35.08.08,0,0,0,0,.08s.05,0,.08,0a.24.24,0,0,0,.14,0,.89.89,0,0,0,.41-.49.13.13,0,0,0,.09-.05s0,0,0-.06a1.23,1.23,0,0,0,.23-.57h0a3.74,3.74,0,0,1,.08.82,1,1,0,0,1-.25.74s0,0,0,.06a.08.08,0,0,0,.07,0,.16.16,0,0,0,.12,0,.71.71,0,0,0,.27-.46,3.67,3.67,0,0,0,0-.46s0,0,0,0a.23.23,0,0,0,.25,0h0a1.26,1.26,0,0,1,.17.6,1.28,1.28,0,0,1-.26.7,1.21,1.21,0,0,1-.4.34s-.06,0-.05.07.05.05.09.05a.11.11,0,0,0,.08,0l.23-.1c.11-.05.22,0,.33-.1a1.4,1.4,0,0,0,.33-.26c0,.07,0,.14,0,.21a2.36,2.36,0,0,1-.1.88c0,.05,0,.07,0,.08a.1.1,0,0,0,.12,0v0l.06,0a.66.66,0,0,0,.19-.22l.21-.4a.67.67,0,0,0,.08-.46.75.75,0,0,1,.09.15,2.45,2.45,0,0,1,.24,1.22,1,1,0,0,1-.08.42s0,.06,0,.09.05,0,.08,0a.27.27,0,0,0,.11-.1,1,1,0,0,0,.15-.73,2,2,0,0,0-.27-.82.67.67,0,0,1-.06-.12h0l0,0s.07.11.11.17a1.76,1.76,0,0,1,.25,1c0,.08,0,.12.13.12s.12,0,.12-.1l0-.47a2.19,2.19,0,0,1,.16.3,1,1,0,0,1,.09.77s0,.06,0,.07a.08.08,0,0,0,.08,0,.11.11,0,0,0,.08-.08.72.72,0,0,0,.05-.54,2.29,2.29,0,0,0-.31-.65s0,0,0-.06l.27.13h0l.05.07a.75.75,0,0,1,.19.39c0,.16,0,.33.05.49s0,0,0,.05.17,0,.18-.13a1.2,1.2,0,0,0-.07-.46s0,0,0-.05a1.74,1.74,0,0,1,.11.18,1.25,1.25,0,0,1,.07.74,1.22,1.22,0,0,1-.21.48s-.05.06,0,.09a.09.09,0,0,0,.1,0,.18.18,0,0,0,.07,0l.17-.19c.07-.09.18-.13.25-.23a1.56,1.56,0,0,0,.23-.57.83.83,0,0,0,0-.22.2.2,0,0,0,.13,0l.05,0a1,1,0,0,1,.23,1.06c0,.1-.05.2-.07.29s0,.06,0,.05a.15.15,0,0,0,.16-.08.71.71,0,0,0,.09-.28c0-.15,0-.3,0-.44a.65.65,0,0,0-.16-.5l-.06-.1s0-.06,0-.06a.68.68,0,0,1,.24.12l.43.41a4.09,4.09,0,0,1,.61.81,1.22,1.22,0,0,1,.14.33s0,.09.08.07.09-.05.07-.12a.19.19,0,0,1,0-.08,1.33,1.33,0,0,0-.14-.48.09.09,0,0,0,0-.12,5.2,5.2,0,0,1-.25-.46.62.62,0,0,0-.14-.18l.24.08a1.59,1.59,0,0,1,.53.28,3.86,3.86,0,0,1,.49.5,1.85,1.85,0,0,1,.27.47.76.76,0,0,0,.06.16H353a.55.55,0,0,0,.06-.18,1,1,0,0,0-.3-.71l-.06-.06a1.45,1.45,0,0,0-.25-.36,1.37,1.37,0,0,0-.17-.17.35.35,0,0,1,.11,0l.3.1,0,.06a.17.17,0,0,0,.19.06h0a2.43,2.43,0,0,1,.35.2.9.9,0,0,1,.34.36.94.94,0,0,0,.06.15c0,.06.07.06.1,0a.14.14,0,0,0,0-.15.62.62,0,0,0-.29-.46l-.1-.07a1.45,1.45,0,0,0-.34-.2s0-.05.06-.05a.21.21,0,0,0,.2-.12,2.14,2.14,0,0,1,.44.08,1.25,1.25,0,0,1,.73,1,.66.66,0,0,0,0,.14c0,.07,0,.08.1,0a.16.16,0,0,0,.05-.1.92.92,0,0,1,.09-.43s0,0,0-.06a1.94,1.94,0,0,0,0-.34,1.21,1.21,0,0,0-.05-.18,3.46,3.46,0,0,1,.62.36,1,1,0,0,1,.27.23s.06.08.11,0a.09.09,0,0,0,0-.13h0a.2.2,0,0,0,0-.07.68.68,0,0,0-.09-.25c-.1-.16-.2-.33-.31-.48a.59.59,0,0,0-.3-.21h0a1.36,1.36,0,0,1,.53,0,4,4,0,0,1,.66.24,1.74,1.74,0,0,1,.44.31.45.45,0,0,0,.13.11l0,0a.37.37,0,0,0,0-.18,1,1,0,0,0-.58-.51,2,2,0,0,0-.86-.17.17.17,0,0,1-.12,0l.05,0h.12a1.81,1.81,0,0,1,1,.23.12.12,0,0,0,.2-.08c0-.06,0-.09-.05-.11s-.24-.11-.34-.17l-.08-.05a3.71,3.71,0,0,1,.47,0,1,1,0,0,1,.47.18s.07.08.11.11.09,0,.11,0a.19.19,0,0,0-.05-.14.62.62,0,0,0-.47-.29l-.11,0a1.14,1.14,0,0,0-.41,0,.55.55,0,0,1-.22,0c0-.05.06-.06.09-.08l.15-.11.19,0a.66.66,0,0,1,.34,0l.46.19s0,0,0,0a.13.13,0,0,0,0-.2.77.77,0,0,0-.27-.14l-.25-.06h.05a1.23,1.23,0,0,1,1.1.61l.06.12c0,.06.08.06.11,0a.14.14,0,0,0,0-.11c0-.14-.12-.26-.1-.42a.13.13,0,0,0,0-.06,1.78,1.78,0,0,0-.17-.3,1.05,1.05,0,0,0-.43-.38h0a.18.18,0,0,0-.05-.12l.06,0a1,1,0,0,1,.92.13c.14.09.23.24.37.33s.05.06.08.05a.13.13,0,0,0,0-.1s0-.07,0-.09a.55.55,0,0,0-.18-.19,4.94,4.94,0,0,0-.49-.3.61.61,0,0,0-.35-.06h-.19s0,0,0,0l.05,0c.14,0,.28-.08.41-.12a3.56,3.56,0,0,1,.84-.16,2.11,2.11,0,0,1,.79,0c.05,0,.07,0,.07-.06a.08.08,0,0,0-.06-.1l-.13-.05a.93.93,0,0,0-.46-.1.12.12,0,0,0,.12-.16c0-.06,0-.08-.09-.08a2.38,2.38,0,0,1-.38,0,.93.93,0,0,0-.29,0l0,0a1.22,1.22,0,0,1,.5-.3,2.67,2.67,0,0,1,.62-.15,1.41,1.41,0,0,1,.5,0l.19,0s.06,0,.07,0a0,0,0,0,0,0-.07.52.52,0,0,0-.11-.1.88.88,0,0,0-.59-.11c0-.05,0-.1-.08-.1a.65.65,0,0,0-.31,0l-.3.06h0a3.71,3.71,0,0,1,.65-.44A1,1,0,0,1,360,208l.21,0s0,0,.07,0a.1.1,0,0,0,0-.09.18.18,0,0,0-.1-.07.57.57,0,0,0-.54,0l-.07,0a1.22,1.22,0,0,0-.5.3l-.1.05c0-.05,0-.1,0-.15l.05,0a.2.2,0,0,0,.21-.17.21.21,0,0,0-.08-.19,1.42,1.42,0,0,1,.24-.25,1.17,1.17,0,0,1,1.21-.14,1.4,1.4,0,0,1,.17.09c.08,0,.1,0,.09-.07s0-.07-.07-.09a1.69,1.69,0,0,1-.25-.2.55.55,0,0,0-.21-.19,1.15,1.15,0,0,0-.37-.15l.26-.17a1.88,1.88,0,0,1,.73-.3c.05,0,.06,0,0-.09s0-.07-.1-.06h0a.1.1,0,0,0-.07,0l-.15,0a2.53,2.53,0,0,0-.55,0,.7.7,0,0,0-.46.16,1.42,1.42,0,0,1,.32-.45,3.17,3.17,0,0,1,.49-.4,2.13,2.13,0,0,1,.45-.23l.19,0s.05,0,.05-.05S361.18,205,361.15,205Zm-2.1,1.81s0,0,0,.05a.28.28,0,0,1,0,.15Zm.13-.06s0,0,0,0a2.84,2.84,0,0,0-.39-.7,5.74,5.74,0,0,1,.36.5.59.59,0,0,1,.09.2S359.19,206.69,359.18,206.7Zm.08-.31a2.45,2.45,0,0,0-.84-1c0,.11,0,.11,0,.2l.16.2a4.17,4.17,0,0,0-.37-.36s-.05-.07-.1,0,0,.08,0,.13a.2.2,0,0,0,0,.08c.07.08.12.16.18.24a.12.12,0,0,0,0,.08c.05.08.1.15.14.23a4.83,4.83,0,0,1,.42.93,1.28,1.28,0,0,1,.05.27c0,.07-.05.13-.07.2s0,.05-.07,0a.25.25,0,0,0-.12,0,1.85,1.85,0,0,0-.32-.89s0,0-.06,0-.08,0-.06.11.08.28.11.42a2.76,2.76,0,0,0,.08.27,3.12,3.12,0,0,1-.11.53,3.21,3.21,0,0,0-.11-.52.32.32,0,0,0-.1-.18s0,0,0,0a.05.05,0,0,0,0,.05,1,1,0,0,1,0,.16.1.1,0,0,0,0,.05.28.28,0,0,0,0,.09,2.74,2.74,0,0,0,.08.5v0a.25.25,0,0,0,0,.08s0,.06,0,.09a1.81,1.81,0,0,1-.06.57,1.24,1.24,0,0,1-.22.34V209a3.69,3.69,0,0,0-.05-.88s0-.05-.05,0a.12.12,0,0,0-.06.13,4.84,4.84,0,0,1,0,.85c0-.13,0-.26-.06-.39a3.11,3.11,0,0,0-.22-.65s0-.08-.07-.08-.06.06-.07.11a.38.38,0,0,0,0,.1,2.66,2.66,0,0,0,.11.47.06.06,0,0,1,0,0h0a3,3,0,0,1,0,.67,4.09,4.09,0,0,1-.07.6.24.24,0,0,1,0,.08l-.11.11c0-.12,0-.22,0-.33a2.83,2.83,0,0,0-.14-.87s0-.08-.05-.07a.09.09,0,0,0-.06.1,1.93,1.93,0,0,0,0,.24c0,.31,0,.63,0,.94,0,0,0,.07,0,.09h0a.19.19,0,0,0-.18,0l.06-.25v0s.08-.09,0-.13,0-.06,0-.09a1,1,0,0,0-.07-.49s0-.08-.05-.07a.1.1,0,0,0-.08.09c0,.11,0,.22,0,.32a4.86,4.86,0,0,1-.07.55c-.13.18-.28.34-.42.5l.06-.2a1.91,1.91,0,0,0,.13-.51s0-.06,0-.07a.11.11,0,0,0-.08,0,.08.08,0,0,1,0,.05s0,0,0,0a.1.1,0,0,0-.1.05s0,.08-.05.13c-.07.22-.16.43-.22.66a.91.91,0,0,1-.11.22,2.08,2.08,0,0,1-.27.32l-.09,0,.13-.25a4.05,4.05,0,0,0,.33-.81s0-.06,0-.05a.14.14,0,0,0-.1.07h0s0,0-.05,0a4,4,0,0,1-.28.5.47.47,0,0,0,0-.17s0-.05,0-.05-.07,0-.08,0a2.84,2.84,0,0,1-.29.61,4.76,4.76,0,0,1-.32.51.44.44,0,0,1-.23.16c.07-.12.15-.22.2-.33a2.54,2.54,0,0,0,.25-.84s0-.08,0-.08a.08.08,0,0,0-.1.06,1.45,1.45,0,0,0-.09.22.3.3,0,0,0,0,.1c0-.1.06-.2.08-.3a1,1,0,0,0,.05-.25s0-.06,0-.07a.1.1,0,0,0-.09,0,.54.54,0,0,0-.11.18,1.8,1.8,0,0,1-.08.21.1.1,0,0,0-.05,0l-.16.29a3.59,3.59,0,0,1-.56.78l-.21.2a2.41,2.41,0,0,1-.53.07l-.1,0a1.66,1.66,0,0,0,.87-.86s0,0,0-.07a.11.11,0,0,0-.12,0l-.09.09-.37.37-.05,0a2.68,2.68,0,0,1-.47.18,4,4,0,0,0,.37-.34.37.37,0,0,0,.09-.16s0,0,0-.06,0,0-.06,0l-.33.24.06-.06s0,0,0-.07a.08.08,0,0,0-.1,0,3.55,3.55,0,0,0-.44.35.16.16,0,0,1-.09.07c-.16.06-.3.17-.46.23a1.14,1.14,0,0,1-.55,0,4.9,4.9,0,0,0,1-.63.15.15,0,0,0-.21,0l-.14.1.21-.24a1,1,0,0,0,.15-.21s.05,0,0-.07a.12.12,0,0,0-.1,0,.45.45,0,0,0-.17.11c-.11.12-.24.22-.34.35l-.06.07s0,0,0,0,.05,0,0-.06-.06-.05-.1,0a4.65,4.65,0,0,1-.62.34,4.19,4.19,0,0,1-.49.2.27.27,0,0,1-.12,0l-.13,0a2.55,2.55,0,0,0,1-.74c-.07-.06-.14,0-.2,0l-.65.41a3.37,3.37,0,0,1-.32.19l-.1,0-.06,0a.25.25,0,0,1-.1-.08l0,0a3.25,3.25,0,0,0,.42-.11h0s.1,0,.11-.05h0a1.55,1.55,0,0,0,.22-.12.72.72,0,0,0,.25-.21s.07-.06,0-.09a.1.1,0,0,0-.12,0l-.47.23-.32.11-.61-.09-.06,0,.36-.08a1.58,1.58,0,0,0,.37-.11s.07,0,0-.06a.06.06,0,0,0-.08,0h0v0s-.05-.07-.1-.07l-.09,0c-.23,0-.48.07-.71.13a.66.66,0,0,1-.28,0,2.63,2.63,0,0,1-.39-.06l-.1-.07a4.81,4.81,0,0,0,1.2-.14.15.15,0,0,0-.12-.09v0s0,0-.07,0h-.57a.51.51,0,0,0,.17-.07s.06,0,0,0,0-.08-.09-.06a4.11,4.11,0,0,1-.7,0,4.61,4.61,0,0,1-.53,0,.37.37,0,0,1-.15,0h0a.42.42,0,0,1-.12-.08,2.49,2.49,0,0,0,1.32-.21.14.14,0,0,0-.19-.07l-.32,0a1.1,1.1,0,0,0,.26-.06,1.4,1.4,0,0,0,.31-.09s.07,0,.07-.06a.09.09,0,0,0-.09-.07,1,1,0,0,0-.25,0l-.15,0a.11.11,0,0,0-.08,0,3,3,0,0,1-.52,0,2.45,2.45,0,0,1-1-.21,2,2,0,0,1-.19-.22s0-.07,0-.1a.1.1,0,0,0,0-.05,1.85,1.85,0,0,0,1,.21s.07,0,.06,0a.12.12,0,0,0-.05-.11l-.09,0c-.2,0-.39-.11-.59-.16a2.86,2.86,0,0,1-.42-.36,3.27,3.27,0,0,0,.53.17.43.43,0,0,0,.16,0s.05,0,.05,0a.05.05,0,0,0,0-.06l-.18-.08s0,0,0,0a.07.07,0,0,0,0-.09,4.14,4.14,0,0,0-.49-.19.53.53,0,0,1-.17-.08l-.26-.16a1,1,0,0,1-.38-.43.5.5,0,0,1,0-.12l.5.3a2.61,2.61,0,0,0,.54.24c0-.07,0-.13-.09-.16a5.28,5.28,0,0,1-.53-.27,2.64,2.64,0,0,0,.55.15,1.19,1.19,0,0,0,.32,0s.07,0,.08,0a.09.09,0,0,0,0-.11.85.85,0,0,0-.24-.09,2.59,2.59,0,0,0-.37-.11s0,0,0-.05a3,3,0,0,1-.75-.46,1.28,1.28,0,0,1-.36-.29c0-.06,0-.11,0-.16a2.42,2.42,0,0,0,1.16.53.14.14,0,0,0-.1-.16c-.33-.15-.66-.33-1-.51l-.12-.1a.06.06,0,0,1,.05,0,.16.16,0,0,0,.1-.08,1.54,1.54,0,0,0,.19.17.05.05,0,0,0,0,0s0,.09.1.06l.12.09a1,1,0,0,0,.49.16.19.19,0,0,0-.09-.17,5.26,5.26,0,0,1-.65-.49,6.56,6.56,0,0,1-.23-.62l.12.14a2.46,2.46,0,0,0,.4.39s0,0,.08,0a.08.08,0,0,0,0-.1h0l0,0s.05-.08,0-.12a6.4,6.4,0,0,0-.42-.49,1.63,1.63,0,0,1-.4-.74.19.19,0,0,0,0-.08l.33.5a3.16,3.16,0,0,0,.38.44.14.14,0,0,0,0-.15s0,0,0,0a0,0,0,0,0,0-.06l-.1-.17-.2-.34a.44.44,0,0,0,.15.12s0,0,.06,0,0-.06,0-.09a3.32,3.32,0,0,1-.47-.74,1,1,0,0,1-.21-.52s0-.06,0-.08v0a2.45,2.45,0,0,0,.84,1,.13.13,0,0,0,0-.18c-.07-.08-.13-.17-.19-.25l.19.21a2,2,0,0,0,.21.2s.05,0,.08,0,0-.07,0-.11a1.64,1.64,0,0,0-.14-.22l-.1-.12a.19.19,0,0,0,0-.12,4,4,0,0,1-.54-1.19,1.18,1.18,0,0,1,0-.2c.05-.13.09-.26.15-.39a.37.37,0,0,1,.12-.13h0a.41.41,0,0,0,0,.11,1.65,1.65,0,0,0,.31,1s0,.06.07,0,.07-.05.06-.11-.1-.42-.17-.62a.24.24,0,0,1,0-.08,3.69,3.69,0,0,1,.11-.56,2.55,2.55,0,0,0,.11.55.27.27,0,0,0,.1.18s0,0,.05,0a.07.07,0,0,0,0-.06s0-.1,0-.15.05,0,.05-.08a3.45,3.45,0,0,0-.1-.56.13.13,0,0,0,0-.06h0c0-.05,0-.11,0-.17s0-.1,0-.15a.93.93,0,0,1,.26-.7.26.26,0,0,1,0,.12,5.36,5.36,0,0,0,0,1s0,.09,0,.07.1,0,.09-.1a4.17,4.17,0,0,1,0-.61,2.81,2.81,0,0,1,0-.29,2.81,2.81,0,0,0,.18.8,1.25,1.25,0,0,0,.1.27s0,.07.07.06a.08.08,0,0,0,.06-.09.77.77,0,0,0,0-.26,2.66,2.66,0,0,0-.1-.38v0a.92.92,0,0,1,0-.37c0-.13,0-.26,0-.39a2,2,0,0,1,.09-.54l.1-.11a2.43,2.43,0,0,0,.13,1.28.15.15,0,0,0,.09-.15c0-.31-.05-.62-.06-.94a1.61,1.61,0,0,1,0-.31l0-.05.06-.05a.24.24,0,0,1,.16-.07h0c0,.05,0,.1-.05.15s-.05.22-.07.33l0,0s0,.07,0,.09h0a1.49,1.49,0,0,0,0,.21.86.86,0,0,0,.1.41s0,0,.06,0a.11.11,0,0,0,.05-.11,3.94,3.94,0,0,1,.1-.84c.11-.16.24-.32.37-.48,0,0,0,0,0,0a.32.32,0,0,1,0,.14,1.9,1.9,0,0,0-.14.57s0,.06,0,.07a.06.06,0,0,0,.08-.05v0l0,0a.12.12,0,0,0,.12-.08c0-.14.1-.28.15-.41a2.29,2.29,0,0,0,.08-.28.87.87,0,0,1,.17-.33,1.71,1.71,0,0,1,.21-.26.31.31,0,0,1,.1-.05.22.22,0,0,1-.05.11,4.76,4.76,0,0,0-.38.9s-.05.07,0,.08a.1.1,0,0,0,.13-.06h0a.05.05,0,0,0,.06,0c.08-.18.19-.34.28-.52h0a2.38,2.38,0,0,0,0,.26c.08,0,.12,0,.13-.09A1.06,1.06,0,0,1,349,199c.07-.11.12-.23.18-.33a1.57,1.57,0,0,1,.42-.53.08.08,0,0,1,.07,0,2.32,2.32,0,0,0-.46,1.24.13.13,0,0,0,.14-.1q.17-.43.36-.87a1.38,1.38,0,0,1,.14-.27.24.24,0,0,1,.08-.09h0c-.05.09-.11.17-.17.26a3.27,3.27,0,0,0-.46,1.15.25.25,0,0,0,0,.08s0,.07,0,.08a.09.09,0,0,0,.1,0,1.1,1.1,0,0,0,.09-.14,2.34,2.34,0,0,1,.09-.24.16.16,0,0,0,.07-.07,4.64,4.64,0,0,1,.65-1,1.11,1.11,0,0,1,.27-.26l.35-.05a.09.09,0,0,1,.12.06h0l-.07,0a1.5,1.5,0,0,0-.54.55,1,1,0,0,0-.1.17s-.06.08,0,.11a.11.11,0,0,0,.13,0l.31-.31a.86.86,0,0,0,.13-.14.19.19,0,0,0,.08,0,2.32,2.32,0,0,1,.44-.16l-.34.31a.42.42,0,0,0-.11.18s0,0,0,.07a.06.06,0,0,0,.07,0,3,3,0,0,1,.3-.23l0,.05s-.05,0,0,.06a.06.06,0,0,0,.08,0,3.5,3.5,0,0,0,.43-.33s0,0,0,0a1.51,1.51,0,0,1,.88-.32c.06,0,.12,0,.21,0a5.4,5.4,0,0,0-1,.64c.11.07.11.06.21,0l.18-.12a2.77,2.77,0,0,0-.36.4.16.16,0,0,0,0,.07s0,.05,0,.08a.09.09,0,0,0,.1,0,.67.67,0,0,0,.14-.09c.11-.12.24-.22.35-.35l.06-.07c0,.05,0,.07,0,.09a.05.05,0,0,0,0,0,3.65,3.65,0,0,1,.55-.3,3.14,3.14,0,0,1,.57-.24l.09,0,.16.05a2.32,2.32,0,0,0-1.05.74.15.15,0,0,0,.18,0c.28-.2.57-.37.86-.55a.72.72,0,0,1,.2-.09.11.11,0,0,1,0,.06.2.2,0,0,0,0,.11h0l-.23.08h0s-.11,0-.12,0a1.79,1.79,0,0,0-.38.22l-.09.1s-.07.07-.05.1.09,0,.15,0,.25-.13.39-.18l.37-.15a6,6,0,0,1,.61.1l.06,0-.49.1-.24.09s-.06,0-.05.05a.09.09,0,0,0,.08,0h0a0,0,0,0,0,0,0,.09.09,0,0,0,.11.07l.32-.06.45-.08a1.31,1.31,0,0,1,.59,0l.08,0,.11.08a4.7,4.7,0,0,0-1.2.13c.05.09.06.1.12.1h0a0,0,0,0,0,.06,0,5.42,5.42,0,0,1,.57,0,.34.34,0,0,0-.14.05c-.06,0-.07.07,0,.1s0,0,0,0a3.33,3.33,0,0,1,.63,0,4.1,4.1,0,0,1,.61,0,.48.48,0,0,1,.28.13,2.41,2.41,0,0,0-1.33.21.14.14,0,0,0,.18.07l.32-.05-.46.12a.22.22,0,0,0-.11.05s-.06,0-.06,0a.11.11,0,0,0,.08.08,1.15,1.15,0,0,0,.26,0l.15,0a.17.17,0,0,0,.1,0h.43a3.09,3.09,0,0,1,1,.18l.07,0,.17.21.14.21a.06.06,0,0,1,0,.06h0a1.61,1.61,0,0,0-.71-.3,3,3,0,0,0-.43,0s-.08,0-.08,0a.11.11,0,0,0,.07.12l.32.08a2,2,0,0,0,.35.09,3.7,3.7,0,0,1,.42.37,3.27,3.27,0,0,0-.53-.17.37.37,0,0,0-.18,0s-.05,0,0,0,0,0,0,.05l.18.08h0s0,.08,0,.1a5.55,5.55,0,0,0,.52.2h0a3,3,0,0,1,.56.37,1,1,0,0,1,.22.41l-.34-.2a3.73,3.73,0,0,0-.63-.32s-.07,0-.08,0,0,.11.05.13a3.58,3.58,0,0,1,.48.24l.11.06a3.46,3.46,0,0,0-.78-.21h-.12s-.06,0-.07,0a.07.07,0,0,0,0,.09.86.86,0,0,0,.24.11l.38.1s0,0,0,0a5.41,5.41,0,0,1,.72.45,2.56,2.56,0,0,1,.37.3l0,0s0,.09,0,.14a2.51,2.51,0,0,0-1.16-.53c0,.12,0,.11.11.16.33.17.67.33,1,.53l.12.09c0,.05,0,.11,0,.17a0,0,0,0,1,0,.06h0l-.18-.18-.16-.14,0,0s0-.08-.09-.06a1.23,1.23,0,0,0-.37-.21.4.4,0,0,0-.15,0s-.09,0-.1,0a.11.11,0,0,0,0,.12l.23.15a4.06,4.06,0,0,1,.46.36c.09.2.16.41.24.62,0,0,0,0-.06,0a3.17,3.17,0,0,0-.48-.49s0,0-.06,0a.07.07,0,0,0,0,.1h0l0,0s0,.08,0,.13a4.09,4.09,0,0,1,.28.33c.09.12.21.22.3.34a1.75,1.75,0,0,1,.24.54s0,.07,0,.1L359,205a3.26,3.26,0,0,0-.43-.55s0-.08-.07-.05a.1.1,0,0,0,0,.14h0a.06.06,0,0,0,0,.06,4.46,4.46,0,0,1,.31.52l0,0a.29.29,0,0,0-.12-.1s-.05,0-.06,0-.05.07,0,.1a4.73,4.73,0,0,1,.45.71,2.86,2.86,0,0,1,.21.43.19.19,0,0,1,0,.08v.05A.28.28,0,0,1,359.26,206.39Zm-2.77,4.4-.08,0s0,0,0-.06a1.56,1.56,0,0,0,.16-.2A2.14,2.14,0,0,1,356.49,210.79ZM354,212a.46.46,0,0,1,.07-.07l.08-.09-.06.09S354,212,354,212Zm.25-.06a.43.43,0,0,1,.09-.13,5.24,5.24,0,0,0,.34-.61l-.24.55a.62.62,0,0,1-.14.18Zm-2.27.66h0Zm-1-.58a.08.08,0,0,1-.07,0l.43-.29.19-.14a2,2,0,0,1-.36.29L351,212Zm1.94-.07a2.53,2.53,0,0,1-.64.26h0a1.14,1.14,0,0,1,.26-.09L353,212Zm-.31.3a.05.05,0,0,1,0,0Zm-3.43-.63,0,0,0,0a2.4,2.4,0,0,1,.28,0h.07A1,1,0,0,1,349.2,211.64Zm-2.3-1.58.16,0h0A.24.24,0,0,1,346.9,210.06Zm.18.2s.05,0,.08,0a4,4,0,0,0,.69,0h-.17a2.22,2.22,0,0,1-.37,0,.39.39,0,0,1-.21,0Zm-1.93-7.11a.56.56,0,0,1,0,.12l0-.05a.33.33,0,0,1,0-.17Zm-.11.15s0,0,0,.06a3.3,3.3,0,0,0,.42.73l-.39-.53a.92.92,0,0,1-.09-.23Zm-.11,2.44.12.29,0,0-.12-.18A.29.29,0,0,1,344.93,205.74Zm2.81-6.52.09,0s0,0,0,.06-.11.14-.16.22A.88.88,0,0,1,347.74,199.22Zm2.41-1.16a.39.39,0,0,1,.1-.08l-.15.17Zm3.16-.1a4.55,4.55,0,0,0-.43.28l-.18.12a2.06,2.06,0,0,1,.37-.29l.15-.1Zm-1.88,0a2.21,2.21,0,0,1,.51-.18h0a4.85,4.85,0,0,0-.56.21Zm5.9,2-.21-.05h.08A.19.19,0,0,1,357.33,199.94Zm-.19-.2a0,0,0,0,1-.06,0,3.08,3.08,0,0,0-.68,0l.37,0a.62.62,0,0,1,.36,0Zm-2.05-1.32-.33,0,.2,0H355Zm4.57,5.48-.06.14c0-.06,0-.11,0-.16h.1Zm-.36.37-.13-.31a1.37,1.37,0,0,1,.15.21S359.31,204.23,359.3,204.27Zm.84-1h0a2,2,0,0,0-.33.29.21.21,0,0,0-.13-.11h0A1.33,1.33,0,0,1,360.14,203.32Zm-.72-1.58c0,.17-.09.34-.13.51A1.48,1.48,0,0,1,359.42,201.74Zm-.62-.61a.58.58,0,0,1,0-.14.62.62,0,0,1,0,.13,1.37,1.37,0,0,1,0,.35s0,0,0-.05A2.71,2.71,0,0,1,358.8,201.13Zm-1-2.08a1.49,1.49,0,0,0-.08.93.08.08,0,0,0,0,0,1.05,1.05,0,0,1-.05-.19c0-.14,0-.28-.06-.42A.81.81,0,0,1,357.82,199.05Zm-.57-.59,0-.07a1.3,1.3,0,0,0,0,.44c0,.14.05.29.08.44l-.06.12a.25.25,0,0,1,0,.09l-.08-.11A1,1,0,0,1,357.25,198.46Zm-2.54-1.28a1.5,1.5,0,0,0,.33.87l-.05,0a.21.21,0,0,0-.14-.16.08.08,0,0,1-.07-.06.18.18,0,0,0-.15-.14A.88.88,0,0,1,354.71,197.18Zm-5,0a1.67,1.67,0,0,0,.77.5h-.08l-.33-.11-.24-.08A2,2,0,0,1,349.72,197.14Zm-.83.11a1.91,1.91,0,0,0,.27.16,3,3,0,0,0,.53.19l.05.08s.1.08.09.12l-.15,0h0A1,1,0,0,1,348.89,197.25Zm-1.4,1.8a.74.74,0,0,0-.13.12v0a.2.2,0,0,0,0-.08Zm-.91-.13a1.39,1.39,0,0,0,.44.13.26.26,0,0,0-.06.19A1.16,1.16,0,0,1,346.58,198.92Zm-1.26,1.46a.75.75,0,0,0,.29-.06c.21-.07.42-.11.63-.17l0,0A1.7,1.7,0,0,1,345.32,200.38Zm.39.58-.07.11a1.18,1.18,0,0,1-.19.11.73.73,0,0,1-.32.09,1.88,1.88,0,0,0,.46-.25A.27.27,0,0,1,345.71,201Zm-1.48,2.14a.21.21,0,0,1-.12,0,1.38,1.38,0,0,0,.82-.39s0,0,0,.05a.57.57,0,0,1-.11.11l-.37.3Zm.35.47a1,1,0,0,1-.79.27,1.34,1.34,0,0,0,.44-.27l.27-.24.18,0h.07l-.05.12A.81.81,0,0,1,344.58,203.57Zm-.41,3.1a.23.23,0,0,1-.12,0,1.39,1.39,0,0,0,.57-.72.35.35,0,0,1,.05.13.14.14,0,0,0,0,.11.09.09,0,0,1,0,.11.2.2,0,0,0-.09.22l-.08.05Zm.64,1.59c0-.14.07-.29.11-.43l0-.12A2,2,0,0,1,344.81,208.26Zm.63.54a1.18,1.18,0,0,1,0,.2,1.3,1.3,0,0,0,0-.34v-.13h0l0,0Zm.43.58s0,0,0-.07l0,0a.09.09,0,0,1,0,.05,0,0,0,0,1,0,0Zm.6,1.54-.06,0a1.36,1.36,0,0,0,.08-.91l0,0a1.09,1.09,0,0,1,.05.17c0,.15.05.3.07.44A2.2,2.2,0,0,1,346.47,210.92Zm.6-.22a1,1,0,0,1-.13.9,1.48,1.48,0,0,0,0-.42c0-.14-.05-.29-.08-.43s.06-.15.1-.23l.06.09,0,0S347.06,210.69,347.07,210.7Zm2.12,1.25a.89.89,0,0,0,.2.06s0,0,0,0a.18.18,0,0,0-.05.08Zm.36.82s0,0,0,0a1.42,1.42,0,0,0-.08-.42h0a.25.25,0,0,0,.17,0v0A1.59,1.59,0,0,1,349.55,212.77Zm4.85-.19c0,.1.11.18.11.29a1.52,1.52,0,0,0-.77-.5h.08l.55.19h0Zm.91.12s0,0,0,.06a1,1,0,0,0-.4-.22l-.4-.14-.07-.09s-.08-.08-.07-.1l.15,0A1,1,0,0,1,355.31,212.7Zm2.12-1.83c.07.07.17.11.22.21a1.58,1.58,0,0,0-.91-.13.24.24,0,0,0,.09-.08.21.21,0,0,0,.17-.09.05.05,0,0,1,.08,0,.19.19,0,0,0,.18,0A.62.62,0,0,1,357.43,210.87Zm1.53-1.25-.2,0c-.19,0-.38.11-.58.16l-.21.05h0A1.66,1.66,0,0,1,359,209.62Zm.08-.88h.06a1.87,1.87,0,0,0-.48.26.23.23,0,0,1-.1.05l.07-.11.12-.08A.63.63,0,0,1,359,208.74Zm1-1.81,0,0a1.46,1.46,0,0,0-.82.39.11.11,0,0,1,0-.05,2.18,2.18,0,0,0,.28-.25l.18-.15A1.65,1.65,0,0,1,360.08,206.93Zm.35-.76a1.23,1.23,0,0,0-.32.17c-.14.1-.26.23-.39.34h-.15a.13.13,0,0,1-.09,0l.06-.14A1.07,1.07,0,0,1,360.43,206.17Z"/><path class="eyes-2" d="M456.63,206.55a.42.42,0,0,0-.15,0,.83.83,0,0,0-.59.16,1.9,1.9,0,0,0-.71.75.22.22,0,0,1-.08.09.11.11,0,0,0,0,0l.12-.22a1.78,1.78,0,0,1,.68-.68.1.1,0,0,0,0-.16.1.1,0,0,0-.15-.05,2.46,2.46,0,0,1-.34.22l-.06,0c.07-.12.15-.24.23-.36a1,1,0,0,1,.39-.33l.19-.07s.06,0,.06,0a.08.08,0,0,0,0-.07.19.19,0,0,0-.13,0,.59.59,0,0,0-.48.25l-.05,0a1.23,1.23,0,0,0-.32.49.28.28,0,0,1-.07.09,1.63,1.63,0,0,1,0-.31,2.1,2.1,0,0,1,.15-.3.49.49,0,0,1,.17-.18l.35-.26s.05,0,0-.06a.15.15,0,0,0-.21-.09,1.8,1.8,0,0,0-.4.33h0a.08.08,0,0,0,0,0,1.16,1.16,0,0,1,1-.64h.19c.09,0,.1,0,.06-.1a.13.13,0,0,0-.11-.05,1.09,1.09,0,0,1-.31-.08.68.68,0,0,0-.27-.07,1.13,1.13,0,0,0-.8.19h0s-.05,0-.09,0,0,0,0-.07a1.07,1.07,0,0,1,.84-.82l.26-.08s.06,0,0-.05-.09-.11-.17-.09l-.15,0a3.69,3.69,0,0,0-.49.24.76.76,0,0,0-.36.39.6.6,0,0,1-.06.11s0,0-.05,0a.84.84,0,0,1,0-.35,7.41,7.41,0,0,1,.24-.76,2.8,2.8,0,0,1,.53-.89s0-.05,0-.07-.09-.05-.14,0l-.1.07a1.64,1.64,0,0,0-.29.3l0,0a.11.11,0,0,0-.16,0,2.56,2.56,0,0,1-.22.35.84.84,0,0,0-.13.27v0a1.47,1.47,0,0,1,0-.69,3.8,3.8,0,0,1,.18-.6,1.36,1.36,0,0,1,.35-.56s.06-.07,0-.11-.07,0-.11,0a.68.68,0,0,0-.36.26,1.91,1.91,0,0,0-.15.28.23.23,0,0,0-.12.06,1.68,1.68,0,0,0-.22.47l0,.13h0c0-.12,0-.25-.06-.37a.15.15,0,0,0,0-.09s0-.06,0-.08,0-.25,0-.38a.85.85,0,0,1,.22-.57s.08-.06,0-.11-.09,0-.14,0l-.06,0a.61.61,0,0,0-.24.43,2.81,2.81,0,0,0,0,.5s0,0-.06,0a.2.2,0,0,0-.21-.07,1.15,1.15,0,0,1,.13-1.32,1.23,1.23,0,0,1,.35-.29s.08,0,.07-.08a.11.11,0,0,0-.13-.05l-.06,0-.12.06c-.13.08-.29.05-.43.14a1.48,1.48,0,0,0-.31.25.2.2,0,0,1,0-.07,2.74,2.74,0,0,1,.1-1s0-.06,0-.07-.11,0-.13.05l0,0a.23.23,0,0,0-.1.07,1.92,1.92,0,0,0-.28.42,1.05,1.05,0,0,0-.16.59,1.32,1.32,0,0,1-.22-.48c0-.21-.08-.41-.1-.62a1.6,1.6,0,0,1,.08-.65s0-.09,0-.11a.08.08,0,0,0-.1,0,.6.6,0,0,0-.22.39,1.9,1.9,0,0,0,.15,1.05,1.33,1.33,0,0,1,.15.32l-.06,0a1.82,1.82,0,0,1-.3-.68,2.6,2.6,0,0,1,0-.39c0-.1,0-.14-.12-.14s-.12,0-.12.12,0,.22,0,.34v.11c-.07-.14-.14-.28-.2-.42a.86.86,0,0,1-.05-.61s.05-.09,0-.11-.09,0-.13,0a.25.25,0,0,0,0,.07.64.64,0,0,0,0,.49,2.41,2.41,0,0,0,.25.57.45.45,0,0,1,.1.17l-.31-.15-.12-.18a.62.62,0,0,1-.12-.3c0-.16,0-.32,0-.48a0,0,0,0,0,0,0,.14.14,0,0,0-.19.11,1.7,1.7,0,0,0,.07.51l-.08-.13a1.25,1.25,0,0,1-.08-.83,1.14,1.14,0,0,1,.19-.4s.06-.08,0-.11-.09,0-.13,0l-.05.05a.43.43,0,0,0-.09.1c-.08.13-.24.17-.32.31a1.29,1.29,0,0,0-.24.78.17.17,0,0,1,0,.07s0,0,0,0a.05.05,0,0,1-.05,0,1,1,0,0,1-.4-.89,2.88,2.88,0,0,1,.11-.49s0-.09,0-.11-.08,0-.13,0,0,.07-.07.11a1.41,1.41,0,0,0-.07.5.9.9,0,0,0,.17.68s.08.09.05.13l-.05,0a.62.62,0,0,1-.23-.14A2.61,2.61,0,0,0,449,199a4,4,0,0,1-.76-.94,2,2,0,0,1-.17-.36s0-.1-.07-.08-.1,0-.08.12a.19.19,0,0,1,0,.08.77.77,0,0,0,.14.47.1.1,0,0,0,0,.14c.05.1.12.2.17.3a.89.89,0,0,0,.23.34l-.15-.05a2.17,2.17,0,0,1-.42-.17,2.72,2.72,0,0,1-.79-.76,1.25,1.25,0,0,1-.2-.44.35.35,0,0,0-.05-.08h-.05a.39.39,0,0,0-.05.28,1,1,0,0,0,.33.64l0,0a1.31,1.31,0,0,0,.43.53h0l-.1,0a3.74,3.74,0,0,1-.84-.38.92.92,0,0,1-.45-.52s0,0,0,0,0,0-.08,0a.14.14,0,0,0-.05.09.68.68,0,0,0,.16.42,2.16,2.16,0,0,0,.54.37l0,0a.25.25,0,0,0,0,.14,1.23,1.23,0,0,1-.38,0,1,1,0,0,1-.39-.14,1.23,1.23,0,0,1-.54-.85,1.48,1.48,0,0,1,0-.21s0-.08-.05-.08a.1.1,0,0,0-.09.06.06.06,0,0,0,0,0,1.71,1.71,0,0,1-.09.46.43.43,0,0,0,0,.2,1.93,1.93,0,0,0,.06.36,3.74,3.74,0,0,1-.58-.33,1.42,1.42,0,0,1-.3-.25s0-.08-.1,0a.1.1,0,0,0,0,.14h0a.11.11,0,0,0,0,.08.63.63,0,0,0,.07.22,4.41,4.41,0,0,0,.35.53.48.48,0,0,0,.23.16l.05,0h-.27a3,3,0,0,1-1-.36,1.19,1.19,0,0,1-.37-.3.24.24,0,0,0-.08-.06l0,0a.4.4,0,0,0,.07.28,1.08,1.08,0,0,0,.57.44,2,2,0,0,0,.84.15s.07,0,.1,0l0,0h-.18a1.71,1.71,0,0,1-1-.23.12.12,0,0,0-.2.08.08.08,0,0,0,.05.12c.1,0,.2.08.3.14l.11.06a2.64,2.64,0,0,1-.4,0,1,1,0,0,1-.63-.28l0,0s-.06,0-.08,0a.09.09,0,0,0,0,.1c.08.13.16.27.32.31a1.75,1.75,0,0,0,.72.1.45.45,0,0,1,.2,0v0l-.25.17-.25,0a.77.77,0,0,1-.39-.09l-.34-.15s0,0-.05,0a.13.13,0,0,0,0,.21,1.33,1.33,0,0,0,.5.19.49.49,0,0,1-.24,0,1.21,1.21,0,0,1-.86-.54,1,1,0,0,1-.1-.18s0-.07-.08-.05a.09.09,0,0,0,0,.09s0,0,0,.05a1.66,1.66,0,0,1,.12.45c0,.06,0,.12.07.18a1.33,1.33,0,0,0,.51.54h0a.16.16,0,0,0,0,.15h0a1,1,0,0,1-1.11-.34l-.19-.17s0,0-.05,0a.17.17,0,0,0,0,.19.85.85,0,0,0,.16.17,3.65,3.65,0,0,0,.54.32.54.54,0,0,0,.28,0h.23s.05,0,0,0a1.09,1.09,0,0,1-.25.1c-.26.06-.52.14-.8.18a3.17,3.17,0,0,1-1,0s-.07,0-.09,0,0,.1.05.11a.52.52,0,0,1,.13.06,1.4,1.4,0,0,0,.45.1c-.08,0-.11.07-.1.16a.09.09,0,0,0,.1.08H441a1.14,1.14,0,0,0,.32,0l-.1.09a2.16,2.16,0,0,1-1.15.4,1.41,1.41,0,0,1-.58,0s-.07,0-.09,0a.1.1,0,0,0,0,.09l.1.08a.83.83,0,0,0,.59.11.13.13,0,0,0,.11.11,1.45,1.45,0,0,0,.62-.07,3.51,3.51,0,0,1-.77.5.69.69,0,0,1-.35.08l-.23,0c-.07,0-.09,0-.06.1s0,0,.05.05a.68.68,0,0,0,.46.07,2.71,2.71,0,0,0,.52-.24s0,0,0,0a0,0,0,0,1,0,.07.2.2,0,0,0,0,.26l-.15.17a1.18,1.18,0,0,1-1,.26,1.24,1.24,0,0,1-.4-.16s-.08,0-.1,0a.13.13,0,0,0,0,.13h0a1.94,1.94,0,0,1,.37.33.46.46,0,0,0,.22.14l.27.09,0,0a2.94,2.94,0,0,1-.93.44s-.07,0-.06.07,0,.09.09.08h0a.44.44,0,0,0,.2.08,1.87,1.87,0,0,0,.41,0,.94.94,0,0,0,.61-.16l0,0a2.16,2.16,0,0,1-.86.86,1.29,1.29,0,0,1-.54.22s-.07,0-.07,0a.09.09,0,0,0,.06.07l.13,0a.93.93,0,0,0,.64-.2,1.87,1.87,0,0,0,.64-.7.39.39,0,0,1,.09-.11s0,.05,0,.07l-.05.1a1.78,1.78,0,0,1-.77.79.06.06,0,0,0,0,.06.16.16,0,0,0,.08.15c.06,0,.1,0,.14,0a1.74,1.74,0,0,1,.36-.24,3.76,3.76,0,0,1-.32.46.85.85,0,0,1-.28.22,2,2,0,0,1-.22.08c-.07,0-.07.08,0,.12l.06,0a.7.7,0,0,0,.45-.13,2,2,0,0,0,.48-.66.16.16,0,0,1,.06-.09.65.65,0,0,0,0,.2s0,.08,0,.11a1.33,1.33,0,0,1-.11.24.67.67,0,0,1-.22.25c-.13.08-.24.18-.36.26s0,0,0,0a.14.14,0,0,0,.19.11l.06,0a1.12,1.12,0,0,0,.36-.29,1.22,1.22,0,0,1-.78.64,1,1,0,0,1-.43,0s-.1,0-.1,0,0,.09.08.11h0a1.65,1.65,0,0,1,.48.14.55.55,0,0,0,.26,0,1.19,1.19,0,0,0,.7-.22h.08a.86.86,0,0,1-.05.27,1.12,1.12,0,0,1-.81.65,1,1,0,0,0-.25.07c-.05,0,0,0,0,.07s.19.07.29,0a2.48,2.48,0,0,0,.37-.17,1,1,0,0,0,.52-.49s0-.12.08-.11h0a.87.87,0,0,1,0,.32,5.74,5.74,0,0,1-.31.91,2.23,2.23,0,0,1-.46.75s0,.07,0,.09a.09.09,0,0,0,.13,0l.08-.06a1,1,0,0,0,.31-.31.17.17,0,0,0,.12.08c.06,0,.09,0,.11-.09a1.9,1.9,0,0,1,.22-.37.59.59,0,0,0,.09-.2,1.43,1.43,0,0,1,.06.35,2.52,2.52,0,0,1-.31,1.2,1,1,0,0,1-.25.35.08.08,0,0,0,0,.09s0,0,.07,0a.26.26,0,0,0,.15,0,.9.9,0,0,0,.4-.5.13.13,0,0,0,.1,0,.21.21,0,0,1,0-.06,1.54,1.54,0,0,0,.23-.58h0a3.83,3.83,0,0,1,.07.83,1,1,0,0,1-.25.74s0,0,0,.06,0,0,.07,0a.16.16,0,0,0,.11-.05.7.7,0,0,0,.28-.46,3.54,3.54,0,0,0,0-.46l0,0a.25.25,0,0,0,.25,0h0a1.34,1.34,0,0,1,.16.6,1.24,1.24,0,0,1-.25.69,1.22,1.22,0,0,1-.4.35s-.07,0,0,.07,0,0,.08.05l.09,0,.23-.1a1.92,1.92,0,0,0,.32-.09,1.49,1.49,0,0,0,.33-.27,1.55,1.55,0,0,1,0,.22,2.41,2.41,0,0,1-.1.88c0,.05,0,.07,0,.08s.1,0,.12-.06v0l0,0a.7.7,0,0,0,.2-.22l.2-.39a.71.71,0,0,0,.08-.47,1.3,1.3,0,0,1,.1.15,2.72,2.72,0,0,1,.24,1.22,1,1,0,0,1-.09.42.09.09,0,0,0,0,.09s.06,0,.08,0,.08-.06.11-.1a1,1,0,0,0,.15-.73,1.94,1.94,0,0,0-.27-.81l-.06-.12,0,0,0,0,.1.17a1.8,1.8,0,0,1,.26,1c0,.07,0,.11.12.12s.13,0,.12-.11,0-.31,0-.47c.06.1.11.2.16.3a1,1,0,0,1,.09.78s0,.05,0,.06a.08.08,0,0,0,.08,0,.2.2,0,0,0,.09-.09.72.72,0,0,0,0-.54,2,2,0,0,0-.31-.64s0,0,0-.07l.28.13h0l.06.07a.81.81,0,0,1,.18.4l.06.48s0,.05,0,.06a.14.14,0,0,0,.18-.14,1.83,1.83,0,0,0-.07-.46.08.08,0,0,1,0-.05,1.13,1.13,0,0,1,.18.93,1.09,1.09,0,0,1-.21.48s0,.06,0,.08.06,0,.1,0,0,0,.06,0a1.54,1.54,0,0,0,.17-.19c.07-.08.18-.12.25-.22a1.55,1.55,0,0,0,.24-.58.81.81,0,0,0,0-.22.16.16,0,0,0,.13,0l.05,0a1.06,1.06,0,0,1,.23,1.07l-.06.29s0,.05,0,.05a.21.21,0,0,0,.17-.08.74.74,0,0,0,.08-.29c0-.14,0-.29,0-.44a.7.7,0,0,0-.16-.5.53.53,0,0,1-.06-.1s0-.06,0-.06a.63.63,0,0,1,.24.13c.14.13.29.26.42.4a4,4,0,0,1,.61.81,1.4,1.4,0,0,1,.15.33s0,.09.07.07.09,0,.07-.11,0-.05,0-.08a1.08,1.08,0,0,0-.14-.48s.06-.08,0-.13-.17-.3-.25-.46a.49.49,0,0,0-.14-.18l.24.08a1.5,1.5,0,0,1,.53.28,3.39,3.39,0,0,1,.49.51,1.47,1.47,0,0,1,.27.47.41.41,0,0,0,.07.15h0a.28.28,0,0,0,.06-.18,1,1,0,0,0-.3-.7l-.06-.06a1.51,1.51,0,0,0-.24-.36,1.41,1.41,0,0,0-.18-.17l.12,0,.3.11,0,.05a.21.21,0,0,0,.19.07h0a3.9,3.9,0,0,1,.35.19.87.87,0,0,1,.34.37.84.84,0,0,1,.06.14c0,.06.07.07.11,0a.17.17,0,0,0,0-.14.63.63,0,0,0-.3-.47.28.28,0,0,1-.09-.07,1.19,1.19,0,0,0-.35-.19s0-.06.06-.06a.19.19,0,0,0,.2-.12,1.8,1.8,0,0,1,.45.09,1.26,1.26,0,0,1,.73,1v.14c0,.07,0,.08.1,0s0-.06,0-.1,0-.29.09-.42a.15.15,0,0,0,0-.07,2,2,0,0,0,0-.34l-.05-.17a5.45,5.45,0,0,1,.62.35,1.22,1.22,0,0,1,.27.24s.05.07.1,0a.1.1,0,0,0,0-.14h0a.08.08,0,0,0,0-.07,1,1,0,0,0-.08-.25,4.87,4.87,0,0,0-.32-.47.55.55,0,0,0-.29-.21h0a1.52,1.52,0,0,1,.52,0,3.74,3.74,0,0,1,.66.25,1.57,1.57,0,0,1,.45.31.63.63,0,0,0,.12.11l.05,0a.58.58,0,0,0,0-.19,1,1,0,0,0-.57-.51,1.94,1.94,0,0,0-.86-.16.3.3,0,0,1-.13,0l.05,0h.12a1.73,1.73,0,0,1,1,.23.12.12,0,0,0,.2-.09c0-.05,0-.08,0-.11a2.7,2.7,0,0,1-.34-.17l-.08,0a3.85,3.85,0,0,1,.48,0,.89.89,0,0,1,.46.19l.12.11c.05,0,.09,0,.1,0a.15.15,0,0,0-.05-.14.57.57,0,0,0-.46-.29l-.12,0a1.39,1.39,0,0,0-.41,0,.41.41,0,0,1-.22,0s.06-.06.09-.08l.15-.11.19,0a.7.7,0,0,1,.35,0l.46.2a0,0,0,0,0,.05,0c.06,0,.07-.17,0-.2a.81.81,0,0,0-.27-.15l-.26-.06h.06a1.23,1.23,0,0,1,1.09.61.35.35,0,0,0,.07.12c0,.07.07.06.11,0a.14.14,0,0,0,0-.11c0-.14-.13-.27-.1-.42a.11.11,0,0,0,0-.06,3,3,0,0,0-.16-.31,1.24,1.24,0,0,0-.44-.38h0a.19.19,0,0,0,0-.12l.05,0a1.07,1.07,0,0,1,.92.14c.15.08.24.23.37.33s.05.06.09,0,0-.06,0-.1a.1.1,0,0,0,0-.09.81.81,0,0,0-.18-.19,4.85,4.85,0,0,0-.49-.29.51.51,0,0,0-.36-.06H453c-.05,0-.05,0,0,0l0,0a2.21,2.21,0,0,0,.42-.12,4.68,4.68,0,0,1,.83-.16,2.11,2.11,0,0,1,.79,0c.05,0,.07,0,.08-.05a.1.1,0,0,0-.07-.11l-.12-.05a1.1,1.1,0,0,0-.47-.1c.1,0,.14-.06.12-.16s0-.08-.09-.08-.25,0-.38,0a.93.93,0,0,0-.29,0l0,0a1.34,1.34,0,0,1,.5-.29,2.78,2.78,0,0,1,.63-.16,2.08,2.08,0,0,1,.5,0l.19,0a.07.07,0,0,0,.07,0s0,0,0-.07a.32.32,0,0,0-.12-.11.93.93,0,0,0-.59-.11.12.12,0,0,0-.08-.1,1.06,1.06,0,0,0-.31,0l-.3.07h0a3.54,3.54,0,0,1,.65-.44.85.85,0,0,1,.49-.14l.2,0s.06,0,.07,0a.06.06,0,0,0,0-.08.14.14,0,0,0-.1-.08.57.57,0,0,0-.54,0s0,0-.07,0a1.42,1.42,0,0,0-.5.3.15.15,0,0,1-.09.06c0-.06,0-.11,0-.16l.05,0a.19.19,0,0,0,.21-.16.17.17,0,0,0-.07-.19,1,1,0,0,1,.24-.26,1.16,1.16,0,0,1,1.2-.13l.18.08c.07,0,.09,0,.08-.07a.11.11,0,0,0-.06-.09.71.71,0,0,1-.25-.2.66.66,0,0,0-.22-.19,1.31,1.31,0,0,0-.37-.15l.26-.17a2.13,2.13,0,0,1,.73-.3s.06,0,0-.08a.08.08,0,0,0-.1-.07h0l-.07,0-.15,0a3.25,3.25,0,0,0-.54,0,.69.69,0,0,0-.46.17,1.39,1.39,0,0,1,.31-.45,2.8,2.8,0,0,1,.5-.41,1.71,1.71,0,0,1,.45-.22l.18-.05a.06.06,0,0,0,.06,0A.07.07,0,0,0,456.63,206.55Zm-2.11,1.82,0,0a.21.21,0,0,1,0,.15Zm.14-.06a.05.05,0,0,1,0-.05,3.68,3.68,0,0,0-.39-.7c.12.17.24.33.36.51a.52.52,0,0,1,.08.19S454.66,208.29,454.66,208.31Zm.07-.31a2.33,2.33,0,0,0-.84-1c0,.1,0,.1,0,.19l.16.2a4.21,4.21,0,0,0-.37-.36s0-.06-.09,0,0,.08,0,.12a.22.22,0,0,0,0,.08l.18.25a.09.09,0,0,0,0,.07l.15.24a4.86,4.86,0,0,1,.41.93.86.86,0,0,1,.05.27c0,.06,0,.13-.07.2s0,.05-.06,0a.19.19,0,0,0-.13,0,1.69,1.69,0,0,0-.32-.89s0-.05-.05,0-.08.06-.06.12.08.28.11.42a1.29,1.29,0,0,0,.08.26,3.49,3.49,0,0,1-.12.54,4.35,4.35,0,0,0-.1-.52.44.44,0,0,0-.1-.19s0,0-.06,0,0,0,0,0,0,.1,0,.15a.07.07,0,0,0,0,.06s0,.05,0,.08a3,3,0,0,0,.09.51h0s0,.05,0,.08a.28.28,0,0,1,0,.09,1.81,1.81,0,0,1-.06.57,1.46,1.46,0,0,1-.22.35,2.71,2.71,0,0,1,0-.29,5.08,5.08,0,0,0-.05-.87s0-.05-.06,0-.07.07-.06.13a4.13,4.13,0,0,1,0,.86,2.63,2.63,0,0,0-.06-.39,3,3,0,0,0-.21-.66s0-.08-.07-.07-.07.06-.07.1a.33.33,0,0,0,0,.1c0,.16.06.32.11.47l0,.05h0a6.3,6.3,0,0,1-.08,1.27.19.19,0,0,1,0,.08l-.11.11a1.86,1.86,0,0,0,0-.33,2.5,2.5,0,0,0-.14-.86s0-.09,0-.07a.08.08,0,0,0-.07.09c0,.08,0,.16,0,.24,0,.32,0,.63,0,.95a.28.28,0,0,1,0,.09h0a.17.17,0,0,0-.18,0,2.44,2.44,0,0,0,.06-.26h0s.08-.1,0-.14a.25.25,0,0,0,0-.08.86.86,0,0,0-.07-.5s0-.08,0-.07a.14.14,0,0,0-.08.1c0,.1,0,.21,0,.32a3.33,3.33,0,0,1-.07.54c-.13.18-.27.34-.42.51a1.72,1.72,0,0,1,.07-.21,2.23,2.23,0,0,0,.12-.51s0-.05,0-.06a.05.05,0,0,0-.07,0,.08.08,0,0,0,0,0l0,0c-.05,0-.09,0-.11.06a.56.56,0,0,0,0,.12c-.07.22-.17.44-.23.66a.65.65,0,0,1-.11.22,2.16,2.16,0,0,1-.27.33l-.09,0c.05-.08.09-.17.13-.25a4.05,4.05,0,0,0,.33-.81s0-.05,0,0a.1.1,0,0,0-.1.06h0s0,0-.05,0-.18.33-.27.49a.3.3,0,0,0,0-.16s0-.06,0-.06-.08,0-.08,0a3.36,3.36,0,0,1-.3.6,4.33,4.33,0,0,1-.31.51.5.5,0,0,1-.24.17,2.62,2.62,0,0,0,.21-.34,2.39,2.39,0,0,0,.24-.84s0-.07,0-.08a.11.11,0,0,0-.11.06l-.09.22,0,.1a2.63,2.63,0,0,0,.08-.3.7.7,0,0,0,.05-.25s0-.05,0-.07a.1.1,0,0,0-.1,0,.42.42,0,0,0-.1.17,1.8,1.8,0,0,0-.08.21s0,0-.06.05l-.15.28a4.4,4.4,0,0,1-.57.79,1,1,0,0,1-.21.19,2.33,2.33,0,0,1-.53.07l-.09,0a1.66,1.66,0,0,0,.86-.85.06.06,0,0,0,0-.08s-.09,0-.12,0a.26.26,0,0,0-.09.09l-.37.37-.05,0a4.43,4.43,0,0,1-.47.17,2.92,2.92,0,0,0,.37-.34.35.35,0,0,0,.09-.16s0,0,0-.06a.08.08,0,0,0-.07,0,2.43,2.43,0,0,1-.32.24l.05,0s.06,0,0-.08a.07.07,0,0,0-.09,0,5.2,5.2,0,0,0-.44.35.23.23,0,0,1-.1.07,4,4,0,0,1-.46.23,1.13,1.13,0,0,1-.55,0,4.69,4.69,0,0,0,1-.64.15.15,0,0,0-.2,0l-.15.1a1.7,1.7,0,0,0,.22-.24.8.8,0,0,0,.15-.21s0,0,0-.07a.07.07,0,0,0-.09,0,.48.48,0,0,0-.17.1c-.12.12-.24.23-.35.36l-.06.06s0,0,0,0,0,0,0,0-.06-.06-.1,0-.42.21-.61.34a5.32,5.32,0,0,1-.5.21l-.11,0-.14,0a2.35,2.35,0,0,0,1-.74c-.07,0-.13,0-.2,0s-.42.29-.64.42l-.32.18-.11,0-.05,0a.2.2,0,0,1-.1-.08l0,0a2.77,2.77,0,0,0,.41-.12h0s.1,0,.1-.05h0l.23-.11a.84.84,0,0,0,.24-.22s.07-.05,0-.09a.1.1,0,0,0-.13,0c-.15.07-.31.16-.47.22l-.31.12c-.21,0-.41-.06-.62-.1l-.06,0,.36-.07a1.29,1.29,0,0,0,.38-.12s.06,0,.05-.05a.09.09,0,0,0-.09-.05h0a0,0,0,0,0,0,0,.12.12,0,0,0-.1-.08l-.08,0c-.24.06-.49.07-.72.14a.82.82,0,0,1-.27,0,2.57,2.57,0,0,1-.4-.07l-.1-.07a4.83,4.83,0,0,0,1.21-.13.14.14,0,0,0-.13-.09v0s0,0-.07,0a2.54,2.54,0,0,1-.39,0h-.17a.52.52,0,0,0,.16-.06s.06,0,0-.05,0-.07-.08-.06a3.35,3.35,0,0,1-.71.05,4.71,4.71,0,0,1-.53,0,.32.32,0,0,1-.14,0h0l-.11-.08a2.46,2.46,0,0,0,1.31-.22c0-.08-.12-.08-.19-.07l-.31,0,.26-.07a1.81,1.81,0,0,0,.31-.09s.07,0,.06-.06a.08.08,0,0,0-.08-.07,1.13,1.13,0,0,0-.26,0l-.15,0-.08,0c-.17,0-.35,0-.52,0a2.84,2.84,0,0,1-1-.21,2,2,0,0,1-.18-.23s0-.06,0-.09l.05,0a1.82,1.82,0,0,0,1,.2s.06,0,.06,0,0-.09-.06-.11l-.09,0c-.2,0-.39-.11-.59-.15a2.93,2.93,0,0,1-.42-.37,3.62,3.62,0,0,0,.53.17.22.22,0,0,0,.16,0s.06,0,.06,0a.06.06,0,0,0-.05-.06l-.17-.07v0a.07.07,0,0,0,0-.08,4.19,4.19,0,0,0-.49-.2.61.61,0,0,1-.17-.07,1.32,1.32,0,0,0-.25-.16.9.9,0,0,1-.38-.44s0-.08,0-.12l.51.31a3.59,3.59,0,0,0,.53.24.14.14,0,0,0-.09-.17c-.18-.08-.35-.17-.53-.27a2.58,2.58,0,0,0,.56.16,2.87,2.87,0,0,0,.31.05s.07,0,.09,0a.09.09,0,0,0-.05-.1.94.94,0,0,0-.23-.1l-.38-.1s0,0,0,0a3.87,3.87,0,0,1-.75-.46,1.43,1.43,0,0,1-.35-.3s0-.1-.05-.16a2.43,2.43,0,0,0,1.16.54.13.13,0,0,0-.09-.16c-.34-.16-.66-.33-1-.52l-.12-.09.05,0a.16.16,0,0,0,.11-.07l.18.17a.05.05,0,0,1,0,0s.05.08.1.05l.12.09a.81.81,0,0,0,.5.16.18.18,0,0,0-.1-.17,4.36,4.36,0,0,1-.65-.48,6.5,6.5,0,0,1-.22-.62l.11.13a2.16,2.16,0,0,0,.41.39s0,.06.07,0,0-.06,0-.09l0,0s0,0,0,0,.05-.07,0-.11a5.15,5.15,0,0,0-.43-.5,1.59,1.59,0,0,1-.4-.73s0,0,0-.08l.32.49a2.74,2.74,0,0,0,.39.45c0-.06,0-.11,0-.16h0a.06.06,0,0,0,0-.06,1.63,1.63,0,0,1-.11-.17l-.2-.34a.42.42,0,0,0,.15.12s0,0,.06,0,0,0,0-.08a3.24,3.24,0,0,1-.48-.74,1,1,0,0,1-.2-.53v-.1a2.42,2.42,0,0,0,.84,1,.14.14,0,0,0,0-.19l-.19-.24a1.8,1.8,0,0,0,.19.2,1.31,1.31,0,0,0,.21.2s0,0,.09,0a.09.09,0,0,0,0-.11,1,1,0,0,0-.14-.22.64.64,0,0,0-.1-.13.23.23,0,0,0,0-.11,4.43,4.43,0,0,1-.55-1.19,1.55,1.55,0,0,1,0-.21c0-.13.1-.26.16-.38a.24.24,0,0,1,.11-.13h0s0,.07,0,.1a1.71,1.71,0,0,0,.31,1s0,.06.07,0,.08-.05.06-.1a4.5,4.5,0,0,0-.17-.63s0,0,0-.08a3.57,3.57,0,0,1,.11-.55,3.57,3.57,0,0,0,.11.55.46.46,0,0,0,.1.18s0,0,.05,0a0,0,0,0,0,0-.06s0-.1,0-.15a.06.06,0,0,0,0-.08,3.44,3.44,0,0,0-.09-.56.09.09,0,0,1,0-.05h0a1.08,1.08,0,0,1,0-.18s0-.1,0-.15a.93.93,0,0,1,.26-.69.25.25,0,0,1,0,.12,5.25,5.25,0,0,0,0,1s0,.09,0,.08.1,0,.08-.11a6,6,0,0,1,0-.61c0-.09,0-.19,0-.29a2.86,2.86,0,0,0,.17.81.85.85,0,0,0,.11.26s0,.07.06.07a.11.11,0,0,0,.07-.09,2.06,2.06,0,0,0,0-.26c0-.13-.07-.26-.11-.39s0,0,0,0a.92.92,0,0,1,0-.37c0-.13,0-.25,0-.38a2,2,0,0,1,.09-.55l.11-.1a2.33,2.33,0,0,0,.12,1.28c.06,0,.1-.08.09-.15,0-.32-.05-.63-.05-.94a1.06,1.06,0,0,1,0-.31s0,0,0-.06l.06,0a.39.39,0,0,1,.16-.07h0c0,.05,0,.1,0,.15s-.06.22-.08.33l0,0s0,.07,0,.09h0a1.48,1.48,0,0,0,0,.21,1,1,0,0,0,.09.41s0,0,.07,0a.14.14,0,0,0,.05-.11,3.84,3.84,0,0,1,.09-.83c.12-.17.25-.33.37-.48s0,0,0,0a.21.21,0,0,1,0,.14,2.34,2.34,0,0,0-.14.58s0,.06,0,.07a.08.08,0,0,0,.08-.06v0s0,0,0,0a.1.1,0,0,0,.11-.08l.15-.41c0-.09.07-.18.09-.27a1,1,0,0,1,.16-.34l.21-.26.1-.05a.18.18,0,0,1,0,.11,5.06,5.06,0,0,0-.38.9s-.06.08,0,.09a.1.1,0,0,0,.12-.06h0s0,0,.06,0a5.05,5.05,0,0,1,.28-.51h0a2,2,0,0,0-.05.26c.09,0,.12,0,.14-.1a1,1,0,0,1,.15-.33c.07-.11.12-.23.19-.34a1.36,1.36,0,0,1,.42-.53s0,0,.06,0a2.44,2.44,0,0,0-.46,1.25.16.16,0,0,0,.15-.1,8.31,8.31,0,0,1,.35-.87,1.22,1.22,0,0,1,.14-.28l.08-.09h.05a2.94,2.94,0,0,1-.17.26,3.54,3.54,0,0,0-.47,1.16s0,.05,0,.08,0,.06,0,.07a.07.07,0,0,0,.1,0,.64.64,0,0,0,.08-.14l.09-.24a.11.11,0,0,0,.07-.06,5,5,0,0,1,.65-1,1.6,1.6,0,0,1,.27-.25,2.14,2.14,0,0,1,.35-.06c.06,0,.1,0,.12.07h0l-.07,0a1.58,1.58,0,0,0-.54.55,1.4,1.4,0,0,0-.09.17s-.07.08,0,.11a.1.1,0,0,0,.14,0l.3-.31.14-.13.07,0a3.47,3.47,0,0,1,.45-.17,3.39,3.39,0,0,0-.34.31.44.44,0,0,0-.12.18s0,.05,0,.07.05,0,.08,0a2.32,2.32,0,0,1,.3-.22l0,0s-.05,0,0,.07a.07.07,0,0,0,.09,0,4.46,4.46,0,0,0,.42-.34l.05,0a1.59,1.59,0,0,1,.87-.32c.07,0,.13,0,.22,0a4.84,4.84,0,0,0-1,.64c.1.07.1.07.2,0l.18-.12a4.48,4.48,0,0,0-.36.4l0,.07s0,0,0,.08a.09.09,0,0,0,.11,0,1,1,0,0,0,.13-.09,3.85,3.85,0,0,0,.35-.35l.06-.07c0,.05,0,.08,0,.09h0a3.06,3.06,0,0,1,.56-.31,5.55,5.55,0,0,1,.56-.24l.1,0,.15,0a2.48,2.48,0,0,0-1,.74.15.15,0,0,0,.19,0c.27-.19.57-.36.85-.54a.75.75,0,0,1,.2-.1.07.07,0,0,1,0,.06.14.14,0,0,0,0,.11h0l-.24.07h0s-.11,0-.12,0a1.17,1.17,0,0,0-.37.22.43.43,0,0,0-.1.09s-.07.08,0,.11a.12.12,0,0,0,.14,0,3.49,3.49,0,0,1,.39-.19l.38-.14.61.09.05,0-.49.11-.24.08s-.06,0,0,.05,0,.06.07,0h0s0,0,0,0,.05.09.11.08l.32-.06.45-.09a1.18,1.18,0,0,1,.59,0l.09,0,.1.07a4.75,4.75,0,0,0-1.2.14c0,.08.06.1.12.09v0a0,0,0,0,0,.05,0,3.62,3.62,0,0,1,.57,0l-.14,0c-.06,0-.06.07,0,.11a0,0,0,0,0,0,0,3.33,3.33,0,0,1,.63,0,4.28,4.28,0,0,1,.62,0,.46.46,0,0,1,.27.13,2.46,2.46,0,0,0-1.32.21.15.15,0,0,0,.17.08l.33,0a2.37,2.37,0,0,0-.46.11l-.12.05s-.06,0-.06.05a.1.1,0,0,0,.08.07,1.11,1.11,0,0,0,.26,0l.16,0a.12.12,0,0,0,.09,0,3.09,3.09,0,0,1,.43,0,3.48,3.48,0,0,1,1.06.19l.06,0a1.92,1.92,0,0,1,.18.22l.13.2a.06.06,0,0,1,0,.07h0a1.48,1.48,0,0,0-.71-.31,3,3,0,0,0-.42,0s-.09,0-.09,0,0,.1.07.11a3,3,0,0,1,.32.09l.35.09a3.67,3.67,0,0,1,.43.37,4.72,4.72,0,0,0-.53-.18h-.19s0,0,0,0a.05.05,0,0,0,0,0l.19.07h0a.07.07,0,0,0,0,.09,3.17,3.17,0,0,0,.51.2h0a2.63,2.63,0,0,1,.56.38.75.75,0,0,1,.22.41l-.33-.21a3.73,3.73,0,0,0-.63-.32s-.08-.05-.09,0a.09.09,0,0,0,0,.12,3.58,3.58,0,0,1,.48.24l.11.06a2.82,2.82,0,0,0-.77-.2h-.13s-.06,0-.07,0a.08.08,0,0,0,0,.1.88.88,0,0,0,.24.11,2.49,2.49,0,0,0,.37.09.05.05,0,0,0,0,0,4.78,4.78,0,0,1,.72.44,2.69,2.69,0,0,1,.37.3l0,0a.83.83,0,0,1,0,.15,2.33,2.33,0,0,0-1.16-.53c0,.11,0,.11.11.16.34.16.67.33,1,.52l.11.09,0,.17a.09.09,0,0,1,0,.07h0c-.06-.06-.12-.13-.18-.18l-.16-.15v0s-.05-.09-.09-.07a2,2,0,0,0-.37-.21l-.16,0s-.08,0-.09,0a.1.1,0,0,0,0,.12l.23.15a4.25,4.25,0,0,1,.47.37c.09.2.16.4.24.61a.06.06,0,0,1-.06,0,3.11,3.11,0,0,0-.48-.48s0-.05-.07,0a.08.08,0,0,0,0,.11h0s0,.09,0,.14.19.21.28.33.21.21.29.33a1.68,1.68,0,0,1,.24.55.44.44,0,0,1,0,.1l-.21-.33a4,4,0,0,0-.43-.56s-.05-.08-.08,0-.06.08,0,.13,0,0,0,0,0,0,0,0a5.39,5.39,0,0,1,.3.52v0a.45.45,0,0,0-.13-.11s-.05,0-.06,0,0,.06,0,.09a5.38,5.38,0,0,1,.46.71,2.39,2.39,0,0,1,.2.43.24.24,0,0,1,0,.08v.06A.29.29,0,0,1,454.73,208ZM452,212.39l-.08,0s0,0,0-.05l.15-.21A1.47,1.47,0,0,1,452,212.39Zm-2.51,1.24.07-.08.08-.09-.06.09A.24.24,0,0,1,449.45,213.63Zm.25-.06c0-.07.07-.1.09-.14a3.56,3.56,0,0,0,.34-.6c-.08.18-.15.36-.24.54a.37.37,0,0,1-.14.18Zm-2.27.66h0Zm-.95-.59s-.05,0-.08,0l.43-.29a.91.91,0,0,0,.19-.13,2,2,0,0,1-.35.29.91.91,0,0,0-.16.11Zm1.93-.07a2.47,2.47,0,0,1-.63.26h0l.26-.09.44-.18Zm-.31.31h0Zm-3.42-.63-.05,0v0a2.45,2.45,0,0,1,.27,0H445Zm-2.31-1.58.16,0,.08,0h-.1A.34.34,0,0,1,442.37,211.67Zm.19.2a.06.06,0,0,1,.07,0,4,4,0,0,0,.69,0l-.16,0-.37,0a.46.46,0,0,1-.21,0Zm-1.93-7.12a.93.93,0,0,0,0,.13l0-.06a.2.2,0,0,1,0-.16Zm-.11.15s0,0,0,.06a3.66,3.66,0,0,0,.43.74q-.21-.27-.39-.54a.46.46,0,0,1-.09-.23Zm-.12,2.44.13.29,0,0a1.09,1.09,0,0,1-.13-.17S440.39,207.38,440.4,207.34Zm2.81-6.52.09,0a.09.09,0,0,1,0,.06l-.16.22A1.22,1.22,0,0,1,443.21,200.82Zm2.42-1.15a.28.28,0,0,1,.1-.09l-.15.17A.35.35,0,0,1,445.63,199.67Zm3.15-.11-.43.29-.17.11a1.72,1.72,0,0,1,.37-.28l.14-.11Zm-1.88,0a2.31,2.31,0,0,1,.52-.19h0a3.83,3.83,0,0,0-.56.22S446.9,199.58,446.9,199.57Zm5.9,2-.21-.05h.09A.17.17,0,0,1,452.8,201.55Zm-.18-.21-.06,0a3.13,3.13,0,0,0-.68,0l.36,0a.74.74,0,0,1,.37,0ZM450.56,200l-.33,0,.2,0h.07Zm4.57,5.49-.06.13a1.24,1.24,0,0,0,0-.16h0Zm-.35.36-.13-.3a1.43,1.43,0,0,1,.14.2S454.78,205.84,454.78,205.87Zm.83-1h0a2.68,2.68,0,0,0-.33.29.27.27,0,0,0-.13-.1h0l0,0A1.61,1.61,0,0,1,455.61,204.92Zm-.71-1.58c0,.17-.09.34-.14.52A1.3,1.3,0,0,1,454.9,203.34Zm-.63-.61a.74.74,0,0,1,0-.14.57.57,0,0,0,0,.13c0,.12,0,.24,0,.36l0-.06A2.81,2.81,0,0,1,454.27,202.73Zm-1-2.07a1.46,1.46,0,0,0-.08.92l0,0a.65.65,0,0,1-.05-.2c0-.14-.05-.27-.07-.41A.82.82,0,0,1,453.29,200.66Zm-.57-.59,0-.07a1,1,0,0,0,0,.43c0,.15.06.29.08.44a.61.61,0,0,0-.05.12.24.24,0,0,1-.05.1l-.08-.11A1,1,0,0,1,452.72,200.07Zm-2.53-1.29a1.47,1.47,0,0,0,.32.87l-.05,0a.18.18,0,0,0-.14-.15s-.05,0-.06-.07a.22.22,0,0,0-.16-.14A1,1,0,0,1,450.19,198.78Zm-5,0a1.69,1.69,0,0,0,.77.51h-.08l-.33-.1-.23-.08A1.79,1.79,0,0,1,445.19,198.74Zm-.82.12a2.26,2.26,0,0,0,.26.16,3.11,3.11,0,0,0,.54.18l0,.08c0,.05.1.08.09.12l-.14,0h0A1,1,0,0,1,444.37,198.86ZM443,200.65l-.13.12v0a.22.22,0,0,0-.05-.08Zm-.91-.12a2.54,2.54,0,0,0,.45.13.19.19,0,0,0-.06.18A1.07,1.07,0,0,1,442.05,200.53ZM440.8,202a1.4,1.4,0,0,0,.28-.06c.21-.07.43-.12.64-.17l-.05,0A1.67,1.67,0,0,1,440.8,202Zm.39.58a.61.61,0,0,0-.07.1l-.19.12a.76.76,0,0,1-.32.08,2,2,0,0,0,.45-.24A.26.26,0,0,1,441.19,202.57Zm-1.49,2.13a.17.17,0,0,1-.11,0,1.42,1.42,0,0,0,.82-.4v.05l-.12.12-.36.3Zm.35.47a1,1,0,0,1-.78.27,1,1,0,0,0,.43-.27l.27-.23.19,0h.06l-.05.12A.53.53,0,0,1,440.05,205.17Zm-.41,3.1a.23.23,0,0,1-.12,0,1.37,1.37,0,0,0,.57-.71.34.34,0,0,1,.06.12.17.17,0,0,0,0,.11.09.09,0,0,1-.05.11.21.21,0,0,0-.09.23l-.08,0Zm.64,1.59c0-.14.07-.28.11-.43l0-.12A1.44,1.44,0,0,1,440.28,209.86Zm.63.54a1.55,1.55,0,0,1,0,.21,1.93,1.93,0,0,0,0-.34.56.56,0,0,1,0-.13h0l0,.05A1.62,1.62,0,0,1,440.91,210.4Zm.43.58a0,0,0,0,1,0-.07l0,0a.14.14,0,0,1,0,.06v0A.07.07,0,0,1,441.34,211Zm.6,1.54s0,0-.05,0a1.41,1.41,0,0,0,.07-.91l0,0a.94.94,0,0,1,0,.16c0,.15,0,.3.08.45A2.15,2.15,0,0,1,441.94,212.52Zm.6-.21a1.05,1.05,0,0,1-.13.9,1.55,1.55,0,0,0,0-.43l-.09-.43c0-.07.06-.15.1-.22l.06.08,0,0S442.54,212.29,442.54,212.31Zm2.12,1.25.21.06,0,0a.18.18,0,0,0-.05.07A.61.61,0,0,0,444.66,213.56Zm.36.81s0,0,0,0a1.57,1.57,0,0,0-.09-.43h0a.19.19,0,0,0,.18,0v0A1.61,1.61,0,0,1,445,214.37Zm4.85-.18c0,.09.11.17.11.29a1.46,1.46,0,0,0-.77-.51h.08l.56.18h0A.05.05,0,0,1,449.87,214.19Zm.92.11,0,.06a1.16,1.16,0,0,0-.41-.22L450,214l-.07-.1s-.08-.07-.08-.1l.15,0A1.07,1.07,0,0,1,450.79,214.3Zm2.11-1.83c.07.08.18.11.22.22a1.46,1.46,0,0,0-.9-.13l.09-.09a.19.19,0,0,0,.16-.09.07.07,0,0,1,.08,0,.23.23,0,0,0,.18,0A.42.42,0,0,1,452.9,212.47Zm1.54-1.24-.2,0c-.2,0-.39.12-.58.16l-.21.05h0A1.77,1.77,0,0,1,454.44,211.23Zm.07-.89h.07a2.57,2.57,0,0,0-.49.26.19.19,0,0,1-.1.05l.07-.11.12-.08A.66.66,0,0,1,454.51,210.34Zm1.05-1.81,0,0a1.44,1.44,0,0,0-.83.4.11.11,0,0,0,0,0l.29-.26.17-.15A1.86,1.86,0,0,1,455.56,208.53Zm.34-.76a2,2,0,0,0-.32.18c-.13.09-.25.22-.38.33l-.15,0H455l.05-.13A1.06,1.06,0,0,1,455.9,207.77Z"/><path class="eyes-2" d="M459.2,206.22a.44.44,0,0,0-.15-.05.94.94,0,0,0-.59.16,2,2,0,0,0-.71.76.22.22,0,0,1-.08.09.13.13,0,0,0,0-.06l.12-.22a1.69,1.69,0,0,1,.68-.67c.06,0,.07-.1,0-.17a.1.1,0,0,0-.15,0l-.34.22-.06,0a3.17,3.17,0,0,1,.23-.36,1,1,0,0,1,.39-.34l.19-.06s.06,0,.06,0a.12.12,0,0,0,0-.08.19.19,0,0,0-.13,0,.61.61,0,0,0-.48.24l-.05.06a1.42,1.42,0,0,0-.33.48.11.11,0,0,1-.06.09,1.53,1.53,0,0,1,0-.3,2.2,2.2,0,0,1,.15-.31.46.46,0,0,1,.17-.17l.35-.26s.05,0,0-.07a.15.15,0,0,0-.21-.08,1.57,1.57,0,0,0-.4.33h0s0,0,0,0a1.18,1.18,0,0,1,1-.65h.19c.09,0,.1,0,.06-.1a.17.17,0,0,0-.11-.06,1.08,1.08,0,0,1-.31-.07.56.56,0,0,0-.27-.08,1.14,1.14,0,0,0-.8.2h0a.12.12,0,0,0-.09,0s0-.05,0-.07a1.07,1.07,0,0,1,.84-.82l.26-.08s.06,0,0-.06a.16.16,0,0,0-.17-.08.8.8,0,0,0-.15,0,3.69,3.69,0,0,0-.49.24.63.63,0,0,0-.36.39.33.33,0,0,1-.06.1s0,0-.05,0a.8.8,0,0,1,0-.34,6.7,6.7,0,0,1,.24-.76,2.6,2.6,0,0,1,.53-.89s0,0,0-.07-.09-.05-.14,0l-.1.07a1.33,1.33,0,0,0-.29.29l-.05,0a.09.09,0,0,0-.15,0,2.56,2.56,0,0,1-.22.35.91.91,0,0,0-.13.26v0a1.6,1.6,0,0,1,0-.69,4.56,4.56,0,0,1,.18-.6,1.43,1.43,0,0,1,.35-.56s.06-.06,0-.1-.06,0-.1,0a.66.66,0,0,0-.36.25,2.69,2.69,0,0,0-.16.29.14.14,0,0,0-.11.06,1.56,1.56,0,0,0-.22.47l0,.13h0c0-.13,0-.25,0-.37a.15.15,0,0,0,0-.09l0-.08a2.54,2.54,0,0,1,0-.39.82.82,0,0,1,.22-.57s.08-.06,0-.1-.09,0-.14,0l-.06.05a.61.61,0,0,0-.24.43,2.74,2.74,0,0,0,0,.5.07.07,0,0,1-.06,0,.17.17,0,0,0-.21-.07A1.29,1.29,0,0,1,456,201a1.27,1.27,0,0,1,.28-.79,1.06,1.06,0,0,1,.35-.28s.08-.05.07-.09-.08,0-.13,0l-.06,0-.12,0c-.13.09-.29.06-.43.14a2.6,2.6,0,0,0-.31.25.15.15,0,0,1,0-.07,2.78,2.78,0,0,1,.1-1s0,0,0-.06a.08.08,0,0,0-.12.05l0,0a.33.33,0,0,0-.1.06,1.77,1.77,0,0,0-.28.43,1.05,1.05,0,0,0-.16.59,1.45,1.45,0,0,1-.22-.49,6,6,0,0,1-.1-.61,1.62,1.62,0,0,1,.08-.66s0-.08,0-.11a.09.09,0,0,0-.1,0,.6.6,0,0,0-.22.38,1.89,1.89,0,0,0,.15,1,1.87,1.87,0,0,1,.15.32l-.06,0a1.86,1.86,0,0,1-.3-.69,2.47,2.47,0,0,1,0-.38c0-.1,0-.14-.12-.14s-.12,0-.12.11,0,.23,0,.35v.1c-.07-.13-.14-.27-.2-.41a.86.86,0,0,1-.05-.61s.05-.09,0-.12-.1,0-.13,0a.25.25,0,0,0,0,.07.64.64,0,0,0,0,.49,2.31,2.31,0,0,0,.24.56.71.71,0,0,1,.11.17l-.31-.15-.12-.17a.66.66,0,0,1-.12-.3c0-.16,0-.32-.05-.48s0,0,0-.05a.14.14,0,0,0-.19.12,1.7,1.7,0,0,0,.07.51l-.08-.13a1.25,1.25,0,0,1-.08-.83,1,1,0,0,1,.19-.41s.06-.07,0-.11-.09,0-.14,0l0,0a.87.87,0,0,0-.09.11c-.08.13-.24.17-.32.3a1.32,1.32,0,0,0-.24.79.17.17,0,0,1,0,.07l0,0a.09.09,0,0,1-.05,0,1,1,0,0,1-.4-.89,2.68,2.68,0,0,1,.11-.49s0-.09,0-.11-.09,0-.13,0a.26.26,0,0,0-.07.11,1.5,1.5,0,0,0-.07.51.87.87,0,0,0,.17.68s.08.09.05.12,0,0-.05,0a.59.59,0,0,1-.23-.13l-.24-.24a3.83,3.83,0,0,1-.76-.94,1.49,1.49,0,0,1-.17-.36s0-.09-.07-.07-.1,0-.08.11a.31.31,0,0,1,0,.08.8.8,0,0,0,.14.48.1.1,0,0,0,0,.14c.05.1.12.19.17.3a.86.86,0,0,0,.23.33l-.15,0a1.94,1.94,0,0,1-.42-.17,2.9,2.9,0,0,1-.79-.77,1.13,1.13,0,0,1-.2-.43.22.22,0,0,0-.05-.08h-.05a.37.37,0,0,0-.05.27,1.07,1.07,0,0,0,.33.65l0,0a1.46,1.46,0,0,0,.42.53h0l-.1,0a5.38,5.38,0,0,1-.85-.38,1,1,0,0,1-.44-.53l0,0c0-.05,0-.05-.08,0a.11.11,0,0,0-.05.09.65.65,0,0,0,.16.42,2.46,2.46,0,0,0,.54.37l0,0a.17.17,0,0,0,0,.13,1,1,0,0,1-.38,0,1.4,1.4,0,0,1-.39-.14,1.25,1.25,0,0,1-.54-.85c0-.07,0-.14,0-.21s0-.08,0-.09a.11.11,0,0,0-.09.06.09.09,0,0,0,0,.05,1.52,1.52,0,0,1-.1.46.64.64,0,0,0,0,.2,2.25,2.25,0,0,0,.06.36,6.65,6.65,0,0,1-.58-.33,1.48,1.48,0,0,1-.3-.26s-.05-.08-.1,0a.1.1,0,0,0,0,.14h0a.08.08,0,0,0,0,.07.62.62,0,0,0,.07.23,3.64,3.64,0,0,0,.35.52.44.44,0,0,0,.22.16l.06,0h-.27a2.79,2.79,0,0,1-1-.35,1.1,1.1,0,0,1-.37-.31l-.08-.05,0,0a.37.37,0,0,0,.07.27,1,1,0,0,0,.57.44,1.87,1.87,0,0,0,.84.15s.07,0,.1,0l0,0h-.18a1.81,1.81,0,0,1-1-.24.14.14,0,0,0-.21.09.08.08,0,0,0,.06.11c.1,0,.2.09.3.15l.11.06a2.61,2.61,0,0,1-.4,0,.88.88,0,0,1-.63-.28l0,0s-.06,0-.08,0a.09.09,0,0,0,0,.1c.09.12.17.27.33.31a1.93,1.93,0,0,0,.72.1.45.45,0,0,1,.2,0h0l-.25.18-.25,0a.76.76,0,0,1-.39-.08c-.11-.06-.23-.1-.34-.15a.06.06,0,0,0-.06,0,.15.15,0,0,0,0,.22,1.27,1.27,0,0,0,.5.19,1,1,0,0,1-.24,0,1.25,1.25,0,0,1-.86-.54,1.62,1.62,0,0,1-.1-.18s0-.07-.08-.06a.12.12,0,0,0-.05.1s0,0,0,0a1.73,1.73,0,0,1,.12.46s0,.12.07.18a1.27,1.27,0,0,0,.51.54h0a.16.16,0,0,0,0,.15h0a1.08,1.08,0,0,1-1.11-.34c-.06-.07-.13-.12-.19-.18s0,0-.05,0-.05.13,0,.19a.65.65,0,0,0,.16.17,4.86,4.86,0,0,0,.54.33.54.54,0,0,0,.28.05l.23,0s0,0,0,0a1.06,1.06,0,0,1-.25.09,6.66,6.66,0,0,1-.8.18,2.69,2.69,0,0,1-1,0s-.08,0-.09,0,0,.09.05.11a.75.75,0,0,1,.13.06,1.34,1.34,0,0,0,.44.1.11.11,0,0,0-.09.15.09.09,0,0,0,.1.09c.11,0,.22,0,.33,0a1.22,1.22,0,0,0,.33,0,.87.87,0,0,0-.1.08,2.29,2.29,0,0,1-1.15.41,1.26,1.26,0,0,1-.58,0s-.07,0-.09,0a.08.08,0,0,0,0,.09.81.81,0,0,0,.1.09.89.89,0,0,0,.59.11.14.14,0,0,0,.11.11,1.62,1.62,0,0,0,.62-.07,3.51,3.51,0,0,1-.77.5.82.82,0,0,1-.35.08l-.23,0c-.07,0-.09,0-.06.1s0,0,.05,0a.57.57,0,0,0,.46.07,3,3,0,0,0,.52-.23,0,0,0,0,0,0,0s0,0,0,.07a.21.21,0,0,0,0,.26l-.15.17a1.2,1.2,0,0,1-1,.27,1.24,1.24,0,0,1-.4-.16s-.08,0-.1,0a.13.13,0,0,0,0,.13h0a1.65,1.65,0,0,1,.37.33.55.55,0,0,0,.22.14l.27.09,0,0a2.92,2.92,0,0,1-.93.43s-.07,0-.06.08,0,.09.09.07h0a.3.3,0,0,0,.2.08,2.81,2.81,0,0,0,.41,0,1.07,1.07,0,0,0,.61-.16l0,0a2.22,2.22,0,0,1-.86.86,1.27,1.27,0,0,1-.54.21s-.07,0-.07.06,0,0,.06.07a.28.28,0,0,0,.13,0,.92.92,0,0,0,.64-.19,2,2,0,0,0,.64-.7.39.39,0,0,1,.09-.11s0,0,0,.06l-.05.11a1.76,1.76,0,0,1-.77.78s0,0,0,.06a.17.17,0,0,0,.08.16c.06,0,.1,0,.14,0a2.21,2.21,0,0,1,.36-.23,4.73,4.73,0,0,1-.32.46.85.85,0,0,1-.28.22l-.22.08c-.07,0-.07.07,0,.11l.06,0A.61.61,0,0,0,442,207a2,2,0,0,0,.49-.65.11.11,0,0,1,.06-.09,1.15,1.15,0,0,0,0,.19.5.5,0,0,1,0,.12l-.11.24a.75.75,0,0,1-.22.25c-.13.08-.24.17-.36.26s0,0,0,0a.14.14,0,0,0,.19.11l.06,0a1.48,1.48,0,0,0,.36-.29,1.21,1.21,0,0,1-.79.64,1.18,1.18,0,0,1-.42,0s-.1,0-.1,0,0,.09.08.11h0a2,2,0,0,1,.48.14.45.45,0,0,0,.26,0,1.18,1.18,0,0,0,.7-.21h.08a.81.81,0,0,1-.05.27,1.12,1.12,0,0,1-.81.65l-.25.08c-.05,0,0,0,0,.07s.19.07.29,0a2.48,2.48,0,0,0,.37-.17.9.9,0,0,0,.52-.49s0-.12.08-.11h0a.93.93,0,0,1,0,.33,6.06,6.06,0,0,1-.3.91,2.23,2.23,0,0,1-.46.75s0,.06,0,.09a.09.09,0,0,0,.13,0s.06,0,.08-.06a1.14,1.14,0,0,0,.31-.31.13.13,0,0,0,.12.07c.06,0,.09,0,.11-.09a2,2,0,0,1,.22-.37.66.66,0,0,0,.09-.19,1.43,1.43,0,0,1,.06.35A2.52,2.52,0,0,1,443,211a1.07,1.07,0,0,1-.25.35.07.07,0,0,0,0,.08s.05,0,.07,0a.27.27,0,0,0,.15-.05.88.88,0,0,0,.4-.49l.1,0,0-.07a1.37,1.37,0,0,0,.24-.57h0a3.73,3.73,0,0,1,.07.82,1,1,0,0,1-.25.74s0,0,0,.06a.07.07,0,0,0,.07,0,.15.15,0,0,0,.11,0,.72.72,0,0,0,.28-.46c0-.16,0-.31,0-.46l0,0a.21.21,0,0,0,.24,0h0a1.12,1.12,0,0,1-.08,1.3,1.3,1.3,0,0,1-.4.34s-.07,0-.05.07a.07.07,0,0,0,.08.05.14.14,0,0,0,.09,0l.23-.1c.1,0,.22,0,.32-.1a1.4,1.4,0,0,0,.33-.26,1.48,1.48,0,0,1,0,.21,2.36,2.36,0,0,1-.1.88s0,.07,0,.08.1,0,.12,0v0l.05,0a.83.83,0,0,0,.2-.22c.07-.13.13-.27.2-.39a.71.71,0,0,0,.08-.47,1.3,1.3,0,0,1,.1.15,2.69,2.69,0,0,1,.24,1.22,1.06,1.06,0,0,1-.09.42.1.1,0,0,0,0,.09s.06,0,.08,0a.27.27,0,0,0,.11-.1,1,1,0,0,0,.15-.73,2,2,0,0,0-.27-.82,1.34,1.34,0,0,1-.06-.12h0l0,0a1,1,0,0,1,.11.17,1.67,1.67,0,0,1,.25.95c0,.08,0,.12.13.12s.13,0,.12-.1,0-.32,0-.47l.16.3a1,1,0,0,1,.08.78s0,0,0,.06a.11.11,0,0,0,.08,0,.2.2,0,0,0,.09-.09.72.72,0,0,0,0-.54,1.9,1.9,0,0,0-.31-.64s0,0,0-.07l.28.13h0a.18.18,0,0,1,0,.07.75.75,0,0,1,.19.39l.06.49s0,0,0,0a.13.13,0,0,0,.18-.13,1.44,1.44,0,0,0-.08-.46s0,0,0,0a1.74,1.74,0,0,1,.11.18,1.18,1.18,0,0,1,.07.74,1.22,1.22,0,0,1-.21.48s0,.06,0,.09.06,0,.09,0a.18.18,0,0,0,.07-.05l.17-.19c.07-.09.18-.13.25-.23a1.58,1.58,0,0,0,.24-.57.81.81,0,0,0,0-.22.2.2,0,0,0,.13,0l.05.05a1.05,1.05,0,0,1,.23,1.07c0,.09,0,.19-.07.28s0,.06,0,.05a.17.17,0,0,0,.17-.08.69.69,0,0,0,.08-.28c0-.15,0-.3,0-.44a.69.69,0,0,0-.16-.5s0-.07-.07-.1,0-.06,0-.06a.9.9,0,0,1,.24.12l.42.41a3.74,3.74,0,0,1,.61.81,1.24,1.24,0,0,1,.15.33s0,.09.07.07.09-.05.07-.12,0-.05,0-.08a1.16,1.16,0,0,0-.14-.48.08.08,0,0,0,0-.12c-.08-.16-.17-.3-.25-.46a.49.49,0,0,0-.14-.18l.24.08a1.5,1.5,0,0,1,.53.28,3.86,3.86,0,0,1,.49.5,1.52,1.52,0,0,1,.27.48.51.51,0,0,0,.07.15h0a.3.3,0,0,0,.06-.18,1,1,0,0,0-.3-.71l-.06-.06a1.45,1.45,0,0,0-.24-.35,1.53,1.53,0,0,0-.18-.18.53.53,0,0,1,.12,0l.3.1,0,.06a.18.18,0,0,0,.19.06h0l.35.2a.9.9,0,0,1,.34.36.94.94,0,0,1,.06.15c0,.06.07.06.11,0a.2.2,0,0,0,0-.15.64.64,0,0,0-.3-.46l-.09-.07a1.51,1.51,0,0,0-.35-.2s0,0,.06,0a.21.21,0,0,0,.2-.12,2.36,2.36,0,0,1,.45.08,1.29,1.29,0,0,1,.73,1V215c0,.07,0,.08.1,0a.16.16,0,0,0,.05-.1c0-.14,0-.3.09-.43s0,0,0-.06a1.94,1.94,0,0,0,0-.34c0-.06,0-.12,0-.18a4.33,4.33,0,0,1,.62.36,1.18,1.18,0,0,1,.27.23s.05.08.1,0a.09.09,0,0,0,0-.13h0s0,0,0-.07a.92.92,0,0,0-.08-.25,5,5,0,0,0-.32-.48.59.59,0,0,0-.3-.21h0a1.35,1.35,0,0,1,.53,0,3.71,3.71,0,0,1,.66.24,1.8,1.8,0,0,1,.45.31s.07.09.12.11l0,0a.37.37,0,0,0,0-.18,1,1,0,0,0-.57-.51,2,2,0,0,0-.86-.17.2.2,0,0,1-.13,0l.05,0h.12a1.81,1.81,0,0,1,1,.23c.1,0,.17,0,.2-.08s0-.09-.05-.11l-.34-.17-.08,0a3.87,3.87,0,0,1,.48,0,1,1,0,0,1,.46.18l.12.11c.05,0,.09,0,.1,0a.16.16,0,0,0-.05-.14.62.62,0,0,0-.46-.29l-.12,0a1.12,1.12,0,0,0-.41,0,.54.54,0,0,1-.22,0c0-.05.06-.06.09-.08l.15-.11.19,0a.7.7,0,0,1,.35,0l.45.19s0,0,.06,0a.15.15,0,0,0,0-.2,1,1,0,0,0-.27-.14l-.26-.06h.06A1.23,1.23,0,0,1,456,213a.75.75,0,0,0,.07.12c0,.06.07.06.11,0a.14.14,0,0,0,0-.11,1,1,0,0,1-.11-.42.07.07,0,0,0,0-.06,2.85,2.85,0,0,0-.16-.3,1.15,1.15,0,0,0-.44-.38h0a.25.25,0,0,0,0-.12l.05,0a1,1,0,0,1,.92.13c.15.09.24.24.37.33s0,.06.09,0,0-.07,0-.1a.13.13,0,0,0,0-.09.58.58,0,0,0-.19-.19,3.88,3.88,0,0,0-.48-.3.64.64,0,0,0-.36-.06h-.18c-.05,0-.05,0,0,0a.05.05,0,0,1,0,0l.42-.12a3.39,3.39,0,0,1,.83-.16,2.11,2.11,0,0,1,.79,0c.05,0,.07,0,.08,0a.1.1,0,0,0-.07-.11l-.12,0a1.1,1.1,0,0,0-.47-.1.12.12,0,0,0,.12-.16s0-.08-.09-.08a2.41,2.41,0,0,1-.38,0,.93.93,0,0,0-.29,0l0,0a1.36,1.36,0,0,1,.5-.3,2.8,2.8,0,0,1,.62-.15,1.46,1.46,0,0,1,.51,0l.18,0a.11.11,0,0,0,.08,0,.11.11,0,0,0,0-.08.58.58,0,0,0-.12-.1.87.87,0,0,0-.59-.11s0-.1-.08-.1a.65.65,0,0,0-.31,0l-.3.06h0a4.94,4.94,0,0,1,.65-.44.92.92,0,0,1,.49-.13l.2,0s.06,0,.07,0a.08.08,0,0,0,0-.09.15.15,0,0,0-.1-.07.57.57,0,0,0-.54,0l-.07,0a1.29,1.29,0,0,0-.5.3.26.26,0,0,1-.09,0s0-.1,0-.15l.05,0a.19.19,0,0,0,.21-.17.18.18,0,0,0-.07-.19.94.94,0,0,1,.24-.25,1.16,1.16,0,0,1,1.2-.14l.18.09c.07,0,.09,0,.08-.07a.1.1,0,0,0-.06-.09,1,1,0,0,1-.25-.2.66.66,0,0,0-.22-.19,1.31,1.31,0,0,0-.37-.15l.26-.17a2,2,0,0,1,.73-.3s.06,0,0-.08a.08.08,0,0,0-.1-.07h0a.1.1,0,0,0-.07,0l-.15,0a2.44,2.44,0,0,0-.54,0,.68.68,0,0,0-.46.16,1.39,1.39,0,0,1,.31-.45,3.25,3.25,0,0,1,.5-.4,1.85,1.85,0,0,1,.44-.23l.19,0s.05,0,.06-.05A.07.07,0,0,0,459.2,206.22ZM457.09,208l0,.05a.27.27,0,0,1,0,.15Zm.13-.06s0,0,0,0a3.68,3.68,0,0,0-.39-.7l.36.5a.56.56,0,0,1,.08.2A.08.08,0,0,1,457.22,208Zm.08-.31a2.45,2.45,0,0,0-.84-1c0,.11,0,.11,0,.2l.16.2a3.15,3.15,0,0,0-.37-.36s0-.07-.09,0,0,.08,0,.13a.22.22,0,0,0,.05.08l.18.24a.11.11,0,0,0,0,.08l.15.23a5.48,5.48,0,0,1,.41.93.86.86,0,0,1,0,.27,1.18,1.18,0,0,1-.07.2s0,0-.06,0a.19.19,0,0,0-.13,0,1.75,1.75,0,0,0-.32-.89s0-.05-.05,0-.08.05-.06.11.08.28.11.42a1.38,1.38,0,0,0,.08.27,4.54,4.54,0,0,1-.12.53,4.76,4.76,0,0,0-.1-.52.4.4,0,0,0-.1-.18s0,0-.06,0a0,0,0,0,0,0,.06s0,.1,0,.15a.05.05,0,0,0,0,0,.27.27,0,0,0,0,.09,3,3,0,0,0,.09.51h0s0,0,0,.08a.28.28,0,0,1,0,.09,1.81,1.81,0,0,1-.06.57,1.24,1.24,0,0,1-.22.34,2.53,2.53,0,0,1,0-.28,5.14,5.14,0,0,0-.05-.88s0,0-.06,0a.13.13,0,0,0-.06.13,4.84,4.84,0,0,1,0,.85,2.63,2.63,0,0,0-.06-.39,3.08,3.08,0,0,0-.21-.65s0-.08-.07-.08-.07.06-.07.11a.33.33,0,0,0,0,.1,4,4,0,0,0,.11.47l0,0h0a3,3,0,0,1,0,.67,4.09,4.09,0,0,1-.07.6.24.24,0,0,1,0,.08l-.11.11a2,2,0,0,0,0-.33,2.56,2.56,0,0,0-.14-.87s0-.08,0-.07a.09.09,0,0,0-.07.1,1.93,1.93,0,0,0,0,.24c0,.31,0,.63,0,1a.19.19,0,0,1,0,.08h0a.19.19,0,0,0-.18,0l.06-.25v0s.08-.09,0-.13a.28.28,0,0,0,0-.09.82.82,0,0,0-.07-.49s0-.08-.05-.07a.1.1,0,0,0-.08.09c0,.11,0,.22,0,.32a3.31,3.31,0,0,1-.07.55,5,5,0,0,1-.42.5c0-.06,0-.13.07-.2a2.36,2.36,0,0,0,.12-.51s0-.06,0-.07a.08.08,0,0,0-.07,0l0,0,0,0c-.05,0-.09,0-.11,0a.65.65,0,0,0,0,.13c-.07.22-.17.43-.23.66a.65.65,0,0,1-.11.22,2.08,2.08,0,0,1-.27.32.19.19,0,0,1-.09,0l.13-.25a4.05,4.05,0,0,0,.33-.81s0-.06,0,0a.13.13,0,0,0-.09.07h0s0,0-.05,0c-.08.18-.18.34-.27.5a.32.32,0,0,0,0-.17s0,0,0,0-.08,0-.08,0a3.45,3.45,0,0,1-.3.61,3.94,3.94,0,0,1-.32.51.37.37,0,0,1-.23.16,2.56,2.56,0,0,0,.21-.33A2.52,2.52,0,0,0,453,212s0-.08,0-.08a.09.09,0,0,0-.1.06l-.09.22a1,1,0,0,0,0,.1c0-.1.06-.2.08-.3a.7.7,0,0,0,.05-.25s0-.06,0-.07a.1.1,0,0,0-.1,0,.32.32,0,0,0-.1.17l-.09.21a.12.12,0,0,0-.05.05l-.15.28a4,4,0,0,1-.57.78,1.34,1.34,0,0,1-.21.2,2.33,2.33,0,0,1-.53.07l-.09,0a1.68,1.68,0,0,0,.86-.86,0,0,0,0,0,0-.07.11.11,0,0,0-.12,0l-.09.09c-.11.13-.24.25-.36.37l-.06,0a2.58,2.58,0,0,1-.46.18l.37-.34a.51.51,0,0,0,.09-.16s0-.05,0-.06a0,0,0,0,0-.07,0l-.32.24.05-.06s.06,0,0-.07-.06,0-.09,0a2.94,2.94,0,0,0-.44.35.23.23,0,0,1-.1.07c-.16.06-.29.17-.46.23a1,1,0,0,1-.55,0,4.66,4.66,0,0,0,1-.63.14.14,0,0,0-.2,0l-.15.1.22-.24a1.59,1.59,0,0,0,.15-.21s0,0,0-.07a.11.11,0,0,0-.1,0,.42.42,0,0,0-.16.11,3.85,3.85,0,0,0-.35.35l-.06.07,0,0s0,0,0-.06-.06-.05-.1,0a4.65,4.65,0,0,1-.62.34,4.19,4.19,0,0,1-.49.2.23.23,0,0,1-.11,0l-.14,0a2.43,2.43,0,0,0,1-.74c-.07-.06-.13,0-.2,0s-.42.28-.64.41l-.33.19-.1,0-.05,0a.22.22,0,0,1-.1-.09l0,0a3.11,3.11,0,0,0,.41-.11h0c.05,0,.11,0,.11,0h0l.23-.12a.69.69,0,0,0,.24-.21s.07-.06,0-.09a.12.12,0,0,0-.13,0l-.47.23-.31.11c-.21,0-.41-.06-.62-.09l-.06,0,.36-.08a1.66,1.66,0,0,0,.38-.11s.06,0,0-.06a.06.06,0,0,0-.08,0h0s0,0,0,0a.13.13,0,0,0-.1-.07l-.08,0c-.24.05-.49.07-.72.13a.82.82,0,0,1-.27,0l-.4-.07-.1-.07a4.83,4.83,0,0,0,1.21-.14.15.15,0,0,0-.13-.09v0s0,0-.07,0h-.56a.37.37,0,0,0,.16-.07s.06,0,0,0,0-.08-.08-.06a4.17,4.17,0,0,1-.71,0,3.13,3.13,0,0,1-.53,0,.42.42,0,0,1-.15,0h0a.42.42,0,0,1-.12-.08,2.48,2.48,0,0,0,1.32-.21.14.14,0,0,0-.19-.07l-.31,0,.26-.06a1.81,1.81,0,0,0,.31-.09s.06,0,.06-.06a.08.08,0,0,0-.08-.07,1.13,1.13,0,0,0-.26,0l-.15,0a.1.1,0,0,0-.08,0,3,3,0,0,1-.52,0,2.48,2.48,0,0,1-1-.21,1.24,1.24,0,0,1-.18-.22s0-.07,0-.1l.05,0a1.82,1.82,0,0,0,1,.21s.07,0,.06,0a.12.12,0,0,0-.05-.11l-.09,0c-.2,0-.39-.11-.59-.16a2.86,2.86,0,0,1-.42-.36,3.62,3.62,0,0,0,.53.17h.16s.06,0,.06,0a.06.06,0,0,0-.05-.06l-.17-.08h0a.07.07,0,0,0,0-.09,4.14,4.14,0,0,0-.49-.19.53.53,0,0,1-.17-.08l-.25-.16a.93.93,0,0,1-.38-.43s0-.08,0-.12l.51.3a2.79,2.79,0,0,0,.53.24.13.13,0,0,0-.09-.16,5.28,5.28,0,0,1-.53-.27,2.56,2.56,0,0,0,.56.15,1.06,1.06,0,0,0,.31.05s.07,0,.09,0a.11.11,0,0,0-.05-.11.92.92,0,0,0-.23-.09,2.72,2.72,0,0,0-.38-.11s0,0,0,0a3.22,3.22,0,0,1-.75-.46,1.39,1.39,0,0,1-.36-.29.75.75,0,0,0,0-.16,2.42,2.42,0,0,0,1.16.53.14.14,0,0,0-.09-.16c-.34-.15-.66-.33-1-.51l-.12-.1a.06.06,0,0,1,0,0,.18.18,0,0,0,.11-.08,1.45,1.45,0,0,0,.18.17l0,0s.05.09.1.06l.12.09a1,1,0,0,0,.5.16.18.18,0,0,0-.1-.17,4.43,4.43,0,0,1-.65-.49,6.5,6.5,0,0,1-.22-.62l.11.14a2.52,2.52,0,0,0,.41.39s0,.05.07,0a.08.08,0,0,0,0-.1h0l0,0s.05-.08,0-.12a4.75,4.75,0,0,0-.42-.49,1.63,1.63,0,0,1-.4-.74l0-.08.32.5a3.16,3.16,0,0,0,.38.44.14.14,0,0,0,0-.15h0a.06.06,0,0,0,0-.06l-.11-.17a3.79,3.79,0,0,0-.2-.34.44.44,0,0,0,.15.12s.05,0,.06,0,0-.06,0-.09a3,3,0,0,1-.48-.74,1,1,0,0,1-.2-.52v-.1a2.45,2.45,0,0,0,.84,1,.13.13,0,0,0,0-.18c-.06-.08-.12-.17-.19-.25l.19.21a2,2,0,0,0,.21.2s0,.05.09,0a.09.09,0,0,0,0-.11,1,1,0,0,0-.14-.22l-.1-.12a.27.27,0,0,0,0-.12,4.3,4.3,0,0,1-.55-1.19,1.18,1.18,0,0,1,0-.2,3.2,3.2,0,0,1,.16-.39.21.21,0,0,1,.11-.12h0s0,.07,0,.11a1.71,1.71,0,0,0,.31,1s0,.06.07,0,.07,0,.06-.11a4.77,4.77,0,0,0-.17-.62s0-.05,0-.08a3.69,3.69,0,0,1,.11-.56,3.35,3.35,0,0,0,.11.55.4.4,0,0,0,.1.18s0,0,.05,0,0,0,0-.06a.77.77,0,0,0,0-.15.06.06,0,0,0,.05-.08,3.44,3.44,0,0,0-.09-.56.13.13,0,0,1,0-.06h0a1,1,0,0,1,0-.17c0-.05,0-.1,0-.15a1,1,0,0,1,.26-.7.26.26,0,0,1,0,.12,5.36,5.36,0,0,0,0,1s0,.09,0,.07.1,0,.08-.1,0-.41,0-.61a2.81,2.81,0,0,1,0-.29,2.79,2.79,0,0,0,.17.8,1.25,1.25,0,0,0,.1.27s0,.07.07.06.06,0,.07-.09a2.3,2.3,0,0,0,0-.26c0-.13-.07-.25-.11-.38v-.05a1.15,1.15,0,0,1,0-.37c0-.13,0-.26,0-.39a2,2,0,0,1,.09-.54l.11-.11a2.33,2.33,0,0,0,.12,1.28.13.13,0,0,0,.09-.15c0-.31-.05-.62-.05-.94a1.08,1.08,0,0,1,0-.31s0,0,0,0l.06-.05a.24.24,0,0,1,.16-.07h0s0,.1,0,.15-.06.22-.08.33l0,.05s0,.07,0,.09h0a1.48,1.48,0,0,0,0,.21,1,1,0,0,0,.09.41s0,0,.07,0a.16.16,0,0,0,.05-.11,3.93,3.93,0,0,1,.09-.84l.37-.48s0,0,0,0a.17.17,0,0,1,0,.14,2.26,2.26,0,0,0-.14.57s0,.06,0,.07a.06.06,0,0,0,.08,0v0l0,0a.11.11,0,0,0,.11-.08l.15-.41a2.29,2.29,0,0,0,.09-.28,1,1,0,0,1,.16-.33l.21-.26.1,0a.36.36,0,0,1,0,.11,4.76,4.76,0,0,0-.38.9s-.06.07,0,.08a.09.09,0,0,0,.12-.06h0a.07.07,0,0,0,.06,0c.07-.18.19-.34.28-.52h0a2.38,2.38,0,0,0-.05.26c.08,0,.12,0,.14-.09a1,1,0,0,1,.15-.34c.07-.11.12-.23.19-.33a1.36,1.36,0,0,1,.42-.53.06.06,0,0,1,.06,0,2.32,2.32,0,0,0-.46,1.24.13.13,0,0,0,.14-.1q.16-.44.36-.87a1.38,1.38,0,0,1,.14-.27.34.34,0,0,1,.08-.09H448c-.05.09-.12.17-.17.26a3.49,3.49,0,0,0-.47,1.15.25.25,0,0,0,0,.08s0,.07,0,.08a.1.1,0,0,0,.1,0,1,1,0,0,0,.08-.14l.09-.24s.06,0,.07-.07a4.64,4.64,0,0,1,.65-1,1.33,1.33,0,0,1,.27-.26l.35,0c.06,0,.1,0,.12.06h0l-.07,0a1.58,1.58,0,0,0-.54.55l-.1.17s-.06.08,0,.11a.12.12,0,0,0,.14,0l.3-.31a1.85,1.85,0,0,0,.14-.14l.07,0a2.32,2.32,0,0,1,.44-.16c-.11.1-.23.2-.33.31a.44.44,0,0,0-.12.18s0,.05,0,.07a.06.06,0,0,0,.07,0,2.26,2.26,0,0,1,.31-.23l0,.05s0,0,0,.06a.07.07,0,0,0,.09,0,3.2,3.2,0,0,0,.42-.33l0,0a1.45,1.45,0,0,1,.87-.32c.07,0,.13,0,.22,0a4.84,4.84,0,0,0-1,.64c.1.07.1.06.2,0l.18-.12a2.77,2.77,0,0,0-.36.4.43.43,0,0,0,0,.07s0,.05,0,.08a.11.11,0,0,0,.11,0,1,1,0,0,0,.13-.09c.11-.12.24-.22.35-.35l.06-.07s0,.07,0,.09l0,0a3.76,3.76,0,0,1,.56-.3,3,3,0,0,1,.56-.24l.1,0,.15,0a2.32,2.32,0,0,0-1,.74.17.17,0,0,0,.19,0c.27-.2.56-.37.85-.55a.88.88,0,0,1,.2-.09.11.11,0,0,1,0,.06.15.15,0,0,0,0,.11h0l-.24.08h0s-.11,0-.12,0a1.72,1.72,0,0,0-.37.22.47.47,0,0,0-.1.1s-.07.07,0,.1a.11.11,0,0,0,.14,0c.13-.06.26-.13.39-.18l.38-.15c.2,0,.4.06.61.1l.05,0-.49.11-.24.08s-.06,0,0,0a.07.07,0,0,0,.07.05h0a0,0,0,0,0,0,0s.05.09.11.07l.32-.06.45-.08a1.3,1.3,0,0,1,.59,0l.09,0,.1.08a5.25,5.25,0,0,0-1.2.13c.05.09.06.1.12.1a0,0,0,0,0,0,0s0,0,.05,0a5.42,5.42,0,0,1,.57,0l-.14,0c-.06,0-.06.07,0,.1a0,0,0,0,0,0,0,3.33,3.33,0,0,1,.63,0,4.28,4.28,0,0,1,.62,0,.46.46,0,0,1,.27.13,2.37,2.37,0,0,0-1.32.21.13.13,0,0,0,.17.07l.33,0a2.37,2.37,0,0,0-.46.11.31.31,0,0,0-.12,0s-.06,0-.06,0a.11.11,0,0,0,.08.08,1.13,1.13,0,0,0,.26,0l.16,0a.12.12,0,0,0,.09,0h.43a3.19,3.19,0,0,1,1.06.18l.06,0,.18.22.13.2s0,0,0,.06h0a1.61,1.61,0,0,0-.71-.3,3,3,0,0,0-.42,0s-.09,0-.09,0,0,.1.07.12l.32.08.35.1a3.57,3.57,0,0,1,.43.36,4.68,4.68,0,0,0-.53-.17.41.41,0,0,0-.19,0s0,0,0,0a.05.05,0,0,0,0,0l.19.08h0a.08.08,0,0,0,0,.1,4.5,4.5,0,0,0,.51.2h0a3,3,0,0,1,.56.37.78.78,0,0,1,.22.41l-.33-.2a3.73,3.73,0,0,0-.63-.32s-.08-.05-.09,0,0,.11.05.13a3.58,3.58,0,0,1,.48.24l.11.06a3.24,3.24,0,0,0-.77-.21.56.56,0,0,0-.13,0s-.06,0-.07,0a.09.09,0,0,0,0,.1.87.87,0,0,0,.24.1l.37.1s0,0,0,0a5.41,5.41,0,0,1,.72.45,2.11,2.11,0,0,1,.37.3l0,0a.74.74,0,0,1,0,.14,2.51,2.51,0,0,0-1.16-.53c0,.12,0,.11.11.16.33.17.67.33,1,.53l.11.09,0,.17a.06.06,0,0,1,0,.06h0l-.18-.18a1.07,1.07,0,0,0-.16-.14v0s-.05-.08-.1-.06a1.31,1.31,0,0,0-.36-.21l-.16,0s-.08,0-.09,0a.1.1,0,0,0,0,.12l.23.15a4.17,4.17,0,0,1,.47.36c.09.2.16.41.24.62,0,0-.05,0-.06,0a3.7,3.7,0,0,0-.48-.49s0-.05-.07,0,0,.07,0,.1h0l0,0s-.05.08,0,.13l.28.33c.09.12.21.22.29.34a1.54,1.54,0,0,1,.24.54.3.3,0,0,1,0,.1c-.07-.11-.15-.22-.21-.33a3.87,3.87,0,0,0-.43-.55s0-.08-.08,0a.1.1,0,0,0,0,.14h0a.06.06,0,0,0,0,.06,3.4,3.4,0,0,1,.31.52v0a.41.41,0,0,0-.13-.1s0,0-.06,0,0,.07,0,.1a5.76,5.76,0,0,1,.46.71,2.11,2.11,0,0,1,.2.43s0,.05,0,.08v0S457.31,207.63,457.3,207.66Zm-2.77,4.4-.08,0s0,0,0-.06a1.56,1.56,0,0,0,.16-.2A2.14,2.14,0,0,1,454.53,212.06ZM452,213.29l.07-.07.08-.09-.06.09A.16.16,0,0,1,452,213.29Zm.25-.06c0-.06.07-.09.09-.13a4.09,4.09,0,0,0,.34-.61l-.24.55a.49.49,0,0,1-.14.18Zm-2.27.66h0Zm-.95-.58a.11.11,0,0,1-.08,0l.43-.29a.94.94,0,0,0,.19-.14,1.48,1.48,0,0,1-.36.29l-.15.12Zm1.93-.07a2.47,2.47,0,0,1-.63.26h-.05a1.61,1.61,0,0,1,.26-.09l.44-.18Zm-.31.3s0,0,0,0Zm-3.42-.63-.05,0v0l.27,0h.07A.88.88,0,0,1,447.25,212.91Zm-2.31-1.58.16,0h0A.24.24,0,0,1,444.94,211.33Zm.19.2s.05,0,.07,0a4,4,0,0,0,.69,0h-.16l-.37,0a.47.47,0,0,1-.21,0Zm-1.93-7.11a.56.56,0,0,0,0,.12l0,0a.21.21,0,0,1,0-.17Zm-.11.15s0,0,0,.06a3,3,0,0,0,.43.73,6.55,6.55,0,0,1-.39-.53.5.5,0,0,1-.09-.23ZM443,207l.12.29v0a1.18,1.18,0,0,1-.13-.18S443,207,443,207Zm2.81-6.52.09,0s0,0,0,.06l-.17.22A1.33,1.33,0,0,1,445.78,200.49Zm2.42-1.16a.27.27,0,0,1,.1-.08c-.05.06-.11.11-.15.17A.41.41,0,0,1,448.2,199.33Zm3.15-.1-.43.28-.17.12a1.76,1.76,0,0,1,.37-.29l.14-.1Zm-1.88,0a1.79,1.79,0,0,1,.52-.19h0a4.37,4.37,0,0,0-.57.21Zm5.9,2-.21-.05h.09A.17.17,0,0,1,455.37,201.21Zm-.18-.2s0,0-.06,0a3.11,3.11,0,0,0-.68,0l.36,0a.65.65,0,0,1,.37,0Zm-2.06-1.32-.33,0,.2,0h.07Zm4.57,5.48-.06.14c0-.06,0-.11,0-.16h.1Zm-.35.37-.13-.31.14.21S457.35,205.51,457.35,205.54Zm.83-.95h0a2.11,2.11,0,0,0-.34.29.19.19,0,0,0-.12-.11h0A1.33,1.33,0,0,1,458.18,204.59Zm-.71-1.58c-.05.17-.1.34-.14.51A1.29,1.29,0,0,1,457.47,203Zm-.63-.61a.57.57,0,0,1,0-.14.53.53,0,0,0,0,.13c0,.12,0,.23,0,.35l0-.05A2.8,2.8,0,0,1,456.84,202.4Zm-1-2.08a1.5,1.5,0,0,0-.08.93l0,0a.59.59,0,0,1-.05-.19c0-.14-.05-.28-.07-.42A1.08,1.08,0,0,1,455.86,200.32Zm-.57-.59,0-.07a1.09,1.09,0,0,0,0,.44c0,.14.06.29.08.44a.61.61,0,0,0-.05.12s0,.07-.05.09l-.08-.11A1,1,0,0,1,455.29,199.73Zm-2.53-1.28a1.49,1.49,0,0,0,.32.87l-.05,0a.19.19,0,0,0-.14-.16.07.07,0,0,1-.06-.06.2.2,0,0,0-.16-.14A1,1,0,0,1,452.76,198.45Zm-5,0a1.67,1.67,0,0,0,.77.5h-.08l-.33-.11-.23-.08A1.69,1.69,0,0,1,447.76,198.41Zm-.82.11a1.4,1.4,0,0,0,.26.16,3.35,3.35,0,0,0,.53.19l0,.08s.1.08.09.12l-.14,0h0A1,1,0,0,1,446.94,198.52Zm-1.41,1.8a.74.74,0,0,0-.13.12v0a.22.22,0,0,0,0-.08Zm-.91-.13a1.53,1.53,0,0,0,.45.13.22.22,0,0,0-.06.19A1.1,1.1,0,0,1,444.62,200.19Zm-1.25,1.46a.71.71,0,0,0,.28-.06c.21-.07.42-.11.64-.17l-.05,0A1.66,1.66,0,0,1,443.37,201.65Zm.38.58-.06.11-.19.11a.77.77,0,0,1-.32.09,1.66,1.66,0,0,0,.45-.25A.27.27,0,0,1,443.75,202.23Zm-1.48,2.14a.18.18,0,0,1-.11-.05,1.43,1.43,0,0,0,.82-.39v0l-.12.11-.36.3Zm.35.47a1,1,0,0,1-.79.27,1.25,1.25,0,0,0,.44-.27l.27-.24a.65.65,0,0,0,.19,0,.06.06,0,0,1,.06,0l-.05.12A.53.53,0,0,1,442.62,204.84Zm-.41,3.1a.23.23,0,0,1-.12,0,1.39,1.39,0,0,0,.57-.72.75.75,0,0,1,.06.13.11.11,0,0,0,0,.11.09.09,0,0,1-.05.11.2.2,0,0,0-.09.22l-.08,0Zm.64,1.59c0-.14.07-.29.11-.43l0-.12A1.49,1.49,0,0,1,442.85,209.53Zm.63.54a1.18,1.18,0,0,1,0,.2,1.93,1.93,0,0,0,0-.34.56.56,0,0,1,0-.13h0s0,0,0,0Zm.43.58s0-.05,0-.07l0,0,0,0a0,0,0,0,0,0,0A.11.11,0,0,1,443.91,210.65Zm.6,1.54a.06.06,0,0,1-.05,0,1.42,1.42,0,0,0,.07-.91l0,0a1,1,0,0,1,0,.17c0,.15.05.3.08.44Zm.6-.22a1,1,0,0,1-.13.9,1.48,1.48,0,0,0,0-.42l-.09-.43c0-.07.06-.15.1-.23l.06.09,0,.05S445.1,212,445.11,212Zm2.12,1.25a.83.83,0,0,0,.21.06l0,0a.18.18,0,0,0,0,.07A1.77,1.77,0,0,0,447.23,213.22Zm.36.82s0,0,0,0a1.84,1.84,0,0,0-.09-.42h0a.23.23,0,0,0,.17,0v0A1.59,1.59,0,0,1,447.59,214Zm4.85-.19c0,.1.11.18.11.29a1.48,1.48,0,0,0-.77-.5h.08l.56.18h0Zm.92.12,0,.06a1,1,0,0,0-.41-.22l-.4-.14-.06-.09s-.08-.07-.08-.1l.15,0A1.09,1.09,0,0,1,453.36,214Zm2.11-1.83c.07.07.18.11.22.21a1.47,1.47,0,0,0-.9-.12l.09-.09a.19.19,0,0,0,.16-.09.05.05,0,0,1,.08,0,.19.19,0,0,0,.18,0A.62.62,0,0,1,455.47,212.14Zm1.54-1.25a1.2,1.2,0,0,0-.2,0,5.5,5.5,0,0,0-.58.16l-.22,0h0A1.68,1.68,0,0,1,457,210.89Zm.07-.88h.07a1.93,1.93,0,0,0-.49.26.19.19,0,0,1-.1,0l.07-.11.12-.08A.66.66,0,0,1,457.08,210Zm1.05-1.81,0,0a1.46,1.46,0,0,0-.83.39.07.07,0,0,0,0-.05,2.18,2.18,0,0,0,.28-.25l.18-.15A1.86,1.86,0,0,1,458.13,208.2Zm.34-.76a1.41,1.41,0,0,0-.32.17c-.13.1-.25.23-.38.34h-.16a.11.11,0,0,1-.08,0l.05-.14A1.08,1.08,0,0,1,458.47,207.44Z"/><rect class="eyes-3" width="800" height="800"/></g></g></svg>
