<svg xmlns="http://www.w3.org/2000/svg" viewBox="0 0 800 800"><defs><style>.arms-1,.arms-2{fill:none;}.arms-1{stroke:#000;stroke-miterlimit:10;stroke-width:4px;}</style></defs><title>5100_arms_black</title><g id="Layer_2" data-name="Layer 2"><g id="_5100_arms_black" data-name="5100_arms_black"><line class="arms-1" x1="324.06" y1="509.94" x2="125.94" y2="545.68"/><path d="M157.6,512c1,2.53,1.84,5.07,2.65,7.62.17,2.6.41,5.19.62,7.79L162.14,543l1.28,15.58.64,7.79c-.4,2.64-.77,5.29-1.36,7.95-1-2.53-1.81-5.08-2.63-7.63l-.64-7.78-1.27-15.58-1.28-15.57c-.22-2.6-.41-5.2-.66-7.79C156.6,517.29,157,514.64,157.6,512Z"/><path d="M136.15,522.19c2.87,1.07,5.61,2.34,8.34,3.61,2.36,1.77,4.76,3.49,7.14,5.25l14.3,10.46L180.22,552l7.15,5.24c2,2.23,4.06,4.45,6,6.84-2.86-1.09-5.59-2.36-8.33-3.62l-7.15-5.23-14.3-10.47-14.29-10.47c-2.39-1.73-4.76-3.5-7.17-5.21C140.07,526.83,138,524.61,136.15,522.19Z"/><line class="arms-1" x1="492.57" y1="502.79" x2="662.11" y2="610.02"/><path d="M658,563c-.37,2.48-.95,4.84-1.53,7.2-1.15,2.07-2.23,4.17-3.34,6.25L646.51,589l-6.64,12.51-3.32,6.26c-1.64,1.8-3.27,3.61-5.08,5.32.4-2.47,1-4.83,1.55-7.2l3.32-6.25L643,587.13l6.64-12.51c1.09-2.09,2.23-4.17,3.3-6.27C654.55,566.55,656.18,564.74,658,563Z"/><rect class="arms-2" width="800" height="800"/></g></g></svg>
