<svg xmlns="http://www.w3.org/2000/svg" viewBox="0 0 800 800"><defs><style>.brows-1{fill:#fff;}.brows-2{fill:none;}</style></defs><title>6000_brows_unibrow_white</title><g id="Layer_2" data-name="Layer 2"><g id="_6000_brows_unibrow_white" data-name="6000_brows_unibrow_white"><path class="brows-1" d="M313,188.5a28.25,28.25,0,0,1,2-5.62,26.05,26.05,0,0,1,3.45-5,25.57,25.57,0,0,1,4.6-4,30.65,30.65,0,0,1,5.37-3,45.29,45.29,0,0,1,24.13-2.82,43.46,43.46,0,0,1,11.93,3.41c1.95.91,3.62,1.84,5.41,2.8s3.49,1.94,5.22,2.93c6.87,4,13.57,8.25,20.38,11.91a25.63,25.63,0,0,0,5,2.11,14.77,14.77,0,0,0,5.05.52,22.77,22.77,0,0,0,10.06-3.39c3.32-1.94,6.51-4.16,9.81-6.41a52,52,0,0,1,10.74-6,35.18,35.18,0,0,1,6-1.73c1-.14,2.06-.33,3.09-.41s2.07-.19,3.09-.16a37.69,37.69,0,0,1,12.16,1.69c1,.29,1.94.73,2.89,1.11a28.52,28.52,0,0,1,2.73,1.45,20.69,20.69,0,0,1,4.79,3.84,21,21,0,0,1,5.26,10.7,22.89,22.89,0,0,0-2.49-5.32,18.75,18.75,0,0,0-3.74-4.38,21,21,0,0,0-2.27-1.74,21.6,21.6,0,0,0-2.48-1.4,25.15,25.15,0,0,0-2.62-1.12c-.91-.27-1.8-.59-2.74-.78a35.39,35.39,0,0,0-11.34-.77c-1,0-1.88.23-2.82.31s-1.85.35-2.77.52a30.72,30.72,0,0,0-5.28,1.8c-6.77,3-12.64,8.54-19.59,12.82a26.89,26.89,0,0,1-12.17,4.22,20.05,20.05,0,0,1-6.71-.63,30.13,30.13,0,0,1-6-2.46c-7.09-3.92-13.73-8.18-20.47-12.27-1.67-1-3.35-2.05-5-3s-3.43-2-5-2.82a44.48,44.48,0,0,0-10.7-3.52,48.2,48.2,0,0,0-11.38-.81,39,39,0,0,0-11.22,2.07,28.16,28.16,0,0,0-9.88,5.71,25.67,25.67,0,0,0-3.78,4.39A27.56,27.56,0,0,0,313,188.5Z"/><rect class="brows-2" width="800" height="800"/></g></g></svg>
