<svg xmlns="http://www.w3.org/2000/svg" viewBox="0 0 800 800"><defs><style>.glasses-1{fill:none;}</style></defs><title>8100_glasses_ski_goggles</title><g id="Layer_2" data-name="Layer 2"><g id="_8100_glasses_ski_goggles" data-name="8100_glasses_ski_goggles"><path d="M522.31,174.72h2a3,3,0,0,1,3,3v43.34a3,3,0,0,1-3,3h-2.18a6,6,0,0,1-6-6V180.93a6.21,6.21,0,0,1,6.21-6.21Z" transform="translate(1043.41 398.78) rotate(-180)"/><path d="M272.46,174.72h2.18a3,3,0,0,1,3,3v43.34a3,3,0,0,1-3,3h-2a6.21,6.21,0,0,1-6.21-6.21V180.76A6,6,0,0,1,272.46,174.72Z"/><path d="M519.15,192c-.21-9.25-.71-19.27-7-26.42-5-5.72-12.87-8.5-20.41-10.78a358,358,0,0,0-67.4-13.46s-18.49-2-27.93-1.74c-9.44-.23-27.93,1.74-27.93,1.74a357.84,357.84,0,0,0-67.4,13.46c-7.54,2.28-15.38,5.06-20.41,10.78-6.3,7.15-6.8,17.17-7,26.42-.2,8.89-.4,17.85,1.24,26.61s5.29,17.41,11.86,23.86c7.75,7.61,18.73,11.43,29.3,15,10.38,3.52,21.58,7.08,32.23,4.37,10.05-2.55,17.53-10.16,24.66-17.26,6.65-6.63,14.13-13.43,23.47-15.54,9.34,2.11,16.82,8.91,23.47,15.54,7.13,7.1,14.61,14.71,24.66,17.26,10.65,2.71,21.85-.85,32.23-4.37,10.57-3.58,21.55-7.4,29.3-15,6.57-6.45,10.21-15.1,11.85-23.86S519.36,200.85,519.15,192Zm-3.59,22.4a36.2,36.2,0,0,1-11.63,20.26c-7.6,6.47-18.36,9.72-28.73,12.76-10.18,3-21.16,6-31.6,3.71-9.86-2.17-17.2-8.63-24.18-14.66-6.53-5.64-13.86-11.41-23-13.21-9.16,1.8-16.5,7.57-23,13.21-7,6-14.32,12.49-24.18,14.66-10.44,2.3-21.43-.72-31.6-3.71-10.37-3-21.13-6.29-28.73-12.76a36.2,36.2,0,0,1-11.63-20.26c-1.62-7.45-1.42-15.06-1.22-22.61.22-7.86.71-16.37,6.88-22.44,4.94-4.86,12.62-7.22,20-9.16A398.46,398.46,0,0,1,369,148.71s18.13-1.67,27.39-1.48c9.26-.19,27.39,1.48,27.39,1.48a398.46,398.46,0,0,1,66.09,11.44c7.39,1.94,15.08,4.3,20,9.16,6.17,6.07,6.66,14.58,6.87,22.44C517,199.3,517.17,206.91,515.56,214.36Z"/><rect class="glasses-1" width="800" height="800"/></g></g></svg>
