<svg xmlns="http://www.w3.org/2000/svg" viewBox="0 0 800 800"><defs><style>.glasses-1,.glasses-2,.glasses-3,.glasses-4{fill:none;}.glasses-1,.glasses-2,.glasses-3{stroke:#000;stroke-miterlimit:10;}.glasses-1{stroke-width:1.5px;}.glasses-2,.glasses-3{stroke-linecap:round;}.glasses-3{stroke-width:3px;}</style></defs><title>8100_glasses_wire_square</title><g id="Layer_2" data-name="Layer 2"><g id="_8100_glasses_wire_square" data-name="8100_glasses_wire_square"><path class="glasses-1" d="M435.83,172.23h36.26a31.32,31.32,0,0,1,31.32,31.32v13.11a38.3,38.3,0,0,1-38.3,38.3h0a56,56,0,0,1-56-56v0a26.72,26.72,0,0,1,26.72-26.72Z"/><line class="glasses-2" x1="357.02" y1="172.23" x2="442.13" y2="172.23"/><line class="glasses-3" x1="503.06" y1="203.55" x2="512.26" y2="203.55"/><line class="glasses-3" x1="382.19" y1="196.06" x2="411.87" y2="196.06"/><path class="glasses-1" d="M345.74,172.23h0a38.3,38.3,0,0,1,38.3,38.3v13.11A31.32,31.32,0,0,1,352.72,255H316.47a26.72,26.72,0,0,1-26.72-26.72v0a56,56,0,0,1,56-56Z" transform="translate(673.79 427.19) rotate(180)"/><line class="glasses-3" x1="290.09" y1="203.55" x2="280.89" y2="203.55"/><rect class="glasses-4" width="800" height="800"/></g></g></svg>
