<svg xmlns="http://www.w3.org/2000/svg" xmlns:xlink="http://www.w3.org/1999/xlink" viewBox="0 0 800 800"><defs><style>.bg-1{isolation:isolate;}.bg-2{opacity:0.3;mix-blend-mode:screen;fill:url(#radial-gradient);}.bg-3{opacity:0.19;}.bg-4{fill:#fff;}.bg-5{fill:none;}</style><radialGradient id="radial-gradient" cx="400" cy="400" r="400" gradientTransform="translate(7 7) scale(0.98)" gradientUnits="userSpaceOnUse"><stop offset="0" stop-color="#eeff23"/><stop offset="0.46" stop-color="#d95107"/><stop offset="0.57" stop-color="#d42300"/><stop offset="1"/></radialGradient></defs><title>STARSArtboard 1space</title><g class="bg-1"><g id="black"><rect width="800" height="800"/></g><g id="gradient"><rect class="bg-2" x="7" y="7" width="786" height="786"/></g><g id="gradient-2" data-name="gradient"><rect class="bg-2" x="7" y="7" width="786" height="786"/></g><g id="stars"><g class="bg-3"><path class="bg-4" d="M158.05,72.61l3-.79c.46-.13.92-.31,1.37-.48a3.14,3.14,0,0,0,2.1-3.3,31.59,31.59,0,0,0-.4-3.75c0-.2,0-.41-.06-.58A28.06,28.06,0,0,0,165.29,68a3.05,3.05,0,0,0,3.28,2.13A22.79,22.79,0,0,0,172,69.8l1-.13a26.92,26.92,0,0,0-4.35,1.25,3.07,3.07,0,0,0-2.17,3.39,27,27,0,0,0,.44,3.8l.09.53c-.44-1.41-.67-2.88-1.24-4.26-.08-.19-.17-.38-.26-.56a2.91,2.91,0,0,0-2.66-1.69,17.53,17.53,0,0,0-3.31.26c-.49.08-1,.19-1.48.29Z"/></g><g class="bg-3"><path class="bg-4" d="M165.29,127a39.52,39.52,0,0,0,1.44-4.2c.73-2.89,0-4.69-2.46-6.33a38.12,38.12,0,0,0-4-2.15,29.41,29.41,0,0,0,4.62,1.54c2.77.55,4.39-.13,5.94-2.48a37.06,37.06,0,0,0,2.16-4,41,41,0,0,0-1.44,4.2c-.73,2.86-.05,4.67,2.41,6.3a33.93,33.93,0,0,0,4,2.18,30.08,30.08,0,0,0-4.67-1.54c-2.71-.54-4.36.17-5.88,2.49A37.94,37.94,0,0,0,165.29,127Z"/><path class="bg-4" d="M155.37,112.14l4.15,1.81Z"/><path class="bg-4" d="M178.76,122.38l4.16,1.82-4.15-1.82Z"/><path class="bg-4" d="M175,104.8l-1.56,3.56Z"/><path class="bg-4" d="M163.28,131.54l1.56-3.56Z"/></g><g class="bg-3"><path class="bg-4" d="M97.14,128.43c-.34-.15-.58-.31-.84-.39a2.23,2.23,0,0,0-2.43.76,24,24,0,0,1-2.64,2.7l-1.74,1.59c.76-.88,1.54-1.72,2.34-2.56a13.59,13.59,0,0,1,1.83-1.73,2.31,2.31,0,0,0,.94-1.47,2.25,2.25,0,0,0-.35-1.67l-.06-.12s0,0,0-.06a2.37,2.37,0,0,0,2.88,0A2.45,2.45,0,0,0,97.14,128.43Z"/><path class="bg-4" d="M101.64,133a32.88,32.88,0,0,1-4.38-4.37A32.88,32.88,0,0,1,101.64,133Z"/><path class="bg-4" d="M94,125.31a33.49,33.49,0,0,1-4.38-4.37A34.12,34.12,0,0,1,94,125.31Z"/><path class="bg-4" d="M97.21,125.33a39.64,39.64,0,0,1,4.54-4.53C101,121.7,98.08,124.93,97.21,125.33Z"/></g><g class="bg-3"><path class="bg-4" d="M64.48,41.64a4.3,4.3,0,0,1-2.41.06c-1.72-.29-3.41-.75-5.11-1.12a.64.64,0,0,1-.21-.09l2.64.06a32.89,32.89,0,0,1,3.44.18,3.11,3.11,0,0,1,1.72.64,5.2,5.2,0,0,1,0-3c.28-1.5.67-3,1-4.49,0-.09.06-.18.1-.34,0,.95,0,1.82,0,2.7a34.64,34.64,0,0,1-.2,3.53,3.47,3.47,0,0,1-.59,1.65,3.07,3.07,0,0,1,.85-.2,9.06,9.06,0,0,1,2.38.27c1.51.33,3,.68,4.56,1a2,2,0,0,1-.69,0c-1.59-.05-3.19,0-4.78-.16a7.07,7.07,0,0,1-1.45-.23,2.21,2.21,0,0,1-.92-.48,6,6,0,0,1-.09,3.4c-.31,1.48-.66,2.95-1,4.42,0-.4,0-.8,0-1.21,0-1.21.06-2.42.11-3.62a8.62,8.62,0,0,1,.27-2.09A2.86,2.86,0,0,1,64.48,41.64Z"/></g><g class="bg-3"><path class="bg-4" d="M255.29,78c.24.54.48,1.07.73,1.6a5.07,5.07,0,0,0,.4.72,1.78,1.78,0,0,0,2,.87,18.42,18.42,0,0,0,2.05-.59l.32-.08a15.47,15.47,0,0,0-2.29,1.09,1.73,1.73,0,0,0-.88,2,12.37,12.37,0,0,0,.52,1.87c.06.19.11.38.17.56a16.3,16.3,0,0,0-1.11-2.31,1.73,1.73,0,0,0-2.1-.88,13.72,13.72,0,0,0-2.08.6l-.29.1c.75-.38,1.55-.65,2.26-1.1l.29-.19a1.65,1.65,0,0,0,.7-1.65,9.36,9.36,0,0,0-.47-1.82c-.08-.27-.2-.54-.3-.8Z"/></g><g class="bg-3"><path class="bg-4" d="M220.06,89a30.93,30.93,0,0,0,3.38.56,3.93,3.93,0,0,0,4.5-2.69,29.42,29.42,0,0,0,1.12-3.31,23,23,0,0,0-.57,3.71,3.83,3.83,0,0,0,2.65,4.2,30.24,30.24,0,0,0,3.31,1.13,28.09,28.09,0,0,0-3.38-.55,3.91,3.91,0,0,0-4.48,2.64A27.71,27.71,0,0,0,225.45,98a23.67,23.67,0,0,0,.57-3.75,3.85,3.85,0,0,0-2.65-4.16A31,31,0,0,0,220.06,89Z"/><path class="bg-4" d="M230.06,79.54l-.84,3.39Z"/><path class="bg-4" d="M225.29,98.65l-.84,3.39.84-3.39Z"/><path class="bg-4" d="M238.18,93.52l-2.91-.73Z"/><path class="bg-4" d="M216.33,88.06l2.9.73Z"/></g><g class="bg-3"><path class="bg-4" d="M218.35,49.29c.05-.2.12-.35.14-.5a1.26,1.26,0,0,0-.66-1.29,12.45,12.45,0,0,1-1.75-1.22c-.36-.27-.71-.54-1.05-.82.56.34,1.1.7,1.64,1.07a6.89,6.89,0,0,1,1.15.86,1.31,1.31,0,0,0,.91.38,1.28,1.28,0,0,0,.89-.35l.07-.05h0A1.34,1.34,0,0,0,220,49,1.38,1.38,0,0,0,218.35,49.29Z"/><path class="bg-4" d="M216.25,52.23a19,19,0,0,1,2-2.86A18.51,18.51,0,0,1,216.25,52.23Z"/><path class="bg-4" d="M219.8,47.24a18.36,18.36,0,0,1,2-2.85A19.59,19.59,0,0,1,219.8,47.24Z"/><path class="bg-4" d="M220.09,49a22.65,22.65,0,0,1,3,2.1A17.71,17.71,0,0,1,220.09,49Z"/></g><g class="bg-3"><path class="bg-4" d="M259,33.45a2.4,2.4,0,0,1-.26-1.34c0-1,.1-2,.14-3a.27.27,0,0,1,0-.12c.07.49.15,1,.22,1.48a17.81,17.81,0,0,1,.22,1.93,1.7,1.7,0,0,1-.19,1,2.89,2.89,0,0,1,1.7-.28c.87,0,1.74.09,2.61.13l.2,0-1.52.22c-.66.09-1.32.2-2,.23a1.91,1.91,0,0,1-1-.18,1.79,1.79,0,0,1,.19.46,5.11,5.11,0,0,1,.07,1.35c0,.88-.09,1.75-.14,2.65a1.5,1.5,0,0,1-.08-.39c-.12-.89-.28-1.78-.36-2.68a3.85,3.85,0,0,1,0-.83,1.27,1.27,0,0,1,.18-.56,3.32,3.32,0,0,1-1.91.27c-.85,0-1.71-.09-2.56-.16l.68-.1c.67-.1,1.35-.2,2-.28a4.73,4.73,0,0,1,1.19-.05A1.61,1.61,0,0,1,259,33.45Z"/></g><g class="bg-3"><path class="bg-4" d="M242.52,162.25c-.35.57-.7,1.14-1,1.72a8.06,8.06,0,0,0-.42.83,2,2,0,0,0,.49,2.48,19.8,19.8,0,0,0,1.86,1.57c.11.08.21.17.29.24a17.15,17.15,0,0,0-2.5-1.45,2,2,0,0,0-2.48.47,14.41,14.41,0,0,0-1.43,1.68l-.42.52a17.47,17.47,0,0,0,1.47-2.52,2,2,0,0,0-.51-2.55,18.94,18.94,0,0,0-1.9-1.58l-.28-.2c.83.46,1.6,1,2.48,1.42a2.87,2.87,0,0,0,.37.15,1.87,1.87,0,0,0,2-.4,11.36,11.36,0,0,0,1.42-1.6c.2-.26.38-.53.56-.8Z"/></g><g class="bg-3"><path class="bg-4" d="M209.58,136.07a32.19,32.19,0,0,0,1.64,3.54c1.3,2.28,2.84,3,5.42,2.52a33.32,33.32,0,0,0,3.84-1.06,25.32,25.32,0,0,0-3.87,1.84c-2.1,1.33-2.7,2.75-2.26,5.19a34.92,34.92,0,0,0,1.06,3.85,35.26,35.26,0,0,0-1.64-3.55,4.48,4.48,0,0,0-5.37-2.53,30.06,30.06,0,0,0-3.89,1.07,26.77,26.77,0,0,0,3.9-1.86,4.38,4.38,0,0,0,2.22-5.17A35.17,35.17,0,0,0,209.58,136.07Z"/><path class="bg-4" d="M224.9,139.44l-3.74,1.38Z"/><path class="bg-4" d="M203.82,147.19l-3.74,1.38,3.74-1.37Z"/><path class="bg-4" d="M216.93,156.06c-.4-1.07-.79-2.14-1.18-3.21C216.14,153.92,216.53,155,216.93,156.06Z"/><path class="bg-4" d="M208.06,132l1.18,3.21Z"/></g><g class="bg-3"><path class="bg-4" d="M245.93,109c.22-.08.4-.12.56-.19a1.46,1.46,0,0,0,.79-1.45,16.57,16.57,0,0,1,0-2.44c0-.5.06-1,.1-1.51,0,.74.06,1.49.06,2.23a8.82,8.82,0,0,1-.08,1.63,1.49,1.49,0,0,0,.22,1.11,1.44,1.44,0,0,0,.91.61l.08,0v0a1.53,1.53,0,0,0-1.33,1.3A1.58,1.58,0,0,0,245.93,109Z"/><path class="bg-4" d="M241.8,108.91a21.38,21.38,0,0,1,4,.07A21.4,21.4,0,0,1,241.8,108.91Z"/><path class="bg-4" d="M248.78,109.05a20.56,20.56,0,0,1,4,.08A22.28,22.28,0,0,1,248.78,109.05Z"/><path class="bg-4" d="M247.28,110.47a26,26,0,0,1-.09,4.14A20.19,20.19,0,0,1,247.28,110.47Z"/></g><g class="bg-3"><path class="bg-4" d="M286.93,137.2a2.8,2.8,0,0,1,1.1-1.11c.93-.64,1.93-1.18,2.88-1.77l.14,0-1.25,1.15a21.3,21.3,0,0,1-1.69,1.46,2,2,0,0,1-1.09.47,3.34,3.34,0,0,1,1.36,1.43c.54.83,1,1.69,1.54,2.54l.11.2-1.19-1.28a20.44,20.44,0,0,1-1.48-1.73,2.31,2.31,0,0,1-.47-1,2,2,0,0,1-.3.47,5.9,5.9,0,0,1-1.23.94l-2.59,1.56a1.21,1.21,0,0,1,.32-.32c.76-.69,1.49-1.41,2.29-2.06a4.59,4.59,0,0,1,.78-.55,1.54,1.54,0,0,1,.64-.19,3.77,3.77,0,0,1-1.47-1.62c-.52-.83-1-1.67-1.5-2.52l.53.58c.53.57,1.05,1.15,1.57,1.73a5.89,5.89,0,0,1,.81,1.1A1.69,1.69,0,0,1,286.93,137.2Z"/></g><g class="bg-3"><path class="bg-4" d="M166.78,211.75l-1.06-.42a3.8,3.8,0,0,0-.51-.16,1.15,1.15,0,0,0-1.33.51,11.94,11.94,0,0,0-.7,1.19,1.42,1.42,0,0,1-.11.18,9.66,9.66,0,0,0,.58-1.53,1.12,1.12,0,0,0-.5-1.34,9.75,9.75,0,0,0-1.07-.64l-.34-.19a10.75,10.75,0,0,0,1.55.59,1.14,1.14,0,0,0,1.38-.53,11.18,11.18,0,0,0,.7-1.21l.08-.18c-.17.51-.42,1-.56,1.52a1.85,1.85,0,0,0,0,.23,1,1,0,0,0,.41,1.07,6.87,6.87,0,0,0,1,.65l.5.23Z"/></g><g class="bg-3"><path class="bg-4" d="M194.9,169.1a21.51,21.51,0,0,0-1.82,1.26,2.54,2.54,0,0,0-.89,3.26,19.84,19.84,0,0,0,1,2,14.29,14.29,0,0,0-1.4-2,2.47,2.47,0,0,0-3.11-.77,18.69,18.69,0,0,0-2,1,21.51,21.51,0,0,0,1.82-1.26,2.53,2.53,0,0,0,.91-3.24,15.9,15.9,0,0,0-1-2.06,14.58,14.58,0,0,0,1.42,2,2.48,2.48,0,0,0,3.09.75A19.52,19.52,0,0,0,194.9,169.1Z"/><path class="bg-4" d="M194.48,178l-1.13-2Z"/><path class="bg-4" d="M188.15,167,187,165l1.13,1.95Z"/><path class="bg-4" d="M184.44,175.1l1.68-1Z"/><path class="bg-4" d="M197.06,167.87l-1.68,1Z"/></g><g class="bg-3"><path class="bg-4" d="M224.86,200.1c.07.12.1.22.16.3a.81.81,0,0,0,.88.3,9,9,0,0,1,1.36-.22l.86-.08c-.41.09-.83.17-1.24.24a5.77,5.77,0,0,1-.92.11.82.82,0,0,0-.6.23.84.84,0,0,0-.26.56.07.07,0,0,1,0,.05h0a.87.87,0,0,0-.85-.62A.9.9,0,0,0,224.86,200.1Z"/><path class="bg-4" d="M224.52,197.79a12.11,12.11,0,0,1,.33,2.24A13,13,0,0,1,224.52,197.79Z"/><path class="bg-4" d="M225.1,201.7a12.13,12.13,0,0,1,.34,2.24A12.13,12.13,0,0,1,225.1,201.7Z"/><path class="bg-4" d="M224.16,201a14,14,0,0,1-2.32.35A12.56,12.56,0,0,1,224.16,201Z"/></g><g class="bg-3"><path class="bg-4" d="M213,225.67a1.61,1.61,0,0,1,.72.51c.44.46.84,1,1.26,1.44a.25.25,0,0,1,0,.07l-.76-.59a12.49,12.49,0,0,1-1-.8,1.2,1.2,0,0,1-.37-.56,2,2,0,0,1-.67.89c-.41.38-.85.73-1.27,1.1l-.11.08c.22-.27.41-.53.61-.78s.52-.69.82-1a1.3,1.3,0,0,1,.54-.35,1.36,1.36,0,0,1-.3-.13,3.62,3.62,0,0,1-.64-.6c-.37-.42-.73-.85-1.11-1.3a1.13,1.13,0,0,1,.21.15c.45.36.93.7,1.37,1.09a3.32,3.32,0,0,1,.37.38.84.84,0,0,1,.17.34,2.13,2.13,0,0,1,.77-1c.41-.37.83-.72,1.26-1.07l-.27.35c-.27.35-.54.7-.82,1a2.81,2.81,0,0,1-.54.55A.85.85,0,0,1,213,225.67Z"/></g><g class="bg-3"><path class="bg-4" d="M145.43,328.15l2.93-1a13.21,13.21,0,0,0,1.34-.58,3.13,3.13,0,0,0,1.87-3.43,31,31,0,0,0-.67-3.71c0-.2-.06-.41-.09-.58a27.61,27.61,0,0,0,1.53,4.21,3,3,0,0,0,3.41,1.9,22.48,22.48,0,0,0,3.36-.58c.35-.08.7-.14,1-.2a27,27,0,0,0-4.25,1.54,3.08,3.08,0,0,0-1.93,3.54,28.28,28.28,0,0,0,.7,3.76c0,.17.09.34.13.52-.53-1.38-.87-2.83-1.53-4.16l-.3-.55a2.9,2.9,0,0,0-2.77-1.5,18,18,0,0,0-3.28.49c-.49.11-1,.26-1.46.39Z"/></g><g class="bg-3"><path class="bg-4" d="M162.37,394.89a43.3,43.3,0,0,0,1.21-4.55c.56-3.12-.31-5-3.07-6.52a39.51,39.51,0,0,0-4.37-2,30.31,30.31,0,0,0,5,1.29c3,.39,4.63-.46,6.1-3.06a39.43,39.43,0,0,0,2-4.39,42.86,42.86,0,0,0-1.21,4.56c-.56,3.08.29,4.95,3,6.5a37.17,37.17,0,0,0,4.43,2,30.34,30.34,0,0,0-5.06-1.29c-2.91-.37-4.6.5-6,3.07A40.92,40.92,0,0,0,162.37,394.89Z"/><path class="bg-4" d="M150.78,379.92l4.52,1.62Z"/><path class="bg-4" d="M176.29,389l4.53,1.62L176.3,389Z"/><path class="bg-4" d="M171,370.7c-.47,1.3-.93,2.59-1.39,3.88C170.08,373.29,170.54,372,171,370.7Z"/><path class="bg-4" d="M160.58,399.88c.47-1.3.93-2.59,1.39-3.89C161.51,397.29,161.05,398.58,160.58,399.88Z"/></g><g class="bg-3"><path class="bg-4" d="M88.55,388.07c-.35-.13-.59-.26-.86-.33a2.22,2.22,0,0,0-2.37.93,24,24,0,0,1-2.44,2.88c-.54.57-1.08,1.14-1.63,1.7.69-.93,1.42-1.83,2.15-2.71a13.72,13.72,0,0,1,1.71-1.86,2.27,2.27,0,0,0,.37-3.17.75.75,0,0,1-.07-.12l0-.05a2.38,2.38,0,0,0,2.87-.23A2.45,2.45,0,0,0,88.55,388.07Z"/><path class="bg-4" d="M93.36,392.27a34.16,34.16,0,0,1-4.68-4.06A32.93,32.93,0,0,1,93.36,392.27Z"/><path class="bg-4" d="M85.2,385.18a32.77,32.77,0,0,1-4.66-4.06A34.6,34.6,0,0,1,85.2,385.18Z"/><path class="bg-4" d="M88.41,385a39.58,39.58,0,0,1,4.21-4.84C91.93,381.08,89.25,384.51,88.41,385Z"/></g><g class="bg-3"><path class="bg-4" d="M49.94,303.77a4.32,4.32,0,0,1-2.41.22c-1.73-.16-3.45-.51-5.17-.76a.57.57,0,0,1-.22-.07l2.64-.13a32.86,32.86,0,0,1,3.44-.06,3.2,3.2,0,0,1,1.77.52,5.12,5.12,0,0,1-.2-3c.17-1.52.46-3,.69-4.55,0-.09,0-.19.07-.35.05.95.1,1.82.14,2.7a32.17,32.17,0,0,1,.05,3.54,3.49,3.49,0,0,1-.47,1.68,3,3,0,0,1,.83-.26,9.12,9.12,0,0,1,2.39.11c1.53.22,3,.47,4.62.71a2.48,2.48,0,0,1-.69.07c-1.59.06-3.18.19-4.78.17a7.15,7.15,0,0,1-1.46-.13,2.22,2.22,0,0,1-1-.41,5.78,5.78,0,0,1,.14,3.39c-.2,1.5-.45,3-.71,4.49,0-.41,0-.81-.07-1.21-.05-1.21-.11-2.42-.14-3.63a8.73,8.73,0,0,1,.13-2.1A2.5,2.5,0,0,1,49.94,303.77Z"/></g><g class="bg-3"><path class="bg-4" d="M242.81,326.77l.84,1.54a6.28,6.28,0,0,0,.45.69,1.76,1.76,0,0,0,2.09.72,17.8,17.8,0,0,0,2-.72,3,3,0,0,1,.31-.11,15.52,15.52,0,0,0-2.2,1.25,1.74,1.74,0,0,0-.74,2.09,13.1,13.1,0,0,0,.64,1.82c.08.19.15.38.21.56a14.84,14.84,0,0,0-1.26-2.23,1.75,1.75,0,0,0-2.16-.74,14.48,14.48,0,0,0-2,.74l-.28.13c.72-.43,1.5-.76,2.18-1.26l.27-.21a1.64,1.64,0,0,0,.58-1.69,9.38,9.38,0,0,0-.59-1.79c-.1-.26-.23-.52-.35-.78Z"/></g><g class="bg-3"><path class="bg-4" d="M208.43,340.17a29.08,29.08,0,0,0,3.41.32,3.93,3.93,0,0,0,4.3-3,29,29,0,0,0,.89-3.38,23.66,23.66,0,0,0-.31,3.74,3.82,3.82,0,0,0,2.94,4,28.5,28.5,0,0,0,3.38.9,31.17,31.17,0,0,0-3.41-.32,3.91,3.91,0,0,0-4.29,2.95,25.66,25.66,0,0,0-.9,3.42,24.29,24.29,0,0,0,.31-3.78,3.84,3.84,0,0,0-2.94-4A31.16,31.16,0,0,0,208.43,340.17Z"/><path class="bg-4" d="M217.75,330.05c-.2,1.14-.4,2.29-.61,3.44C217.35,332.34,217.55,331.19,217.75,330.05Z"/><path class="bg-4" d="M214.32,349.44l-.6,3.45.6-3.44Z"/><path class="bg-4" d="M226.82,343.42l-2.95-.52Z"/><path class="bg-4" d="M204.64,339.5l3,.52Z"/></g><g class="bg-3"><path class="bg-4" d="M204,300.69c0-.21.09-.36.11-.52a1.26,1.26,0,0,0-.75-1.23,14.83,14.83,0,0,1-1.84-1.09l-1.1-.75c.58.3,1.15.62,1.72.94a8,8,0,0,1,1.2.78,1.29,1.29,0,0,0,1.8-.09l.06-.05h0a1.37,1.37,0,0,0,.4,1.58A1.38,1.38,0,0,0,204,300.69Z"/><path class="bg-4" d="M202.07,303.77a18.8,18.8,0,0,1,1.83-3A19.55,19.55,0,0,1,202.07,303.77Z"/><path class="bg-4" d="M205.26,298.54a19.4,19.4,0,0,1,1.82-3A19.4,19.4,0,0,1,205.26,298.54Z"/><path class="bg-4" d="M205.68,300.31a24.06,24.06,0,0,1,3.1,1.9A17.89,17.89,0,0,1,205.68,300.31Z"/></g><g class="bg-3"><path class="bg-4" d="M243.42,282.06a2.47,2.47,0,0,1-.35-1.32c-.07-1,0-2-.07-3a.5.5,0,0,1,0-.12l.33,1.46a17.8,17.8,0,0,1,.35,1.91,1.78,1.78,0,0,1-.12,1,3,3,0,0,1,1.68-.4c.87-.05,1.74,0,2.61,0h.2l-1.5.33a18.49,18.49,0,0,1-2,.37,2,2,0,0,1-1-.11,1.51,1.51,0,0,1,.22.44A4.76,4.76,0,0,1,244,284c0,.87,0,1.75,0,2.65a1.19,1.19,0,0,1-.1-.38c-.19-.88-.41-1.76-.55-2.65a3.88,3.88,0,0,1-.07-.83,1.3,1.3,0,0,1,.14-.57,3.28,3.28,0,0,1-1.88.4c-.86,0-1.71,0-2.57,0l.67-.16,2-.42a5.2,5.2,0,0,1,1.18-.13A1.42,1.42,0,0,1,243.42,282.06Z"/></g><g class="bg-3"><path class="bg-4" d="M235.94,411.69l-.92,1.78c-.14.28-.26.58-.37.87a2,2,0,0,0,.67,2.44,20.22,20.22,0,0,0,2,1.43c.11.07.21.16.3.22a17.88,17.88,0,0,0-2.6-1.27,2,2,0,0,0-2.44.64,15.2,15.2,0,0,0-1.3,1.77l-.39.56a17.8,17.8,0,0,0,1.29-2.63,2,2,0,0,0-.69-2.5,16.69,16.69,0,0,0-2-1.45l-.3-.18c.87.4,1.68.93,2.58,1.25a2.78,2.78,0,0,0,.38.12,1.85,1.85,0,0,0,2-.54,10.62,10.62,0,0,0,1.31-1.69c.18-.27.34-.56.51-.84Z"/></g><g class="bg-3"><path class="bg-4" d="M201.25,387.87a33,33,0,0,0,1.89,3.41c1.45,2.19,3,2.8,5.58,2.14a32.35,32.35,0,0,0,3.75-1.33,26,26,0,0,0-3.73,2.1,4.38,4.38,0,0,0-1.89,5.34,33,33,0,0,0,1.33,3.77,36.27,36.27,0,0,0-1.89-3.42c-1.44-2.17-3-2.79-5.54-2.16a32.72,32.72,0,0,0-3.8,1.34,25.72,25.72,0,0,0,3.77-2.13,4.38,4.38,0,0,0,1.85-5.31A33.94,33.94,0,0,0,201.25,387.87Z"/><path class="bg-4" d="M216.78,390.16l-3.64,1.63Z"/><path class="bg-4" d="M196.28,399.36,192.65,401l3.63-1.63Z"/><path class="bg-4" d="M210,407.29c-.46-1-.93-2.08-1.4-3.12C209,405.21,209.51,406.25,210,407.29Z"/><path class="bg-4" d="M199.45,383.86l1.4,3.12Z"/></g><g class="bg-3"><path class="bg-4" d="M235.63,358.33c.22-.1.39-.14.55-.23a1.46,1.46,0,0,0,.69-1.5,15.18,15.18,0,0,1-.15-2.43c0-.51,0-1,0-1.52.09.74.16,1.48.21,2.23a8.86,8.86,0,0,1,0,1.63,1.47,1.47,0,0,0,.29,1.08,1.51,1.51,0,0,0,.95.56l.09,0v0a1.54,1.54,0,0,0-1.24,1.39A1.58,1.58,0,0,0,235.63,358.33Z"/><path class="bg-4" d="M231.51,358.52a22.19,22.19,0,0,1,4-.2A21.31,21.31,0,0,1,231.51,358.52Z"/><path class="bg-4" d="M238.48,358.18a21.31,21.31,0,0,1,4-.2A22.19,22.19,0,0,1,238.48,358.18Z"/><path class="bg-4" d="M237.08,359.71a25.92,25.92,0,0,1,.2,4.13A21,21,0,0,1,237.08,359.71Z"/></g><g class="bg-3"><path class="bg-4" d="M278.5,383.6a2.84,2.84,0,0,1,1-1.18c.88-.7,1.83-1.3,2.75-2a.31.31,0,0,1,.13-.06l-1.17,1.24a21.15,21.15,0,0,1-1.58,1.56,2,2,0,0,1-1,.55,3.4,3.4,0,0,1,1.45,1.33c.6.79,1.14,1.62,1.71,2.43,0,.05.07.11.13.2l-1.27-1.2a20.64,20.64,0,0,1-1.61-1.63,2.17,2.17,0,0,1-.53-1,2.08,2.08,0,0,1-.27.49,5.68,5.68,0,0,1-1.17,1l-2.47,1.74a1.43,1.43,0,0,1,.29-.34c.72-.74,1.4-1.52,2.15-2.22a4.74,4.74,0,0,1,.74-.6,1.49,1.49,0,0,1,.63-.23,3.82,3.82,0,0,1-1.59-1.52c-.57-.78-1.12-1.59-1.67-2.41l.57.54,1.69,1.62a5.45,5.45,0,0,1,.88,1A1.74,1.74,0,0,1,278.5,383.6Z"/></g><g class="bg-3"><path class="bg-4" d="M163.82,466.34l-1.08-.35c-.17-.05-.34-.08-.52-.12a1.15,1.15,0,0,0-1.29.6,12,12,0,0,0-.62,1.24l-.09.19a10.15,10.15,0,0,0,.46-1.57,1.1,1.1,0,0,0-.58-1.3,8.36,8.36,0,0,0-1.12-.56l-.35-.17a10.8,10.8,0,0,0,1.59.48,1.14,1.14,0,0,0,1.34-.63,10.3,10.3,0,0,0,.61-1.25,1.46,1.46,0,0,0,.07-.19c-.14.53-.35,1-.45,1.56l0,.23a1,1,0,0,0,.49,1,5.5,5.5,0,0,0,1.07.57,5.38,5.38,0,0,0,.51.2Z"/></g><g class="bg-3"><path class="bg-4" d="M188.91,421.84a21.27,21.27,0,0,0-1.73,1.38,2.54,2.54,0,0,0-.66,3.32,19.54,19.54,0,0,0,1.1,2,14.59,14.59,0,0,0-1.53-1.89,2.49,2.49,0,0,0-3.16-.55,21.2,21.2,0,0,0-2,1.1,18.31,18.31,0,0,0,1.73-1.38,2.52,2.52,0,0,0,.68-3.29,16.78,16.78,0,0,0-1.11-2,14.89,14.89,0,0,0,1.55,1.9,2.47,2.47,0,0,0,3.14.53A18,18,0,0,0,188.91,421.84Z"/><path class="bg-4" d="M189.1,430.73l-1.25-1.88Z"/><path class="bg-4" d="M182,420.16l-1.25-1.88c.41.63.83,1.25,1.25,1.88Z"/><path class="bg-4" d="M178.89,428.55l1.61-1.07Z"/><path class="bg-4" d="M191,420.46l-1.61,1.07Z"/></g><g class="bg-3"><path class="bg-4" d="M221,450.68c.08.11.12.2.18.28a.81.81,0,0,0,.9.25,8,8,0,0,1,1.35-.32l.85-.14c-.41.12-.82.22-1.23.32a4.78,4.78,0,0,1-.9.18.84.84,0,0,0-.58.27.81.81,0,0,0-.22.58.09.09,0,0,1,0,0h0a.85.85,0,0,0-.89-.56A.89.89,0,0,0,221,450.68Z"/><path class="bg-4" d="M220.45,448.4a12,12,0,0,1,.49,2.21A12.83,12.83,0,0,1,220.45,448.4Z"/><path class="bg-4" d="M221.31,452.26a12.62,12.62,0,0,1,.49,2.21A12,12,0,0,1,221.31,452.26Z"/><path class="bg-4" d="M220.32,451.62a13.75,13.75,0,0,1-2.29.5A11.25,11.25,0,0,1,220.32,451.62Z"/></g><g class="bg-3"><path class="bg-4" d="M210.9,477a1.61,1.61,0,0,1,.76.46c.47.43.9.9,1.35,1.35a.18.18,0,0,1,.05.07l-.8-.54a12,12,0,0,1-1-.73,1.15,1.15,0,0,1-.4-.54,1.88,1.88,0,0,1-.61.94c-.38.41-.79.79-1.19,1.18a.47.47,0,0,1-.1.09l.55-.82c.24-.36.48-.72.75-1.05a1.39,1.39,0,0,1,.51-.39,1.33,1.33,0,0,1-.3-.11,3.28,3.28,0,0,1-.68-.55l-1.2-1.22a1.28,1.28,0,0,1,.21.13c.49.33,1,.64,1.45,1a2.71,2.71,0,0,1,.4.36.89.89,0,0,1,.19.33,2.12,2.12,0,0,1,.7-1c.38-.4.78-.78,1.18-1.16l-.24.37-.75,1.09a3.14,3.14,0,0,1-.49.59A.89.89,0,0,1,210.9,477Z"/></g><g class="bg-3"><path class="bg-4" d="M699,554.85c.46,1.18.9,2.37,1.36,3.55a15.84,15.84,0,0,0,.77,1.61,3.84,3.84,0,0,0,4.29,2.14,38.54,38.54,0,0,0,4.51-1l.7-.14a34,34,0,0,0-5.08,2.06,3.73,3.73,0,0,0-2.18,4.26,28.59,28.59,0,0,0,.86,4.09c.11.42.2.85.3,1.26a34.67,34.67,0,0,0-2.08-5.15,3.78,3.78,0,0,0-4.42-2.2,34,34,0,0,0-4.58,1l-.63.19c1.67-.72,3.43-1.2,5-2.07.22-.12.44-.25.65-.39a3.53,3.53,0,0,0,1.72-3.46,20.8,20.8,0,0,0-.75-4c-.15-.6-.36-1.18-.54-1.77Z"/></g><g class="bg-3"><path class="bg-4" d="M631.36,585.48a44.84,44.84,0,0,0,4.89,1.12c3.35.47,5.29-.52,6.83-3.53a42.19,42.19,0,0,0,1.95-4.73,32.11,32.11,0,0,0-1.18,5.37c-.3,3.19.67,4.92,3.5,6.39a40.85,40.85,0,0,0,4.75,1.95,45.11,45.11,0,0,0-4.9-1.11c-3.31-.48-5.27.5-6.81,3.46a40.63,40.63,0,0,0-2,4.79,34.17,34.17,0,0,0,1.18-5.43c.28-3.12-.71-4.89-3.51-6.33A46.23,46.23,0,0,0,631.36,585.48Z"/><path class="bg-4" d="M646.86,572.55c-.52,1.63-1,3.26-1.55,4.89C645.83,575.81,646.34,574.18,646.86,572.55Z"/><path class="bg-4" d="M638.14,600.09q-.78,2.45-1.55,4.89c.51-1.63,1-3.26,1.54-4.88Z"/><path class="bg-4" d="M657.47,593.75l-4.2-1.33Z"/><path class="bg-4" d="M626,583.77l4.2,1.33Z"/></g><g class="bg-3"><path class="bg-4" d="M623,487.84c.14-.44.29-.74.36-1.07a2.73,2.73,0,0,0-1.24-2.87,28.72,28.72,0,0,1-3.63-2.86q-1.1-.94-2.16-1.92c1.16.81,2.29,1.66,3.42,2.52a16.73,16.73,0,0,1,2.35,2A2.77,2.77,0,0,0,626,484l.15-.09.07,0a2.92,2.92,0,0,0,.4,3.51A3,3,0,0,0,623,487.84Z"/><path class="bg-4" d="M618.1,493.91a40.3,40.3,0,0,1,4.76-5.9A41.52,41.52,0,0,1,618.1,493.91Z"/><path class="bg-4" d="M626.42,483.61a41,41,0,0,1,4.76-5.9A41.39,41.39,0,0,1,626.42,483.61Z"/><path class="bg-4" d="M626.81,487.53a47.48,47.48,0,0,1,6.11,4.94C631.73,491.67,627.42,488.53,626.81,487.53Z"/></g><g class="bg-3"><path class="bg-4" d="M724.58,436.79a5.31,5.31,0,0,1-.38-2.94c.13-2.13.47-4.25.7-6.37a.92.92,0,0,1,.08-.27c.09,1.08.19,2.15.28,3.22a39.76,39.76,0,0,1,.22,4.22,3.86,3.86,0,0,1-.56,2.19,6.28,6.28,0,0,1,3.72-.38c1.87.15,3.73.43,5.6.64l.43.08-3.3.28a41.71,41.71,0,0,1-4.33.22,4.34,4.34,0,0,1-2.08-.5,3.42,3.42,0,0,1,.35,1,11.13,11.13,0,0,1,0,2.94c-.2,1.88-.44,3.75-.67,5.7a3,3,0,0,1-.11-.85c-.15-2-.38-3.89-.43-5.84a9.83,9.83,0,0,1,.1-1.8,2.74,2.74,0,0,1,.46-1.19,7.12,7.12,0,0,1-4.15.33c-1.85-.18-3.68-.42-5.53-.68l1.49-.13c1.47-.12,2.95-.24,4.43-.34a11.14,11.14,0,0,1,2.58.06A3.29,3.29,0,0,1,724.58,436.79Z"/></g><g class="bg-3"><path class="bg-4" d="M705,674.08l-1.86,1.1a6.74,6.74,0,0,0-.82.58,2.15,2.15,0,0,0-.79,2.6,21.81,21.81,0,0,0,1,2.42c.06.13.11.27.15.38a21.44,21.44,0,0,0-1.63-2.65,2.14,2.14,0,0,0-2.59-.81,17.34,17.34,0,0,0-2.2.87c-.23.11-.46.19-.68.29a19.87,19.87,0,0,0,2.68-1.65,2.15,2.15,0,0,0,.81-2.68,18.7,18.7,0,0,0-1-2.46l-.16-.33c.56.86,1,1.8,1.63,2.61l.28.33a2,2,0,0,0,2.1.63,11.93,11.93,0,0,0,2.16-.8c.32-.14.62-.31.93-.47Z"/></g><g class="bg-3"><path class="bg-4" d="M687,632.57a36.28,36.28,0,0,0-.24,4.19c.08,2.82,1.17,4.28,3.86,5.13a36.59,36.59,0,0,0,4.17.94,27.86,27.86,0,0,0-4.59-.22c-2.67.2-4,1.24-4.77,3.78a36.16,36.16,0,0,0-1,4.18,36.38,36.38,0,0,0,.23-4.19c-.06-2.79-1.15-4.27-3.8-5.12a31.41,31.41,0,0,0-4.23-1,27.63,27.63,0,0,0,4.65.21c2.6-.2,3.92-1.26,4.72-3.77A38.75,38.75,0,0,0,687,632.57Z"/><path class="bg-4" d="M699.85,643.53l-4.25-.59Z"/><path class="bg-4" d="M675.93,640.19l-4.24-.59,4.24.59Z"/><path class="bg-4" d="M683.86,655.23l.51-3.64Z"/><path class="bg-4" d="M687.68,627.89l-.51,3.64Z"/></g><g class="bg-3"><path class="bg-4" d="M735.2,625.34c.26,0,.44.09.63.1a1.53,1.53,0,0,0,1.48-1,17.12,17.12,0,0,1,1.26-2.3c.28-.46.57-.93.86-1.38-.34.72-.7,1.43-1.08,2.14a8.85,8.85,0,0,1-.9,1.51,1.62,1.62,0,0,0-.35,1.15,1.55,1.55,0,0,0,.55,1l.06.07v0a1.44,1.44,0,0,1-2.5-1.41Z"/><path class="bg-4" d="M731.34,623.16a22.61,22.61,0,0,1,3.75,2.1A23.79,23.79,0,0,1,731.34,623.16Z"/><path class="bg-4" d="M737.88,626.83a22.61,22.61,0,0,1,3.75,2.1A24.62,24.62,0,0,1,737.88,626.83Z"/><path class="bg-4" d="M735.73,627.42a26.39,26.39,0,0,1-2.18,3.88A22.69,22.69,0,0,1,735.73,627.42Z"/></g><g class="bg-3"><path class="bg-4" d="M759.77,672.85a3.08,3.08,0,0,1,1.6-.5c1.21-.13,2.42-.13,3.63-.21a.47.47,0,0,1,.16,0l-1.78.46a23.06,23.06,0,0,1-2.33.52,2.14,2.14,0,0,1-1.27-.1,3.56,3.56,0,0,1,.56,2c.1,1.06.11,2.13.17,3.19a2,2,0,0,1,0,.25c-.16-.64-.32-1.23-.47-1.82a21.36,21.36,0,0,1-.53-2.4,2.38,2.38,0,0,1,.08-1.21,1.85,1.85,0,0,1-.53.29,6.12,6.12,0,0,1-1.64.27c-1.07.07-2.14.11-3.24.17a1.42,1.42,0,0,1,.46-.14c1.07-.27,2.13-.58,3.22-.8a5.8,5.8,0,0,1,1-.12,1.65,1.65,0,0,1,.71.15,4,4,0,0,1-.58-2.29c-.07-1-.11-2.09-.14-3.14l.21.81c.21.81.42,1.63.61,2.44a6,6,0,0,1,.21,1.45A1.93,1.93,0,0,1,759.77,672.85Z"/></g><g class="bg-3"><path class="bg-4" d="M600.64,669.43l-2.23-1a9.84,9.84,0,0,0-1.07-.41,2.48,2.48,0,0,0-3,.92,24.35,24.35,0,0,0-1.66,2.48c-.09.14-.19.27-.27.38a21.46,21.46,0,0,0,1.45-3.24,2.41,2.41,0,0,0-.89-3,19.49,19.49,0,0,0-2.23-1.52c-.24-.14-.48-.3-.7-.45a21.89,21.89,0,0,0,3.27,1.47,2.43,2.43,0,0,0,3-1,21.23,21.23,0,0,0,1.68-2.52c.07-.12.13-.25.21-.37-.46,1.08-1.06,2.09-1.42,3.21-.05.16-.09.32-.13.48a2.29,2.29,0,0,0,.75,2.38,13.44,13.44,0,0,0,2.14,1.53c.33.2.69.38,1,.58Z"/></g><g class="bg-3"><path class="bg-4" d="M628.28,625.88a44.61,44.61,0,0,0-4.1,2.47c-2.61,1.88-3.29,3.85-2.37,6.93a41,41,0,0,0,1.79,4.54,30.89,30.89,0,0,0-2.74-4.48c-1.89-2.38-3.7-2.93-6.62-2.07a38.89,38.89,0,0,0-4.55,1.79,42.49,42.49,0,0,0,4.1-2.47c2.59-1.85,3.29-3.82,2.4-6.87a39.44,39.44,0,0,0-1.81-4.6,31.79,31.79,0,0,0,2.77,4.51c1.87,2.33,3.72,2.89,6.59,2A41.74,41.74,0,0,0,628.28,625.88Z"/><path class="bg-4" d="M626.16,645,624,640.62Z"/><path class="bg-4" d="M614,620.31q-1.08-2.19-2.17-4.38,1.08,2.19,2.17,4.38Z"/><path class="bg-4" d="M604.87,637.43l3.76-1.85Z"/><path class="bg-4" d="M633.11,623.5l-3.76,1.86Z"/></g><g class="bg-3"><path class="bg-4" d="M666,666.69c.13.26.2.47.31.66a1.75,1.75,0,0,0,1.86.77,19.79,19.79,0,0,1,3-.29l1.86-.07c-.9.15-1.81.26-2.72.36a11.07,11.07,0,0,1-2,.11,1.81,1.81,0,0,0-2,1.6.23.23,0,0,1,0,.11h0a1.89,1.89,0,0,0-1.76-1.45A1.93,1.93,0,0,0,666,666.69Z"/><path class="bg-4" d="M665.57,661.65a26.58,26.58,0,0,1,.42,4.88A27.49,27.49,0,0,1,665.57,661.65Z"/><path class="bg-4" d="M666.3,670.17a26.67,26.67,0,0,1,.43,4.88A27.5,27.5,0,0,1,666.3,670.17Z"/><path class="bg-4" d="M664.37,668.52a30.68,30.68,0,0,1-5.06.43A26.6,26.6,0,0,1,664.37,668.52Z"/></g><g class="bg-3"><path class="bg-4" d="M636.94,720.33a3.34,3.34,0,0,1,1.49,1.19c.9,1.05,1.68,2.19,2.53,3.29a.48.48,0,0,1,.08.16l-1.57-1.38a25.14,25.14,0,0,1-2-1.87,2.48,2.48,0,0,1-.72-1.27,4,4,0,0,1-1.57,1.84c-.93.77-1.93,1.47-2.89,2.21l-.24.16,1.41-1.61a26.46,26.46,0,0,1,1.92-2,2.74,2.74,0,0,1,1.2-.7A2.25,2.25,0,0,1,636,720a7.09,7.09,0,0,1-1.3-1.38c-.75-1-1.48-1.94-2.24-3a1.74,1.74,0,0,1,.43.34c.94.85,1.92,1.65,2.82,2.54a5.86,5.86,0,0,1,.76.88,1.72,1.72,0,0,1,.31.76,4.57,4.57,0,0,1,1.79-2c.94-.74,1.9-1.45,2.88-2.15l-.64.72c-.63.72-1.26,1.44-1.91,2.15a6.92,6.92,0,0,1-1.23,1.12A2.13,2.13,0,0,1,636.94,720.33Z"/></g><g class="bg-3"><path class="bg-4" d="M530.49,583.52c.13-.44.25-.89.38-1.34,0-.21.09-.42.12-.64a1.4,1.4,0,0,0-.79-1.56,13.19,13.19,0,0,0-1.54-.69l-.24-.12a12.57,12.57,0,0,0,1.94.51,1.37,1.37,0,0,0,1.57-.78,10.86,10.86,0,0,0,.64-1.39c.06-.15.12-.3.19-.44a11.18,11.18,0,0,0-.51,2,1.37,1.37,0,0,0,.82,1.61,11.39,11.39,0,0,0,1.56.69l.23.09c-.65-.15-1.27-.4-1.93-.49l-.28,0a1.28,1.28,0,0,0-1.25.65,6.55,6.55,0,0,0-.65,1.33c-.09.21-.15.43-.23.64Z"/></g><g class="bg-3"><path class="bg-4" d="M586.12,612.28a24.14,24.14,0,0,0-1.77-2.06,3.1,3.1,0,0,0-4.09-.66,22.8,22.8,0,0,0-2.37,1.43,17,17,0,0,0,2.24-2,3,3,0,0,0,.53-3.89,20.92,20.92,0,0,0-1.43-2.37,25.79,25.79,0,0,0,1.77,2.06,3.1,3.1,0,0,0,4.06.68,19.51,19.51,0,0,0,2.4-1.45,19.76,19.76,0,0,0-2.26,2,3,3,0,0,0-.51,3.87A24.32,24.32,0,0,0,586.12,612.28Z"/><path class="bg-4" d="M575.24,612.91l2.24-1.62Z"/><path class="bg-4" d="M587.87,603.77l2.24-1.63-2.24,1.62Z"/><path class="bg-4" d="M577.45,600.3c.46.65.93,1.29,1.39,1.93C578.38,601.59,577.91,601,577.45,600.3Z"/><path class="bg-4" d="M587.9,614.75l-1.39-1.92Z"/></g><g class="bg-3"><path class="bg-4" d="M552.21,652.81c-.13.1-.24.15-.34.24a1,1,0,0,0-.26,1.11,10.37,10.37,0,0,1,.45,1.63c.07.35.15.69.22,1-.17-.49-.32-1-.46-1.48a5.3,5.3,0,0,1-.25-1.1,1.09,1.09,0,0,0-.36-.7,1,1,0,0,0-.72-.24h-.06l0,0a1.07,1.07,0,0,0,.65-1.12A1.09,1.09,0,0,0,552.21,652.81Z"/><path class="bg-4" d="M555,652.1a15.65,15.65,0,0,1-2.69.7A14.57,14.57,0,0,1,555,652.1Z"/><path class="bg-4" d="M550.29,653.31a14.47,14.47,0,0,1-2.68.7A16.5,16.5,0,0,1,550.29,653.31Z"/><path class="bg-4" d="M551,652.08a19,19,0,0,1-.72-2.79A14.18,14.18,0,0,1,551,652.08Z"/></g><g class="bg-3"><path class="bg-4" d="M519.51,641.67a1.92,1.92,0,0,1-.53.94c-.5.61-1.06,1.15-1.59,1.73l-.08.06c.2-.34.41-.67.62-1a13.67,13.67,0,0,1,.85-1.29,1.44,1.44,0,0,1,.64-.52,2.34,2.34,0,0,1-1.18-.7c-.51-.45-1-.94-1.5-1.41l-.11-.11,1,.63a14.41,14.41,0,0,1,1.32.88,1.54,1.54,0,0,1,.5.6,1.34,1.34,0,0,1,.12-.37,4.09,4.09,0,0,1,.64-.86c.47-.51,1-1,1.44-1.53a1.13,1.13,0,0,1-.15.27c-.38.61-.74,1.23-1.15,1.82a2.86,2.86,0,0,1-.42.5.94.94,0,0,1-.39.25,2.62,2.62,0,0,1,1.29.81c.5.45,1,.93,1.48,1.4l-.47-.28c-.46-.29-.92-.57-1.37-.87a3.85,3.85,0,0,1-.75-.58A1.13,1.13,0,0,1,519.51,641.67Z"/></g><g class="bg-3"><path class="bg-4" d="M385.83,572.59c.54,1.15,1.07,2.3,1.61,3.44a15.88,15.88,0,0,0,.87,1.56,3.84,3.84,0,0,0,4.43,1.83,37.46,37.46,0,0,0,4.43-1.29c.24-.08.49-.14.69-.19a35.06,35.06,0,0,0-4.93,2.41,3.72,3.72,0,0,0-1.87,4.4,28.45,28.45,0,0,0,1.15,4c.13.41.25.83.37,1.23a32.84,32.84,0,0,0-2.43-5,3.77,3.77,0,0,0-4.56-1.89,33.69,33.69,0,0,0-4.5,1.34l-.61.23c1.61-.83,3.33-1.43,4.87-2.41l.63-.44a3.56,3.56,0,0,0,1.47-3.57,21.24,21.24,0,0,0-1-3.93c-.19-.59-.44-1.16-.66-1.73Z"/></g><g class="bg-3"><path class="bg-4" d="M309.77,596.92a64.19,64.19,0,0,0,7.33,1.14c5,.36,7.72-1.3,9.69-5.88a65.13,65.13,0,0,0,2.37-7.18,50,50,0,0,0-1.18,8c-.11,4.72,1.49,7.17,5.81,9a60.31,60.31,0,0,0,7.19,2.38,68.64,68.64,0,0,0-7.33-1.13c-4.92-.37-7.7,1.28-9.66,5.79a57,57,0,0,0-2.41,7.26,49.82,49.82,0,0,0,1.17-8.12c.1-4.61-1.54-7.12-5.81-9A66.13,66.13,0,0,0,309.77,596.92Z"/><path class="bg-4" d="M331.26,576.3l-1.77,7.35Z"/><path class="bg-4" d="M321.25,617.74c-.59,2.45-1.19,4.9-1.78,7.35.59-2.45,1.19-4.9,1.78-7.35Z"/><path class="bg-4" d="M349.05,606.42l-6.3-1.53Z"/><path class="bg-4" d="M301.67,595l6.31,1.53Z"/></g><g class="bg-3"><path class="bg-4" d="M305.43,511c.1-.44.24-.75.29-1.09a2.73,2.73,0,0,0-1.44-2.77,29.38,29.38,0,0,1-3.83-2.61c-.77-.57-1.53-1.16-2.28-1.76,1.21.73,2.4,1.49,3.58,2.27a17.47,17.47,0,0,1,2.49,1.85,2.85,2.85,0,0,0,2,.82,2.78,2.78,0,0,0,1.93-.78l.14-.11.07,0a2.94,2.94,0,0,0,.65,3.48A3,3,0,0,0,305.43,511Z"/><path class="bg-4" d="M300.93,517.43a41.31,41.31,0,0,1,4.34-6.23A41.09,41.09,0,0,1,300.93,517.43Z"/><path class="bg-4" d="M308.52,506.57a40.51,40.51,0,0,1,4.34-6.22A43,43,0,0,1,308.52,506.57Z"/><path class="bg-4" d="M309.18,510.45a48.35,48.35,0,0,1,6.44,4.51C314.38,514.24,309.85,511.41,309.18,510.45Z"/></g><g class="bg-3"><path class="bg-4" d="M403.18,453a5.25,5.25,0,0,1-.58-2.9c0-2.14.17-4.28.25-6.41a.66.66,0,0,1,.06-.27c.17,1.06.34,2.13.5,3.19a39.3,39.3,0,0,1,.52,4.19,3.88,3.88,0,0,1-.41,2.22,6.33,6.33,0,0,1,3.68-.63c1.88,0,3.76.17,5.64.25a3,3,0,0,1,.43.05c-1.14.17-2.21.35-3.27.5a38.83,38.83,0,0,1-4.3.53,4.39,4.39,0,0,1-2.11-.36,3.62,3.62,0,0,1,.42,1,11.09,11.09,0,0,1,.18,2.93c-.07,1.89-.18,3.77-.27,5.73a2.79,2.79,0,0,1-.17-.84c-.28-1.93-.65-3.85-.83-5.8a9,9,0,0,1,0-1.8,2.72,2.72,0,0,1,.38-1.21,7.08,7.08,0,0,1-4.12.61c-1.85-.05-3.7-.16-5.55-.29l1.47-.23c1.46-.22,2.92-.45,4.39-.65a11.14,11.14,0,0,1,2.58-.12A3.16,3.16,0,0,1,403.18,453Z"/></g><g class="bg-3"><path class="bg-4" d="M400.14,691.11l-1.77,1.22a9.6,9.6,0,0,0-.79.64,2.16,2.16,0,0,0-.6,2.64,20.5,20.5,0,0,0,1.14,2.36c.07.12.12.26.17.36a19.07,19.07,0,0,0-1.81-2.52,2.11,2.11,0,0,0-2.64-.63,17.45,17.45,0,0,0-2.14,1c-.21.12-.44.22-.65.33a19.89,19.89,0,0,0,2.56-1.83,2.14,2.14,0,0,0,.62-2.73,21,21,0,0,0-1.17-2.38l-.19-.32c.62.82,1.12,1.72,1.81,2.49l.3.31a2,2,0,0,0,2.13.48,11.31,11.31,0,0,0,2.1-.94c.31-.17.61-.36.91-.54Z"/></g><g class="bg-3"><path class="bg-4" d="M379.34,651a39.73,39.73,0,0,0,.06,4.19c.27,2.81,1.46,4.19,4.21,4.86a37,37,0,0,0,4.23.64,28.86,28.86,0,0,0-4.6.1c-2.65.39-3.87,1.51-4.5,4.1a33.73,33.73,0,0,0-.65,4.24,37.44,37.44,0,0,0-.06-4.2c-.26-2.78-1.45-4.17-4.15-4.84a32.48,32.48,0,0,0-4.28-.66,28.27,28.27,0,0,0,4.64-.11c2.59-.39,3.83-1.54,4.45-4.1A38.23,38.23,0,0,0,379.34,651Z"/><path class="bg-4" d="M392.9,661l-4.28-.29Z"/><path class="bg-4" d="M368.81,659.33l-4.28-.3,4.28.3Z"/><path class="bg-4" d="M377.77,673.78c.08-1.22.16-2.45.25-3.67C377.93,671.33,377.85,672.56,377.77,673.78Z"/><path class="bg-4" d="M379.67,646.23c-.08,1.23-.17,2.45-.25,3.67C379.5,648.68,379.59,647.46,379.67,646.23Z"/></g><g class="bg-3"><path class="bg-4" d="M426.9,640.38c.26,0,.44.06.64.06a1.57,1.57,0,0,0,1.41-1.07A16,16,0,0,1,430,637c.25-.49.5-1,.77-1.45-.29.75-.61,1.49-.93,2.22a8.83,8.83,0,0,1-.8,1.56,1.62,1.62,0,0,0-.27,1.18,1.59,1.59,0,0,0,.62,1,.23.23,0,0,1,.07.07v0a1.66,1.66,0,0,0-1.88.69A1.69,1.69,0,0,0,426.9,640.38Z"/><path class="bg-4" d="M422.9,638.47a23.76,23.76,0,0,1,3.88,1.84A23.33,23.33,0,0,1,422.9,638.47Z"/><path class="bg-4" d="M429.68,641.68a23,23,0,0,1,3.88,1.84A24.16,24.16,0,0,1,429.68,641.68Z"/><path class="bg-4" d="M427.57,642.42a27.32,27.32,0,0,1-1.9,4A22.32,22.32,0,0,1,427.57,642.42Z"/></g><g class="bg-3"><path class="bg-4" d="M454.72,686.06a3,3,0,0,1,1.56-.6c1.2-.22,2.41-.31,3.61-.46H460l-1.73.58a23.16,23.16,0,0,1-2.29.69,2.15,2.15,0,0,1-1.28,0,3.61,3.61,0,0,1,.7,2c.17,1,.26,2.11.39,3.17,0,.07,0,.13,0,.25-.21-.62-.41-1.2-.6-1.78a24.34,24.34,0,0,1-.7-2.35,2.52,2.52,0,0,1,0-1.22,2,2,0,0,1-.5.33,6.07,6.07,0,0,1-1.62.38c-1.06.14-2.13.26-3.23.39a1.58,1.58,0,0,1,.45-.17c1.06-.34,2.09-.73,3.16-1a5.63,5.63,0,0,1,1-.19,1.59,1.59,0,0,1,.71.1,4,4,0,0,1-.73-2.24c-.15-1-.26-2.08-.37-3.13l.27.8c.26.79.53,1.59.78,2.39a6.41,6.41,0,0,1,.31,1.43A1.89,1.89,0,0,1,454.72,686.06Z"/></g><g class="bg-3"><path class="bg-4" d="M295.73,693.74l-2.29-.89a8.67,8.67,0,0,0-1.1-.33,2.48,2.48,0,0,0-2.89,1.12,23.7,23.7,0,0,0-1.48,2.59l-.24.4A22,22,0,0,0,289,693.3a2.41,2.41,0,0,0-1.1-2.89,17.49,17.49,0,0,0-2.33-1.36c-.25-.13-.49-.28-.73-.41a21.9,21.9,0,0,0,3.37,1.24,2.44,2.44,0,0,0,3-1.17,23.41,23.41,0,0,0,1.49-2.63l.19-.38c-.38,1.11-.92,2.16-1.19,3.3a4.1,4.1,0,0,0-.1.48,2.3,2.3,0,0,0,.91,2.33,13.84,13.84,0,0,0,2.24,1.37c.35.19.72.34,1.08.51Z"/></g><g class="bg-3"><path class="bg-4" d="M320.28,648.37a43.43,43.43,0,0,0-3.92,2.74c-2.48,2.06-3,4.07-1.88,7.08a40.61,40.61,0,0,0,2.1,4.41,32.17,32.17,0,0,0-3-4.28c-2.06-2.24-3.91-2.67-6.76-1.61a38.6,38.6,0,0,0-4.41,2.11,46.68,46.68,0,0,0,3.92-2.75c2.45-2,3-4.05,1.91-7a38,38,0,0,0-2.13-4.46,32.32,32.32,0,0,0,3.09,4.31c2,2.2,3.9,2.63,6.71,1.57A41.38,41.38,0,0,0,320.28,648.37Z"/><path class="bg-4" d="M319.49,667.59,317,663.37Z"/><path class="bg-4" d="M305.62,643.81l-2.46-4.23,2.46,4.22Z"/><path class="bg-4" d="M297.73,661.52l3.62-2.11Z"/><path class="bg-4" d="M324.93,645.66l-3.62,2.11Z"/></g><g class="bg-3"><path class="bg-4" d="M360.74,686.45c.15.25.22.46.35.63a1.76,1.76,0,0,0,1.91.65,19.76,19.76,0,0,1,2.95-.5l1.85-.2c-.89.21-1.79.38-2.68.55a10.32,10.32,0,0,1-2,.25,1.81,1.81,0,0,0-1.28.5,1.78,1.78,0,0,0-.55,1.23.43.43,0,0,0,0,.11l0,0a1.89,1.89,0,0,0-1.86-1.33A1.94,1.94,0,0,0,360.74,686.45Z"/><path class="bg-4" d="M360,681.45a27.39,27.39,0,0,1,.76,4.84A26.37,26.37,0,0,1,360,681.45Z"/><path class="bg-4" d="M361.29,689.9a26.5,26.5,0,0,1,.76,4.84A27.1,27.1,0,0,1,361.29,689.9Z"/><path class="bg-4" d="M359.25,688.39a30.47,30.47,0,0,1-5,.78A25.9,25.9,0,0,1,359.25,688.39Z"/></g><g class="bg-3"><path class="bg-4" d="M335.49,742a3.39,3.39,0,0,1,1.57,1.09c1,1,1.83,2.07,2.75,3.1a.38.38,0,0,1,.09.15l-1.66-1.26a27.1,27.1,0,0,1-2.12-1.73,2.42,2.42,0,0,1-.8-1.21,4.13,4.13,0,0,1-1.44,1.94c-.88.84-1.82,1.6-2.73,2.41l-.23.17,1.3-1.7a24.62,24.62,0,0,1,1.77-2.17,2.87,2.87,0,0,1,1.15-.78,2.47,2.47,0,0,1-.64-.27,7.05,7.05,0,0,1-1.39-1.28c-.82-.91-1.61-1.84-2.44-2.79a1.78,1.78,0,0,1,.45.31c1,.78,2,1.51,3,2.33a5.92,5.92,0,0,1,.83.83,1.67,1.67,0,0,1,.36.73,4.65,4.65,0,0,1,1.65-2.13c.88-.8,1.79-1.58,2.71-2.35l-.57.77c-.59.76-1.17,1.52-1.76,2.27a7.68,7.68,0,0,1-1.15,1.2A2.05,2.05,0,0,1,335.49,742Z"/></g><g class="bg-3"><path class="bg-4" d="M219.78,612.92c.09-.46.18-.91.28-1.36,0-.22.06-.43.08-.65a1.42,1.42,0,0,0-.91-1.51,15,15,0,0,0-1.58-.58l-.24-.1a11.62,11.62,0,0,0,2,.37,1.36,1.36,0,0,0,1.51-.89,10.25,10.25,0,0,0,.54-1.43l.15-.44a13.18,13.18,0,0,0-.37,2,1.39,1.39,0,0,0,.93,1.55,11.61,11.61,0,0,0,1.62.59l.23.06c-.66-.1-1.3-.3-2-.35h-.28a1.32,1.32,0,0,0-1.21.73,7.78,7.78,0,0,0-.55,1.38q-.11.33-.18.66Z"/></g><g class="bg-3"><path class="bg-4" d="M277.27,637.74a21.61,21.61,0,0,0-1.91-1.93,3.1,3.1,0,0,0-4.13-.38A22.1,22.1,0,0,0,269,637a18.21,18.21,0,0,0,2.1-2.11,3,3,0,0,0,.26-3.92,24.21,24.21,0,0,0-1.59-2.27,24.44,24.44,0,0,0,1.9,1.93,3.11,3.11,0,0,0,4.11.4,20.07,20.07,0,0,0,2.28-1.61,17.87,17.87,0,0,0-2.11,2.14,3,3,0,0,0-.24,3.89A24.21,24.21,0,0,0,277.27,637.74Z"/><path class="bg-4" d="M266.46,639.12l2.12-1.78Z"/><path class="bg-4" d="M278.43,629.12l2.12-1.78c-.71.59-1.42,1.18-2.12,1.78Z"/><path class="bg-4" d="M267.79,626.39c.5.61,1,1.21,1.52,1.82C268.8,627.6,268.29,627,267.79,626.39Z"/><path class="bg-4" d="M279.22,640.08l-1.52-1.83Z"/></g><g class="bg-3"><path class="bg-4" d="M246.27,680.52c-.13.11-.24.17-.33.26a1,1,0,0,0-.18,1.13,10.12,10.12,0,0,1,.56,1.6c.1.34.2.68.29,1-.2-.48-.38-1-.56-1.45a6,6,0,0,1-.33-1.09,1,1,0,0,0-1.14-.86h-.06l0,0a1.07,1.07,0,0,0,.57-1.16A1.09,1.09,0,0,0,246.27,680.52Z"/><path class="bg-4" d="M249,679.62a15.08,15.08,0,0,1-2.63.89A15.66,15.66,0,0,1,249,679.62Z"/><path class="bg-4" d="M244.39,681.16a14.26,14.26,0,0,1-2.63.88A16.24,16.24,0,0,1,244.39,681.16Z"/><path class="bg-4" d="M245,679.88a17.49,17.49,0,0,1-.91-2.73A14.33,14.33,0,0,1,245,679.88Z"/></g><g class="bg-3"><path class="bg-4" d="M212.87,671.69a2,2,0,0,1-.46,1c-.46.63-1,1.22-1.47,1.83l-.08.06c.18-.35.36-.7.55-1a13.74,13.74,0,0,1,.76-1.35,1.36,1.36,0,0,1,.6-.56,2.41,2.41,0,0,1-1.22-.62c-.55-.41-1.07-.87-1.6-1.3l-.12-.11,1.08.56a15.65,15.65,0,0,1,1.37.79,1.55,1.55,0,0,1,.55.56,1.18,1.18,0,0,1,.09-.38,4.07,4.07,0,0,1,.58-.9c.43-.54.87-1.07,1.33-1.62a1.46,1.46,0,0,1-.13.28c-.34.63-.65,1.27-1,1.89a4,4,0,0,1-.39.53,1,1,0,0,1-.37.28,2.61,2.61,0,0,1,1.34.71c.54.42,1.06.86,1.57,1.3l-.48-.25-1.43-.77a3.77,3.77,0,0,1-.79-.53A1.23,1.23,0,0,1,212.87,671.69Z"/></g><g class="bg-3"><path class="bg-4" d="M665.38,215l1,2.73A9.9,9.9,0,0,0,667,219a2.94,2.94,0,0,0,3.29,1.65,27.53,27.53,0,0,0,3.47-.76l.54-.1a26.22,26.22,0,0,0-3.91,1.58,2.85,2.85,0,0,0-1.67,3.27,21.25,21.25,0,0,0,.66,3.15c.09.32.15.65.23,1a27,27,0,0,0-1.6-4,2.89,2.89,0,0,0-3.4-1.69,26.52,26.52,0,0,0-3.51.78l-.48.14c1.27-.55,2.63-.91,3.86-1.58l.5-.3a2.75,2.75,0,0,0,1.32-2.66,16,16,0,0,0-.58-3.07c-.12-.46-.27-.91-.41-1.36Z"/></g><g class="bg-3"><path class="bg-4" d="M613.46,238.56a35.16,35.16,0,0,0,3.77.85c2.56.37,4.06-.39,5.24-2.7a31.89,31.89,0,0,0,1.49-3.64,26.38,26.38,0,0,0-.9,4.13,4.31,4.31,0,0,0,2.69,4.9,30.25,30.25,0,0,0,3.64,1.5,36.32,36.32,0,0,0-3.76-.85,4.43,4.43,0,0,0-5.23,2.66,30.23,30.23,0,0,0-1.51,3.68,24.91,24.91,0,0,0,.9-4.18,4.31,4.31,0,0,0-2.69-4.85A34.79,34.79,0,0,0,613.46,238.56Z"/><path class="bg-4" d="M625.37,228.63c-.4,1.25-.79,2.5-1.19,3.75C624.58,231.13,625,229.88,625.37,228.63Z"/><path class="bg-4" d="M618.67,249.78c-.4,1.25-.79,2.5-1.19,3.76.4-1.25.79-2.5,1.19-3.76Z"/><path class="bg-4" d="M633.52,244.91l-3.22-1Z"/><path class="bg-4" d="M609.33,237.25l3.22,1Z"/></g><g class="bg-3"><path class="bg-4" d="M607.07,163.56c.1-.33.22-.57.28-.82a2.1,2.1,0,0,0-1-2.2,23.67,23.67,0,0,1-2.79-2.2l-1.66-1.47c.9.62,1.77,1.27,2.63,1.93a12.09,12.09,0,0,1,1.8,1.54,2.23,2.23,0,0,0,1.47.74,2.19,2.19,0,0,0,1.53-.5l.11-.07,0,0a2.24,2.24,0,0,0,.31,2.69A2.29,2.29,0,0,0,607.07,163.56Z"/><path class="bg-4" d="M603.28,168.23a31.35,31.35,0,0,1,3.66-4.54A32.47,32.47,0,0,1,603.28,168.23Z"/><path class="bg-4" d="M609.67,160.31a31.82,31.82,0,0,1,3.66-4.53A32.53,32.53,0,0,1,609.67,160.31Z"/><path class="bg-4" d="M610,163.32a37.27,37.27,0,0,1,4.69,3.8C613.75,166.5,610.44,164.09,610,163.32Z"/></g><g class="bg-3"><path class="bg-4" d="M685.07,124.35a4,4,0,0,1-.29-2.25c.09-1.65.36-3.27.53-4.9a.58.58,0,0,1,.07-.21l.21,2.48a31.81,31.81,0,0,1,.17,3.24,3,3,0,0,1-.43,1.68,4.75,4.75,0,0,1,2.85-.29c1.44.11,2.87.33,4.31.49l.33.06-2.54.21A30.64,30.64,0,0,1,687,125a3.32,3.32,0,0,1-1.6-.39,2.73,2.73,0,0,1,.27.77,8.55,8.55,0,0,1,0,2.26c-.15,1.44-.33,2.88-.51,4.37a1.93,1.93,0,0,1-.08-.65c-.12-1.49-.3-3-.33-4.49a6.39,6.39,0,0,1,.07-1.38,2.13,2.13,0,0,1,.35-.91,5.37,5.37,0,0,1-3.19.25c-1.41-.13-2.82-.32-4.24-.52l1.14-.1,3.4-.26a8.73,8.73,0,0,1,2,.05A2.52,2.52,0,0,1,685.07,124.35Z"/></g><g class="bg-3"><path class="bg-4" d="M670,306.61l-1.42.84a7.33,7.33,0,0,0-.64.45,1.68,1.68,0,0,0-.61,2,17,17,0,0,0,.75,1.87c0,.1.08.2.12.29a14.85,14.85,0,0,0-1.26-2,1.62,1.62,0,0,0-2-.63,13.49,13.49,0,0,0-1.69.67l-.51.22a15.52,15.52,0,0,0,2-1.27,1.63,1.63,0,0,0,.62-2.05,14.12,14.12,0,0,0-.77-1.89l-.12-.26c.43.66.76,1.38,1.25,2l.21.25a1.53,1.53,0,0,0,1.61.48,8.93,8.93,0,0,0,1.66-.61c.25-.11.48-.24.72-.36Z"/></g><g class="bg-3"><path class="bg-4" d="M656.22,274.72a29.32,29.32,0,0,0-.18,3.22,3.71,3.71,0,0,0,3,3.95,28,28,0,0,0,3.21.72,21.92,21.92,0,0,0-3.53-.17,3.6,3.6,0,0,0-3.66,2.9,26.37,26.37,0,0,0-.73,3.21,29,29,0,0,0,.18-3.22,3.69,3.69,0,0,0-2.92-3.93,24.94,24.94,0,0,0-3.25-.73,21.42,21.42,0,0,0,3.57.16,3.62,3.62,0,0,0,3.62-2.9A28.39,28.39,0,0,0,656.22,274.72Z"/><path class="bg-4" d="M666.07,283.15l-3.26-.46Z"/><path class="bg-4" d="M647.7,280.58l-3.26-.45,3.26.45Z"/><path class="bg-4" d="M653.79,292.14l.39-2.8Z"/><path class="bg-4" d="M656.72,271.13l-.39,2.8Z"/></g><g class="bg-3"><path class="bg-4" d="M693.22,269.17c.2,0,.34.07.49.08a1.18,1.18,0,0,0,1.14-.74,11.62,11.62,0,0,1,1-1.77c.22-.36.44-.71.67-1.06-.27.55-.55,1.1-.83,1.64a6.5,6.5,0,0,1-.7,1.16,1.31,1.31,0,0,0-.27.89,1.24,1.24,0,0,0,.42.8l.06.06v0a1.27,1.27,0,0,0-1.48.43A1.3,1.3,0,0,0,693.22,269.17Z"/><path class="bg-4" d="M690.26,267.5a17.66,17.66,0,0,1,2.88,1.61A17.66,17.66,0,0,1,690.26,267.5Z"/><path class="bg-4" d="M695.28,270.32a17.25,17.25,0,0,1,2.88,1.61A18.09,18.09,0,0,1,695.28,270.32Z"/><path class="bg-4" d="M693.63,270.77a21.22,21.22,0,0,1-1.67,3A17.54,17.54,0,0,1,693.63,270.77Z"/></g><g class="bg-3"><path class="bg-4" d="M712.1,305.66a2.34,2.34,0,0,1,1.23-.38c.92-.1,1.86-.1,2.78-.16a.25.25,0,0,1,.12,0l-1.36.35a17.83,17.83,0,0,1-1.79.4,1.66,1.66,0,0,1-1-.08,2.76,2.76,0,0,1,.43,1.57c.08.81.09,1.63.14,2.45a1.49,1.49,0,0,1,0,.19c-.12-.49-.24-.94-.36-1.4a18.84,18.84,0,0,1-.41-1.84,1.85,1.85,0,0,1,.07-.93,1.69,1.69,0,0,1-.41.23,4.87,4.87,0,0,1-1.26.2l-2.49.13a1.4,1.4,0,0,1,.35-.11c.83-.21,1.64-.45,2.48-.61a4.05,4.05,0,0,1,.78-.09,1.31,1.31,0,0,1,.54.11,3,3,0,0,1-.44-1.75c-.06-.81-.09-1.61-.11-2.42.05.21.11.41.16.62.16.63.32,1.25.47,1.88a4.58,4.58,0,0,1,.16,1.11A1.52,1.52,0,0,1,712.1,305.66Z"/></g><g class="bg-3"><path class="bg-4" d="M589.87,303l-1.71-.8a8.36,8.36,0,0,0-.83-.32,1.91,1.91,0,0,0-2.27.71,19.64,19.64,0,0,0-1.27,1.9c-.07.11-.15.21-.21.3a18,18,0,0,0,1.12-2.49,1.85,1.85,0,0,0-.69-2.27,13.36,13.36,0,0,0-1.72-1.17l-.53-.35a17.18,17.18,0,0,0,2.51,1.13,1.89,1.89,0,0,0,2.34-.73,16.24,16.24,0,0,0,1.28-1.94l.17-.28c-.35.83-.82,1.6-1.09,2.46,0,.12-.07.25-.1.37a1.77,1.77,0,0,0,.57,1.83,10.41,10.41,0,0,0,1.64,1.17c.26.16.54.3.81.45Z"/></g><g class="bg-3"><path class="bg-4" d="M611.1,269.59a34.49,34.49,0,0,0-3.15,1.89,4.22,4.22,0,0,0-1.82,5.33,31,31,0,0,0,1.38,3.49,23.85,23.85,0,0,0-2.11-3.44,4.11,4.11,0,0,0-5.08-1.6,29.7,29.7,0,0,0-3.5,1.38,34.7,34.7,0,0,0,3.15-1.9,4.21,4.21,0,0,0,1.84-5.28,29.22,29.22,0,0,0-1.39-3.53,24.85,24.85,0,0,0,2.13,3.47,4.12,4.12,0,0,0,5.06,1.56A32.62,32.62,0,0,0,611.1,269.59Z"/><path class="bg-4" d="M609.47,284.28c-.55-1.12-1.1-2.25-1.66-3.37C608.37,282,608.92,283.16,609.47,284.28Z"/><path class="bg-4" d="M600.11,265.31l-1.66-3.37,1.66,3.37Z"/><path class="bg-4" d="M593.12,278.46,596,277Z"/><path class="bg-4" d="M614.81,267.76l-2.88,1.43Z"/></g><g class="bg-3"><path class="bg-4" d="M640.07,300.93c.1.2.15.37.23.51a1.37,1.37,0,0,0,1.43.6,14.69,14.69,0,0,1,2.29-.23l1.43-.05c-.69.11-1.39.19-2.09.27a7.86,7.86,0,0,1-1.53.09,1.44,1.44,0,0,0-1,.31,1.38,1.38,0,0,0-.49.92.19.19,0,0,0,0,.08h0a1.45,1.45,0,0,0-1.35-1.12A1.49,1.49,0,0,0,640.07,300.93Z"/><path class="bg-4" d="M639.74,297.06a19.73,19.73,0,0,1,.33,3.75A20.43,20.43,0,0,1,639.74,297.06Z"/><path class="bg-4" d="M640.31,303.61a20.42,20.42,0,0,1,.32,3.75A20.49,20.49,0,0,1,640.31,303.61Z"/><path class="bg-4" d="M638.82,302.34a23,23,0,0,1-3.89.33A19.84,19.84,0,0,1,638.82,302.34Z"/></g><g class="bg-3"><path class="bg-4" d="M617.75,342.13a2.57,2.57,0,0,1,1.14.92c.69.81,1.3,1.68,2,2.52l.06.12-1.21-1.05c-.52-.47-1.05-.92-1.53-1.44a1.88,1.88,0,0,1-.55-1,3.12,3.12,0,0,1-1.2,1.41c-.72.59-1.48,1.13-2.22,1.7l-.19.12,1.09-1.24c.48-.53.94-1.08,1.47-1.56a2.14,2.14,0,0,1,.92-.54,2.07,2.07,0,0,1-.47-.24,5,5,0,0,1-1-1.06c-.58-.74-1.14-1.49-1.72-2.26a1.27,1.27,0,0,1,.33.26c.72.65,1.47,1.26,2.16,1.94a4.8,4.8,0,0,1,.59.68,1.58,1.58,0,0,1,.24.58,3.53,3.53,0,0,1,1.37-1.54c.72-.57,1.46-1.11,2.21-1.66-.16.19-.32.38-.49.56-.48.55-1,1.1-1.46,1.64a5.61,5.61,0,0,1-1,.87A1.65,1.65,0,0,1,617.75,342.13Z"/></g><g class="bg-3"><path class="bg-4" d="M659.49,11l.37.59c.06.09.13.17.19.25a.7.7,0,0,0,.85.23,7.27,7.27,0,0,0,.76-.33l.12-.06a7.45,7.45,0,0,0-.83.55.68.68,0,0,0-.23.84,4.76,4.76,0,0,0,.3.7l.09.21a6.38,6.38,0,0,0-.55-.84.69.69,0,0,0-.87-.23,7.67,7.67,0,0,0-.78.34l-.1.06c.27-.19.57-.34.82-.55l.1-.09a.64.64,0,0,0,.18-.68,3.65,3.65,0,0,0-.27-.69l-.16-.29Z"/></g><g class="bg-3"><path class="bg-4" d="M578.71,259.14a18.13,18.13,0,0,0-1.35-1.58,2.4,2.4,0,0,0-3.15-.51,19.17,19.17,0,0,0-1.81,1.1,14.17,14.17,0,0,0,1.72-1.5,2.34,2.34,0,0,0,.41-3,17.86,17.86,0,0,0-1.1-1.82,19.74,19.74,0,0,0,1.35,1.58,2.4,2.4,0,0,0,3.13.52,16.26,16.26,0,0,0,1.84-1.11,13.13,13.13,0,0,0-1.74,1.52,2.33,2.33,0,0,0-.39,3A18.62,18.62,0,0,0,578.71,259.14Z"/><path class="bg-4" d="M570.36,259.63l1.72-1.25Z"/><path class="bg-4" d="M580.06,252.6l1.73-1.24-1.73,1.24Z"/><path class="bg-4" d="M572.06,249.94c.35.5.71,1,1.07,1.48C572.77,250.93,572.41,250.44,572.06,249.94Z"/><path class="bg-4" d="M580.09,261c-.36-.49-.72-1-1.07-1.48C579.37,260.06,579.73,260.55,580.09,261Z"/></g><g class="bg-3"><path class="bg-4" d="M552.67,290.27c-.1.08-.19.12-.26.18a.79.79,0,0,0-.2.86,8.9,8.9,0,0,1,.35,1.25c.05.27.11.53.16.8-.12-.38-.24-.76-.35-1.14a4.17,4.17,0,0,1-.19-.85.85.85,0,0,0-.27-.54.8.8,0,0,0-.56-.18h-.05v0a.81.81,0,0,0,.5-.86A.82.82,0,0,0,552.67,290.27Z"/><path class="bg-4" d="M554.8,289.73a11.33,11.33,0,0,1-2.06.53A11.33,11.33,0,0,1,554.8,289.73Z"/><path class="bg-4" d="M551.2,290.66a12.25,12.25,0,0,1-2.06.54A11.36,11.36,0,0,1,551.2,290.66Z"/><path class="bg-4" d="M551.77,289.71a13.18,13.18,0,0,1-.55-2.14A11.44,11.44,0,0,1,551.77,289.71Z"/></g><g class="bg-3"><path class="bg-4" d="M527.55,281.72a1.43,1.43,0,0,1-.4.72c-.39.46-.82.88-1.23,1.32a.1.1,0,0,1-.06.05l.48-.77a11.26,11.26,0,0,1,.65-1,1,1,0,0,1,.5-.4,1.84,1.84,0,0,1-.91-.54c-.4-.35-.77-.72-1.15-1.08l-.09-.09.79.49a10,10,0,0,1,1,.67,1.3,1.3,0,0,1,.38.46,1.15,1.15,0,0,1,.09-.28,2.94,2.94,0,0,1,.5-.66l1.1-1.18a1.34,1.34,0,0,1-.11.21c-.3.47-.57,1-.89,1.39a2,2,0,0,1-.32.4.77.77,0,0,1-.3.19,2,2,0,0,1,1,.62c.39.34.76.71,1.14,1.07l-.36-.22c-.35-.22-.71-.43-1.06-.66a3.47,3.47,0,0,1-.57-.44A1.26,1.26,0,0,1,527.55,281.72Z"/></g><g class="bg-3"><path class="bg-4" d="M691,86c.08.81.15,1.63.24,2.44a11.34,11.34,0,0,0,.2,1.14,2.49,2.49,0,0,0,2.31,2.07,26.92,26.92,0,0,0,3,.16c.16,0,.33,0,.46,0a22.22,22.22,0,0,0-3.52.41,2.41,2.41,0,0,0-2.09,2.29,18.65,18.65,0,0,0-.16,2.7c0,.28,0,.56,0,.83a21.58,21.58,0,0,0-.41-3.57,2.43,2.43,0,0,0-2.38-2.12,20.44,20.44,0,0,0-3-.15h-.42c1.16-.17,2.34-.16,3.49-.43l.47-.13a2.29,2.29,0,0,0,1.66-1.86,12.92,12.92,0,0,0,.22-2.63c0-.39,0-.79,0-1.19Z"/></g><g class="bg-3"><path class="bg-4" d="M643.63,93.55a31.46,31.46,0,0,0,2.86,1.54,3.72,3.72,0,0,0,4.86-1,27.54,27.54,0,0,0,2-2.62,21.49,21.49,0,0,0-1.66,3.15,3.64,3.64,0,0,0,1.09,4.58,27.4,27.4,0,0,0,2.62,2,27,27,0,0,0-2.86-1.53,3.72,3.72,0,0,0-4.84,1,26.69,26.69,0,0,0-2,2.65,22,22,0,0,0,1.66-3.19,3.63,3.63,0,0,0-1.1-4.54A28.71,28.71,0,0,0,643.63,93.55Z"/><path class="bg-4" d="M655.51,88.15l-1.8,2.78Z"/><path class="bg-4" d="M645.35,103.82l-1.8,2.78,1.8-2.78Z"/><path class="bg-4" d="M658.49,103.18l-2.39-1.55Z"/><path class="bg-4" d="M640.57,91.57,643,93.11Z"/></g><g class="bg-3"><path class="bg-4" d="M563.71,221c-.45.07-.79.07-1.12.15a2.75,2.75,0,0,0-2,2.4,29.22,29.22,0,0,1-.92,4.54c-.24.93-.49,1.86-.74,2.78.19-1.4.44-2.79.71-4.18a16,16,0,0,1,.74-3,2.88,2.88,0,0,0,0-2.14,2.77,2.77,0,0,0-1.47-1.48l-.15-.09v-.08a2.92,2.92,0,0,0,3-1.94A3,3,0,0,0,563.71,221Z"/><path class="bg-4" d="M571.36,222.71a40.7,40.7,0,0,1-7.42-1.6A41.94,41.94,0,0,1,571.36,222.71Z"/><path class="bg-4" d="M558.41,219.91a40.78,40.78,0,0,1-7.41-1.6A41,41,0,0,1,558.41,219.91Z"/><path class="bg-4" d="M561.74,217.8a48,48,0,0,1,1.66-7.68C563.22,211.54,562.36,216.8,561.74,217.8Z"/></g><g class="bg-3"><path class="bg-4" d="M727.22,16.82a3.5,3.5,0,0,1,.26-1.89c.45-1.31,1-2.57,1.53-3.86a.65.65,0,0,1,.1-.15c-.13.69-.25,1.37-.38,2.06a24.29,24.29,0,0,1-.59,2.66,2.47,2.47,0,0,1-.72,1.27,4,4,0,0,1,2.38.41c1.15.41,2.26.91,3.39,1.36a1.34,1.34,0,0,1,.25.12l-2.1-.39c-.92-.18-1.84-.33-2.74-.6a2.81,2.81,0,0,1-1.21-.68,2.77,2.77,0,0,1,.05.69,7.23,7.23,0,0,1-.52,1.83c-.45,1.13-.92,2.26-1.39,3.43a1.77,1.77,0,0,1,.07-.54c.24-1.24.43-2.49.74-3.72a5.9,5.9,0,0,1,.36-1.1,1.76,1.76,0,0,1,.5-.66,4.64,4.64,0,0,1-2.65-.51c-1.12-.43-2.22-.89-3.33-1.37l.95.17,2.82.55a7.38,7.38,0,0,1,1.6.48A2.24,2.24,0,0,1,727.22,16.82Z"/></g><g class="bg-3"><path class="bg-4" d="M674.35,161.4l-1.35.36a6.32,6.32,0,0,0-.61.22,1.42,1.42,0,0,0-.94,1.49,13.74,13.74,0,0,0,.2,1.68c0,.09,0,.18,0,.26a12.12,12.12,0,0,0-.56-1.93,1.38,1.38,0,0,0-1.48-.95,11.22,11.22,0,0,0-1.52.17l-.47.06a12.85,12.85,0,0,0,2-.57,1.39,1.39,0,0,0,1-1.53,12.29,12.29,0,0,0-.21-1.71c0-.08,0-.15,0-.23.2.63.31,1.29.57,1.9,0,.09.07.17.11.26a1.31,1.31,0,0,0,1.2.75,7.5,7.5,0,0,0,1.49-.13c.22,0,.44-.09.66-.13Z"/></g><g class="bg-3"><path class="bg-4" d="M670.27,132.44a25.69,25.69,0,0,0-.87,2.57,3.13,3.13,0,0,0,1.53,3.87,23.63,23.63,0,0,0,2.44,1.3,17.08,17.08,0,0,0-2.83-.93,3,3,0,0,0-3.62,1.54,21.75,21.75,0,0,0-1.3,2.45,25.13,25.13,0,0,0,.86-2.58,3.1,3.1,0,0,0-1.49-3.84,20.87,20.87,0,0,0-2.47-1.32,18.7,18.7,0,0,0,2.85.93,3,3,0,0,0,3.59-1.55A22.7,22.7,0,0,0,670.27,132.44Z"/><path class="bg-4" d="M676.38,141.47l-2.54-1.09Z"/><path class="bg-4" d="M662.05,135.3l-2.55-1.1,2.54,1.1Z"/><path class="bg-4" d="M664.41,146c.32-.73.63-1.45.94-2.18C665,144.58,664.73,145.3,664.41,146Z"/><path class="bg-4" d="M671.48,129.64c-.32.73-.63,1.45-.94,2.18C670.85,131.09,671.16,130.37,671.48,129.64Z"/></g><g class="bg-3"><path class="bg-4" d="M701.54,136.19c.15.06.26.13.38.17A1,1,0,0,0,703,136a10.36,10.36,0,0,1,1.17-1.22l.78-.71c-.34.39-.69.77-1,1.15a6.7,6.7,0,0,1-.82.78,1,1,0,0,0-.42.66,1,1,0,0,0,.16.75l0,.06v0a1.07,1.07,0,0,0-1.3,0A1.08,1.08,0,0,0,701.54,136.19Z"/><path class="bg-4" d="M699.51,134.17a14.52,14.52,0,0,1,2,2A15.77,15.77,0,0,1,699.51,134.17Z"/><path class="bg-4" d="M703,137.58a14.52,14.52,0,0,1,2,1.95A15.78,15.78,0,0,1,703,137.58Z"/><path class="bg-4" d="M701.51,137.57a16.3,16.3,0,0,1-2,2.05A15.71,15.71,0,0,1,701.51,137.57Z"/></g><g class="bg-3"><path class="bg-4" d="M708.72,170a1.89,1.89,0,0,1,1.08,0c.78.13,1.53.33,2.3.49l.09,0-1.18,0c-.51,0-1,0-1.54-.07a1.41,1.41,0,0,1-.78-.29,2.37,2.37,0,0,1,0,1.37c-.12.68-.29,1.35-.44,2l0,.16c0-.43,0-.82,0-1.22s0-1.06.07-1.58a1.6,1.6,0,0,1,.26-.74,1.31,1.31,0,0,1-.38.09,3.79,3.79,0,0,1-1.06-.12l-2-.45a1.09,1.09,0,0,1,.31,0c.71,0,1.43,0,2.14.06a3.52,3.52,0,0,1,.65.1,1,1,0,0,1,.42.21,2.62,2.62,0,0,1,0-1.52c.13-.67.29-1.33.45-2,0,.18,0,.36,0,.54l0,1.63a4.25,4.25,0,0,1-.12.94A1.18,1.18,0,0,1,708.72,170Z"/></g><g class="bg-3"><path class="bg-4" d="M610.1,140.63l-1.21-1a6.61,6.61,0,0,0-.6-.44,1.61,1.61,0,0,0-2,.07,17.59,17.59,0,0,0-1.46,1.26l-.23.19a14,14,0,0,0,1.46-1.77,1.56,1.56,0,0,0,0-2,12.11,12.11,0,0,0-1.14-1.33l-.35-.41a14.12,14.12,0,0,0,1.78,1.48,1.58,1.58,0,0,0,2.06-.07,14.1,14.1,0,0,0,1.48-1.29l.2-.19c-.47.59-1,1.12-1.44,1.76-.06.09-.11.18-.16.27a1.47,1.47,0,0,0,.06,1.61,8,8,0,0,0,1.07,1.32c.17.19.37.36.55.54Z"/></g><g class="bg-3"><path class="bg-4" d="M634.79,118.21a27.89,27.89,0,0,0-3,.84,3.54,3.54,0,0,0-2.66,3.91,25.38,25.38,0,0,0,.34,3.14,20.74,20.74,0,0,0-.94-3.26,3.47,3.47,0,0,0-3.78-2.43,24.55,24.55,0,0,0-3.14.34,27.89,27.89,0,0,0,3-.84,3.55,3.55,0,0,0,2.67-3.87,24,24,0,0,0-.34-3.18,20.92,20.92,0,0,0,1,3.29,3.47,3.47,0,0,0,3.76,2.4A28.3,28.3,0,0,0,634.79,118.21Z"/><path class="bg-4" d="M630.19,129.77c-.19-1-.39-2.07-.59-3.1C629.8,127.7,630,128.74,630.19,129.77Z"/><path class="bg-4" d="M626.83,112.29l-.6-3.1.6,3.1Z"/><path class="bg-4" d="M618.22,121.4l2.66-.51Z"/><path class="bg-4" d="M638.21,117.56l-2.66.51Z"/></g><g class="bg-3"><path class="bg-4" d="M651.31,150.11c0,.19,0,.33.08.46a1.15,1.15,0,0,0,1,.81,12.39,12.39,0,0,1,1.9.33c.39.08.79.17,1.18.27-.59-.07-1.18-.15-1.76-.24a7.42,7.42,0,0,1-1.26-.27,1.14,1.14,0,0,0-.89,0,1.09,1.09,0,0,0-.6.63l0,.06h0a1.22,1.22,0,0,0-.85-1.21A1.24,1.24,0,0,0,651.31,150.11Z"/><path class="bg-4" d="M651.91,146.9a17.37,17.37,0,0,1-.57,3.11A18.3,18.3,0,0,1,651.91,146.9Z"/><path class="bg-4" d="M650.91,152.34a17.37,17.37,0,0,1-.57,3.11A17.37,17.37,0,0,1,650.91,152.34Z"/><path class="bg-4" d="M650,151a19.54,19.54,0,0,1-3.23-.59A17.48,17.48,0,0,1,650,151Z"/></g><g class="bg-3"><path class="bg-4" d="M624,178.57a2.12,2.12,0,0,1,.72,1c.38.81.68,1.66,1,2.48a.5.5,0,0,1,0,.12L625,181a15.46,15.46,0,0,1-.92-1.5,1.54,1.54,0,0,1-.23-.92,2.7,2.7,0,0,1-1.29.88c-.72.32-1.46.58-2.19.88l-.17.06,1.15-.76c.51-.33,1-.67,1.55-1a1.84,1.84,0,0,1,.86-.23,1.36,1.36,0,0,1-.33-.3,4.29,4.29,0,0,1-.57-1.08c-.3-.73-.59-1.46-.89-2.22a1.12,1.12,0,0,1,.21.29c.44.68.91,1.35,1.32,2.06a4.12,4.12,0,0,1,.32.67,1.18,1.18,0,0,1,.07.53,2.94,2.94,0,0,1,1.46-.94c.71-.31,1.43-.58,2.16-.86L627,177l-1.56,1a3.78,3.78,0,0,1-1,.49A1.15,1.15,0,0,1,624,178.57Z"/></g><g class="bg-3"><path class="bg-4" d="M581.09,75.05l.46-.77c.07-.12.13-.25.19-.38a.91.91,0,0,0-.23-1.11,9.34,9.34,0,0,0-.84-.69l-.13-.11a8.78,8.78,0,0,0,1.12.64.9.9,0,0,0,1.12-.21,9.06,9.06,0,0,0,.63-.76l.19-.24a8,8,0,0,0-.65,1.14.88.88,0,0,0,.23,1.14,8.21,8.21,0,0,0,.86.7,1,1,0,0,0,.13.09c-.38-.2-.73-.46-1.12-.63l-.17-.06A.84.84,0,0,0,582,74a5.41,5.41,0,0,0-.64.72l-.25.36Z"/></g><g class="bg-3"><path class="bg-4" d="M610.84,102.51c-.22-.49-.45-1.05-.75-1.59a2,2,0,0,0-2.44-1.11,17.36,17.36,0,0,0-1.72.48,10.8,10.8,0,0,0,1.73-.83,2,2,0,0,0,1-2.34,14.66,14.66,0,0,0-.49-1.72c.22.48.45,1,.75,1.58a2,2,0,0,0,2.42,1.13,15.32,15.32,0,0,0,1.74-.49,12,12,0,0,0-1.75.84,2,2,0,0,0-1,2.33A15.53,15.53,0,0,0,610.84,102.51Z"/><path class="bg-4" d="M604,101l1.67-.63Z"/><path class="bg-4" d="M613.39,97.5l1.67-.63-1.67.63Z"/><path class="bg-4" d="M607.48,93.56,608,95Z"/><path class="bg-4" d="M611.53,104.36l-.54-1.44Z"/></g><g class="bg-3"><path class="bg-4" d="M582.76,122a2.3,2.3,0,0,0-.25.09.63.63,0,0,0-.36.65,6.61,6.61,0,0,1,0,1.09c0,.23,0,.45,0,.68,0-.33,0-.67,0-1a4.41,4.41,0,0,1,0-.73.71.71,0,0,0-.1-.5.64.64,0,0,0-.41-.27l0,0h0a.6.6,0,0,1,1.2,0Z"/><path class="bg-4" d="M584.61,122a9.84,9.84,0,0,1-1.8,0A9.84,9.84,0,0,1,584.61,122Z"/><path class="bg-4" d="M581.48,122a9,9,0,0,1-1.8,0A10.82,10.82,0,0,1,581.48,122Z"/><path class="bg-4" d="M582.15,121.31a10.51,10.51,0,0,1,0-1.86A9.52,9.52,0,0,1,582.15,121.31Z"/></g><g class="bg-3"><path class="bg-4" d="M564.28,109.42a1.31,1.31,0,0,1-.49.5c-.42.29-.86.53-1.29.8l-.06,0,.56-.52a7.77,7.77,0,0,1,.75-.65.85.85,0,0,1,.49-.22,1.53,1.53,0,0,1-.62-.64c-.24-.37-.46-.76-.69-1.13l0-.09.53.57a9.72,9.72,0,0,1,.67.77,1,1,0,0,1,.21.46,1.1,1.1,0,0,1,.14-.21,2.51,2.51,0,0,1,.55-.42l1.16-.71a.62.62,0,0,1-.14.14c-.34.31-.67.64-1,.94a2.16,2.16,0,0,1-.35.24.66.66,0,0,1-.28.09,1.76,1.76,0,0,1,.66.72c.24.37.46.75.68,1.13l-.24-.26c-.24-.25-.47-.51-.71-.77a3,3,0,0,1-.36-.49A.62.62,0,0,1,564.28,109.42Z"/></g><g class="bg-3"><path class="bg-4" d="M95.75,651.17c-.27-.76-.53-1.51-.8-2.26-.13-.35-.3-.68-.46-1a2.43,2.43,0,0,0-2.67-1.41A24.75,24.75,0,0,0,89,647l-.44.08a22.29,22.29,0,0,0,3.23-1.23,2.34,2.34,0,0,0,1.42-2.65,17.49,17.49,0,0,0-.48-2.58c-.06-.27-.11-.54-.17-.79a20.79,20.79,0,0,0,1.24,3.26,2.36,2.36,0,0,0,2.74,1.45,21.89,21.89,0,0,0,2.9-.58l.39-.11c-1,.43-2.17.71-3.18,1.23a4.16,4.16,0,0,0-.42.23,2.24,2.24,0,0,0-1.13,2.16,13.51,13.51,0,0,0,.41,2.52c.09.38.21.75.32,1.12Z"/></g><g class="bg-3"><path class="bg-4" d="M147,637.42a32.23,32.23,0,0,0-3.52-.89,4.16,4.16,0,0,0-5,2.43,30.31,30.31,0,0,0-1.48,3.4,25.52,25.52,0,0,0,.94-3.87,4.06,4.06,0,0,0-2.43-4.67,27.77,27.77,0,0,0-3.4-1.49,35,35,0,0,0,3.53.88,4.16,4.16,0,0,0,5-2.39,29.58,29.58,0,0,0,1.51-3.43,24.62,24.62,0,0,0-.95,3.91,4.08,4.08,0,0,0,2.44,4.63A32.79,32.79,0,0,0,147,637.42Z"/><path class="bg-4" d="M135.6,646.51l1.2-3.51Z"/><path class="bg-4" d="M142.36,626.74l1.2-3.5-1.2,3.5Z"/><path class="bg-4" d="M128.28,631l3,1Z"/><path class="bg-4" d="M150.88,638.74l-3-1Z"/></g><g class="bg-3"><path class="bg-4" d="M142.52,694.38c-.09.27-.19.46-.24.67a1.71,1.71,0,0,0,.74,1.82,17.34,17.34,0,0,1,2.24,1.85l1.33,1.24c-.72-.53-1.42-1.07-2.11-1.63A10.59,10.59,0,0,1,143,697a1.82,1.82,0,0,0-1.19-.63,1.73,1.73,0,0,0-1.25.38l-.1.05,0,0a1.84,1.84,0,0,0-.2-2.21A1.88,1.88,0,0,0,142.52,694.38Z"/><path class="bg-4" d="M145.71,690.63a25,25,0,0,1-3.08,3.65A27.54,27.54,0,0,1,145.71,690.63Z"/><path class="bg-4" d="M140.33,697a24.92,24.92,0,0,1-3.08,3.64A28.11,28.11,0,0,1,140.33,697Z"/><path class="bg-4" d="M140.14,694.52a30.15,30.15,0,0,1-3.77-3.19A24.63,24.63,0,0,1,140.14,694.52Z"/></g><g class="bg-3"><path class="bg-4" d="M78,725a3.36,3.36,0,0,1,.2,1.85c-.11,1.35-.36,2.67-.54,4a.37.37,0,0,1,0,.17c0-.68-.09-1.35-.13-2a26.06,26.06,0,0,1-.08-2.65,2.42,2.42,0,0,1,.39-1.37,4,4,0,0,1-2.35.18c-1.17-.12-2.34-.32-3.51-.48l-.27-.06,2.08-.13a24.7,24.7,0,0,1,2.72-.07,2.71,2.71,0,0,1,1.3.34,2.3,2.3,0,0,1-.2-.63,6.74,6.74,0,0,1,.06-1.85c.15-1.18.32-2.35.49-3.57a1.72,1.72,0,0,1,.06.53c.07,1.23.19,2.45.19,3.68a6.08,6.08,0,0,1-.08,1.13,1.78,1.78,0,0,1-.31.74,4.48,4.48,0,0,1,2.61-.15c1.16.14,2.31.32,3.46.51l-.93.06-2.79.15a7.34,7.34,0,0,1-1.62-.08A1.82,1.82,0,0,1,78,725Z"/></g><g class="bg-3"><path class="bg-4" d="M93.67,576.12l1.18-.66a4.93,4.93,0,0,0,.53-.36,1.36,1.36,0,0,0,.53-1.62,12.45,12.45,0,0,0-.58-1.54l-.08-.24a12,12,0,0,0,1,1.69,1.32,1.32,0,0,0,1.61.55,11.77,11.77,0,0,0,1.4-.52l.43-.17a11.75,11.75,0,0,0-1.71,1,1.34,1.34,0,0,0-.55,1.67,12.25,12.25,0,0,0,.6,1.56l.1.21c-.34-.55-.6-1.14-1-1.66l-.17-.21a1.26,1.26,0,0,0-1.31-.43,7.39,7.39,0,0,0-1.37.47l-.6.28Z"/></g><g class="bg-3"><path class="bg-4" d="M104.36,602.48a23.37,23.37,0,0,0,.21-2.63,3,3,0,0,0-2.35-3.29,23.6,23.6,0,0,0-2.61-.65,17.16,17.16,0,0,0,2.88.21,3,3,0,0,0,3.06-2.31,23.24,23.24,0,0,0,.65-2.62,25.74,25.74,0,0,0-.21,2.63,3,3,0,0,0,2.32,3.28,19.68,19.68,0,0,0,2.65.66,17.79,17.79,0,0,0-2.92-.2,3,3,0,0,0-3,2.31A23.79,23.79,0,0,0,104.36,602.48Z"/><path class="bg-4" d="M96.46,595.4l2.66.43Z"/><path class="bg-4" d="M111.44,597.84l2.67.43-2.66-.43Z"/><path class="bg-4" d="M106.68,588.27c-.13.76-.25,1.52-.38,2.28C106.43,589.79,106.55,589,106.68,588.27Z"/><path class="bg-4" d="M103.88,605.41c.13-.76.25-1.52.38-2.28C104.13,603.89,104,604.65,103.88,605.41Z"/></g><g class="bg-3"><path class="bg-4" d="M74,606.33c-.16,0-.27-.06-.39-.07a1,1,0,0,0-1,.59,11.13,11.13,0,0,1-.82,1.42c-.19.29-.37.58-.57.86.23-.45.47-.89.71-1.33a6.36,6.36,0,0,1,.59-.93,1,1,0,0,0,.24-.73,1,1,0,0,0-.33-.66l0-.05v0a1.06,1.06,0,0,0,1.22-.33A1.05,1.05,0,0,0,74,606.33Z"/><path class="bg-4" d="M76.37,607.76A14,14,0,0,1,74,606.38,14.43,14.43,0,0,1,76.37,607.76Z"/><path class="bg-4" d="M72.31,605.36A14.73,14.73,0,0,1,70,604,14.43,14.43,0,0,1,72.31,605.36Z"/><path class="bg-4" d="M73.67,605a16.21,16.21,0,0,1,1.42-2.41A14.3,14.3,0,0,1,73.67,605Z"/></g><g class="bg-3"><path class="bg-4" d="M59.2,576.11a1.83,1.83,0,0,1-1,.29c-.76.06-1.52.05-2.28.08a.16.16,0,0,1-.1,0l1.12-.26a14.69,14.69,0,0,1,1.47-.29,1.3,1.3,0,0,1,.8.08,2.28,2.28,0,0,1-.32-1.29c-.05-.67,0-1.34-.06-2a.74.74,0,0,1,0-.15c.09.4.18.77.27,1.14s.24,1,.3,1.52a1.51,1.51,0,0,1-.07.76,1.24,1.24,0,0,1,.34-.18,3.56,3.56,0,0,1,1-.14l2-.06a.84.84,0,0,1-.29.08c-.68.16-1.35.34-2,.46a4.76,4.76,0,0,1-.64.06,1,1,0,0,1-.44-.11,2.56,2.56,0,0,1,.32,1.45c0,.66.05,1.32.05,2l-.12-.51c-.12-.52-.24-1-.35-1.55a3.49,3.49,0,0,1-.11-.91A1.25,1.25,0,0,1,59.2,576.11Z"/></g><g class="bg-3"><path class="bg-4" d="M159.2,580.54l1.38.68c.22.11.45.19.68.28a1.57,1.57,0,0,0,1.87-.54,16.23,16.23,0,0,0,1.08-1.53,2.49,2.49,0,0,1,.17-.24,14.27,14.27,0,0,0-1,2,1.53,1.53,0,0,0,.52,1.88,13.35,13.35,0,0,0,1.38,1l.44.29a15.24,15.24,0,0,0-2-1,1.54,1.54,0,0,0-1.93.56,13.18,13.18,0,0,0-1.09,1.56l-.13.23c.3-.67.69-1.3.93-2a1.71,1.71,0,0,0,.09-.3,1.44,1.44,0,0,0-.43-1.5,8.12,8.12,0,0,0-1.33-1l-.64-.38Z"/></g><g class="bg-3"><path class="bg-4" d="M141.2,607.52a28.87,28.87,0,0,0,2.61-1.49,3.45,3.45,0,0,0,1.59-4.33,26.25,26.25,0,0,0-1.06-2.88,20.13,20.13,0,0,0,1.66,2.86,3.37,3.37,0,0,0,4.13,1.4A24.73,24.73,0,0,0,153,602c-.8.43-1.74.9-2.62,1.49a3.46,3.46,0,0,0-1.6,4.29,24.21,24.21,0,0,0,1.07,2.91,19.57,19.57,0,0,0-1.68-2.88,3.38,3.38,0,0,0-4.11-1.37A27.87,27.87,0,0,0,141.2,607.52Z"/><path class="bg-4" d="M142.8,595.53c.44.93.87,1.85,1.3,2.78C143.67,597.38,143.24,596.46,142.8,595.53Z"/><path class="bg-4" d="M150.11,611.23c.43.93.87,1.85,1.3,2.78-.43-.92-.87-1.85-1.3-2.78Z"/><path class="bg-4" d="M156.08,600.59l-2.39,1.11Z"/><path class="bg-4" d="M138.13,609l2.39-1.11Z"/></g><g class="bg-3"><path class="bg-4" d="M118.07,581.33a3.52,3.52,0,0,0-.18-.42,1.12,1.12,0,0,0-1.16-.52,11.77,11.77,0,0,1-1.87.14l-1.18,0c.57-.08,1.15-.14,1.72-.19a7.5,7.5,0,0,1,1.25,0,1.15,1.15,0,0,0,.84-.24,1.07,1.07,0,0,0,.41-.74.14.14,0,0,0,0-.06h0a1.2,1.2,0,0,0,1.09.94A1.22,1.22,0,0,0,118.07,581.33Z"/><path class="bg-4" d="M118.27,584.5a15.85,15.85,0,0,1-.2-3.08A17.65,17.65,0,0,1,118.27,584.5Z"/><path class="bg-4" d="M117.93,579.13a16.62,16.62,0,0,1-.2-3.07A17.47,17.47,0,0,1,117.93,579.13Z"/><path class="bg-4" d="M119.12,580.2a18.86,18.86,0,0,1,3.19-.2A16.87,16.87,0,0,1,119.12,580.2Z"/></g><g class="bg-3"><path class="bg-4" d="M137.11,548a2.1,2.1,0,0,1-.92-.77c-.55-.68-1-1.41-1.54-2.1a.22.22,0,0,1-.05-.11l1,.89c.42.39.85.77,1.23,1.2a1.6,1.6,0,0,1,.43.81,2.58,2.58,0,0,1,1-1.13c.6-.47,1.24-.9,1.86-1.35a.83.83,0,0,1,.15-.09l-.92,1a14.51,14.51,0,0,1-1.23,1.25,1.73,1.73,0,0,1-.76.42,1.55,1.55,0,0,1,.38.21,4.46,4.46,0,0,1,.8.88c.46.62.9,1.25,1.36,1.89a1.16,1.16,0,0,1-.26-.22c-.58-.54-1.18-1.06-1.73-1.63a3.65,3.65,0,0,1-.47-.57,1.21,1.21,0,0,1-.19-.48,2.87,2.87,0,0,1-1.15,1.24c-.6.45-1.22.88-1.84,1.31.14-.15.27-.3.41-.44l1.23-1.32a4,4,0,0,1,.79-.69A1.39,1.39,0,0,1,137.11,548Z"/></g><g class="bg-3"><path class="bg-4" d="M167.51,616.67a17,17,0,0,0,1.08,1.32,2,2,0,0,0,2.57.48,14.75,14.75,0,0,0,1.51-.87,11.58,11.58,0,0,0-1.44,1.2,1.91,1.91,0,0,0-.39,2.44,13.1,13.1,0,0,0,.87,1.51c-.32-.4-.67-.88-1.09-1.32a1.94,1.94,0,0,0-2.54-.48,14.14,14.14,0,0,0-1.53.87,11.61,11.61,0,0,0,1.45-1.21,1.92,1.92,0,0,0,.38-2.43A15,15,0,0,0,167.51,616.67Z"/><path class="bg-4" d="M174.36,616.44l-1.43,1Z"/><path class="bg-4" d="M166.29,622l-1.44,1,1.44-1Z"/><path class="bg-4" d="M172.79,624.33l-.85-1.23Z"/><path class="bg-4" d="M166.42,615.09l.85,1.23Z"/></g><g class="bg-3"><path class="bg-4" d="M189.41,591.68c.08-.06.16-.09.21-.14a.62.62,0,0,0,.18-.7,7,7,0,0,1-.25-1q-.08-.33-.12-.66c.09.32.18.63.26.94a3.34,3.34,0,0,1,.14.7.67.67,0,0,0,.22.44.62.62,0,0,0,.45.17h0v0a.58.58,0,0,1-1.14.26Z"/><path class="bg-4" d="M187.65,592.09a9.32,9.32,0,0,1,1.7-.4A10.52,10.52,0,0,1,187.65,592.09Z"/><path class="bg-4" d="M190.62,591.39a9.13,9.13,0,0,1,1.7-.4A9.78,9.78,0,0,1,190.62,591.39Z"/><path class="bg-4" d="M190.14,592.16a11.54,11.54,0,0,1,.41,1.76A9.46,9.46,0,0,1,190.14,592.16Z"/></g><g class="bg-3"><path class="bg-4" d="M669.12,520.64l1.52.28a5.51,5.51,0,0,0,.71.08,1.57,1.57,0,0,0,1.65-1,14.82,14.82,0,0,0,.61-1.77c0-.1.07-.2.1-.28a14.63,14.63,0,0,0-.36,2.2,1.51,1.51,0,0,0,1,1.65,10.85,10.85,0,0,0,1.6.57l.49.16a13.72,13.72,0,0,0-2.22-.37,1.54,1.54,0,0,0-1.69,1.07,14.16,14.16,0,0,0-.62,1.8c0,.08,0,.17-.07.26.11-.73.31-1.44.35-2.18,0-.1,0-.21,0-.31a1.44,1.44,0,0,0-.84-1.32,8.44,8.44,0,0,0-1.54-.59c-.24-.07-.48-.12-.73-.18Z"/></g><g class="bg-3"><path class="bg-4" d="M603.86,514.28a2.09,2.09,0,0,1-1.09-.49c-.72-.49-1.37-1.06-2.06-1.59l-.08-.08,1.18.58c.5.26,1,.51,1.5.82a1.49,1.49,0,0,1,.64.65,2.53,2.53,0,0,1,.66-1.36c.44-.62.93-1.2,1.4-1.81l.12-.13c-.21.42-.4.81-.6,1.2s-.52,1-.84,1.55a1.78,1.78,0,0,1-.61.61,1.43,1.43,0,0,1,.42.09,4.39,4.39,0,0,1,1,.63l1.83,1.43a.89.89,0,0,1-.31-.14c-.71-.36-1.43-.69-2.12-1.08a4.29,4.29,0,0,1-.6-.42,1,1,0,0,1-.31-.41,2.92,2.92,0,0,1-.77,1.51c-.45.6-.92,1.18-1.4,1.77l.27-.54c.27-.54.54-1.08.82-1.61a4.52,4.52,0,0,1,.56-.88A1.4,1.4,0,0,1,603.86,514.28Z"/></g><g class="bg-3"><path class="bg-4" d="M624,384.08l2.47-.94a9.67,9.67,0,0,0,1.13-.53,2.67,2.67,0,0,0,1.5-3,28,28,0,0,0-.68-3.15c0-.17-.07-.34-.09-.49a23.47,23.47,0,0,0,1.42,3.55,2.61,2.61,0,0,0,3,1.53,19.78,19.78,0,0,0,2.85-.6l.87-.2a25.14,25.14,0,0,0-3.59,1.44,2.63,2.63,0,0,0-1.54,3.08,23.31,23.31,0,0,0,.71,3.19l.12.44c-.49-1.16-.82-2.39-1.43-3.51a4.25,4.25,0,0,0-.27-.46,2.45,2.45,0,0,0-2.4-1.2,14.73,14.73,0,0,0-2.79.51c-.42.11-.82.25-1.23.38Z"/></g><g class="bg-3"><path class="bg-4" d="M640.38,440.57a34.39,34.39,0,0,0,.91-3.92c.39-2.67-.4-4.23-2.81-5.47a33,33,0,0,0-3.79-1.57,27.26,27.26,0,0,0,4.31.95c2.55.25,3.94-.52,5.12-2.78a33.93,33.93,0,0,0,1.58-3.8,36.1,36.1,0,0,0-.91,3.92c-.39,2.65.39,4.22,2.76,5.46a32,32,0,0,0,3.83,1.59,27.76,27.76,0,0,0-4.35-1,4.51,4.51,0,0,0-5.07,2.8A36.58,36.58,0,0,0,640.38,440.57Z"/><path class="bg-4" d="M630.06,428.13l3.92,1.25Z"/><path class="bg-4" d="M652.1,435.18l3.92,1.25-3.91-1.25Z"/><path class="bg-4" d="M647.07,419.68c-.36,1.12-.72,2.24-1.07,3.36C646.35,421.92,646.71,420.8,647.07,419.68Z"/><path class="bg-4" d="M639,444.88l1.08-3.35Z"/></g><g class="bg-3"><path class="bg-4" d="M577.18,436.85c-.31-.1-.52-.21-.75-.26a1.91,1.91,0,0,0-2,.86,19.51,19.51,0,0,1-2,2.53l-1.34,1.5c.57-.81,1.16-1.6,1.76-2.38a11.54,11.54,0,0,1,1.41-1.63,2,2,0,0,0,.67-1.33,1.94,1.94,0,0,0-.45-1.38l-.06-.11,0,0a2,2,0,0,0,2.45-.28A2.08,2.08,0,0,0,577.18,436.85Z"/><path class="bg-4" d="M581.4,440.3a29.19,29.19,0,0,1-4.11-3.33A28,28,0,0,1,581.4,440.3Z"/><path class="bg-4" d="M574.24,434.48a28.63,28.63,0,0,1-4.11-3.33A29.19,29.19,0,0,1,574.24,434.48Z"/><path class="bg-4" d="M577,434.22a32.11,32.11,0,0,1,3.46-4.25A28.89,28.89,0,0,1,577,434.22Z"/></g><g class="bg-3"><path class="bg-4" d="M541.81,366a3.67,3.67,0,0,1-2,.26c-1.49-.09-3-.34-4.44-.5a.42.42,0,0,1-.19-.06l2.25-.18a26.19,26.19,0,0,1,2.94-.15,2.71,2.71,0,0,1,1.52.4,4.45,4.45,0,0,1-.25-2.59c.1-1.31.31-2.61.45-3.91,0-.08,0-.16.06-.3.06.81.13,1.56.19,2.3a27.75,27.75,0,0,1,.14,3,3,3,0,0,1-.35,1.45,2.42,2.42,0,0,1,.7-.24,7.82,7.82,0,0,1,2.05,0c1.3.14,2.61.31,4,.47a1.85,1.85,0,0,1-.59.08c-1.35.1-2.71.26-4.07.29a6.51,6.51,0,0,1-1.25-.07,1.91,1.91,0,0,1-.83-.33,5,5,0,0,1,.22,2.9c-.13,1.28-.3,2.56-.48,3.84l-.09-1c-.08-1-.16-2.06-.23-3.09a7.65,7.65,0,0,1,0-1.79A2.49,2.49,0,0,1,541.81,366Z"/></g><g class="bg-3"><path class="bg-4" d="M707.12,380.13c.25.44.5.87.76,1.3.12.2.26.39.4.58a1.52,1.52,0,0,0,1.81.55,16.5,16.5,0,0,0,1.69-.67l.27-.1a12.22,12.22,0,0,0-1.85,1.13,1.47,1.47,0,0,0-.57,1.8,11.84,11.84,0,0,0,.6,1.53c.07.16.13.32.2.47a12.76,12.76,0,0,0-1.15-1.86,1.48,1.48,0,0,0-1.86-.57,14,14,0,0,0-1.72.69l-.23.11a19,19,0,0,0,1.82-1.13l.24-.19a1.41,1.41,0,0,0,.44-1.46,8.28,8.28,0,0,0-.55-1.51c-.1-.22-.22-.43-.33-.65Z"/></g><g class="bg-3"><path class="bg-4" d="M678.15,392.56c.89.07,1.9.19,2.92.17a3.36,3.36,0,0,0,3.59-2.68,24.13,24.13,0,0,0,.66-2.91,20.34,20.34,0,0,0-.16,3.21,3.28,3.28,0,0,0,2.62,3.33,24.47,24.47,0,0,0,2.92.66,29.09,29.09,0,0,0-2.92-.17,3.35,3.35,0,0,0-3.58,2.64,24.52,24.52,0,0,0-.68,2.95,18.55,18.55,0,0,0,.16-3.24,3.28,3.28,0,0,0-2.62-3.3A24.77,24.77,0,0,0,678.15,392.56Z"/><path class="bg-4" d="M685.82,383.65l-.42,3Z"/><path class="bg-4" d="M683.45,400.3c-.14,1-.28,2-.43,3,.15-1,.29-2,.43-3Z"/><path class="bg-4" d="M693.94,394.81l-2.53-.36Z"/><path class="bg-4" d="M674.9,392.09l2.53.36Z"/></g><g class="bg-3"><path class="bg-4" d="M703.67,452.83c-.25.51-.5,1-.74,1.54a7.61,7.61,0,0,0-.28.75,1.73,1.73,0,0,0,.63,2.07,19.91,19.91,0,0,0,1.72,1.16l.27.18a16.25,16.25,0,0,0-2.25-1,1.69,1.69,0,0,0-2.07.61,13.8,13.8,0,0,0-1.06,1.56l-.32.48a15.47,15.47,0,0,0,1-2.27,1.71,1.71,0,0,0-.66-2.13,15.68,15.68,0,0,0-1.75-1.17l-.26-.15c.75.32,1.46.75,2.24,1l.33.09a1.6,1.6,0,0,0,1.66-.52,9.78,9.78,0,0,0,1.07-1.48c.14-.24.27-.49.4-.73Z"/></g><g class="bg-3"><path class="bg-4" d="M673.38,433.47a28.07,28.07,0,0,0,1.71,2.87,3.82,3.82,0,0,0,4.82,1.66,26.92,26.92,0,0,0,3.17-1.24,23,23,0,0,0-3.13,1.9,3.75,3.75,0,0,0-1.46,4.61,28.16,28.16,0,0,0,1.24,3.18,29.1,29.1,0,0,0-1.71-2.86,3.83,3.83,0,0,0-4.78-1.69,27,27,0,0,0-3.21,1.25,21.83,21.83,0,0,0,3.15-1.92,3.74,3.74,0,0,0,1.43-4.59A30.9,30.9,0,0,0,673.38,433.47Z"/><path class="bg-4" d="M686.7,435l-3.06,1.5Z"/><path class="bg-4" d="M669.47,443.43l-3.06,1.5,3.05-1.5Z"/><path class="bg-4" d="M681.38,449.81l-1.29-2.62Z"/><path class="bg-4" d="M671.73,430.1l1.28,2.63Z"/></g><g class="bg-3"><path class="bg-4" d="M701.89,407.28c.18-.09.33-.13.46-.21a1.21,1.21,0,0,0,.54-1.3,13.06,13.06,0,0,1-.19-2.07c0-.43,0-.86-.05-1.3.1.63.18,1.26.24,1.9a7.16,7.16,0,0,1,.08,1.39,1.31,1.31,0,0,0,.28.92,1.26,1.26,0,0,0,.83.44l.07,0v0a1.31,1.31,0,0,0-1,1.23A1.36,1.36,0,0,0,701.89,407.28Z"/><path class="bg-4" d="M698.37,407.56a19.53,19.53,0,0,1,3.41-.28A17.71,17.71,0,0,1,698.37,407.56Z"/><path class="bg-4" d="M704.32,407.07a18.43,18.43,0,0,1,3.4-.28A19.34,19.34,0,0,1,704.32,407.07Z"/><path class="bg-4" d="M703.16,408.42a20.73,20.73,0,0,1,.29,3.52A17.41,17.41,0,0,1,703.16,408.42Z"/></g><g class="bg-3"><path class="bg-4" d="M739.2,427.64a2.39,2.39,0,0,1,.84-1c.73-.62,1.53-1.16,2.29-1.75a.24.24,0,0,1,.11-.06l-1,1.09a17.1,17.1,0,0,1-1.3,1.39,1.77,1.77,0,0,1-.89.49,2.86,2.86,0,0,1,1.28,1.1c.53.65,1,1.35,1.53,2l.11.16-1.12-1c-.48-.44-1-.86-1.42-1.34a2,2,0,0,1-.48-.84,1.34,1.34,0,0,1-.22.43,4.54,4.54,0,0,1-1,.9c-.67.52-1.36,1-2.06,1.56a1.26,1.26,0,0,1,.24-.3c.59-.65,1.15-1.33,1.77-2a5.15,5.15,0,0,1,.61-.53,1.37,1.37,0,0,1,.53-.21,3.19,3.19,0,0,1-1.39-1.25c-.52-.66-1-1.33-1.5-2l.5.44,1.49,1.34a4.56,4.56,0,0,1,.78.86A1.45,1.45,0,0,1,739.2,427.64Z"/></g><g class="bg-3"><path class="bg-4" d="M663.81,462.83a16.65,16.65,0,0,0-1.43,1.22,2.17,2.17,0,0,0-.48,2.86,18.43,18.43,0,0,0,1,1.65,12.45,12.45,0,0,0-1.35-1.57,2.14,2.14,0,0,0-2.72-.38,16.74,16.74,0,0,0-1.65,1,18.62,18.62,0,0,0,1.44-1.23,2.17,2.17,0,0,0,.48-2.83,14.73,14.73,0,0,0-1-1.67,12.7,12.7,0,0,0,1.37,1.57,2.12,2.12,0,0,0,2.7.37A17.54,17.54,0,0,0,663.81,462.83Z"/><path class="bg-4" d="M664.23,470.41l-1.13-1.57Z"/><path class="bg-4" d="M657.88,461.59c-.37-.53-.75-1-1.12-1.57.37.52.75,1,1.12,1.57Z"/><path class="bg-4" d="M655.45,468.84l1.34-1Z"/><path class="bg-4" d="M665.54,461.59l-1.35,1Z"/></g><g class="bg-3"><path class="bg-4" d="M692,486.53a1.91,1.91,0,0,0,.17.24.68.68,0,0,0,.77.18,7.66,7.66,0,0,1,1.14-.3l.72-.15c-.34.11-.69.22-1,.31a3.36,3.36,0,0,1-.76.18.7.7,0,0,0-.66.75v0h0a.65.65,0,0,1-.32-1.26Z"/><path class="bg-4" d="M691.49,484.6a9.43,9.43,0,0,1,.48,1.88A11.27,11.27,0,0,1,691.49,484.6Z"/><path class="bg-4" d="M692.33,487.87a10.92,10.92,0,0,1,.48,1.87A10.69,10.69,0,0,1,692.33,487.87Z"/><path class="bg-4" d="M691.47,487.35a11.76,11.76,0,0,1-1.94.5A10.67,10.67,0,0,1,691.47,487.35Z"/></g></g><g id="rectangle"><rect class="bg-5" width="800" height="800"/></g></g></svg>
