<svg xmlns="http://www.w3.org/2000/svg" viewBox="0 0 800 800"><defs><style>.bg-1{fill:#0c0;}.bg-2,.bg-3{fill:#fff;}.bg-2{stroke:#fff;stroke-miterlimit:10;stroke-width:0.5px;}</style></defs><title>1000_background_not_space_invaders</title><g id="Layer_2" data-name="Layer 2"><g id="_1000_background_not_space_invaders" data-name="1000_background_not_space_invaders"><rect class="bg-1" width="800" height="800"/><rect class="bg-2" x="130.56" y="280.21" width="10.96" height="10.96"/><rect class="bg-2" x="119.6" y="269.24" width="10.96" height="10.96"/><rect class="bg-2" x="119.6" y="225.41" width="10.96" height="10.96"/><rect class="bg-2" x="108.64" y="258.28" width="10.96" height="10.96"/><rect class="bg-2" x="108.64" y="236.37" width="10.96" height="10.96"/><rect class="bg-2" x="108.64" y="225.41" width="10.96" height="10.96"/><rect class="bg-2" x="108.64" y="214.45" width="10.96" height="10.96"/><rect class="bg-2" x="108.64" y="159.65" width="10.96" height="10.96"/><rect class="bg-2" x="108.64" y="148.69" width="10.96" height="10.96"/><rect class="bg-2" x="108.64" y="126.77" width="10.96" height="10.96"/><rect class="bg-2" x="97.68" y="247.33" width="10.96" height="10.95"/><rect class="bg-2" x="97.68" y="236.37" width="10.96" height="10.96"/><rect class="bg-2" x="97.68" y="214.45" width="10.96" height="10.96"/><rect class="bg-2" x="97.68" y="203.49" width="10.96" height="10.96"/><rect class="bg-2" x="97.68" y="148.69" width="10.96" height="10.96"/><rect class="bg-2" x="97.68" y="126.77" width="10.96" height="10.96"/><rect class="bg-2" x="97.68" y="115.8" width="10.96" height="10.96"/><rect class="bg-2" x="86.72" y="236.37" width="10.96" height="10.96"/><rect class="bg-2" x="86.72" y="214.45" width="10.96" height="10.96"/><rect class="bg-2" x="86.72" y="148.69" width="10.96" height="10.96"/><rect class="bg-2" x="86.72" y="137.73" width="10.96" height="10.96"/><rect class="bg-2" x="86.72" y="126.77" width="10.96" height="10.96"/><rect class="bg-2" x="86.72" y="115.8" width="10.96" height="10.96"/><rect class="bg-2" x="86.72" y="104.85" width="10.96" height="10.95"/><rect class="bg-2" x="75.77" y="247.33" width="10.95" height="10.95"/><rect class="bg-2" x="75.77" y="236.37" width="10.95" height="10.96"/><rect class="bg-2" x="75.77" y="214.45" width="10.95" height="10.96"/><rect class="bg-2" x="75.77" y="203.49" width="10.95" height="10.96"/><rect class="bg-2" x="75.77" y="126.77" width="10.95" height="10.96"/><rect class="bg-2" x="75.77" y="115.8" width="10.95" height="10.96"/><rect class="bg-2" x="75.77" y="104.85" width="10.95" height="10.95"/><rect class="bg-2" x="75.77" y="93.89" width="10.95" height="10.96"/><rect class="bg-2" x="64.81" y="258.28" width="10.96" height="10.96"/><rect class="bg-2" x="64.81" y="236.37" width="10.96" height="10.96"/><rect class="bg-2" x="64.81" y="225.41" width="10.96" height="10.96"/><rect class="bg-2" x="64.81" y="214.45" width="10.96" height="10.96"/><rect class="bg-2" x="64.81" y="126.77" width="10.96" height="10.96"/><rect class="bg-2" x="64.81" y="115.8" width="10.96" height="10.96"/><rect class="bg-2" x="64.81" y="104.85" width="10.96" height="10.95"/><rect class="bg-2" x="64.81" y="93.89" width="10.96" height="10.96"/><rect class="bg-2" x="53.84" y="269.24" width="10.96" height="10.96"/><rect class="bg-2" x="53.84" y="225.41" width="10.96" height="10.96"/><rect class="bg-2" x="53.84" y="148.69" width="10.96" height="10.96"/><rect class="bg-2" x="53.84" y="137.73" width="10.96" height="10.96"/><rect class="bg-2" x="53.84" y="126.77" width="10.96" height="10.96"/><rect class="bg-2" x="53.84" y="115.8" width="10.96" height="10.96"/><rect class="bg-2" x="53.84" y="104.85" width="10.96" height="10.95"/><rect class="bg-2" x="42.88" y="280.21" width="10.96" height="10.96"/><rect class="bg-2" x="42.88" y="148.69" width="10.96" height="10.96"/><rect class="bg-2" x="42.88" y="126.77" width="10.96" height="10.96"/><rect class="bg-2" x="42.88" y="115.8" width="10.96" height="10.96"/><rect class="bg-2" x="31.92" y="159.65" width="10.96" height="10.96"/><rect class="bg-2" x="31.92" y="148.69" width="10.96" height="10.96"/><rect class="bg-2" x="31.92" y="126.77" width="10.96" height="10.96"/><rect class="bg-2" x="166.81" y="736.04" width="10.96" height="10.96"/><rect class="bg-2" x="155.86" y="725.08" width="10.95" height="10.96"/><rect class="bg-2" x="155.86" y="681.24" width="10.95" height="10.96"/><rect class="bg-2" x="144.9" y="714.12" width="10.96" height="10.96"/><rect class="bg-2" x="144.9" y="692.2" width="10.96" height="10.95"/><rect class="bg-2" x="144.9" y="681.24" width="10.96" height="10.96"/><rect class="bg-2" x="144.9" y="670.28" width="10.96" height="10.96"/><rect class="bg-2" x="144.9" y="615.48" width="10.96" height="10.96"/><rect class="bg-2" x="144.9" y="604.52" width="10.96" height="10.96"/><rect class="bg-2" x="144.9" y="582.6" width="10.96" height="10.96"/><rect class="bg-2" x="133.94" y="703.16" width="10.96" height="10.96"/><rect class="bg-2" x="133.94" y="692.2" width="10.96" height="10.95"/><rect class="bg-2" x="133.94" y="670.28" width="10.96" height="10.96"/><rect class="bg-2" x="133.94" y="659.32" width="10.96" height="10.96"/><rect class="bg-2" x="133.94" y="604.52" width="10.96" height="10.96"/><rect class="bg-2" x="133.94" y="582.6" width="10.96" height="10.96"/><rect class="bg-2" x="133.94" y="571.64" width="10.96" height="10.96"/><rect class="bg-2" x="122.98" y="692.2" width="10.96" height="10.95"/><rect class="bg-2" x="122.98" y="670.28" width="10.96" height="10.96"/><rect class="bg-2" x="122.98" y="604.52" width="10.96" height="10.96"/><rect class="bg-2" x="122.98" y="593.56" width="10.96" height="10.96"/><rect class="bg-2" x="122.98" y="582.6" width="10.96" height="10.96"/><rect class="bg-2" x="122.98" y="571.64" width="10.96" height="10.96"/><rect class="bg-2" x="122.98" y="560.68" width="10.96" height="10.96"/><rect class="bg-2" x="112.02" y="703.16" width="10.96" height="10.96"/><rect class="bg-2" x="112.02" y="692.2" width="10.96" height="10.95"/><rect class="bg-2" x="112.02" y="670.28" width="10.96" height="10.96"/><rect class="bg-2" x="112.02" y="659.32" width="10.96" height="10.96"/><rect class="bg-2" x="112.02" y="582.6" width="10.96" height="10.96"/><rect class="bg-2" x="112.02" y="571.64" width="10.96" height="10.96"/><rect class="bg-2" x="112.02" y="560.68" width="10.96" height="10.96"/><rect class="bg-2" x="112.02" y="549.72" width="10.96" height="10.95"/><rect class="bg-2" x="101.05" y="714.12" width="10.96" height="10.96"/><rect class="bg-2" x="101.05" y="692.2" width="10.96" height="10.95"/><rect class="bg-2" x="101.05" y="681.24" width="10.96" height="10.96"/><rect class="bg-2" x="101.05" y="670.28" width="10.96" height="10.96"/><rect class="bg-2" x="101.05" y="582.6" width="10.96" height="10.96"/><rect class="bg-2" x="101.05" y="571.64" width="10.96" height="10.96"/><rect class="bg-2" x="101.05" y="560.68" width="10.96" height="10.96"/><rect class="bg-2" x="101.05" y="549.72" width="10.96" height="10.95"/><rect class="bg-2" x="90.1" y="725.08" width="10.95" height="10.96"/><rect class="bg-2" x="90.1" y="681.24" width="10.95" height="10.96"/><rect class="bg-2" x="90.1" y="604.52" width="10.95" height="10.96"/><rect class="bg-2" x="90.1" y="593.56" width="10.95" height="10.96"/><rect class="bg-2" x="90.1" y="582.6" width="10.95" height="10.96"/><rect class="bg-2" x="90.1" y="571.64" width="10.95" height="10.96"/><rect class="bg-2" x="90.1" y="560.68" width="10.95" height="10.96"/><rect class="bg-2" x="79.14" y="736.04" width="10.96" height="10.96"/><rect class="bg-2" x="79.14" y="604.52" width="10.96" height="10.96"/><rect class="bg-2" x="79.14" y="582.6" width="10.96" height="10.96"/><rect class="bg-2" x="79.14" y="571.64" width="10.96" height="10.96"/><rect class="bg-2" x="68.18" y="615.48" width="10.96" height="10.96"/><rect class="bg-2" x="68.18" y="604.52" width="10.96" height="10.96"/><rect class="bg-2" x="68.18" y="582.6" width="10.96" height="10.96"/><rect class="bg-2" x="563.58" y="736.04" width="10.96" height="10.96"/><rect class="bg-2" x="552.62" y="725.08" width="10.96" height="10.96"/><rect class="bg-2" x="552.62" y="681.24" width="10.96" height="10.95"/><rect class="bg-2" x="541.66" y="714.12" width="10.96" height="10.96"/><rect class="bg-2" x="541.66" y="692.2" width="10.96" height="10.96"/><rect class="bg-2" x="541.66" y="681.24" width="10.96" height="10.95"/><rect class="bg-2" x="541.66" y="670.28" width="10.96" height="10.96"/><rect class="bg-2" x="541.66" y="615.49" width="10.96" height="10.95"/><rect class="bg-2" x="541.66" y="604.52" width="10.96" height="10.96"/><rect class="bg-2" x="541.66" y="582.6" width="10.96" height="10.96"/><rect class="bg-2" x="530.69" y="703.16" width="10.96" height="10.96"/><rect class="bg-2" x="530.69" y="692.2" width="10.96" height="10.96"/><rect class="bg-2" x="530.69" y="670.28" width="10.96" height="10.96"/><rect class="bg-2" x="530.69" y="659.32" width="10.96" height="10.96"/><rect class="bg-2" x="530.69" y="604.52" width="10.96" height="10.96"/><rect class="bg-2" x="530.69" y="582.6" width="10.96" height="10.96"/><rect class="bg-2" x="530.69" y="571.64" width="10.96" height="10.96"/><rect class="bg-2" x="519.73" y="692.2" width="10.96" height="10.96"/><rect class="bg-2" x="519.73" y="670.28" width="10.96" height="10.96"/><rect class="bg-2" x="519.73" y="604.52" width="10.96" height="10.96"/><rect class="bg-2" x="519.73" y="593.56" width="10.96" height="10.96"/><rect class="bg-2" x="519.73" y="582.6" width="10.96" height="10.96"/><rect class="bg-2" x="519.73" y="571.64" width="10.96" height="10.96"/><rect class="bg-2" x="519.73" y="560.68" width="10.96" height="10.96"/><rect class="bg-2" x="508.78" y="703.16" width="10.95" height="10.96"/><rect class="bg-2" x="508.78" y="692.2" width="10.95" height="10.96"/><rect class="bg-2" x="508.78" y="670.28" width="10.95" height="10.96"/><rect class="bg-2" x="508.78" y="659.32" width="10.95" height="10.96"/><rect class="bg-2" x="508.78" y="582.6" width="10.95" height="10.96"/><rect class="bg-2" x="508.78" y="571.64" width="10.95" height="10.96"/><rect class="bg-2" x="508.78" y="560.68" width="10.95" height="10.96"/><rect class="bg-2" x="508.78" y="549.72" width="10.95" height="10.96"/><rect class="bg-2" x="497.82" y="714.12" width="10.96" height="10.96"/><rect class="bg-2" x="497.82" y="692.2" width="10.96" height="10.96"/><rect class="bg-2" x="497.82" y="681.24" width="10.96" height="10.95"/><rect class="bg-2" x="497.82" y="670.28" width="10.96" height="10.96"/><rect class="bg-2" x="497.82" y="582.6" width="10.96" height="10.96"/><rect class="bg-2" x="497.82" y="571.64" width="10.96" height="10.96"/><rect class="bg-2" x="497.82" y="560.68" width="10.96" height="10.96"/><rect class="bg-2" x="497.82" y="549.72" width="10.96" height="10.96"/><rect class="bg-2" x="486.86" y="725.08" width="10.96" height="10.96"/><rect class="bg-2" x="486.86" y="681.24" width="10.96" height="10.95"/><rect class="bg-2" x="486.86" y="604.52" width="10.96" height="10.96"/><rect class="bg-2" x="486.86" y="593.56" width="10.96" height="10.96"/><rect class="bg-2" x="486.86" y="582.6" width="10.96" height="10.96"/><rect class="bg-2" x="486.86" y="571.64" width="10.96" height="10.96"/><rect class="bg-2" x="486.86" y="560.68" width="10.96" height="10.96"/><rect class="bg-2" x="475.9" y="736.04" width="10.96" height="10.96"/><rect class="bg-2" x="475.9" y="604.52" width="10.96" height="10.96"/><rect class="bg-2" x="475.9" y="582.6" width="10.96" height="10.96"/><rect class="bg-2" x="475.9" y="571.64" width="10.96" height="10.96"/><rect class="bg-2" x="464.94" y="615.49" width="10.96" height="10.95"/><rect class="bg-2" x="464.94" y="604.52" width="10.96" height="10.96"/><rect class="bg-2" x="464.94" y="582.6" width="10.96" height="10.96"/><rect class="bg-2" x="675.14" y="280.21" width="10.96" height="10.96"/><rect class="bg-2" x="664.18" y="269.25" width="10.96" height="10.96"/><rect class="bg-2" x="664.18" y="225.41" width="10.96" height="10.95"/><rect class="bg-2" x="653.22" y="258.29" width="10.96" height="10.96"/><rect class="bg-2" x="653.22" y="236.36" width="10.96" height="10.96"/><rect class="bg-2" x="653.22" y="225.41" width="10.96" height="10.95"/><rect class="bg-2" x="653.22" y="214.45" width="10.96" height="10.96"/><rect class="bg-2" x="653.22" y="159.65" width="10.96" height="10.95"/><rect class="bg-2" x="653.22" y="148.69" width="10.96" height="10.96"/><rect class="bg-2" x="653.22" y="126.77" width="10.96" height="10.96"/><rect class="bg-2" x="642.25" y="247.32" width="10.96" height="10.96"/><rect class="bg-2" x="642.25" y="236.36" width="10.96" height="10.96"/><rect class="bg-2" x="642.25" y="214.45" width="10.96" height="10.96"/><rect class="bg-2" x="642.25" y="203.49" width="10.96" height="10.96"/><rect class="bg-2" x="642.25" y="148.69" width="10.96" height="10.96"/><rect class="bg-2" x="642.25" y="126.77" width="10.96" height="10.96"/><rect class="bg-2" x="642.25" y="115.81" width="10.96" height="10.96"/><rect class="bg-2" x="631.29" y="236.36" width="10.96" height="10.96"/><rect class="bg-2" x="631.29" y="214.45" width="10.96" height="10.96"/><rect class="bg-2" x="631.29" y="148.69" width="10.96" height="10.96"/><rect class="bg-2" x="631.29" y="137.73" width="10.96" height="10.96"/><rect class="bg-2" x="631.29" y="126.77" width="10.96" height="10.96"/><rect class="bg-2" x="631.29" y="115.81" width="10.96" height="10.96"/><rect class="bg-2" x="631.29" y="104.85" width="10.96" height="10.96"/><rect class="bg-2" x="620.33" y="247.32" width="10.96" height="10.96"/><rect class="bg-2" x="620.33" y="236.36" width="10.96" height="10.96"/><rect class="bg-2" x="620.33" y="214.45" width="10.96" height="10.96"/><rect class="bg-2" x="620.33" y="203.49" width="10.96" height="10.96"/><rect class="bg-2" x="620.33" y="126.77" width="10.96" height="10.96"/><rect class="bg-2" x="620.33" y="115.81" width="10.96" height="10.96"/><rect class="bg-2" x="620.33" y="104.85" width="10.96" height="10.96"/><rect class="bg-2" x="620.33" y="93.88" width="10.96" height="10.96"/><rect class="bg-2" x="609.38" y="258.29" width="10.95" height="10.96"/><rect class="bg-2" x="609.38" y="236.36" width="10.95" height="10.96"/><rect class="bg-2" x="609.38" y="225.41" width="10.95" height="10.95"/><rect class="bg-2" x="609.38" y="214.45" width="10.95" height="10.96"/><rect class="bg-2" x="609.38" y="126.77" width="10.95" height="10.96"/><rect class="bg-2" x="609.38" y="115.81" width="10.95" height="10.96"/><rect class="bg-2" x="609.38" y="104.85" width="10.95" height="10.96"/><rect class="bg-2" x="609.38" y="93.88" width="10.95" height="10.96"/><rect class="bg-2" x="598.42" y="269.25" width="10.96" height="10.96"/><rect class="bg-2" x="598.42" y="225.41" width="10.96" height="10.95"/><rect class="bg-2" x="598.42" y="148.69" width="10.96" height="10.96"/><rect class="bg-2" x="598.42" y="137.73" width="10.96" height="10.96"/><rect class="bg-2" x="598.42" y="126.77" width="10.96" height="10.96"/><rect class="bg-2" x="598.42" y="115.81" width="10.96" height="10.96"/><rect class="bg-2" x="598.42" y="104.85" width="10.96" height="10.96"/><rect class="bg-2" x="587.46" y="280.21" width="10.96" height="10.96"/><rect class="bg-2" x="587.46" y="148.69" width="10.96" height="10.96"/><rect class="bg-2" x="587.46" y="126.77" width="10.96" height="10.96"/><rect class="bg-2" x="587.46" y="115.81" width="10.96" height="10.96"/><rect class="bg-2" x="576.49" y="159.65" width="10.96" height="10.95"/><rect class="bg-2" x="576.49" y="148.69" width="10.96" height="10.96"/><rect class="bg-2" x="576.49" y="126.77" width="10.96" height="10.96"/><rect class="bg-2" x="773.12" y="735.46" width="11.54" height="11.54"/><rect class="bg-2" x="761.58" y="723.92" width="11.54" height="11.54"/><rect class="bg-2" x="761.58" y="677.77" width="11.54" height="11.53"/><rect class="bg-2" x="750.04" y="712.38" width="11.54" height="11.54"/><rect class="bg-2" x="750.04" y="689.3" width="11.54" height="11.54"/><rect class="bg-2" x="750.04" y="677.77" width="11.54" height="11.53"/><rect class="bg-2" x="750.04" y="666.23" width="11.54" height="11.54"/><rect class="bg-2" x="750.04" y="608.53" width="11.54" height="11.54"/><rect class="bg-2" x="750.04" y="597" width="11.54" height="11.53"/><rect class="bg-2" x="750.04" y="573.92" width="11.54" height="11.54"/><rect class="bg-2" x="738.5" y="700.84" width="11.54" height="11.54"/><rect class="bg-2" x="738.5" y="689.3" width="11.54" height="11.54"/><rect class="bg-2" x="738.5" y="666.23" width="11.54" height="11.54"/><rect class="bg-2" x="738.5" y="654.69" width="11.54" height="11.54"/><rect class="bg-2" x="738.5" y="597" width="11.54" height="11.53"/><rect class="bg-2" x="738.5" y="573.92" width="11.54" height="11.54"/><rect class="bg-2" x="738.5" y="562.38" width="11.54" height="11.54"/><rect class="bg-2" x="726.96" y="689.3" width="11.54" height="11.54"/><rect class="bg-2" x="726.96" y="666.23" width="11.54" height="11.54"/><rect class="bg-2" x="726.96" y="597" width="11.54" height="11.53"/><rect class="bg-2" x="726.96" y="585.46" width="11.54" height="11.54"/><rect class="bg-2" x="726.96" y="573.92" width="11.54" height="11.54"/><rect class="bg-2" x="726.96" y="562.38" width="11.54" height="11.54"/><rect class="bg-2" x="726.96" y="550.84" width="11.54" height="11.54"/><rect class="bg-2" x="715.42" y="700.84" width="11.54" height="11.54"/><rect class="bg-2" x="715.42" y="689.3" width="11.54" height="11.54"/><rect class="bg-2" x="715.42" y="666.23" width="11.54" height="11.54"/><rect class="bg-2" x="715.42" y="654.69" width="11.54" height="11.54"/><rect class="bg-2" x="715.42" y="573.92" width="11.54" height="11.54"/><rect class="bg-2" x="715.42" y="562.38" width="11.54" height="11.54"/><rect class="bg-2" x="715.42" y="550.84" width="11.54" height="11.54"/><rect class="bg-2" x="715.42" y="539.3" width="11.54" height="11.54"/><rect class="bg-2" x="703.89" y="712.38" width="11.53" height="11.54"/><rect class="bg-2" x="703.89" y="689.3" width="11.53" height="11.54"/><rect class="bg-2" x="703.89" y="677.77" width="11.53" height="11.53"/><rect class="bg-2" x="703.89" y="666.23" width="11.53" height="11.54"/><rect class="bg-2" x="703.89" y="573.92" width="11.53" height="11.54"/><rect class="bg-2" x="703.89" y="562.38" width="11.53" height="11.54"/><rect class="bg-2" x="703.89" y="550.84" width="11.53" height="11.54"/><rect class="bg-2" x="703.89" y="539.3" width="11.53" height="11.54"/><rect class="bg-2" x="692.35" y="723.92" width="11.54" height="11.54"/><rect class="bg-2" x="692.35" y="677.77" width="11.54" height="11.53"/><rect class="bg-2" x="692.35" y="597" width="11.54" height="11.53"/><rect class="bg-2" x="692.35" y="585.46" width="11.54" height="11.54"/><rect class="bg-2" x="692.35" y="573.92" width="11.54" height="11.54"/><rect class="bg-2" x="692.35" y="562.38" width="11.54" height="11.54"/><rect class="bg-2" x="692.35" y="550.84" width="11.54" height="11.54"/><rect class="bg-2" x="680.81" y="735.46" width="11.54" height="11.54"/><rect class="bg-2" x="680.81" y="597" width="11.54" height="11.53"/><rect class="bg-2" x="680.81" y="573.92" width="11.54" height="11.54"/><rect class="bg-2" x="680.81" y="562.38" width="11.54" height="11.54"/><rect class="bg-2" x="669.27" y="608.53" width="11.54" height="11.54"/><rect class="bg-2" x="669.27" y="597" width="11.54" height="11.53"/><rect class="bg-2" x="669.27" y="573.92" width="11.54" height="11.54"/><rect class="bg-3" x="237.71" y="510.78" width="10.96" height="10.96"/><rect class="bg-3" x="226.75" y="499.83" width="10.96" height="10.95"/><rect class="bg-3" x="226.75" y="455.98" width="10.96" height="10.96"/><rect class="bg-3" x="215.79" y="488.86" width="10.96" height="10.96"/><rect class="bg-3" x="215.79" y="466.94" width="10.96" height="10.96"/><rect class="bg-3" x="215.79" y="455.98" width="10.96" height="10.96"/><rect class="bg-3" x="215.79" y="445.02" width="10.96" height="10.96"/><rect class="bg-3" x="215.79" y="390.22" width="10.96" height="10.96"/><rect class="bg-3" x="215.79" y="379.26" width="10.96" height="10.96"/><rect class="bg-3" x="215.79" y="357.35" width="10.96" height="10.95"/><rect class="bg-3" x="204.83" y="477.9" width="10.96" height="10.96"/><rect class="bg-3" x="204.83" y="466.94" width="10.96" height="10.96"/><rect class="bg-3" x="204.83" y="445.02" width="10.96" height="10.96"/><rect class="bg-3" x="204.83" y="434.07" width="10.96" height="10.95"/><rect class="bg-3" x="204.83" y="379.26" width="10.96" height="10.96"/><rect class="bg-3" x="204.83" y="357.35" width="10.96" height="10.95"/><rect class="bg-3" x="204.83" y="346.38" width="10.96" height="10.96"/><rect class="bg-3" x="193.87" y="466.94" width="10.96" height="10.96"/><rect class="bg-3" x="193.87" y="445.02" width="10.96" height="10.96"/><rect class="bg-3" x="193.87" y="379.26" width="10.96" height="10.96"/><rect class="bg-3" x="193.87" y="368.3" width="10.96" height="10.96"/><rect class="bg-3" x="193.87" y="357.35" width="10.96" height="10.95"/><rect class="bg-3" x="193.87" y="346.38" width="10.96" height="10.96"/><rect class="bg-3" x="193.87" y="335.42" width="10.96" height="10.96"/><rect class="bg-3" x="182.92" y="477.9" width="10.95" height="10.96"/><rect class="bg-3" x="182.92" y="466.94" width="10.95" height="10.96"/><rect class="bg-3" x="182.92" y="445.02" width="10.95" height="10.96"/><rect class="bg-3" x="182.92" y="434.07" width="10.95" height="10.95"/><rect class="bg-3" x="182.92" y="357.35" width="10.95" height="10.95"/><rect class="bg-3" x="182.92" y="346.38" width="10.95" height="10.96"/><rect class="bg-3" x="182.92" y="335.42" width="10.95" height="10.96"/><rect class="bg-3" x="182.92" y="324.46" width="10.95" height="10.96"/><rect class="bg-3" x="171.95" y="488.86" width="10.96" height="10.96"/><rect class="bg-3" x="171.95" y="466.94" width="10.96" height="10.96"/><rect class="bg-3" x="171.95" y="455.98" width="10.96" height="10.96"/><rect class="bg-3" x="171.95" y="445.02" width="10.96" height="10.96"/><rect class="bg-3" x="171.95" y="357.35" width="10.96" height="10.95"/><rect class="bg-3" x="171.95" y="346.38" width="10.96" height="10.96"/><rect class="bg-3" x="171.95" y="335.42" width="10.96" height="10.96"/><rect class="bg-3" x="171.95" y="324.46" width="10.96" height="10.96"/><rect class="bg-3" x="160.99" y="499.83" width="10.96" height="10.95"/><rect class="bg-3" x="160.99" y="455.98" width="10.96" height="10.96"/><rect class="bg-3" x="160.99" y="379.26" width="10.96" height="10.96"/><rect class="bg-3" x="160.99" y="368.3" width="10.96" height="10.96"/><rect class="bg-3" x="160.99" y="357.35" width="10.96" height="10.95"/><rect class="bg-3" x="160.99" y="346.38" width="10.96" height="10.96"/><rect class="bg-3" x="160.99" y="335.42" width="10.96" height="10.96"/><rect class="bg-3" x="150.03" y="510.78" width="10.96" height="10.96"/><rect class="bg-3" x="150.03" y="379.26" width="10.96" height="10.96"/><rect class="bg-3" x="150.03" y="357.35" width="10.96" height="10.95"/><rect class="bg-3" x="150.03" y="346.38" width="10.96" height="10.96"/><rect class="bg-3" x="139.07" y="390.22" width="10.96" height="10.96"/><rect class="bg-3" x="139.07" y="379.26" width="10.96" height="10.96"/><rect class="bg-3" x="139.07" y="357.35" width="10.96" height="10.95"/></g></g></svg>
