<svg xmlns="http://www.w3.org/2000/svg" viewBox="0 0 800 800"><defs><style>.body-1{fill:#f9c;}.body-1,.body-2,.body-3,.body-5{stroke:#000;stroke-miterlimit:10;stroke-width:8px;}.body-2{fill:#fff;}.body-3{fill:#99e2ff;}.body-4{fill:none;}.body-5{fill:#ffe780;}</style></defs><title>2000_body_santa_belt_dood</title><g id="Layer_2" data-name="Layer 2"><g id="_2000_body_santa_belt_dood" data-name="2000_body_santa_belt_dood"><path class="body-1" d="M297.75,309l.58,444c7.89,7.65,50.64,13.49,102.19,13.49s94.3-5.84,102.19-13.49l.92-440.17Z"/><path class="body-2" d="M371.4,361V765.84c9.24.42,19,.65,29.12.65,11.86,0,23.25-.31,33.86-.88V361Z"/><path class="body-3" d="M501.77,633.7s-2.3,6.58-102.1,6.77-100.12-6.77-100.12-6.77V581.38s6.08,9.06,103.82,9.42,98.4-9.42,98.4-9.42Z"/><rect class="body-4" width="800" height="800"/><rect class="body-5" x="349.09" y="571.21" width="113.36" height="83.74" rx="3"/><rect class="body-3" x="370.53" y="588.57" width="70.47" height="49.02" rx="3"/></g></g></svg>
