<svg xmlns="http://www.w3.org/2000/svg" viewBox="0 0 800 800"><defs><style>.body-1{fill:#ccc;}.body-2{fill:#c00;stroke:#c00;}.body-2,.body-3{stroke-miterlimit:10;stroke-width:0.5px;}.body-3{fill:#900;stroke:#900;}.body-4{fill:none;}</style></defs><title>2000_body_8_bit_glitch</title><g id="Layer_2" data-name="Layer 2"><g id="_2000_body_8_bit_glitch" data-name="2000_body_8_bit_glitch"><rect class="body-1" x="300.06" y="358.28" width="198.13" height="398.04"/><rect class="body-2" x="466.93" y="375.76" width="11.77" height="11.76"/><rect class="body-2" x="443.4" y="669.88" width="11.77" height="11.76"/><rect class="body-2" x="443.4" y="693.41" width="11.77" height="11.76"/><rect class="body-2" x="443.4" y="728.7" width="11.77" height="11.76"/><rect class="body-2" x="443.4" y="681.64" width="11.77" height="11.77"/><rect class="body-2" x="443.4" y="705.17" width="11.77" height="11.76"/><rect class="body-2" x="443.4" y="716.93" width="11.77" height="11.77"/><rect class="body-2" x="361.05" y="458.11" width="11.76" height="11.77"/><rect class="body-2" x="349.29" y="458.11" width="11.76" height="11.77"/><rect class="body-2" x="337.52" y="458.11" width="11.77" height="11.77"/><rect class="body-2" x="325.76" y="458.11" width="11.76" height="11.77"/><rect class="body-2" x="313.99" y="458.11" width="11.77" height="11.77"/><rect class="body-2" x="396.34" y="505.17" width="11.77" height="11.76"/><rect class="body-2" x="396.34" y="516.93" width="11.77" height="11.77"/><rect class="body-2" x="396.34" y="481.64" width="11.77" height="11.77"/><rect class="body-2" x="396.34" y="493.41" width="11.77" height="11.76"/><rect class="body-2" x="419.87" y="575.76" width="11.77" height="11.76"/><rect class="body-2" x="419.87" y="634.58" width="11.77" height="11.77"/><rect class="body-2" x="419.87" y="599.29" width="11.77" height="11.76"/><rect class="body-2" x="419.87" y="587.52" width="11.77" height="11.77"/><rect class="body-2" x="419.87" y="611.05" width="11.77" height="11.77"/><rect class="body-2" x="419.87" y="622.82" width="11.77" height="11.76"/><rect class="body-3" x="513.99" y="658.11" width="11.77" height="11.77"/><rect class="body-3" x="513.99" y="646.35" width="11.77" height="11.76"/><rect class="body-3" x="513.99" y="587.52" width="11.77" height="11.77"/><rect class="body-3" x="513.99" y="575.76" width="11.77" height="11.76"/><rect class="body-3" x="513.99" y="563.99" width="11.77" height="11.77"/><rect class="body-3" x="513.99" y="552.23" width="11.77" height="11.76"/><rect class="body-3" x="513.99" y="540.46" width="11.77" height="11.77"/><rect class="body-3" x="513.99" y="528.7" width="11.77" height="11.76"/><rect class="body-3" x="513.99" y="516.93" width="11.77" height="11.77"/><rect class="body-3" x="513.99" y="505.17" width="11.77" height="11.76"/><rect class="body-3" x="513.99" y="493.41" width="11.77" height="11.76"/><rect class="body-3" x="513.99" y="481.64" width="11.77" height="11.77"/><rect class="body-3" x="502.23" y="752.23" width="11.76" height="11.76"/><rect class="body-3" x="502.23" y="740.46" width="11.76" height="11.77"/><rect class="body-3" x="502.23" y="728.7" width="11.76" height="11.76"/><rect class="body-3" x="502.23" y="716.93" width="11.76" height="11.77"/><rect class="body-3" x="502.23" y="705.17" width="11.76" height="11.76"/><rect class="body-3" x="502.23" y="693.41" width="11.76" height="11.76"/><rect class="body-3" x="502.23" y="681.64" width="11.76" height="11.77"/><rect class="body-3" x="502.23" y="669.88" width="11.76" height="11.76"/><rect class="body-3" x="502.23" y="658.11" width="11.76" height="11.77"/><rect class="body-3" x="502.23" y="646.35" width="11.76" height="11.76"/><rect class="body-3" x="502.23" y="634.58" width="11.76" height="11.77"/><rect class="body-3" x="502.23" y="622.82" width="11.76" height="11.76"/><rect class="body-3" x="502.23" y="611.05" width="11.76" height="11.77"/><rect class="body-3" x="502.23" y="599.29" width="11.76" height="11.76"/><rect class="body-3" x="502.23" y="587.52" width="11.76" height="11.77"/><rect class="body-3" x="502.23" y="575.76" width="11.76" height="11.76"/><rect class="body-3" x="502.23" y="563.99" width="11.76" height="11.77"/><rect class="body-3" x="502.23" y="552.23" width="11.76" height="11.76"/><rect class="body-3" x="502.23" y="540.46" width="11.76" height="11.77"/><rect class="body-3" x="502.23" y="528.7" width="11.76" height="11.76"/><rect class="body-3" x="502.23" y="516.93" width="11.76" height="11.77"/><rect class="body-3" x="502.23" y="505.17" width="11.76" height="11.76"/><rect class="body-3" x="502.23" y="493.41" width="11.76" height="11.76"/><rect class="body-3" x="502.23" y="481.64" width="11.76" height="11.77"/><rect class="body-3" x="502.23" y="469.88" width="11.76" height="11.76"/><rect class="body-3" x="502.23" y="458.11" width="11.76" height="11.77"/><rect class="body-3" x="502.23" y="446.35" width="11.76" height="11.76"/><rect class="body-3" x="502.23" y="434.58" width="11.76" height="11.77"/><rect class="body-3" x="502.23" y="422.82" width="11.76" height="11.76"/><rect class="body-3" x="502.23" y="411.05" width="11.76" height="11.77"/><rect class="body-3" x="502.23" y="399.29" width="11.76" height="11.76"/><rect class="body-3" x="502.23" y="387.52" width="11.76" height="11.77"/><rect class="body-3" x="502.23" y="375.76" width="11.76" height="11.76"/><rect class="body-3" x="502.23" y="363.99" width="11.76" height="11.77"/><rect class="body-3" x="502.23" y="352.23" width="11.76" height="11.76"/><rect class="body-3" x="490.46" y="752.23" width="11.77" height="11.76"/><rect class="body-3" x="490.46" y="740.46" width="11.77" height="11.77"/><rect class="body-3" x="490.46" y="728.7" width="11.77" height="11.76"/><rect class="body-3" x="490.46" y="716.93" width="11.77" height="11.77"/><rect class="body-3" x="490.46" y="705.17" width="11.77" height="11.76"/><rect class="body-3" x="490.46" y="693.41" width="11.77" height="11.76"/><rect class="body-3" x="490.46" y="681.64" width="11.77" height="11.77"/><rect class="body-3" x="490.46" y="669.88" width="11.77" height="11.76"/><rect class="body-3" x="490.46" y="658.11" width="11.77" height="11.77"/><rect class="body-3" x="490.46" y="646.35" width="11.77" height="11.76"/><rect class="body-3" x="490.46" y="634.58" width="11.77" height="11.77"/><rect class="body-3" x="490.46" y="622.82" width="11.77" height="11.76"/><rect class="body-3" x="490.46" y="611.05" width="11.77" height="11.77"/><rect class="body-3" x="490.46" y="599.29" width="11.77" height="11.76"/><rect class="body-3" x="490.46" y="587.52" width="11.77" height="11.77"/><rect class="body-3" x="490.46" y="575.76" width="11.77" height="11.76"/><rect class="body-3" x="490.46" y="563.99" width="11.77" height="11.77"/><rect class="body-3" x="490.46" y="552.23" width="11.77" height="11.76"/><rect class="body-3" x="490.46" y="540.46" width="11.77" height="11.77"/><rect class="body-3" x="490.46" y="528.7" width="11.77" height="11.76"/><rect class="body-3" x="490.46" y="516.93" width="11.77" height="11.77"/><rect class="body-3" x="490.46" y="505.17" width="11.77" height="11.76"/><rect class="body-3" x="490.46" y="493.41" width="11.77" height="11.76"/><rect class="body-3" x="490.46" y="481.64" width="11.77" height="11.77"/><rect class="body-3" x="490.46" y="469.88" width="11.77" height="11.76"/><rect class="body-3" x="490.46" y="458.11" width="11.77" height="11.77"/><rect class="body-3" x="490.46" y="446.35" width="11.77" height="11.76"/><rect class="body-3" x="490.46" y="434.58" width="11.77" height="11.77"/><rect class="body-3" x="490.46" y="422.82" width="11.77" height="11.76"/><rect class="body-3" x="490.46" y="411.05" width="11.77" height="11.77"/><rect class="body-3" x="490.46" y="399.29" width="11.77" height="11.76"/><rect class="body-3" x="490.46" y="387.52" width="11.77" height="11.77"/><rect class="body-3" x="490.46" y="375.76" width="11.77" height="11.76"/><rect class="body-3" x="490.46" y="363.99" width="11.77" height="11.77"/><rect class="body-3" x="490.46" y="352.23" width="11.77" height="11.76"/><rect class="body-3" x="478.7" y="752.23" width="11.76" height="11.76"/><rect class="body-3" x="478.7" y="693.41" width="11.76" height="11.76"/><rect class="body-3" x="478.7" y="411.05" width="11.76" height="11.77"/><rect class="body-3" x="478.7" y="399.29" width="11.76" height="11.76"/><rect class="body-3" x="478.7" y="387.52" width="11.76" height="11.77"/><rect class="body-3" x="478.7" y="375.76" width="11.76" height="11.76"/><rect class="body-3" x="478.7" y="352.23" width="11.76" height="11.76"/><rect class="body-3" x="466.93" y="752.23" width="11.77" height="11.76"/><rect class="body-2" x="466.93" y="611.05" width="11.77" height="11.77"/><rect class="body-2" x="466.93" y="599.29" width="11.77" height="11.76"/><rect class="body-2" x="466.93" y="587.52" width="11.77" height="11.77"/><rect class="body-2" x="466.93" y="575.76" width="11.77" height="11.76"/><rect class="body-2" x="466.93" y="563.99" width="11.77" height="11.77"/><rect class="body-2" x="466.93" y="552.23" width="11.77" height="11.76"/><rect class="body-3" x="466.93" y="469.88" width="11.77" height="11.76"/><rect class="body-3" x="466.93" y="458.11" width="11.77" height="11.77"/><rect class="body-3" x="466.93" y="446.35" width="11.77" height="11.76"/><rect class="body-3" x="466.93" y="434.58" width="11.77" height="11.77"/><rect class="body-2" x="466.93" y="399.29" width="11.77" height="11.76"/><rect class="body-3" x="466.93" y="387.52" width="11.77" height="11.77"/><rect class="body-3" x="466.93" y="363.99" width="11.77" height="11.77"/><rect class="body-3" x="455.17" y="763.99" width="11.76" height="11.77"/><rect class="body-3" x="455.17" y="752.23" width="11.76" height="11.76"/><rect class="body-2" x="455.17" y="634.58" width="11.76" height="11.77"/><rect class="body-2" x="455.17" y="622.82" width="11.76" height="11.76"/><rect class="body-2" x="455.17" y="611.05" width="11.76" height="11.77"/><rect class="body-2" x="455.17" y="540.46" width="11.76" height="11.77"/><rect class="body-2" x="455.17" y="528.7" width="11.76" height="11.76"/><rect class="body-2" x="455.17" y="516.93" width="11.76" height="11.77"/><rect class="body-2" x="455.17" y="411.05" width="11.76" height="11.77"/><rect class="body-2" x="455.17" y="399.29" width="11.76" height="11.76"/><rect class="body-3" x="455.17" y="387.52" width="11.76" height="11.77"/><rect class="body-3" x="455.17" y="363.99" width="11.76" height="11.77"/><rect class="body-3" x="443.4" y="763.99" width="11.77" height="11.77"/><rect class="body-3" x="443.4" y="752.23" width="11.77" height="11.76"/><rect class="body-2" x="443.4" y="622.82" width="11.77" height="11.76"/><rect class="body-2" x="443.4" y="611.05" width="11.77" height="11.77"/><rect class="body-2" x="443.4" y="599.29" width="11.77" height="11.76"/><rect class="body-2" x="443.4" y="587.52" width="11.77" height="11.77"/><rect class="body-2" x="443.4" y="575.76" width="11.77" height="11.76"/><rect class="body-2" x="443.4" y="505.17" width="11.77" height="11.76"/><rect class="body-2" x="443.4" y="493.41" width="11.77" height="11.76"/><rect class="body-2" x="443.4" y="481.64" width="11.77" height="11.77"/><rect class="body-2" x="443.4" y="469.88" width="11.77" height="11.76"/><rect class="body-2" x="443.4" y="411.05" width="11.77" height="11.77"/><rect class="body-2" x="443.4" y="399.29" width="11.77" height="11.76"/><rect class="body-3" x="443.4" y="387.52" width="11.77" height="11.77"/><rect class="body-3" x="443.4" y="375.76" width="11.77" height="11.76"/><rect class="body-3" x="431.64" y="763.99" width="11.76" height="11.77"/><rect class="body-3" x="431.64" y="752.23" width="11.76" height="11.76"/><rect class="body-2" x="431.64" y="658.11" width="11.76" height="11.77"/><rect class="body-2" x="431.64" y="646.35" width="11.76" height="11.76"/><rect class="body-2" x="431.64" y="634.58" width="11.76" height="11.77"/><rect class="body-2" x="431.64" y="622.82" width="11.76" height="11.76"/><rect class="body-2" x="431.64" y="563.99" width="11.76" height="11.77"/><rect class="body-2" x="431.64" y="552.23" width="11.76" height="11.76"/><rect class="body-2" x="431.64" y="540.46" width="11.76" height="11.77"/><rect class="body-2" x="431.64" y="481.64" width="11.76" height="11.77"/><rect class="body-2" x="431.64" y="469.88" width="11.76" height="11.76"/><rect class="body-2" x="431.64" y="458.11" width="11.76" height="11.77"/><rect class="body-2" x="431.64" y="446.35" width="11.76" height="11.76"/><rect class="body-2" x="431.64" y="411.05" width="11.76" height="11.77"/><rect class="body-3" x="431.64" y="375.76" width="11.76" height="11.76"/><rect class="body-3" x="419.87" y="775.76" width="11.77" height="11.76"/><rect class="body-3" x="419.87" y="763.99" width="11.77" height="11.77"/><rect class="body-3" x="419.87" y="752.23" width="11.77" height="11.76"/><rect class="body-2" x="419.87" y="728.7" width="11.77" height="11.76"/><rect class="body-2" x="419.87" y="716.93" width="11.77" height="11.77"/><rect class="body-2" x="419.87" y="705.17" width="11.77" height="11.76"/><rect class="body-2" x="419.87" y="693.41" width="11.77" height="11.76"/><rect class="body-2" x="419.87" y="681.64" width="11.77" height="11.77"/><rect class="body-2" x="419.87" y="669.88" width="11.77" height="11.76"/><rect class="body-2" x="419.87" y="658.11" width="11.77" height="11.77"/><rect class="body-2" x="419.87" y="540.46" width="11.77" height="11.77"/><rect class="body-2" x="419.87" y="528.7" width="11.77" height="11.76"/><rect class="body-2" x="419.87" y="516.93" width="11.77" height="11.77"/><rect class="body-2" x="419.87" y="505.17" width="11.77" height="11.76"/><rect class="body-2" x="419.87" y="493.41" width="11.77" height="11.76"/><rect class="body-2" x="419.87" y="481.64" width="11.77" height="11.77"/><rect class="body-2" x="419.87" y="469.88" width="11.77" height="11.76"/><rect class="body-2" x="419.87" y="458.11" width="11.77" height="11.77"/><rect class="body-2" x="419.87" y="446.35" width="11.77" height="11.76"/><rect class="body-2" x="419.87" y="434.58" width="11.77" height="11.77"/><rect class="body-2" x="419.87" y="411.05" width="11.77" height="11.77"/><rect class="body-3" x="419.87" y="375.76" width="11.77" height="11.76"/><rect class="body-3" x="408.11" y="775.76" width="11.76" height="11.76"/><rect class="body-3" x="408.11" y="763.99" width="11.76" height="11.77"/><rect class="body-3" x="408.11" y="752.23" width="11.76" height="11.76"/><rect class="body-3" x="408.11" y="516.93" width="11.76" height="11.77"/><rect class="body-3" x="408.11" y="505.17" width="11.76" height="11.76"/><rect class="body-2" x="408.11" y="458.11" width="11.76" height="11.77"/><rect class="body-2" x="408.11" y="446.35" width="11.76" height="11.76"/><rect class="body-2" x="408.11" y="434.58" width="11.76" height="11.77"/><rect class="body-2" x="408.11" y="411.05" width="11.76" height="11.77"/><rect class="body-3" x="408.11" y="375.76" width="11.76" height="11.76"/><rect class="body-3" x="396.34" y="775.76" width="11.77" height="11.76"/><rect class="body-3" x="396.34" y="763.99" width="11.77" height="11.77"/><rect class="body-3" x="396.34" y="752.23" width="11.77" height="11.76"/><rect class="body-3" x="396.34" y="634.58" width="11.77" height="11.77"/><rect class="body-3" x="396.34" y="622.82" width="11.77" height="11.76"/><rect class="body-3" x="396.34" y="611.05" width="11.77" height="11.77"/><rect class="body-3" x="396.34" y="599.29" width="11.77" height="11.76"/><rect class="body-3" x="396.34" y="587.52" width="11.77" height="11.77"/><rect class="body-3" x="396.34" y="575.76" width="11.77" height="11.76"/><rect class="body-3" x="396.34" y="552.23" width="11.77" height="11.76"/><rect class="body-3" x="396.34" y="540.46" width="11.77" height="11.77"/><rect class="body-2" x="396.34" y="458.11" width="11.77" height="11.77"/><rect class="body-2" x="396.34" y="446.35" width="11.77" height="11.76"/><rect class="body-2" x="396.34" y="411.05" width="11.77" height="11.77"/><rect class="body-2" x="396.34" y="399.29" width="11.77" height="11.76"/><rect class="body-3" x="396.34" y="375.76" width="11.77" height="11.76"/><rect class="body-3" x="384.58" y="775.76" width="11.76" height="11.76"/><rect class="body-3" x="384.58" y="763.99" width="11.76" height="11.77"/><rect class="body-3" x="384.58" y="752.23" width="11.76" height="11.76"/><rect class="body-3" x="384.58" y="705.17" width="11.76" height="11.76"/><rect class="body-3" x="384.58" y="693.41" width="11.76" height="11.76"/><rect class="body-3" x="384.58" y="681.64" width="11.76" height="11.77"/><rect class="body-3" x="384.58" y="669.88" width="11.76" height="11.76"/><rect class="body-3" x="384.58" y="658.11" width="11.76" height="11.77"/><rect class="body-3" x="384.58" y="646.35" width="11.76" height="11.76"/><rect class="body-3" x="384.58" y="634.58" width="11.76" height="11.77"/><rect class="body-3" x="384.58" y="622.82" width="11.76" height="11.76"/><rect class="body-3" x="384.58" y="611.05" width="11.76" height="11.77"/><rect class="body-3" x="384.58" y="599.29" width="11.76" height="11.76"/><rect class="body-2" x="384.58" y="458.11" width="11.76" height="11.77"/><rect class="body-2" x="384.58" y="446.35" width="11.76" height="11.76"/><rect class="body-2" x="384.58" y="411.05" width="11.76" height="11.77"/><rect class="body-2" x="384.58" y="399.29" width="11.76" height="11.76"/><rect class="body-3" x="384.58" y="375.76" width="11.76" height="11.76"/><rect class="body-3" x="372.81" y="775.76" width="11.77" height="11.76"/><rect class="body-3" x="372.81" y="763.99" width="11.77" height="11.77"/><rect class="body-3" x="372.81" y="752.23" width="11.77" height="11.76"/><rect class="body-3" x="372.81" y="740.46" width="11.77" height="11.77"/><rect class="body-3" x="372.81" y="728.7" width="11.77" height="11.76"/><rect class="body-3" x="372.81" y="716.93" width="11.77" height="11.77"/><rect class="body-3" x="372.81" y="669.88" width="11.77" height="11.76"/><rect class="body-3" x="372.81" y="658.11" width="11.77" height="11.77"/><rect class="body-3" x="372.81" y="646.35" width="11.77" height="11.76"/><rect class="body-3" x="372.81" y="634.58" width="11.77" height="11.77"/><rect class="body-3" x="372.81" y="611.05" width="11.77" height="11.77"/><rect class="body-3" x="372.81" y="599.29" width="11.77" height="11.76"/><rect class="body-3" x="372.81" y="587.52" width="11.77" height="11.77"/><rect class="body-3" x="372.81" y="575.76" width="11.77" height="11.76"/><rect class="body-3" x="372.81" y="563.99" width="11.77" height="11.77"/><rect class="body-3" x="372.81" y="552.23" width="11.77" height="11.76"/><rect class="body-3" x="372.81" y="540.46" width="11.77" height="11.77"/><rect class="body-3" x="372.81" y="528.7" width="11.77" height="11.76"/><rect class="body-2" x="372.81" y="458.11" width="11.77" height="11.77"/><rect class="body-2" x="372.81" y="446.35" width="11.77" height="11.76"/><rect class="body-2" x="372.81" y="399.29" width="11.77" height="11.76"/><rect class="body-3" x="372.81" y="375.76" width="11.77" height="11.76"/><rect class="body-3" x="361.05" y="763.99" width="11.76" height="11.77"/><rect class="body-3" x="361.05" y="752.23" width="11.76" height="11.76"/><rect class="body-3" x="361.05" y="740.46" width="11.76" height="11.77"/><rect class="body-3" x="361.05" y="728.7" width="11.76" height="11.76"/><rect class="body-3" x="361.05" y="716.93" width="11.76" height="11.77"/><rect class="body-3" x="361.05" y="705.17" width="11.76" height="11.76"/><rect class="body-3" x="361.05" y="693.41" width="11.76" height="11.76"/><rect class="body-3" x="361.05" y="681.64" width="11.76" height="11.77"/><rect class="body-3" x="361.05" y="669.88" width="11.76" height="11.76"/><rect class="body-3" x="361.05" y="505.17" width="11.76" height="11.76"/><rect class="body-3" x="361.05" y="493.41" width="11.76" height="11.76"/><rect class="body-3" x="361.05" y="481.64" width="11.76" height="11.77"/><rect class="body-2" x="361.05" y="446.35" width="11.76" height="11.76"/><rect class="body-2" x="361.05" y="399.29" width="11.76" height="11.76"/><rect class="body-3" x="361.05" y="375.76" width="11.76" height="11.76"/><rect class="body-3" x="361.05" y="363.99" width="11.76" height="11.77"/><rect class="body-3" x="349.29" y="775.76" width="11.76" height="11.76"/><rect class="body-3" x="349.29" y="763.99" width="11.76" height="11.77"/><rect class="body-3" x="349.29" y="752.23" width="11.76" height="11.76"/><rect class="body-3" x="349.29" y="740.46" width="11.76" height="11.77"/><rect class="body-3" x="349.29" y="728.7" width="11.76" height="11.76"/><rect class="body-3" x="349.29" y="716.93" width="11.76" height="11.77"/><rect class="body-3" x="349.29" y="705.17" width="11.76" height="11.76"/><rect class="body-3" x="349.29" y="693.41" width="11.76" height="11.76"/><rect class="body-3" x="349.29" y="681.64" width="11.76" height="11.77"/><rect class="body-3" x="349.29" y="669.88" width="11.76" height="11.76"/><rect class="body-3" x="349.29" y="658.11" width="11.76" height="11.77"/><rect class="body-3" x="349.29" y="646.35" width="11.76" height="11.76"/><rect class="body-3" x="349.29" y="634.58" width="11.76" height="11.77"/><rect class="body-3" x="349.29" y="622.82" width="11.76" height="11.76"/><rect class="body-3" x="349.29" y="611.05" width="11.76" height="11.77"/><rect class="body-3" x="349.29" y="599.29" width="11.76" height="11.76"/><rect class="body-3" x="349.29" y="481.64" width="11.76" height="11.77"/><rect class="body-2" x="349.29" y="446.35" width="11.76" height="11.76"/><rect class="body-2" x="349.29" y="434.58" width="11.76" height="11.77"/><rect class="body-2" x="349.29" y="399.29" width="11.76" height="11.76"/><rect class="body-2" x="349.29" y="387.52" width="11.76" height="11.77"/><rect class="body-3" x="349.29" y="375.76" width="11.76" height="11.76"/><rect class="body-3" x="349.29" y="363.99" width="11.76" height="11.77"/><rect class="body-3" x="337.52" y="763.99" width="11.77" height="11.77"/><rect class="body-3" x="337.52" y="752.23" width="11.77" height="11.76"/><rect class="body-3" x="337.52" y="740.46" width="11.77" height="11.77"/><rect class="body-3" x="337.52" y="716.93" width="11.77" height="11.77"/><rect class="body-3" x="337.52" y="705.17" width="11.77" height="11.76"/><rect class="body-3" x="337.52" y="693.41" width="11.77" height="11.76"/><rect class="body-3" x="337.52" y="681.64" width="11.77" height="11.77"/><rect class="body-3" x="337.52" y="669.88" width="11.77" height="11.76"/><rect class="body-3" x="337.52" y="658.11" width="11.77" height="11.77"/><rect class="body-3" x="337.52" y="646.35" width="11.77" height="11.76"/><rect class="body-3" x="337.52" y="634.58" width="11.77" height="11.77"/><rect class="body-3" x="337.52" y="622.82" width="11.77" height="11.76"/><rect class="body-3" x="337.52" y="599.29" width="11.77" height="11.76"/><rect class="body-3" x="337.52" y="587.52" width="11.77" height="11.77"/><rect class="body-3" x="337.52" y="575.76" width="11.77" height="11.76"/><rect class="body-3" x="337.52" y="563.99" width="11.77" height="11.77"/><rect class="body-3" x="337.52" y="552.23" width="11.77" height="11.76"/><rect class="body-3" x="337.52" y="540.46" width="11.77" height="11.77"/><rect class="body-3" x="337.52" y="528.7" width="11.77" height="11.76"/><rect class="body-3" x="337.52" y="481.64" width="11.77" height="11.77"/><rect class="body-2" x="337.52" y="446.35" width="11.77" height="11.76"/><rect class="body-2" x="337.52" y="422.82" width="11.77" height="11.76"/><rect class="body-2" x="337.52" y="411.05" width="11.77" height="11.77"/><rect class="body-2" x="337.52" y="399.29" width="11.77" height="11.76"/><rect class="body-2" x="337.52" y="387.52" width="11.77" height="11.77"/><rect class="body-3" x="337.52" y="375.76" width="11.77" height="11.76"/><rect class="body-3" x="337.52" y="352.23" width="11.77" height="11.76"/><rect class="body-3" x="325.76" y="763.99" width="11.76" height="11.77"/><rect class="body-3" x="325.76" y="752.23" width="11.76" height="11.76"/><rect class="body-3" x="325.76" y="740.46" width="11.76" height="11.77"/><rect class="body-3" x="325.76" y="728.7" width="11.76" height="11.76"/><rect class="body-3" x="325.76" y="716.93" width="11.76" height="11.77"/><rect class="body-3" x="325.76" y="705.17" width="11.76" height="11.76"/><rect class="body-3" x="325.76" y="693.41" width="11.76" height="11.76"/><rect class="body-3" x="325.76" y="681.64" width="11.76" height="11.77"/><rect class="body-3" x="325.76" y="669.88" width="11.76" height="11.76"/><rect class="body-3" x="325.76" y="658.11" width="11.76" height="11.77"/><rect class="body-3" x="325.76" y="646.35" width="11.76" height="11.76"/><rect class="body-3" x="325.76" y="516.93" width="11.76" height="11.77"/><rect class="body-3" x="325.76" y="481.64" width="11.76" height="11.77"/><rect class="body-2" x="325.76" y="446.35" width="11.76" height="11.76"/><rect class="body-2" x="325.76" y="434.58" width="11.76" height="11.77"/><rect class="body-2" x="325.76" y="422.82" width="11.76" height="11.76"/><rect class="body-2" x="325.76" y="411.05" width="11.76" height="11.77"/><rect class="body-2" x="325.76" y="399.29" width="11.76" height="11.76"/><rect class="body-2" x="325.76" y="387.52" width="11.76" height="11.77"/><rect class="body-2" x="325.76" y="375.76" width="11.76" height="11.76"/><rect class="body-3" x="325.76" y="352.23" width="11.76" height="11.76"/><rect class="body-3" x="313.99" y="752.23" width="11.77" height="11.76"/><rect class="body-3" x="313.99" y="740.46" width="11.77" height="11.77"/><rect class="body-3" x="313.99" y="728.7" width="11.77" height="11.76"/><rect class="body-3" x="313.99" y="716.93" width="11.77" height="11.77"/><rect class="body-3" x="313.99" y="705.17" width="11.77" height="11.76"/><rect class="body-3" x="313.99" y="693.41" width="11.77" height="11.76"/><rect class="body-3" x="313.99" y="681.64" width="11.77" height="11.77"/><rect class="body-3" x="313.99" y="575.76" width="11.77" height="11.76"/><rect class="body-3" x="313.99" y="493.41" width="11.77" height="11.76"/><rect class="body-3" x="313.99" y="481.64" width="11.77" height="11.77"/><rect class="body-2" x="313.99" y="411.05" width="11.77" height="11.77"/><rect class="body-2" x="313.99" y="399.29" width="11.77" height="11.76"/><rect class="body-2" x="313.99" y="387.52" width="11.77" height="11.77"/><rect class="body-2" x="313.99" y="375.76" width="11.77" height="11.76"/><rect class="body-2" x="313.99" y="363.99" width="11.77" height="11.77"/><rect class="body-3" x="313.99" y="352.23" width="11.77" height="11.76"/><rect class="body-3" x="302.23" y="752.23" width="11.76" height="11.76"/><rect class="body-3" x="302.23" y="740.46" width="11.76" height="11.77"/><rect class="body-3" x="302.23" y="728.7" width="11.76" height="11.76"/><rect class="body-3" x="302.23" y="716.93" width="11.76" height="11.77"/><rect class="body-3" x="302.23" y="705.17" width="11.76" height="11.76"/><rect class="body-3" x="302.23" y="693.41" width="11.76" height="11.76"/><rect class="body-3" x="302.23" y="681.64" width="11.76" height="11.77"/><rect class="body-3" x="302.23" y="669.88" width="11.76" height="11.76"/><rect class="body-3" x="302.23" y="658.11" width="11.76" height="11.77"/><rect class="body-3" x="302.23" y="646.35" width="11.76" height="11.76"/><rect class="body-3" x="302.23" y="634.58" width="11.76" height="11.77"/><rect class="body-3" x="302.23" y="622.82" width="11.76" height="11.76"/><rect class="body-3" x="302.23" y="611.05" width="11.76" height="11.77"/><rect class="body-3" x="302.23" y="599.29" width="11.76" height="11.76"/><rect class="body-3" x="302.23" y="587.52" width="11.76" height="11.77"/><rect class="body-3" x="302.23" y="575.76" width="11.76" height="11.76"/><rect class="body-3" x="302.23" y="563.99" width="11.76" height="11.77"/><rect class="body-3" x="302.23" y="552.23" width="11.76" height="11.76"/><rect class="body-3" x="302.23" y="540.46" width="11.76" height="11.77"/><rect class="body-3" x="302.23" y="528.7" width="11.76" height="11.76"/><rect class="body-3" x="302.23" y="516.93" width="11.76" height="11.77"/><rect class="body-3" x="302.23" y="505.17" width="11.76" height="11.76"/><rect class="body-3" x="302.23" y="493.41" width="11.76" height="11.76"/><rect class="body-3" x="302.23" y="481.64" width="11.76" height="11.77"/><rect class="body-3" x="302.23" y="422.82" width="11.76" height="11.76"/><rect class="body-3" x="302.23" y="411.05" width="11.76" height="11.77"/><rect class="body-3" x="302.23" y="399.29" width="11.76" height="11.76"/><rect class="body-3" x="302.23" y="387.52" width="11.76" height="11.77"/><rect class="body-3" x="302.23" y="375.76" width="11.76" height="11.76"/><rect class="body-2" x="302.23" y="363.99" width="11.76" height="11.77"/><rect class="body-3" x="302.23" y="352.23" width="11.76" height="11.76"/><rect class="body-3" x="290.46" y="752.23" width="11.77" height="11.76"/><rect class="body-3" x="290.46" y="740.46" width="11.77" height="11.77"/><rect class="body-3" x="290.46" y="728.7" width="11.77" height="11.76"/><rect class="body-3" x="290.46" y="716.93" width="11.77" height="11.77"/><rect class="body-3" x="290.46" y="705.17" width="11.77" height="11.76"/><rect class="body-3" x="290.46" y="693.41" width="11.77" height="11.76"/><rect class="body-3" x="290.46" y="681.64" width="11.77" height="11.77"/><rect class="body-3" x="290.46" y="669.88" width="11.77" height="11.76"/><rect class="body-3" x="290.46" y="658.11" width="11.77" height="11.77"/><rect class="body-3" x="290.46" y="646.35" width="11.77" height="11.76"/><rect class="body-3" x="290.46" y="634.58" width="11.77" height="11.77"/><rect class="body-3" x="290.46" y="622.82" width="11.77" height="11.76"/><rect class="body-3" x="290.46" y="611.05" width="11.77" height="11.77"/><rect class="body-3" x="290.46" y="599.29" width="11.77" height="11.76"/><rect class="body-3" x="290.46" y="587.52" width="11.77" height="11.77"/><rect class="body-3" x="290.46" y="575.76" width="11.77" height="11.76"/><rect class="body-3" x="290.46" y="563.99" width="11.77" height="11.77"/><rect class="body-3" x="290.46" y="552.23" width="11.77" height="11.76"/><rect class="body-3" x="290.46" y="540.46" width="11.77" height="11.77"/><rect class="body-3" x="290.46" y="528.7" width="11.77" height="11.76"/><rect class="body-3" x="290.46" y="516.93" width="11.77" height="11.77"/><rect class="body-3" x="290.46" y="505.17" width="11.77" height="11.76"/><rect class="body-3" x="290.46" y="493.41" width="11.77" height="11.76"/><rect class="body-3" x="290.46" y="481.64" width="11.77" height="11.77"/><rect class="body-3" x="290.46" y="469.88" width="11.77" height="11.76"/><rect class="body-3" x="290.46" y="458.11" width="11.77" height="11.77"/><rect class="body-3" x="290.46" y="446.35" width="11.77" height="11.76"/><rect class="body-3" x="290.46" y="434.58" width="11.77" height="11.77"/><rect class="body-3" x="290.46" y="422.82" width="11.77" height="11.76"/><rect class="body-3" x="290.46" y="411.05" width="11.77" height="11.77"/><rect class="body-3" x="290.46" y="399.29" width="11.77" height="11.76"/><rect class="body-3" x="290.46" y="387.52" width="11.77" height="11.77"/><rect class="body-3" x="290.46" y="375.76" width="11.77" height="11.76"/><rect class="body-2" x="290.46" y="363.99" width="11.77" height="11.77"/><rect class="body-3" x="290.46" y="352.23" width="11.77" height="11.76"/><rect class="body-3" x="278.7" y="728.7" width="11.76" height="11.76"/><rect class="body-3" x="278.7" y="716.93" width="11.76" height="11.77"/><rect class="body-3" x="278.7" y="705.17" width="11.76" height="11.76"/><rect class="body-3" x="278.7" y="693.41" width="11.76" height="11.76"/><rect class="body-3" x="278.7" y="681.64" width="11.76" height="11.77"/><rect class="body-3" x="278.7" y="669.88" width="11.76" height="11.76"/><rect class="body-3" x="278.7" y="622.82" width="11.76" height="11.76"/><rect class="body-3" x="278.7" y="611.05" width="11.76" height="11.77"/><rect class="body-3" x="278.7" y="575.76" width="11.76" height="11.76"/><rect class="body-3" x="278.7" y="563.99" width="11.76" height="11.77"/><rect class="body-3" x="278.7" y="552.23" width="11.76" height="11.76"/><rect class="body-3" x="278.7" y="516.93" width="11.76" height="11.77"/><rect class="body-3" x="278.7" y="505.17" width="11.76" height="11.76"/><rect class="body-3" x="278.7" y="493.41" width="11.76" height="11.76"/><rect class="body-3" x="278.7" y="481.64" width="11.76" height="11.77"/><rect class="body-3" x="278.7" y="422.82" width="11.76" height="11.76"/><rect class="body-3" x="278.7" y="411.05" width="11.76" height="11.77"/><rect class="body-3" x="278.7" y="399.29" width="11.76" height="11.76"/><rect class="body-3" x="266.93" y="611.05" width="11.77" height="11.77"/><rect class="body-3" x="266.93" y="599.29" width="11.77" height="11.76"/><rect class="body-3" x="266.93" y="587.52" width="11.77" height="11.77"/><rect class="body-4" width="800" height="800"/></g></g></svg>
