<svg xmlns="http://www.w3.org/2000/svg" viewBox="0 0 800 800"><defs><style>.body-1{fill:none;}.body-2{fill:#f9c;}.body-2,.body-3,.body-4,.body-5{stroke:#000;stroke-miterlimit:10;stroke-width:8px;}.body-3{fill:#fff;}.body-4{fill:#99e2ff;}.body-5{fill:#ffe780;}</style></defs><title>2000_body_santa_belt_dood</title><g id="Layer_2" data-name="Layer 2"><g id="_2000_body_santa_belt_dood" data-name="2000_body_santa_belt_dood"><rect class="body-1" width="800" height="800"/><path class="body-2" d="M297.75,309l.58,444c7.89,7.65,50.64,13.49,102.19,13.49s94.3-5.84,102.19-13.49l.92-440.17Z"/><path class="body-3" d="M431.55,683a25.64,25.64,0,0,0-9.77-19.19,22.46,22.46,0,0,0,7.88-17.6,25.79,25.79,0,0,0-8.37-18,21.61,21.61,0,0,0,4.6-14.06,25.73,25.73,0,0,0-8.73-18.33c7-4.3,11.93-11.91,11.56-20.35a25.9,25.9,0,0,0-6.89-16.56,21.73,21.73,0,0,0,5-14.57,26,26,0,0,0-5.94-15.5A21.14,21.14,0,0,0,424,517a26.38,26.38,0,0,0-2.43-10c6.13-4.43,10.33-11.51,10-19.29a26.09,26.09,0,0,0-5.75-15.27,21.38,21.38,0,0,0,3.86-13,25.31,25.31,0,0,0-12.89-21.21c6.17-4.42,10.41-11.53,10.06-19.35-.58-13-10.55-24-24-24-12.55,0-24.58,11-24,24a25.31,25.31,0,0,0,12.89,21.21c-6.17,4.42-10.41,11.54-10.06,19.35a26,26,0,0,0,5.75,15.27,21.31,21.31,0,0,0-3.86,13,26.43,26.43,0,0,0,2.43,9.95c-6.13,4.42-10.33,11.51-10,19.29a26,26,0,0,0,5.94,15.5,21.14,21.14,0,0,0-3.11,11.86,25.89,25.89,0,0,0,6.88,16.56,21.73,21.73,0,0,0-5,14.57,25.72,25.72,0,0,0,8.72,18.34c-7,4.29-11.93,11.91-11.55,20.34a25.75,25.75,0,0,0,8.37,18,21.61,21.61,0,0,0-4.6,14.06,25.66,25.66,0,0,0,9.76,19.18A22.46,22.46,0,0,0,383.55,683a26.28,26.28,0,0,0,2.68,10.48c-5.75,4.44-9.62,11.28-9.29,18.76a25.61,25.61,0,0,0,10.29,19.58,22.39,22.39,0,0,0-7.46,17.22,25.85,25.85,0,0,0,7.61,17.3c4.3.08,8.69.13,13.14.13,6.8,0,13.45-.11,19.88-.3a22.32,22.32,0,0,0,7.37-17.13,25.57,25.57,0,0,0-10.29-19.58,22.31,22.31,0,0,0,7.46-17.22,26.24,26.24,0,0,0-2.68-10.47C428,697.34,431.88,690.5,431.55,683Z"/><path class="body-4" d="M400,594.65c-44.11,0-82.85-3.89-104.85-9.76v60.26c22,5.86,60.74,9.75,104.85,9.75s82.85-3.89,104.85-9.75V584.89C482.85,590.76,444.11,594.65,400,594.65Z"/><rect class="body-5" x="351" y="584.85" width="99.06" height="76.34" rx="6.39"/><rect class="body-4" x="368.4" y="598.27" width="64.25" height="49.52"/></g></g></svg>
