<svg xmlns="http://www.w3.org/2000/svg" viewBox="0 0 800 800"><defs><style>.hat-1{fill:#ffead2;stroke:#000;stroke-miterlimit:10;stroke-width:8px;}.hat-2{fill:none;}</style></defs><title>4000_hat_reindeer_horns_dood</title><g id="Layer_2" data-name="Layer 2"><g id="_4000_hat_reindeer_horns_dood" data-name="4000_hat_reindeer_horns_dood"><path class="hat-1" d="M288,129.89c-8.29-12.23-19.39-23.56-30.25-33.61-9-8.31-20.93-14-26.36-25.22-5.32-11-6.63-24.58-.59-35.65,2-3.7,5.4-7.25,9.61-7.23,4,0,7.42,3.5,8.63,7.36s.7,8,.08,12-1.34,8.09-.55,12.06c.53,2.63,2.42,5.56,5.09,5.27,2.24-.24,3.63-2.72,3.64-5s-.95-4.37-1.55-6.54c-1.37-4.9-.5-10.94,3.7-13.81,1.92-1.31,3.48-2.76,5.9-1.46,1.36.72,2.52,1.86,4,2.24,4.58,1.14,8.28-5.26,12.58-1.55s2.78,11.08.48,15.26c-2,3.69-4.82,7-5.94,11.08a9.76,9.76,0,0,0,.33,6.76,5.9,5.9,0,0,0,5.51,3.45c3-.26,5.07-3.31,5.5-6.29,1.09-7.43-4.54-20,5.8-23.23a9.46,9.46,0,0,1,8.85,1.84c1.58,1.37,2.75,3.3,4.68,4.08,2.43,1,5.17-.18,7.77,0,18.26,1.33-6.59,32.39-7,39.47a52.35,52.35,0,0,0,8.62,30.91c4.77,7.46,9.25,15.23,14.36,22.46,1.07,1.52,4.75,4.32,4.36,6.14-.42,2-7.85,5.47-9.58,6.63l-8.18,5.47c-4.11,2.76-11.6-10.5-14.24-13.64C298,142.91,292.63,136.69,288,129.89Z"/><path class="hat-1" d="M504.92,130.21c7.65-12.63,18.16-24.51,28.49-35.11,8.55-8.75,20.18-15.1,25-26.54,4.75-11.23,5.36-24.89-1.24-35.63-2.21-3.59-5.76-7-10-6.73-4,.23-7.24,3.87-8.24,7.79s-.29,8,.53,12,1.76,8,1.17,12c-.39,2.66-2.13,5.67-4.82,5.53-2.25-.13-3.76-2.54-3.88-4.78s.72-4.42,1.21-6.61c1.11-5-.06-11-4.41-13.61-2-1.2-3.61-2.57-6-1.16-1.32.8-2.42,2-3.89,2.44-4.52,1.38-8.54-4.82-12.65-.9s-2.2,11.22.31,15.27c2.21,3.58,5.17,6.77,6.49,10.76a9.71,9.71,0,0,1,0,6.76,5.86,5.86,0,0,1-5.32,3.73c-3-.1-5.24-3-5.82-6-1.46-7.37,3.51-20.21-7-22.91a9.49,9.49,0,0,0-8.75,2.3c-1.5,1.44-2.57,3.43-4.46,4.31-2.37,1.1-5.17.08-7.76.41-18.17,2.26,8.24,32,9,39.06a52.34,52.34,0,0,1-7,31.31l-11.37,20c-1.59,2.81-4.29,5.55-3,8.55,1.1,2.51,5.32,5.38,7.55,6.83,2.44,1.59,9.06,5,12.08,3.6,2.73-1.28,5.66-7.67,7.52-10.16C494.34,145.33,500.13,138.12,504.92,130.21Z"/><rect class="hat-2" width="800" height="800"/></g></g></svg>
