<svg xmlns="http://www.w3.org/2000/svg" viewBox="0 0 800 800"><defs><style>.hat-1{fill:#ffa4d4;}.hat-1,.hat-2{stroke:#000;stroke-miterlimit:10;stroke-width:8px;}.hat-2{fill:#fff;}.hat-3{fill:none;}</style></defs><title>4000_hat_red_triangle_dood</title><g id="Layer_2" data-name="Layer 2"><g id="_4000_hat_red_triangle_dood" data-name="4000_hat_red_triangle_dood"><polygon class="hat-1" points="403.15 16.7 302.04 155.04 504.25 155.04 403.15 16.7"/><path class="hat-2" d="M504.64,165.41a14.84,14.84,0,0,1-7.5,4.07c-8.76,2.17-181.77,1.46-198,.2-11.1-.87-7.42-14.35-7.42-22.75a24.06,24.06,0,0,1,24-24.06h38.16c13,0,24.08.72,35.76,7.26,7.06,4,9.82,12,12.05,19.62-1.37-4.69,15.39-16.15,18.68-18.11,6.64-3.95,15.35-7.52,23-8.71,13.15-2.06,28.05-.06,41.44-.06a24.06,24.06,0,0,1,24.05,24.06C508.91,154.17,508.78,161,504.64,165.41Z"/><rect class="hat-3" width="800" height="800"/></g></g></svg>
