<svg xmlns="http://www.w3.org/2000/svg" viewBox="0 0 800 800"><defs><style>.hat-1{fill:#7dee94;stroke:#000;stroke-miterlimit:10;stroke-width:8px;}.hat-2{fill:none;}</style></defs><title>4000_hat_green_elf_dood</title><g id="Layer_2" data-name="Layer 2"><g id="_4000_hat_green_elf_dood" data-name="4000_hat_green_elf_dood"><polygon class="hat-1" points="403.15 16.7 302.04 155.04 504.25 155.04 403.15 16.7"/><path class="hat-1" d="M508.12,138.6a30.92,30.92,0,0,0-4.25-9c-5-7-12.39-11.21-18.08-17.47l-11-12.11-24.71,27.17L425.37,100l-24.71,27.17L376,100l-24.7,27.17L326.54,100c.17.18-1,1.59-15.92,18-2.36,2.59-10.86,11.21-12.61,14.11A55.09,55.09,0,0,0,290.82,151c-1.29,7.25-1.28,17.93,8.32,18.68,16.23,1.26,189.24,2,198-.2a14,14,0,0,0,7.16-4.37C510.19,158.49,510.79,147.63,508.12,138.6Z"/><rect class="hat-2" width="800" height="800"/></g></g></svg>
