<svg xmlns="http://www.w3.org/2000/svg" viewBox="0 0 800 800"><defs><style>.hat-1,.hat-2{fill:#f90;}.hat-1{stroke:#f90;stroke-miterlimit:10;}.hat-3{fill:none;}</style></defs><title>4000_hat_8_bit_face</title><g id="Layer_2" data-name="Layer 2"><g id="_4000_hat_8_bit_face" data-name="4000_hat_8_bit_face"><rect class="hat-1" x="506.31" y="297.82" width="11.77" height="11.76"/><rect class="hat-1" x="518.08" y="274.29" width="11.76" height="11.77"/><rect class="hat-1" x="506.31" y="274.29" width="11.77" height="11.77"/><rect class="hat-1" x="506.31" y="286.06" width="11.77" height="11.76"/><rect class="hat-1" x="518.08" y="191.94" width="11.76" height="11.76"/><rect class="hat-1" x="529.84" y="191.94" width="11.77" height="11.76"/><rect class="hat-1" x="541.61" y="191.94" width="11.76" height="11.76"/><rect class="hat-1" x="541.61" y="203.7" width="11.76" height="11.77"/><rect class="hat-1" x="282.78" y="309.58" width="11.77" height="11.77"/><rect class="hat-1" x="282.78" y="297.82" width="11.77" height="11.76"/><rect class="hat-1" x="271.02" y="286.06" width="11.76" height="11.76"/><rect class="hat-1" x="282.78" y="286.06" width="11.77" height="11.76"/><rect class="hat-1" x="282.78" y="274.29" width="11.77" height="11.77"/><rect class="hat-1" x="271.02" y="274.29" width="11.76" height="11.77"/><rect class="hat-1" x="247.49" y="203.7" width="11.77" height="11.77"/><rect class="hat-1" x="494.55" y="133.11" width="11.76" height="11.77"/><rect class="hat-1" x="494.55" y="121.35" width="11.76" height="11.76"/><rect class="hat-1" x="482.78" y="121.35" width="11.77" height="11.76"/><rect class="hat-1" x="471.02" y="121.35" width="11.76" height="11.76"/><rect class="hat-1" x="318.08" y="121.35" width="11.76" height="11.76"/><rect class="hat-1" x="306.31" y="121.35" width="11.77" height="11.76"/><rect class="hat-1" x="294.55" y="121.35" width="11.76" height="11.76"/><rect class="hat-1" x="541.61" y="250.76" width="11.76" height="11.77"/><rect class="hat-1" x="541.61" y="239" width="11.76" height="11.76"/><rect class="hat-1" x="541.61" y="227.23" width="11.76" height="11.77"/><rect class="hat-1" x="541.61" y="215.47" width="11.76" height="11.76"/><rect class="hat-1" x="529.84" y="262.53" width="11.77" height="11.76"/><rect class="hat-1" x="529.84" y="250.76" width="11.77" height="11.77"/><rect class="hat-1" x="529.84" y="239" width="11.77" height="11.76"/><rect class="hat-1" x="529.84" y="227.23" width="11.77" height="11.77"/><rect class="hat-1" x="529.84" y="215.47" width="11.77" height="11.76"/><rect class="hat-1" x="529.84" y="203.7" width="11.77" height="11.77"/><rect class="hat-1" x="518.08" y="262.53" width="11.76" height="11.76"/><rect class="hat-1" x="518.08" y="250.76" width="11.76" height="11.77"/><rect class="hat-1" x="518.08" y="239" width="11.76" height="11.76"/><rect class="hat-1" x="518.08" y="227.23" width="11.76" height="11.77"/><rect class="hat-1" x="518.08" y="215.47" width="11.76" height="11.76"/><rect class="hat-1" x="518.08" y="203.7" width="11.76" height="11.77"/><rect class="hat-1" x="506.31" y="262.53" width="11.77" height="11.76"/><rect class="hat-1" x="506.31" y="250.76" width="11.77" height="11.77"/><rect class="hat-1" x="506.31" y="239" width="11.77" height="11.76"/><rect class="hat-1" x="506.31" y="227.23" width="11.77" height="11.77"/><rect class="hat-1" x="506.31" y="215.47" width="11.77" height="11.76"/><rect class="hat-1" x="506.31" y="203.7" width="11.77" height="11.77"/><rect class="hat-1" x="506.31" y="191.94" width="11.77" height="11.76"/><rect class="hat-1" x="494.55" y="368.41" width="11.76" height="11.76"/><rect class="hat-1" x="494.55" y="356.64" width="11.76" height="11.77"/><rect class="hat-1" x="494.55" y="344.88" width="11.76" height="11.76"/><rect class="hat-1" x="494.55" y="333.11" width="11.76" height="11.77"/><rect class="hat-1" x="494.55" y="321.35" width="11.76" height="11.76"/><rect class="hat-1" x="494.55" y="309.58" width="11.76" height="11.77"/><rect class="hat-1" x="494.55" y="297.82" width="11.76" height="11.76"/><rect class="hat-1" x="494.55" y="286.06" width="11.76" height="11.76"/><rect class="hat-1" x="494.55" y="274.29" width="11.76" height="11.77"/><rect class="hat-1" x="494.55" y="262.53" width="11.76" height="11.76"/><rect class="hat-1" x="494.55" y="250.76" width="11.76" height="11.77"/><rect class="hat-1" x="494.55" y="239" width="11.76" height="11.76"/><rect class="hat-1" x="494.55" y="227.23" width="11.76" height="11.77"/><rect class="hat-1" x="494.55" y="215.47" width="11.76" height="11.76"/><rect class="hat-1" x="494.55" y="203.7" width="11.76" height="11.77"/><rect class="hat-1" x="494.55" y="191.94" width="11.76" height="11.76"/><rect class="hat-1" x="494.55" y="180.17" width="11.76" height="11.77"/><rect class="hat-1" x="494.55" y="168.41" width="11.76" height="11.76"/><rect class="hat-1" x="494.55" y="156.64" width="11.76" height="11.77"/><rect class="hat-1" x="494.55" y="144.88" width="11.76" height="11.76"/><rect class="hat-1" x="482.78" y="380.17" width="11.77" height="11.77"/><rect class="hat-1" x="482.78" y="368.41" width="11.77" height="11.76"/><rect class="hat-1" x="482.78" y="356.64" width="11.77" height="11.77"/><rect class="hat-1" x="482.78" y="344.88" width="11.77" height="11.76"/><rect class="hat-1" x="482.78" y="333.11" width="11.77" height="11.77"/><rect class="hat-1" x="482.78" y="321.35" width="11.77" height="11.76"/><rect class="hat-1" x="482.78" y="309.58" width="11.77" height="11.77"/><rect class="hat-1" x="482.78" y="297.82" width="11.77" height="11.76"/><rect class="hat-1" x="482.78" y="286.06" width="11.77" height="11.76"/><rect class="hat-1" x="482.78" y="274.29" width="11.77" height="11.77"/><rect class="hat-1" x="482.78" y="262.53" width="11.77" height="11.76"/><rect class="hat-1" x="482.78" y="250.76" width="11.77" height="11.77"/><rect class="hat-1" x="482.78" y="239" width="11.77" height="11.76"/><rect class="hat-1" x="482.78" y="227.23" width="11.77" height="11.77"/><rect class="hat-1" x="482.78" y="215.47" width="11.77" height="11.76"/><rect class="hat-1" x="482.78" y="203.7" width="11.77" height="11.77"/><rect class="hat-1" x="482.78" y="191.94" width="11.77" height="11.76"/><rect class="hat-1" x="482.78" y="180.17" width="11.77" height="11.77"/><rect class="hat-1" x="482.78" y="168.41" width="11.77" height="11.76"/><rect class="hat-1" x="482.78" y="156.64" width="11.77" height="11.77"/><rect class="hat-1" x="482.78" y="144.88" width="11.77" height="11.76"/><rect class="hat-1" x="482.78" y="133.11" width="11.77" height="11.77"/><rect class="hat-1" x="471.02" y="380.17" width="11.76" height="11.77"/><rect class="hat-1" x="471.02" y="368.41" width="11.76" height="11.76"/><rect class="hat-1" x="471.02" y="356.64" width="11.76" height="11.77"/><rect class="hat-1" x="471.02" y="344.88" width="11.76" height="11.76"/><rect class="hat-1" x="471.02" y="333.11" width="11.76" height="11.77"/><rect class="hat-1" x="471.02" y="321.35" width="11.76" height="11.76"/><rect class="hat-1" x="471.02" y="309.58" width="11.76" height="11.77"/><rect class="hat-1" x="471.02" y="297.82" width="11.76" height="11.76"/><rect class="hat-1" x="471.02" y="286.06" width="11.76" height="11.76"/><rect class="hat-1" x="471.02" y="274.29" width="11.76" height="11.77"/><rect class="hat-1" x="471.02" y="262.53" width="11.76" height="11.76"/><rect class="hat-1" x="471.02" y="250.76" width="11.76" height="11.77"/><rect class="hat-1" x="471.02" y="239" width="11.76" height="11.76"/><rect class="hat-1" x="471.02" y="227.23" width="11.76" height="11.77"/><rect class="hat-1" x="471.02" y="215.47" width="11.76" height="11.76"/><rect class="hat-1" x="471.02" y="203.7" width="11.76" height="11.77"/><rect class="hat-1" x="471.02" y="191.94" width="11.76" height="11.76"/><rect class="hat-1" x="471.02" y="180.17" width="11.76" height="11.77"/><rect class="hat-1" x="471.02" y="168.41" width="11.76" height="11.76"/><rect class="hat-1" x="471.02" y="156.64" width="11.76" height="11.77"/><rect class="hat-1" x="471.02" y="144.88" width="11.76" height="11.76"/><rect class="hat-1" x="471.02" y="133.11" width="11.76" height="11.77"/><rect class="hat-1" x="459.26" y="391.94" width="11.76" height="11.76"/><rect class="hat-1" x="459.26" y="380.17" width="11.76" height="11.77"/><rect class="hat-1" x="459.26" y="368.41" width="11.76" height="11.76"/><rect class="hat-1" x="459.26" y="356.64" width="11.76" height="11.77"/><rect class="hat-1" x="459.26" y="344.88" width="11.76" height="11.76"/><rect class="hat-1" x="459.26" y="333.11" width="11.76" height="11.77"/><rect class="hat-1" x="459.26" y="321.35" width="11.76" height="11.76"/><rect class="hat-1" x="459.26" y="309.58" width="11.76" height="11.77"/><rect class="hat-1" x="459.26" y="297.82" width="11.76" height="11.76"/><rect class="hat-1" x="459.26" y="286.06" width="11.76" height="11.76"/><rect class="hat-1" x="459.26" y="274.29" width="11.76" height="11.77"/><rect class="hat-1" x="459.26" y="262.53" width="11.76" height="11.76"/><rect class="hat-1" x="459.26" y="250.76" width="11.76" height="11.77"/><rect class="hat-1" x="459.26" y="239" width="11.76" height="11.76"/><rect class="hat-1" x="459.26" y="227.23" width="11.76" height="11.77"/><rect class="hat-1" x="459.26" y="215.47" width="11.76" height="11.76"/><rect class="hat-1" x="459.26" y="203.7" width="11.76" height="11.77"/><rect class="hat-1" x="459.26" y="191.94" width="11.76" height="11.76"/><rect class="hat-1" x="459.26" y="180.17" width="11.76" height="11.77"/><rect class="hat-1" x="459.26" y="168.41" width="11.76" height="11.76"/><rect class="hat-1" x="459.26" y="156.64" width="11.76" height="11.77"/><rect class="hat-1" x="459.26" y="144.88" width="11.76" height="11.76"/><rect class="hat-1" x="459.26" y="133.11" width="11.76" height="11.77"/><rect class="hat-1" x="459.26" y="121.35" width="11.76" height="11.76"/><rect class="hat-1" x="447.49" y="391.94" width="11.77" height="11.76"/><rect class="hat-1" x="447.49" y="380.17" width="11.77" height="11.77"/><rect class="hat-1" x="447.49" y="368.41" width="11.77" height="11.76"/><rect class="hat-1" x="447.49" y="356.64" width="11.77" height="11.77"/><rect class="hat-1" x="447.49" y="344.88" width="11.77" height="11.76"/><rect class="hat-1" x="447.49" y="333.11" width="11.77" height="11.77"/><rect class="hat-1" x="447.49" y="321.35" width="11.77" height="11.76"/><rect class="hat-1" x="447.49" y="309.58" width="11.77" height="11.77"/><rect class="hat-1" x="447.49" y="297.82" width="11.77" height="11.76"/><rect class="hat-1" x="447.49" y="286.06" width="11.77" height="11.76"/><rect class="hat-1" x="447.49" y="274.29" width="11.77" height="11.77"/><rect class="hat-1" x="447.49" y="262.53" width="11.77" height="11.76"/><rect class="hat-1" x="447.49" y="250.76" width="11.77" height="11.77"/><rect class="hat-1" x="447.49" y="239" width="11.77" height="11.76"/><rect class="hat-1" x="447.49" y="227.23" width="11.77" height="11.77"/><rect class="hat-1" x="447.49" y="215.47" width="11.77" height="11.76"/><rect class="hat-1" x="447.49" y="203.7" width="11.77" height="11.77"/><rect class="hat-1" x="447.49" y="191.94" width="11.77" height="11.76"/><rect class="hat-1" x="447.49" y="180.17" width="11.77" height="11.77"/><rect class="hat-1" x="447.49" y="168.41" width="11.77" height="11.76"/><rect class="hat-1" x="447.49" y="156.64" width="11.77" height="11.77"/><rect class="hat-1" x="447.49" y="144.88" width="11.77" height="11.76"/><rect class="hat-1" x="447.49" y="133.11" width="11.77" height="11.77"/><rect class="hat-1" x="447.49" y="121.35" width="11.77" height="11.76"/><rect class="hat-1" x="447.49" y="109.58" width="11.77" height="11.77"/><rect class="hat-1" x="435.73" y="403.7" width="11.76" height="11.77"/><rect class="hat-1" x="435.73" y="391.94" width="11.76" height="11.76"/><rect class="hat-1" x="435.73" y="380.17" width="11.76" height="11.77"/><rect class="hat-1" x="435.73" y="368.41" width="11.76" height="11.76"/><rect class="hat-1" x="435.73" y="356.64" width="11.76" height="11.77"/><rect class="hat-1" x="435.73" y="344.88" width="11.76" height="11.76"/><rect class="hat-1" x="435.73" y="333.11" width="11.76" height="11.77"/><rect class="hat-1" x="435.73" y="321.35" width="11.76" height="11.76"/><rect class="hat-1" x="435.73" y="309.58" width="11.76" height="11.77"/><rect class="hat-1" x="435.73" y="297.82" width="11.76" height="11.76"/><rect class="hat-1" x="435.73" y="286.06" width="11.76" height="11.76"/><rect class="hat-1" x="435.73" y="274.29" width="11.76" height="11.77"/><rect class="hat-1" x="435.73" y="262.53" width="11.76" height="11.76"/><rect class="hat-1" x="435.73" y="250.76" width="11.76" height="11.77"/><rect class="hat-1" x="435.73" y="239" width="11.76" height="11.76"/><rect class="hat-1" x="435.73" y="227.23" width="11.76" height="11.77"/><rect class="hat-1" x="435.73" y="215.47" width="11.76" height="11.76"/><rect class="hat-1" x="435.73" y="203.7" width="11.76" height="11.77"/><rect class="hat-1" x="435.73" y="191.94" width="11.76" height="11.76"/><rect class="hat-1" x="435.73" y="180.17" width="11.76" height="11.77"/><rect class="hat-1" x="435.73" y="168.41" width="11.76" height="11.76"/><rect class="hat-1" x="435.73" y="156.64" width="11.76" height="11.77"/><rect class="hat-1" x="435.73" y="144.88" width="11.76" height="11.76"/><rect class="hat-1" x="435.73" y="133.11" width="11.76" height="11.77"/><rect class="hat-1" x="435.73" y="121.35" width="11.76" height="11.76"/><rect class="hat-1" x="435.73" y="109.58" width="11.76" height="11.77"/><rect class="hat-1" x="423.96" y="403.7" width="11.77" height="11.77"/><rect class="hat-1" x="423.96" y="391.94" width="11.77" height="11.76"/><rect class="hat-1" x="423.96" y="380.17" width="11.77" height="11.77"/><rect class="hat-1" x="423.96" y="368.41" width="11.77" height="11.76"/><rect class="hat-1" x="423.96" y="356.64" width="11.77" height="11.77"/><rect class="hat-1" x="423.96" y="344.88" width="11.77" height="11.76"/><rect class="hat-1" x="423.96" y="333.11" width="11.77" height="11.77"/><rect class="hat-1" x="423.96" y="321.35" width="11.77" height="11.76"/><rect class="hat-1" x="423.96" y="309.58" width="11.77" height="11.77"/><rect class="hat-1" x="423.96" y="297.82" width="11.77" height="11.76"/><rect class="hat-1" x="423.96" y="286.06" width="11.77" height="11.76"/><rect class="hat-1" x="423.96" y="274.29" width="11.77" height="11.77"/><rect class="hat-1" x="423.96" y="262.53" width="11.77" height="11.76"/><rect class="hat-1" x="423.96" y="250.76" width="11.77" height="11.77"/><rect class="hat-1" x="423.96" y="239" width="11.77" height="11.76"/><rect class="hat-1" x="423.96" y="227.23" width="11.77" height="11.77"/><rect class="hat-1" x="423.96" y="215.47" width="11.77" height="11.76"/><rect class="hat-1" x="423.96" y="203.7" width="11.77" height="11.77"/><rect class="hat-1" x="423.96" y="191.94" width="11.77" height="11.76"/><rect class="hat-1" x="423.96" y="180.17" width="11.77" height="11.77"/><rect class="hat-1" x="423.96" y="168.41" width="11.77" height="11.76"/><rect class="hat-1" x="423.96" y="156.64" width="11.77" height="11.77"/><rect class="hat-1" x="423.96" y="144.88" width="11.77" height="11.76"/><rect class="hat-1" x="423.96" y="133.11" width="11.77" height="11.77"/><rect class="hat-1" x="423.96" y="121.35" width="11.77" height="11.76"/><rect class="hat-1" x="423.96" y="109.58" width="11.77" height="11.77"/><rect class="hat-1" x="412.2" y="403.7" width="11.76" height="11.77"/><rect class="hat-1" x="412.2" y="391.94" width="11.76" height="11.76"/><rect class="hat-1" x="412.2" y="380.17" width="11.76" height="11.77"/><rect class="hat-1" x="412.2" y="368.41" width="11.76" height="11.76"/><rect class="hat-1" x="412.2" y="356.64" width="11.76" height="11.77"/><rect class="hat-1" x="412.2" y="344.88" width="11.76" height="11.76"/><rect class="hat-1" x="412.2" y="333.11" width="11.76" height="11.77"/><rect class="hat-1" x="412.2" y="321.35" width="11.76" height="11.76"/><rect class="hat-1" x="412.2" y="309.58" width="11.76" height="11.77"/><rect class="hat-1" x="412.2" y="297.82" width="11.76" height="11.76"/><rect class="hat-1" x="412.2" y="286.06" width="11.76" height="11.76"/><rect class="hat-1" x="412.2" y="274.29" width="11.76" height="11.77"/><rect class="hat-1" x="412.2" y="262.53" width="11.76" height="11.76"/><rect class="hat-1" x="412.2" y="250.76" width="11.76" height="11.77"/><rect class="hat-1" x="412.2" y="239" width="11.76" height="11.76"/><rect class="hat-1" x="412.2" y="227.23" width="11.76" height="11.77"/><rect class="hat-1" x="412.2" y="215.47" width="11.76" height="11.76"/><rect class="hat-1" x="412.2" y="203.7" width="11.76" height="11.77"/><rect class="hat-1" x="412.2" y="191.94" width="11.76" height="11.76"/><rect class="hat-1" x="412.2" y="180.17" width="11.76" height="11.77"/><rect class="hat-1" x="412.2" y="168.41" width="11.76" height="11.76"/><rect class="hat-1" x="412.2" y="156.64" width="11.76" height="11.77"/><rect class="hat-1" x="412.2" y="144.88" width="11.76" height="11.76"/><rect class="hat-1" x="412.2" y="133.11" width="11.76" height="11.77"/><rect class="hat-1" x="412.2" y="121.35" width="11.76" height="11.76"/><rect class="hat-1" x="412.2" y="109.58" width="11.76" height="11.77"/><rect class="hat-1" x="400.43" y="403.7" width="11.77" height="11.77"/><rect class="hat-1" x="400.43" y="391.94" width="11.77" height="11.76"/><rect class="hat-1" x="400.43" y="380.17" width="11.77" height="11.77"/><rect class="hat-1" x="400.43" y="368.41" width="11.77" height="11.76"/><rect class="hat-1" x="400.43" y="356.64" width="11.77" height="11.77"/><rect class="hat-1" x="400.43" y="344.88" width="11.77" height="11.76"/><rect class="hat-1" x="400.43" y="333.11" width="11.77" height="11.77"/><rect class="hat-1" x="400.43" y="321.35" width="11.77" height="11.76"/><rect class="hat-1" x="400.43" y="309.58" width="11.77" height="11.77"/><rect class="hat-1" x="400.43" y="297.82" width="11.77" height="11.76"/><rect class="hat-1" x="400.43" y="286.06" width="11.77" height="11.76"/><rect class="hat-1" x="400.43" y="274.29" width="11.77" height="11.77"/><rect class="hat-1" x="400.43" y="262.53" width="11.77" height="11.76"/><rect class="hat-1" x="400.43" y="250.76" width="11.77" height="11.77"/><rect class="hat-1" x="400.43" y="239" width="11.77" height="11.76"/><rect class="hat-1" x="400.43" y="227.23" width="11.77" height="11.77"/><rect class="hat-1" x="400.43" y="215.47" width="11.77" height="11.76"/><rect class="hat-1" x="400.43" y="203.7" width="11.77" height="11.77"/><rect class="hat-1" x="400.43" y="191.94" width="11.77" height="11.76"/><rect class="hat-1" x="400.43" y="180.17" width="11.77" height="11.77"/><rect class="hat-1" x="400.43" y="168.41" width="11.77" height="11.76"/><rect class="hat-1" x="400.43" y="156.64" width="11.77" height="11.77"/><rect class="hat-1" x="400.43" y="144.88" width="11.77" height="11.76"/><rect class="hat-1" x="400.43" y="133.11" width="11.77" height="11.77"/><rect class="hat-1" x="400.43" y="121.35" width="11.77" height="11.76"/><rect class="hat-1" x="400.43" y="109.58" width="11.77" height="11.77"/><rect class="hat-1" x="388.67" y="403.7" width="11.76" height="11.77"/><rect class="hat-1" x="388.67" y="391.94" width="11.76" height="11.76"/><rect class="hat-1" x="388.67" y="380.17" width="11.76" height="11.77"/><rect class="hat-1" x="388.67" y="368.41" width="11.76" height="11.76"/><rect class="hat-1" x="388.67" y="356.64" width="11.76" height="11.77"/><rect class="hat-1" x="388.67" y="344.88" width="11.76" height="11.76"/><rect class="hat-1" x="388.67" y="333.11" width="11.76" height="11.77"/><rect class="hat-1" x="388.67" y="321.35" width="11.76" height="11.76"/><rect class="hat-1" x="388.67" y="309.58" width="11.76" height="11.77"/><rect class="hat-1" x="388.67" y="297.82" width="11.76" height="11.76"/><rect class="hat-1" x="388.67" y="286.06" width="11.76" height="11.76"/><rect class="hat-1" x="388.67" y="274.29" width="11.76" height="11.77"/><rect class="hat-1" x="388.67" y="262.53" width="11.76" height="11.76"/><rect class="hat-1" x="388.67" y="250.76" width="11.76" height="11.77"/><rect class="hat-1" x="388.67" y="239" width="11.76" height="11.76"/><rect class="hat-1" x="388.67" y="227.23" width="11.76" height="11.77"/><rect class="hat-1" x="388.67" y="215.47" width="11.76" height="11.76"/><rect class="hat-1" x="388.67" y="203.7" width="11.76" height="11.77"/><rect class="hat-1" x="388.67" y="191.94" width="11.76" height="11.76"/><rect class="hat-1" x="388.67" y="180.17" width="11.76" height="11.77"/><rect class="hat-1" x="388.67" y="168.41" width="11.76" height="11.76"/><rect class="hat-1" x="388.67" y="156.64" width="11.76" height="11.77"/><rect class="hat-1" x="388.67" y="144.88" width="11.76" height="11.76"/><rect class="hat-1" x="388.67" y="133.11" width="11.76" height="11.77"/><rect class="hat-1" x="388.67" y="121.35" width="11.76" height="11.76"/><rect class="hat-1" x="388.67" y="109.58" width="11.76" height="11.77"/><rect class="hat-1" x="376.9" y="403.7" width="11.77" height="11.77"/><rect class="hat-1" x="376.9" y="391.94" width="11.77" height="11.76"/><rect class="hat-1" x="376.9" y="380.17" width="11.77" height="11.77"/><rect class="hat-1" x="376.9" y="368.41" width="11.77" height="11.76"/><rect class="hat-1" x="376.9" y="356.64" width="11.77" height="11.77"/><rect class="hat-1" x="376.9" y="344.88" width="11.77" height="11.76"/><rect class="hat-1" x="376.9" y="333.11" width="11.77" height="11.77"/><rect class="hat-1" x="376.9" y="321.35" width="11.77" height="11.76"/><rect class="hat-1" x="376.9" y="309.58" width="11.77" height="11.77"/><rect class="hat-1" x="376.9" y="297.82" width="11.77" height="11.76"/><rect class="hat-1" x="376.9" y="286.06" width="11.77" height="11.76"/><rect class="hat-1" x="376.9" y="274.29" width="11.77" height="11.77"/><rect class="hat-1" x="376.9" y="262.53" width="11.77" height="11.76"/><rect class="hat-1" x="376.9" y="250.76" width="11.77" height="11.77"/><rect class="hat-1" x="376.9" y="239" width="11.77" height="11.76"/><rect class="hat-1" x="376.9" y="227.23" width="11.77" height="11.77"/><rect class="hat-1" x="376.9" y="215.47" width="11.77" height="11.76"/><rect class="hat-1" x="376.9" y="203.7" width="11.77" height="11.77"/><rect class="hat-1" x="376.9" y="191.94" width="11.77" height="11.76"/><rect class="hat-1" x="376.9" y="180.17" width="11.77" height="11.77"/><rect class="hat-1" x="376.9" y="168.41" width="11.77" height="11.76"/><rect class="hat-1" x="376.9" y="156.64" width="11.77" height="11.77"/><rect class="hat-1" x="376.9" y="144.88" width="11.77" height="11.76"/><rect class="hat-1" x="376.9" y="133.11" width="11.77" height="11.77"/><rect class="hat-1" x="376.9" y="121.35" width="11.77" height="11.76"/><rect class="hat-1" x="376.9" y="109.58" width="11.77" height="11.77"/><rect class="hat-1" x="365.14" y="403.7" width="11.76" height="11.77"/><rect class="hat-1" x="365.14" y="391.94" width="11.76" height="11.76"/><rect class="hat-1" x="365.14" y="380.17" width="11.76" height="11.77"/><rect class="hat-1" x="365.14" y="368.41" width="11.76" height="11.76"/><rect class="hat-1" x="365.14" y="356.64" width="11.76" height="11.77"/><rect class="hat-1" x="365.14" y="344.88" width="11.76" height="11.76"/><rect class="hat-1" x="365.14" y="333.11" width="11.76" height="11.77"/><rect class="hat-1" x="365.14" y="321.35" width="11.76" height="11.76"/><rect class="hat-1" x="365.14" y="309.58" width="11.76" height="11.77"/><rect class="hat-1" x="365.14" y="297.82" width="11.76" height="11.76"/><rect class="hat-1" x="365.14" y="286.06" width="11.76" height="11.76"/><rect class="hat-1" x="365.14" y="274.29" width="11.76" height="11.77"/><rect class="hat-1" x="365.14" y="262.53" width="11.76" height="11.76"/><rect class="hat-1" x="365.14" y="250.76" width="11.76" height="11.77"/><rect class="hat-1" x="365.14" y="239" width="11.76" height="11.76"/><rect class="hat-1" x="365.14" y="227.23" width="11.76" height="11.77"/><rect class="hat-1" x="365.14" y="215.47" width="11.76" height="11.76"/><rect class="hat-1" x="365.14" y="203.7" width="11.76" height="11.77"/><rect class="hat-1" x="365.14" y="191.94" width="11.76" height="11.76"/><rect class="hat-1" x="365.14" y="180.17" width="11.76" height="11.77"/><rect class="hat-1" x="365.14" y="168.41" width="11.76" height="11.76"/><rect class="hat-1" x="365.14" y="156.64" width="11.76" height="11.77"/><rect class="hat-1" x="365.14" y="144.88" width="11.76" height="11.76"/><rect class="hat-1" x="365.14" y="133.11" width="11.76" height="11.77"/><rect class="hat-1" x="365.14" y="121.35" width="11.76" height="11.76"/><rect class="hat-1" x="365.14" y="109.58" width="11.76" height="11.77"/><rect class="hat-1" x="353.37" y="403.7" width="11.77" height="11.77"/><rect class="hat-1" x="353.37" y="391.94" width="11.77" height="11.76"/><rect class="hat-1" x="353.37" y="380.17" width="11.77" height="11.77"/><rect class="hat-1" x="353.37" y="368.41" width="11.77" height="11.76"/><rect class="hat-1" x="353.37" y="356.64" width="11.77" height="11.77"/><rect class="hat-1" x="353.37" y="344.88" width="11.77" height="11.76"/><rect class="hat-1" x="353.37" y="333.11" width="11.77" height="11.77"/><rect class="hat-1" x="353.37" y="321.35" width="11.77" height="11.76"/><rect class="hat-1" x="353.37" y="309.58" width="11.77" height="11.77"/><rect class="hat-1" x="353.37" y="297.82" width="11.77" height="11.76"/><rect class="hat-1" x="353.37" y="286.06" width="11.77" height="11.76"/><rect class="hat-1" x="353.37" y="274.29" width="11.77" height="11.77"/><rect class="hat-1" x="353.37" y="262.53" width="11.77" height="11.76"/><rect class="hat-1" x="353.37" y="250.76" width="11.77" height="11.77"/><rect class="hat-1" x="353.37" y="239" width="11.77" height="11.76"/><rect class="hat-1" x="353.37" y="227.23" width="11.77" height="11.77"/><rect class="hat-1" x="353.37" y="215.47" width="11.77" height="11.76"/><rect class="hat-1" x="353.37" y="203.7" width="11.77" height="11.77"/><rect class="hat-1" x="353.37" y="191.94" width="11.77" height="11.76"/><rect class="hat-1" x="353.37" y="180.17" width="11.77" height="11.77"/><rect class="hat-1" x="353.37" y="168.41" width="11.77" height="11.76"/><rect class="hat-1" x="353.37" y="156.64" width="11.77" height="11.77"/><rect class="hat-1" x="353.37" y="144.88" width="11.77" height="11.76"/><rect class="hat-1" x="353.37" y="133.11" width="11.77" height="11.77"/><rect class="hat-1" x="353.37" y="121.35" width="11.77" height="11.76"/><rect class="hat-1" x="353.37" y="109.58" width="11.77" height="11.77"/><rect class="hat-1" x="341.61" y="391.94" width="11.76" height="11.76"/><rect class="hat-1" x="341.61" y="380.17" width="11.76" height="11.77"/><rect class="hat-1" x="341.61" y="368.41" width="11.76" height="11.76"/><rect class="hat-1" x="341.61" y="356.64" width="11.76" height="11.77"/><rect class="hat-1" x="341.61" y="344.88" width="11.76" height="11.76"/><rect class="hat-1" x="341.61" y="333.11" width="11.76" height="11.77"/><rect class="hat-1" x="341.61" y="321.35" width="11.76" height="11.76"/><rect class="hat-1" x="341.61" y="309.58" width="11.76" height="11.77"/><rect class="hat-1" x="341.61" y="297.82" width="11.76" height="11.76"/><rect class="hat-1" x="341.61" y="286.06" width="11.76" height="11.76"/><rect class="hat-1" x="341.61" y="274.29" width="11.76" height="11.77"/><rect class="hat-1" x="341.61" y="262.53" width="11.76" height="11.76"/><rect class="hat-1" x="341.61" y="250.76" width="11.76" height="11.77"/><rect class="hat-1" x="341.61" y="239" width="11.76" height="11.76"/><rect class="hat-1" x="341.61" y="227.23" width="11.76" height="11.77"/><rect class="hat-1" x="341.61" y="215.47" width="11.76" height="11.76"/><rect class="hat-1" x="341.61" y="203.7" width="11.76" height="11.77"/><rect class="hat-1" x="341.61" y="191.94" width="11.76" height="11.76"/><rect class="hat-1" x="341.61" y="180.17" width="11.76" height="11.77"/><rect class="hat-1" x="341.61" y="168.41" width="11.76" height="11.76"/><rect class="hat-1" x="341.61" y="156.64" width="11.76" height="11.77"/><rect class="hat-1" x="341.61" y="144.88" width="11.76" height="11.76"/><rect class="hat-1" x="341.61" y="133.11" width="11.76" height="11.77"/><rect class="hat-1" x="341.61" y="121.35" width="11.76" height="11.76"/><rect class="hat-1" x="341.61" y="109.58" width="11.76" height="11.77"/><rect class="hat-1" x="329.84" y="391.94" width="11.77" height="11.76"/><rect class="hat-1" x="329.84" y="380.17" width="11.77" height="11.77"/><rect class="hat-1" x="329.84" y="368.41" width="11.77" height="11.76"/><rect class="hat-1" x="329.84" y="356.64" width="11.77" height="11.77"/><rect class="hat-1" x="329.84" y="344.88" width="11.77" height="11.76"/><rect class="hat-1" x="329.84" y="333.11" width="11.77" height="11.77"/><rect class="hat-1" x="329.84" y="321.35" width="11.77" height="11.76"/><rect class="hat-1" x="329.84" y="309.58" width="11.77" height="11.77"/><rect class="hat-1" x="329.84" y="297.82" width="11.77" height="11.76"/><rect class="hat-1" x="329.84" y="286.06" width="11.77" height="11.76"/><rect class="hat-1" x="329.84" y="274.29" width="11.77" height="11.77"/><rect class="hat-1" x="329.84" y="262.53" width="11.77" height="11.76"/><rect class="hat-1" x="329.84" y="250.76" width="11.77" height="11.77"/><rect class="hat-1" x="329.84" y="239" width="11.77" height="11.76"/><rect class="hat-1" x="329.84" y="227.23" width="11.77" height="11.77"/><rect class="hat-1" x="329.84" y="215.47" width="11.77" height="11.76"/><rect class="hat-1" x="329.84" y="203.7" width="11.77" height="11.77"/><rect class="hat-1" x="329.84" y="191.94" width="11.77" height="11.76"/><rect class="hat-1" x="329.84" y="180.17" width="11.77" height="11.77"/><rect class="hat-1" x="329.84" y="168.41" width="11.77" height="11.76"/><rect class="hat-1" x="329.84" y="156.64" width="11.77" height="11.77"/><rect class="hat-1" x="329.84" y="144.88" width="11.77" height="11.76"/><rect class="hat-1" x="329.84" y="133.11" width="11.77" height="11.77"/><rect class="hat-1" x="329.84" y="121.35" width="11.77" height="11.76"/><rect class="hat-1" x="318.08" y="380.17" width="11.76" height="11.77"/><rect class="hat-1" x="318.08" y="368.41" width="11.76" height="11.76"/><rect class="hat-1" x="318.08" y="356.64" width="11.76" height="11.77"/><rect class="hat-1" x="318.08" y="344.88" width="11.76" height="11.76"/><rect class="hat-1" x="318.08" y="333.11" width="11.76" height="11.77"/><rect class="hat-1" x="318.08" y="321.35" width="11.76" height="11.76"/><rect class="hat-1" x="318.08" y="309.58" width="11.76" height="11.77"/><rect class="hat-1" x="318.08" y="297.82" width="11.76" height="11.76"/><rect class="hat-1" x="318.08" y="286.06" width="11.76" height="11.76"/><rect class="hat-1" x="318.08" y="274.29" width="11.76" height="11.77"/><rect class="hat-1" x="318.08" y="262.53" width="11.76" height="11.76"/><rect class="hat-1" x="318.08" y="250.76" width="11.76" height="11.77"/><rect class="hat-1" x="318.08" y="239" width="11.76" height="11.76"/><rect class="hat-1" x="318.08" y="227.23" width="11.76" height="11.77"/><rect class="hat-1" x="318.08" y="215.47" width="11.76" height="11.76"/><rect class="hat-1" x="318.08" y="203.7" width="11.76" height="11.77"/><rect class="hat-1" x="318.08" y="191.94" width="11.76" height="11.76"/><rect class="hat-1" x="318.08" y="180.17" width="11.76" height="11.77"/><rect class="hat-1" x="318.08" y="168.41" width="11.76" height="11.76"/><rect class="hat-1" x="318.08" y="156.64" width="11.76" height="11.77"/><rect class="hat-1" x="318.08" y="144.88" width="11.76" height="11.76"/><rect class="hat-1" x="318.08" y="133.11" width="11.76" height="11.77"/><rect class="hat-1" x="306.31" y="368.41" width="11.77" height="11.76"/><rect class="hat-1" x="306.31" y="356.64" width="11.77" height="11.77"/><rect class="hat-1" x="306.31" y="344.88" width="11.77" height="11.76"/><rect class="hat-1" x="306.31" y="333.11" width="11.77" height="11.77"/><rect class="hat-1" x="306.31" y="321.35" width="11.77" height="11.76"/><rect class="hat-1" x="306.31" y="309.58" width="11.77" height="11.77"/><rect class="hat-1" x="306.31" y="297.82" width="11.77" height="11.76"/><rect class="hat-1" x="306.31" y="286.06" width="11.77" height="11.76"/><rect class="hat-1" x="306.31" y="274.29" width="11.77" height="11.77"/><rect class="hat-1" x="306.31" y="262.53" width="11.77" height="11.76"/><rect class="hat-1" x="306.31" y="250.76" width="11.77" height="11.77"/><rect class="hat-1" x="306.31" y="239" width="11.77" height="11.76"/><rect class="hat-1" x="306.31" y="227.23" width="11.77" height="11.77"/><rect class="hat-1" x="306.31" y="215.47" width="11.77" height="11.76"/><rect class="hat-1" x="306.31" y="203.7" width="11.77" height="11.77"/><rect class="hat-1" x="306.31" y="191.94" width="11.77" height="11.76"/><rect class="hat-1" x="306.31" y="180.17" width="11.77" height="11.77"/><rect class="hat-1" x="306.31" y="168.41" width="11.77" height="11.76"/><rect class="hat-1" x="306.31" y="156.64" width="11.77" height="11.77"/><rect class="hat-1" x="306.31" y="144.88" width="11.77" height="11.76"/><rect class="hat-1" x="306.31" y="133.11" width="11.77" height="11.77"/><rect class="hat-1" x="294.55" y="356.64" width="11.76" height="11.77"/><rect class="hat-1" x="294.55" y="344.88" width="11.76" height="11.76"/><rect class="hat-1" x="294.55" y="333.11" width="11.76" height="11.77"/><rect class="hat-1" x="294.55" y="321.35" width="11.76" height="11.76"/><rect class="hat-1" x="294.55" y="309.58" width="11.76" height="11.77"/><rect class="hat-1" x="294.55" y="297.82" width="11.76" height="11.76"/><rect class="hat-1" x="294.55" y="286.06" width="11.76" height="11.76"/><rect class="hat-1" x="294.55" y="274.29" width="11.76" height="11.77"/><rect class="hat-1" x="294.55" y="262.53" width="11.76" height="11.76"/><rect class="hat-1" x="294.55" y="250.76" width="11.76" height="11.77"/><rect class="hat-1" x="294.55" y="239" width="11.76" height="11.76"/><rect class="hat-1" x="294.55" y="227.23" width="11.76" height="11.77"/><rect class="hat-1" x="294.55" y="215.47" width="11.76" height="11.76"/><rect class="hat-1" x="294.55" y="203.7" width="11.76" height="11.77"/><rect class="hat-1" x="294.55" y="191.94" width="11.76" height="11.76"/><rect class="hat-1" x="294.55" y="180.17" width="11.76" height="11.77"/><rect class="hat-1" x="294.55" y="168.41" width="11.76" height="11.76"/><rect class="hat-1" x="294.55" y="156.64" width="11.76" height="11.77"/><rect class="hat-1" x="294.55" y="144.88" width="11.76" height="11.76"/><rect class="hat-1" x="282.78" y="262.53" width="11.77" height="11.76"/><rect class="hat-1" x="282.78" y="250.76" width="11.77" height="11.77"/><rect class="hat-1" x="282.78" y="239" width="11.77" height="11.76"/><rect class="hat-1" x="282.78" y="227.23" width="11.77" height="11.77"/><rect class="hat-1" x="282.78" y="215.47" width="11.77" height="11.76"/><rect class="hat-1" x="282.78" y="203.7" width="11.77" height="11.77"/><rect class="hat-1" x="282.78" y="191.94" width="11.77" height="11.76"/><rect class="hat-1" x="271.02" y="262.53" width="11.76" height="11.76"/><rect class="hat-1" x="271.02" y="250.76" width="11.76" height="11.77"/><rect class="hat-1" x="271.02" y="239" width="11.76" height="11.76"/><rect class="hat-1" x="271.02" y="227.23" width="11.76" height="11.77"/><rect class="hat-1" x="271.02" y="215.47" width="11.76" height="11.76"/><rect class="hat-1" x="271.02" y="203.7" width="11.76" height="11.77"/><rect class="hat-1" x="259.26" y="262.53" width="11.76" height="11.76"/><rect class="hat-1" x="259.26" y="250.76" width="11.76" height="11.77"/><rect class="hat-1" x="259.26" y="239" width="11.76" height="11.76"/><rect class="hat-1" x="259.26" y="227.23" width="11.76" height="11.77"/><rect class="hat-1" x="259.26" y="215.47" width="11.76" height="11.76"/><rect class="hat-1" x="259.26" y="203.7" width="11.76" height="11.77"/><rect class="hat-1" x="247.49" y="250.76" width="11.77" height="11.77"/><rect class="hat-1" x="247.49" y="239" width="11.77" height="11.76"/><rect class="hat-1" x="247.49" y="227.23" width="11.77" height="11.77"/><rect class="hat-1" x="247.49" y="215.47" width="11.77" height="11.76"/><rect class="hat-2" x="288.64" y="130.7" width="19.74" height="15.66"/><rect class="hat-3" width="800" height="800"/></g></g></svg>
