<svg xmlns="http://www.w3.org/2000/svg" viewBox="0 0 800 800"><defs><style>.hat-1,.hat-4{fill:#030;stroke:#030;}.hat-1,.hat-2,.hat-3,.hat-4,.hat-5{stroke-miterlimit:10;}.hat-1{stroke-width:2px;}.hat-2{fill:#c00;stroke:#c00;}.hat-2,.hat-3,.hat-4,.hat-5{stroke-width:0.5px;}.hat-3{fill:#600;stroke:#600;}.hat-5{fill:#060;stroke:#060;}.hat-6{fill:#fff;}.hat-7{fill:none;}</style></defs><title>4000_hat_camoflauge</title><g id="Layer_2" data-name="Layer 2"><g id="_4000_hat_camoflauge" data-name="4000_hat_camoflauge"><path class="hat-1" d="M355.35,134a395.8,395.8,0,0,1,145.2,23.76c14,5.11,28.34,11.46,37.66,23.11,14.75,18.42,13.15,44.9,7.82,67.89,8.2-23.74,16.47-47.74,19.17-72.71s-.59-51.39-14.07-72.59C535.43,78.81,507.77,64,479.55,56.28c-32.35-8.81-67.32-9.42-99.16,1.08s-60.27,32.56-75.88,62.23c-3.07,1.48-3.68,7.08-1.06,9.25s6.31,2.35,9.71,2.43l17.64.4C336.57,131.8,349.58,133.9,355.35,134Z"/><path class="hat-2" d="M426.76,126.42v12.33q3.93.63,7.84,1.32V110.74h-7.84v15.68Z"/><path class="hat-2" d="M489.5,142.11h-7.84v-7.84h-7.84V95.05H489.5V71.52h-7.84V63.68h-7.84V55.84H434.6v7.84H379.7V57.59a140.63,140.63,0,0,0-15.16,6.09h7.32v7.84h47.06v39.22h7.84V71.52h31.37v7.84H466v47.06H450.29v7.85h-7.84v7.29l2.77.55h28.6v7l2.81.83h20.72v-7.84Z"/><path class="hat-2" d="M536.56,134.27v-7.85h23.53v-4.21c-.42-1.22-.87-2.43-1.34-3.63h-30v7.84h-7.84v15.69h7.84v-7.84Z"/><path class="hat-2" d="M505.19,150h-7.84v6.72c1.06.37,2.13.73,3.2,1.12H513V150Z"/><polygon class="hat-2" points="536.56 149.95 544.41 149.95 544.41 157.8 552.25 157.8 560.09 157.8 560.09 149.95 552.25 149.95 552.25 142.11 544.41 142.11 536.56 142.11 528.72 142.11 528.72 149.95 536.56 149.95"/><path class="hat-2" d="M560.09,173.48V197h1.61a197,197,0,0,0,3.51-20.93,146.55,146.55,0,0,0,.84-18.28h-6v15.68Z"/><path class="hat-2" d="M528.72,171.83v-14H513v5q3,1.33,5.81,2.83h2v1.11A72,72,0,0,1,528.72,171.83Z"/><path class="hat-2" d="M546.71,197a67.55,67.55,0,0,1,2.91,15.69h2.63v-7.85h7.59c.08-.32.17-.64.25-1V197H546.71Z"/><path class="hat-2" d="M371.86,134c2.61,0,5.23.12,7.84.22v-7.78h-7.84Z"/><path class="hat-2" d="M536.56,86.11v1.1h1.17Z"/><path class="hat-2" d="M544.41,94.35v.7H545Z"/><path class="hat-2" d="M528.52,79.36c-2.46-1.87-5-3.64-7.64-5.31v5.31Z"/><path class="hat-2" d="M340.48,118.58v14c2.62.31,5.34.64,7.85.92V95.05h-7.85V87.21h-7.84v15.68h7.84v15.69Z"/><path class="hat-2" d="M340.48,79.36h7.85v7.85h7.84V71.52h-6.05c-3.9,2.43-7.69,5-11.32,7.84Z"/><path class="hat-2" d="M329.52,87.21h3.12V84.42Q331.06,85.79,329.52,87.21Z"/><path class="hat-2" d="M317,118.58V100.69a120.48,120.48,0,0,0-7.84,11V131a39.5,39.5,0,0,0,4.05.26l3.79.08V118.58Z"/><polygon class="hat-3" points="520.88 118.58 520.88 126.42 528.72 126.42 528.72 118.58 528.72 110.74 520.88 110.74 520.88 118.58"/><path class="hat-3" d="M520.88,95.05h7.84v15.69h7.84V86.11a104,104,0,0,0-8-6.75h-7.64V95.05Z"/><polygon class="hat-3" points="513.03 134.27 513.03 142.11 505.19 142.11 505.19 149.95 513.03 149.95 520.88 149.95 520.88 142.11 520.88 134.27 520.88 126.42 513.03 126.42 513.03 134.27"/><polygon class="hat-3" points="497.35 95.05 505.19 95.05 513.03 95.05 513.03 87.21 505.19 87.21 497.35 87.21 489.5 87.21 489.5 95.05 489.5 102.89 497.35 102.89 497.35 95.05"/><path class="hat-3" d="M505.19,65.52v6H489.5v7.84h31.38V74.05A134,134,0,0,0,505.19,65.52Z"/><path class="hat-3" d="M385.3,55.84h92.6C447.67,47.89,415.26,47.11,385.3,55.84Z"/><polygon class="hat-3" points="489.5 134.27 497.35 134.27 505.19 134.27 505.19 126.42 497.35 126.42 489.5 126.42 489.5 134.27"/><path class="hat-3" d="M538.54,181.33a47,47,0,0,1,5,7.84h.9v-7.84Z"/><path class="hat-3" d="M304.51,119.59c-3.07,1.48-3.68,7.08-1.06,9.25a10.81,10.81,0,0,0,5.66,2.17V111.64Q306.65,115.53,304.51,119.59Z"/><path class="hat-3" d="M356.17,110.74V87.21h-7.84v46.25c2.75.3,5.23.53,7,.57h.82v-7.6H364v-7.84h-7.84Z"/><path class="hat-3" d="M513,162.81v-5H500.58C504.75,159.32,508.94,161,513,162.81Z"/><polygon class="hat-3" points="387.54 87.21 395.39 87.21 395.39 79.36 403.23 79.36 403.23 71.52 395.39 71.52 387.54 71.52 387.54 79.36 379.7 79.36 379.7 87.21 379.7 95.05 387.54 95.05 387.54 87.21"/><rect class="hat-3" x="371.86" y="95.05" width="7.84" height="7.84"/><path class="hat-3" d="M340.48,118.58V102.89h-7.84V95.05H324.8v7.84H317v7.85h15.69v21c2.19.15,4.94.45,7.84.78v-14Z"/><polygon class="hat-3" points="371.86 110.74 371.86 102.89 364.01 102.89 364.01 110.74 364.01 118.58 371.86 118.58 371.86 110.74"/><path class="hat-3" d="M546.71,197h13.38v-7.84H544.41V191A52.7,52.7,0,0,1,546.71,197Z"/><rect class="hat-3" x="418.92" y="126.42" width="7.84" height="7.85"/><polygon class="hat-3" points="434.6 126.42 434.6 134.27 442.45 134.27 450.29 134.27 450.29 126.42 442.45 126.42 434.6 126.42"/><rect class="hat-3" x="458.13" y="102.89" width="7.84" height="7.85"/><path class="hat-3" d="M489.5,150h-7.84v1.51c2.62.8,5.23,1.65,7.84,2.51Z"/><path class="hat-3" d="M561.44,126.42h-9.19v7.85h7.84v7.84h-7.84V150h13.44A113.54,113.54,0,0,0,561.44,126.42Z"/><path class="hat-3" d="M332.64,87.21h7.84V79.36H338.8q-3.17,2.43-6.16,5.06Z"/><polygon class="hat-3" points="450.29 95.05 442.45 95.05 442.45 87.21 434.6 87.21 434.6 79.36 426.76 79.36 426.76 87.21 426.76 95.05 426.76 102.89 426.76 110.74 434.6 110.74 434.6 102.89 442.45 102.89 450.29 102.89 458.13 102.89 458.13 95.05 450.29 95.05"/><rect class="hat-3" x="536.56" y="126.42" width="7.85" height="7.85"/><rect class="hat-3" x="536.56" y="149.95" width="7.85" height="7.85"/><path class="hat-3" d="M520.88,166.75v-1.11h-2Q519.88,166.18,520.88,166.75Z"/><rect class="hat-3" x="528.72" y="157.8" width="7.84" height="7.84"/><polygon class="hat-3" points="473.82 126.42 473.82 134.27 481.66 134.27 481.66 126.42 481.66 118.58 473.82 118.58 473.82 126.42"/><rect class="hat-3" x="434.6" y="71.52" width="7.85" height="7.84"/><rect class="hat-3" x="473.82" y="95.05" width="7.84" height="7.84"/><path class="hat-3" d="M489.5,59.31v4.37H501C497.24,62.07,493.39,60.62,489.5,59.31Z"/><path class="hat-4" d="M356.17,68c-2.05,1.14-4.07,2.32-6.05,3.56h6.05Z"/><polygon class="hat-4" points="364.01 102.89 356.17 102.89 356.17 110.74 356.17 118.58 364.01 118.58 364.01 110.74 364.01 102.89"/><path class="hat-4" d="M411.07,136.58q7.86.93,15.69,2.17v-4.48h-7.84v-7.85h7.84V110.74H411.07V95.05h-7.84v15.69h-7.84v-7.85H371.86v7.85h7.84v7.84H364v7.84H379.7v7.78l2.2.07h21.33v-7.85h7.84v10.16Z"/><polygon class="hat-4" points="411.07 87.21 411.07 95.05 418.92 95.05 418.92 87.21 418.92 79.36 418.92 71.52 411.07 71.52 403.23 71.52 403.23 79.36 395.39 79.36 395.39 87.21 395.39 95.05 403.23 95.05 403.23 87.21 411.07 87.21"/><path class="hat-4" d="M324.8,131.53v-5.11H317v4.93Z"/><path class="hat-4" d="M489.5,154c2.63.87,5.24,1.77,7.85,2.7V150H489.5Z"/><polygon class="hat-4" points="442.45 102.89 434.6 102.89 434.6 110.74 442.45 110.74 450.29 110.74 458.13 110.74 458.13 102.89 450.29 102.89 442.45 102.89"/><polygon class="hat-4" points="371.86 95.05 379.7 95.05 379.7 87.21 379.7 79.36 371.86 79.36 364.01 79.36 356.17 79.36 356.17 87.21 356.17 95.05 364.01 95.05 364.01 102.89 371.86 102.89 371.86 95.05"/><path class="hat-4" d="M552.25,212.7h-2.63c.18,2.59.24,5.21.2,7.84h5.59c.8-2.61,1.58-5.22,2.32-7.84Z"/><rect class="hat-4" x="528.72" y="110.74" width="7.84" height="7.84"/><polygon class="hat-4" points="505.19 142.11 513.03 142.11 513.03 134.27 513.03 126.42 513.03 118.58 520.88 118.58 520.88 110.74 528.72 110.74 528.72 102.89 528.72 95.05 520.88 95.05 520.88 87.21 513.03 87.21 513.03 95.05 505.19 95.05 505.19 102.89 497.35 102.89 489.5 102.89 481.66 102.89 473.82 102.89 473.82 110.74 473.82 118.58 481.66 118.58 489.5 118.58 497.35 118.58 505.19 118.58 505.19 126.42 505.19 134.27 497.35 134.27 497.35 142.11 497.35 149.95 505.19 149.95 505.19 142.11"/><rect class="hat-4" x="379.7" y="71.52" width="7.84" height="7.84"/><path class="hat-4" d="M356.17,134c2.61-.06,5.23-.1,7.84-.11v-7.49h-7.84Z"/><polygon class="hat-4" points="489.5 87.21 497.35 87.21 505.19 87.21 505.19 79.36 497.35 79.36 489.5 79.36 489.5 87.21"/><polygon class="hat-4" points="520.88 142.11 520.88 149.95 520.88 157.8 528.72 157.8 536.56 157.8 536.56 149.95 528.72 149.95 528.72 142.11 520.88 142.11"/><polygon class="hat-4" points="544.41 142.11 552.25 142.11 552.25 134.27 552.25 126.42 544.41 126.42 544.41 134.27 536.56 134.27 528.72 134.27 528.72 142.11 536.56 142.11 544.41 142.11"/><rect class="hat-4" x="552.25" y="181.33" width="7.84" height="7.84"/><polygon class="hat-4" points="560.09 165.64 560.09 157.8 552.25 157.8 544.41 157.8 544.41 165.64 552.25 165.64 552.25 173.48 560.09 173.48 560.09 165.64"/><path class="hat-4" d="M560.09,197v6.87c.57-2.28,1.1-4.57,1.61-6.87Z"/><path class="hat-4" d="M536.56,179V165.64h-7.84v6.19A54,54,0,0,1,536.56,179Z"/><path class="hat-4" d="M543.51,189.17c.32.61.61,1.24.9,1.86v-1.86Z"/><polygon class="hat-4" points="489.5 134.27 489.5 126.42 481.66 126.42 481.66 134.27 481.66 142.11 489.5 142.11 489.5 134.27"/><path class="hat-4" d="M434.6,140.07q3.93.7,7.85,1.49v-7.29H434.6Z"/><path class="hat-4" d="M450.29,142.11h-5.07c1.69.35,3.38.72,5.07,1.09Z"/><path class="hat-4" d="M536.56,95.05h7.85v-.7a92,92,0,0,0-6.68-7.14h-1.17Z"/><rect class="hat-4" x="426.76" y="71.52" width="7.84" height="7.84"/><path class="hat-4" d="M544.41,110.74v7.84h14.34A84.85,84.85,0,0,0,545,95.05h-.58v15.69Z"/><polygon class="hat-4" points="442.45 87.21 442.45 95.05 450.29 95.05 458.13 95.05 458.13 102.89 465.97 102.89 465.97 95.05 465.97 87.21 465.97 79.36 458.13 79.36 450.29 79.36 442.45 79.36 434.6 79.36 434.6 87.21 442.45 87.21"/><path class="hat-5" d="M544.41,165.64V157.8h-7.85V179c.57.64,1.12,1.28,1.65,2,.12.14.22.29.33.43h5.87v7.84h7.84v-7.84h7.84v-7.85h-7.84v-7.84Z"/><rect class="hat-5" x="552.25" y="134.27" width="7.84" height="7.84"/><path class="hat-5" d="M552.25,212.7h5.48q1.11-3.91,2.11-7.85h-7.59Z"/><polygon class="hat-5" points="536.56 102.89 536.56 110.74 536.56 118.58 544.41 118.58 544.41 110.74 544.41 102.89 544.41 95.05 536.56 95.05 536.56 102.89"/><polygon class="hat-5" points="520.88 79.36 513.03 79.36 505.19 79.36 505.19 87.21 513.03 87.21 520.88 87.21 520.88 79.36"/><rect class="hat-5" x="513.03" y="149.95" width="7.85" height="7.85"/><rect class="hat-5" x="513.03" y="118.58" width="7.85" height="7.84"/><path class="hat-5" d="M560.09,150v7.85h6q-.06-3.93-.36-7.85Z"/><path class="hat-5" d="M330.8,131.67c.55,0,1.18.05,1.84.09v-21H317v15.68h7.85v5.11Z"/><polygon class="hat-5" points="340.48 87.21 340.48 95.05 348.33 95.05 348.33 87.21 348.33 79.36 340.48 79.36 340.48 87.21"/><path class="hat-5" d="M411.07,126.42h-7.84v7.85H381.9q14.63.61,29.17,2.31V126.42Z"/><path class="hat-5" d="M317,100.69v2.2h7.85V95.05h7.84V87.21h-3.12A127.13,127.13,0,0,0,317,100.69Z"/><path class="hat-5" d="M473.82,63.68h7.84v7.84h23.53v-6c-1.38-.63-2.77-1.25-4.17-1.84H489.5V59.31q-5-1.68-9.95-3l-1.65-.44h-4.08Z"/><path class="hat-5" d="M561.44,126.42c-.42-1.41-.87-2.82-1.35-4.21v4.21Z"/><path class="hat-5" d="M379.7,63.68h54.9V55.84H385.3c-1.64.48-3.28,1-4.91,1.52l-.69.23Z"/><rect class="hat-5" x="497.35" y="95.05" width="7.84" height="7.84"/><rect class="hat-5" x="481.66" y="95.05" width="7.84" height="7.84"/><path class="hat-5" d="M473.82,149.12v-7H450.29v1.09Q462.14,145.81,473.82,149.12Z"/><rect class="hat-5" x="356.17" y="95.05" width="7.84" height="7.84"/><path class="hat-5" d="M371.86,134v-7.56H364v7.49C366.63,133.91,369.24,133.93,371.86,134Z"/><path class="hat-5" d="M555.41,220.54h-5.59a129.31,129.31,0,0,1-2.77,23.53h.61C550.34,236.27,553,228.43,555.41,220.54Z"/><rect class="hat-5" x="489.5" y="134.27" width="7.85" height="7.84"/><polygon class="hat-5" points="505.19 118.58 497.35 118.58 489.5 118.58 481.66 118.58 481.66 126.42 489.5 126.42 497.35 126.42 505.19 126.42 505.19 118.58"/><path class="hat-5" d="M476.63,150q2.52.74,5,1.51V150Z"/><polygon class="hat-5" points="458.13 79.36 458.13 71.52 450.29 71.52 442.45 71.52 442.45 79.36 450.29 79.36 458.13 79.36"/><polygon class="hat-5" points="395.39 87.21 387.54 87.21 387.54 95.05 379.7 95.05 379.7 102.89 387.54 102.89 395.39 102.89 395.39 110.74 403.23 110.74 403.23 102.89 403.23 95.05 395.39 95.05 395.39 87.21"/><polygon class="hat-5" points="434.6 110.74 434.6 118.58 434.6 126.42 442.45 126.42 450.29 126.42 458.13 126.42 465.97 126.42 465.97 118.58 465.97 110.74 458.13 110.74 450.29 110.74 442.45 110.74 434.6 110.74"/><path class="hat-5" d="M356.17,68v11.4H379.7V71.52h-7.84V63.68h-7.32Q360.28,65.68,356.17,68Z"/><rect class="hat-5" x="371.86" y="110.74" width="7.84" height="7.84"/><rect class="hat-5" x="403.23" y="87.21" width="7.84" height="7.84"/><polygon class="hat-5" points="411.07 110.74 418.92 110.74 418.92 102.89 418.92 95.05 411.07 95.05 411.07 102.89 411.07 110.74"/><circle class="hat-6" cx="555.32" cy="244.07" r="17.85"/><path class="hat-6" d="M485,177.6c3.4,3.87,16,19,20.08,21.38,2.09,1.23,4.3-17.74,4.47-19,1.76-13.46,2.77-28-1.57-41.08-4.22-12.75-14.76-19.3-26.78-23.72-14.86-5.47-27.78-12.67-44.26-12.94-9.42-.15-18.82-1-28.27-.86-14.78.27-29.58.44-44.29,2-10.56,1.12-21,3.19-31.41,5.19-16,3.08-34.15,6-40.61,23.74-2.1,5.8-2.26,12.1-2.19,18.26A216.74,216.74,0,0,0,295.82,197c3.78-3.87,5.49-9,8.77-13.4a66.22,66.22,0,0,1,11.52-11.9,80.32,80.32,0,0,1,29.1-14.6c29.32-8,63-9.79,92.84-4.63C454.65,155.38,473.17,164.16,485,177.6Z"/><rect class="hat-7" width="800" height="800"/></g></g></svg>
