<svg xmlns="http://www.w3.org/2000/svg" xmlns:xlink="http://www.w3.org/1999/xlink" viewBox="0 0 800 800"><defs><style>.hat-1{fill:none;}.hat-2{clip-path:url(#hat-clip-path);}.hat-3{fill:#600;stroke:#600;}.hat-3,.hat-4,.hat-5,.hat-6{stroke-miterlimit:10;stroke-width:0.5px;}.hat-4{fill:#060;stroke:#060;}.hat-5{fill:#030;stroke:#030;}.hat-6{fill:#c00;stroke:#c00;}.hat-7{fill:#fff;}</style><clipPath id="hat-clip-path"><path class="hat-1" d="M355.35,134a395.8,395.8,0,0,1,145.2,23.76c14,5.11,28.34,11.46,37.66,23.11,14.75,18.42,13.15,44.9,7.82,67.89,8.2-23.74,16.47-47.74,19.17-72.71s-.59-51.39-14.07-72.59C535.43,78.81,507.77,64,479.55,56.28c-32.35-8.81-67.32-9.42-99.16,1.08s-60.27,32.56-75.88,62.23c-3.07,1.48-3.68,7.08-1.06,9.25s6.31,2.35,9.71,2.43l17.64.4C336.57,131.8,349.58,133.9,355.35,134Z"/></clipPath></defs><title>4000_hat_camoflauge (2)</title><g id="Layer_2" data-name="Layer 2"><g id="_4000_hat_camoflauge" data-name="4000_hat_camoflauge"><g class="hat-2"><rect class="hat-3" x="575.78" y="134.27" width="7.84" height="7.84"/><rect class="hat-3" x="575.78" y="95.05" width="7.84" height="7.84"/><rect class="hat-4" x="567.94" y="212.7" width="7.84" height="7.84"/><rect class="hat-4" x="567.94" y="204.85" width="7.84" height="7.85"/><rect class="hat-4" x="567.94" y="197.01" width="7.84" height="7.84"/><rect class="hat-4" x="567.94" y="189.17" width="7.84" height="7.84"/><rect class="hat-4" x="567.94" y="181.33" width="7.84" height="7.84"/><rect class="hat-4" x="567.94" y="173.48" width="7.84" height="7.85"/><rect class="hat-4" x="567.94" y="165.64" width="7.84" height="7.84"/><rect class="hat-4" x="567.94" y="157.8" width="7.84" height="7.84"/><rect class="hat-4" x="567.94" y="149.95" width="7.84" height="7.85"/><rect class="hat-4" x="567.94" y="142.11" width="7.84" height="7.84"/><rect class="hat-4" x="567.94" y="134.27" width="7.84" height="7.84"/><rect class="hat-4" x="567.94" y="126.42" width="7.84" height="7.85"/><rect class="hat-4" x="567.94" y="118.58" width="7.84" height="7.84"/><rect class="hat-5" x="567.94" y="110.74" width="7.84" height="7.84"/><rect class="hat-3" x="567.94" y="95.05" width="7.84" height="7.84"/><rect class="hat-5" x="567.94" y="87.21" width="7.84" height="7.84"/><rect class="hat-5" x="567.94" y="79.36" width="7.84" height="7.85"/><rect class="hat-4" x="560.09" y="220.54" width="7.85" height="7.84"/><rect class="hat-4" x="560.09" y="212.7" width="7.85" height="7.84"/><rect class="hat-5" x="560.09" y="204.85" width="7.85" height="7.85"/><rect class="hat-5" x="560.09" y="197.01" width="7.85" height="7.84"/><rect class="hat-6" x="560.09" y="189.17" width="7.85" height="7.84"/><rect class="hat-6" x="560.09" y="181.33" width="7.85" height="7.84"/><rect class="hat-6" x="560.09" y="173.48" width="7.85" height="7.85"/><rect class="hat-6" x="560.09" y="165.64" width="7.85" height="7.84"/><rect class="hat-6" x="560.09" y="157.8" width="7.85" height="7.84"/><rect class="hat-4" x="560.09" y="149.95" width="7.85" height="7.85"/><rect class="hat-3" x="560.09" y="142.11" width="7.85" height="7.84"/><rect class="hat-3" x="560.09" y="134.27" width="7.85" height="7.84"/><rect class="hat-3" x="560.09" y="126.42" width="7.85" height="7.85"/><rect class="hat-4" x="560.09" y="118.58" width="7.85" height="7.84"/><rect class="hat-6" x="560.09" y="110.74" width="7.85" height="7.84"/><rect class="hat-6" x="560.09" y="102.89" width="7.85" height="7.85"/><rect class="hat-6" x="560.09" y="95.05" width="7.85" height="7.84"/><rect class="hat-4" x="560.09" y="87.21" width="7.85" height="7.84"/><rect class="hat-4" x="560.09" y="79.36" width="7.85" height="7.85"/><rect class="hat-3" x="560.09" y="71.52" width="7.85" height="7.84"/><rect class="hat-4" x="552.25" y="228.38" width="7.84" height="7.85"/><rect class="hat-4" x="552.25" y="220.54" width="7.84" height="7.84"/><rect class="hat-5" x="552.25" y="212.7" width="7.84" height="7.84"/><rect class="hat-4" x="552.25" y="204.85" width="7.84" height="7.85"/><rect class="hat-6" x="552.25" y="197.01" width="7.84" height="7.84"/><rect class="hat-3" x="552.25" y="189.17" width="7.84" height="7.84"/><rect class="hat-5" x="552.25" y="181.33" width="7.84" height="7.84"/><rect class="hat-4" x="552.25" y="173.48" width="7.84" height="7.85"/><rect class="hat-5" x="552.25" y="165.64" width="7.84" height="7.84"/><rect class="hat-5" x="552.25" y="157.8" width="7.84" height="7.84"/><rect class="hat-6" x="552.25" y="149.95" width="7.84" height="7.85"/><rect class="hat-3" x="552.25" y="142.11" width="7.84" height="7.84"/><rect class="hat-4" x="552.25" y="134.27" width="7.84" height="7.84"/><rect class="hat-3" x="552.25" y="126.42" width="7.84" height="7.85"/><rect class="hat-6" x="552.25" y="118.58" width="7.84" height="7.84"/><rect class="hat-5" x="552.25" y="110.74" width="7.84" height="7.84"/><rect class="hat-5" x="552.25" y="102.89" width="7.84" height="7.85"/><rect class="hat-6" x="552.25" y="95.05" width="7.84" height="7.84"/><rect class="hat-4" x="552.25" y="87.21" width="7.84" height="7.84"/><rect class="hat-4" x="552.25" y="79.36" width="7.84" height="7.85"/><rect class="hat-3" x="552.25" y="71.52" width="7.84" height="7.84"/><rect class="hat-3" x="552.25" y="63.68" width="7.84" height="7.84"/><rect class="hat-4" x="544.41" y="236.23" width="7.84" height="7.84"/><rect class="hat-4" x="544.41" y="228.38" width="7.84" height="7.85"/><rect class="hat-4" x="544.41" y="220.54" width="7.84" height="7.84"/><rect class="hat-5" x="544.41" y="212.7" width="7.84" height="7.84"/><rect class="hat-6" x="544.41" y="204.85" width="7.84" height="7.85"/><rect class="hat-6" x="544.41" y="197.01" width="7.84" height="7.84"/><rect class="hat-3" x="544.41" y="189.17" width="7.84" height="7.84"/><rect class="hat-4" x="544.41" y="181.33" width="7.84" height="7.84"/><rect class="hat-4" x="544.41" y="173.48" width="7.84" height="7.85"/><rect class="hat-4" x="544.41" y="165.64" width="7.84" height="7.84"/><rect class="hat-5" x="544.41" y="157.8" width="7.84" height="7.84"/><rect class="hat-6" x="544.41" y="149.95" width="7.84" height="7.85"/><rect class="hat-6" x="544.41" y="142.11" width="7.84" height="7.84"/><rect class="hat-5" x="544.41" y="134.27" width="7.84" height="7.84"/><rect class="hat-5" x="544.41" y="126.42" width="7.84" height="7.85"/><rect class="hat-6" x="544.41" y="118.58" width="7.84" height="7.84"/><rect class="hat-5" x="544.41" y="110.74" width="7.84" height="7.84"/><rect class="hat-5" x="544.41" y="102.89" width="7.84" height="7.85"/><rect class="hat-5" x="544.41" y="95.05" width="7.84" height="7.84"/><rect class="hat-6" x="544.41" y="87.21" width="7.84" height="7.84"/><rect class="hat-5" x="544.41" y="79.36" width="7.84" height="7.85"/><rect class="hat-5" x="544.41" y="71.52" width="7.84" height="7.84"/><rect class="hat-3" x="544.41" y="63.68" width="7.84" height="7.84"/><rect class="hat-4" x="536.56" y="236.23" width="7.85" height="7.84"/><rect class="hat-4" x="536.56" y="220.54" width="7.85" height="7.84"/><rect class="hat-4" x="536.56" y="212.7" width="7.85" height="7.84"/><rect class="hat-6" x="536.56" y="204.85" width="7.85" height="7.85"/><rect class="hat-5" x="536.56" y="197.01" width="7.85" height="7.84"/><rect class="hat-5" x="536.56" y="189.17" width="7.85" height="7.84"/><rect class="hat-3" x="536.56" y="181.33" width="7.85" height="7.84"/><rect class="hat-4" x="536.56" y="173.48" width="7.85" height="7.85"/><rect class="hat-4" x="536.56" y="165.64" width="7.85" height="7.84"/><rect class="hat-4" x="536.56" y="157.8" width="7.85" height="7.84"/><rect class="hat-3" x="536.56" y="149.95" width="7.85" height="7.85"/><rect class="hat-6" x="536.56" y="142.11" width="7.85" height="7.84"/><rect class="hat-5" x="536.56" y="134.27" width="7.85" height="7.84"/><rect class="hat-3" x="536.56" y="126.42" width="7.85" height="7.85"/><rect class="hat-6" x="536.56" y="118.58" width="7.85" height="7.84"/><rect class="hat-4" x="536.56" y="110.74" width="7.85" height="7.84"/><rect class="hat-4" x="536.56" y="102.89" width="7.85" height="7.85"/><rect class="hat-4" x="536.56" y="95.05" width="7.85" height="7.84"/><rect class="hat-5" x="536.56" y="87.21" width="7.85" height="7.84"/><rect class="hat-6" x="536.56" y="79.36" width="7.85" height="7.85"/><rect class="hat-4" x="536.56" y="71.52" width="7.85" height="7.84"/><rect class="hat-3" x="536.56" y="63.68" width="7.85" height="7.84"/><rect class="hat-4" x="528.72" y="236.23" width="7.84" height="7.84"/><rect class="hat-4" x="528.72" y="228.38" width="7.84" height="7.85"/><rect class="hat-4" x="528.72" y="220.54" width="7.84" height="7.84"/><rect class="hat-4" x="528.72" y="212.7" width="7.84" height="7.84"/><rect class="hat-5" x="528.72" y="204.85" width="7.84" height="7.85"/><rect class="hat-5" x="528.72" y="197.01" width="7.84" height="7.84"/><rect class="hat-5" x="528.72" y="189.17" width="7.84" height="7.84"/><rect class="hat-3" x="528.72" y="181.33" width="7.84" height="7.84"/><rect class="hat-5" x="528.72" y="173.48" width="7.84" height="7.85"/><rect class="hat-5" x="528.72" y="165.64" width="7.84" height="7.84"/><rect class="hat-3" x="528.72" y="157.8" width="7.84" height="7.84"/><rect class="hat-5" x="528.72" y="149.95" width="7.84" height="7.85"/><rect class="hat-6" x="528.72" y="142.11" width="7.84" height="7.84"/><rect class="hat-5" x="528.72" y="134.27" width="7.84" height="7.84"/><rect class="hat-6" x="528.72" y="126.42" width="7.84" height="7.85"/><rect class="hat-6" x="528.72" y="118.58" width="7.84" height="7.84"/><rect class="hat-5" x="528.72" y="110.74" width="7.84" height="7.84"/><rect class="hat-3" x="528.72" y="102.89" width="7.84" height="7.85"/><rect class="hat-3" x="528.72" y="95.05" width="7.84" height="7.84"/><rect class="hat-3" x="528.72" y="87.21" width="7.84" height="7.84"/><rect class="hat-3" x="528.72" y="79.36" width="7.84" height="7.85"/><rect class="hat-6" x="528.72" y="71.52" width="7.84" height="7.84"/><rect class="hat-3" x="528.72" y="63.68" width="7.84" height="7.84"/><rect class="hat-4" x="520.88" y="212.7" width="7.84" height="7.84"/><rect class="hat-4" x="520.88" y="204.85" width="7.84" height="7.85"/><rect class="hat-4" x="520.88" y="197.01" width="7.84" height="7.84"/><rect class="hat-5" x="520.88" y="189.17" width="7.84" height="7.84"/><rect class="hat-3" x="520.88" y="181.33" width="7.84" height="7.84"/><rect class="hat-6" x="520.88" y="173.48" width="7.84" height="7.85"/><rect class="hat-6" x="520.88" y="165.64" width="7.84" height="7.84"/><rect class="hat-6" x="520.88" y="157.8" width="7.84" height="7.84"/><rect class="hat-5" x="520.88" y="149.95" width="7.84" height="7.85"/><rect class="hat-5" x="520.88" y="142.11" width="7.84" height="7.84"/><rect class="hat-6" x="520.88" y="134.27" width="7.84" height="7.84"/><rect class="hat-6" x="520.88" y="126.42" width="7.84" height="7.85"/><rect class="hat-3" x="520.88" y="118.58" width="7.84" height="7.84"/><rect class="hat-3" x="520.88" y="110.74" width="7.84" height="7.84"/><rect class="hat-5" x="520.88" y="102.89" width="7.84" height="7.85"/><rect class="hat-5" x="520.88" y="95.05" width="7.84" height="7.84"/><rect class="hat-3" x="520.88" y="87.21" width="7.84" height="7.84"/><rect class="hat-3" x="520.88" y="79.36" width="7.84" height="7.85"/><rect class="hat-6" x="520.88" y="71.52" width="7.84" height="7.84"/><rect class="hat-6" x="520.88" y="63.68" width="7.84" height="7.84"/><rect class="hat-4" x="513.03" y="212.7" width="7.85" height="7.84"/><rect class="hat-4" x="513.03" y="204.85" width="7.85" height="7.85"/><rect class="hat-4" x="513.03" y="197.01" width="7.85" height="7.84"/><rect class="hat-6" x="513.03" y="189.17" width="7.85" height="7.84"/><rect class="hat-6" x="513.03" y="181.33" width="7.85" height="7.84"/><rect class="hat-5" x="513.03" y="173.48" width="7.85" height="7.85"/><rect class="hat-3" x="513.03" y="165.64" width="7.85" height="7.84"/><rect class="hat-6" x="513.03" y="157.8" width="7.85" height="7.84"/><rect class="hat-4" x="513.03" y="149.95" width="7.85" height="7.85"/><rect class="hat-3" x="513.03" y="142.11" width="7.85" height="7.84"/><rect class="hat-3" x="513.03" y="134.27" width="7.85" height="7.84"/><rect class="hat-3" x="513.03" y="126.42" width="7.85" height="7.85"/><rect class="hat-4" x="513.03" y="118.58" width="7.85" height="7.84"/><rect class="hat-5" x="513.03" y="110.74" width="7.85" height="7.84"/><rect class="hat-5" x="513.03" y="102.89" width="7.85" height="7.85"/><rect class="hat-5" x="513.03" y="95.05" width="7.85" height="7.84"/><rect class="hat-5" x="513.03" y="87.21" width="7.85" height="7.84"/><rect class="hat-4" x="513.03" y="79.36" width="7.85" height="7.85"/><rect class="hat-3" x="513.03" y="71.52" width="7.85" height="7.84"/><rect class="hat-3" x="513.03" y="63.68" width="7.85" height="7.84"/><rect class="hat-6" x="513.03" y="55.84" width="7.85" height="7.84"/><rect class="hat-5" x="513.03" y="47.99" width="7.85" height="7.85"/><rect class="hat-6" x="505.19" y="212.7" width="7.84" height="7.84"/><rect class="hat-6" x="505.19" y="204.85" width="7.84" height="7.85"/><rect class="hat-4" x="505.19" y="197.01" width="7.84" height="7.84"/><rect class="hat-4" x="505.19" y="189.17" width="7.84" height="7.84"/><rect class="hat-3" x="505.19" y="181.33" width="7.84" height="7.84"/><rect class="hat-3" x="505.19" y="165.64" width="7.84" height="7.84"/><rect class="hat-3" x="505.19" y="157.8" width="7.84" height="7.84"/><rect class="hat-6" x="505.19" y="149.95" width="7.84" height="7.85"/><rect class="hat-3" x="505.19" y="142.11" width="7.84" height="7.84"/><rect class="hat-5" x="505.19" y="134.27" width="7.84" height="7.84"/><rect class="hat-5" x="505.19" y="126.42" width="7.84" height="7.85"/><rect class="hat-5" x="505.19" y="118.58" width="7.84" height="7.84"/><rect class="hat-5" x="505.19" y="110.74" width="7.84" height="7.84"/><rect class="hat-5" x="505.19" y="102.89" width="7.84" height="7.85"/><rect class="hat-5" x="505.19" y="95.05" width="7.84" height="7.84"/><rect class="hat-3" x="505.19" y="87.21" width="7.84" height="7.84"/><rect class="hat-4" x="505.19" y="79.36" width="7.84" height="7.85"/><rect class="hat-3" x="505.19" y="71.52" width="7.84" height="7.84"/><rect class="hat-3" x="505.19" y="63.68" width="7.84" height="7.84"/><rect class="hat-6" x="505.19" y="55.84" width="7.84" height="7.84"/><rect class="hat-5" x="505.19" y="47.99" width="7.84" height="7.85"/><rect class="hat-3" x="497.35" y="181.33" width="7.84" height="7.84"/><rect class="hat-3" x="497.35" y="173.48" width="7.84" height="7.85"/><rect class="hat-3" x="497.35" y="165.64" width="7.84" height="7.84"/><rect class="hat-3" x="497.35" y="157.8" width="7.84" height="7.84"/><rect class="hat-6" x="497.35" y="149.95" width="7.84" height="7.85"/><rect class="hat-5" x="497.35" y="142.11" width="7.84" height="7.84"/><rect class="hat-5" x="497.35" y="134.27" width="7.84" height="7.84"/><rect class="hat-3" x="497.35" y="126.42" width="7.84" height="7.85"/><rect class="hat-4" x="497.35" y="118.58" width="7.84" height="7.84"/><rect class="hat-5" x="497.35" y="110.74" width="7.84" height="7.84"/><rect class="hat-5" x="497.35" y="102.89" width="7.84" height="7.85"/><rect class="hat-4" x="497.35" y="95.05" width="7.84" height="7.84"/><rect class="hat-3" x="497.35" y="87.21" width="7.84" height="7.84"/><rect class="hat-5" x="497.35" y="79.36" width="7.84" height="7.85"/><rect class="hat-3" x="497.35" y="71.52" width="7.84" height="7.84"/><rect class="hat-4" x="497.35" y="63.68" width="7.84" height="7.84"/><rect class="hat-3" x="497.35" y="55.84" width="7.84" height="7.84"/><rect class="hat-6" x="497.35" y="47.99" width="7.84" height="7.85"/><rect class="hat-5" x="489.5" y="173.48" width="7.85" height="7.85"/><rect class="hat-5" x="489.5" y="165.64" width="7.85" height="7.84"/><rect class="hat-3" x="489.5" y="157.8" width="7.85" height="7.84"/><rect class="hat-5" x="489.5" y="149.95" width="7.85" height="7.85"/><rect class="hat-6" x="489.5" y="142.11" width="7.85" height="7.84"/><rect class="hat-4" x="489.5" y="134.27" width="7.85" height="7.84"/><rect class="hat-3" x="489.5" y="126.42" width="7.85" height="7.85"/><rect class="hat-4" x="489.5" y="118.58" width="7.85" height="7.84"/><rect class="hat-5" x="489.5" y="110.74" width="7.85" height="7.84"/><rect class="hat-5" x="489.5" y="102.89" width="7.85" height="7.85"/><rect class="hat-3" x="489.5" y="95.05" width="7.85" height="7.84"/><rect class="hat-3" x="489.5" y="87.21" width="7.85" height="7.84"/><rect class="hat-5" x="489.5" y="79.36" width="7.85" height="7.85"/><rect class="hat-3" x="489.5" y="71.52" width="7.85" height="7.84"/><rect class="hat-4" x="489.5" y="63.68" width="7.85" height="7.84"/><rect class="hat-3" x="489.5" y="55.84" width="7.85" height="7.84"/><rect class="hat-6" x="489.5" y="47.99" width="7.85" height="7.85"/><rect class="hat-4" x="481.66" y="165.64" width="7.84" height="7.84"/><rect class="hat-3" x="481.66" y="157.8" width="7.84" height="7.84"/><rect class="hat-3" x="481.66" y="149.95" width="7.84" height="7.85"/><rect class="hat-6" x="481.66" y="142.11" width="7.84" height="7.84"/><rect class="hat-5" x="481.66" y="134.27" width="7.84" height="7.84"/><rect class="hat-5" x="481.66" y="126.42" width="7.84" height="7.85"/><rect class="hat-4" x="481.66" y="118.58" width="7.84" height="7.84"/><rect class="hat-5" x="481.66" y="110.74" width="7.84" height="7.84"/><rect class="hat-5" x="481.66" y="102.89" width="7.84" height="7.85"/><rect class="hat-4" x="481.66" y="95.05" width="7.84" height="7.84"/><rect class="hat-6" x="481.66" y="87.21" width="7.84" height="7.84"/><rect class="hat-6" x="481.66" y="79.36" width="7.84" height="7.85"/><rect class="hat-6" x="481.66" y="71.52" width="7.84" height="7.84"/><rect class="hat-4" x="481.66" y="63.68" width="7.84" height="7.84"/><rect class="hat-4" x="481.66" y="55.84" width="7.84" height="7.84"/><rect class="hat-6" x="481.66" y="47.99" width="7.84" height="7.85"/><rect class="hat-4" x="473.82" y="157.8" width="7.84" height="7.84"/><rect class="hat-4" x="473.82" y="149.95" width="7.84" height="7.85"/><rect class="hat-6" x="473.82" y="142.11" width="7.84" height="7.84"/><rect class="hat-6" x="473.82" y="134.27" width="7.84" height="7.84"/><rect class="hat-3" x="473.82" y="126.42" width="7.84" height="7.85"/><rect class="hat-3" x="473.82" y="118.58" width="7.84" height="7.84"/><rect class="hat-5" x="473.82" y="110.74" width="7.84" height="7.84"/><rect class="hat-5" x="473.82" y="102.89" width="7.84" height="7.85"/><rect class="hat-3" x="473.82" y="95.05" width="7.84" height="7.84"/><rect class="hat-6" x="473.82" y="87.21" width="7.84" height="7.84"/><rect class="hat-6" x="473.82" y="79.36" width="7.84" height="7.85"/><rect class="hat-6" x="473.82" y="71.52" width="7.84" height="7.84"/><rect class="hat-6" x="473.82" y="63.68" width="7.84" height="7.84"/><rect class="hat-4" x="473.82" y="55.84" width="7.84" height="7.84"/><rect class="hat-3" x="473.82" y="47.99" width="7.84" height="7.85"/><rect class="hat-4" x="465.97" y="149.95" width="7.85" height="7.85"/><rect class="hat-4" x="465.97" y="142.11" width="7.85" height="7.84"/><rect class="hat-6" x="465.97" y="134.27" width="7.85" height="7.84"/><rect class="hat-6" x="465.97" y="126.42" width="7.85" height="7.85"/><rect class="hat-6" x="465.97" y="118.58" width="7.85" height="7.84"/><rect class="hat-6" x="465.97" y="110.74" width="7.85" height="7.84"/><rect class="hat-6" x="465.97" y="102.89" width="7.85" height="7.85"/><rect class="hat-6" x="465.97" y="95.05" width="7.85" height="7.84"/><rect class="hat-6" x="465.97" y="87.21" width="7.85" height="7.84"/><rect class="hat-6" x="465.97" y="79.36" width="7.85" height="7.85"/><rect class="hat-6" x="465.97" y="71.52" width="7.85" height="7.84"/><rect class="hat-6" x="465.97" y="63.68" width="7.85" height="7.84"/><rect class="hat-6" x="465.97" y="55.84" width="7.85" height="7.84"/><rect class="hat-3" x="465.97" y="47.99" width="7.85" height="7.85"/><rect class="hat-4" x="458.13" y="149.95" width="7.84" height="7.85"/><rect class="hat-4" x="458.13" y="142.11" width="7.84" height="7.84"/><rect class="hat-6" x="458.13" y="134.27" width="7.84" height="7.84"/><rect class="hat-6" x="458.13" y="126.42" width="7.84" height="7.85"/><rect class="hat-4" x="458.13" y="118.58" width="7.84" height="7.84"/><rect class="hat-4" x="458.13" y="110.74" width="7.84" height="7.84"/><rect class="hat-3" x="458.13" y="102.89" width="7.84" height="7.85"/><rect class="hat-5" x="458.13" y="95.05" width="7.84" height="7.84"/><rect class="hat-5" x="458.13" y="87.21" width="7.84" height="7.84"/><rect class="hat-5" x="458.13" y="79.36" width="7.84" height="7.85"/><rect class="hat-6" x="458.13" y="71.52" width="7.84" height="7.84"/><rect class="hat-6" x="458.13" y="63.68" width="7.84" height="7.84"/><rect class="hat-6" x="458.13" y="55.84" width="7.84" height="7.84"/><rect class="hat-3" x="458.13" y="47.99" width="7.84" height="7.85"/><rect class="hat-4" x="450.29" y="149.95" width="7.84" height="7.85"/><rect class="hat-4" x="450.29" y="142.11" width="7.84" height="7.84"/><rect class="hat-6" x="450.29" y="134.27" width="7.84" height="7.84"/><rect class="hat-6" x="450.29" y="126.42" width="7.84" height="7.85"/><rect class="hat-4" x="450.29" y="118.58" width="7.84" height="7.84"/><rect class="hat-4" x="450.29" y="110.74" width="7.84" height="7.84"/><rect class="hat-5" x="450.29" y="102.89" width="7.84" height="7.85"/><rect class="hat-3" x="450.29" y="95.05" width="7.84" height="7.84"/><rect class="hat-5" x="450.29" y="87.21" width="7.84" height="7.84"/><rect class="hat-5" x="450.29" y="79.36" width="7.84" height="7.85"/><rect class="hat-4" x="450.29" y="71.52" width="7.84" height="7.84"/><rect class="hat-6" x="450.29" y="63.68" width="7.84" height="7.84"/><rect class="hat-6" x="450.29" y="55.84" width="7.84" height="7.84"/><rect class="hat-3" x="450.29" y="47.99" width="7.84" height="7.85"/><rect class="hat-3" x="450.29" y="40.15" width="7.84" height="7.84"/><rect class="hat-4" x="442.45" y="149.95" width="7.84" height="7.85"/><rect class="hat-5" x="442.45" y="142.11" width="7.84" height="7.84"/><rect class="hat-6" x="442.45" y="134.27" width="7.84" height="7.84"/><rect class="hat-3" x="442.45" y="126.42" width="7.84" height="7.85"/><rect class="hat-4" x="442.45" y="118.58" width="7.84" height="7.84"/><rect class="hat-4" x="442.45" y="110.74" width="7.84" height="7.84"/><rect class="hat-5" x="442.45" y="102.89" width="7.84" height="7.85"/><rect class="hat-3" x="442.45" y="95.05" width="7.84" height="7.84"/><rect class="hat-5" x="442.45" y="87.21" width="7.84" height="7.84"/><rect class="hat-5" x="442.45" y="79.36" width="7.84" height="7.85"/><rect class="hat-4" x="442.45" y="71.52" width="7.84" height="7.84"/><rect class="hat-6" x="442.45" y="63.68" width="7.84" height="7.84"/><rect class="hat-6" x="442.45" y="55.84" width="7.84" height="7.84"/><rect class="hat-3" x="442.45" y="47.99" width="7.84" height="7.85"/><rect class="hat-5" x="434.6" y="149.95" width="7.85" height="7.85"/><rect class="hat-5" x="434.6" y="142.11" width="7.85" height="7.84"/><rect class="hat-5" x="434.6" y="134.27" width="7.85" height="7.84"/><rect class="hat-3" x="434.6" y="126.42" width="7.85" height="7.85"/><rect class="hat-4" x="434.6" y="118.58" width="7.85" height="7.84"/><rect class="hat-4" x="434.6" y="110.74" width="7.85" height="7.84"/><rect class="hat-5" x="434.6" y="102.89" width="7.85" height="7.85"/><rect class="hat-3" x="434.6" y="95.05" width="7.85" height="7.84"/><rect class="hat-3" x="434.6" y="87.21" width="7.85" height="7.84"/><rect class="hat-5" x="434.6" y="79.36" width="7.85" height="7.85"/><rect class="hat-3" x="434.6" y="71.52" width="7.85" height="7.84"/><rect class="hat-6" x="434.6" y="63.68" width="7.85" height="7.84"/><rect class="hat-6" x="434.6" y="55.84" width="7.85" height="7.84"/><rect class="hat-3" x="434.6" y="47.99" width="7.85" height="7.85"/><rect class="hat-5" x="426.76" y="157.8" width="7.84" height="7.84"/><rect class="hat-5" x="426.76" y="149.95" width="7.84" height="7.85"/><rect class="hat-6" x="426.76" y="142.11" width="7.84" height="7.84"/><rect class="hat-6" x="426.76" y="134.27" width="7.84" height="7.84"/><rect class="hat-6" x="426.76" y="126.42" width="7.84" height="7.85"/><rect class="hat-6" x="426.76" y="118.58" width="7.84" height="7.84"/><rect class="hat-6" x="426.76" y="110.74" width="7.84" height="7.84"/><rect class="hat-3" x="426.76" y="102.89" width="7.84" height="7.85"/><rect class="hat-3" x="426.76" y="95.05" width="7.84" height="7.84"/><rect class="hat-3" x="426.76" y="87.21" width="7.84" height="7.84"/><rect class="hat-3" x="426.76" y="79.36" width="7.84" height="7.85"/><rect class="hat-5" x="426.76" y="71.52" width="7.84" height="7.84"/><rect class="hat-6" x="426.76" y="63.68" width="7.84" height="7.84"/><rect class="hat-4" x="426.76" y="55.84" width="7.84" height="7.84"/><rect class="hat-3" x="426.76" y="47.99" width="7.84" height="7.85"/><rect class="hat-5" x="418.92" y="142.11" width="7.84" height="7.84"/><rect class="hat-5" x="418.92" y="134.27" width="7.84" height="7.84"/><rect class="hat-3" x="418.92" y="126.42" width="7.84" height="7.85"/><rect class="hat-5" x="418.92" y="118.58" width="7.84" height="7.84"/><rect class="hat-5" x="418.92" y="110.74" width="7.84" height="7.84"/><rect class="hat-6" x="418.92" y="102.89" width="7.84" height="7.85"/><rect class="hat-6" x="418.92" y="95.05" width="7.84" height="7.84"/><rect class="hat-6" x="418.92" y="87.21" width="7.84" height="7.84"/><rect class="hat-6" x="418.92" y="79.36" width="7.84" height="7.85"/><rect class="hat-6" x="418.92" y="71.52" width="7.84" height="7.84"/><rect class="hat-6" x="418.92" y="63.68" width="7.84" height="7.84"/><rect class="hat-4" x="418.92" y="55.84" width="7.84" height="7.84"/><rect class="hat-3" x="418.92" y="47.99" width="7.84" height="7.85"/><rect class="hat-4" x="411.07" y="142.11" width="7.85" height="7.84"/><rect class="hat-5" x="411.07" y="134.27" width="7.85" height="7.84"/><rect class="hat-5" x="411.07" y="126.42" width="7.85" height="7.85"/><rect class="hat-5" x="411.07" y="118.58" width="7.85" height="7.84"/><rect class="hat-5" x="411.07" y="110.74" width="7.85" height="7.84"/><rect class="hat-4" x="411.07" y="102.89" width="7.85" height="7.85"/><rect class="hat-4" x="411.07" y="95.05" width="7.85" height="7.84"/><rect class="hat-5" x="411.07" y="87.21" width="7.85" height="7.84"/><rect class="hat-5" x="411.07" y="79.36" width="7.85" height="7.85"/><rect class="hat-5" x="411.07" y="71.52" width="7.85" height="7.84"/><rect class="hat-6" x="411.07" y="63.68" width="7.85" height="7.84"/><rect class="hat-4" x="411.07" y="55.84" width="7.85" height="7.84"/><rect class="hat-3" x="411.07" y="47.99" width="7.85" height="7.85"/><rect class="hat-4" x="403.23" y="142.11" width="7.84" height="7.84"/><rect class="hat-4" x="403.23" y="134.27" width="7.84" height="7.84"/><rect class="hat-4" x="403.23" y="126.42" width="7.84" height="7.85"/><rect class="hat-5" x="403.23" y="118.58" width="7.84" height="7.84"/><rect class="hat-5" x="403.23" y="110.74" width="7.84" height="7.84"/><rect class="hat-5" x="403.23" y="102.89" width="7.84" height="7.85"/><rect class="hat-5" x="403.23" y="95.05" width="7.84" height="7.84"/><rect class="hat-4" x="403.23" y="87.21" width="7.84" height="7.84"/><rect class="hat-5" x="403.23" y="79.36" width="7.84" height="7.85"/><rect class="hat-5" x="403.23" y="71.52" width="7.84" height="7.84"/><rect class="hat-6" x="403.23" y="63.68" width="7.84" height="7.84"/><rect class="hat-4" x="403.23" y="55.84" width="7.84" height="7.84"/><rect class="hat-3" x="403.23" y="47.99" width="7.84" height="7.85"/><rect class="hat-4" x="395.39" y="134.27" width="7.84" height="7.84"/><rect class="hat-5" x="395.39" y="126.42" width="7.84" height="7.85"/><rect class="hat-5" x="395.39" y="118.58" width="7.84" height="7.84"/><rect class="hat-5" x="395.39" y="110.74" width="7.84" height="7.84"/><rect class="hat-4" x="395.39" y="102.89" width="7.84" height="7.85"/><rect class="hat-4" x="395.39" y="95.05" width="7.84" height="7.84"/><rect class="hat-5" x="395.39" y="87.21" width="7.84" height="7.84"/><rect class="hat-5" x="395.39" y="79.36" width="7.84" height="7.85"/><rect class="hat-3" x="395.39" y="71.52" width="7.84" height="7.84"/><rect class="hat-6" x="395.39" y="63.68" width="7.84" height="7.84"/><rect class="hat-4" x="395.39" y="55.84" width="7.84" height="7.84"/><rect class="hat-3" x="395.39" y="47.99" width="7.84" height="7.85"/><rect class="hat-4" x="387.54" y="134.27" width="7.85" height="7.84"/><rect class="hat-5" x="387.54" y="126.42" width="7.85" height="7.85"/><rect class="hat-5" x="387.54" y="118.58" width="7.85" height="7.84"/><rect class="hat-5" x="387.54" y="110.74" width="7.85" height="7.84"/><rect class="hat-5" x="387.54" y="102.89" width="7.85" height="7.85"/><rect class="hat-4" x="387.54" y="95.05" width="7.85" height="7.84"/><rect class="hat-4" x="387.54" y="87.21" width="7.85" height="7.84"/><rect class="hat-3" x="387.54" y="79.36" width="7.85" height="7.85"/><rect class="hat-3" x="387.54" y="71.52" width="7.85" height="7.84"/><rect class="hat-6" x="387.54" y="63.68" width="7.85" height="7.84"/><rect class="hat-4" x="387.54" y="55.84" width="7.85" height="7.84"/><rect class="hat-3" x="387.54" y="47.99" width="7.85" height="7.85"/><rect class="hat-4" x="379.7" y="134.27" width="7.84" height="7.84"/><rect class="hat-5" x="379.7" y="126.42" width="7.84" height="7.85"/><rect class="hat-5" x="379.7" y="118.58" width="7.84" height="7.84"/><rect class="hat-5" x="379.7" y="110.74" width="7.84" height="7.84"/><rect class="hat-5" x="379.7" y="102.89" width="7.84" height="7.85"/><rect class="hat-4" x="379.7" y="95.05" width="7.84" height="7.84"/><rect class="hat-3" x="379.7" y="87.21" width="7.84" height="7.84"/><rect class="hat-3" x="379.7" y="79.36" width="7.84" height="7.85"/><rect class="hat-5" x="379.7" y="71.52" width="7.84" height="7.84"/><rect class="hat-6" x="379.7" y="63.68" width="7.84" height="7.84"/><rect class="hat-4" x="379.7" y="55.84" width="7.84" height="7.84"/><rect class="hat-3" x="379.7" y="47.99" width="7.84" height="7.85"/><rect class="hat-6" x="371.86" y="134.27" width="7.84" height="7.84"/><rect class="hat-6" x="371.86" y="126.42" width="7.84" height="7.85"/><rect class="hat-5" x="371.86" y="118.58" width="7.84" height="7.84"/><rect class="hat-4" x="371.86" y="110.74" width="7.84" height="7.84"/><rect class="hat-5" x="371.86" y="102.89" width="7.84" height="7.85"/><rect class="hat-3" x="371.86" y="95.05" width="7.84" height="7.84"/><rect class="hat-5" x="371.86" y="87.21" width="7.84" height="7.84"/><rect class="hat-5" x="371.86" y="79.36" width="7.84" height="7.85"/><rect class="hat-4" x="371.86" y="71.52" width="7.84" height="7.84"/><rect class="hat-6" x="371.86" y="63.68" width="7.84" height="7.84"/><rect class="hat-6" x="371.86" y="55.84" width="7.84" height="7.84"/><rect class="hat-3" x="371.86" y="47.99" width="7.84" height="7.85"/><rect class="hat-6" x="364.01" y="134.27" width="7.85" height="7.84"/><rect class="hat-4" x="364.01" y="126.42" width="7.85" height="7.85"/><rect class="hat-5" x="364.01" y="118.58" width="7.85" height="7.84"/><rect class="hat-3" x="364.01" y="110.74" width="7.85" height="7.84"/><rect class="hat-3" x="364.01" y="102.89" width="7.85" height="7.85"/><rect class="hat-5" x="364.01" y="95.05" width="7.85" height="7.84"/><rect class="hat-5" x="364.01" y="87.21" width="7.85" height="7.84"/><rect class="hat-5" x="364.01" y="79.36" width="7.85" height="7.85"/><rect class="hat-4" x="364.01" y="71.52" width="7.85" height="7.84"/><rect class="hat-4" x="364.01" y="63.68" width="7.85" height="7.84"/><rect class="hat-6" x="364.01" y="55.84" width="7.85" height="7.84"/><rect class="hat-3" x="364.01" y="47.99" width="7.85" height="7.85"/><rect class="hat-6" x="356.17" y="142.11" width="7.84" height="7.84"/><rect class="hat-5" x="356.17" y="134.27" width="7.84" height="7.84"/><rect class="hat-5" x="356.17" y="126.42" width="7.84" height="7.85"/><rect class="hat-3" x="356.17" y="118.58" width="7.84" height="7.84"/><rect class="hat-5" x="356.17" y="110.74" width="7.84" height="7.84"/><rect class="hat-5" x="356.17" y="102.89" width="7.84" height="7.85"/><rect class="hat-4" x="356.17" y="95.05" width="7.84" height="7.84"/><rect class="hat-5" x="356.17" y="87.21" width="7.84" height="7.84"/><rect class="hat-5" x="356.17" y="79.36" width="7.84" height="7.85"/><rect class="hat-4" x="356.17" y="71.52" width="7.84" height="7.84"/><rect class="hat-4" x="356.17" y="63.68" width="7.84" height="7.84"/><rect class="hat-6" x="356.17" y="55.84" width="7.84" height="7.84"/><rect class="hat-3" x="356.17" y="47.99" width="7.84" height="7.85"/><rect class="hat-6" x="348.33" y="149.95" width="7.84" height="7.85"/><rect class="hat-6" x="348.33" y="142.11" width="7.84" height="7.84"/><rect class="hat-5" x="348.33" y="134.27" width="7.84" height="7.84"/><rect class="hat-3" x="348.33" y="126.42" width="7.84" height="7.85"/><rect class="hat-3" x="348.33" y="118.58" width="7.84" height="7.84"/><rect class="hat-3" x="348.33" y="110.74" width="7.84" height="7.84"/><rect class="hat-3" x="348.33" y="102.89" width="7.84" height="7.85"/><rect class="hat-3" x="348.33" y="95.05" width="7.84" height="7.84"/><rect class="hat-3" x="348.33" y="87.21" width="7.84" height="7.84"/><rect class="hat-6" x="348.33" y="79.36" width="7.84" height="7.85"/><rect class="hat-6" x="348.33" y="71.52" width="7.84" height="7.84"/><rect class="hat-5" x="348.33" y="63.68" width="7.84" height="7.84"/><rect class="hat-6" x="348.33" y="55.84" width="7.84" height="7.84"/><rect class="hat-3" x="348.33" y="47.99" width="7.84" height="7.85"/><rect class="hat-3" x="340.48" y="165.64" width="7.85" height="7.84"/><rect class="hat-3" x="340.48" y="157.8" width="7.85" height="7.84"/><rect class="hat-6" x="340.48" y="149.95" width="7.85" height="7.85"/><rect class="hat-6" x="340.48" y="142.11" width="7.85" height="7.84"/><rect class="hat-6" x="340.48" y="134.27" width="7.85" height="7.84"/><rect class="hat-6" x="340.48" y="126.42" width="7.85" height="7.85"/><rect class="hat-6" x="340.48" y="118.58" width="7.85" height="7.84"/><rect class="hat-6" x="340.48" y="110.74" width="7.85" height="7.84"/><rect class="hat-6" x="340.48" y="102.89" width="7.85" height="7.85"/><rect class="hat-6" x="340.48" y="95.05" width="7.85" height="7.84"/><rect class="hat-4" x="340.48" y="87.21" width="7.85" height="7.84"/><rect class="hat-4" x="340.48" y="79.36" width="7.85" height="7.85"/><rect class="hat-6" x="340.48" y="71.52" width="7.85" height="7.84"/><rect class="hat-4" x="340.48" y="63.68" width="7.85" height="7.84"/><rect class="hat-6" x="340.48" y="55.84" width="7.85" height="7.84"/><rect class="hat-3" x="340.48" y="47.99" width="7.85" height="7.85"/><rect class="hat-3" x="332.64" y="157.8" width="7.84" height="7.84"/><rect class="hat-3" x="332.64" y="149.95" width="7.84" height="7.85"/><rect class="hat-3" x="332.64" y="142.11" width="7.84" height="7.84"/><rect class="hat-3" x="332.64" y="134.27" width="7.84" height="7.84"/><rect class="hat-3" x="332.64" y="126.42" width="7.84" height="7.85"/><rect class="hat-3" x="332.64" y="118.58" width="7.84" height="7.84"/><rect class="hat-3" x="332.64" y="110.74" width="7.84" height="7.84"/><rect class="hat-3" x="332.64" y="102.89" width="7.84" height="7.85"/><rect class="hat-6" x="332.64" y="95.05" width="7.84" height="7.84"/><rect class="hat-6" x="332.64" y="87.21" width="7.84" height="7.84"/><rect class="hat-3" x="332.64" y="79.36" width="7.84" height="7.85"/><rect class="hat-6" x="332.64" y="71.52" width="7.84" height="7.84"/><rect class="hat-6" x="332.64" y="63.68" width="7.84" height="7.84"/><rect class="hat-6" x="332.64" y="55.84" width="7.84" height="7.84"/><rect class="hat-4" x="332.64" y="47.99" width="7.84" height="7.85"/><rect class="hat-5" x="324.8" y="134.27" width="7.84" height="7.84"/><rect class="hat-4" x="324.8" y="126.42" width="7.84" height="7.85"/><rect class="hat-4" x="324.8" y="118.58" width="7.84" height="7.84"/><rect class="hat-4" x="324.8" y="110.74" width="7.84" height="7.84"/><rect class="hat-3" x="324.8" y="102.89" width="7.84" height="7.85"/><rect class="hat-3" x="324.8" y="95.05" width="7.84" height="7.84"/><rect class="hat-4" x="324.8" y="87.21" width="7.84" height="7.84"/><rect class="hat-6" x="324.8" y="79.36" width="7.84" height="7.85"/><rect class="hat-6" x="324.8" y="71.52" width="7.84" height="7.84"/><rect class="hat-4" x="324.8" y="63.68" width="7.84" height="7.84"/><rect class="hat-4" x="324.8" y="55.84" width="7.84" height="7.84"/><rect class="hat-4" x="324.8" y="47.99" width="7.84" height="7.85"/><rect class="hat-6" x="316.95" y="149.95" width="7.85" height="7.85"/><rect class="hat-6" x="316.95" y="142.11" width="7.85" height="7.84"/><rect class="hat-5" x="316.95" y="134.27" width="7.85" height="7.84"/><rect class="hat-5" x="316.95" y="126.42" width="7.85" height="7.85"/><rect class="hat-4" x="316.95" y="118.58" width="7.85" height="7.84"/><rect class="hat-4" x="316.95" y="110.74" width="7.85" height="7.84"/><rect class="hat-3" x="316.95" y="102.89" width="7.85" height="7.85"/><rect class="hat-4" x="316.95" y="95.05" width="7.85" height="7.84"/><rect class="hat-4" x="316.95" y="87.21" width="7.85" height="7.84"/><rect class="hat-5" x="316.95" y="79.36" width="7.85" height="7.85"/><rect class="hat-6" x="316.95" y="71.52" width="7.85" height="7.84"/><rect class="hat-4" x="316.95" y="63.68" width="7.85" height="7.84"/><rect class="hat-4" x="316.95" y="55.84" width="7.85" height="7.84"/><rect class="hat-4" x="316.95" y="47.99" width="7.85" height="7.85"/><rect class="hat-6" x="309.11" y="142.11" width="7.84" height="7.84"/><rect class="hat-6" x="309.11" y="134.27" width="7.84" height="7.84"/><rect class="hat-6" x="309.11" y="126.42" width="7.84" height="7.85"/><rect class="hat-6" x="309.11" y="118.58" width="7.84" height="7.84"/><rect class="hat-6" x="309.11" y="110.74" width="7.84" height="7.84"/><rect class="hat-6" x="309.11" y="102.89" width="7.84" height="7.85"/><rect class="hat-6" x="309.11" y="95.05" width="7.84" height="7.84"/><rect class="hat-6" x="309.11" y="87.21" width="7.84" height="7.84"/><rect class="hat-6" x="309.11" y="79.36" width="7.84" height="7.85"/><rect class="hat-6" x="309.11" y="71.52" width="7.84" height="7.84"/><rect class="hat-4" x="309.11" y="63.68" width="7.84" height="7.84"/><rect class="hat-4" x="309.11" y="55.84" width="7.84" height="7.84"/><rect class="hat-4" x="309.11" y="47.99" width="7.84" height="7.85"/><rect class="hat-3" x="301.27" y="134.27" width="7.84" height="7.84"/><rect class="hat-3" x="301.27" y="126.42" width="7.84" height="7.85"/><rect class="hat-3" x="301.27" y="118.58" width="7.84" height="7.84"/><rect class="hat-3" x="301.27" y="110.74" width="7.84" height="7.84"/><rect class="hat-3" x="301.27" y="102.89" width="7.84" height="7.85"/><rect class="hat-3" x="301.27" y="95.05" width="7.84" height="7.84"/><rect class="hat-3" x="301.27" y="87.21" width="7.84" height="7.84"/><rect class="hat-3" x="301.27" y="79.36" width="7.84" height="7.85"/><rect class="hat-4" x="301.27" y="71.52" width="7.84" height="7.84"/><rect class="hat-4" x="301.27" y="63.68" width="7.84" height="7.84"/><rect class="hat-4" x="301.27" y="55.84" width="7.84" height="7.84"/><rect class="hat-4" x="301.27" y="47.99" width="7.84" height="7.85"/><rect class="hat-4" x="293.43" y="134.27" width="7.84" height="7.84"/><rect class="hat-4" x="293.43" y="126.42" width="7.84" height="7.85"/></g><circle class="hat-7" cx="555.32" cy="244.07" r="17.85"/><path class="hat-7" d="M485,177.6c3.4,3.87,16,19,20.08,21.38,2.09,1.23,4.3-17.74,4.47-19,1.76-13.46,2.77-28-1.57-41.08-4.22-12.75-14.76-19.3-26.78-23.72-14.86-5.47-27.78-12.67-44.26-12.94-9.42-.15-18.82-1-28.27-.86-14.78.27-29.58.44-44.29,2-10.56,1.12-21,3.19-31.41,5.19-16,3.08-34.15,6-40.61,23.74-2.1,5.8-2.26,12.1-2.19,18.26A216.74,216.74,0,0,0,295.82,197c3.78-3.87,5.49-9,8.77-13.4a66.22,66.22,0,0,1,11.52-11.9,80.32,80.32,0,0,1,29.1-14.6c29.32-8,63-9.79,92.84-4.63C454.65,155.38,473.17,164.16,485,177.6Z"/><rect class="hat-1" width="800" height="800"/></g></g></svg>
