<svg xmlns="http://www.w3.org/2000/svg" viewBox="0 0 800 800"><defs><style>.hat-1{fill:#fff;}.hat-2{fill:#600;}.hat-3{fill:#060;}.hat-4{fill:#030;}.hat-5{fill:#c00;}.hat-6{fill:none;}</style></defs><title>4000_hat_camo_8_bit</title><g id="Layer_2" data-name="Layer 2"><g id="_4000_hat_camo_8_bit" data-name="4000_hat_camo_8_bit"><rect class="hat-1" x="568.56" y="248.27" width="7.84" height="7.84"/><rect class="hat-1" x="568.56" y="240.42" width="7.84" height="7.85"/><rect class="hat-1" x="568.56" y="232.58" width="7.84" height="7.84"/><rect class="hat-1" x="560.71" y="256.11" width="7.85" height="7.84"/><rect class="hat-1" x="560.71" y="248.27" width="7.85" height="7.84"/><rect class="hat-1" x="560.71" y="240.42" width="7.85" height="7.85"/><rect class="hat-1" x="560.71" y="232.58" width="7.85" height="7.84"/><rect class="hat-1" x="560.71" y="224.74" width="7.85" height="7.84"/><rect class="hat-2" x="560.71" y="177.68" width="7.85" height="7.84"/><rect class="hat-3" x="560.71" y="169.84" width="7.85" height="7.84"/><rect class="hat-3" x="560.71" y="161.99" width="7.85" height="7.85"/><rect class="hat-4" x="560.71" y="154.15" width="7.85" height="7.84"/><rect class="hat-4" x="560.71" y="146.31" width="7.85" height="7.84"/><rect class="hat-4" x="560.71" y="138.46" width="7.85" height="7.85"/><rect class="hat-4" x="560.71" y="130.62" width="7.85" height="7.84"/><rect class="hat-4" x="560.71" y="122.78" width="7.85" height="7.84"/><rect class="hat-1" x="552.87" y="256.11" width="7.84" height="7.84"/><rect class="hat-1" x="552.87" y="248.27" width="7.84" height="7.84"/><rect class="hat-1" x="552.87" y="240.42" width="7.84" height="7.85"/><rect class="hat-1" x="552.87" y="232.58" width="7.84" height="7.84"/><rect class="hat-1" x="552.87" y="224.74" width="7.84" height="7.84"/><rect class="hat-3" x="552.87" y="216.89" width="7.84" height="7.85"/><rect class="hat-3" x="552.87" y="209.05" width="7.84" height="7.84"/><rect class="hat-3" x="552.87" y="201.21" width="7.84" height="7.84"/><rect class="hat-3" x="552.87" y="193.37" width="7.84" height="7.84"/><rect class="hat-3" x="552.87" y="185.52" width="7.84" height="7.85"/><rect class="hat-2" x="552.87" y="177.68" width="7.84" height="7.84"/><rect class="hat-2" x="552.87" y="169.84" width="7.84" height="7.84"/><rect class="hat-2" x="552.87" y="161.99" width="7.84" height="7.85"/><rect class="hat-2" x="552.87" y="154.15" width="7.84" height="7.84"/><rect class="hat-2" x="552.87" y="146.31" width="7.84" height="7.84"/><rect class="hat-2" x="552.87" y="138.46" width="7.84" height="7.85"/><rect class="hat-2" x="552.87" y="130.62" width="7.84" height="7.84"/><rect class="hat-3" x="552.87" y="122.78" width="7.84" height="7.84"/><rect class="hat-3" x="552.87" y="114.93" width="7.84" height="7.85"/><rect class="hat-3" x="552.87" y="107.09" width="7.84" height="7.84"/><rect class="hat-1" x="545.03" y="256.11" width="7.84" height="7.84"/><rect class="hat-1" x="545.03" y="248.27" width="7.84" height="7.84"/><rect class="hat-1" x="545.03" y="240.42" width="7.84" height="7.85"/><rect class="hat-1" x="545.03" y="232.58" width="7.84" height="7.84"/><rect class="hat-1" x="545.03" y="224.74" width="7.84" height="7.84"/><rect class="hat-4" x="545.03" y="216.89" width="7.84" height="7.85"/><rect class="hat-4" x="545.03" y="209.05" width="7.84" height="7.84"/><rect class="hat-4" x="545.03" y="201.21" width="7.84" height="7.84"/><rect class="hat-4" x="545.03" y="193.37" width="7.84" height="7.84"/><rect class="hat-4" x="545.03" y="185.52" width="7.84" height="7.85"/><rect class="hat-2" x="545.03" y="177.68" width="7.84" height="7.84"/><rect class="hat-4" x="545.03" y="169.84" width="7.84" height="7.84"/><rect class="hat-4" x="545.03" y="161.99" width="7.84" height="7.85"/><rect class="hat-4" x="545.03" y="154.15" width="7.84" height="7.84"/><rect class="hat-3" x="545.03" y="146.31" width="7.84" height="7.84"/><rect class="hat-3" x="545.03" y="138.46" width="7.84" height="7.85"/><rect class="hat-3" x="545.03" y="130.62" width="7.84" height="7.84"/><rect class="hat-3" x="545.03" y="122.78" width="7.84" height="7.84"/><rect class="hat-3" x="545.03" y="114.93" width="7.84" height="7.85"/><rect class="hat-5" x="545.03" y="107.09" width="7.84" height="7.84"/><rect class="hat-5" x="545.03" y="99.25" width="7.84" height="7.84"/><rect class="hat-3" x="545.03" y="91.4" width="7.84" height="7.85"/><rect class="hat-1" x="537.19" y="248.27" width="7.84" height="7.84"/><rect class="hat-1" x="537.19" y="240.42" width="7.84" height="7.85"/><rect class="hat-1" x="537.19" y="232.58" width="7.84" height="7.84"/><rect class="hat-3" x="537.19" y="193.37" width="7.84" height="7.84"/><rect class="hat-3" x="537.19" y="185.52" width="7.84" height="7.85"/><rect class="hat-3" x="537.19" y="177.68" width="7.84" height="7.84"/><rect class="hat-2" x="537.19" y="169.84" width="7.84" height="7.84"/><rect class="hat-2" x="537.19" y="161.99" width="7.84" height="7.85"/><rect class="hat-2" x="537.19" y="154.15" width="7.84" height="7.84"/><rect class="hat-4" x="537.19" y="146.31" width="7.84" height="7.84"/><rect class="hat-4" x="537.19" y="138.46" width="7.84" height="7.85"/><rect class="hat-4" x="537.19" y="130.62" width="7.84" height="7.84"/><rect class="hat-4" x="537.19" y="122.78" width="7.84" height="7.84"/><rect class="hat-4" x="537.19" y="114.93" width="7.84" height="7.85"/><rect class="hat-3" x="537.19" y="107.09" width="7.84" height="7.84"/><rect class="hat-5" x="537.19" y="99.25" width="7.84" height="7.84"/><rect class="hat-5" x="537.19" y="91.4" width="7.84" height="7.85"/><rect class="hat-5" x="537.19" y="83.56" width="7.84" height="7.84"/><rect class="hat-3" x="529.34" y="177.68" width="7.85" height="7.84"/><rect class="hat-3" x="529.34" y="169.84" width="7.85" height="7.84"/><rect class="hat-3" x="529.34" y="161.99" width="7.85" height="7.85"/><rect class="hat-2" x="529.34" y="154.15" width="7.85" height="7.84"/><rect class="hat-2" x="529.34" y="146.31" width="7.85" height="7.84"/><rect class="hat-2" x="529.34" y="138.46" width="7.85" height="7.85"/><rect class="hat-2" x="529.34" y="130.62" width="7.85" height="7.84"/><rect class="hat-2" x="529.34" y="122.78" width="7.85" height="7.84"/><rect class="hat-4" x="529.34" y="114.93" width="7.85" height="7.85"/><rect class="hat-3" x="529.34" y="107.09" width="7.85" height="7.84"/><rect class="hat-3" x="529.34" y="99.25" width="7.85" height="7.84"/><rect class="hat-3" x="529.34" y="91.4" width="7.85" height="7.85"/><rect class="hat-5" x="529.34" y="83.56" width="7.85" height="7.84"/><rect class="hat-5" x="529.34" y="75.72" width="7.85" height="7.84"/><rect class="hat-3" x="521.5" y="169.84" width="7.84" height="7.84"/><rect class="hat-3" x="521.5" y="161.99" width="7.84" height="7.85"/><rect class="hat-3" x="521.5" y="154.15" width="7.84" height="7.84"/><rect class="hat-3" x="521.5" y="146.31" width="7.84" height="7.84"/><rect class="hat-3" x="521.5" y="138.46" width="7.84" height="7.85"/><rect class="hat-4" x="521.5" y="130.62" width="7.84" height="7.84"/><rect class="hat-4" x="521.5" y="122.78" width="7.84" height="7.84"/><rect class="hat-2" x="521.5" y="114.93" width="7.84" height="7.85"/><rect class="hat-2" x="521.5" y="107.09" width="7.84" height="7.84"/><rect class="hat-4" x="521.5" y="99.25" width="7.84" height="7.84"/><rect class="hat-4" x="521.5" y="91.4" width="7.84" height="7.85"/><rect class="hat-3" x="521.5" y="83.56" width="7.84" height="7.84"/><rect class="hat-5" x="521.5" y="75.72" width="7.84" height="7.84"/><rect class="hat-3" x="521.5" y="67.88" width="7.84" height="7.84"/><rect class="hat-2" x="513.66" y="161.99" width="7.84" height="7.85"/><rect class="hat-2" x="513.66" y="154.15" width="7.84" height="7.84"/><rect class="hat-2" x="513.66" y="146.31" width="7.84" height="7.84"/><rect class="hat-3" x="513.66" y="138.46" width="7.84" height="7.85"/><rect class="hat-3" x="513.66" y="130.62" width="7.84" height="7.84"/><rect class="hat-4" x="513.66" y="122.78" width="7.84" height="7.84"/><rect class="hat-4" x="513.66" y="114.93" width="7.84" height="7.85"/><rect class="hat-2" x="513.66" y="107.09" width="7.84" height="7.84"/><rect class="hat-3" x="513.66" y="99.25" width="7.84" height="7.84"/><rect class="hat-3" x="513.66" y="91.4" width="7.84" height="7.85"/><rect class="hat-3" x="513.66" y="83.56" width="7.84" height="7.84"/><rect class="hat-5" x="513.66" y="75.72" width="7.84" height="7.84"/><rect class="hat-5" x="513.66" y="67.88" width="7.84" height="7.84"/><rect class="hat-1" x="505.81" y="193.37" width="7.85" height="7.84"/><rect class="hat-1" x="505.81" y="185.52" width="7.85" height="7.85"/><rect class="hat-1" x="505.81" y="177.68" width="7.85" height="7.84"/><rect class="hat-1" x="505.81" y="169.84" width="7.85" height="7.84"/><rect class="hat-1" x="505.81" y="161.99" width="7.85" height="7.85"/><rect class="hat-1" x="505.81" y="154.15" width="7.85" height="7.84"/><rect class="hat-1" x="505.81" y="146.31" width="7.85" height="7.84"/><rect class="hat-1" x="505.81" y="138.46" width="7.85" height="7.85"/><rect class="hat-3" x="505.81" y="130.62" width="7.85" height="7.84"/><rect class="hat-3" x="505.81" y="122.78" width="7.85" height="7.84"/><rect class="hat-3" x="505.81" y="114.93" width="7.85" height="7.85"/><rect class="hat-2" x="505.81" y="107.09" width="7.85" height="7.84"/><rect class="hat-4" x="505.81" y="99.25" width="7.85" height="7.84"/><rect class="hat-4" x="505.81" y="91.4" width="7.85" height="7.85"/><rect class="hat-2" x="505.81" y="83.56" width="7.85" height="7.84"/><rect class="hat-2" x="505.81" y="75.72" width="7.85" height="7.84"/><rect class="hat-5" x="505.81" y="67.88" width="7.85" height="7.84"/><rect class="hat-3" x="505.81" y="60.03" width="7.85" height="7.85"/><rect class="hat-1" x="497.97" y="193.37" width="7.84" height="7.84"/><rect class="hat-1" x="497.97" y="185.52" width="7.84" height="7.85"/><rect class="hat-1" x="497.97" y="177.68" width="7.84" height="7.84"/><rect class="hat-1" x="497.97" y="169.84" width="7.84" height="7.84"/><rect class="hat-1" x="497.97" y="161.99" width="7.84" height="7.85"/><rect class="hat-1" x="497.97" y="154.15" width="7.84" height="7.84"/><rect class="hat-1" x="497.97" y="146.31" width="7.84" height="7.84"/><rect class="hat-1" x="497.97" y="138.46" width="7.84" height="7.85"/><rect class="hat-1" x="497.97" y="130.62" width="7.84" height="7.84"/><rect class="hat-1" x="497.97" y="122.78" width="7.84" height="7.84"/><rect class="hat-3" x="497.97" y="114.93" width="7.84" height="7.85"/><rect class="hat-2" x="497.97" y="107.09" width="7.84" height="7.84"/><rect class="hat-4" x="497.97" y="99.25" width="7.84" height="7.84"/><rect class="hat-4" x="497.97" y="91.4" width="7.84" height="7.85"/><rect class="hat-3" x="497.97" y="83.56" width="7.84" height="7.84"/><rect class="hat-2" x="497.97" y="75.72" width="7.84" height="7.84"/><rect class="hat-5" x="497.97" y="67.88" width="7.84" height="7.84"/><rect class="hat-5" x="497.97" y="60.03" width="7.84" height="7.85"/><rect class="hat-1" x="490.13" y="185.52" width="7.84" height="7.85"/><rect class="hat-1" x="490.13" y="177.68" width="7.84" height="7.84"/><rect class="hat-1" x="490.13" y="169.84" width="7.84" height="7.84"/><rect class="hat-1" x="490.13" y="161.99" width="7.84" height="7.85"/><rect class="hat-1" x="490.13" y="154.15" width="7.84" height="7.84"/><rect class="hat-1" x="490.13" y="146.31" width="7.84" height="7.84"/><rect class="hat-1" x="490.13" y="138.46" width="7.84" height="7.85"/><rect class="hat-1" x="490.13" y="130.62" width="7.84" height="7.84"/><rect class="hat-1" x="490.13" y="122.78" width="7.84" height="7.84"/><rect class="hat-1" x="490.13" y="114.93" width="7.84" height="7.85"/><rect class="hat-2" x="490.13" y="107.09" width="7.84" height="7.84"/><rect class="hat-3" x="490.13" y="99.25" width="7.84" height="7.84"/><rect class="hat-4" x="490.13" y="91.4" width="7.84" height="7.85"/><rect class="hat-4" x="490.13" y="83.56" width="7.84" height="7.84"/><rect class="hat-2" x="490.13" y="75.72" width="7.84" height="7.84"/><rect class="hat-3" x="490.13" y="67.88" width="7.84" height="7.84"/><rect class="hat-5" x="490.13" y="60.03" width="7.84" height="7.85"/><rect class="hat-1" x="482.28" y="177.68" width="7.85" height="7.84"/><rect class="hat-1" x="482.28" y="169.84" width="7.85" height="7.84"/><rect class="hat-1" x="482.28" y="161.99" width="7.85" height="7.85"/><rect class="hat-1" x="482.28" y="154.15" width="7.85" height="7.84"/><rect class="hat-1" x="482.28" y="146.31" width="7.85" height="7.84"/><rect class="hat-1" x="482.28" y="138.46" width="7.85" height="7.85"/><rect class="hat-1" x="482.28" y="130.62" width="7.85" height="7.84"/><rect class="hat-1" x="482.28" y="122.78" width="7.85" height="7.84"/><rect class="hat-1" x="482.28" y="114.93" width="7.85" height="7.85"/><rect class="hat-2" x="482.28" y="107.09" width="7.85" height="7.84"/><rect class="hat-2" x="482.28" y="99.25" width="7.85" height="7.84"/><rect class="hat-4" x="482.28" y="91.4" width="7.85" height="7.85"/><rect class="hat-3" x="482.28" y="83.56" width="7.85" height="7.84"/><rect class="hat-2" x="482.28" y="75.72" width="7.85" height="7.84"/><rect class="hat-4" x="482.28" y="67.88" width="7.85" height="7.84"/><rect class="hat-5" x="482.28" y="60.03" width="7.85" height="7.85"/><rect class="hat-5" x="482.28" y="52.19" width="7.85" height="7.84"/><rect class="hat-1" x="474.44" y="161.99" width="7.84" height="7.85"/><rect class="hat-1" x="474.44" y="154.15" width="7.84" height="7.84"/><rect class="hat-1" x="474.44" y="146.31" width="7.84" height="7.84"/><rect class="hat-1" x="474.44" y="138.46" width="7.84" height="7.85"/><rect class="hat-1" x="474.44" y="130.62" width="7.84" height="7.84"/><rect class="hat-1" x="474.44" y="122.78" width="7.84" height="7.84"/><rect class="hat-1" x="474.44" y="114.93" width="7.84" height="7.85"/><rect class="hat-1" x="474.44" y="107.09" width="7.84" height="7.84"/><rect class="hat-2" x="474.44" y="99.25" width="7.84" height="7.84"/><rect class="hat-4" x="474.44" y="91.4" width="7.84" height="7.85"/><rect class="hat-4" x="474.44" y="83.56" width="7.84" height="7.84"/><rect class="hat-2" x="474.44" y="75.72" width="7.84" height="7.84"/><rect class="hat-2" x="474.44" y="67.88" width="7.84" height="7.84"/><rect class="hat-3" x="474.44" y="60.03" width="7.84" height="7.85"/><rect class="hat-5" x="474.44" y="52.19" width="7.84" height="7.84"/><rect class="hat-1" x="466.6" y="161.99" width="7.84" height="7.85"/><rect class="hat-1" x="466.6" y="154.15" width="7.84" height="7.84"/><rect class="hat-1" x="466.6" y="146.31" width="7.84" height="7.84"/><rect class="hat-1" x="466.6" y="138.46" width="7.84" height="7.85"/><rect class="hat-1" x="466.6" y="130.62" width="7.84" height="7.84"/><rect class="hat-1" x="466.6" y="122.78" width="7.84" height="7.84"/><rect class="hat-1" x="466.6" y="114.93" width="7.84" height="7.85"/><rect class="hat-1" x="466.6" y="107.09" width="7.84" height="7.84"/><rect class="hat-2" x="466.6" y="99.25" width="7.84" height="7.84"/><rect class="hat-4" x="466.6" y="91.4" width="7.84" height="7.85"/><rect class="hat-3" x="466.6" y="83.56" width="7.84" height="7.84"/><rect class="hat-4" x="466.6" y="75.72" width="7.84" height="7.84"/><rect class="hat-2" x="466.6" y="67.88" width="7.84" height="7.84"/><rect class="hat-4" x="466.6" y="60.03" width="7.84" height="7.85"/><rect class="hat-5" x="466.6" y="52.19" width="7.84" height="7.84"/><rect class="hat-1" x="458.75" y="154.15" width="7.85" height="7.84"/><rect class="hat-1" x="458.75" y="146.31" width="7.85" height="7.84"/><rect class="hat-1" x="458.75" y="138.46" width="7.85" height="7.85"/><rect class="hat-1" x="458.75" y="130.62" width="7.85" height="7.84"/><rect class="hat-1" x="458.75" y="122.78" width="7.85" height="7.84"/><rect class="hat-1" x="458.75" y="114.93" width="7.85" height="7.85"/><rect class="hat-1" x="458.75" y="107.09" width="7.85" height="7.84"/><rect class="hat-1" x="458.75" y="99.25" width="7.85" height="7.84"/><rect class="hat-4" x="458.75" y="91.4" width="7.85" height="7.85"/><rect class="hat-3" x="458.75" y="83.56" width="7.85" height="7.84"/><rect class="hat-4" x="458.75" y="75.72" width="7.85" height="7.84"/><rect class="hat-2" x="458.75" y="67.88" width="7.85" height="7.84"/><rect class="hat-4" x="458.75" y="60.03" width="7.85" height="7.85"/><rect class="hat-5" x="458.75" y="52.19" width="7.85" height="7.84"/><rect class="hat-1" x="450.91" y="154.15" width="7.84" height="7.84"/><rect class="hat-1" x="450.91" y="146.31" width="7.84" height="7.84"/><rect class="hat-1" x="450.91" y="138.46" width="7.84" height="7.85"/><rect class="hat-1" x="450.91" y="130.62" width="7.84" height="7.84"/><rect class="hat-1" x="450.91" y="122.78" width="7.84" height="7.84"/><rect class="hat-1" x="450.91" y="114.93" width="7.84" height="7.85"/><rect class="hat-1" x="450.91" y="107.09" width="7.84" height="7.84"/><rect class="hat-1" x="450.91" y="99.25" width="7.84" height="7.84"/><rect class="hat-4" x="450.91" y="91.4" width="7.84" height="7.85"/><rect class="hat-3" x="450.91" y="83.56" width="7.84" height="7.84"/><rect class="hat-4" x="450.91" y="75.72" width="7.84" height="7.84"/><rect class="hat-2" x="450.91" y="67.88" width="7.84" height="7.84"/><rect class="hat-4" x="450.91" y="60.03" width="7.84" height="7.85"/><rect class="hat-5" x="450.91" y="52.19" width="7.84" height="7.84"/><rect class="hat-1" x="443.07" y="146.31" width="7.84" height="7.84"/><rect class="hat-1" x="443.07" y="138.46" width="7.84" height="7.85"/><rect class="hat-1" x="443.07" y="130.62" width="7.84" height="7.84"/><rect class="hat-1" x="443.07" y="122.78" width="7.84" height="7.84"/><rect class="hat-1" x="443.07" y="114.93" width="7.84" height="7.85"/><rect class="hat-1" x="443.07" y="107.09" width="7.84" height="7.84"/><rect class="hat-1" x="443.07" y="99.25" width="7.84" height="7.84"/><rect class="hat-4" x="443.07" y="91.4" width="7.84" height="7.85"/><rect class="hat-3" x="443.07" y="83.56" width="7.84" height="7.84"/><rect class="hat-4" x="443.07" y="75.72" width="7.84" height="7.84"/><rect class="hat-2" x="443.07" y="67.88" width="7.84" height="7.84"/><rect class="hat-4" x="443.07" y="60.03" width="7.84" height="7.85"/><rect class="hat-5" x="443.07" y="52.19" width="7.84" height="7.84"/><rect class="hat-2" x="443.07" y="44.35" width="7.84" height="7.84"/><rect class="hat-1" x="435.22" y="146.31" width="7.85" height="7.84"/><rect class="hat-1" x="435.22" y="138.46" width="7.85" height="7.85"/><rect class="hat-1" x="435.22" y="130.62" width="7.85" height="7.84"/><rect class="hat-1" x="435.22" y="122.78" width="7.85" height="7.84"/><rect class="hat-1" x="435.22" y="114.93" width="7.85" height="7.85"/><rect class="hat-1" x="435.22" y="107.09" width="7.85" height="7.84"/><rect class="hat-1" x="435.22" y="99.25" width="7.85" height="7.84"/><rect class="hat-4" x="435.22" y="91.4" width="7.85" height="7.85"/><rect class="hat-3" x="435.22" y="83.56" width="7.85" height="7.84"/><rect class="hat-4" x="435.22" y="75.72" width="7.85" height="7.84"/><rect class="hat-2" x="435.22" y="67.88" width="7.85" height="7.84"/><rect class="hat-4" x="435.22" y="60.03" width="7.85" height="7.85"/><rect class="hat-5" x="435.22" y="52.19" width="7.85" height="7.84"/><rect class="hat-2" x="435.22" y="44.35" width="7.85" height="7.84"/><rect class="hat-1" x="427.38" y="146.31" width="7.84" height="7.84"/><rect class="hat-1" x="427.38" y="138.46" width="7.84" height="7.85"/><rect class="hat-1" x="427.38" y="130.62" width="7.84" height="7.84"/><rect class="hat-1" x="427.38" y="122.78" width="7.84" height="7.84"/><rect class="hat-1" x="427.38" y="114.93" width="7.84" height="7.85"/><rect class="hat-1" x="427.38" y="107.09" width="7.84" height="7.84"/><rect class="hat-1" x="427.38" y="99.25" width="7.84" height="7.84"/><rect class="hat-2" x="427.38" y="91.4" width="7.84" height="7.85"/><rect class="hat-2" x="427.38" y="83.56" width="7.84" height="7.84"/><rect class="hat-2" x="427.38" y="75.72" width="7.84" height="7.84"/><rect class="hat-2" x="427.38" y="67.88" width="7.84" height="7.84"/><rect class="hat-3" x="427.38" y="60.03" width="7.84" height="7.85"/><rect class="hat-5" x="427.38" y="52.19" width="7.84" height="7.84"/><rect class="hat-2" x="427.38" y="44.35" width="7.84" height="7.84"/><rect class="hat-1" x="419.54" y="146.31" width="7.84" height="7.84"/><rect class="hat-1" x="419.54" y="138.46" width="7.84" height="7.85"/><rect class="hat-1" x="419.54" y="130.62" width="7.84" height="7.84"/><rect class="hat-1" x="419.54" y="122.78" width="7.84" height="7.84"/><rect class="hat-1" x="419.54" y="114.93" width="7.84" height="7.85"/><rect class="hat-1" x="419.54" y="107.09" width="7.84" height="7.84"/><rect class="hat-1" x="419.54" y="99.25" width="7.84" height="7.84"/><rect class="hat-3" x="419.54" y="91.4" width="7.84" height="7.85"/><rect class="hat-3" x="419.54" y="83.56" width="7.84" height="7.84"/><rect class="hat-2" x="419.54" y="75.72" width="7.84" height="7.84"/><rect class="hat-4" x="419.54" y="67.88" width="7.84" height="7.84"/><rect class="hat-2" x="419.54" y="60.03" width="7.84" height="7.85"/><rect class="hat-4" x="419.54" y="52.19" width="7.84" height="7.84"/><rect class="hat-2" x="419.54" y="44.35" width="7.84" height="7.84"/><rect class="hat-1" x="411.7" y="146.31" width="7.84" height="7.84"/><rect class="hat-1" x="411.7" y="138.46" width="7.84" height="7.85"/><rect class="hat-1" x="411.7" y="130.62" width="7.84" height="7.84"/><rect class="hat-1" x="411.7" y="122.78" width="7.84" height="7.84"/><rect class="hat-1" x="411.7" y="114.93" width="7.84" height="7.85"/><rect class="hat-1" x="411.7" y="107.09" width="7.84" height="7.84"/><rect class="hat-1" x="411.7" y="99.25" width="7.84" height="7.84"/><rect class="hat-1" x="411.7" y="91.4" width="7.84" height="7.85"/><rect class="hat-3" x="411.7" y="83.56" width="7.84" height="7.84"/><rect class="hat-2" x="411.7" y="75.72" width="7.84" height="7.84"/><rect class="hat-2" x="411.7" y="67.88" width="7.84" height="7.84"/><rect class="hat-2" x="411.7" y="60.03" width="7.84" height="7.85"/><rect class="hat-4" x="411.7" y="52.19" width="7.84" height="7.84"/><rect class="hat-1" x="403.85" y="146.31" width="7.85" height="7.84"/><rect class="hat-1" x="403.85" y="138.46" width="7.85" height="7.85"/><rect class="hat-1" x="403.85" y="130.62" width="7.85" height="7.84"/><rect class="hat-1" x="403.85" y="122.78" width="7.85" height="7.84"/><rect class="hat-1" x="403.85" y="114.93" width="7.85" height="7.85"/><rect class="hat-1" x="403.85" y="107.09" width="7.85" height="7.84"/><rect class="hat-1" x="403.85" y="99.25" width="7.85" height="7.84"/><rect class="hat-1" x="403.85" y="91.4" width="7.85" height="7.85"/><rect class="hat-3" x="403.85" y="83.56" width="7.85" height="7.84"/><rect class="hat-3" x="403.85" y="75.72" width="7.85" height="7.84"/><rect class="hat-4" x="403.85" y="67.88" width="7.85" height="7.84"/><rect class="hat-3" x="403.85" y="60.03" width="7.85" height="7.85"/><rect class="hat-4" x="403.85" y="52.19" width="7.85" height="7.84"/><rect class="hat-1" x="396.01" y="146.31" width="7.84" height="7.84"/><rect class="hat-1" x="396.01" y="138.46" width="7.84" height="7.85"/><rect class="hat-1" x="396.01" y="130.62" width="7.84" height="7.84"/><rect class="hat-1" x="396.01" y="122.78" width="7.84" height="7.84"/><rect class="hat-1" x="396.01" y="114.93" width="7.84" height="7.85"/><rect class="hat-1" x="396.01" y="107.09" width="7.84" height="7.84"/><rect class="hat-1" x="396.01" y="99.25" width="7.84" height="7.84"/><rect class="hat-1" x="396.01" y="91.4" width="7.84" height="7.85"/><rect class="hat-3" x="396.01" y="83.56" width="7.84" height="7.84"/><rect class="hat-3" x="396.01" y="75.72" width="7.84" height="7.84"/><rect class="hat-4" x="396.01" y="67.88" width="7.84" height="7.84"/><rect class="hat-3" x="396.01" y="60.03" width="7.84" height="7.85"/><rect class="hat-4" x="396.01" y="52.19" width="7.84" height="7.84"/><rect class="hat-1" x="388.17" y="146.31" width="7.84" height="7.84"/><rect class="hat-1" x="388.17" y="138.46" width="7.84" height="7.85"/><rect class="hat-1" x="388.17" y="130.62" width="7.84" height="7.84"/><rect class="hat-1" x="388.17" y="122.78" width="7.84" height="7.84"/><rect class="hat-1" x="388.17" y="114.93" width="7.84" height="7.85"/><rect class="hat-1" x="388.17" y="107.09" width="7.84" height="7.84"/><rect class="hat-1" x="388.17" y="99.25" width="7.84" height="7.84"/><rect class="hat-5" x="388.17" y="91.4" width="7.84" height="7.85"/><rect class="hat-5" x="388.17" y="83.56" width="7.84" height="7.84"/><rect class="hat-5" x="388.17" y="75.72" width="7.84" height="7.84"/><rect class="hat-4" x="388.17" y="67.88" width="7.84" height="7.84"/><rect class="hat-5" x="388.17" y="60.03" width="7.84" height="7.85"/><rect class="hat-4" x="388.17" y="52.19" width="7.84" height="7.84"/><rect class="hat-1" x="380.32" y="146.31" width="7.85" height="7.84"/><rect class="hat-1" x="380.32" y="138.46" width="7.85" height="7.85"/><rect class="hat-1" x="380.32" y="130.62" width="7.85" height="7.84"/><rect class="hat-1" x="380.32" y="122.78" width="7.85" height="7.84"/><rect class="hat-1" x="380.32" y="114.93" width="7.85" height="7.85"/><rect class="hat-1" x="380.32" y="107.09" width="7.85" height="7.84"/><rect class="hat-1" x="380.32" y="99.25" width="7.85" height="7.84"/><rect class="hat-5" x="380.32" y="91.4" width="7.85" height="7.85"/><rect class="hat-5" x="380.32" y="83.56" width="7.85" height="7.84"/><rect class="hat-3" x="380.32" y="75.72" width="7.85" height="7.84"/><rect class="hat-4" x="380.32" y="67.88" width="7.85" height="7.84"/><rect class="hat-5" x="380.32" y="60.03" width="7.85" height="7.85"/><rect class="hat-1" x="372.48" y="146.31" width="7.84" height="7.84"/><rect class="hat-1" x="372.48" y="138.46" width="7.84" height="7.85"/><rect class="hat-1" x="372.48" y="130.62" width="7.84" height="7.84"/><rect class="hat-1" x="372.48" y="122.78" width="7.84" height="7.84"/><rect class="hat-1" x="372.48" y="114.93" width="7.84" height="7.85"/><rect class="hat-1" x="372.48" y="107.09" width="7.84" height="7.84"/><rect class="hat-1" x="372.48" y="99.25" width="7.84" height="7.84"/><rect class="hat-4" x="372.48" y="91.4" width="7.84" height="7.85"/><rect class="hat-5" x="372.48" y="83.56" width="7.84" height="7.84"/><rect class="hat-3" x="372.48" y="75.72" width="7.84" height="7.84"/><rect class="hat-4" x="372.48" y="67.88" width="7.84" height="7.84"/><rect class="hat-5" x="372.48" y="60.03" width="7.84" height="7.85"/><rect class="hat-1" x="364.64" y="146.31" width="7.84" height="7.84"/><rect class="hat-1" x="364.64" y="138.46" width="7.84" height="7.85"/><rect class="hat-1" x="364.64" y="130.62" width="7.84" height="7.84"/><rect class="hat-1" x="364.64" y="122.78" width="7.84" height="7.84"/><rect class="hat-1" x="364.64" y="114.93" width="7.84" height="7.85"/><rect class="hat-1" x="364.64" y="107.09" width="7.84" height="7.84"/><rect class="hat-1" x="364.64" y="99.25" width="7.84" height="7.84"/><rect class="hat-4" x="364.64" y="91.4" width="7.84" height="7.85"/><rect class="hat-5" x="364.64" y="83.56" width="7.84" height="7.84"/><rect class="hat-3" x="364.64" y="75.72" width="7.84" height="7.84"/><rect class="hat-4" x="364.64" y="67.88" width="7.84" height="7.84"/><rect class="hat-5" x="364.64" y="60.03" width="7.84" height="7.85"/><rect class="hat-1" x="356.79" y="146.31" width="7.85" height="7.84"/><rect class="hat-1" x="356.79" y="138.46" width="7.85" height="7.85"/><rect class="hat-1" x="356.79" y="130.62" width="7.85" height="7.84"/><rect class="hat-1" x="356.79" y="122.78" width="7.85" height="7.84"/><rect class="hat-1" x="356.79" y="114.93" width="7.85" height="7.85"/><rect class="hat-1" x="356.79" y="107.09" width="7.85" height="7.84"/><rect class="hat-1" x="356.79" y="99.25" width="7.85" height="7.84"/><rect class="hat-4" x="356.79" y="91.4" width="7.85" height="7.85"/><rect class="hat-4" x="356.79" y="83.56" width="7.85" height="7.84"/><rect class="hat-3" x="356.79" y="75.72" width="7.85" height="7.84"/><rect class="hat-5" x="356.79" y="67.88" width="7.85" height="7.84"/><rect class="hat-5" x="356.79" y="60.03" width="7.85" height="7.85"/><rect class="hat-1" x="348.95" y="146.31" width="7.84" height="7.84"/><rect class="hat-1" x="348.95" y="138.46" width="7.84" height="7.85"/><rect class="hat-1" x="348.95" y="130.62" width="7.84" height="7.84"/><rect class="hat-1" x="348.95" y="122.78" width="7.84" height="7.84"/><rect class="hat-1" x="348.95" y="114.93" width="7.84" height="7.85"/><rect class="hat-1" x="348.95" y="107.09" width="7.84" height="7.84"/><rect class="hat-1" x="348.95" y="99.25" width="7.84" height="7.84"/><rect class="hat-2" x="348.95" y="91.4" width="7.84" height="7.85"/><rect class="hat-4" x="348.95" y="83.56" width="7.84" height="7.84"/><rect class="hat-3" x="348.95" y="75.72" width="7.84" height="7.84"/><rect class="hat-5" x="348.95" y="67.88" width="7.84" height="7.84"/><rect class="hat-1" x="341.11" y="154.15" width="7.84" height="7.84"/><rect class="hat-1" x="341.11" y="146.31" width="7.84" height="7.84"/><rect class="hat-1" x="341.11" y="138.46" width="7.84" height="7.85"/><rect class="hat-1" x="341.11" y="130.62" width="7.84" height="7.84"/><rect class="hat-1" x="341.11" y="122.78" width="7.84" height="7.84"/><rect class="hat-1" x="341.11" y="114.93" width="7.84" height="7.85"/><rect class="hat-1" x="341.11" y="107.09" width="7.84" height="7.84"/><rect class="hat-1" x="341.11" y="99.25" width="7.84" height="7.84"/><rect class="hat-2" x="341.11" y="91.4" width="7.84" height="7.85"/><rect class="hat-4" x="341.11" y="83.56" width="7.84" height="7.84"/><rect class="hat-5" x="341.11" y="75.72" width="7.84" height="7.84"/><rect class="hat-5" x="341.11" y="67.88" width="7.84" height="7.84"/><rect class="hat-1" x="333.26" y="154.15" width="7.85" height="7.84"/><rect class="hat-1" x="333.26" y="146.31" width="7.85" height="7.84"/><rect class="hat-1" x="333.26" y="138.46" width="7.85" height="7.85"/><rect class="hat-1" x="333.26" y="130.62" width="7.85" height="7.84"/><rect class="hat-1" x="333.26" y="122.78" width="7.85" height="7.84"/><rect class="hat-1" x="333.26" y="114.93" width="7.85" height="7.85"/><rect class="hat-1" x="333.26" y="107.09" width="7.85" height="7.84"/><rect class="hat-1" x="333.26" y="99.25" width="7.85" height="7.84"/><rect class="hat-2" x="333.26" y="91.4" width="7.85" height="7.85"/><rect class="hat-3" x="333.26" y="83.56" width="7.85" height="7.84"/><rect class="hat-4" x="333.26" y="75.72" width="7.85" height="7.84"/><rect class="hat-1" x="325.42" y="161.99" width="7.84" height="7.85"/><rect class="hat-1" x="325.42" y="154.15" width="7.84" height="7.84"/><rect class="hat-1" x="325.42" y="146.31" width="7.84" height="7.84"/><rect class="hat-1" x="325.42" y="138.46" width="7.84" height="7.85"/><rect class="hat-1" x="325.42" y="130.62" width="7.84" height="7.84"/><rect class="hat-1" x="325.42" y="122.78" width="7.84" height="7.84"/><rect class="hat-1" x="325.42" y="114.93" width="7.84" height="7.85"/><rect class="hat-1" x="325.42" y="107.09" width="7.84" height="7.84"/><rect class="hat-2" x="325.42" y="99.25" width="7.84" height="7.84"/><rect class="hat-2" x="325.42" y="91.4" width="7.84" height="7.85"/><rect class="hat-4" x="325.42" y="83.56" width="7.84" height="7.84"/><rect class="hat-1" x="317.58" y="161.99" width="7.84" height="7.85"/><rect class="hat-1" x="317.58" y="154.15" width="7.84" height="7.84"/><rect class="hat-1" x="317.58" y="146.31" width="7.84" height="7.84"/><rect class="hat-1" x="317.58" y="138.46" width="7.84" height="7.85"/><rect class="hat-1" x="317.58" y="130.62" width="7.84" height="7.84"/><rect class="hat-1" x="317.58" y="122.78" width="7.84" height="7.84"/><rect class="hat-1" x="317.58" y="114.93" width="7.84" height="7.85"/><rect class="hat-1" x="317.58" y="107.09" width="7.84" height="7.84"/><rect class="hat-3" x="317.58" y="99.25" width="7.84" height="7.84"/><rect class="hat-3" x="317.58" y="91.4" width="7.84" height="7.85"/><rect class="hat-1" x="309.73" y="169.84" width="7.85" height="7.84"/><rect class="hat-1" x="309.73" y="161.99" width="7.85" height="7.85"/><rect class="hat-1" x="309.73" y="154.15" width="7.85" height="7.84"/><rect class="hat-1" x="309.73" y="146.31" width="7.85" height="7.84"/><rect class="hat-1" x="309.73" y="138.46" width="7.85" height="7.85"/><rect class="hat-1" x="309.73" y="130.62" width="7.85" height="7.84"/><rect class="hat-1" x="309.73" y="122.78" width="7.85" height="7.84"/><rect class="hat-1" x="309.73" y="114.93" width="7.85" height="7.85"/><rect class="hat-1" x="309.73" y="107.09" width="7.85" height="7.84"/><rect class="hat-4" x="309.73" y="99.25" width="7.85" height="7.84"/><rect class="hat-1" x="301.89" y="185.52" width="7.84" height="7.85"/><rect class="hat-1" x="301.89" y="177.68" width="7.84" height="7.84"/><rect class="hat-1" x="301.89" y="169.84" width="7.84" height="7.84"/><rect class="hat-1" x="301.89" y="161.99" width="7.84" height="7.85"/><rect class="hat-1" x="301.89" y="154.15" width="7.84" height="7.84"/><rect class="hat-1" x="301.89" y="146.31" width="7.84" height="7.84"/><rect class="hat-1" x="301.89" y="138.46" width="7.84" height="7.85"/><rect class="hat-1" x="301.89" y="130.62" width="7.84" height="7.84"/><rect class="hat-1" x="301.89" y="122.78" width="7.84" height="7.84"/><rect class="hat-1" x="301.89" y="114.93" width="7.84" height="7.85"/><rect class="hat-1" x="301.89" y="107.09" width="7.84" height="7.84"/><rect class="hat-1" x="294.05" y="193.37" width="7.84" height="7.84"/><rect class="hat-1" x="294.05" y="185.52" width="7.84" height="7.85"/><rect class="hat-1" x="294.05" y="177.68" width="7.84" height="7.84"/><rect class="hat-1" x="294.05" y="169.84" width="7.84" height="7.84"/><rect class="hat-1" x="294.05" y="161.99" width="7.84" height="7.85"/><rect class="hat-1" x="294.05" y="154.15" width="7.84" height="7.84"/><rect class="hat-1" x="294.05" y="146.31" width="7.84" height="7.84"/><rect class="hat-1" x="294.05" y="138.46" width="7.84" height="7.85"/><rect class="hat-1" x="294.05" y="130.62" width="7.84" height="7.84"/><rect class="hat-1" x="294.05" y="122.78" width="7.84" height="7.84"/><rect class="hat-1" x="294.05" y="114.93" width="7.84" height="7.85"/><rect class="hat-1" x="286.2" y="177.68" width="7.85" height="7.84"/><rect class="hat-1" x="286.2" y="169.84" width="7.85" height="7.84"/><rect class="hat-1" x="286.2" y="161.99" width="7.85" height="7.85"/><rect class="hat-1" x="286.2" y="154.15" width="7.85" height="7.84"/><rect class="hat-1" x="286.2" y="146.31" width="7.85" height="7.84"/><rect class="hat-1" x="286.2" y="138.46" width="7.85" height="7.85"/><rect class="hat-1" x="286.2" y="130.62" width="7.85" height="7.84"/><rect class="hat-1" x="286.2" y="122.78" width="7.85" height="7.84"/><rect class="hat-6" width="800" height="800"/></g></g></svg>
