<svg xmlns="http://www.w3.org/2000/svg" viewBox="0 0 800 800"><defs><style>.hat-1{fill:#c00;stroke:#c00;}.hat-1,.hat-2,.hat-3,.hat-5{stroke-miterlimit:10;stroke-width:2px;}.hat-2{fill:#600;stroke:#600;}.hat-3{fill:#030;stroke:#030;}.hat-4{fill:none;}.hat-5{fill:#060;stroke:#060;}.hat-6{fill:#fff;}</style></defs><title>4000_hat_camo_8_bit</title><g id="Layer_2" data-name="Layer 2"><g id="_4000_hat_camo_8_bit" data-name="4000_hat_camo_8_bit"><path class="hat-1" d="M552.87,107.09v7.84H545v-7.84ZM545,99.25v7.84h7.84V99.25Zm-7.84,0v7.84H545V99.25Zm0-7.85v7.85H545V91.4Zm0-7.84V91.4H545V83.56Zm-7.85,0V91.4h7.85V83.56Zm0-7.84v7.84h7.85V75.72Zm-7.84,0v7.84h7.84V75.72Zm-7.84,0v7.84h7.84V75.72Zm0-7.84v7.84h7.84V67.88Zm-7.85,0v7.84h7.85V67.88Zm-7.84,0v7.84h7.84V67.88ZM498,60v7.85h7.84V60Zm-7.84,0v7.85H498V60Zm-7.85,0v7.85h7.85V60Zm0-7.84V60h7.85V52.19Zm-7.84,0V60h7.84V52.19Zm-7.84,0V60h7.84V52.19Zm-7.85,0V60h7.85V52.19Zm-7.84,0V60h7.84V52.19Zm-7.84,0V60h7.84V52.19Zm-7.85,0V60h7.85V52.19Zm-7.84,0V60h7.84V52.19ZM388.17,91.4v7.85H396V91.4Zm0-7.84V91.4H396V83.56Zm0-7.84v7.84H396V75.72Zm0-15.69v7.85H396V60ZM380.32,91.4v7.85h7.85V91.4Zm0-7.84V91.4h7.85V83.56Zm0-23.53v7.85h7.85V60Zm-7.84,23.53V91.4h7.84V83.56Zm0-23.53v7.85h7.84V60Zm-7.84,23.53V91.4h7.84V83.56Zm0-23.53v7.85h7.84V60Zm-7.85,7.85v7.84h7.85V67.88Zm0-7.85v7.85h7.85V60ZM349,67.88v7.84h7.84V67.88Zm-7.84,7.84v7.84H349V75.72Zm0-7.84v7.84H349V67.88Z"/><path class="hat-2" d="M568.56,177.68v7.84h-7.85v-7.84Zm-15.69,0v7.84h7.84v-7.84Zm0-7.84v7.84h7.84v-7.84Zm0-7.85v7.85h7.84V162Zm0-7.84V162h7.84v-7.84Zm0-7.84v7.84h7.84v-7.84Zm0-7.85v7.85h7.84v-7.85Zm0-7.84v7.84h7.84v-7.84ZM545,177.68v7.84h7.84v-7.84Zm-7.84-7.84v7.84H545v-7.84Zm0-7.85v7.85H545V162Zm0-7.84V162H545v-7.84Zm-7.85,0V162h7.85v-7.84Zm0-7.84v7.84h7.85v-7.84Zm0-7.85v7.85h7.85v-7.85Zm0-7.84v7.84h7.85v-7.84Zm0-7.84v7.84h7.85v-7.84Zm-7.84-7.85v7.85h7.84v-7.85Zm0-7.84v7.84h7.84v-7.84ZM513.66,162v7.85h7.84V162Zm0-7.84V162h7.84v-7.84Zm0-7.84v7.84h7.84v-7.84Zm0-39.22v7.84h7.84v-7.84Zm-7.85,0v7.84h7.85v-7.84Zm0-23.53V91.4h7.85V83.56Zm0-7.84v7.84h7.85V75.72ZM498,107.09v7.84h7.84v-7.84Zm0-31.37v7.84h7.84V75.72Zm-7.84,31.37v7.84H498v-7.84Zm0-31.37v7.84H498V75.72Zm-7.85,31.37v7.84h7.85v-7.84Zm0-7.84v7.84h7.85V99.25Zm0-23.53v7.84h7.85V75.72Zm-7.84,23.53v7.84h7.84V99.25Zm0-23.53v7.84h7.84V75.72Zm0-7.84v7.84h7.84V67.88ZM466.6,99.25v7.84h7.84V99.25Zm0-31.37v7.84h7.84V67.88Zm-7.85,0v7.84h7.85V67.88Zm-7.84,0v7.84h7.84V67.88Zm-7.84,0v7.84h7.84V67.88Zm0-23.53v7.84h7.84V44.35Zm-7.85,23.53v7.84h7.85V67.88Zm0-23.53v7.84h7.85V44.35ZM427.38,91.4v7.85h7.84V91.4Zm0-7.84V91.4h7.84V83.56Zm0-7.84v7.84h7.84V75.72Zm0-7.84v7.84h7.84V67.88Zm0-23.53v7.84h7.84V44.35Zm-7.84,31.37v7.84h7.84V75.72Zm0-15.69v7.85h7.84V60Zm0-15.68v7.84h7.84V44.35ZM411.7,75.72v7.84h7.84V75.72Zm0-7.84v7.84h7.84V67.88Zm0-7.85v7.85h7.84V60ZM349,91.4v7.85h7.84V91.4Zm-7.84,0v7.85H349V91.4Zm-7.85,0v7.85h7.85V91.4Zm-7.84,7.85v7.84h7.84V99.25Zm0-7.85v7.85h7.84V91.4Z"/><path class="hat-3" d="M568.56,154.15V162h-7.85v-7.84Zm-7.85-7.84v7.84h7.85v-7.84Zm0-7.85v7.85h7.85v-7.85Zm0-7.84v7.84h7.85v-7.84Zm0-7.84v7.84h7.85v-7.84ZM545,216.89v7.85h7.84v-7.85Zm0-7.84v7.84h7.84v-7.84Zm0-7.84v7.84h7.84v-7.84Zm0-7.84v7.84h7.84v-7.84Zm0-7.85v7.85h7.84v-7.85Zm0-15.68v7.84h7.84v-7.84Zm0-7.85v7.85h7.84V162Zm0-7.84V162h7.84v-7.84Zm-7.84-7.84v7.84H545v-7.84Zm0-7.85v7.85H545v-7.85Zm0-7.84v7.84H545v-7.84Zm0-7.84v7.84H545v-7.84Zm0-7.85v7.85H545v-7.85Zm-7.85,0v7.85h7.85v-7.85Zm-7.84,15.69v7.84h7.84v-7.84Zm0-7.84v7.84h7.84v-7.84Zm0-23.53v7.84h7.84V99.25Zm0-7.85v7.85h7.84V91.4Zm-7.84,31.38v7.84h7.84v-7.84Zm0-7.85v7.85h7.84v-7.85Zm-7.85-15.68v7.84h7.85V99.25Zm0-7.85v7.85h7.85V91.4ZM498,99.25v7.84h7.84V99.25Zm0-7.85v7.85h7.84V91.4Zm-7.84,0v7.85H498V91.4Zm0-7.84V91.4H498V83.56Zm-7.85,7.84v7.85h7.85V91.4Zm0-23.52v7.84h7.85V67.88ZM474.44,91.4v7.85h7.84V91.4Zm0-7.84V91.4h7.84V83.56ZM466.6,91.4v7.85h7.84V91.4Zm0-15.68v7.84h7.84V75.72Zm0-15.69v7.85h7.84V60ZM458.75,91.4v7.85h7.85V91.4Zm0-15.68v7.84h7.85V75.72Zm0-15.69v7.85h7.85V60ZM450.91,91.4v7.85h7.84V91.4Zm0-15.68v7.84h7.84V75.72Zm0-15.69v7.85h7.84V60ZM443.07,91.4v7.85h7.84V91.4Zm0-15.68v7.84h7.84V75.72Zm0-15.69v7.85h7.84V60ZM435.22,91.4v7.85h7.85V91.4Zm0-15.68v7.84h7.85V75.72Zm0-15.69v7.85h7.85V60Zm-15.68,7.85v7.84h7.84V67.88Zm0-15.69V60h7.84V52.19Zm-7.84,0V60h7.84V52.19Zm-7.85,15.69v7.84h7.85V67.88Zm0-15.69V60h7.85V52.19ZM396,67.88v7.84h7.84V67.88Zm0-15.69V60h7.84V52.19Zm-7.84,15.69v7.84H396V67.88Zm0-15.69V60H396V52.19Zm-7.85,15.69v7.84h7.85V67.88ZM372.48,91.4v7.85h7.84V91.4Zm0-23.52v7.84h7.84V67.88ZM364.64,91.4v7.85h7.84V91.4Zm0-23.52v7.84h7.84V67.88ZM356.79,91.4v7.85h7.85V91.4Zm0-7.84V91.4h7.85V83.56Zm-7.84,0V91.4h7.84V83.56Zm-7.84,0V91.4H349V83.56Zm-7.85-7.84v7.84h7.85V75.72Zm-7.84,7.84V91.4h7.84V83.56ZM309.73,99.25v7.84h7.85V99.25Z"/><rect class="hat-4" width="800" height="800"/><path class="hat-5" d="M568.56,169.84v7.84h-7.85v-7.84ZM560.71,162v7.85h7.85V162Zm-7.84,54.9v7.85h7.84v-7.85Zm0-7.84v7.84h7.84v-7.84Zm0-7.84v7.84h7.84v-7.84Zm0-7.84v7.84h7.84v-7.84Zm0-7.85v7.85h7.84v-7.85Zm0-62.74v7.84h7.84v-7.84Zm0-7.85v7.85h7.84v-7.85Zm0-7.84v7.84h7.84v-7.84ZM545,146.31v7.84h7.84v-7.84Zm0-7.85v7.85h7.84v-7.85Zm0-7.84v7.84h7.84v-7.84Zm0-7.84v7.84h7.84v-7.84Zm0-7.85v7.85h7.84v-7.85Zm0-23.53v7.85h7.84V91.4Zm-7.84,102v7.84H545v-7.84Zm0-7.85v7.85H545v-7.85Zm0-7.84v7.84H545v-7.84Zm0-70.59v7.84H545v-7.84Zm-7.85,70.59v7.84h7.85v-7.84Zm0-7.84v7.84h7.85v-7.84Zm0-7.85v7.85h7.85V162Zm0-54.9v7.84h7.85v-7.84Zm0-7.84v7.84h7.85V99.25Zm0-7.85v7.85h7.85V91.4Zm-7.84,78.44v7.84h7.84v-7.84Zm0-7.85v7.85h7.84V162Zm0-7.84V162h7.84v-7.84Zm0-7.84v7.84h7.84v-7.84Zm0-7.85v7.85h7.84v-7.85Zm0-54.9V91.4h7.84V83.56Zm0-15.68v7.84h7.84V67.88Zm-7.84,70.58v7.85h7.84v-7.85Zm0-7.84v7.84h7.84v-7.84Zm0-31.37v7.84h7.84V99.25Zm0-7.85v7.85h7.84V91.4Zm0-7.84V91.4h7.84V83.56Zm-7.85,47.06v7.84h7.85v-7.84Zm0-7.84v7.84h7.85v-7.84Zm0-7.85v7.85h7.85v-7.85Zm0-54.9v7.85h7.85V60ZM498,114.93v7.85h7.84v-7.85Zm0-31.37V91.4h7.84V83.56Zm-7.84,15.69v7.84H498V99.25Zm0-31.37v7.84H498V67.88Zm-7.85,15.68V91.4h7.85V83.56ZM474.44,60v7.85h7.84V60ZM466.6,83.56V91.4h7.84V83.56Zm-7.85,0V91.4h7.85V83.56Zm-7.84,0V91.4h7.84V83.56Zm-7.84,0V91.4h7.84V83.56Zm-7.85,0V91.4h7.85V83.56ZM427.38,60v7.85h7.84V60ZM419.54,91.4v7.85h7.84V91.4Zm0-7.84V91.4h7.84V83.56Zm-7.84,0V91.4h7.84V83.56Zm-7.85,0V91.4h7.85V83.56Zm0-7.84v7.84h7.85V75.72Zm0-15.69v7.85h7.85V60ZM396,83.56V91.4h7.84V83.56Zm0-7.84v7.84h7.84V75.72ZM396,60v7.85h7.84V60ZM380.32,75.72v7.84h7.85V75.72Zm-7.84,0v7.84h7.84V75.72Zm-7.84,0v7.84h7.84V75.72Zm-7.85,0v7.84h7.85V75.72Zm-7.84,0v7.84h7.84V75.72Zm-15.69,7.84V91.4h7.85V83.56ZM317.58,99.25v7.84h7.84V99.25Zm0-7.85v7.85h7.84V91.4Z"/><polygon class="hat-6" points="568.56 232.58 568.56 224.74 560.71 224.74 552.87 224.74 545.03 224.74 545.03 232.58 537.19 232.58 537.19 240.42 537.19 248.27 537.19 256.11 545.03 256.11 545.03 263.95 552.87 263.95 560.71 263.95 568.56 263.95 568.56 256.11 576.4 256.11 576.4 248.27 576.4 240.42 576.4 232.58 568.56 232.58"/><polygon class="hat-6" points="505.81 138.46 505.81 130.62 505.81 122.78 497.97 122.78 497.97 114.93 490.13 114.93 482.28 114.93 482.28 107.09 474.44 107.09 466.6 107.09 466.6 99.25 458.75 99.25 450.91 99.25 443.07 99.25 435.22 99.25 427.38 99.25 419.54 99.25 419.54 91.4 411.7 91.4 403.85 91.4 396.01 91.4 396.01 99.25 388.17 99.25 380.32 99.25 372.48 99.25 364.64 99.25 356.79 99.25 348.95 99.25 341.11 99.25 333.26 99.25 333.26 107.09 325.42 107.09 317.58 107.09 309.73 107.09 301.89 107.09 301.89 114.93 294.05 114.93 294.05 122.78 286.2 122.78 286.2 130.62 286.2 138.46 286.2 146.31 286.2 154.15 286.2 161.99 286.2 169.84 286.2 177.68 286.2 185.52 294.05 185.52 294.05 193.37 294.05 201.21 301.89 201.21 301.89 193.37 309.73 193.37 309.73 185.52 309.73 177.68 317.58 177.68 317.58 169.84 325.42 169.84 333.26 169.84 333.26 161.99 341.11 161.99 348.95 161.99 348.95 154.15 356.79 154.15 364.64 154.15 372.48 154.15 380.32 154.15 388.17 154.15 396.01 154.15 403.85 154.15 411.7 154.15 419.54 154.15 427.38 154.15 435.22 154.15 443.07 154.15 450.91 154.15 450.91 161.99 458.75 161.99 466.6 161.99 466.6 169.84 474.44 169.84 482.28 169.84 482.28 177.68 482.28 185.52 490.13 185.52 490.13 193.37 497.97 193.37 497.97 201.21 505.81 201.21 513.66 201.21 513.66 193.37 513.66 185.52 513.66 177.68 513.66 169.84 513.66 161.99 513.66 154.15 513.66 146.31 513.66 138.46 505.81 138.46"/></g></g></svg>
