<svg xmlns="http://www.w3.org/2000/svg" viewBox="0 0 800 800"><defs><style>.hat-1{fill:none;}.hat-2{fill:#fff;}</style></defs><title>3000_hat_white_hair_helmet (2)</title><g id="Layer_2" data-name="Layer 2"><g id="_3000_hat_white_hair_helmet" data-name="3000_hat_white_hair_helmet"><rect class="hat-1" width="800" height="800"/><path class="hat-2" d="M511,158.11c-2.84-54.92-49.38-99.58-110.3-99.58s-111.85,44.6-110.3,99.58c.66,23.42,4.77,54.76,9.7,49.78V151.17a12.74,12.74,0,0,0,8.43,2.9,12.6,12.6,0,0,0,9-3.43,14.4,14.4,0,0,0,4.18.6,13.14,13.14,0,0,0,6.87-1.78,12.8,12.8,0,0,0,8.22,2.72,12.26,12.26,0,0,0,10.85-5.69,12.26,12.26,0,0,0,10.85,5.69,12.44,12.44,0,0,0,9.58-4,13,13,0,0,0,7.4,2.12,12.76,12.76,0,0,0,8.14-2.66,12.28,12.28,0,0,0,10.73,5.49c5.38,0,9.37-8.55,11.43-12.12,2.13,3.08,5.37,11.18,10.27,11.18a12.84,12.84,0,0,0,8-2.55,12.9,12.9,0,0,0,8,2.55,13.32,13.32,0,0,0,6.6-1.63,13.27,13.27,0,0,0,6.6,1.63,12.37,12.37,0,0,0,9.87-4.34,12.57,12.57,0,0,0,9,3.4c2.72,0,5.62-8.62,7.49-9.73,2.07,1.67,4.19,10.67,7.61,10.67a14.86,14.86,0,0,0,2.9-.28,13,13,0,0,0,7.47,2.17c8.54,0,12.88-6.52,13-13.16h.14V211S513.34,204.23,511,158.11Z"/></g></g></svg>
