<svg xmlns="http://www.w3.org/2000/svg" viewBox="0 0 800 800"><defs><style>.hat-1{fill:#69c;}.hat-1,.hat-2{stroke:#000;stroke-miterlimit:10;stroke-width:8px;}.hat-2{fill:#99e2ff;}.hat-3{fill:none;}</style></defs><title>4000_hat_hunting_dood</title><g id="Layer_2" data-name="Layer 2"><g id="_4000_hat_hunting_dood" data-name="4000_hat_hunting_dood"><path class="hat-1" d="M307,133.09c-2.3-1.09,5.75-19.34,7-21.6a318.2,318.2,0,0,1,29.69-44c9.72-12.11,20.33-29,36.68-30.66,12.24-1.24,25.13-2.38,36.37,2.62,4.9,2.19,9.23,5.45,13.52,8.68a119.65,119.65,0,0,1,13.88,11.62c4.87,5,8.82,10.83,12.74,16.62l16.27,24c3.47,5.13,7.05,10.5,8.86,16.49,1.25,4.16,3.49,12.47,3.22,16.75-.08,1.29-.44,1.94-1.79,2.25a45.46,45.46,0,0,1-7.73.82c-3,.09-5.8.7-8.79.77-4.44.11-8.9,0-13.33,0h-115c-3.78,0-7.76.33-11.51-.06-3-.32-6.9-.77-9.65-2-.77-.36-1.4-1.06-2.16-1.4C312.64,132.72,309.39,134.24,307,133.09Z"/><path class="hat-2" d="M485,177.6c3.4,3.87,16,19,20.08,21.38,2.09,1.23,4.3-17.74,4.47-19,1.76-13.46,2.77-28-1.57-41.08-4.22-12.75-14.76-19.3-26.78-23.72-14.86-5.47-27.78-12.67-44.26-12.94-9.42-.15-18.82-1-28.27-.86-14.78.27-29.58.44-44.29,2-10.56,1.12-21,3.19-31.41,5.19-16,3.08-34.15,6-40.61,23.74-2.1,5.8-2.26,12.1-2.19,18.26A216.74,216.74,0,0,0,295.82,197c3.78-3.87,5.49-9,8.77-13.4a66.22,66.22,0,0,1,11.52-11.9,80.32,80.32,0,0,1,29.1-14.6c29.32-8,63-9.79,92.84-4.63C454.65,155.38,473.17,164.16,485,177.6Z"/><rect class="hat-3" width="800" height="800"/></g></g></svg>
