<svg xmlns="http://www.w3.org/2000/svg" viewBox="0 0 800 800"><defs><style>.hat-1{fill:#fff;}.hat-2{fill:none;}</style></defs><title>4000_hat_two_hairs_elves</title><g id="Layer_2" data-name="Layer 2"><g id="_4000_hat_two_hairs_elves" data-name="4000_hat_two_hairs_elves"><path class="hat-1" d="M393,249.34c0-.94,0-1.93.08-3a9,9,0,0,1,.29-1.59,14.11,14.11,0,0,1,.52-1.45,22.4,22.4,0,0,0,1.57-5.39,17.91,17.91,0,0,1,.66-3,13.4,13.4,0,0,1,1.37-2.76c.52-.84,1.05-1.62,1.47-2.43a3,3,0,0,0,.33-1.15,5.11,5.11,0,0,1,.39-1.62,13.26,13.26,0,0,1,1.86-2.48c.69-.73,1.24-1.41,2-2.19a3.87,3.87,0,0,1,1.43-1,4.68,4.68,0,0,1,1.62-.25,13,13,0,0,1,1.53,0,3.88,3.88,0,0,1,1.63.48,13.89,13.89,0,0,1,1.24.87,5.14,5.14,0,0,0,.55.36l.65.37a9.81,9.81,0,0,1,2.41,1.89,5.48,5.48,0,0,1,.89,1.34,8.61,8.61,0,0,1,.43,1.49,9.28,9.28,0,0,1,.2,1.52,3.84,3.84,0,0,1-.05.82,1.39,1.39,0,0,1-.53.94l-.2.14-.22-.1a7.77,7.77,0,0,1-2.33-1.21,2.53,2.53,0,0,1-.76-1.25,4.27,4.27,0,0,1-.08-1.37,4.91,4.91,0,0,1,1-2.48,8.7,8.7,0,0,1,1.92-1.73c.69-.48,1.41-.9,2.11-1.34s1.36-.91,2.05-1.37l4.11-2.77a7.71,7.71,0,0,1,2.24-1.23c.46-.09.88,0,1.25-.06a4.8,4.8,0,0,0,1.14-.34,17.44,17.44,0,0,1,2.31-.94c.81-.22,1.63-.36,2.44-.51a9,9,0,0,0,2.34-.71c.75-.35,1.47-.77,2.26-1,1.59-.58,3.29-.31,4.93-.3-1.64,0-3.35-.2-4.89.41-.77.3-1.48.72-2.22,1.09a8.74,8.74,0,0,1-2.38.78c-.81.18-1.62.33-2.4.57a16.43,16.43,0,0,0-2.26,1,4.84,4.84,0,0,1-1.22.39c-.45.06-.86,0-1.22.08a8,8,0,0,0-2.05,1.21L419.33,221c-.67.47-1.34,1-2,1.44s-1.4.89-2.05,1.36a7.83,7.83,0,0,0-1.72,1.62,4.21,4.21,0,0,0-.78,2.1,3.21,3.21,0,0,0,.09,1.08,1.68,1.68,0,0,0,.53.83,7.38,7.38,0,0,0,2.09,1l-.42,0a.93.93,0,0,0,.1-.33,2.51,2.51,0,0,0,0-.62,8,8,0,0,0-.2-1.35,7.8,7.8,0,0,0-.41-1.29,4.92,4.92,0,0,0-.74-1.05,8.72,8.72,0,0,0-2.18-1.62l-.63-.34a6.45,6.45,0,0,1-.68-.41,11.53,11.53,0,0,0-1.15-.77,4.43,4.43,0,0,0-2.52-.27,2.6,2.6,0,0,0-2.16.88,33.33,33.33,0,0,0-3.46,4.36,4.1,4.1,0,0,0-.23,1.19,4.49,4.49,0,0,1-.45,1.64c-.45.93-1,1.76-1.46,2.58a11.84,11.84,0,0,0-1.16,2.45,15.69,15.69,0,0,0-.52,2.71,24.76,24.76,0,0,1-1.55,5.78c-.16.47-.33.91-.43,1.29a8.63,8.63,0,0,0-.2,1.27c-.06.88,0,1.82,0,2.82Z"/><path class="hat-1" d="M419.1,252.65l-.2-.15-.23-.17,0-.25a2.39,2.39,0,0,1,.46-1.23,5.32,5.32,0,0,0,.53-.83,5.56,5.56,0,0,0,.36-2,11.26,11.26,0,0,0-.23-4.15c-.11-.33-.26-.6-.42-1a3.22,3.22,0,0,1-.26-1.1,2.47,2.47,0,0,1,.16-1.13,2.33,2.33,0,0,1,.75-.83,2.18,2.18,0,0,0,.74-1.85c0-.71,0-1.42,0-2.14,0,.72.15,1.42.16,2.14a4,4,0,0,1-.09,1.09,2,2,0,0,1-.6.94,2.18,2.18,0,0,0-.64.77,2.28,2.28,0,0,0-.07,1,3.21,3.21,0,0,0,.28,1,8.77,8.77,0,0,1,.49,1,11.36,11.36,0,0,1,.5,4.34,6.3,6.3,0,0,1-.28,2.25c-.34.82-.87,1.31-.82,1.78l-.21-.42.21.13a.5.5,0,0,1,.14.69.49.49,0,0,1-.69.15Z"/><rect class="hat-2" width="800" height="800"/></g></g></svg>
