<svg xmlns="http://www.w3.org/2000/svg" viewBox="0 0 800 800"><defs><style>.eyes-1{fill:#fff;}.eyes-2{fill:none;}</style></defs><title>5000_eyes_pacman_with_whites</title><g id="Layer_2" data-name="Layer 2"><g id="_5000_eyes_pacman_with_whites" data-name="5000_eyes_pacman_with_whites"><ellipse class="eyes-1" cx="349.55" cy="202.68" rx="14.18" ry="28.36"/><path d="M350.21,207.57l9.05-5.72a74.84,74.84,0,0,0-1.86-13.07c-.93-4-2.83-8.47-6.81-9.34a15.11,15.11,0,0,0-7.17,8.2,31.28,31.28,0,0,0-1.86,11,70.32,70.32,0,0,0,2.34,19.69c1,3.87,2.46,10.57,8,9.72a6.8,6.8,0,0,0,4.64-3.5,17.39,17.39,0,0,0,1.76-5.72c.37-2.15.62-4.33.8-6.51Z"/><ellipse class="eyes-1" cx="448.48" cy="205.52" rx="14.18" ry="28.36"/><path d="M445,206.66l8.88-5.6c-.15-1.11-.33-2.22-.56-3.33-.29-1.47-.65-2.93-1.05-4.42-1.05-3.78-2.4-10.34-8.11-8.76a7,7,0,0,0-4.38,4.3,20.78,20.78,0,0,0-1.18,6.23c-.73,8.72-3.11,22.61,4.67,28.89a6,6,0,0,0,4.82,1.38,6.12,6.12,0,0,0,3.88-3.09c1.62-2.87,1.75-6.62,2.1-9.86,0-.31.05-.62.08-.93Z"/><rect class="eyes-2" width="800" height="800"/></g></g></svg>
