<svg xmlns="http://www.w3.org/2000/svg" viewBox="0 0 800 800"><defs><style>.eyes-1{fill:#fff;}.eyes-2{fill:none;}</style></defs><title>5000_eyes_mixed_elves</title><g id="Layer_2" data-name="Layer 2"><g id="_5000_eyes_mixed_elves" data-name="5000_eyes_mixed_elves"><ellipse class="eyes-1" cx="448.48" cy="328.41" rx="14.18" ry="28.36"/><path d="M445,329.55l8.88-5.6c-.15-1.11-.33-2.22-.56-3.33-.29-1.46-.65-2.93-1.05-4.41-1.05-3.78-2.4-10.34-8.11-8.77a7,7,0,0,0-4.38,4.3,20.9,20.9,0,0,0-1.18,6.23c-.73,8.72-3.11,22.61,4.67,28.9a6,6,0,0,0,4.82,1.37,6.12,6.12,0,0,0,3.88-3.09c1.62-2.87,1.75-6.62,2.1-9.86,0-.31.05-.62.08-.92Z"/><ellipse class="eyes-1" cx="349.21" cy="326.11" rx="14.27" ry="28.54"/><path d="M357.76,326.49a6.53,6.53,0,0,0-2.55-4.93c-2.54-1.8-6.4-.89-8.33,1.56a9.23,9.23,0,0,0-1,8.89,6,6,0,0,0,3.51,3.79,5.25,5.25,0,0,0,4.24-.85A9.15,9.15,0,0,0,357.76,326.49Z"/><rect class="eyes-2" width="800" height="800"/></g></g></svg>
