<svg xmlns="http://www.w3.org/2000/svg" viewBox="0 0 800 800"><defs><style>.eyes-1{fill:none;}.eyes-2{fill:#fff;}</style></defs><title>5000_eyes_pacman_black_bags</title><g id="Layer_2" data-name="Layer 2"><g id="_5000_eyes_pacman_black_bags" data-name="5000_eyes_pacman_black_bags"><rect class="eyes-1" width="800" height="800"/><ellipse class="eyes-2" cx="349.55" cy="202.68" rx="14.18" ry="28.36"/><path d="M350.21,207.57l9.05-5.72a74.84,74.84,0,0,0-1.86-13.07c-.93-4-2.83-8.47-6.81-9.34a15.11,15.11,0,0,0-7.17,8.2,31.28,31.28,0,0,0-1.86,11,70.32,70.32,0,0,0,2.34,19.69c1,3.87,2.46,10.57,8,9.72a6.8,6.8,0,0,0,4.64-3.5,17.39,17.39,0,0,0,1.76-5.72c.37-2.15.62-4.33.8-6.51Z"/><ellipse class="eyes-2" cx="448.48" cy="205.52" rx="14.18" ry="28.36"/><path d="M445,206.66l8.88-5.6c-.15-1.11-.33-2.22-.56-3.33-.29-1.47-.65-2.93-1.05-4.42-1.05-3.78-2.4-10.34-8.11-8.76a7,7,0,0,0-4.38,4.3,20.78,20.78,0,0,0-1.18,6.23c-.73,8.72-3.11,22.61,4.67,28.89a6,6,0,0,0,4.82,1.38,6.12,6.12,0,0,0,3.88-3.09c1.62-2.87,1.75-6.62,2.1-9.86,0-.31.05-.62.08-.93Z"/><path d="M469.3,223.32a18.66,18.66,0,0,1-5.11,14.23,19.55,19.55,0,0,1-6.47,4.51,19.62,19.62,0,0,1-15.52,0,19.37,19.37,0,0,1-6.46-4.51,18.63,18.63,0,0,1-5.12-14.23,20.28,20.28,0,0,0,6.22,13.12,19.12,19.12,0,0,0,26.25,0A20.27,20.27,0,0,0,469.3,223.32Z"/><path d="M367.6,219.49a18.66,18.66,0,0,1-5.11,14.23,19.61,19.61,0,0,1-6.46,4.51,19.64,19.64,0,0,1-15.53,0,19.47,19.47,0,0,1-6.46-4.51,18.62,18.62,0,0,1-5.12-14.23,20.28,20.28,0,0,0,6.22,13.12,19.12,19.12,0,0,0,26.25,0A20.27,20.27,0,0,0,367.6,219.49Z"/></g></g></svg>
