<svg xmlns="http://www.w3.org/2000/svg" viewBox="0 0 800 800"><defs><style>.eyes-1{fill:#fff;}.eyes-2{fill:none;}</style></defs><title>5000_eyes_dots_elves</title><g id="Layer_2" data-name="Layer 2"><g id="_5000_eyes_dots_elves" data-name="5000_eyes_dots_elves"><ellipse class="eyes-1" cx="349.21" cy="326.11" rx="14.27" ry="28.54"/><ellipse class="eyes-1" cx="448.79" cy="328.96" rx="14.27" ry="28.54"/><path d="M442.51,330.07a6.24,6.24,0,0,0,4.11,4.55c2.65.67,5.46-1.27,6.49-3.8a11.58,11.58,0,0,0-.28-8c-.57-1.65-1.45-3.37-3.05-4.08a4.73,4.73,0,0,0-4.6.67C441.85,321.77,441.5,326.38,442.51,330.07Z"/><path d="M357.76,326.49a6.53,6.53,0,0,0-2.55-4.93c-2.54-1.8-6.4-.89-8.33,1.56a9.23,9.23,0,0,0-1,8.89,6,6,0,0,0,3.51,3.79,5.25,5.25,0,0,0,4.24-.85A9.15,9.15,0,0,0,357.76,326.49Z"/><rect class="eyes-2" width="800" height="800"/></g></g></svg>
