<svg xmlns="http://www.w3.org/2000/svg" viewBox="0 0 800 800"><defs><style>.eyes-1{fill:#fff;}.eyes-2{fill:none;}</style></defs><title>5000_swirly_eyes</title><g id="Layer_2" data-name="Layer 2"><g id="_5000_swirly_eyes" data-name="5000_swirly_eyes"><path class="eyes-1" d="M362.69,215.06a41.36,41.36,0,0,1-4.11,9.43,13.72,13.72,0,0,1-8.14,6.13,9.23,9.23,0,0,1-5.23-.19,9.74,9.74,0,0,1-4.24-3.11,23.47,23.47,0,0,1-4.11-9.54,50.36,50.36,0,0,1,2.64-30.61c.34-.8.67-1.61,1.07-2.38s.76-1.57,1.2-2.32a21.75,21.75,0,0,1,3-4.39,9.16,9.16,0,0,1,4.64-3,6.51,6.51,0,0,1,5.48,1.35,14.94,14.94,0,0,1,3.47,4.17l1.26,2.31c.36.79.74,1.58,1.09,2.38a42.87,42.87,0,0,1,3.12,20.57,41.82,41.82,0,0,1-2.28,10.24l-.45,1.24-.52,1.2a26.09,26.09,0,0,1-1.13,2.4,17.2,17.2,0,0,1-3.18,4.38A9.86,9.86,0,0,1,351.3,228a7.15,7.15,0,0,1-5.64-1.1,9.52,9.52,0,0,1-3.24-4.61,34.51,34.51,0,0,1-1.31-5.13,96.45,96.45,0,0,1-1.67-10.25,37.52,37.52,0,0,1,.35-10.52,23.33,23.33,0,0,1,4.15-9.82,8.67,8.67,0,0,1,4.65-3.26,5.24,5.24,0,0,1,3.08.24,6.41,6.41,0,0,1,2.4,1.76,17.45,17.45,0,0,1,2.71,4.69,41.8,41.8,0,0,1,1.74,5,39.75,39.75,0,0,1,1.41,10.4,38.57,38.57,0,0,1-1.38,10.41,14.86,14.86,0,0,1-2.13,5,6.28,6.28,0,0,1-5,2.74,4.49,4.49,0,0,1-2.88-1.1,6.38,6.38,0,0,1-1.66-2.4,16,16,0,0,1-.79-2.59c-.19-.84-.38-1.69-.55-2.54A95.86,95.86,0,0,1,344,204.6c-.16-1.72-.27-3.45-.33-5.18a24.06,24.06,0,0,1,.18-5.27,7.44,7.44,0,0,1,1-2.62,4.18,4.18,0,0,1,2.31-1.83,4.42,4.42,0,0,1,2.92.18,5.8,5.8,0,0,1,2.28,1.69,12.13,12.13,0,0,1,2.12,4.91,34.33,34.33,0,0,1,.91,10.36c-.05.87-.15,1.73-.27,2.6a15.28,15.28,0,0,1-.53,2.59,4.17,4.17,0,0,1-1.63,2.26,2.68,2.68,0,0,1-2.82.17,3.16,3.16,0,0,1-1.27-2.48,20.75,20.75,0,0,1,0-2.62l.4-10.28,0-.41.3.27a8.51,8.51,0,0,1,2.06,9.69l-.09.19,0-.21-.55-4.27.67,4.26-.11,0a8.32,8.32,0,0,0-2.2-9.35l.32-.14-.19,10.29a23.57,23.57,0,0,0,0,2.53,2.47,2.47,0,0,0,1,1.94,2,2,0,0,0,2-.2,3.44,3.44,0,0,0,1.26-1.88,24.59,24.59,0,0,0,.66-5,35.61,35.61,0,0,0-.15-5.06,33.54,33.54,0,0,0-.9-5,11,11,0,0,0-1.95-4.44,3.88,3.88,0,0,0-3.94-1.44c-1.38.42-2.14,1.93-2.39,3.51a23,23,0,0,0-.09,5c.08,1.7.21,3.4.39,5.09a95.21,95.21,0,0,0,1.6,10.08,28.55,28.55,0,0,0,1.31,4.8,3.43,3.43,0,0,0,3.07,2.46,4.18,4.18,0,0,0,2-.57,5.29,5.29,0,0,0,1.61-1.49,13.38,13.38,0,0,0,1.84-4.44,36.65,36.65,0,0,0,1.28-9.94,38.19,38.19,0,0,0-1.39-9.92,39.06,39.06,0,0,0-1.68-4.73,15.87,15.87,0,0,0-2.4-4.18,3.7,3.7,0,0,0-3.69-1.4,6.87,6.87,0,0,0-3.57,2.59,21.43,21.43,0,0,0-3.72,9c-1.23,6.57,0,13.35,1.33,20a32.75,32.75,0,0,0,1.21,4.85,7.56,7.56,0,0,0,2.52,3.71,5.23,5.23,0,0,0,4.17.8,7.81,7.81,0,0,0,4-2.14c2.29-2.19,3.67-5.38,4.86-8.49A39.87,39.87,0,0,0,362,205.7a41.09,41.09,0,0,0-2.9-19.73l-1-2.29-1.19-2.22a13.26,13.26,0,0,0-3-3.75,5,5,0,0,0-4.16-1.1,7.66,7.66,0,0,0-3.88,2.48,19.88,19.88,0,0,0-2.83,4.08c-.43.72-.81,1.48-1.19,2.23s-.73,1.53-1.07,2.3a49.52,49.52,0,0,0-3,29.88,22.86,22.86,0,0,0,3.76,9.29,9,9,0,0,0,3.89,3,8.52,8.52,0,0,0,4.9.27,13.39,13.39,0,0,0,8-5.79A41.31,41.31,0,0,0,362.69,215.06Z"/><path class="eyes-1" d="M460.89,216.82a41.17,41.17,0,0,1-4.11,9.43,13.77,13.77,0,0,1-8.15,6.13,9.06,9.06,0,0,1-5.23-.19,9.72,9.72,0,0,1-4.24-3.1,23.52,23.52,0,0,1-4.11-9.54,49.56,49.56,0,0,1-.36-20.65,50.43,50.43,0,0,1,3-10c.34-.8.67-1.6,1.07-2.37s.76-1.57,1.2-2.32a21.2,21.2,0,0,1,3-4.39,9.19,9.19,0,0,1,4.65-3,6.53,6.53,0,0,1,5.47,1.34,14.61,14.61,0,0,1,3.47,4.17l1.26,2.31c.37.8.75,1.59,1.1,2.39A42.83,42.83,0,0,1,462,207.64a41.83,41.83,0,0,1-2.27,10.23l-.45,1.24-.53,1.21c-.34.81-.7,1.61-1.12,2.39a17.25,17.25,0,0,1-3.18,4.39,9.91,9.91,0,0,1-4.94,2.65,7.22,7.22,0,0,1-5.65-1.1,9.48,9.48,0,0,1-3.23-4.62,34.39,34.39,0,0,1-1.31-5.12,96.24,96.24,0,0,1-1.68-10.26,37.54,37.54,0,0,1,.36-10.52,23.31,23.31,0,0,1,4.14-9.82,8.64,8.64,0,0,1,4.66-3.25,5.12,5.12,0,0,1,3.07.23,6.75,6.75,0,0,1,2.41,1.76,17.62,17.62,0,0,1,2.71,4.7,41.14,41.14,0,0,1,1.73,5,39.7,39.7,0,0,1,1.42,10.4,38.45,38.45,0,0,1-1.39,10.4,14.91,14.91,0,0,1-2.13,5,6.23,6.23,0,0,1-5,2.73,4.41,4.41,0,0,1-2.88-1.09,6.34,6.34,0,0,1-1.66-2.41,15.11,15.11,0,0,1-.8-2.59c-.19-.84-.37-1.68-.54-2.53a96,96,0,0,1-1.49-10.26c-.16-1.72-.27-3.44-.33-5.17a23.53,23.53,0,0,1,.17-5.28,7.52,7.52,0,0,1,1-2.62,4.28,4.28,0,0,1,2.31-1.82,4.35,4.35,0,0,1,2.92.18,5.71,5.71,0,0,1,2.28,1.68,12,12,0,0,1,2.12,4.92,34.38,34.38,0,0,1,.86,5.15,33.55,33.55,0,0,1,.06,5.21c-.06.87-.15,1.73-.27,2.59a15.12,15.12,0,0,1-.54,2.59,4.21,4.21,0,0,1-1.62,2.27,2.67,2.67,0,0,1-2.83.16,3.13,3.13,0,0,1-1.27-2.48,22.64,22.64,0,0,1,0-2.61l.4-10.28,0-.41.31.27a8.48,8.48,0,0,1,2,9.68l-.09.2,0-.21-.56-4.27.68,4.25h-.12a8.28,8.28,0,0,0-2.2-9.35l.32-.14-.18,10.29a19.14,19.14,0,0,0,0,2.52,2.43,2.43,0,0,0,1,1.94,1.93,1.93,0,0,0,2-.2,3.33,3.33,0,0,0,1.26-1.87,24,24,0,0,0,.66-5,35.75,35.75,0,0,0-.15-5.07,33.52,33.52,0,0,0-.89-5,11.12,11.12,0,0,0-2-4.44,3.9,3.9,0,0,0-3.95-1.44c-1.38.43-2.13,1.94-2.38,3.52a22.87,22.87,0,0,0-.1,5c.09,1.7.22,3.4.4,5.09a94.78,94.78,0,0,0,1.59,10.08,28.41,28.41,0,0,0,1.31,4.81,3.43,3.43,0,0,0,3.08,2.45,4,4,0,0,0,2-.57,5.06,5.06,0,0,0,1.61-1.49,13.34,13.34,0,0,0,1.85-4.43,37.45,37.45,0,0,0,1.28-9.94,38.27,38.27,0,0,0-1.4-9.93,39.62,39.62,0,0,0-1.67-4.73,15.94,15.94,0,0,0-2.41-4.18,3.69,3.69,0,0,0-3.68-1.4,6.91,6.91,0,0,0-3.58,2.6,21.51,21.51,0,0,0-3.72,9c-1.23,6.57,0,13.35,1.34,20a32.61,32.61,0,0,0,1.2,4.84,7.68,7.68,0,0,0,2.53,3.72,5.24,5.24,0,0,0,4.16.8,8,8,0,0,0,4-2.14c2.29-2.19,3.66-5.39,4.85-8.49a40.07,40.07,0,0,0,2.22-9.79,41.22,41.22,0,0,0-2.9-19.73l-1.05-2.29-1.19-2.22a13.08,13.08,0,0,0-3-3.74,5,5,0,0,0-4.16-1.11,7.77,7.77,0,0,0-3.87,2.48,19.64,19.64,0,0,0-2.83,4.08c-.44.72-.81,1.48-1.19,2.24s-.73,1.52-1.07,2.29a49.37,49.37,0,0,0-3,29.88,22.81,22.81,0,0,0,3.76,9.29,9.1,9.1,0,0,0,3.89,3,8.55,8.55,0,0,0,4.91.28,13.43,13.43,0,0,0,8-5.8A41.33,41.33,0,0,0,460.89,216.82Z"/><rect class="eyes-2" width="800" height="800"/></g></g></svg>
