<svg xmlns="http://www.w3.org/2000/svg" viewBox="0 0 800 800"><defs><style>.eyes-1{fill:#fff;}.eyes-2,.eyes-3{fill:none;}.eyes-3{stroke:#000;stroke-miterlimit:10;}</style></defs><title>5000_eyes_dots_bruised</title><g id="Layer_2" data-name="Layer 2"><g id="_5000_eyes_dots_bruised" data-name="5000_eyes_dots_bruised"><ellipse class="eyes-1" cx="349.21" cy="203.21" rx="14.27" ry="28.54"/><ellipse class="eyes-1" cx="448.79" cy="206.07" rx="14.27" ry="28.54"/><path d="M442.51,207.18a6.23,6.23,0,0,0,4.11,4.54c2.65.68,5.46-1.26,6.49-3.8s.62-5.43-.28-8c-.57-1.65-1.45-3.37-3.05-4.09a4.76,4.76,0,0,0-4.6.67C441.85,198.87,441.5,203.49,442.51,207.18Z"/><path d="M357.76,203.6a6.57,6.57,0,0,0-2.55-4.94c-2.54-1.8-6.4-.88-8.33,1.57a9.21,9.21,0,0,0-1,8.88,5.92,5.92,0,0,0,3.51,3.79,5.24,5.24,0,0,0,4.24-.84A9.15,9.15,0,0,0,357.76,203.6Z"/><rect class="eyes-2" width="800" height="800"/><path class="eyes-3" d="M447.39,236.93c-1.41-.11-2.81-.05-4.22-.17s-2.76-.56-4.16-.72a9.12,9.12,0,0,1-1.81-.09c-.36-.18-.71-.37-1.06-.57a10.94,10.94,0,0,1-1.88-.8,1,1,0,0,1-.81-.33,2.82,2.82,0,0,0-.89-1,3.21,3.21,0,0,1-.85-.31l-.43-.64a4.43,4.43,0,0,0-1.35-.88c-.44-.22-1.17-.28-1.51-.61a5.35,5.35,0,0,1,1.82.73c.69.32,1.44.58,2.1.95a10.6,10.6,0,0,0,2.08,1c.89.29,1.78.46,2.68.73a4.43,4.43,0,0,0,2.17.08c1.34-.1,2.71.22,4.06.2,2,0,4,0,6,0,.91,0,1.72-.21,2.64-.17a21,21,0,0,0,2.4-.27c1.11-.05,2.16.46,3.31.23a5.15,5.15,0,0,1,2.59-.33,12.88,12.88,0,0,0,5.69.19,27.51,27.51,0,0,0,2.72-.81,10.78,10.78,0,0,0,2.19-.62c-3.28,1.36-6.38,3.34-9.72,4.54a9.61,9.61,0,0,1-2.33.31l-.5.17a1,1,0,0,1-.86-.3,9.86,9.86,0,0,1-3.44-1.31,9.53,9.53,0,0,0-4.34-1.45c-1.3-.08-2.7-.84-4-.69-.78.08-.56.15-1.28-.22a14.27,14.27,0,0,0-1.82-.58c-.42-.13-2.26-1.07-2.46-.7,1,.88,2.67,1,3.9,1.17a18.32,18.32,0,0,0,3.21.34c.62-.05,1.21-.25,1.82-.29,1.1-.06,2.07-.36,3.17-.44,1.33-.09,2.56-.66,3.88-.35s2.18-.2,3.44-.6a8.66,8.66,0,0,1,2.15-.25,5.64,5.64,0,0,0,2.17-.61c1.23-.54,2.51-.78,3.74-1.36l2.65-1.24"/><path class="eyes-3" d="M457.42,237.52c-1.53.69-3.25.41-4.9.83-3.13.8-6.31.17-9.46-.29a34.71,34.71,0,0,1-3.78-.78,16.68,16.68,0,0,1-3.52-.9c-1.13-.58-2.39-1.19-3.45-1.86-.35-.22-.59-.53-.91-.77s-.49-.17-.71-.42c1.63.41,2.94,1.56,4.64,1.91a48,48,0,0,1,4.9,1.56c1,.33,1.81,1.09,2.9,1.38.88.24,1.84.55,2.72.74a8.41,8.41,0,0,0,2.42.3c1.82-.15,3.55.14,5.23-.63.68-.31,1.41-.39,2.1-.64a6.91,6.91,0,0,1,2.09-.76,4.54,4.54,0,0,0,2.27-.48"/><path class="eyes-3" d="M460,236.71a7.54,7.54,0,0,1-3.13,1.16,14.65,14.65,0,0,1-2.75-.65c-1.18-.27-2.37-.41-3.53-.72-2.83-.75-5.68-1.54-8.49-2.16a9.16,9.16,0,0,1-2.28-.61c-.55-.28-1.09-.66-1.68-.92-1.44-.64-2.74-1.67-4.2-2.23.79,2,3.4,3.7,5.26,4.65a18.82,18.82,0,0,0,3.24,1.39c1.24.36,2.38,1,3.65,1.26a9.32,9.32,0,0,0,1.4,0c.65,0,1.22.39,1.86.42.85,0,1.64-.45,2.49-.46a10.58,10.58,0,0,0,1.79,0c.67-.09,1.33-.55,2-.58.43,0,.76.22,1.18.24a5.18,5.18,0,0,0,1.42-.35"/></g></g></svg>
