<svg xmlns="http://www.w3.org/2000/svg" viewBox="0 0 800 800"><defs><style>.eyes-1{fill:#fff;}.eyes-2{fill:none;}</style></defs><title>5000_swirly_eyes_elves</title><g id="Layer_2" data-name="Layer 2"><g id="_5000_swirly_eyes_elves" data-name="5000_swirly_eyes_elves"><path class="eyes-1" d="M362.69,338a41.36,41.36,0,0,1-4.11,9.43,13.72,13.72,0,0,1-8.14,6.13,9.06,9.06,0,0,1-5.23-.19,9.66,9.66,0,0,1-4.24-3.11,23.48,23.48,0,0,1-4.11-9.53,50.38,50.38,0,0,1,2.64-30.62c.34-.8.67-1.6,1.07-2.38s.76-1.56,1.2-2.31a21.2,21.2,0,0,1,3-4.39,9.16,9.16,0,0,1,4.64-3,6.54,6.54,0,0,1,5.48,1.34,14.94,14.94,0,0,1,3.47,4.17l1.26,2.31c.36.8.74,1.59,1.09,2.39a42.81,42.81,0,0,1,3.12,20.56A41.82,41.82,0,0,1,361.52,339l-.45,1.24-.52,1.21a24.75,24.75,0,0,1-1.13,2.39,17.25,17.25,0,0,1-3.18,4.39,9.86,9.86,0,0,1-4.94,2.65,7.16,7.16,0,0,1-5.64-1.11,9.43,9.43,0,0,1-3.24-4.61,34.2,34.2,0,0,1-1.31-5.13,96,96,0,0,1-1.67-10.25,37.53,37.53,0,0,1,.35-10.52,23.33,23.33,0,0,1,4.15-9.82,8.72,8.72,0,0,1,4.65-3.26,5.24,5.24,0,0,1,3.08.24,6.63,6.63,0,0,1,2.4,1.76,17.45,17.45,0,0,1,2.71,4.69,42.43,42.43,0,0,1,1.74,5,39.82,39.82,0,0,1,1.41,10.41,38.49,38.49,0,0,1-1.38,10.4,14.91,14.91,0,0,1-2.13,5,6.27,6.27,0,0,1-5,2.73,4.42,4.42,0,0,1-2.88-1.09,6.34,6.34,0,0,1-1.66-2.41,16,16,0,0,1-.79-2.59c-.19-.84-.38-1.69-.55-2.53A96,96,0,0,1,344,327.49c-.16-1.72-.27-3.45-.33-5.17a24.13,24.13,0,0,1,.18-5.28,7.52,7.52,0,0,1,1-2.62,4.21,4.21,0,0,1,2.31-1.82,4.36,4.36,0,0,1,2.92.17,5.8,5.8,0,0,1,2.28,1.69,12.13,12.13,0,0,1,2.12,4.91,34.36,34.36,0,0,1,.91,10.37c-.05.86-.15,1.73-.27,2.59a15.28,15.28,0,0,1-.53,2.59,4.17,4.17,0,0,1-1.63,2.26,2.66,2.66,0,0,1-2.82.17,3.13,3.13,0,0,1-1.27-2.48,20.59,20.59,0,0,1,0-2.61l.4-10.28,0-.41.3.26a8.51,8.51,0,0,1,2.06,9.69l-.09.19,0-.2-.55-4.28.67,4.26-.11,0a8.3,8.3,0,0,0-2.2-9.34l.32-.14-.19,10.29a23.38,23.38,0,0,0,0,2.52,2.46,2.46,0,0,0,1,1.94,1.93,1.93,0,0,0,2-.2,3.38,3.38,0,0,0,1.26-1.87,24.69,24.69,0,0,0,.66-5,35.75,35.75,0,0,0-.15-5.07,33.54,33.54,0,0,0-.9-5,11,11,0,0,0-1.95-4.44,3.88,3.88,0,0,0-3.94-1.44c-1.38.43-2.14,1.94-2.39,3.51a23,23,0,0,0-.09,5c.08,1.7.21,3.4.39,5.09a94.8,94.8,0,0,0,1.6,10.08,28,28,0,0,0,1.31,4.8,3.4,3.4,0,0,0,3.07,2.46,4.08,4.08,0,0,0,2-.57,5.29,5.29,0,0,0,1.61-1.49,13.29,13.29,0,0,0,1.84-4.44,36.58,36.58,0,0,0,1.28-9.93,38.26,38.26,0,0,0-1.39-9.93,39.67,39.67,0,0,0-1.68-4.73,16,16,0,0,0-2.4-4.18A3.7,3.7,0,0,0,349,308a6.89,6.89,0,0,0-3.57,2.6,21.38,21.38,0,0,0-3.72,9c-1.23,6.56,0,13.35,1.33,20a32.93,32.93,0,0,0,1.21,4.84,7.59,7.59,0,0,0,2.52,3.72,5.27,5.27,0,0,0,4.17.8,8,8,0,0,0,4-2.14c2.29-2.19,3.67-5.39,4.86-8.49a40,40,0,0,0,2.21-9.79,41.09,41.09,0,0,0-2.9-19.73l-1-2.29-1.19-2.22a13.08,13.08,0,0,0-3-3.74,4.93,4.93,0,0,0-4.16-1.11,7.66,7.66,0,0,0-3.88,2.48,20.44,20.44,0,0,0-2.83,4.08c-.43.72-.81,1.48-1.19,2.23s-.73,1.53-1.07,2.3a49.52,49.52,0,0,0-3,29.88,22.81,22.81,0,0,0,3.76,9.29,9,9,0,0,0,3.89,3,8.52,8.52,0,0,0,4.9.28,13.4,13.4,0,0,0,8-5.8A40.9,40.9,0,0,0,362.69,338Z"/><path class="eyes-1" d="M460.89,339.72a41.36,41.36,0,0,1-4.11,9.43,13.77,13.77,0,0,1-8.15,6.13,9.23,9.23,0,0,1-5.23-.19,9.82,9.82,0,0,1-4.24-3.11,23.52,23.52,0,0,1-4.11-9.54,49.56,49.56,0,0,1-.36-20.65,50.34,50.34,0,0,1,3-10c.34-.8.67-1.61,1.07-2.38s.76-1.57,1.2-2.32a21.75,21.75,0,0,1,3-4.39,9.19,9.19,0,0,1,4.65-3,6.5,6.5,0,0,1,5.47,1.35,14.61,14.61,0,0,1,3.47,4.17l1.26,2.31c.37.79.75,1.58,1.1,2.38A42.86,42.86,0,0,1,462,330.53a41.8,41.8,0,0,1-2.27,10.24l-.45,1.24-.53,1.2c-.34.81-.7,1.61-1.12,2.39a17.07,17.07,0,0,1-3.18,4.39,9.91,9.91,0,0,1-4.94,2.65,7.18,7.18,0,0,1-5.65-1.1,9.5,9.5,0,0,1-3.23-4.61,34.51,34.51,0,0,1-1.31-5.13,96.47,96.47,0,0,1-1.68-10.25A37.6,37.6,0,0,1,438,321a23.42,23.42,0,0,1,4.14-9.82,8.64,8.64,0,0,1,4.66-3.25,5.13,5.13,0,0,1,3.07.24,6.52,6.52,0,0,1,2.41,1.76,17.56,17.56,0,0,1,2.71,4.69,41.75,41.75,0,0,1,1.73,5,39.76,39.76,0,0,1,1.42,10.4,38.58,38.58,0,0,1-1.39,10.41,14.86,14.86,0,0,1-2.13,5,6.26,6.26,0,0,1-5,2.74,4.47,4.47,0,0,1-2.88-1.1,6.38,6.38,0,0,1-1.66-2.4,15.38,15.38,0,0,1-.8-2.59c-.19-.84-.37-1.69-.54-2.54a95.86,95.86,0,0,1-1.49-10.25c-.16-1.73-.27-3.45-.33-5.18a23.44,23.44,0,0,1,.17-5.27,7.49,7.49,0,0,1,1-2.63,4.28,4.28,0,0,1,2.31-1.82,4.41,4.41,0,0,1,2.92.18,5.64,5.64,0,0,1,2.28,1.69,11.94,11.94,0,0,1,2.12,4.91,34.6,34.6,0,0,1,.86,5.15,33.57,33.57,0,0,1,.06,5.21c-.06.87-.15,1.73-.27,2.59a15.23,15.23,0,0,1-.54,2.6,4.19,4.19,0,0,1-1.62,2.26,2.67,2.67,0,0,1-2.83.16,3.13,3.13,0,0,1-1.27-2.47,22.81,22.81,0,0,1,0-2.62l.4-10.28,0-.41.31.27a8.49,8.49,0,0,1,2,9.69l-.09.19,0-.21-.56-4.27.68,4.25h-.12a8.28,8.28,0,0,0-2.2-9.35l.32-.14L447.67,334a19.31,19.31,0,0,0,0,2.53,2.47,2.47,0,0,0,1,1.94,2,2,0,0,0,2-.2,3.39,3.39,0,0,0,1.26-1.88,23.91,23.91,0,0,0,.66-5,35.61,35.61,0,0,0-.15-5.06,33.52,33.52,0,0,0-.89-5,11.12,11.12,0,0,0-2-4.44,3.9,3.9,0,0,0-3.95-1.44c-1.38.42-2.13,1.93-2.38,3.51a23,23,0,0,0-.1,5c.09,1.7.22,3.39.4,5.09a95.59,95.59,0,0,0,1.59,10.08,28.55,28.55,0,0,0,1.31,4.8,3.45,3.45,0,0,0,3.08,2.46,4.14,4.14,0,0,0,2-.57,5.18,5.18,0,0,0,1.61-1.49,13.4,13.4,0,0,0,1.85-4.44,37.45,37.45,0,0,0,1.28-9.94,38.2,38.2,0,0,0-1.4-9.92,39,39,0,0,0-1.67-4.73,15.62,15.62,0,0,0-2.41-4.18,3.69,3.69,0,0,0-3.68-1.4,6.84,6.84,0,0,0-3.58,2.59,21.56,21.56,0,0,0-3.72,9c-1.23,6.57,0,13.35,1.34,20a32.31,32.31,0,0,0,1.2,4.84A7.63,7.63,0,0,0,445,350a5.2,5.2,0,0,0,4.16.8,7.88,7.88,0,0,0,4-2.14c2.29-2.19,3.66-5.39,4.85-8.49a39.88,39.88,0,0,0,2.22-9.78,41.27,41.27,0,0,0-2.9-19.74l-1.05-2.29-1.19-2.21a13.26,13.26,0,0,0-3-3.75,4.91,4.91,0,0,0-4.16-1.1,7.68,7.68,0,0,0-3.87,2.47,19.64,19.64,0,0,0-2.83,4.08c-.44.73-.81,1.48-1.19,2.24s-.73,1.53-1.07,2.3a48.73,48.73,0,0,0-3.05,9.67,49.32,49.32,0,0,0,.07,20.21,22.86,22.86,0,0,0,3.76,9.29,9.18,9.18,0,0,0,3.89,3,8.55,8.55,0,0,0,4.91.27,13.42,13.42,0,0,0,8-5.79A41.75,41.75,0,0,0,460.89,339.72Z"/><rect class="eyes-2" width="800" height="800"/></g></g></svg>
