<svg xmlns="http://www.w3.org/2000/svg" viewBox="0 0 800 800"><defs><style>.eyes-1{fill:#fff;}.eyes-2{fill:none;}</style></defs><title>5000_eyes_squinty_gingerbread_man</title><g id="Layer_2" data-name="Layer 2"><g id="_5000_eyes_squinty_gingerbread_man" data-name="5000_eyes_squinty_gingerbread_man"><path class="eyes-1" d="M367.26,216.52c.68.85-7.14,19.42-18.05,19.42s-17.55-8.66-17.55-24.7,10.46-33.67,12.1-30.83C350.91,192.84,353.58,199.41,367.26,216.52Z"/><path class="eyes-1" d="M433.11,216.52c-.68.85,7.15,19.42,18.06,19.42s17.54-8.66,17.54-24.7-10.46-33.67-12.09-30.83C449.47,192.84,446.8,199.41,433.11,216.52Z"/><path d="M349.46,206.92a2.51,2.51,0,0,1,2.27,1.43,2.47,2.47,0,0,1-.16,2.66l-.11.17a.15.15,0,0,0,0,.19.17.17,0,0,0,.18,0c.46-.12.92-.25,1.39-.35a5.52,5.52,0,0,1,1-.16.92.92,0,0,1,1,.71,1,1,0,0,1-.5,1.16c-.65.33-1.34.59-2,.87-.46.18-.72.43-.67,1.17a2.14,2.14,0,0,0,.52,1.2,6.14,6.14,0,0,0,1.49,1.43h0a1.28,1.28,0,0,1-.71,2.33,2.3,2.3,0,0,1-1.32-.39,8.47,8.47,0,0,1-1.44-1.17,4.18,4.18,0,0,0-.44-.4.65.65,0,0,0-.84,0c-.35.26-.63.59-1,.88a5.8,5.8,0,0,1-1.33.91,2.14,2.14,0,0,1-1.17.14,1.28,1.28,0,0,1-1-1.22,1.48,1.48,0,0,1,.08-.59.8.8,0,0,1,.42-.48A3.39,3.39,0,0,0,347,214.8a1.2,1.2,0,0,0-.67-1.16,4.23,4.23,0,0,0-.83-.4,11.33,11.33,0,0,1-1.13-.49.87.87,0,0,1-.49-.92.93.93,0,0,1,.72-.9,1.85,1.85,0,0,1,.81.06l1.84.43c.07,0,.15,0,.21,0s0-.16,0-.23a2.91,2.91,0,0,1-.5-1.05A2.61,2.61,0,0,1,349,207C349.12,206.93,349.27,206.93,349.46,206.92Z"/><path d="M449.63,206.92a2.53,2.53,0,0,1,2.28,1.43,2.47,2.47,0,0,1-.16,2.66l-.11.17c0,.06-.07.12,0,.19s.1.06.18,0c.46-.12.92-.25,1.39-.35a5.41,5.41,0,0,1,1-.16.92.92,0,0,1,1,.71,1,1,0,0,1-.5,1.16c-.65.33-1.34.59-2,.87-.46.18-.72.43-.68,1.17a2.22,2.22,0,0,0,.53,1.2,6.28,6.28,0,0,0,1.48,1.43h0a1.28,1.28,0,0,1-.71,2.33,2.3,2.3,0,0,1-1.32-.39,8.1,8.1,0,0,1-1.44-1.17,4.18,4.18,0,0,0-.44-.4.65.65,0,0,0-.84,0c-.35.26-.64.59-1,.88a5.8,5.8,0,0,1-1.33.91,2.14,2.14,0,0,1-1.17.14,1.28,1.28,0,0,1-1-1.22,1.48,1.48,0,0,1,.08-.59.81.81,0,0,1,.41-.48,3.37,3.37,0,0,0,1.88-2.67,1.17,1.17,0,0,0-.66-1.16,4.31,4.31,0,0,0-.84-.4c-.37-.16-.77-.29-1.13-.49a.89.89,0,0,1-.49-.92,1,1,0,0,1,.73-.9,1.86,1.86,0,0,1,.81.06l1.83.43c.08,0,.16,0,.22,0s0-.16,0-.23a2.89,2.89,0,0,1-.49-1.05,2.61,2.61,0,0,1,2.09-3.15C449.3,206.93,449.45,206.93,449.63,206.92Z"/><rect class="eyes-2" width="800" height="800"/></g></g></svg>
