<svg xmlns="http://www.w3.org/2000/svg" viewBox="0 0 800 800"><defs><style>.eyes-1,.eyes-2{fill:none;}.eyes-2{stroke:#000;stroke-linecap:round;stroke-miterlimit:10;stroke-width:5px;}</style></defs><title>5000_eyes_mixed_wink_elves</title><g id="Layer_2" data-name="Layer 2"><g id="_5000_eyes_mixed_wink_elves" data-name="5000_eyes_mixed_wink_elves"><path d="M353.89,332.62l8.88-5.6c-.15-1.11-.33-2.22-.56-3.33-.29-1.47-.64-2.94-1-4.42-1.05-3.78-2.4-10.34-8.11-8.77a7.09,7.09,0,0,0-4.38,4.31A20.46,20.46,0,0,0,347.5,321c-.74,8.73-3.12,22.62,4.66,28.9a6,6,0,0,0,4.83,1.38,6.12,6.12,0,0,0,3.87-3.09c1.62-2.88,1.75-6.63,2.1-9.86,0-.31.05-.62.08-.93Z"/><rect class="eyes-1" width="800" height="800"/><line class="eyes-2" x1="462.03" y1="335.95" x2="432.68" y2="334.62"/></g></g></svg>
