<svg xmlns="http://www.w3.org/2000/svg" viewBox="0 0 800 800"><defs><style>.eyes-1{fill:none;}</style></defs><title>5000_eyes_black_dots_no_white_bags</title><g id="Layer_2" data-name="Layer 2"><g id="_5000_eyes_black_dots_no_white_bags" data-name="5000_eyes_black_dots_no_white_bags"><rect class="eyes-1" width="800" height="800"/><path d="M442.51,207.18a6.23,6.23,0,0,0,4.11,4.54c2.65.68,5.46-1.26,6.49-3.8s.62-5.43-.28-8c-.57-1.65-1.45-3.37-3.05-4.09a4.76,4.76,0,0,0-4.6.67C441.85,198.87,441.5,203.49,442.51,207.18Z"/><path d="M357.76,203.6a6.57,6.57,0,0,0-2.55-4.94c-2.54-1.8-6.4-.88-8.33,1.57a9.21,9.21,0,0,0-1,8.88,5.92,5.92,0,0,0,3.51,3.79,5.24,5.24,0,0,0,4.24-.84A9.15,9.15,0,0,0,357.76,203.6Z"/><path d="M367.6,219.49a18.66,18.66,0,0,1-5.11,14.23,19.61,19.61,0,0,1-6.46,4.51,19.64,19.64,0,0,1-15.53,0,19.47,19.47,0,0,1-6.46-4.51,18.62,18.62,0,0,1-5.12-14.23,20.28,20.28,0,0,0,6.22,13.12,19.12,19.12,0,0,0,26.25,0A20.27,20.27,0,0,0,367.6,219.49Z"/></g></g></svg>
