<svg xmlns="http://www.w3.org/2000/svg" viewBox="0 0 800 800"><defs><style>.eyes-1{fill:none;}</style></defs><title>5000_eyes_black_gingerbread_man</title><g id="Layer_2" data-name="Layer 2"><g id="_5000_eyes_black_gingerbread_man" data-name="5000_eyes_black_gingerbread_man"><path d="M351.08,206.92a3.24,3.24,0,0,1,2.94,1.84,3.2,3.2,0,0,1-.21,3.44,1.64,1.64,0,0,0-.14.22.2.2,0,0,0,0,.24.22.22,0,0,0,.24.06c.6-.15,1.19-.33,1.79-.45a7.81,7.81,0,0,1,1.27-.2,1.18,1.18,0,0,1,1.27.91,1.22,1.22,0,0,1-.64,1.49c-.84.44-1.73.77-2.61,1.13-.59.24-.92.56-.87,1.5a2.84,2.84,0,0,0,.68,1.55,7.68,7.68,0,0,0,1.92,1.85h0a1.44,1.44,0,0,1,.53,2.09,1.47,1.47,0,0,1-1.44.91,3.16,3.16,0,0,1-1.71-.5,11.73,11.73,0,0,1-1.85-1.51,4.69,4.69,0,0,0-.57-.52.86.86,0,0,0-1.09,0c-.44.34-.81.77-1.24,1.14a7,7,0,0,1-1.72,1.17,2.5,2.5,0,0,1-1.5.18,1.63,1.63,0,0,1-1.32-1.56,2,2,0,0,1,.1-.77,1.08,1.08,0,0,1,.54-.61,4.37,4.37,0,0,0,2.42-3.45,1.53,1.53,0,0,0-.86-1.5,7,7,0,0,0-1.07-.51,14.59,14.59,0,0,1-1.46-.63,1.13,1.13,0,0,1-.63-1.19,1.23,1.23,0,0,1,.93-1.16,2.34,2.34,0,0,1,1.05.08c.79.17,1.58.36,2.36.55.1,0,.2.05.28-.05s0-.2,0-.29a3.8,3.8,0,0,1-.65-1.36,3.37,3.37,0,0,1,2.7-4.06A5.19,5.19,0,0,1,351.08,206.92Z"/><path d="M449.28,206.92a3.26,3.26,0,0,1,2.94,1.84,3.22,3.22,0,0,1-.22,3.44,1.64,1.64,0,0,0-.14.22c-.05.08-.08.15,0,.24a.2.2,0,0,0,.23.06c.6-.15,1.19-.33,1.79-.45a8,8,0,0,1,1.27-.2,1.17,1.17,0,0,1,1.27.91,1.22,1.22,0,0,1-.64,1.49c-.84.44-1.73.77-2.6,1.13a1.26,1.26,0,0,0-.87,1.5,2.83,2.83,0,0,0,.67,1.55,7.68,7.68,0,0,0,1.92,1.85h0a1.44,1.44,0,0,1,.54,2.09,1.49,1.49,0,0,1-1.44.91,3.17,3.17,0,0,1-1.72-.5,12.2,12.2,0,0,1-1.85-1.51,5.48,5.48,0,0,0-.56-.52.86.86,0,0,0-1.09,0c-.45.34-.82.77-1.24,1.14a7.22,7.22,0,0,1-1.73,1.17,2.5,2.5,0,0,1-1.5.18,1.64,1.64,0,0,1-1.32-1.56,2,2,0,0,1,.1-.77,1.08,1.08,0,0,1,.54-.61,4.41,4.41,0,0,0,2.43-3.45,1.56,1.56,0,0,0-.86-1.5,6.68,6.68,0,0,0-1.08-.51c-.48-.21-1-.37-1.46-.63a1.14,1.14,0,0,1-.63-1.19,1.23,1.23,0,0,1,.93-1.16,2.34,2.34,0,0,1,1.05.08c.79.17,1.58.36,2.37.55.1,0,.19.05.27-.05s0-.2,0-.29A3.62,3.62,0,0,1,446,211a3.37,3.37,0,0,1,2.69-4.06A5.54,5.54,0,0,1,449.28,206.92Z"/><rect class="eyes-1" width="800" height="800"/></g></g></svg>
