<svg xmlns="http://www.w3.org/2000/svg" viewBox="0 0 800 800"><defs><style>.eyes-1,.eyes-2{fill:none;}.eyes-2{stroke:#000;stroke-linecap:round;stroke-miterlimit:10;stroke-width:5px;}</style></defs><title>5000_eyes_mixed_x</title><g id="Layer_2" data-name="Layer 2"><g id="_5000_eyes_mixed_x" data-name="5000_eyes_mixed_x"><path d="M445,206.66l8.88-5.6c-.15-1.11-.33-2.22-.56-3.33-.29-1.47-.65-2.93-1.05-4.42-1.05-3.78-2.4-10.34-8.11-8.76a7,7,0,0,0-4.38,4.3,20.78,20.78,0,0,0-1.18,6.23c-.73,8.72-3.11,22.61,4.67,28.89a6,6,0,0,0,4.82,1.38,6.12,6.12,0,0,0,3.88-3.09c1.62-2.87,1.75-6.62,2.1-9.86,0-.31.05-.62.08-.93Z"/><rect class="eyes-1" width="800" height="800"/><line class="eyes-2" x1="363.14" y1="196.65" x2="341.44" y2="216.46"/><line class="eyes-2" x1="340.77" y1="196.52" x2="362.47" y2="216.33"/></g></g></svg>
