<svg xmlns="http://www.w3.org/2000/svg" viewBox="0 0 800 800"><defs><style>.arms-1{fill:#cc6;}.arms-2{fill:none;}</style></defs><title>5100_arms_toothpicks</title><g id="Layer_2" data-name="Layer 2"><g id="_5100_arms_toothpicks" data-name="5100_arms_toothpicks"><path class="arms-1" d="M321.26,445.34c-14.81,3.24-29.67,6.1-44.56,8.81-7.44,1.4-14.9,2.65-22.35,4L232,461.87l-22.42,3.53c-7.49,1.1-15,2.28-22.46,3.31-15,2.14-30,4.13-45.06,5.74,14.8-3.25,29.67-6.11,44.56-8.82,7.44-1.4,14.9-2.64,22.35-4l22.39-3.74,22.42-3.53c7.49-1.1,15-2.28,22.46-3.31C291.18,449,306.19,447,321.26,445.34Z"/><path class="arms-1" d="M632.7,516.55c-14.19-5.3-28.23-11-42.21-16.76-7-2.86-14-5.85-20.94-8.78l-20.84-9L528,472.84c-6.88-3.13-13.8-6.2-20.66-9.4-13.75-6.32-27.44-12.78-41-19.6,14.2,5.29,28.24,11,42.22,16.74,7,2.86,13.95,5.86,20.93,8.79l20.84,9,20.76,9.19c6.88,3.13,13.8,6.2,20.66,9.4C605.48,503.27,619.17,509.73,632.7,516.55Z"/><rect class="arms-2" width="800" height="800"/></g></g></svg>
