<svg xmlns="http://www.w3.org/2000/svg" viewBox="0 0 800 800"><defs><style>.brows-1,.brows-3{fill:none;}.brows-1{stroke:#fff;stroke-miterlimit:10;stroke-width:0.5px;}.brows-2{fill:#fff;}</style></defs><title>6000_brows_cotton_scraggly_white</title><g id="Layer_2" data-name="Layer 2"><g id="_6000_brows_cotton_scraggly_white" data-name="6000_brows_cotton_scraggly_white"><path class="brows-1" d="M366.44,182.54a9.33,9.33,0,0,1-2.32,12.53c-3.93,2.62-10,1.22-12.24-2.94-3.13-5.81,1.91-13.2,8.13-15.39s13.05-1,19.63-.57c1,2.8,2,5.72,1.73,8.68s-2.34,6-5.29,6.37c-2.61.35-5-1.35-7.09-3s-4.47-3.51-5.28-6.13.73-6.11,3.47-6.2,4.56,3.81,3.1,6.24-4.85,3.14-7.55,2.26-4.81-3-6.63-5.15-3.51-4.53-5.8-6.21a13.82,13.82,0,0,0-15.74-.17c-2.84,2-5,5.14-8.27,6.27a7.76,7.76,0,0,1-9.78-10l10.75-.2-.35,9.18c7.48-6.71,20.5-5.76,26.92,2a7.08,7.08,0,0,1,9.24,10.72,16.84,16.84,0,0,1-7.64-20.18c1.16-3.07,4.86-6,7.4-4s-.2,6.79-3.58,7.12-6.47-1.73-9.6-3a23.78,23.78,0,0,0-26.36,6.08"/><path class="brows-1" d="M433.13,192.22c-2.46-.09-2.73-4-.93-5.69s4.46-2,6.65-3.07a10,10,0,0,0,4.4-12.63l-7.85,19.69c-3.29-1.69-2.27-7.1.8-9.17s7-2,10.69-2.58,7.73-2.33,8.6-5.93A5.56,5.56,0,0,0,445,169.37c-1.1,2.58-.13,5.52-.08,8.32s-1.85,6.24-4.61,5.71c-2.18-.42-3.15-3.27-2.41-5.37s2.62-3.56,4.42-4.86,3.72-2.66,4.66-4.68a6.46,6.46,0,0,0-2.58-8c4.65.06,9.59.2,13.48,2.76s5.94,8.45,2.89,12a7,7,0,0,1-7.86,1.6,8.71,8.71,0,0,1-4.9-6.6,10.16,10.16,0,0,1,5.82-10.64c2.59-1.12,5.85-1,7.94.91s2.38,5.65.2,7.44c1.09-1.51,3.81.15,3.58,2s-2.15,3-4,3.41c-3.24.7-6.59-.13-9.9-.33s-7.07.48-8.92,3.23c-1.43,2.13-1.33,4.9-2.08,7.35s-3.34,4.85-5.63,3.69a43.78,43.78,0,0,1,37.9-20.75"/><ellipse class="brows-2" cx="341.17" cy="164.62" rx="6.89" ry="8.81"/><ellipse class="brows-2" cx="358.79" cy="177.64" rx="8.43" ry="4.21"/><ellipse class="brows-2" cx="349.98" cy="173.43" rx="6.51" ry="7.66"/><ellipse class="brows-2" cx="368.74" cy="187.21" rx="6.13" ry="4.6"/><ellipse class="brows-2" cx="366.45" cy="177.64" rx="8.43" ry="11.87"/><ellipse class="brows-2" cx="360.7" cy="167.68" rx="16.47" ry="8.04"/><ellipse class="brows-2" cx="432.32" cy="183.77" rx="6.13" ry="7.28"/><circle class="brows-2" cx="439.21" cy="178.02" r="7.66"/><ellipse class="brows-2" cx="451.47" cy="170.36" rx="7.66" ry="10.72"/><ellipse class="brows-2" cx="435.77" cy="167.3" rx="8.04" ry="7.66"/><rect class="brows-3" width="800" height="800"/></g></g></svg>
