<svg xmlns="http://www.w3.org/2000/svg" viewBox="0 0 800 800"><defs><style>.brows-1{fill:#fff;}.brows-2{fill:none;}</style></defs><title>6000_brows_curly_white</title><g id="Layer_2" data-name="Layer 2"><g id="_6000_brows_curly_white" data-name="6000_brows_curly_white"><path class="brows-1" d="M414.2,192.13c2.53-1.13,4.08-3.54,6.48-5a3.88,3.88,0,0,1,2.07-.6,3.22,3.22,0,0,1,2,.92,5.32,5.32,0,0,1,1.73,3.88,4.25,4.25,0,0,1-2,3.88,3,3,0,0,1-2.37.23,2.81,2.81,0,0,1-1.67-1.75,4.25,4.25,0,0,1-.11-2.31,10.08,10.08,0,0,1,.69-2,24.74,24.74,0,0,1,1.95-3.71,33.72,33.72,0,0,1,5.31-6.43,36,36,0,0,1,3.21-2.69,16.25,16.25,0,0,1,3.73-2.16,4.62,4.62,0,0,1,2.46-.29,3.59,3.59,0,0,1,2.19,1.42,6.26,6.26,0,0,1,1,4.56,6.67,6.67,0,0,1-6.67,5.58l-.61,0-.22-.57a12.38,12.38,0,0,1-.83-5.18,27.36,27.36,0,0,1,.86-5c.18-.79.37-1.57.52-2.36s.33-1.63.55-2.45a14.73,14.73,0,0,1,2.11-4.78c2-3,6.59-4.66,10-2.23a4.93,4.93,0,0,1,1,1.1,7.33,7.33,0,0,1,.39.73,5.69,5.69,0,0,1,.22.78,5.11,5.11,0,0,1-2.57,5.11,3.37,3.37,0,0,1-3.23,0l-.63-.38.2-.68a33.22,33.22,0,0,1,4.95-10.08,32.08,32.08,0,0,1,8-7.86l.48-.32.44.32a12.1,12.1,0,0,1,2.74,2.79,5.8,5.8,0,0,1,1.16,3.91,3.54,3.54,0,0,1-.89,2.05,3.43,3.43,0,0,1-2,1,2.34,2.34,0,0,1-2.22-.89,2.29,2.29,0,0,1-.45-1.16,2.26,2.26,0,0,1,.27-1.21,7,7,0,0,1,1.28-1.54c.41-.4.77-.88,1.2-1.34a28.49,28.49,0,0,1,2.63-2.64,17,17,0,0,1,6.53-3.6l.12,0,.1,0a43.22,43.22,0,0,1,7.26,3.08,13.84,13.84,0,0,1,3.14,2.4,9.69,9.69,0,0,1,2.11,3.3,9.7,9.7,0,0,0-2.26-3.15,15,15,0,0,0-3.19-2.2,43.13,43.13,0,0,0-7.29-2.73h.22a16.42,16.42,0,0,0-6.05,3.66,27.6,27.6,0,0,0-2.47,2.6c-.39.44-.76,1-1.21,1.42a5.89,5.89,0,0,0-1,1.28.9.9,0,0,0,.1,1.07,1,1,0,0,0,1,.34,2.07,2.07,0,0,0,1.18-.65,2.17,2.17,0,0,0,.5-1.27,4.44,4.44,0,0,0-1-2.91,10.44,10.44,0,0,0-2.43-2.35h.91a32.77,32.77,0,0,0-7.48,7.57,31.51,31.51,0,0,0-4.6,9.58l-.44-1.06a1.49,1.49,0,0,0,1.46,0,3.13,3.13,0,0,0,1.25-1.36,2.94,2.94,0,0,0,.31-1.78,2.5,2.5,0,0,0-.11-.39l-.19-.36a2.91,2.91,0,0,0-.65-.66,4.52,4.52,0,0,0-3.83-.56,5.84,5.84,0,0,0-3.33,2.43,12.65,12.65,0,0,0-1.85,4.12c-.21.76-.37,1.52-.54,2.33s-.36,1.62-.55,2.42a26.35,26.35,0,0,0-.86,4.64,10.82,10.82,0,0,0,.67,4.43l-.83-.59a4.87,4.87,0,0,0,4.89-4,4.57,4.57,0,0,0-.63-3.26,2.09,2.09,0,0,0-2.7-.57,14.57,14.57,0,0,0-3.37,1.86,32.67,32.67,0,0,0-3.14,2.49,32.13,32.13,0,0,0-5.24,6,22.43,22.43,0,0,0-1.95,3.48,5,5,0,0,0-.65,3.54,1.79,1.79,0,0,0,1,1.15,2.06,2.06,0,0,0,1.59-.11,3.46,3.46,0,0,0,1.63-3,4.65,4.65,0,0,0-1.38-3.45,2.62,2.62,0,0,0-1.61-.84,3.36,3.36,0,0,0-1.82.46C418.56,188.79,416.78,191.14,414.2,192.13Z"/><path class="brows-1" d="M393,191.17a9.39,9.39,0,0,0-1.69-5,15.89,15.89,0,0,0-3.51-4,9.91,9.91,0,0,0-4.82-2,8,8,0,0,0-5,1l.22-.51a2.71,2.71,0,0,0,1.54,1.83,4.1,4.1,0,0,0,2.53.25,4.65,4.65,0,0,0,3.73-3.23,6.8,6.8,0,0,0-.56-5.16,8.08,8.08,0,0,0-3.77-3.67,20.75,20.75,0,0,0-5.33-1.66,12.38,12.38,0,0,0-2.7-.15,3.73,3.73,0,0,0-1.17.24,1.67,1.67,0,0,0-.74.58,2.91,2.91,0,0,0-.37,2.13,2.52,2.52,0,0,0,.4,1,1.24,1.24,0,0,0,.65.47,1.41,1.41,0,0,0,.41,0,1.28,1.28,0,0,0,.43-.12,1,1,0,0,0,.51-.6,8.9,8.9,0,0,0,.35-2.59c.24-2.11.75-3.87.38-5.53a5.58,5.58,0,0,0-1-2.25,9.28,9.28,0,0,0-1.89-1.81,8.34,8.34,0,0,0-2.32-1.18,4.46,4.46,0,0,0-2.38-.18,3.11,3.11,0,0,0-1.83,1.16c-.12.15-.21.34-.32.51a2,2,0,0,0-.26.49,2,2,0,0,0-.12.95.68.68,0,0,0,.27.52.52.52,0,0,0,.51.06,2,2,0,0,0,1.12-1.51,10.77,10.77,0,0,0-.29-5.23,7.68,7.68,0,0,0-.45-1.2,4.57,4.57,0,0,0-.69-1,5.81,5.81,0,0,0-2-1.45,6.28,6.28,0,0,0-4.94-.07l.55-.91a3.66,3.66,0,0,0,1.78,2.8,3.29,3.29,0,0,0,1.62.51,2.29,2.29,0,0,0,1.45-.36,2.14,2.14,0,0,0,.69-1.32,7,7,0,0,0,.07-1.9,11.63,11.63,0,0,0-1-3.83,4,4,0,0,0-.45-.75,7.65,7.65,0,0,0-.65-.62,4.61,4.61,0,0,0-.77-.46l-.42-.19-.44-.12a8,8,0,0,0-3.89.18,28.28,28.28,0,0,0-7.58,3.56A102.48,102.48,0,0,0,323,171.26a95.18,95.18,0,0,1,25.12-23.49,29.63,29.63,0,0,1,7.86-3.91,9.44,9.44,0,0,1,4.62-.29,5.63,5.63,0,0,1,3.88,2.91,13.16,13.16,0,0,1,1.24,4.43,9.18,9.18,0,0,1-.07,2.39,3.89,3.89,0,0,1-1.32,2.37,2.2,2.2,0,0,1-.64.39l-.34.15-.32.08a4.82,4.82,0,0,1-1.31.13,5.16,5.16,0,0,1-2.46-.74,5.55,5.55,0,0,1-2.68-4.19l-.05-.66.61-.25a8.19,8.19,0,0,1,6.39,0,7.78,7.78,0,0,1,2.69,1.89,6.68,6.68,0,0,1,1,1.39,9.83,9.83,0,0,1,.58,1.52,15.28,15.28,0,0,1,.57,3.06,10.14,10.14,0,0,1-.22,3.22,4.68,4.68,0,0,1-.75,1.65,3.4,3.4,0,0,1-1.6,1.22,2.51,2.51,0,0,1-2.27-.27,2.65,2.65,0,0,1-1.15-1.91,4,4,0,0,1,.24-1.92,4.49,4.49,0,0,1,.41-.79c.16-.24.29-.49.47-.72a5.15,5.15,0,0,1,3-1.86,6.42,6.42,0,0,1,3.36.26,10.14,10.14,0,0,1,2.85,1.47A10.66,10.66,0,0,1,375,161a7.48,7.48,0,0,1,1.36,3c.45,2.21-.21,4.31-.39,6a10.38,10.38,0,0,1-.51,3.14,2.79,2.79,0,0,1-1.39,1.51,3.25,3.25,0,0,1-2,.24,2.94,2.94,0,0,1-1.68-1.16,4.55,4.55,0,0,1-.7-1.7,4.63,4.63,0,0,1,.69-3.44,3.29,3.29,0,0,1,1.52-1.18,5.49,5.49,0,0,1,1.67-.35,12.7,12.7,0,0,1,3.1.23,21.81,21.81,0,0,1,5.72,1.93,9.54,9.54,0,0,1,4.33,4.41,8.17,8.17,0,0,1,.5,6.16,5.43,5.43,0,0,1-1.81,2.64,6.27,6.27,0,0,1-2.9,1.28,5.27,5.27,0,0,1-3.17-.4,3.63,3.63,0,0,1-2-2.55l-.07-.35.3-.16a8.84,8.84,0,0,1,5.52-.91,10.58,10.58,0,0,1,5,2.29,15.7,15.7,0,0,1,3.44,4.27A9.42,9.42,0,0,1,393,191.17Z"/><rect class="brows-2" width="800" height="800"/></g></g></svg>
