<svg xmlns="http://www.w3.org/2000/svg" viewBox="0 0 800 800"><defs><style>.brows-1{fill:none;}</style></defs><title>6000_brows_black_saw_tooth</title><g id="Layer_2" data-name="Layer 2"><g id="_6000_brows_black_saw_tooth" data-name="6000_brows_black_saw_tooth"><path d="M355.17,162.86c-.23.91-.43,1.84-.67,2.67a7.9,7.9,0,0,0,2.88-.51,11.13,11.13,0,0,1,3.47-1l-1.28,6.53c.1-.54,2.14-.54,2.62-.69,1-.31,2-.57,3-.9s1.28-.57,1.18.56a61.26,61.26,0,0,1-1.71,7.51l4.56-.43a4.86,4.86,0,0,0-.57,1,5.66,5.66,0,0,0-.22,1.16,10.7,10.7,0,0,1-.52,2.91c1.15-.21,2.28-.49,3.43-.65.55-.08,1.13-.09,1.67-.2s.54-.28.89-.54c-.23,1.13-.59,2.25-.88,3.37a23.93,23.93,0,0,1-.84,3.19l7.77-.5-1.32,6.76,10-4.12-21.49-23.81c-4.79-5.31-9.16-11-14-16.26-1.5-1.64-2.72-3.52-4.25-5.13l-3.25-3.42c-.94,1.81-2,3.58-2.86,5.43-.27.42-1.63,3.84-2,3.88.77-.07,4.65-.85,5-.21.19.34-.43,1.22-.56,1.51-.35.87-.61,1.77-.91,2.66-.07.21-.13.47,0,.63a.61.61,0,0,0,.53.08c2.2-.32,4.27-.19,6.44-.5L350,158.38a1.21,1.21,0,0,0-.06.7c.27.8,1.14.36,1.63.2a3.47,3.47,0,0,1,1.9-.15,9.83,9.83,0,0,0,3.62-.25A8.41,8.41,0,0,0,355.17,162.86Z"/><path d="M451,150.52c1.63-1.5,3.78-3.39,5.89-2.05,2.27,1.44,4.22,4.84,5.54,7.1-.11-.18-7.23.56-7.82.58l1.33,7.34-5.39-1.75.24,5.59h-8.5l1.11,5.7-9.06.15.21,7.23L426,178.27c-.35,2.72-.53,5.55-1.1,8.23-1.6-.2-3.51-1.87-4.94-.26-.56.64-1.58,6.83-1.06,7.42l-4.36-4.93c-.88-1-1.82-2.17-1.66-3.49.22-1.8,3.86-4.39,5.28-5.6,2.5-2.13,5.33-3.86,7.76-6.09Z"/><rect class="brows-1" width="800" height="800"/></g></g></svg>
