<svg xmlns="http://www.w3.org/2000/svg" viewBox="0 0 800 800"><defs><style>.beard-1{fill:#fff;}.beard-2{fill:#ccc;}.beard-3{fill:none;}</style></defs><title>7000_beard_icicles_white_and_gray</title><g id="Layer_2" data-name="Layer 2"><g id="_7000_beard_icicles_white_and_gray" data-name="7000_beard_icicles_white_and_gray"><polygon class="beard-1" points="302.31 201 299.81 452.54 297.31 201 302.31 201"/><polygon class="beard-1" points="362.05 246.23 359.55 591.77 357.05 246.23 362.05 246.23"/><polygon class="beard-1" points="312.27 208.49 309.77 549.65 307.27 208.49 312.27 208.49"/><polygon class="beard-1" points="326.05 232.07 323.55 550.82 321.05 232.07 326.05 232.07"/><polygon class="beard-1" points="339.07 242.45 336.57 557.84 334.07 242.45 339.07 242.45"/><polygon class="beard-1" points="350.56 246.23 348.06 548.48 345.56 246.23 350.56 246.23"/><polygon class="beard-1" points="369.71 248.11 367.21 611.65 364.71 248.11 369.71 248.11"/><polygon class="beard-1" points="382.73 236.79 380.23 639.73 377.73 236.79 382.73 236.79"/><polygon class="beard-1" points="397.29 228.3 394.79 631.54 392.29 228.3 397.29 228.3"/><polygon class="beard-1" points="414.14 235.85 411.64 653.77 409.14 235.85 414.14 235.85"/><polygon class="beard-1" points="429.46 243.4 426.96 652.6 424.46 243.4 429.46 243.4"/><polygon class="beard-1" points="445.54 249.06 443.04 619.85 440.54 249.06 445.54 249.06"/><polygon class="beard-1" points="501.46 210.38 498.96 478.28 496.46 210.38 501.46 210.38"/><polygon class="beard-1" points="489.2 230.19 486.7 553.16 484.2 230.19 489.2 230.19"/><polygon class="beard-1" points="457.03 249.06 454.53 584.75 452.03 249.06 457.03 249.06"/><polygon class="beard-1" points="473.12 248.11 470.62 543.8 468.12 248.11 473.12 248.11"/><polygon class="beard-1" points="307.93 206.55 306.43 458.09 304.93 206.55 307.93 206.55"/><polygon class="beard-1" points="367.67 251.78 366.17 597.32 364.67 251.78 367.67 251.78"/><polygon class="beard-1" points="317.88 214.04 316.38 555.2 314.88 214.04 317.88 214.04"/><polygon class="beard-1" points="331.67 237.63 330.17 556.37 328.67 237.63 331.67 237.63"/><polygon class="beard-1" points="344.69 248 343.19 563.39 341.69 248 344.69 248"/><polygon class="beard-1" points="356.18 251.78 354.68 554.03 353.18 251.78 356.18 251.78"/><polygon class="beard-1" points="375.33 253.66 373.83 617.21 372.33 253.66 375.33 253.66"/><polygon class="beard-1" points="388.35 242.34 386.85 645.28 385.35 242.34 388.35 242.34"/><polygon class="beard-1" points="402.9 233.85 401.4 637.1 399.9 233.85 402.9 233.85"/><polygon class="beard-1" points="419.75 241.4 418.25 659.32 416.75 241.4 419.75 241.4"/><polygon class="beard-1" points="435.07 248.95 433.57 658.15 432.07 248.95 435.07 248.95"/><polygon class="beard-1" points="451.16 254.61 449.66 625.39 448.16 254.61 451.16 254.61"/><polygon class="beard-1" points="507.07 215.93 505.57 483.83 504.07 215.93 507.07 215.93"/><polygon class="beard-1" points="494.82 235.74 493.32 558.71 491.82 235.74 494.82 235.74"/><polygon class="beard-1" points="462.65 254.61 461.15 590.3 459.65 254.61 462.65 254.61"/><polygon class="beard-1" points="478.73 253.66 477.23 549.35 475.73 253.66 478.73 253.66"/><polygon class="beard-2" points="296.43 204.27 295.43 455.81 294.43 204.27 296.43 204.27"/><polygon class="beard-2" points="356.17 249.49 355.17 595.03 354.17 249.49 356.17 249.49"/><polygon class="beard-2" points="306.38 211.76 305.38 552.91 304.38 211.76 306.38 211.76"/><polygon class="beard-2" points="320.17 235.34 319.17 554.09 318.17 235.34 320.17 235.34"/><polygon class="beard-2" points="333.19 245.72 332.19 561.1 331.19 245.72 333.19 245.72"/><polygon class="beard-2" points="344.68 249.49 343.68 551.75 342.68 249.49 344.68 249.49"/><polygon class="beard-2" points="363.83 251.38 362.83 614.92 361.83 251.38 363.83 251.38"/><polygon class="beard-2" points="376.85 240.06 375.85 643 374.85 240.06 376.85 240.06"/><polygon class="beard-2" points="391.4 231.57 390.4 634.81 389.4 231.57 391.4 231.57"/><polygon class="beard-2" points="408.25 239.12 407.25 657.04 406.25 239.12 408.25 239.12"/><polygon class="beard-2" points="423.57 246.66 422.57 655.87 421.57 246.66 423.57 246.66"/><polygon class="beard-2" points="439.66 252.32 438.66 623.11 437.66 252.32 439.66 252.32"/><polygon class="beard-2" points="495.57 213.65 494.57 481.55 493.57 213.65 495.57 213.65"/><polygon class="beard-2" points="483.32 233.46 482.32 556.42 481.32 233.46 483.32 233.46"/><polygon class="beard-2" points="451.15 252.32 450.15 588.01 449.15 252.32 451.15 252.32"/><polygon class="beard-2" points="467.23 251.38 466.23 547.07 465.23 251.38 467.23 251.38"/><rect class="beard-3" width="800" height="800"/></g></g></svg>
