<svg xmlns="http://www.w3.org/2000/svg" viewBox="0 0 800 800"><defs><style>.beard-1{fill:#fff;}.beard-2,.beard-3{fill:none;}.beard-2{stroke:#fff;stroke-miterlimit:10;}</style></defs><title>7000_beard_scraggly_white</title><g id="Layer_2" data-name="Layer 2"><g id="_7000_beard_scraggly_white" data-name="7000_beard_scraggly_white"><path class="beard-1" d="M295.59,229l8.81,46.57-.1-.06a17.76,17.76,0,0,0,5.95-4.24,22.7,22.7,0,0,0,4-6.11,23.74,23.74,0,0,0,1.78-14.38h.18l-8,26.79,0,.12-.11-.05c-3.8-1.49-7.68-3.07-10.82-5.78a15.34,15.34,0,0,1-3.82-4.83,14.8,14.8,0,0,1-1.39-6,14.42,14.42,0,0,1,.29-3.08,10.62,10.62,0,0,1,1.14-2.89,7.65,7.65,0,0,1,2.11-2.28,6.78,6.78,0,0,1,2.91-1.09,8.7,8.7,0,0,1,5.88,1.64,12.51,12.51,0,0,1,4.07,4.6c1.95,3.68,2.59,7.84,3.06,11.89l1.26,12.23,2.52,24.46-.33-.05a122.15,122.15,0,0,0,9.14-52.95l.4,0-13.14,75.66-.21,1.17-.27-1.15a98.64,98.64,0,0,1-2.08-32.49q.4-4.06,1.17-8.09a77.85,77.85,0,0,1,1.86-8,41.2,41.2,0,0,1,3-7.63,22.91,22.91,0,0,1,4.92-6.57,15.57,15.57,0,0,1,7.3-3.72,11.35,11.35,0,0,1,4.15,0,10,10,0,0,1,2,.58,17,17,0,0,1,1.85,1,15,15,0,0,1,5.2,6.34,33.72,33.72,0,0,1,2.41,7.84c1,5.38,1.15,10.84,1.55,16.25L345.28,311a62.15,62.15,0,0,1,.1,8.19,28,28,0,0,1-.53,4.07,17,17,0,0,1-1.27,3.93,10,10,0,0,1-5.95,5.55,10.48,10.48,0,0,1-8.08-1.1,14.9,14.9,0,0,1-5.73-5.87,27.71,27.71,0,0,1-2.83-7.71,58.36,58.36,0,0,1-1-16.31,47.84,47.84,0,0,1,3.9-15.86c2.25-5,5.62-9.61,10.35-12.51a21.08,21.08,0,0,1,15.93-2.47,18.7,18.7,0,0,1,7.35,3.66,17.78,17.78,0,0,1,4.94,6.57l-.58.08,1.87-17.29.36.33a30.68,30.68,0,0,0-13.89,6.37,36.6,36.6,0,0,0-9.66,11.92c-4.73,9.21-5.28,20.27-2.31,30.12a42.29,42.29,0,0,0,2.93,7.15,37.29,37.29,0,0,0,4.34,6.37c3.36,3.92,7.53,7.1,11,11a22.88,22.88,0,0,1,6.24,14.2,15.11,15.11,0,0,1-.36,4,12.39,12.39,0,0,1-1.56,3.67,10.13,10.13,0,0,1-6.53,4.37,11.36,11.36,0,0,1-7.77-1.2,15.09,15.09,0,0,1-5.49-5.67,24.24,24.24,0,0,1-2.7-15.31,20.56,20.56,0,0,1,1-3.82,16.35,16.35,0,0,1,1.79-3.54,9.26,9.26,0,0,1,6.45-4.44,7.35,7.35,0,0,1,4,.64,10.58,10.58,0,0,1,3.25,2.35,18.13,18.13,0,0,1,4,6.83c1.67,5,1.89,10.3,3.35,15.22a22.44,22.44,0,0,0,3.45,6.81c1.56,2,3.6,3.76,6.08,4.11a6.57,6.57,0,0,0,3.61-.49,8,8,0,0,0,2.89-2.31,14,14,0,0,0,2.83-6.95,23.05,23.05,0,0,0-.49-7.62,71,71,0,0,0-2.17-7.45l.61.14a53.26,53.26,0,0,0-14.07,30.21c-.72,5.61-.35,11.31-.45,17s-.72,11.56-3.32,16.77a16.57,16.57,0,0,1-5.57,6.58,12.65,12.65,0,0,1-8.37,2,17.81,17.81,0,0,1-8.11-3A22.52,22.52,0,0,1,333,404.3c-3.23-4.85-4.61-10.63-5.07-16.32a75.75,75.75,0,0,1,.9-17.09l.07-.45.43.12a43.09,43.09,0,0,1,20.18,12.89,51.16,51.16,0,0,1,11.39,21.13l.08.29-.26.16A17,17,0,0,1,347.53,407a18.31,18.31,0,0,1-10.87-7.74,23.38,23.38,0,0,1-3.57-12.91A22.87,22.87,0,0,1,337,373.48l.59-.85.17,1,1.7,10.5.06.4-.39.08a14.84,14.84,0,0,1-4.36.17,16.44,16.44,0,0,1-4.18-1.16,21.68,21.68,0,0,1-7-5,27.53,27.53,0,0,1-4.83-7.07,45.86,45.86,0,0,1-3-8,121.91,121.91,0,0,1-3-16.73,22,22,0,0,1,.48-8.58,9.24,9.24,0,0,1,2.18-3.84,7.31,7.31,0,0,1,4-1.91,6.89,6.89,0,0,1,2.26.1,5.22,5.22,0,0,1,2.05,1.06,4.63,4.63,0,0,1,1.29,1.92,5,5,0,0,1,.31,2.26,5.57,5.57,0,0,1-.62,2.19,6.39,6.39,0,0,1-1.32,1.81,6.77,6.77,0,0,1-1.81,1.33,6,6,0,0,1-2.16.67,7.49,7.49,0,0,1-4.32-1,13.85,13.85,0,0,1-3.4-2.72,28.59,28.59,0,0,1-2.69-3.35L307.8,335l-1.13-1.81a62.53,62.53,0,0,1-6.54-15.71,64.92,64.92,0,0,1-2.1-16.88v-1l.74.72a45.15,45.15,0,0,1,8.41,11.43,54.65,54.65,0,0,1,3.58,41.41l-.37,1.1-.44-1.07L292.45,311.1c-2.87-7-5.58-14.22-6.7-21.82a46.19,46.19,0,0,1-.33-11.45,43.53,43.53,0,0,1,2.72-11.14,36.7,36.7,0,0,1,14.06-17.78A25.33,25.33,0,0,1,313,245a24.41,24.41,0,0,1,11.35,1.64c7.22,2.7,13.33,7.46,20.14,10.65a33,33,0,0,0,10.75,3.14A16.83,16.83,0,0,0,365.87,258l.57-.36,0,.67,2.36,42.61,0,.7-.61-.34c-3.94-2.24-8-4.58-11.07-8.09a18,18,0,0,1-3.55-5.94,16,16,0,0,1-1-6.86,11.16,11.16,0,0,1,2.62-6.43,9.19,9.19,0,0,1,6.16-3.2,7.89,7.89,0,0,1,6.36,2.7,10.07,10.07,0,0,1,2.66,6.42l-.59-.28c7.83-6.14,10.56-16.82,18.8-23a14.54,14.54,0,0,1,6.94-3,11.32,11.32,0,0,1,7.38,1.64,18.08,18.08,0,0,1,5.45,5.25,25.85,25.85,0,0,1,3.31,6.78c1.59,4.79,2.14,9.81,2.68,14.75a97.12,97.12,0,0,1,.83,15,37.52,37.52,0,0,1-1.09,7.45,26.21,26.21,0,0,1-3,6.94,17.69,17.69,0,0,1-5.24,5.45,12,12,0,0,1-7.32,1.88,14.36,14.36,0,0,1-7.1-2.61,17.56,17.56,0,0,1-5.14-5.54,28.68,28.68,0,0,1-3.8-14.46,27.5,27.5,0,0,1,.91-7.49,16.24,16.24,0,0,1,3.54-6.68,10.35,10.35,0,0,1,6.75-3.36,7.57,7.57,0,0,1,6.77,3.13,11.72,11.72,0,0,1,2.06,7.27,12.13,12.13,0,0,1-2.55,7.1,13.89,13.89,0,0,1-6.09,4.47,14.68,14.68,0,0,1-7.51.77,15.72,15.72,0,0,1-11.78-8.73,17.36,17.36,0,0,1-.18-14.74l.53.33a97.08,97.08,0,0,0-13.68,23.63,104.62,104.62,0,0,0-6.9,26.44l-.45-.3,42.41-24.95.34-.2.08.39c1.79,8.21,3.56,16.44,4.75,24.77a116.7,116.7,0,0,1,1.18,25.19,71.71,71.71,0,0,1-6,24.44A47.82,47.82,0,0,1,390,388.23l-1,1.21-1.1,1.14a26.58,26.58,0,0,1-2.32,2.18,25.36,25.36,0,0,1-5.34,3.44,16.82,16.82,0,0,1-6.15,1.6,11.37,11.37,0,0,1-6.19-1.46,12.52,12.52,0,0,1-4.47-4.53,18.18,18.18,0,0,1-2.24-5.95,23.32,23.32,0,0,1,1.3-12.51A34.1,34.1,0,0,1,369,362.56a26.92,26.92,0,0,1,10.29-7.28,15.71,15.71,0,0,1,12.45.23,17.94,17.94,0,0,1,8.28,9.36,15.41,15.41,0,0,1-.19,12.43l-.19.38-.22-.37L381,346.4l.42-.14c1,8.1,2,16.35.85,24.53a34.44,34.44,0,0,1-3.61,11.75,25,25,0,0,1-8.11,9.2,15.33,15.33,0,0,1-5.75,2.27,14.73,14.73,0,0,1-3.11.18,15.17,15.17,0,0,1-3.06-.51,22.17,22.17,0,0,1-10.24-6.7,44.87,44.87,0,0,1-6.69-10.32c-.91-1.84-1.75-3.71-2.56-5.59s-1.64-3.76-2.32-5.7a26.2,26.2,0,0,1-1.43-6,10.56,10.56,0,0,1,1-6.08,6.74,6.74,0,0,1,4.88-3.64,9,9,0,0,1,6,1.12,15.39,15.39,0,0,1,4.47,4.26,38.31,38.31,0,0,1,3.13,5.31c1.83,3.67,3.52,7.41,5,11.22A147.41,147.41,0,0,1,370,419.45l-.34-.07L396,359.63l.22-.49.08.52,8.3,48.83-.29,0,12.92-42.75.31-1v1.07l.2,30.31,0,7.58a68.76,68.76,0,0,1-.19,7.59,19.38,19.38,0,0,1-2,7.32,7.27,7.27,0,0,1-2.63,2.79,5.51,5.51,0,0,1-3.77.67,7.33,7.33,0,0,1-3.41-1.75,10.65,10.65,0,0,1-2.35-3,18.61,18.61,0,0,1-1.73-7.4c-.14-2.53,0-5.06.06-7.59a66.21,66.21,0,0,1,.72-7.56c.8-5,2.42-10,5.69-13.95a16.4,16.4,0,0,1,5.95-4.72,10.65,10.65,0,0,1,3.71-1c.32,0,.64-.07,1-.08l1,.06a8.75,8.75,0,0,1,1.9.3,14.86,14.86,0,0,1,6.57,3.79,23.76,23.76,0,0,1,4.51,6.12A28.53,28.53,0,0,1,435.87,400a37.18,37.18,0,0,1-3.7,14.67,32,32,0,0,1-9.51,11.73,29.49,29.49,0,0,1-14,5.71,26.4,26.4,0,0,1-14.88-2.36,22,22,0,0,1-10.54-10.65,21.05,21.05,0,0,1-1.17-14.93l.28.26a25.68,25.68,0,0,0-11.68,9.27,30.54,30.54,0,0,0-5.44,14l-.22-.24,7,0-.21.24a44.06,44.06,0,0,0-3.38-14.34,24.61,24.61,0,0,0-3.92-6.21,18.37,18.37,0,0,0-5.8-4.44,13.51,13.51,0,0,0-7.09-1.39,11.39,11.39,0,0,0-3.5.92,11.63,11.63,0,0,0-3,2.06,14.11,14.11,0,0,0-3.79,6.16,13.79,13.79,0,0,0-.56,3.6,12.46,12.46,0,0,0,.56,3.59l.08.26-.27,0a16,16,0,0,1-11.58-3.4,19.45,19.45,0,0,1-6.84-10l-.42-1.45.84,1.25a119.19,119.19,0,0,0,7.48,10.34,35,35,0,0,0,9.54,8.29,18.83,18.83,0,0,0,12.13,2.53c4.17-.7,7.82-3.24,10.66-6.34a48.13,48.13,0,0,0,7-10.56c1.94-3.78,3.67-7.69,5.66-11.48A43,43,0,0,1,383,386.54a19.61,19.61,0,0,1,11.38-5.7,12.26,12.26,0,0,1,6.38.94,13.33,13.33,0,0,1,5,4.1c2.63,3.46,4.12,7.53,6.13,11.26a21.48,21.48,0,0,0,3.6,5.17,10.94,10.94,0,0,0,5.35,3,12.43,12.43,0,0,0,6.2-.29,24.91,24.91,0,0,0,5.78-2.52,67.15,67.15,0,0,0,10.1-7.74c3.18-2.82,6.23-5.8,9.14-8.9a143.17,143.17,0,0,0,15.67-20.13l.37-.57.14.66a137.86,137.86,0,0,1,2.68,15.8,44.88,44.88,0,0,1-1.07,16A25.22,25.22,0,0,1,461,410.88a14.75,14.75,0,0,1-7.46,3.05,12.34,12.34,0,0,1-7.81-1.89,18,18,0,0,1-5.61-5.8,24.86,24.86,0,0,1-3.07-7.46,45.17,45.17,0,0,1-.45-16,41.74,41.74,0,0,1,1.65-7.87,18.25,18.25,0,0,1,4-7,9.56,9.56,0,0,1,7.4-3.05,8.08,8.08,0,0,1,3.94,1.17,7,7,0,0,1,2.71,3.11l1,2.34-1.57-2L446,357l.56-.11-10,35.89a49.07,49.07,0,0,1-3.09,8.84,16.42,16.42,0,0,1-2.67,3.91,9.78,9.78,0,0,1-4,2.57,9.2,9.2,0,0,1-4.77.22,12.92,12.92,0,0,1-4.39-1.81,17.47,17.47,0,0,1-6.19-7,38,38,0,0,1-3.06-8.86c-.7-3-1.21-6.11-1.7-9.18a78.45,78.45,0,0,1-.91-9.31,40.77,40.77,0,0,1,.69-9.35,18.8,18.8,0,0,1,3.88-8.54,12.26,12.26,0,0,1,1.7-1.68c.31-.25.6-.52.93-.75l1-.62a11.57,11.57,0,0,1,4.6-1.29,14,14,0,0,1,13.86,10.95l-.69-.06a15.16,15.16,0,0,0-7.29-18.65,13.85,13.85,0,0,0-10.67.11,18.81,18.81,0,0,0-8.42,6.88,28.71,28.71,0,0,0-4.25,10.19,40.38,40.38,0,0,0-.76,11.08c.48,7.45,2.7,14.67,5.33,21.67l.38,1-.94-.55a22.31,22.31,0,0,1-4.32-3.35,25.81,25.81,0,0,1-3.35-4.31,29.85,29.85,0,0,1-2.34-4.91,28.31,28.31,0,0,1-1.31-5.28,25,25,0,0,1,.72-10.81,24.68,24.68,0,0,1,5.27-9.47,21.64,21.64,0,0,1,4.08-3.62,18.93,18.93,0,0,1,4.86-2.49A17.59,17.59,0,0,1,419.6,348a23,23,0,0,1,15,14.82h-.79a157,157,0,0,0,5.58-28.08c.49-4.75.79-9.52.86-14.3,0-1.2,0-2.39,0-3.57a34.72,34.72,0,0,0-.3-3.54,19.87,19.87,0,0,0-2-6.68,8.33,8.33,0,0,0-2.19-2.59,5.56,5.56,0,0,0-3.08-1.14c-2.26-.1-4.35,1.23-6.05,2.8a44.47,44.47,0,0,0-4.65,5.37l-4.45,5.65L399.69,339.3l-.28.35-.35-.27a35.36,35.36,0,0,1-10.79-14.63,39.7,39.7,0,0,1-2.84-18,38.62,38.62,0,0,1,5.68-17.27,33.08,33.08,0,0,1,13.29-12.38l1.32-.65-.72,1.28-25.76,45.36a39.64,39.64,0,0,0-2.69,5.85,19.12,19.12,0,0,0-1.24,6.21,9,9,0,0,0,1.82,5.8,6.65,6.65,0,0,0,5.37,2.44,10.17,10.17,0,0,0,5.77-2.07,14.1,14.1,0,0,0,3.91-4.89c1.95-3.8,2.79-8.09,3.63-12.34l.34-1.75.54,1.7c1.39,4.37,2.77,8.76,3.77,13.26a52.19,52.19,0,0,1,1.39,13.77,32.37,32.37,0,0,1-3.43,13.41,21.35,21.35,0,0,1-4.17,5.61,15.75,15.75,0,0,1-6,3.62,18.69,18.69,0,0,1-13.72-1.07,23.19,23.19,0,0,1-10.2-9.3A33.77,33.77,0,0,1,360,350.22a47.29,47.29,0,0,1-.28-6.94,51.49,51.49,0,0,1,.76-6.89c1.68-9.15,6-17.55,11.32-25.05,2.66-3.76,5.54-7.35,8.55-10.82a66.45,66.45,0,0,1,4.79-5,47.13,47.13,0,0,1,5.36-4.4c.94-.69,1.95-1.27,2.94-1.87a27.69,27.69,0,0,1,3.16-1.5,18.9,18.9,0,0,1,6.86-1.42,15.94,15.94,0,0,1,12.2,6.23,27.37,27.37,0,0,1,3.56,6,46.67,46.67,0,0,1,2.24,6.57,97,97,0,0,1,2.37,13.6l-.87-.17A84.61,84.61,0,0,0,432,292a55.46,55.46,0,0,0,.86-14,28.27,28.27,0,0,0-1.43-6.82,14.65,14.65,0,0,0-3.56-5.79,8.23,8.23,0,0,0-6.13-2.24,9.63,9.63,0,0,0-5.9,3,19.35,19.35,0,0,0-3.89,5.7,25.67,25.67,0,0,0-2,6.64c-.69,4.61-.44,9.36-.4,14.09s0,9.58-1.46,14.21l-.54-.6,13-2.72-.23.8a102.75,102.75,0,0,1-8.21-8.6,35.52,35.52,0,0,1-6.1-10.24,22.55,22.55,0,0,1-1.19-11.87,21.67,21.67,0,0,1,1.77-5.77,14.41,14.41,0,0,1,3.65-4.85,10.2,10.2,0,0,1,5.61-2.4,11,11,0,0,1,6,1.16c3.67,1.87,6.34,5.07,8.48,8.41a40.82,40.82,0,0,1,4.66,11A21.09,21.09,0,0,1,435,293a12.83,12.83,0,0,1-3.32,5.1,8.47,8.47,0,0,1-5.63,2.42,7.14,7.14,0,0,1-5.45-2.8,12.17,12.17,0,0,1-2.39-5.6,13.93,13.93,0,0,1,.31-6.06,19.67,19.67,0,0,1,2.47-5.51,31.44,31.44,0,0,1,3.73-4.7,41.25,41.25,0,0,1,4.4-4,22,22,0,0,1,10.86-5,14.06,14.06,0,0,1,11.25,3.77,12.67,12.67,0,0,1,3.25,5.15,12.1,12.1,0,0,1,.26,6.09,12.46,12.46,0,0,1-2.63,5.49,8.91,8.91,0,0,1-2.42,2,7,7,0,0,1-3.05.79l-.34,0-.12-.33a43.75,43.75,0,0,1-2.4-9.05,19.48,19.48,0,0,1,.78-9.39,12.12,12.12,0,0,1,6.2-7.08,7.35,7.35,0,0,1,4.85-.27,8.7,8.7,0,0,1,4.06,2.62,18.66,18.66,0,0,1,4.1,8.48,31.79,31.79,0,0,1,.52,9.37c-.19,3.1-.51,6.17-.56,9.24a26.4,26.4,0,0,0,1.19,9l-.88.37a44.86,44.86,0,0,1-4.49-17.1,46.12,46.12,0,0,1,2.21-17.53,41.45,41.45,0,0,1,9-15.18,36,36,0,0,1,14.79-9.65l.44-.14.16.43a43.59,43.59,0,0,1,.42,29.1l-.58,1.67-.35-1.73a84.28,84.28,0,0,1-.72-29.5,81.13,81.13,0,0,1,9.52-27.92l1-1.75-.08,2-.91,22.33-.95-.17,12.87-40.24.51-1.62.43,1.65a80.14,80.14,0,0,1-1,42.11,79,79,0,0,1-8.61,19.42,65.51,65.51,0,0,1-13.9,16.07l-.06.05-.07,0a10.36,10.36,0,0,1-3.74.67,11.36,11.36,0,0,1-3.69-.77,13.17,13.17,0,0,1-5.81-4.61,12.76,12.76,0,0,1-2.41-7,14.13,14.13,0,0,1,1.76-7.2,13.86,13.86,0,0,1,5.17-5.33,9.78,9.78,0,0,1,7.35-1,17.21,17.21,0,0,1,6.52,3.48,37.37,37.37,0,0,1,5.2,5.17,46.56,46.56,0,0,1,10.32,26.88,35.38,35.38,0,0,1-1.82,14.46,27.76,27.76,0,0,1-3.39,6.53,17.05,17.05,0,0,1-5.38,5.07,13.43,13.43,0,0,1-1.72.8c-.59.21-1.22.33-1.83.49s-1.27.14-1.9.12a15,15,0,0,1-1.89-.22,10.82,10.82,0,0,1-6.18-4.12,13.13,13.13,0,0,1-2.71-6.91,11,11,0,0,1,1.87-7.19,10.66,10.66,0,0,1,6.09-4.29,7.84,7.84,0,0,1,3.82,0,8.43,8.43,0,0,1,3.35,1.82,15.3,15.3,0,0,1,4,6.24,46.65,46.65,0,0,1,1.9,7.06c.94,4.74,1.88,9.49,2.45,14.31a60.11,60.11,0,0,1,.18,14.56,34.72,34.72,0,0,1-4.66,13.82,24.23,24.23,0,0,1-4.68,5.67,17.59,17.59,0,0,1-6.41,3.66l-.24.07-.19-.15a6.82,6.82,0,0,1-2.28-3.42,9.76,9.76,0,0,1-.37-4,9.89,9.89,0,0,1,1.24-3.86,6.45,6.45,0,0,1,3.07-2.76l.46-.19.16.48A84,84,0,0,1,488,394a44.33,44.33,0,0,1-5.35,11.64,23.25,23.25,0,0,1-9.58,8.48,17,17,0,0,1-6.31,1.57,13.78,13.78,0,0,1-6.38-1.29,18.67,18.67,0,0,1-8.61-9.43,25.83,25.83,0,0,1-2.1-12.63,34.67,34.67,0,0,1,3.48-12.33,40.69,40.69,0,0,1,7.33-10.51,23.15,23.15,0,0,1,11.05-6.45,11.72,11.72,0,0,1,6.5.4,11.28,11.28,0,0,1,5.12,4,17,17,0,0,1,2.67,5.91,28.18,28.18,0,0,1,.81,6.39c.13,4.31-.7,8.53-1.34,12.71a47.77,47.77,0,0,0-.76,12.55l.38,3.62-1.18-3.44a114.91,114.91,0,0,1-4.22-16,116.91,116.91,0,0,1-1.84-16.47c-.1-2.76-.13-5.53,0-8.29a66,66,0,0,1,.68-8.29,14.22,14.22,0,0,1,3.39-7.66,8.21,8.21,0,0,1,3.71-2.17,5.4,5.4,0,0,1,4.27.65l-.59.25a80.36,80.36,0,0,1,7.83-22.84,73,73,0,0,1,14.49-19.31l.48-.45.14.64,8.87,39.49.24,1.06-.83-.71a30.2,30.2,0,0,1-7.43-9.83,38.51,38.51,0,0,1-3.48-11.82,39.48,39.48,0,0,1,.29-12.32A32.79,32.79,0,0,1,514,299.64l.59.36a9.05,9.05,0,0,1-3.68,3.5,10.46,10.46,0,0,1-4.94,1.12,13.48,13.48,0,0,1-9.15-3.8,27.27,27.27,0,0,1-5.61-8.23,87.76,87.76,0,0,1-3.56-9.28l.65-.2a82.36,82.36,0,0,1,2.59,29.77,79.71,79.71,0,0,1-8.2,28.72,71.11,71.11,0,0,1-18.81,23.14,61.79,61.79,0,0,1-12.73,7.93,58.25,58.25,0,0,1-7,2.72,32.83,32.83,0,0,1-7.35,1.62,19.12,19.12,0,0,1-7.52-.62,12.42,12.42,0,0,1-3.45-1.64,11.09,11.09,0,0,1-2.77-2.61,14.46,14.46,0,0,1-2.87-7,23.84,23.84,0,0,1,.21-7.54,46.2,46.2,0,0,1,5.23-14,117.44,117.44,0,0,1,7.94-12.71,114.77,114.77,0,0,1,9.5-11.59,71.79,71.79,0,0,1,11.16-10,22,22,0,0,1,6.83-3.17,14.19,14.19,0,0,1,3.78-.42,10.38,10.38,0,0,1,3.73.79,12.92,12.92,0,0,1,5.88,4.7,11.83,11.83,0,0,1,1.59,3.46,11.12,11.12,0,0,1,.26,3.81l-.53-.05L479,273.84l.4.21a51.5,51.5,0,0,0-13.32,16.23,58,58,0,0,0-6.33,20.07l-.17,1.41-.3-1.38-3.79-17.6.35.15-33,20.3-8.27,5.08c-2.75,1.69-5.49,3.4-8.36,4.92a38.09,38.09,0,0,1-9,3.57,21.43,21.43,0,0,1-4.86.55,17.51,17.51,0,0,1-4.82-.76c-12.8-4.64-16.57-20.35-29.22-24.66a24.74,24.74,0,0,0-9.55-.51,76.22,76.22,0,0,1-9.68.74,17.1,17.1,0,0,1-9.16-3.06,11.8,11.8,0,0,1-3.32-3.57,10.13,10.13,0,0,1-1.4-4.67l.29.05a73.47,73.47,0,0,0-4,37.29,75.32,75.32,0,0,0,5,18.24,64.19,64.19,0,0,0,9.71,16.22h0a8.52,8.52,0,0,1,2.19,4.35,10.3,10.3,0,0,1-.22,4.87,7.49,7.49,0,0,1-2.76,4,7.15,7.15,0,0,1-4.65,1.35,6.93,6.93,0,0,1-4.42-1.95,8.87,8.87,0,0,1-2.32-4.28,14.68,14.68,0,0,1,1.12-9.56,24.67,24.67,0,0,1,6.12-7.54c2.46-2.13,5-4.11,7.56-6.16l15.21-12.21.21-.17-.11.25-11.93,26.69-.09,0,11.9-26.7.1.08-15.19,12.22c-2.52,2.05-5.1,4-7.55,6.16a24.56,24.56,0,0,0-6.07,7.5,14.52,14.52,0,0,0-1.1,9.44,8.8,8.8,0,0,0,2.27,4.18,6.68,6.68,0,0,0,4.3,1.89,7,7,0,0,0,4.53-1.31,7.38,7.38,0,0,0,2.67-3.89A10.26,10.26,0,0,0,338,367a8.3,8.3,0,0,0-2.14-4.23h0a64.78,64.78,0,0,1-9.76-16.26,75.66,75.66,0,0,1-5-18.3,73.73,73.73,0,0,1,4-37.44l.25-.65,0,.7a10,10,0,0,0,1.36,4.52,11.45,11.45,0,0,0,3.25,3.47,16.68,16.68,0,0,0,9,3,74.35,74.35,0,0,0,9.63-.75,25.12,25.12,0,0,1,9.69.52,20.88,20.88,0,0,1,8.24,5.09,76.36,76.36,0,0,1,6.5,7.21,81.9,81.9,0,0,0,6.45,7.21,21.12,21.12,0,0,0,8.05,5.1,17,17,0,0,0,4.71.75,21.26,21.26,0,0,0,4.76-.55,38.83,38.83,0,0,0,8.94-3.54c2.84-1.52,5.58-3.23,8.33-4.93l8.26-5.08,33-20.33.28-.17.07.32,3.8,17.59-.47,0a58.27,58.27,0,0,1,6.37-20.25,51.93,51.93,0,0,1,13.44-16.39l.45-.36,0,.57-3.13,44.56-.53-.05a10.77,10.77,0,0,0-.24-3.62,11.45,11.45,0,0,0-1.52-3.29,12.33,12.33,0,0,0-5.64-4.5,11.45,11.45,0,0,0-7.18-.35,21.44,21.44,0,0,0-6.66,3.11,71.26,71.26,0,0,0-11.05,9.94,112.37,112.37,0,0,0-9.45,11.54,116.31,116.31,0,0,0-7.9,12.65A45.38,45.38,0,0,0,421,357.73a23.26,23.26,0,0,0-.21,7.35,14,14,0,0,0,2.75,6.7,11,11,0,0,0,2.65,2.48,11.92,11.92,0,0,0,3.28,1.56,18.83,18.83,0,0,0,7.29.59,32.82,32.82,0,0,0,7.23-1.6,55.39,55.39,0,0,0,6.92-2.7,61.57,61.57,0,0,0,12.61-7.85,70.6,70.6,0,0,0,18.63-22.95,79,79,0,0,0,8.1-28.49,81.64,81.64,0,0,0-2.58-29.52l.64-.2a89.52,89.52,0,0,0,3.53,9.2,26.55,26.55,0,0,0,5.47,8,12.82,12.82,0,0,0,8.69,3.61,9.93,9.93,0,0,0,4.61-1.05,8.39,8.39,0,0,0,3.4-3.23l.6.36a32,32,0,0,0-4.29,11.27,39.29,39.29,0,0,0-.28,12.1,37.94,37.94,0,0,0,3.43,11.6,29.44,29.44,0,0,0,7.25,9.59l-.59.36-8.89-39.49.62.2a72.07,72.07,0,0,0-14.32,19.11,80,80,0,0,0-7.75,22.63l-.1.58-.49-.32a4.6,4.6,0,0,0-3.66-.54,7.22,7.22,0,0,0-3.34,2A13.5,13.5,0,0,0,479,356.3a65.37,65.37,0,0,0-.65,8.18c-.11,2.74-.07,5.49,0,8.24a115.24,115.24,0,0,0,1.84,16.35,111.89,111.89,0,0,0,4.2,15.91l-.8.18c-.93-8.66,2.28-16.94,2.09-25.33a26.88,26.88,0,0,0-.8-6.2,16,16,0,0,0-2.52-5.62,10.48,10.48,0,0,0-4.75-3.73,10.85,10.85,0,0,0-6-.36A22.22,22.22,0,0,0,461,370.15a39.73,39.73,0,0,0-7.15,10.28,33.78,33.78,0,0,0-3.39,12,24.78,24.78,0,0,0,2,12.2,17.78,17.78,0,0,0,8.18,9,13,13,0,0,0,6,1.2,16.16,16.16,0,0,0,6-1.49,22.35,22.35,0,0,0,9.2-8.18,43,43,0,0,0,5.23-11.4,83.11,83.11,0,0,0-.66-49.82l.62.28a5.43,5.43,0,0,0-2.6,2.37,9.21,9.21,0,0,0-.79,7.14,6,6,0,0,0,2,3l-.43-.08c4.52-1.38,8.12-4.89,10.56-8.92a33.85,33.85,0,0,0,4.51-13.43,59.76,59.76,0,0,0-.19-14.33c-.57-4.77-1.5-9.5-2.44-14.23a45.69,45.69,0,0,0-1.87-6.91A14.44,14.44,0,0,0,492,293a7.5,7.5,0,0,0-3-1.61,7,7,0,0,0-3.34,0,9.64,9.64,0,0,0-5.49,3.88,9.92,9.92,0,0,0-1.7,6.54,12.08,12.08,0,0,0,2.5,6.39,9.91,9.91,0,0,0,5.6,3.76c.56.13,1.14.12,1.71.2s1.14-.08,1.71-.11,1.11-.26,1.65-.45a13.14,13.14,0,0,0,1.57-.73,16.1,16.1,0,0,0,5.06-4.77,26.9,26.9,0,0,0,3.26-6.3,34.31,34.31,0,0,0,1.77-14.06,45.57,45.57,0,0,0-10.1-26.31,36.37,36.37,0,0,0-5.05-5,16.29,16.29,0,0,0-6.14-3.29,8.77,8.77,0,0,0-6.62.95,12.85,12.85,0,0,0-4.79,4.94,13.09,13.09,0,0,0-1.64,6.69,11.73,11.73,0,0,0,2.22,6.47,12.21,12.21,0,0,0,5.37,4.27,10.5,10.5,0,0,0,3.36.7,9.3,9.3,0,0,0,3.34-.59l-.13.07a64.36,64.36,0,0,0,13.69-15.82,77.83,77.83,0,0,0,8.5-19.18,79.09,79.09,0,0,0,1-41.58l.94,0-12.87,40.24-1.1,3.44.14-3.61.91-22.33.91.26a80.09,80.09,0,0,0-9.41,27.58,83.54,83.54,0,0,0,.71,29.16l-.94-.06a42.55,42.55,0,0,0-.4-28.43l.6.28a35.08,35.08,0,0,0-14.38,9.39,40.62,40.62,0,0,0-8.82,14.83,45.16,45.16,0,0,0-2.17,17.16,44,44,0,0,0,4.39,16.73L464,303a27.36,27.36,0,0,1-1.24-9.32c.05-3.12.38-6.21.56-9.28a30.36,30.36,0,0,0-.5-9.09,17.77,17.77,0,0,0-3.86-8.05,7.92,7.92,0,0,0-3.62-2.35,6.47,6.47,0,0,0-4.23.24,11.23,11.23,0,0,0-5.67,6.53,18.55,18.55,0,0,0-.72,8.92,43,43,0,0,0,2.35,8.85l-.45-.31a6.33,6.33,0,0,0,2.62-.68,8,8,0,0,0,2.13-1.76,11.52,11.52,0,0,0,2.43-5.06,11.18,11.18,0,0,0-.23-5.6,11.9,11.9,0,0,0-3-4.75,13.1,13.1,0,0,0-10.48-3.51,20.88,20.88,0,0,0-10.38,4.75,36.73,36.73,0,0,0-7.91,8.51,15.5,15.5,0,0,0-2.66,10.9,11.3,11.3,0,0,0,2.2,5.16,6.19,6.19,0,0,0,4.71,2.45,7.5,7.5,0,0,0,5-2.17,11.78,11.78,0,0,0,1.82-2.16,13.1,13.1,0,0,0,1.25-2.55,20.11,20.11,0,0,0-.09-11.4,39.76,39.76,0,0,0-4.54-10.72c-2.07-3.25-4.69-6.32-8.1-8.06a9.94,9.94,0,0,0-5.47-1.07,9.23,9.23,0,0,0-5.1,2.19c-2.92,2.46-4.47,6.27-5.1,10a21.59,21.59,0,0,0,1.14,11.39,35,35,0,0,0,5.95,10,100.32,100.32,0,0,0,8.13,8.51l.64.61-.87.19-13,2.72-.78.17.23-.76c1.37-4.47,1.48-9.22,1.42-13.93s-.3-9.48.41-14.25a26.83,26.83,0,0,1,2.12-6.89,20.38,20.38,0,0,1,4.08-6,10.59,10.59,0,0,1,6.49-3.26,9.17,9.17,0,0,1,6.83,2.48,15.41,15.41,0,0,1,3.81,6.17,29.42,29.42,0,0,1,1.48,7.05,39.93,39.93,0,0,1,0,7.17c-.19,2.37-.5,4.73-.88,7.08a85.82,85.82,0,0,1-9.2,26.89l-.7,1.29-.17-1.46a96.77,96.77,0,0,0-2.34-13.47,46.5,46.5,0,0,0-2.19-6.44,26.55,26.55,0,0,0-3.43-5.79,15,15,0,0,0-11.48-5.88,18.1,18.1,0,0,0-6.52,1.35,27.4,27.4,0,0,0-3.05,1.45c-1,.59-1.94,1.15-2.86,1.82a44.13,44.13,0,0,0-5.25,4.32,64.56,64.56,0,0,0-4.73,4.92c-3,3.45-5.86,7-8.5,10.75-5.24,7.43-9.52,15.72-11.16,24.69a49.4,49.4,0,0,0-.75,6.76,46.63,46.63,0,0,0,.28,6.79,32.8,32.8,0,0,0,4.21,12.79,22.26,22.26,0,0,0,9.8,8.94,17.78,17.78,0,0,0,13,1,15,15,0,0,0,5.67-3.41,20.68,20.68,0,0,0,4-5.38,31.59,31.59,0,0,0,3.33-13,51.4,51.4,0,0,0-1.37-13.52c-1-4.45-2.36-8.82-3.75-13.18l.88-.06c-.83,4.26-1.68,8.62-3.71,12.59a14.83,14.83,0,0,1-4.18,5.2,11,11,0,0,1-6.3,2.25,7.57,7.57,0,0,1-6.09-2.78,9.84,9.84,0,0,1-2-6.38,19.75,19.75,0,0,1,1.3-6.51,39,39,0,0,1,2.74-6l25.77-45.37.59.63a32.27,32.27,0,0,0-12.92,12,37.81,37.81,0,0,0-5.56,16.87,38.92,38.92,0,0,0,2.79,17.56,34.42,34.42,0,0,0,10.5,14.27l-.62.07,17.8-22.56,4.45-5.64a45.5,45.5,0,0,1,4.75-5.48,13.87,13.87,0,0,1,3-2.16,7.47,7.47,0,0,1,3.67-.86,6.49,6.49,0,0,1,3.56,1.31,9.35,9.35,0,0,1,2.42,2.86,20.67,20.67,0,0,1,2.12,7,34.18,34.18,0,0,1,.31,3.63c0,1.21,0,2.41,0,3.61-.07,4.8-.38,9.6-.87,14.38A158.64,158.64,0,0,1,434.59,363l-.37,1.27-.41-1.25a22.19,22.19,0,0,0-14.43-14.3,16.84,16.84,0,0,0-10.32.27,18.25,18.25,0,0,0-4.67,2.39,21.47,21.47,0,0,0-3.94,3.49,23.16,23.16,0,0,0-3.06,4.3,22.78,22.78,0,0,0-2.05,4.86,24.21,24.21,0,0,0-.7,10.47,28.29,28.29,0,0,0,1.27,5.13,29,29,0,0,0,2.27,4.78,24.59,24.59,0,0,0,3.24,4.16,21.55,21.55,0,0,0,4.14,3.23l-.55.47c-2.63-7-4.87-14.32-5.36-21.89a40.77,40.77,0,0,1,.79-11.29,29.15,29.15,0,0,1,4.36-10.45,19.63,19.63,0,0,1,8.76-7.15,14.56,14.56,0,0,1,11.24-.09,15.88,15.88,0,0,1,7.67,19.6l-.42,1-.27-1.06a13.8,13.8,0,0,0-1.71-4.17,14,14,0,0,0-3-3.36,14.26,14.26,0,0,0-3.95-2.18,12.67,12.67,0,0,0-4.44-.67,10.71,10.71,0,0,0-4.3,1.19l-1,.59c-.31.21-.59.47-.88.71a10.59,10.59,0,0,0-1.62,1.59,18,18,0,0,0-3.73,8.22c-1.21,6-.68,12.31.21,18.41.49,3.06,1,6.13,1.69,9.13a37.24,37.24,0,0,0,3,8.71,16.73,16.73,0,0,0,5.94,6.78c2.53,1.61,5.72,2.48,8.59,1.52a9.16,9.16,0,0,0,3.75-2.39,15.65,15.65,0,0,0,2.56-3.75,48.38,48.38,0,0,0,3-8.72l10-35.88.17-.61.39.5L456.24,369l-.53.32a6.43,6.43,0,0,0-2.47-2.84,7.58,7.58,0,0,0-3.64-1.08,9,9,0,0,0-6.93,2.86,17.67,17.67,0,0,0-3.82,6.8,41.66,41.66,0,0,0-1.63,7.76,44.59,44.59,0,0,0,.43,15.8,24,24,0,0,0,3,7.28,17.41,17.41,0,0,0,5.42,5.61,11.8,11.8,0,0,0,7.44,1.81,14.13,14.13,0,0,0,7.17-2.93,24.57,24.57,0,0,0,8.62-12.92,44.08,44.08,0,0,0,1.07-15.78A136,136,0,0,0,467.68,366l.51.09a145.61,145.61,0,0,1-15.74,20.2c-2.92,3.11-6,6.1-9.19,8.93a67.16,67.16,0,0,1-10.18,7.8,25.45,25.45,0,0,1-5.91,2.57,13.06,13.06,0,0,1-6.45.29,11.44,11.44,0,0,1-5.61-3.18,22.4,22.4,0,0,1-3.7-5.29c-2-3.77-3.5-7.83-6.07-11.19a12.86,12.86,0,0,0-4.78-3.95,11.77,11.77,0,0,0-6.12-.9,19.13,19.13,0,0,0-11.08,5.55,42.89,42.89,0,0,0-7.24,10.4c-2,3.76-3.7,7.67-5.66,11.47a48.5,48.5,0,0,1-7.12,10.66c-2.89,3.15-6.62,5.77-10.94,6.49A19.32,19.32,0,0,1,340,423.33a35.48,35.48,0,0,1-9.66-8.4,120.49,120.49,0,0,1-7.51-10.38l.42-.2a19,19,0,0,0,6.67,9.79,15.57,15.57,0,0,0,11.24,3.31l-.19.3a12.79,12.79,0,0,1-.58-3.73,14.29,14.29,0,0,1,.58-3.73,14.7,14.7,0,0,1,3.91-6.36,12.18,12.18,0,0,1,3.12-2.14,11.87,11.87,0,0,1,3.65-1,14,14,0,0,1,7.33,1.44,18.7,18.7,0,0,1,5.93,4.54,24.6,24.6,0,0,1,4,6.33,44.19,44.19,0,0,1,3.41,14.48l0,.24H372l-7,0h-.24l0-.24a31,31,0,0,1,5.52-14.16A26.11,26.11,0,0,1,382.24,404l.41-.15-.13.41a20.68,20.68,0,0,0,1.13,14.63A21.67,21.67,0,0,0,394,429.36a26,26,0,0,0,14.65,2.33,29.08,29.08,0,0,0,13.77-5.63,31.68,31.68,0,0,0,9.4-11.58A36.78,36.78,0,0,0,435.49,400a28.06,28.06,0,0,0-3.13-14.54,23.31,23.31,0,0,0-4.43-6,14.36,14.36,0,0,0-6.4-3.69,8.22,8.22,0,0,0-1.84-.3l-.93-.05c-.31,0-.62.05-.92.07a10.25,10.25,0,0,0-3.6.93,16.08,16.08,0,0,0-5.81,4.61c-3.22,3.89-4.82,8.84-5.62,13.78a67.39,67.39,0,0,0-.73,7.52c-.1,2.52-.19,5-.06,7.55a18.26,18.26,0,0,0,1.7,7.26,8.45,8.45,0,0,0,5.51,4.59,5.08,5.08,0,0,0,3.53-.63,6.83,6.83,0,0,0,2.49-2.65,18.77,18.77,0,0,0,2-7.19,67.79,67.79,0,0,0,.19-7.55l-.05-7.58-.19-30.31.32.05-12.94,42.75-.19.63-.11-.65L396,359.72l.3,0L370,419.53l-.3.69,0-.76a146.85,146.85,0,0,0-10.13-47.77q-2.28-5.7-5-11.18a38.41,38.41,0,0,0-3.1-5.26,15,15,0,0,0-4.36-4.15,8.6,8.6,0,0,0-5.78-1.08,6.38,6.38,0,0,0-4.6,3.44,10.18,10.18,0,0,0-.92,5.87,25.32,25.32,0,0,0,1.41,5.91c.67,1.92,1.51,3.79,2.31,5.67s1.65,3.74,2.55,5.57a44.08,44.08,0,0,0,6.64,10.22,21.72,21.72,0,0,0,10,6.58,14.1,14.1,0,0,0,11.58-1.9,24.52,24.52,0,0,0,8-9,34.36,34.36,0,0,0,3.56-11.61c1.1-8.1.11-16.31-.87-24.42l-.12-1.05.54.91,18.49,30.9-.41,0a14.93,14.93,0,0,0,.17-12,17.5,17.5,0,0,0-8.06-9.11,15.22,15.22,0,0,0-12.06-.2,26.33,26.33,0,0,0-10.09,7.15A33.79,33.79,0,0,0,363,373.52a22.91,22.91,0,0,0-1.27,12.25,17.82,17.82,0,0,0,2.17,5.78,12.17,12.17,0,0,0,4.3,4.34,10.94,10.94,0,0,0,5.9,1.4,16.55,16.55,0,0,0,6-1.56,24.88,24.88,0,0,0,5.23-3.38,25.44,25.44,0,0,0,2.27-2.14l1.09-1.12,1-1.2a47.45,47.45,0,0,0,6.63-10.59,71.55,71.55,0,0,0,6-24.26A115.66,115.66,0,0,0,401,328c-1.19-8.31-3-16.52-4.76-24.73l.43.19-42.4,25-.52.31.08-.61a105.46,105.46,0,0,1,6.92-26.59,97.88,97.88,0,0,1,13.76-23.79l1.73-2.2-1.21,2.53a16.74,16.74,0,0,0,.19,14.19,15.07,15.07,0,0,0,11.3,8.38,14.08,14.08,0,0,0,7.19-.74,13.28,13.28,0,0,0,5.81-4.26,11.51,11.51,0,0,0,2.41-6.74A11,11,0,0,0,400,282a6.89,6.89,0,0,0-6.2-2.86,9.69,9.69,0,0,0-6.31,3.15,15.73,15.73,0,0,0-3.38,6.41,26.79,26.79,0,0,0-.88,7.3,28,28,0,0,0,3.7,14.12,17.2,17.2,0,0,0,4.95,5.34,13.64,13.64,0,0,0,6.77,2.48,11.31,11.31,0,0,0,6.9-1.77,16.78,16.78,0,0,0,5-5.25,25.06,25.06,0,0,0,2.91-6.74,36.11,36.11,0,0,0,1.06-7.32,96.13,96.13,0,0,0-.83-14.85c-.54-4.94-1.09-9.91-2.65-14.6a25,25,0,0,0-3.22-6.6,17.48,17.48,0,0,0-5.24-5,10.51,10.51,0,0,0-6.92-1.55,13.91,13.91,0,0,0-6.6,2.89c-8,6-10.71,16.65-18.78,23.05l-.57.45,0-.73a9.32,9.32,0,0,0-2.46-5.94,7.16,7.16,0,0,0-5.77-2.46,8.45,8.45,0,0,0-5.65,2.95,10.5,10.5,0,0,0-2.44,6,15.36,15.36,0,0,0,1,6.54,17.56,17.56,0,0,0,3.41,5.71c3,3.38,6.95,5.68,10.89,7.91l-.57.36-2.38-42.62.6.31a17.72,17.72,0,0,1-11.16,2.52,34.05,34.05,0,0,1-11-3.21c-6.93-3.25-13-8-20.09-10.62a23.63,23.63,0,0,0-11-1.59,24.6,24.6,0,0,0-10.43,3.83A35.87,35.87,0,0,0,288.91,267a42.09,42.09,0,0,0-2.66,10.93,44.62,44.62,0,0,0,.33,11.25c1.1,7.47,3.78,14.62,6.65,21.62l17.53,42.06-.81,0a53.77,53.77,0,0,0-3.55-40.73A43.77,43.77,0,0,0,298.16,301l.76-.32a62.41,62.41,0,0,0,8.52,32.12l1.11,1.79,1.18,1.74a26.45,26.45,0,0,0,2.6,3.25,13.4,13.4,0,0,0,3.18,2.56,8,8,0,0,0,1.86.74,5,5,0,0,0,1.94.17,6,6,0,0,0,5.13-5.19,4.2,4.2,0,0,0-1.3-3.45,4.14,4.14,0,0,0-1.68-.86,5.74,5.74,0,0,0-1.94-.09,6.35,6.35,0,0,0-3.51,1.68,8.17,8.17,0,0,0-1.95,3.46,21,21,0,0,0-.45,8.23,119.05,119.05,0,0,0,2.95,16.59c1.51,5.37,3.75,10.68,7.61,14.72a21,21,0,0,0,6.71,4.78,15.23,15.23,0,0,0,4,1.09,13.23,13.23,0,0,0,4.07-.15l-.33.48-1.69-10.5.76.17a22,22,0,0,0-3.73,12.36,22.56,22.56,0,0,0,3.44,12.46,17.48,17.48,0,0,0,10.37,7.4,16.26,16.26,0,0,0,12.54-1.84l-.18.45a50.26,50.26,0,0,0-11.2-20.8,42.2,42.2,0,0,0-19.79-12.66l.5-.32a74.35,74.35,0,0,0-.9,16.91c.44,5.6,1.81,11.27,4.92,15.94a21.86,21.86,0,0,0,5.91,5.87,17,17,0,0,0,7.75,2.85,11.93,11.93,0,0,0,7.87-1.92,15.65,15.65,0,0,0,5.32-6.29c2.52-5,3.18-10.79,3.25-16.43s-.27-11.39.46-17.09a54,54,0,0,1,14.29-30.63l.42-.43.19.57a71.39,71.39,0,0,1,2.18,7.53,23.88,23.88,0,0,1,.5,7.87,14.74,14.74,0,0,1-3,7.31,8.7,8.7,0,0,1-3.16,2.5,7.22,7.22,0,0,1-4,.55,8.36,8.36,0,0,1-3.71-1.58,15.06,15.06,0,0,1-2.83-2.81,22.78,22.78,0,0,1-3.57-7c-1.49-5.06-1.7-10.32-3.34-15.21a17.14,17.14,0,0,0-3.8-6.56,8,8,0,0,0-6.64-2.8,8.64,8.64,0,0,0-6,4.15,16,16,0,0,0-1.72,3.4,20.1,20.1,0,0,0-1,3.69,23.56,23.56,0,0,0,2.62,14.85,14.46,14.46,0,0,0,5.22,5.42,10.78,10.78,0,0,0,7.32,1.13,9.46,9.46,0,0,0,6.1-4.07,12.09,12.09,0,0,0,1.47-3.47,14.52,14.52,0,0,0,.35-3.78,22.22,22.22,0,0,0-6.07-13.78c-3.42-3.88-7.6-7.05-11-11a38.72,38.72,0,0,1-4.41-6.5,43.27,43.27,0,0,1-3-7.26c-3-10-2.45-21.23,2.37-30.59a37.19,37.19,0,0,1,9.84-12.13A31.25,31.25,0,0,1,364,263.67l.4-.07-.05.4-1.88,17.3-.12,1.12-.46-1a17.24,17.24,0,0,0-4.76-6.35A18.07,18.07,0,0,0,350,271.5a20.47,20.47,0,0,0-15.47,2.39,23.73,23.73,0,0,0-6,5.35,33.63,33.63,0,0,0-4.17,6.9,47.82,47.82,0,0,0-3.86,15.67,57.5,57.5,0,0,0,1,16.14,27.26,27.26,0,0,0,2.76,7.55,14.22,14.22,0,0,0,5.51,5.66,9.94,9.94,0,0,0,7.65,1.06,9.4,9.4,0,0,0,5.61-5.25,16.63,16.63,0,0,0,1.23-3.81,26.69,26.69,0,0,0,.52-4,59.34,59.34,0,0,0-.1-8.11l-1.06-16.28c-.4-5.42-.52-10.88-1.53-16.2a33.76,33.76,0,0,0-2.37-7.71,14.47,14.47,0,0,0-5-6.12,10.27,10.27,0,0,0-7.62-1.44,15.08,15.08,0,0,0-7.06,3.6,22.48,22.48,0,0,0-4.81,6.41,41.39,41.39,0,0,0-2.95,7.54c-.75,2.6-1.35,5.25-1.85,7.91s-.9,5.35-1.16,8.05a98.18,98.18,0,0,0,2.05,32.33h-.47l13.22-75.65.32-1.8.09,1.83a122.54,122.54,0,0,1-9.24,53.1l-.26.62-.06-.67-2.49-24.46-1.25-12.23c-.46-4-1.1-8.16-3-11.78a12.18,12.18,0,0,0-4-4.52,8.47,8.47,0,0,0-5.7-1.59,6.35,6.35,0,0,0-2.79,1,7.48,7.48,0,0,0-2,2.19,10.15,10.15,0,0,0-1.1,2.81,13.34,13.34,0,0,0-.3,3,14.6,14.6,0,0,0,1.37,5.89,15,15,0,0,0,3.74,4.76c3.1,2.68,7,4.26,10.75,5.75l-.15.07,8-26.77.11-.37.08.38a23.86,23.86,0,0,1-1.81,14.49,22.65,22.65,0,0,1-4.08,6.15,17.84,17.84,0,0,1-6,4.27l-.09,0,0-.09L295.49,229Z"/><path class="beard-2" d="M509.57,205l-7.51,97.44a81.34,81.34,0,0,1-1.48-39.64c12.47,7.16,15.25,26.45,11.8,41.77s-11.34,29-14.66,44.36a166,166,0,0,1,1.49-59.3A188.6,188.6,0,0,1,494.28,382c-1.34,4.26-4.28,9.34-8.12,8.11-3.44-1.1-4.06-6.27-3.73-10.28a80.85,80.85,0,0,1,12.31-36.73c1.9,10.14,3.8,20.43,3.2,30.76s-4.06,20.91-11.18,27.43c-10.17,9.31-25.1,8.2-37.41,3.18-8.47-3.45-17.68-8.54-26-4.62-7.12,3.37-10.87,12.3-17.27,17.17a18.28,18.28,0,0,1-20,1.48c-6.26-3.52-10.62-11-11-18.92-11,8.67-24.66,17.71-36.89,11.57-11.54-5.8-15.23-21.94-17.52-36L303.24,268.23c-9.2,12.65-13.82,29.45-12.59,45.77-.63-14.5,5.16-29.19,15.13-38.34l-.23,38-1.62-36.26L297.29,304l.49-22.38c5.17,9.27,6.45,20.58,7.31,31.5s1.49,22.16,5.61,32.08,12.75,18.35,22.43,17.84l-19.68-70.59-15.63-56"/><path class="beard-2" d="M295.59,264.84c-10.18-11.73-13-30.82-6.81-45.68a75.67,75.67,0,0,1,5.13,42.17l-1-60.14c15.79,18.89,22.54,46.91,17.4,72.25a123.86,123.86,0,0,1-10.9-67,196.74,196.74,0,0,1,14.39,86.77c7.34-7,15.06-14.16,24.39-16.63S359,278,362.66,288c7.18-9.91,19.13-15.1,30.33-13.17l4.11,5.09c-.66-6.28,5.29-12.21,10.72-10.68s8.21,9.94,5,15.13c-3.06-5.2-6.19-10.47-10.46-14.43s-9.94-6.46-15.34-5.19c-3.67.85-6.89,3.33-10.51,4.43-9.4,2.86-19.29-4-28.89-2.26-11.7,2.17-18.8,16.63-19.33,30s3.63,26.37,5.82,39.54c1.37,8.29,2,16.81,4.65,24.69s7.89,15.24,15.12,17.27c10.51,2.93,20.41-5.93,28.83-13.62s19.89-15.08,29.44-9.31c4.56,2.76,7.45,8,10.83,12.38s8.15,8.47,13.25,7.54c8.48-1.55,10.39-14.05,15.06-22.2,8.24-14.37,26.71-15.67,37.92-27.18,12.4-12.74,12.94-34.38,11-53.2s-5.11-39,2.47-55.88C492,227.51,486.89,244.89,490,260.58c-5.57-4.41-6.6-13.61-4.45-20.91s6.75-13.26,10.81-19.42,7.82-13.17,7.81-20.86c5.65,6.07,7.55,15.5,7.16,24.3s-2.79,17.3-4.5,25.9a170,170,0,0,0-.28,64.46c-4.05,1.66-8.52-1.87-10.39-6.25s-1.95-9.42-2.68-14.21-2.44-9.9-6.24-12.18c-2.15-1.29-4.66-1.49-7.08-1.66l-47.63-3.34"/><path class="beard-2" d="M368.38,261.11c5.18-14,18.27-23.68,31.66-23.5,2.43,6.67-1.19,14.58-6.52,18.54s-11.91,4.94-18.25,5.81c-.7-4.19-.55-10,3.12-11,5-1.31,7.3,8.62,12.44,9,3.09.21,5.3-3.16,7.14-6s4.86-5.73,7.69-4.28c2.52,1.3,3,5.27,5.21,7.18,2.47,2.14,6,1,9.08,1,6.68,0,12.79,6.79,12.87,14.35l6.88-.21c.42-5.22-1.47-10.41-4.26-14.59s-6.43-7.53-10-10.82c-1.85-1.69-3.9-3.46-6.27-3.47a5.46,5.46,0,0,0-5,3.94,6.62,6.62,0,0,0,1.61,6.61c2.92,1.31,6.65-1.3,6.91-4.84,9.47,4.58,16.84,14.39,19.32,25.7l-10.9-15.12c-2.9-4-6-8.23-10.3-10.12s-8.85-1.21-13.3-.54L378.57,253c-2.75.42-5.86,1.06-7.38,3.69-2.41,4.13,1.57,10,5.94,10.17s8.14-3.52,10.7-7.54c1.83-2.88,3.34-6.12,5.79-8.33s6.3-3,8.64-.67c1.7,1.73,2.09,4.53,2.38,7.09l2.21,20.05"/><path class="beard-2" d="M340.27,388.65c-1,6.93-2.18,14.2-6.11,19.65s-11.59,8.11-16.47,3.76-2.16-15.79,4-15l-.84,12.67c-1.54-4.41-3.12-9-3-13.73s2.56-9.73,6.6-11,9,2.88,8,7.5c-.76,3.56-4.47,5.46-7.68,5s-6-2.66-8.6-4.85c-3.71-3.14-7.49-6.65-9.17-11.53s-.36-11.48,3.92-13.49,9.93,4,7.39,8.37c-.57-9.06,5.81-18,13.76-19.24s16.25,5.33,17.91,14.21a11.68,11.68,0,0,1,18.18-.51c8.07-8.64,19.73-12.79,30.72-10.94l-1.18,13.16c-5.82-7.16-7.68-18.12-4.64-27.21s10.87-15.9,19.43-16.9l.32,17.88c-10.1-5.58-16.69-18.4-16-31.08s8.68-24.46,19.31-28.55c6.39,9.65-.33,24.17-9.74,29.82-15.45,9.27-37,1.63-45-16-2.59-5.69-3.85-12.48-2-18.55s7.24-11,12.85-10.15c6.58,1,10.88,9.46,9.72,16.84s-6.5,13.22-12.54,16.31-12.77,3.87-19.37,4.62c-5.51.63-12.18.69-15.28-4.52-2.87-4.82-.65-11.8,3.41-15.38s9.38-4.62,14.46-5.55c12-2.21,24.67-4.37,36.23.06s21.43,17.77,18.79,31.25a76.73,76.73,0,0,1,37.82-18.21c5.56-.93,11.55-1.11,16.47,2s8.12,10.39,5.57,16.06a9.67,9.67,0,0,1-11.16,5.31c-4.23-1.14-7.63-5-9.33-9.54-5-13.26,6.14-29.81,18.87-29.5s23,15.26,21.71,29.58S475,337.34,462.43,339.51c-4.11.7-8.55.46-12.05-2.08s-5.63-7.84-3.95-12.14,7.74-5.72,10.13-1.88c-4.55,15.08-21.05,19.73-35,22.09l-36.17,6.14c-11.19,1.9-22.61,3.79-33.75,1.62s-22.18-9.15-27-20.72c-1.81-4.33-2.67-9.38-1.37-13.93s5.13-8.35,9.36-8.15,8,5.31,6.65,9.85"/><path class="beard-2" d="M358.8,320.49l6,16.43c-.95-4.37-1.9-9-.82-13.3s5-8.1,8.83-7c4.08,1.22,5.64,6.72,6.54,11.38-.57-6.2-.09-12.81,2.93-18s9.06-8.52,14.23-6.37,7.66,10.74,3.75,15.12c10.18-1.43,19.56-8.88,24.19-19.24l13.44,27.2c.91,1.84,2,3.83,3.75,4.45,4.79,1.69,7-7.24,11.71-9.28,3.47-1.52,7.45,1.47,8.91,5.34s1.1,8.27.7,12.45c-7,6.08-18.39,3.92-23.24-4.4-1.93-3.33-3-7.45-5.71-10a7.69,7.69,0,0,0-9.3-.84,10,10,0,0,0-4.08,9.47c-19.07-7.46-41.43-3-57,11.5"/><path class="beard-1" d="M365.29,314.36l17,32.12-.37.07L386,289.86l.07-.94.5.8,23.6,37.9-.67.08a54.73,54.73,0,0,1,6.71-14,18.41,18.41,0,0,1,5.71-5.36,11.78,11.78,0,0,1,3.75-1.35c.66-.06,1.33-.13,2-.13a10.22,10.22,0,0,1,2,.25,14.08,14.08,0,0,1,6.79,3.95,22.15,22.15,0,0,1,4.41,6.48c2.19,4.77,3.1,9.93,4,15l.26,1.43-1-1.06a12.72,12.72,0,0,1-3.19-6.73,15,15,0,0,1,.61-7.42,10.92,10.92,0,0,1,4.6-5.84,10.75,10.75,0,0,1,7.31-1.37,10.41,10.41,0,0,1,6.4,3.74,40.53,40.53,0,0,1,3.72,6.37l6.75,13-.62.06,5.53-18.91.25-.87.33.84a29.35,29.35,0,0,1,1.8,13.25,28.17,28.17,0,0,1-4.22,12.66,24.16,24.16,0,0,1-10,8.79A20.87,20.87,0,0,1,450.28,352c-4.41-.84-8.56-2.53-12.88-3.5a20.77,20.77,0,0,0-6.56-.55,12.06,12.06,0,0,0-6.06,2.33,19.54,19.54,0,0,0-4.37,4.91c-1.23,1.85-2.3,3.8-3.44,5.71a31.46,31.46,0,0,1-3.88,5.46,11.14,11.14,0,0,1-5.7,3.45,13.39,13.39,0,0,1-6.68-.39,36.84,36.84,0,0,1-6.19-2.56l-11.85-6.14-11.85-6.15a95,95,0,0,1-11.43-6.93,44.62,44.62,0,0,1-9.62-9.29,47.8,47.8,0,0,1-6.4-11.74c-3.18-8.38-4.49-17.33-4.87-26.23l.65.07a24.55,24.55,0,0,0,3.64,19.8,20.52,20.52,0,0,0,3.48,3.79,17,17,0,0,0,4.39,2.63,17.61,17.61,0,0,0,10.1.92,18,18,0,0,0,9-4.74c2.48-2.39,4.23-5.45,6.12-8.4l11.24-17.79,1.07-1.69-.23,2c-.43,3.64-.85,7.29-1,10.94a44.76,44.76,0,0,0,.75,10.85,22.39,22.39,0,0,0,4.37,9.77,15.75,15.75,0,0,0,8.74,5.79A9.56,9.56,0,0,0,406,334a12.63,12.63,0,0,0,4.44-2.86c1.33-1.23,2.53-2.61,3.78-4l3.71-4.07,14.86-16.29.62-.67.2.89,6.17,27.1-.93,0,13.3-40.26.3-.92.57.78a10.69,10.69,0,0,1,1.92,7.06,13.8,13.8,0,0,1-2.37,6.9,11.26,11.26,0,0,1-5.91,4.28,14,14,0,0,1-7.28.16,18,18,0,0,1-6.54-3.12,50.81,50.81,0,0,1-5.39-4.73c-1.71-1.65-3.39-3.31-5.23-4.76a28.33,28.33,0,0,0-6-3.58,34.8,34.8,0,0,0-6.71-2.09,49.7,49.7,0,0,0-7-.82,104.91,104.91,0,0,0-14.17.52,81.22,81.22,0,0,0-14,2.07,26.32,26.32,0,0,0-12.2,6.68l-.41-.4c-.07,0-.15.26-.05.35s0,0,0,0l-.05,0-.12-.09-.23-.16-.46-.33-.93-.66-.94-.65a10.22,10.22,0,0,0-.92-.6l.4-.24a180,180,0,0,0-.38,22.39,66.4,66.4,0,0,0,1.64,11,50.22,50.22,0,0,0,3.8,10.49l-.3.05c.59-4.81.95-9.65,1.24-14.5l.4-7.26C365,319.22,365.05,316.87,365.29,314.36Zm0,.09c-.06,2.33-.24,4.82-.34,7.23l-.35,7.27c-.25,4.84-.57,9.69-1.13,14.52l-.06.52-.24-.47a50.66,50.66,0,0,1-3.9-10.53,65.31,65.31,0,0,1-1.72-11.11,180.79,180.79,0,0,1,.29-22.45l0-.44.37.21c.4.21.68.42,1,.63l.94.65.94.66.47.33.23.17.12.08.05,0s0,0,.09.08a.33.33,0,0,1,0,.39l-1.71.94,1.29-1.34A26.89,26.89,0,0,1,374.14,295a82.39,82.39,0,0,1,14.11-2.15,106,106,0,0,1,14.26-.57,50.35,50.35,0,0,1,7.13.8,35.44,35.44,0,0,1,6.87,2.12,29.14,29.14,0,0,1,6.2,3.66A69.32,69.32,0,0,1,428,303.6a51.68,51.68,0,0,0,5.32,4.64,17.06,17.06,0,0,0,6.23,2.93,13,13,0,0,0,6.79-.16,10.33,10.33,0,0,0,5.39-3.94,12.67,12.67,0,0,0,2.17-6.4,9.66,9.66,0,0,0-1.72-6.4l.87-.15-13.32,40.25L439.2,336l-.39-1.7-6.15-27.11.82.22-14.87,16.28-3.72,4.07c-1.24,1.34-2.45,2.74-3.83,4a13.45,13.45,0,0,1-4.76,3.05,10.56,10.56,0,0,1-5.68.36,16.74,16.74,0,0,1-9.28-6.13,23.27,23.27,0,0,1-4.54-10.16,45.83,45.83,0,0,1-.77-11.08c.13-3.69.55-7.36,1-11l.84.3-11.26,17.78c-1.89,2.92-3.67,6-6.27,8.53a18.87,18.87,0,0,1-9.4,4.93,18.39,18.39,0,0,1-10.55-1,17.89,17.89,0,0,1-4.59-2.77,22.13,22.13,0,0,1-3.6-4,25.29,25.29,0,0,1-3.67-20.38l.56-2.16.09,2.23a83,83,0,0,0,4.73,26.05A46.89,46.89,0,0,0,350.18,338a44.1,44.1,0,0,0,9.49,9.21A93.81,93.81,0,0,0,371,354.15l11.83,6.19,11.83,6.16a35.53,35.53,0,0,0,6.12,2.56,13.06,13.06,0,0,0,6.5.4,10.87,10.87,0,0,0,5.55-3.34,31.23,31.23,0,0,0,3.85-5.39c1.14-1.91,2.2-3.87,3.43-5.73a19.65,19.65,0,0,1,4.44-5,12.49,12.49,0,0,1,6.22-2.43,21.42,21.42,0,0,1,6.68.54c4.37,1,8.53,2.64,12.88,3.45A20.28,20.28,0,0,0,463.24,350a23.74,23.74,0,0,0,9.76-8.63A27.62,27.62,0,0,0,477.09,329a28.75,28.75,0,0,0-1.8-13l.58,0-5.47,18.93-.24.81-.39-.75L463,322a40.42,40.42,0,0,0-3.66-6.23,9.62,9.62,0,0,0-5.95-3.46,10,10,0,0,0-6.77,1.29,10.12,10.12,0,0,0-4.24,5.44,14.14,14.14,0,0,0-.56,7,11.93,11.93,0,0,0,3,6.28l-.73.37c-.93-5-1.87-10.13-4-14.76a21,21,0,0,0-4.22-6.23A13.34,13.34,0,0,0,429.5,308a10.29,10.29,0,0,0-1.83-.23c-.62,0-1.24.06-1.85.12a10.58,10.58,0,0,0-3.48,1.24,17.5,17.5,0,0,0-5.46,5.11,54.29,54.29,0,0,0-6.65,13.75l-.26.75-.42-.67-23.49-38,.57-.14-4.34,56.68-.05.68-.31-.6Z"/><path class="beard-1" d="M344.26,310.49l.49,28.12V339l-.32-.18a22,22,0,0,1-5-3.79,13.3,13.3,0,0,1-3.25-5.39,10.9,10.9,0,0,1,.1-6.3,8.14,8.14,0,0,1,1.54-2.81,5.68,5.68,0,0,1,2.72-1.75,5.51,5.51,0,0,1,3.24.18,8,8,0,0,1,2.73,1.69,10.84,10.84,0,0,1,3.16,5.47c1,4.17.3,8.44-.38,12.51l-.22,1.35-.43-1.3c-1.8-5.44-3.61-11-3.62-16.91a19.16,19.16,0,0,1,1.78-8.54,14.86,14.86,0,0,1,5.91-6.43,9.15,9.15,0,0,1,4.31-1.2,7.64,7.64,0,0,1,4.3,1.31,12.53,12.53,0,0,1,4.81,7.31,22.22,22.22,0,0,1,.35,8.74,68.21,68.21,0,0,1-1.9,8.46l-.11.41-.4-.12A10.09,10.09,0,0,1,358.9,328a15.31,15.31,0,0,1-2.67-5.72,16.29,16.29,0,0,1-.29-6.3,11.94,11.94,0,0,1,2.53-5.79l.27-.32.28.32a25.24,25.24,0,0,1,5.45,11.67,26.88,26.88,0,0,1-.61,12.85l-.11.37-.33-.2a21.86,21.86,0,0,1-9-10.09,15.79,15.79,0,0,1-1.25-6.72,14,14,0,0,1,.57-3.4,13.8,13.8,0,0,1,1.35-3.16,11.65,11.65,0,0,1,2.12-2.72,8.39,8.39,0,0,1,2.89-1.88,6.63,6.63,0,0,1,3.44-.43,6.8,6.8,0,0,1,3.13,1.49,10.56,10.56,0,0,1,2.16,2.68A12,12,0,0,1,370,313.9a9.48,9.48,0,0,1-.06,3.44,7.08,7.08,0,0,1-.66,1.61,3.18,3.18,0,0,1-.48.73l-.28.33c-.11.11-.12.23-.36.35a.37.37,0,0,1-.37-.1,1.1,1.1,0,0,1-.13-.23,2.49,2.49,0,0,1-.14-.44,8.32,8.32,0,0,1-.13-.85c-.06-.57-.09-1.14-.11-1.71a27.74,27.74,0,0,1,.09-3.41,7,7,0,0,1,4.63-4.81,6.54,6.54,0,0,1,3.43-.33,10.29,10.29,0,0,1,3.05,1.58,16.24,16.24,0,0,0,2.88,1.7,5.66,5.66,0,0,0,3.24.25,15,15,0,0,0,6-2.9c1.82-1.34,3.61-2.73,5.42-4.08l10.82-8.2.54-.41-.17.66a25.66,25.66,0,0,0-.87,5,7.43,7.43,0,0,0,1.14,4.69,4.75,4.75,0,0,0,1.78,1.59,2.69,2.69,0,0,0,2.25.1c1.49-.58,2.49-2.2,4.35-2.66a3.05,3.05,0,0,1,2.61.72,6.77,6.77,0,0,1,1.56,2.14,13.46,13.46,0,0,1,.89,2.44c.22.85.35,1.67.56,2.49a14.91,14.91,0,0,0,.77,2.37,5.36,5.36,0,0,0,1.33,2,2.76,2.76,0,0,0,2.09.74,3.46,3.46,0,0,0,2-1.05,10,10,0,0,0,2.29-4.29c.42-1.61.7-3.31,1.24-5a10.15,10.15,0,0,1,1.11-2.39,5.72,5.72,0,0,1,2-1.83,6.71,6.71,0,0,1,2.49-1,3.7,3.7,0,0,1,2.7.57,8.45,8.45,0,0,1,2.83,4.43,34.07,34.07,0,0,1,1.16,5c.28,1.69.48,3.38.68,5.07a36.42,36.42,0,0,0,.76,4.94l-.77-.15c4.17-5.16,7.2-11.16,10.71-16.87l.42-.68.37.71,7.06,13.48-.74-.1L473.77,307l.61-.65.19.87,4.59,20.77-.94.11-.06-8.06.95-.1,4,19.26-1,.1,0-8.22.63.48a10.52,10.52,0,0,1-7.2-.67,15.19,15.19,0,0,1-5.61-4.52,17.14,17.14,0,0,1-3.16-6.47,14.59,14.59,0,0,1,.05-7.22l.93.2-2.45,16.24-.16,1.09-.62-.91-13-19.08-.16-.23.16-.2a4.61,4.61,0,0,1,4.23-1.82,7.23,7.23,0,0,1,2.26.57,9.37,9.37,0,0,1,2,1.15,12.38,12.38,0,0,1,3.05,3.37c.82,1.26,1.55,2.56,2.32,3.82a21.15,21.15,0,0,0,2.57,3.55,6.21,6.21,0,0,0,3.58,2.15,5.89,5.89,0,0,0,4.09-.73,3.72,3.72,0,0,0,1.87-3.49v-.76l.48.58L486,328l-.4.09,2.09-7.27.12-.41.22.36a16.52,16.52,0,0,1,2.2,6.25,20.36,20.36,0,0,1-.17,6.61,19.33,19.33,0,0,1-2.28,6.19,14.6,14.6,0,0,1-4.46,4.82l-.06-.08a14.35,14.35,0,0,0,4.37-4.83,19.22,19.22,0,0,0,2.2-6.14A18.07,18.07,0,0,0,487.74,321l.34-.05-2,7.29-.12.42-.28-.34-8.12-9.8.47-.18a4.8,4.8,0,0,1-.48,2.29,4.86,4.86,0,0,1-1.62,1.69,6.48,6.48,0,0,1-4.49.83,6.79,6.79,0,0,1-3.92-2.31,21.88,21.88,0,0,1-2.67-3.63c-.78-1.27-1.51-2.56-2.33-3.78a11.36,11.36,0,0,0-2.9-3.19,8.36,8.36,0,0,0-1.86-1.06,6.11,6.11,0,0,0-2-.5,4.08,4.08,0,0,0-2,.3,4.13,4.13,0,0,0-1.57,1.25v-.43l13.13,19-.78.18,2.35-16.25.94.19a13.57,13.57,0,0,0,0,6.73,16.17,16.17,0,0,0,3,6.09,14.23,14.23,0,0,0,5.23,4.24,9.52,9.52,0,0,0,6.53.62l.63-.18V331l-.05,8.21,0,4.69-.94-4.59-3.95-19.27.95-.1.05,8.06,0,4.54-1-4.43-4.58-20.78.8.22-11.89,12.6-.45.47-.3-.58-7.05-13.49.8,0c-1.75,2.84-3.38,5.76-5.11,8.63a70.82,70.82,0,0,1-5.69,8.33l-.56.68-.21-.83a37.4,37.4,0,0,1-.77-5.11c-.19-1.69-.38-3.37-.65-5a33.16,33.16,0,0,0-1.1-4.9,7.83,7.83,0,0,0-2.49-4c-1.28-.91-3-.44-4.37.42a6.33,6.33,0,0,0-2.77,3.81c-.53,1.57-.81,3.24-1.26,4.91a10.51,10.51,0,0,1-2.49,4.58,4.18,4.18,0,0,1-2.43,1.23,3.45,3.45,0,0,1-2.57-.92,6.1,6.1,0,0,1-1.48-2.21,16.1,16.1,0,0,1-.79-2.47c-.21-.84-.34-1.69-.55-2.49a12.3,12.3,0,0,0-.83-2.34,6.27,6.27,0,0,0-1.4-1.95,2.49,2.49,0,0,0-2.12-.61c-1.55.33-2.59,1.91-4.27,2.62a3.3,3.3,0,0,1-2.68-.13,5.26,5.26,0,0,1-2-1.77,7.84,7.84,0,0,1-1.22-5,26,26,0,0,1,.91-5.05l.38.25-10.86,8.16c-1.81,1.35-3.6,2.73-5.44,4.06a15.23,15.23,0,0,1-6.14,2.95,6,6,0,0,1-3.43-.28,17.38,17.38,0,0,1-2.95-1.75,9.93,9.93,0,0,0-2.93-1.54,6.21,6.21,0,0,0-3.24.31,6.75,6.75,0,0,0-4.44,4.54,26.84,26.84,0,0,0-.07,3.36c0,.56.05,1.13.11,1.68,0,.28.07.55.13.82a3.22,3.22,0,0,0,.12.37c.05.13.13.17.09.15a1.6,1.6,0,0,0,.22-.25l.26-.32a2.65,2.65,0,0,0,.45-.69,6.28,6.28,0,0,0,.61-1.52,9.15,9.15,0,0,0,.05-3.3,11.55,11.55,0,0,0-1.13-3.12,10.34,10.34,0,0,0-2.08-2.57,6.32,6.32,0,0,0-2.94-1.37,6.1,6.1,0,0,0-3.21.41,8.06,8.06,0,0,0-2.74,1.8,11.24,11.24,0,0,0-2,2.63,14.21,14.21,0,0,0-1.83,6.35,15.49,15.49,0,0,0,1.24,6.5,21.31,21.31,0,0,0,8.83,9.78l-.44.17a26.43,26.43,0,0,0,.53-12.56,24.68,24.68,0,0,0-5.34-11.32H359a11.12,11.12,0,0,0-2.34,5.45,15.37,15.37,0,0,0,.3,6,14.59,14.59,0,0,0,2.54,5.42,9.44,9.44,0,0,0,4.76,3.38l-.51.29a67.92,67.92,0,0,0,1.85-8.36,21.32,21.32,0,0,0-.37-8.39,11.72,11.72,0,0,0-4.41-6.83,6.74,6.74,0,0,0-3.83-1.18,8.26,8.26,0,0,0-3.91,1.07,14.11,14.11,0,0,0-5.61,6.06,18.36,18.36,0,0,0-1.73,8.19c0,5.71,1.73,11.26,3.51,16.7l-.65.05c.69-4.07,1.4-8.25.44-12.25a10.28,10.28,0,0,0-3-5.19,5.32,5.32,0,0,0-9.32,2.43,10.36,10.36,0,0,0-.12,6,12.72,12.72,0,0,0,3.11,5.2,21.74,21.74,0,0,0,4.87,3.75l-.31.19-.17-28.12Z"/><rect class="beard-3" width="800" height="800"/></g></g></svg>
