<svg xmlns="http://www.w3.org/2000/svg" viewBox="0 0 221.65 340.13"><defs><style>.beard-1{fill:none;stroke:#fff;stroke-linecap:round;stroke-miterlimit:10;stroke-width:10px;}</style></defs><title>7000_beard_white_string_thick</title><g id="Layer_2" data-name="Layer 2"><g id="_7000_beard_white_string_thick" data-name="7000_beard_white_string_thick"><path class="beard-1" d="M11.14,8.06C11,7,9.84,7,9,7.42c-.08,1.75-1.58,2.85-2.13,4.46-.7,2.06-.32,4.34-1,6.49C4.91,21.59,5,24.63,5,28c0,3.22,2.25,5.94,3,9.15.39,1.76,1.13,2.57,2,4.19,1.19,2.12.82,3.2,1.25,5.4.39,2,1.31,3.31,1.41,5.33.08,1.63.49,3,.69,4.61a76,76,0,0,1,.84,9.2v8.91c0,1.29.44,3.26.07,4.48-.22.74-.92.89-1.27,1.52a3.91,3.91,0,0,0-.33,2.43,35.8,35.8,0,0,1-.6,9.1c-.6,2.62-.17,5.7-.17,8.4v59.51c0,3.52,0,7,0,10.56a19.8,19.8,0,0,1-.37,4.64c-.18.79-.31,1.62-.53,2.41-.4,1.4-1.7,2.45-2.07,3.75a6.73,6.73,0,0,0,.46,4.27c.64,2,1,4,1.53,6a70.43,70.43,0,0,0,4.81,12.26"/><path class="beard-1" d="M210.29,198c-.08-3.89-1.2-6.69-2.32-10.45-.59-2-1.11-3.93-1.84-5.87-.54-1.46-.29-2.92-.89-4.36-.82-2-1.59-2.35,0-4.21,1.13-1.3,1.84-2,2-3.86.11-1.26-.27-2.21.39-3.43.9-1.67,1.77-2.09,2.27-4.17a13.78,13.78,0,0,1,1.9-5,7.85,7.85,0,0,0,1.48-3c.51-2.67.12-6.06.06-8.79s-1.51-5.22-1.53-8.1c0-.9.06-1.83,0-2.73-.08-1.88-1.08-3.33-1.44-5.17-.3-1.54,0-3.07-.19-4.61a38.66,38.66,0,0,1-.72-5.79,43.86,43.86,0,0,1,.72-6.92c.37-2.28,2-3.81,2.63-6a22.57,22.57,0,0,0,.47-5.11c.14-2.26,1.23-4.54,1.75-6.77a32.91,32.91,0,0,0,1.34-8c0-2.73,0-5.47,0-8.21V70.92c0-1.25.46-3.48.08-4.7s-1.37-1.92-1.64-3.29c-.69-3.48-1.56-7-2.48-10.5a68,68,0,0,1-1.32-9.17,63.92,63.92,0,0,1-.77-8.2V28c0-10.47-1.53-12.51-1.53-23"/><path class="beard-1" d="M70.12,59.38c1.83,0,2.55-.47,3.12,1.29A25.46,25.46,0,0,1,74,65.33c.14,1.88.11,3.72.33,5.63.45,4,1.87,7.4,2.56,11.31.34,1.9.22,4.47.84,6.24.23.67,1,1,1.25,1.64a6.12,6.12,0,0,1,.37,2.1c.49,4.11,2.19,8,1.33,12.25a61.78,61.78,0,0,0-1.39,9.23c-.09,2.06,0,4.16,0,6.22,0,2.31.57,3.9.81,6.1.41,3.73.37,7.68,1.49,11.32,1,3.39.25,6.64,1.06,10,.61,2.52,2.55,4.54,2.85,7.08a13.06,13.06,0,0,1-.25,3.18,110.87,110.87,0,0,0-.6,15c0,2.11,0,4.21,0,6.32,0,1.73.23,4-.34,5.74-.42,1.31-1.48,2.46-1.89,3.79-.24.8,0,1.78-.25,2.59-.26,1-.88,2.06-1.22,3.06-.67,2-.63,4.16-1.12,6.21-.44,1.85-.42,3.75-.75,5.71s-.13,5.22-1.11,7a36.84,36.84,0,0,0-2.49,4.79c-.94,2.4-2,4.84-3.1,7.18s-1.94,3.6-2.31,5.95c-.22,1.36-.6,2.58-.76,3.94-.49,4.15-3.5,8.65-2.22,12.9a6.61,6.61,0,0,0,1.65,2.51,6.25,6.25,0,0,1,1.41,2.84,28.53,28.53,0,0,0,2.38,5.42c1,1.72,2.54,3.19,3.55,4.94.9,1.56.39,1.72.85,3.07.54,1.59,1.6,2.56,2.19,4.13,1.62,4.33.9,9.61.9,14.12v8.93"/><path class="beard-1" d="M166.63,59.38c-1.31,1.29-.79,3.61-.77,5.28,0,1.91-.27,3.92-.07,5.81.21,2.08,1.4,3.92,1.73,6a46,46,0,0,1,.65,7.77c0,5.55,0,11.1,0,16.65,0,5,.33,10-.6,14.85-1.46,7.76-2.38,16.25-1.14,24.11,1.06,6.74,1,13.32,1,20.13,0,6.64.64,13.4-1,19.83a65,65,0,0,0-1.3,10.32c-.26,3.37-1.28,6.65-1.58,10a27,27,0,0,0,1.1,10.6c.52,1.75,1,3.2,1.65,4.92.86,2.17.19,4.49,1.05,6.75.69,1.82,1.65,3.53,2.41,5.31,1,2.3,2.26,3.63,3.66,5.65.71,1,.93,2.22,1.62,3.23,1.1,1.61,1.52,1.23,1.57,3.17.12,4,.09,7.68-1.54,11.42-1.16,2.68-2.75,5-3.81,7.78-.51,1.35-1.41,2.43-1.59,3.84a27.92,27.92,0,0,1-.31,3.48c-.43,1.72-1.58,3.34-1.91,5a20.74,20.74,0,0,0,0,4.17"/><path class="beard-1" d="M21.1,26.45c.48,4.32,2.79,8.09,3.47,12.27.2,1.19.05,2.39.23,3.56.38,2.41,1.51,3.51,2.51,5.54s.63,3.65.65,5.8a28.44,28.44,0,0,0,1.53,9c1.7,4.14,2.1,8.43,3.87,12.62,2.58,6.11,1.46,13.59,1.54,20.16.05,3.41-1.91,4.9-3.36,7.92-.52,1.08-.25,1.58-.5,2.71a15.32,15.32,0,0,1-1.45,2.89,10.78,10.78,0,0,0-.82,4c-.23,2.51-1.51,2.76-2.76,4.88-1,1.65-1.1,3.82-2,5.57-1.06,2.12-2.42,4-3.08,6.24-.49,1.68-.47,3.44-.82,5.15A49.28,49.28,0,0,0,18.82,141c-.26,3.61-.93,7-.84,10.73.11,4.76,2.52,8.9,4.21,13.22,1.42,3.65,3.9,7.58,4.25,11.42.1,1.14,0,2.27.06,3.42.2,3,1.49,4.63,2.51,7.27.86,2.22.51,4.57,1,6.86a14.13,14.13,0,0,0,2.29,5.63c.46.68.95.86,1.18,1.66.38,1.35-.1,3.75-.1,5.17a40.29,40.29,0,0,1,0,5.71c-.51,3.58-2.93,7-4.42,10.28-1.38,3-1.61,6.07-2.66,9.19-.83,2.48-.51,5.23-2.85,7"/><path class="beard-1" d="M201.1,25.68c0,3.07-.61,5.87-.8,8.87-.13,2.12,0,4.32,0,6.45,0,4.92.65,10.32-.55,15.14-.35,1.45-.92,2.82-1.22,4.28a19.6,19.6,0,0,0-.35,2.86c-.2,3.43-.81,6.86-1,10.27-.11,2.14,0,4.36,0,6.51a46,46,0,0,0,1.17,8.35,31.58,31.58,0,0,1,.42,8.08c-.08,1.48-.7,2.83-.84,4.29s0,2.88,0,4.26c0,1.81,0,3.62,0,5.43-.05,2.67.77,4.21,1.42,6.72.8,3.11-.5,6.43.58,9.48a12.66,12.66,0,0,1,1.1,4.92,23.18,23.18,0,0,0,.36,4.78c1.41,7.2.05,15.13-.38,22.33-.09,1.56-.66,2.89-.81,4.43s.22,3.17.1,4.72c-.24,3.08-2.53,5.9-3.08,9-.45,2.44,0,5.34,0,7.82v12.2c0,2.48-.33,5.12.17,7.54.8,3.88,2,7.65,2.53,11.66.24,2,.11,4.16.7,6.08a19.71,19.71,0,0,1,1.19,7c0,2.41.25,5,0,7.37a21.33,21.33,0,0,1-2.62,7.53c-.8,1.57-1,3.23-1.69,4.82s-2.13,2.49-1.85,4.37"/><path class="beard-1" d="M48.67,55.55c-1.34.42-1.43,6.31-1.62,7.67-.58,4.12-.59,8.06-2.21,12C43.31,78.86,41.64,83,41.15,87c-.45,3.65.36,7.43-.31,11a21.22,21.22,0,0,1-1.37,5,5.6,5.6,0,0,0-.77,3.17c.08,3-.06,6.06,0,9.09,0,2.54,1.66,3.71,2.65,5.85.66,1.4.3,2.65.8,4.11,1.47,4.22,1.56,8.58,2.16,13.07.45,3.41,1.24,6.63,1.32,10.05a14,14,0,0,0,1.17,5,16.9,16.9,0,0,1,1.16,7.11c-.05,3.38,0,6.77,0,10.15s.43,6.56.74,9.93c.19,2,.48,4.09.85,6.07.29,1.57,1.17,2.41,1.82,3.8,1.19,2.58.52,6.77.45,9.61-.08,3.18-.82,6.21-.8,9.43,0,4,0,8,0,12.07,0,3.44.65,6.78.75,10.22.1,3.65,2.41,6.83,2.38,10.47a11,11,0,0,1-.78,4.08c-.7,1.62-2.14,2.5-3,4-.69,1.27-1.25,2.46-2.06,3.71-.65,1-2.65,3.22-2.69,4.52"/><path class="beard-1" d="M185.78,58.62a11.4,11.4,0,0,1-.44,4.62c-.64,1.58-1.26,3-1.82,4.67a125.23,125.23,0,0,0-4.05,13.14c-.7,3.09-2.19,6-2.75,9.09-.48,2.6,0,5.32-.2,8s-.68,5.23-.73,7.9c-.12,8.24,0,16.5,0,24.74v14c0,2.06-.11,4.14-.07,6.2.05,2.45,1.24,4,2.22,6.15,1.75,3.82,2.12,8.63,2.62,12.74a58.89,58.89,0,0,0,1.38,7.59,34.2,34.2,0,0,1,.72,7.61,57.08,57.08,0,0,0,1.39,8.78c.57,2.8-.6,6,.09,8.7.89,3.47,4.15,6.46,4.67,10.08.34,2.32-.2,4.72.18,7,.41,2.52,1.21,5,1.37,7.51.2,3.25-1.68,5.21-1.55,8.44"/><path class="beard-1" d="M58.63,62.45C57,63.94,58.18,67,57.83,69c-.46,2.58-1.5,4.8-1.55,7.49-.07,3.22,0,6.47,0,9.69v35.48c0,4.24.89,8.1,1.37,12.3A19.1,19.1,0,0,0,59,140a36.74,36.74,0,0,1,1.75,6c.6,3,1,6,1.53,8.94a32.17,32.17,0,0,1,.13,3.8c.14,2.12.8,4.11.84,6.26,0,3,0,5.95,0,8.92,0,3.77,1.46,7.14,1.59,10.86a41.3,41.3,0,0,1-1.22,9.77c-.48,2.32-.9,5.38-.25,7.71.39,1.42,1.43,2.29,2.33,3.37,1.73,2.09,2.9,4.24,4.88,6.09,3.15,2.94,3.25,9.47,2.7,13.65-.21,1.59-1.29,3-1.72,4.58s-1.2,3.23-1.74,4.88c-1,3.09-1.58,6.24-3.34,9-1,1.59-.94,3.25-1.83,4.95s-2.24,3-3,4.61c-.83,1.85-2.54,4.58-2.26,6.69"/><path class="beard-1" d="M128.33,57.85c-3.94.17-5.71,8.49-6.72,11.32a62.47,62.47,0,0,0-3.2,11.3c-.48,3-.43,6.1-.94,9S116,94.59,116,97.59c0,2,0,4.09,0,6.13a35.18,35.18,0,0,0,3,15.12c1.65,3.7,4.31,7.2,5.08,11.2.2,1.05,0,2.11.22,3.14.42,2.24,2.32,4.07,3.31,6,2.46,4.94,1.45,11.32,1.45,16.74s-.26,10.23,1.47,15.46.6,10.82-.11,16a76.15,76.15,0,0,1-1.42,8.91c-.68,2.61-2,5-2.85,7.56a107.26,107.26,0,0,0-3.63,16.18c-.67,4-.39,8.24-.35,12.33a21.57,21.57,0,0,1-.6,4.47,28.38,28.38,0,0,0-.15,5.38c0,3.31-.8,6.55-.79,9.95a72.19,72.19,0,0,0,.38,10.91,48.2,48.2,0,0,0,.89,6.1c.65,2.28,2.13,4,2.61,6.34.59,2.82.43,5.61,1.67,8.28a11.44,11.44,0,0,1,1.34,5.92,31.64,31.64,0,0,0,0,3.23c.13,1.36.75,2.51.82,3.94.12,2.16-.06,4.37,0,6.54,0,2.75-.59,3.87-1.38,6.3-.38,1.13-.31,2.4-.68,3.53-.43,1.3-1.42,2.21-2,3.41A14.42,14.42,0,0,0,123,322.4c-.17,2.12-1.48,3.6-1.62,5.73-.15,2.3.06,4.69.06,7"/><path class="beard-1" d="M94.63,67c-1.52-.4-1.3.78-1.73,1.86a23.65,23.65,0,0,1-1.74,2.57A11.28,11.28,0,0,0,90,75.86a56.13,56.13,0,0,1-1.86,8.7,82.21,82.21,0,0,0-1.54,11c-.84,7.33-.69,14.86-1.06,22.23-.19,3.92-1.34,7.84-1.71,11.78-.27,2.92-1,5.73-1.33,8.64-.27,2.53-.52,5-.91,7.56-.53,3.36-1.56,6.37-1.51,9.8a171.67,171.67,0,0,0,1.34,17.82c.64,5.33,3.14,10,4.37,15.19s1.53,10.53,2.82,15.67a34.05,34.05,0,0,1,1.48,7.08,24.34,24.34,0,0,0,.58,3.73c.44,2.27.24,4.62.62,6.92.56,3.36.51,7.16,1.44,10.42,1.07,3.78,1.35,7.66,1.87,11.58.35,2.62,0,4.8,1,7.35a34.1,34.1,0,0,1,2,8.28c.83,5.19.12,10.95.18,16.2,0,3.57-.86,5.62-2.7,8.62a6.93,6.93,0,0,0-1.15,3,10.2,10.2,0,0,1-1.56,4.88c-1.45,2.44-1.48,5.17-1.49,8,0,3.13.74,5.11,1.74,8a25.82,25.82,0,0,1,.56,14.55"/><path class="beard-1" d="M153.61,51.72c0,13.19-.77,26.29-.77,39.48v27.16c0,5,.31,10-.49,14.94-.52,3.15-2.27,5.95-2.65,9a46.52,46.52,0,0,0,.08,5.14c0,4.87,0,9.74,0,14.6,0,4.55.78,8.82.77,13.39a16,16,0,0,0,.1,4.09c.71,2.81,2.94,5.57,4.18,8.16,1.34,2.78.75,4.36,1.23,7.22.4,2.42,1.29,4.77,1.41,7.24.32,7,.95,15.76-1.55,22.33-.53,1.38-1.45,2.64-2,4a24.13,24.13,0,0,0-.92,4.2c-.77,4.07-2.52,7.56-2.48,11.76,0,2.65,0,5.31,0,8a36,36,0,0,0-.06,4.4c.28,2.14,1.59,4.34,2.35,6.34.87,2.25,1.6,4.41,2.28,6.68s1.62,4,1.57,6.44c-.08,3.26,0,6.53,0,9.78s-.76,6.17-.76,9.49v9.74"/><path class="beard-1" d="M114.55,69.34c-3.61-.72-5,6.11-6.49,8.13-2.82,3.91-4.48,8.62-5.8,13.23a25,25,0,0,1-1.52,3.7c-.66,1.48-.56,2.71-1.09,4.16a16.13,16.13,0,0,0-1.18,6.57c0,2.24,0,4.48,0,6.72V134.3c0,5.13-.69,11,.16,16.07,1,6,4.12,11.4,4.48,17.54.23,4.14,1.44,8.1,2.53,12.1.7,2.6,1.89,4.43,3.06,6.82a28.28,28.28,0,0,1,1.67,6.17c1,4.39.63,9.1,1.68,13.5a48,48,0,0,1,1,11.78,68.59,68.59,0,0,1-1.15,13.8,42.39,42.39,0,0,0-.38,8.51v19.62c0,4.11-.27,8.35,0,12.45.2,3.3.89,6.43.82,9.8-.06,2.7-1.42,5-2.55,7.48-1.3,2.91-1.27,6.77-1.3,9.95"/><path class="beard-1" d="M137.52,58.62l.66-.12c.51,5.93-1.32,11.72-1.46,17.65-.2,8.59,0,17.2,0,25.79v53.55c0,4.66.64,9.81-.83,14.29A41.76,41.76,0,0,0,134,176c-.46,2.76-.35,5.36-1.25,8.07a78.81,78.81,0,0,0-3.67,25.85c0,2.05-.5,4-.49,6.06a13,13,0,0,0,2.24,6.77c1.48,2.53,1.59,5.69,2.13,8.52.67,3.58,2.28,7.23,3.33,10.76.36,1.22.26,2.28.5,3.49s1,2.36,1.32,3.63a18,18,0,0,1,.12,3.6c.05,1.45.57,2.76.72,4.2.3,2.66.51,5.45,1,8.09,1.07,5.7,2.14,11.37,2.13,17.23,0,2.47.49,5.41-.45,7.68a9.13,9.13,0,0,0-1.1,4c0,1.46,0,2.92,0,4.38"/></g></g></svg>
