<svg xmlns="http://www.w3.org/2000/svg" viewBox="0 0 800 800"><defs><style>.beard-1{fill:#fff;}.beard-1,.beard-2{stroke:#000;stroke-miterlimit:10;stroke-width:8px;}.beard-2{fill:#ffe780;}.beard-3{fill:none;}</style></defs><title>7000_beard_bow_dood</title><g id="Layer_2" data-name="Layer 2"><g id="_7000_beard_bow_dood" data-name="7000_beard_bow_dood"><path class="beard-1" d="M278.49,273.31a182,182,0,0,0-5.94,19.52,247,247,0,0,0-6.84,57.3c0,30.14,11.48,69.9,33.18,88.44,12.06,10.31,28.44,15.91,41.94,23.68q22.4,12.88,44,27.49c4.77,3.22,9.7,6.74,12.4,12.23,3.35,6.83,2.2,17.14.34,24.46-3.2,12.53-13.21,25.42-9,39.12a38.22,38.22,0,0,0,4.5,8.85c6.76,10.83,9.89,23.8,23.39,26,8.46,1.39,17.45-2.94,22.43-10.8-5.21,2-11.52,3.89-15.79,0-7.34-6.78-.85-16.67,1.56-24,2.76-8.4,5.35-17.76,1-25.89a35.14,35.14,0,0,1-4.47-11.86c-2.12-11.69.05-25,7.69-34,9.47-11.09,23.94-11.29,36.37-14.3,13.59-3.29,26.92-8.8,38.2-18.19a96.58,96.58,0,0,0,19.84-23.15c8-13,13.3-30.41,16.26-45.77a141.65,141.65,0,0,0-5.64-75.23c-5.05-13.87-12.28-26.65-16.87-40.72-2-6.08-2.67-11.87-3.47-18.13,0-17.9-3.18-36.68-5-54.48a12.72,12.72,0,0,0-1-4.45c-.67-1.34-2-2.4-3.34-2.16s-2.29,1.63-2.61,3.11a14,14,0,0,0,.06,4.52,158.4,158.4,0,0,1,1.05,22.85c-.12,4.63.78,12.9-.75,17.24-3.59,10.17-20,8.13-27.45,7.43-16-1.49-31.11-8.59-46.71-12.82a133.21,133.21,0,0,0-79.92,3.3c-11.11,4-22.07,9.53-33.73,9.88-4.72.14-10.08.08-12.55-4.15-9.06-15.37-1.2-37.1,2-52.7a13.28,13.28,0,0,0,.3-5.67,5.84,5.84,0,0,0-4-4.36c-11.21-2.84-12.65,27.34-13.08,34.79-.9,15.63-.35,31.61-6,46.3Q279.62,270.16,278.49,273.31Z"/><path class="beard-2" d="M400.58,501.78a5.5,5.5,0,0,1,5.52-3.22c3.07.1,6.15.05,9.23,0a5.09,5.09,0,0,1,4.7,2.74c.19.3.28.58.64.16,4.64-5.5,10.42-9,16.46-12.05a45.93,45.93,0,0,1,10.95-4.17,2.91,2.91,0,0,1,3,1.07,14.75,14.75,0,0,1,2.79,6.07,66.21,66.21,0,0,1,2,16.31,91.06,91.06,0,0,1-1.16,17.92,24.16,24.16,0,0,1-2,6.6c-1.4,2.75-2.87,3.63-5.55,2.84A57.78,57.78,0,0,1,422,521.68c-.46-.46-.89-1-1.31-1.5-.26-.32-.4-.49-.7,0a5.06,5.06,0,0,1-4.71,2.72c-3.27,0-6.54,0-9.8,0a5.07,5.07,0,0,1-4.59-2.64c-.17-.28-.26-.64-.64-.19-4.7,5.62-10.57,9.2-16.73,12.25a45.09,45.09,0,0,1-10.35,3.87,3.82,3.82,0,0,1-4.34-2,20.48,20.48,0,0,1-2.57-7.42,81.26,81.26,0,0,1-1.22-14.12,83.3,83.3,0,0,1,1.38-17.78,26.41,26.41,0,0,1,2.16-6.74,7.34,7.34,0,0,1,1.52-2.15,2.76,2.76,0,0,1,2.57-.81,44.44,44.44,0,0,1,10.51,3.91,55.84,55.84,0,0,1,14.88,10C398.93,500,399.71,500.85,400.58,501.78Z"/><rect class="beard-3" width="800" height="800"/><ellipse class="beard-2" cx="411.09" cy="509.81" rx="12.8" ry="14.94"/></g></g></svg>
