<svg xmlns="http://www.w3.org/2000/svg" viewBox="0 0 800 800"><defs><style>.beard-1{fill:none;}.beard-2{fill:#fff;stroke:#fff;stroke-miterlimit:10;}</style></defs><title>7000_beard_8_bit</title><g id="Layer_2" data-name="Layer 2"><g id="_7000_beard_8_bit" data-name="7000_beard_8_bit"><rect class="beard-1" width="800" height="800"/><rect class="beard-2" x="514.69" y="338.79" width="11.54" height="11.54"/><rect class="beard-2" x="514.69" y="327.26" width="11.54" height="11.53"/><rect class="beard-2" x="514.69" y="315.72" width="11.54" height="11.54"/><rect class="beard-2" x="514.69" y="292.64" width="11.54" height="11.54"/><rect class="beard-2" x="514.69" y="281.1" width="11.54" height="11.54"/><rect class="beard-2" x="514.69" y="269.56" width="11.54" height="11.54"/><rect class="beard-2" x="503.15" y="361.87" width="11.54" height="11.54"/><rect class="beard-2" x="503.15" y="350.33" width="11.54" height="11.54"/><rect class="beard-2" x="503.15" y="338.79" width="11.54" height="11.54"/><rect class="beard-2" x="503.15" y="327.26" width="11.54" height="11.53"/><rect class="beard-2" x="503.15" y="315.72" width="11.54" height="11.54"/><rect class="beard-2" x="503.15" y="304.18" width="11.54" height="11.54"/><rect class="beard-2" x="503.15" y="292.64" width="11.54" height="11.54"/><rect class="beard-2" x="503.15" y="281.1" width="11.54" height="11.54"/><rect class="beard-2" x="503.15" y="269.56" width="11.54" height="11.54"/><rect class="beard-2" x="503.15" y="258.02" width="11.54" height="11.54"/><rect class="beard-2" x="503.15" y="246.49" width="11.54" height="11.53"/><rect class="beard-2" x="503.15" y="234.95" width="11.54" height="11.54"/><rect class="beard-2" x="503.15" y="223.41" width="11.54" height="11.54"/><rect class="beard-2" x="503.15" y="211.87" width="11.54" height="11.54"/><rect class="beard-2" x="503.15" y="200.33" width="11.54" height="11.54"/><rect class="beard-2" x="491.61" y="373.41" width="11.54" height="11.54"/><rect class="beard-2" x="491.61" y="361.87" width="11.54" height="11.54"/><rect class="beard-2" x="491.61" y="350.33" width="11.54" height="11.54"/><rect class="beard-2" x="491.61" y="338.79" width="11.54" height="11.54"/><rect class="beard-2" x="491.61" y="327.26" width="11.54" height="11.53"/><rect class="beard-2" x="491.61" y="315.72" width="11.54" height="11.54"/><rect class="beard-2" x="491.61" y="304.18" width="11.54" height="11.54"/><rect class="beard-2" x="491.61" y="292.64" width="11.54" height="11.54"/><rect class="beard-2" x="491.61" y="281.1" width="11.54" height="11.54"/><rect class="beard-2" x="491.61" y="269.56" width="11.54" height="11.54"/><rect class="beard-2" x="491.61" y="258.02" width="11.54" height="11.54"/><rect class="beard-2" x="491.61" y="246.49" width="11.54" height="11.53"/><rect class="beard-2" x="491.61" y="234.95" width="11.54" height="11.54"/><rect class="beard-2" x="491.61" y="223.41" width="11.54" height="11.54"/><rect class="beard-2" x="491.61" y="211.87" width="11.54" height="11.54"/><rect class="beard-2" x="491.61" y="200.33" width="11.54" height="11.54"/><rect class="beard-2" x="480.07" y="384.95" width="11.54" height="11.54"/><rect class="beard-2" x="480.07" y="373.41" width="11.54" height="11.54"/><rect class="beard-2" x="480.07" y="361.87" width="11.54" height="11.54"/><rect class="beard-2" x="480.07" y="350.33" width="11.54" height="11.54"/><rect class="beard-2" x="480.07" y="338.79" width="11.54" height="11.54"/><rect class="beard-2" x="480.07" y="327.26" width="11.54" height="11.53"/><rect class="beard-2" x="480.07" y="315.72" width="11.54" height="11.54"/><rect class="beard-2" x="480.07" y="304.18" width="11.54" height="11.54"/><rect class="beard-2" x="480.07" y="292.64" width="11.54" height="11.54"/><rect class="beard-2" x="480.07" y="281.1" width="11.54" height="11.54"/><rect class="beard-2" x="480.07" y="269.56" width="11.54" height="11.54"/><rect class="beard-2" x="480.07" y="258.02" width="11.54" height="11.54"/><rect class="beard-2" x="480.07" y="246.49" width="11.54" height="11.53"/><rect class="beard-2" x="480.07" y="234.95" width="11.54" height="11.54"/><rect class="beard-2" x="480.07" y="223.41" width="11.54" height="11.54"/><rect class="beard-2" x="468.54" y="408.02" width="11.53" height="11.54"/><rect class="beard-2" x="468.54" y="396.49" width="11.53" height="11.53"/><rect class="beard-2" x="468.54" y="384.95" width="11.53" height="11.54"/><rect class="beard-2" x="468.54" y="373.41" width="11.53" height="11.54"/><rect class="beard-2" x="468.54" y="361.87" width="11.53" height="11.54"/><rect class="beard-2" x="468.54" y="350.33" width="11.53" height="11.54"/><rect class="beard-2" x="468.54" y="338.79" width="11.53" height="11.54"/><rect class="beard-2" x="468.54" y="327.26" width="11.53" height="11.53"/><rect class="beard-2" x="468.54" y="315.72" width="11.53" height="11.54"/><rect class="beard-2" x="468.54" y="304.18" width="11.53" height="11.54"/><rect class="beard-2" x="468.54" y="292.64" width="11.53" height="11.54"/><rect class="beard-2" x="468.54" y="281.1" width="11.53" height="11.54"/><rect class="beard-2" x="468.54" y="269.56" width="11.53" height="11.54"/><rect class="beard-2" x="468.54" y="258.02" width="11.53" height="11.54"/><rect class="beard-2" x="468.54" y="246.49" width="11.53" height="11.53"/><rect class="beard-2" x="468.54" y="234.95" width="11.53" height="11.54"/><rect class="beard-2" x="457" y="419.56" width="11.54" height="11.54"/><rect class="beard-2" x="457" y="408.02" width="11.54" height="11.54"/><rect class="beard-2" x="457" y="396.49" width="11.54" height="11.53"/><rect class="beard-2" x="457" y="384.95" width="11.54" height="11.54"/><rect class="beard-2" x="457" y="373.41" width="11.54" height="11.54"/><rect class="beard-2" x="457" y="361.87" width="11.54" height="11.54"/><rect class="beard-2" x="457" y="350.33" width="11.54" height="11.54"/><rect class="beard-2" x="457" y="338.79" width="11.54" height="11.54"/><rect class="beard-2" x="457" y="327.26" width="11.54" height="11.53"/><rect class="beard-2" x="457" y="315.72" width="11.54" height="11.54"/><rect class="beard-2" x="457" y="304.18" width="11.54" height="11.54"/><rect class="beard-2" x="457" y="292.64" width="11.54" height="11.54"/><rect class="beard-2" x="457" y="281.1" width="11.54" height="11.54"/><rect class="beard-2" x="445.46" y="408.02" width="11.54" height="11.54"/><rect class="beard-2" x="445.46" y="396.49" width="11.54" height="11.53"/><rect class="beard-2" x="445.46" y="384.95" width="11.54" height="11.54"/><rect class="beard-2" x="445.46" y="373.41" width="11.54" height="11.54"/><rect class="beard-2" x="445.46" y="361.87" width="11.54" height="11.54"/><rect class="beard-2" x="445.46" y="350.33" width="11.54" height="11.54"/><rect class="beard-2" x="445.46" y="338.79" width="11.54" height="11.54"/><rect class="beard-2" x="445.46" y="327.26" width="11.54" height="11.53"/><rect class="beard-2" x="445.46" y="315.72" width="11.54" height="11.54"/><rect class="beard-2" x="445.46" y="304.18" width="11.54" height="11.54"/><rect class="beard-2" x="445.46" y="292.64" width="11.54" height="11.54"/><rect class="beard-2" x="445.46" y="281.1" width="11.54" height="11.54"/><rect class="beard-2" x="433.92" y="396.49" width="11.54" height="11.53"/><rect class="beard-2" x="433.92" y="384.95" width="11.54" height="11.54"/><rect class="beard-2" x="433.92" y="373.41" width="11.54" height="11.54"/><rect class="beard-2" x="433.92" y="361.87" width="11.54" height="11.54"/><rect class="beard-2" x="433.92" y="350.33" width="11.54" height="11.54"/><rect class="beard-2" x="433.92" y="338.79" width="11.54" height="11.54"/><rect class="beard-2" x="433.92" y="327.26" width="11.54" height="11.53"/><rect class="beard-2" x="433.92" y="315.72" width="11.54" height="11.54"/><rect class="beard-2" x="433.92" y="304.18" width="11.54" height="11.54"/><rect class="beard-2" x="433.92" y="292.64" width="11.54" height="11.54"/><rect class="beard-2" x="433.92" y="281.1" width="11.54" height="11.54"/><rect class="beard-2" x="422.38" y="408.02" width="11.54" height="11.54"/><rect class="beard-2" x="422.38" y="396.49" width="11.54" height="11.53"/><rect class="beard-2" x="422.38" y="384.95" width="11.54" height="11.54"/><rect class="beard-2" x="422.38" y="373.41" width="11.54" height="11.54"/><rect class="beard-2" x="422.38" y="361.87" width="11.54" height="11.54"/><rect class="beard-2" x="422.38" y="350.33" width="11.54" height="11.54"/><rect class="beard-2" x="422.38" y="338.79" width="11.54" height="11.54"/><rect class="beard-2" x="422.38" y="327.26" width="11.54" height="11.53"/><rect class="beard-2" x="422.38" y="315.72" width="11.54" height="11.54"/><rect class="beard-2" x="422.38" y="304.18" width="11.54" height="11.54"/><rect class="beard-2" x="422.38" y="292.64" width="11.54" height="11.54"/><rect class="beard-2" x="422.38" y="281.1" width="11.54" height="11.54"/><rect class="beard-2" x="410.84" y="408.02" width="11.54" height="11.54"/><rect class="beard-2" x="410.84" y="396.49" width="11.54" height="11.53"/><rect class="beard-2" x="410.84" y="384.95" width="11.54" height="11.54"/><rect class="beard-2" x="410.84" y="373.41" width="11.54" height="11.54"/><rect class="beard-2" x="410.84" y="361.87" width="11.54" height="11.54"/><rect class="beard-2" x="410.84" y="350.33" width="11.54" height="11.54"/><rect class="beard-2" x="410.84" y="338.79" width="11.54" height="11.54"/><rect class="beard-2" x="410.84" y="327.26" width="11.54" height="11.53"/><rect class="beard-2" x="410.84" y="315.72" width="11.54" height="11.54"/><rect class="beard-2" x="410.84" y="304.18" width="11.54" height="11.54"/><rect class="beard-2" x="410.84" y="292.64" width="11.54" height="11.54"/><rect class="beard-2" x="410.84" y="281.1" width="11.54" height="11.54"/><rect class="beard-2" x="410.84" y="269.56" width="11.54" height="11.54"/><rect class="beard-2" x="399.3" y="408.02" width="11.54" height="11.54"/><rect class="beard-2" x="399.3" y="396.49" width="11.54" height="11.53"/><rect class="beard-2" x="399.3" y="384.95" width="11.54" height="11.54"/><rect class="beard-2" x="399.3" y="373.41" width="11.54" height="11.54"/><rect class="beard-2" x="399.3" y="361.87" width="11.54" height="11.54"/><rect class="beard-2" x="399.3" y="350.33" width="11.54" height="11.54"/><rect class="beard-2" x="399.3" y="338.79" width="11.54" height="11.54"/><rect class="beard-2" x="399.3" y="327.26" width="11.54" height="11.53"/><rect class="beard-2" x="399.3" y="315.72" width="11.54" height="11.54"/><rect class="beard-2" x="399.3" y="304.18" width="11.54" height="11.54"/><rect class="beard-2" x="399.3" y="292.64" width="11.54" height="11.54"/><rect class="beard-2" x="399.3" y="281.1" width="11.54" height="11.54"/><rect class="beard-2" x="399.3" y="269.56" width="11.54" height="11.54"/><rect class="beard-2" x="399.3" y="258.02" width="11.54" height="11.54"/><rect class="beard-2" x="387.77" y="419.56" width="11.53" height="11.54"/><rect class="beard-2" x="387.77" y="408.02" width="11.53" height="11.54"/><rect class="beard-2" x="387.77" y="396.49" width="11.53" height="11.53"/><rect class="beard-2" x="387.77" y="384.95" width="11.53" height="11.54"/><rect class="beard-2" x="387.77" y="373.41" width="11.53" height="11.54"/><rect class="beard-2" x="387.77" y="361.87" width="11.53" height="11.54"/><rect class="beard-2" x="387.77" y="350.33" width="11.53" height="11.54"/><rect class="beard-2" x="387.77" y="338.79" width="11.53" height="11.54"/><rect class="beard-2" x="387.77" y="327.26" width="11.53" height="11.53"/><rect class="beard-2" x="387.77" y="315.72" width="11.53" height="11.54"/><rect class="beard-2" x="387.77" y="304.18" width="11.53" height="11.54"/><rect class="beard-2" x="387.77" y="292.64" width="11.53" height="11.54"/><rect class="beard-2" x="387.77" y="281.1" width="11.53" height="11.54"/><rect class="beard-2" x="387.77" y="269.56" width="11.53" height="11.54"/><rect class="beard-2" x="387.77" y="258.02" width="11.53" height="11.54"/><rect class="beard-2" x="376.23" y="419.56" width="11.54" height="11.54"/><rect class="beard-2" x="376.23" y="408.02" width="11.54" height="11.54"/><rect class="beard-2" x="376.23" y="396.49" width="11.54" height="11.53"/><rect class="beard-2" x="376.23" y="384.95" width="11.54" height="11.54"/><rect class="beard-2" x="376.23" y="373.41" width="11.54" height="11.54"/><rect class="beard-2" x="376.23" y="361.87" width="11.54" height="11.54"/><rect class="beard-2" x="376.23" y="350.33" width="11.54" height="11.54"/><rect class="beard-2" x="376.23" y="338.79" width="11.54" height="11.54"/><rect class="beard-2" x="376.23" y="327.26" width="11.54" height="11.53"/><rect class="beard-2" x="376.23" y="315.72" width="11.54" height="11.54"/><rect class="beard-2" x="376.23" y="304.18" width="11.54" height="11.54"/><rect class="beard-2" x="376.23" y="292.64" width="11.54" height="11.54"/><rect class="beard-2" x="376.23" y="281.1" width="11.54" height="11.54"/><rect class="beard-2" x="376.23" y="269.56" width="11.54" height="11.54"/><rect class="beard-2" x="376.23" y="258.02" width="11.54" height="11.54"/><rect class="beard-2" x="364.69" y="419.56" width="11.54" height="11.54"/><rect class="beard-2" x="364.69" y="408.02" width="11.54" height="11.54"/><rect class="beard-2" x="364.69" y="396.49" width="11.54" height="11.53"/><rect class="beard-2" x="364.69" y="384.95" width="11.54" height="11.54"/><rect class="beard-2" x="364.69" y="373.41" width="11.54" height="11.54"/><rect class="beard-2" x="364.69" y="361.87" width="11.54" height="11.54"/><rect class="beard-2" x="364.69" y="350.33" width="11.54" height="11.54"/><rect class="beard-2" x="364.69" y="338.79" width="11.54" height="11.54"/><rect class="beard-2" x="364.69" y="327.26" width="11.54" height="11.53"/><rect class="beard-2" x="364.69" y="315.72" width="11.54" height="11.54"/><rect class="beard-2" x="364.69" y="304.18" width="11.54" height="11.54"/><rect class="beard-2" x="364.69" y="292.64" width="11.54" height="11.54"/><rect class="beard-2" x="364.69" y="281.1" width="11.54" height="11.54"/><rect class="beard-2" x="364.69" y="269.56" width="11.54" height="11.54"/><rect class="beard-2" x="364.69" y="258.02" width="11.54" height="11.54"/><rect class="beard-2" x="353.15" y="408.02" width="11.54" height="11.54"/><rect class="beard-2" x="353.15" y="396.49" width="11.54" height="11.53"/><rect class="beard-2" x="353.15" y="384.95" width="11.54" height="11.54"/><rect class="beard-2" x="353.15" y="373.41" width="11.54" height="11.54"/><rect class="beard-2" x="353.15" y="361.87" width="11.54" height="11.54"/><rect class="beard-2" x="353.15" y="350.33" width="11.54" height="11.54"/><rect class="beard-2" x="353.15" y="338.79" width="11.54" height="11.54"/><rect class="beard-2" x="353.15" y="327.26" width="11.54" height="11.53"/><rect class="beard-2" x="353.15" y="315.72" width="11.54" height="11.54"/><rect class="beard-2" x="353.15" y="304.18" width="11.54" height="11.54"/><rect class="beard-2" x="353.15" y="292.64" width="11.54" height="11.54"/><rect class="beard-2" x="353.15" y="281.1" width="11.54" height="11.54"/><rect class="beard-2" x="353.15" y="269.56" width="11.54" height="11.54"/><rect class="beard-2" x="341.61" y="396.49" width="11.54" height="11.53"/><rect class="beard-2" x="341.61" y="384.95" width="11.54" height="11.54"/><rect class="beard-2" x="341.61" y="373.41" width="11.54" height="11.54"/><rect class="beard-2" x="341.61" y="361.87" width="11.54" height="11.54"/><rect class="beard-2" x="341.61" y="350.33" width="11.54" height="11.54"/><rect class="beard-2" x="341.61" y="338.79" width="11.54" height="11.54"/><rect class="beard-2" x="341.61" y="327.26" width="11.54" height="11.53"/><rect class="beard-2" x="341.61" y="315.72" width="11.54" height="11.54"/><rect class="beard-2" x="341.61" y="304.18" width="11.54" height="11.54"/><rect class="beard-2" x="341.61" y="292.64" width="11.54" height="11.54"/><rect class="beard-2" x="341.61" y="281.1" width="11.54" height="11.54"/><rect class="beard-2" x="341.61" y="269.56" width="11.54" height="11.54"/><rect class="beard-2" x="330.07" y="396.49" width="11.54" height="11.53"/><rect class="beard-2" x="330.07" y="384.95" width="11.54" height="11.54"/><rect class="beard-2" x="330.07" y="373.41" width="11.54" height="11.54"/><rect class="beard-2" x="330.07" y="361.87" width="11.54" height="11.54"/><rect class="beard-2" x="330.07" y="350.33" width="11.54" height="11.54"/><rect class="beard-2" x="330.07" y="338.79" width="11.54" height="11.54"/><rect class="beard-2" x="330.07" y="327.26" width="11.54" height="11.53"/><rect class="beard-2" x="330.07" y="315.72" width="11.54" height="11.54"/><rect class="beard-2" x="330.07" y="304.18" width="11.54" height="11.54"/><rect class="beard-2" x="330.07" y="292.64" width="11.54" height="11.54"/><rect class="beard-2" x="330.07" y="281.1" width="11.54" height="11.54"/><rect class="beard-2" x="330.07" y="269.56" width="11.54" height="11.54"/><rect class="beard-2" x="330.07" y="258.02" width="11.54" height="11.54"/><rect class="beard-2" x="318.54" y="384.95" width="11.53" height="11.54"/><rect class="beard-2" x="318.54" y="373.41" width="11.53" height="11.54"/><rect class="beard-2" x="318.54" y="361.87" width="11.53" height="11.54"/><rect class="beard-2" x="318.54" y="350.33" width="11.53" height="11.54"/><rect class="beard-2" x="318.54" y="338.79" width="11.53" height="11.54"/><rect class="beard-2" x="318.54" y="327.26" width="11.53" height="11.53"/><rect class="beard-2" x="318.54" y="315.72" width="11.53" height="11.54"/><rect class="beard-2" x="318.54" y="304.18" width="11.53" height="11.54"/><rect class="beard-2" x="318.54" y="292.64" width="11.53" height="11.54"/><rect class="beard-2" x="318.54" y="281.1" width="11.53" height="11.54"/><rect class="beard-2" x="318.54" y="269.56" width="11.53" height="11.54"/><rect class="beard-2" x="318.54" y="258.02" width="11.53" height="11.54"/><rect class="beard-2" x="307" y="373.41" width="11.54" height="11.54"/><rect class="beard-2" x="307" y="361.87" width="11.54" height="11.54"/><rect class="beard-2" x="307" y="350.33" width="11.54" height="11.54"/><rect class="beard-2" x="307" y="338.79" width="11.54" height="11.54"/><rect class="beard-2" x="307" y="327.26" width="11.54" height="11.53"/><rect class="beard-2" x="307" y="315.72" width="11.54" height="11.54"/><rect class="beard-2" x="307" y="304.18" width="11.54" height="11.54"/><rect class="beard-2" x="307" y="292.64" width="11.54" height="11.54"/><rect class="beard-2" x="307" y="281.1" width="11.54" height="11.54"/><rect class="beard-2" x="307" y="269.56" width="11.54" height="11.54"/><rect class="beard-2" x="307" y="258.02" width="11.54" height="11.54"/><rect class="beard-2" x="295.46" y="361.87" width="11.54" height="11.54"/><rect class="beard-2" x="295.46" y="350.33" width="11.54" height="11.54"/><rect class="beard-2" x="295.46" y="338.79" width="11.54" height="11.54"/><rect class="beard-2" x="295.46" y="327.26" width="11.54" height="11.53"/><rect class="beard-2" x="295.46" y="315.72" width="11.54" height="11.54"/><rect class="beard-2" x="295.46" y="304.18" width="11.54" height="11.54"/><rect class="beard-2" x="295.46" y="292.64" width="11.54" height="11.54"/><rect class="beard-2" x="295.46" y="281.1" width="11.54" height="11.54"/><rect class="beard-2" x="295.46" y="269.56" width="11.54" height="11.54"/><rect class="beard-2" x="295.46" y="258.02" width="11.54" height="11.54"/><rect class="beard-2" x="295.46" y="246.49" width="11.54" height="11.53"/><rect class="beard-2" x="295.46" y="234.95" width="11.54" height="11.54"/><rect class="beard-2" x="295.46" y="223.41" width="11.54" height="11.54"/><rect class="beard-2" x="295.46" y="211.87" width="11.54" height="11.54"/><rect class="beard-2" x="283.92" y="350.33" width="11.54" height="11.54"/><rect class="beard-2" x="283.92" y="338.79" width="11.54" height="11.54"/><rect class="beard-2" x="283.92" y="327.26" width="11.54" height="11.53"/><rect class="beard-2" x="283.92" y="304.18" width="11.54" height="11.54"/></g></g></svg>
