<svg xmlns="http://www.w3.org/2000/svg" viewBox="0 0 800 800"><defs><style>.beard-1,.beard-2{fill:none;}.beard-1{stroke:#fff;stroke-linecap:round;stroke-miterlimit:10;stroke-width:10px;}</style></defs><title>7000_beard_white_string_thick</title><g id="Layer_2" data-name="Layer 2"><g id="_7000_beard_white_string_thick" data-name="7000_beard_white_string_thick"><path class="beard-1" d="M299,202.53c-.15-1.09-1.29-1-2.17-.64-.08,1.75-1.57,2.85-2.12,4.46-.71,2.06-.33,4.34-1,6.49-1,3.22-.89,6.26-.85,9.66,0,3.23,2.25,5.95,3,9.15.4,1.77,1.13,2.57,2,4.2,1.19,2.12.82,3.2,1.25,5.4.39,2,1.31,3.31,1.41,5.33.08,1.63.49,3,.69,4.61a74,74,0,0,1,.84,9.2v8.91c0,1.28.44,3.26.08,4.48-.23.73-.93.89-1.27,1.52a3.84,3.84,0,0,0-.34,2.43,35.72,35.72,0,0,1-.6,9.09c-.6,2.63-.17,5.71-.17,8.41v59.51c0,3.52,0,7,0,10.56a19.8,19.8,0,0,1-.37,4.64c-.18.78-.31,1.62-.53,2.4-.4,1.41-1.7,2.46-2.07,3.76a6.7,6.7,0,0,0,.46,4.26c.64,2,1,4,1.53,6a70.74,70.74,0,0,0,4.81,12.26"/><path class="beard-1" d="M498.19,392.49c-.08-3.89-1.2-6.69-2.32-10.45-.59-2-1.11-3.93-1.83-5.88-.55-1.46-.3-2.91-.9-4.35-.81-2-1.59-2.35,0-4.21,1.13-1.3,1.84-2.05,2-3.86.11-1.26-.27-2.21.39-3.43.9-1.67,1.77-2.09,2.27-4.17a13.78,13.78,0,0,1,1.9-5,7.92,7.92,0,0,0,1.48-3c.51-2.67.12-6.06.06-8.79s-1.51-5.22-1.53-8.1c0-.91.07-1.83,0-2.73-.08-1.88-1.08-3.33-1.44-5.17-.3-1.54,0-3.07-.19-4.61a38.82,38.82,0,0,1-.72-5.79,45.34,45.34,0,0,1,.72-6.93c.38-2.28,2-3.81,2.63-6a22,22,0,0,0,.48-5.11c.13-2.27,1.22-4.54,1.74-6.77a33.07,33.07,0,0,0,1.34-7.95c0-2.73,0-5.47,0-8.21v-6.58c0-1.26.46-3.48.08-4.7s-1.37-1.92-1.64-3.29c-.69-3.49-1.56-7-2.48-10.5a68,68,0,0,1-1.32-9.17,63.92,63.92,0,0,1-.77-8.2v-7.08c0-10.47-1.53-12.51-1.53-23"/><path class="beard-1" d="M358,253.85c1.83,0,2.55-.47,3.12,1.29a25.46,25.46,0,0,1,.75,4.66c.14,1.88.11,3.72.33,5.63.45,3.95,1.87,7.4,2.56,11.31.34,1.9.22,4.46.84,6.24.23.67,1,1,1.25,1.64a5.87,5.87,0,0,1,.37,2.09c.5,4.12,2.19,8,1.33,12.26a61.59,61.59,0,0,0-1.39,9.23c-.08,2.06.05,4.15,0,6.22,0,2.31.56,3.9.8,6.09.41,3.74.37,7.69,1.49,11.33,1,3.39.25,6.64,1.06,10,.61,2.52,2.56,4.54,2.85,7.07a13.14,13.14,0,0,1-.25,3.19,110.74,110.74,0,0,0-.6,15c0,2.11,0,4.21,0,6.32,0,1.72.23,4-.34,5.74-.42,1.31-1.48,2.46-1.89,3.79-.24.8-.05,1.78-.25,2.58-.26,1-.88,2.07-1.21,3.07-.68,2-.64,4.16-1.13,6.21-.44,1.85-.42,3.75-.74,5.71s-.14,5.22-1.11,7a35,35,0,0,0-2.49,4.78c-.95,2.41-2,4.85-3.11,7.18s-1.93,3.6-2.31,6c-.22,1.36-.6,2.57-.76,3.93-.49,4.16-3.5,8.66-2.22,12.9a6.46,6.46,0,0,0,1.65,2.51,6.23,6.23,0,0,1,1.41,2.85,29.09,29.09,0,0,0,2.38,5.41c1,1.73,2.54,3.2,3.55,4.94.9,1.57.39,1.73.85,3.08.55,1.59,1.6,2.55,2.19,4.13,1.62,4.33.9,9.61.9,14.12v8.92"/><path class="beard-1" d="M454.53,253.85c-1.31,1.29-.79,3.61-.77,5.28,0,1.91-.27,3.92-.07,5.81.21,2.08,1.4,3.91,1.73,6a46,46,0,0,1,.65,7.77c-.05,5.55,0,11.1,0,16.64,0,5,.33,10-.59,14.86-1.47,7.76-2.38,16.25-1.15,24.11,1.06,6.74,1,13.32,1,20.13,0,6.64.64,13.39-1,19.83A64.86,64.86,0,0,0,453,384.6c-.26,3.37-1.28,6.65-1.58,9.95a27.18,27.18,0,0,0,1.1,10.6c.52,1.75,1,3.2,1.65,4.92.86,2.17.19,4.49,1.05,6.75.69,1.82,1.65,3.52,2.41,5.31,1,2.3,2.26,3.63,3.67,5.65.7,1,.92,2.22,1.61,3.23,1.1,1.61,1.52,1.23,1.57,3.16.12,4,.09,7.69-1.54,11.43-1.16,2.68-2.75,5-3.81,7.78-.51,1.35-1.41,2.43-1.59,3.84a28.09,28.09,0,0,1-.31,3.48c-.43,1.72-1.58,3.34-1.91,5a21.61,21.61,0,0,0,0,4.18"/><path class="beard-1" d="M309,220.91c.48,4.32,2.79,8.1,3.47,12.28.2,1.18,0,2.39.24,3.56.37,2.41,1.5,3.51,2.5,5.54s.63,3.65.65,5.8a28.78,28.78,0,0,0,1.53,9c1.71,4.14,2.1,8.43,3.87,12.62,2.58,6.11,1.46,13.58,1.54,20.16.05,3.41-1.91,4.9-3.36,7.92-.52,1.08-.25,1.58-.5,2.71a14.75,14.75,0,0,1-1.45,2.89,10.78,10.78,0,0,0-.82,3.95c-.23,2.51-1.51,2.76-2.76,4.88-1,1.65-1.1,3.82-2,5.56-1.06,2.12-2.42,4-3.08,6.24-.49,1.69-.47,3.45-.82,5.16a49.28,49.28,0,0,0-1.32,6.32c-.26,3.61-.93,7-.84,10.73.11,4.76,2.52,8.9,4.21,13.22,1.42,3.65,3.91,7.58,4.25,11.41.1,1.15,0,2.28.06,3.43.2,3,1.49,4.63,2.51,7.27.86,2.22.51,4.57,1,6.86a14.13,14.13,0,0,0,2.29,5.63c.46.67.95.86,1.18,1.66.38,1.35-.1,3.75-.09,5.17a41.84,41.84,0,0,1,0,5.71c-.51,3.58-2.93,7-4.42,10.28-1.38,3-1.61,6.07-2.66,9.19-.83,2.48-.51,5.23-2.85,7"/><path class="beard-1" d="M489,220.15c0,3.07-.61,5.86-.79,8.86-.14,2.13,0,4.32,0,6.46,0,4.92.65,10.32-.55,15.14-.35,1.44-.92,2.82-1.22,4.28a19.63,19.63,0,0,0-.35,2.85c-.2,3.44-.8,6.86-1,10.28-.11,2.14,0,4.36,0,6.51a46,46,0,0,0,1.17,8.35,31.56,31.56,0,0,1,.42,8.08c-.08,1.48-.7,2.83-.84,4.29s0,2.88,0,4.26c0,1.81,0,3.62,0,5.43,0,2.67.77,4.21,1.42,6.72.81,3.11-.5,6.43.58,9.48a12.49,12.49,0,0,1,1.1,4.92,23.18,23.18,0,0,0,.36,4.78c1.41,7.19.05,15.13-.38,22.33-.09,1.56-.66,2.89-.81,4.43s.22,3.16.1,4.72c-.24,3.08-2.53,5.9-3.08,8.95-.45,2.43,0,5.33,0,7.82v12.2c0,2.47-.33,5.12.17,7.54.8,3.88,2,7.65,2.53,11.65.25,2,.11,4.16.7,6.09a19.66,19.66,0,0,1,1.19,7c0,2.42.25,5,0,7.38a21.21,21.21,0,0,1-2.62,7.52c-.8,1.58-1,3.23-1.69,4.82s-2.12,2.5-1.85,4.38"/><path class="beard-1" d="M336.57,250c-1.34.41-1.43,6.31-1.62,7.67-.58,4.12-.59,8.06-2.21,11.95-1.53,3.69-3.2,7.85-3.69,11.83-.45,3.65.36,7.43-.31,11a21.84,21.84,0,0,1-1.36,5,5.53,5.53,0,0,0-.78,3.17c.08,3-.06,6.06,0,9.09,0,2.54,1.65,3.71,2.64,5.84.66,1.41.3,2.66.8,4.11,1.47,4.23,1.56,8.59,2.16,13.08.45,3.41,1.24,6.63,1.32,10.05a14.21,14.21,0,0,0,1.17,5,16.87,16.87,0,0,1,1.16,7.11c-.05,3.38,0,6.77,0,10.15s.43,6.56.74,9.92c.19,2,.48,4.1.85,6.08.29,1.56,1.18,2.4,1.82,3.8,1.19,2.58.52,6.77.45,9.61-.08,3.18-.82,6.21-.8,9.43,0,4,0,8,0,12.07,0,3.44.66,6.78.75,10.21.1,3.66,2.41,6.84,2.38,10.48a11,11,0,0,1-.78,4.08c-.7,1.62-2.14,2.5-3,4-.69,1.27-1.25,2.45-2.06,3.71-.65,1-2.65,3.22-2.69,4.52"/><path class="beard-1" d="M473.68,253.09a11.33,11.33,0,0,1-.44,4.61c-.64,1.59-1.26,3-1.82,4.68a125.23,125.23,0,0,0-4.05,13.14c-.7,3.09-2.18,6-2.75,9.09-.47,2.6,0,5.32-.19,7.95s-.69,5.23-.74,7.9c-.12,8.24,0,16.5,0,24.74v14c0,2.06-.11,4.14-.07,6.2.05,2.45,1.24,4,2.23,6.15,1.74,3.82,2.11,8.62,2.61,12.74a59.52,59.52,0,0,0,1.38,7.59,34.15,34.15,0,0,1,.72,7.61,58.52,58.52,0,0,0,1.39,8.78c.57,2.8-.6,6,.09,8.7.89,3.47,4.15,6.46,4.67,10.08.34,2.32-.2,4.72.18,7.05.41,2.52,1.21,5,1.37,7.51.2,3.24-1.68,5.21-1.55,8.44"/><path class="beard-1" d="M346.53,256.91c-1.68,1.5-.45,4.57-.8,6.53-.46,2.57-1.5,4.79-1.55,7.49-.07,3.22.05,6.47.05,9.69V316.1c0,4.24.89,8.1,1.37,12.29a19.1,19.1,0,0,0,1.31,6,35.52,35.52,0,0,1,1.75,6c.6,3,1,6,1.53,8.94a32.17,32.17,0,0,1,.13,3.8c.15,2.12.8,4.1.84,6.25,0,3,0,6,0,8.93,0,3.77,1.46,7.13,1.59,10.86A41.3,41.3,0,0,1,351.5,389c-.48,2.32-.9,5.38-.25,7.71.39,1.41,1.43,2.28,2.33,3.37,1.73,2.09,2.9,4.24,4.88,6.09,3.15,2.94,3.25,9.47,2.7,13.65-.2,1.59-1.29,3-1.72,4.58s-1.2,3.23-1.74,4.87c-1,3.1-1.58,6.25-3.34,9-1,1.59-.94,3.25-1.83,5s-2.24,3-3,4.61c-.83,1.85-2.54,4.58-2.26,6.69"/><path class="beard-1" d="M416.23,252.32c-3.94.17-5.71,8.49-6.72,11.31a62.8,62.8,0,0,0-3.2,11.31c-.48,3-.43,6.1-.94,9s-1.49,5.08-1.43,8.08c.05,2,.05,4.09,0,6.13a35.07,35.07,0,0,0,3,15.12c1.64,3.7,4.3,7.2,5.07,11.19.2,1.06,0,2.12.22,3.15.42,2.23,2.33,4.07,3.31,6.05C418,338.64,417,345,417,350.44s-.26,10.23,1.47,15.46.6,10.81-.11,16a76.15,76.15,0,0,1-1.42,8.91c-.68,2.61-2,5-2.85,7.56a107.26,107.26,0,0,0-3.63,16.18c-.67,4-.39,8.24-.35,12.33a21.57,21.57,0,0,1-.6,4.47,28.38,28.38,0,0,0-.15,5.38c0,3.31-.8,6.55-.79,10a73.57,73.57,0,0,0,.38,10.91,47.79,47.79,0,0,0,.89,6.09c.65,2.28,2.13,4,2.62,6.35.58,2.81.42,5.61,1.66,8.28a11.42,11.42,0,0,1,1.34,5.92,31.44,31.44,0,0,0,0,3.22c.13,1.36.75,2.52.82,3.95.12,2.16,0,4.37,0,6.54,0,2.75-.59,3.87-1.38,6.3-.37,1.13-.31,2.4-.68,3.53-.43,1.3-1.42,2.21-2,3.41a14.41,14.41,0,0,0-1.27,5.64c-.17,2.12-1.48,3.61-1.62,5.74-.15,2.3.06,4.69.06,7"/><path class="beard-1" d="M382.53,261.51c-1.52-.41-1.3.78-1.73,1.86a22.29,22.29,0,0,1-1.74,2.57,11.18,11.18,0,0,0-1.19,4.39A57.61,57.61,0,0,1,376,279a82.21,82.21,0,0,0-1.54,11c-.84,7.33-.69,14.85-1.06,22.22-.19,3.93-1.34,7.85-1.71,11.78-.27,2.93-1,5.74-1.33,8.65-.27,2.53-.52,5-.91,7.56-.53,3.35-1.56,6.37-1.51,9.8a171.88,171.88,0,0,0,1.34,17.82c.64,5.32,3.14,10,4.37,15.19s1.53,10.52,2.82,15.67a34.05,34.05,0,0,1,1.48,7.08,24.34,24.34,0,0,0,.58,3.73c.44,2.27.24,4.61.62,6.92.56,3.36.51,7.16,1.44,10.41,1.08,3.79,1.35,7.67,1.87,11.58.35,2.63,0,4.81,1,7.36a34.1,34.1,0,0,1,1.95,8.28c.83,5.19.12,11,.18,16.2,0,3.57-.86,5.62-2.7,8.62a6.93,6.93,0,0,0-1.15,3,10.2,10.2,0,0,1-1.56,4.88c-1.45,2.44-1.48,5.17-1.49,8,0,3.14.74,5.12,1.74,8a25.82,25.82,0,0,1,.56,14.55"/><path class="beard-1" d="M441.51,246.19c0,13.18-.77,26.29-.77,39.48v27.16c0,4.95.32,10-.49,14.94-.52,3.15-2.27,6-2.64,9a44,44,0,0,0,.07,5.13c0,4.87,0,9.74,0,14.61,0,4.55.78,8.82.77,13.39a16,16,0,0,0,.1,4.09c.71,2.8,2.94,5.57,4.18,8.16,1.34,2.78.75,4.36,1.23,7.22.4,2.42,1.29,4.77,1.41,7.24.32,7,.95,15.76-1.55,22.33-.53,1.38-1.45,2.63-2,3.95a25.42,25.42,0,0,0-.92,4.21c-.77,4.07-2.52,7.56-2.48,11.76,0,2.65,0,5.3,0,8a36.11,36.11,0,0,0-.06,4.41c.28,2.14,1.59,4.33,2.35,6.34.87,2.25,1.6,4.41,2.28,6.68s1.63,4,1.57,6.44c-.07,3.25,0,6.52,0,9.78s-.76,6.17-.76,9.49v9.73"/><path class="beard-1" d="M402.45,263.81c-3.61-.73-5,6.11-6.49,8.13-2.82,3.91-4.48,8.62-5.8,13.23a25.91,25.91,0,0,1-1.52,3.7c-.66,1.48-.56,2.71-1.08,4.16a16,16,0,0,0-1.19,6.57c0,2.24,0,4.48,0,6.72v22.45c0,5.13-.69,11,.16,16.07,1,6,4.12,11.4,4.48,17.54.24,4.14,1.44,8.1,2.53,12.1.7,2.59,1.89,4.43,3.06,6.81a28.51,28.51,0,0,1,1.67,6.18c1,4.39.63,9.1,1.68,13.5a48,48,0,0,1,1,11.78,67.87,67.87,0,0,1-1.15,13.8,42.32,42.32,0,0,0-.38,8.51v19.62c0,4.11-.27,8.35,0,12.45.2,3.3.89,6.43.82,9.8-.06,2.7-1.42,5-2.55,7.47-1.3,2.92-1.27,6.78-1.3,10"/><path class="beard-1" d="M425.43,253.09l.65-.12c.52,5.93-1.32,11.72-1.46,17.65-.19,8.58,0,17.2,0,25.78V350c0,4.66.64,9.81-.82,14.29a41.67,41.67,0,0,0-1.91,6.21c-.46,2.77-.35,5.37-1.25,8.07A78.87,78.87,0,0,0,417,404.39c0,2-.5,4-.49,6.06a13,13,0,0,0,2.24,6.77c1.48,2.53,1.59,5.69,2.13,8.52.67,3.57,2.28,7.23,3.33,10.76a32.76,32.76,0,0,1,.5,3.48c.26,1.28,1,2.37,1.32,3.64a17.29,17.29,0,0,1,.12,3.6c0,1.45.57,2.76.72,4.19.3,2.67.51,5.46,1,8.1,1.07,5.7,2.14,11.37,2.13,17.23,0,2.47.5,5.4-.45,7.67a9.17,9.17,0,0,0-1.1,4c0,1.46,0,2.93,0,4.39"/><rect class="beard-2" width="800" height="800"/></g></g></svg>
