<svg xmlns="http://www.w3.org/2000/svg" viewBox="0 0 800 800"><defs><style>.beard-1{fill:none;}.beard-2{fill:#fff;}</style></defs><title>7000_beard_mutton_chops</title><g id="Layer_2" data-name="Layer 2"><g id="_7000_beard_mutton_chops" data-name="7000_beard_mutton_chops"><rect class="beard-1" width="800" height="800"/><path class="beard-2" d="M316.21,354.67a16,16,0,0,1-2.71,5.18c-1.6,2-2.1,2.41-4.18,1.38-2.67-1.33-5.16-5-6.82-7.34-3.9-5.62-6.18-12.22-7.56-18.89-2.79-13.54-2.08-27.52-1.55-41.24l1.78-46.19c.31-8,2.79-19.19.36-26.81a23.11,23.11,0,0,1,3.21-.34c1.53.6.67,1.29,1.37,2.49.79,1.38.75,4.16,1,5.73q1.35,7.23,2.83,14.43c2.61,12.85,5.45,25.65,8.37,38.43q1.77,7.71,4.08,15.27c1.47,4.78,3.25,8.67,3,13.67q-.89,16.94-1.76,33.86a42.38,42.38,0,0,1-1.29,9.86Z"/><path class="beard-2" d="M489.79,346.2c14.41-.13,14.18-6.67,15.44-20.33.79-8.45,2.9-16.67,2.57-25.24l-2.05-54.53q-.53-13.64-1-27.27c-.08-2.06,1-7.71.2-9.46-1.35-3-3.89.09-4.23,2.11-3.37,19.9-8.48,39-9,59.25C491.54,277,490.07,346.2,489.79,346.2Z"/><ellipse class="beard-2" cx="302.87" cy="349.85" rx="7.4" ry="8.94"/><ellipse class="beard-2" cx="296.74" cy="340.15" rx="7.91" ry="9.96"/><ellipse class="beard-2" cx="298.02" cy="330.7" rx="5.62" ry="5.11"/><ellipse class="beard-2" cx="293.68" cy="326.36" rx="5.87" ry="7.4"/><ellipse class="beard-2" cx="295.72" cy="315.89" rx="5.87" ry="7.15"/><ellipse class="beard-2" cx="295.47" cy="306.19" rx="6.13" ry="8.17"/><ellipse class="beard-2" cx="294.7" cy="299.04" rx="4.34" ry="6.13"/><ellipse class="beard-2" cx="295.47" cy="293.17" rx="4.6" ry="5.87"/><ellipse class="beard-2" cx="292.91" cy="286.28" rx="5.11" ry="6.64"/><ellipse class="beard-2" cx="295.47" cy="277.6" rx="4.09" ry="7.66"/><ellipse class="beard-2" cx="303.13" cy="225.51" rx="5.11" ry="6.13"/><ellipse class="beard-2" cx="306.19" cy="245.43" rx="5.62" ry="5.11"/><ellipse class="beard-2" cx="313.09" cy="278.36" rx="6.38" ry="6.89"/><ellipse class="beard-2" cx="304.66" cy="237" rx="4.6" ry="5.87"/><circle class="beard-2" cx="310.79" cy="269.94" r="6.64"/><ellipse class="beard-2" cx="306.7" cy="253.85" rx="5.11" ry="7.91"/><ellipse class="beard-2" cx="314.87" cy="291.38" rx="5.11" ry="6.13"/><ellipse class="beard-2" cx="309.77" cy="263.55" rx="4.6" ry="5.87"/><ellipse class="beard-2" cx="299.55" cy="219.64" rx="3.06" ry="5.36"/><ellipse class="beard-2" cx="294.7" cy="269.43" rx="4.85" ry="5.62"/><ellipse class="beard-2" cx="299.04" cy="210.96" rx="3.57" ry="4.34"/><ellipse class="beard-2" cx="406.28" cy="378.7" rx="6.64" ry="5.62"/><ellipse class="beard-2" cx="399.3" cy="378.87" rx="7.49" ry="5.45"/><ellipse class="beard-2" cx="389.6" cy="376.32" rx="6.3" ry="5.62"/><ellipse class="beard-2" cx="406.79" cy="371.72" rx="4.43" ry="6.13"/><ellipse class="beard-2" cx="399.98" cy="372.4" rx="5.79" ry="5.45"/><ellipse class="beard-2" cx="392.66" cy="369.34" rx="4.6" ry="4.77"/><ellipse class="beard-2" cx="490.4" cy="299.94" rx="4.47" ry="4.72"/><ellipse class="beard-2" cx="491.43" cy="315.13" rx="3.96" ry="4.85"/><ellipse class="beard-2" cx="492.96" cy="308.87" rx="3.96" ry="6"/><ellipse class="beard-2" cx="490.66" cy="342.45" rx="3.96" ry="4.85"/><ellipse class="beard-2" cx="492.96" cy="322.79" rx="3.7" ry="4.6"/><ellipse class="beard-2" cx="492.19" cy="295.6" rx="2.94" ry="3.7"/><ellipse class="beard-2" cx="492.45" cy="291" rx="3.45" ry="4.98"/><ellipse class="beard-2" cx="492.19" cy="328.66" rx="3.19" ry="4.09"/><ellipse class="beard-2" cx="501.13" cy="220.28" rx="3.45" ry="4.47"/><ellipse class="beard-2" cx="492.57" cy="282.83" rx="3.06" ry="3.96"/><ellipse class="beard-2" cx="496.4" cy="346.02" rx="3.83" ry="2.81"/><ellipse class="beard-2" cx="491.55" cy="278.11" rx="2.04" ry="2.81"/><ellipse class="beard-2" cx="499.34" cy="225.38" rx="2.68" ry="2.94"/><ellipse class="beard-2" cx="493.72" cy="275.17" rx="2.68" ry="3.45"/><ellipse class="beard-2" cx="492.57" cy="262.79" rx="3.06" ry="3.83"/><ellipse class="beard-2" cx="493.6" cy="259.34" rx="2.81" ry="3.7"/><ellipse class="beard-2" cx="498.32" cy="231.51" rx="2.94" ry="3.45"/><ellipse class="beard-2" cx="498.19" cy="235.47" rx="2.55" ry="3.06"/><ellipse class="beard-2" cx="493.77" cy="253.49" rx="2.94" ry="3.7"/><ellipse class="beard-2" cx="492.57" cy="274.28" rx="2.3" ry="3.32"/><ellipse class="beard-2" cx="495.64" cy="249.26" rx="3.06" ry="3.32"/><ellipse class="beard-2" cx="496.91" cy="239.55" rx="2.55" ry="3.83"/><ellipse class="beard-2" cx="492.96" cy="269.3" rx="3.19" ry="3.7"/><ellipse class="beard-2" cx="492.7" cy="335.3" rx="3.7" ry="3.32"/><ellipse class="beard-2" cx="501.38" cy="343.6" rx="2.43" ry="3.45"/><circle class="beard-2" cx="502.66" cy="339" r="3.19"/><ellipse class="beard-2" cx="503.04" cy="334.91" rx="2.55" ry="3.19"/><ellipse class="beard-2" cx="504.19" cy="329.3" rx="2.68" ry="3.96"/><ellipse class="beard-2" cx="504.06" cy="322.66" rx="2.81" ry="5.49"/><ellipse class="beard-2" cx="506.36" cy="313.6" rx="2.81" ry="6.13"/><ellipse class="beard-2" cx="506.11" cy="305.04" rx="3.06" ry="4.98"/><ellipse class="beard-2" cx="507.38" cy="297.38" rx="1.53" ry="5.23"/><ellipse class="beard-2" cx="506.36" cy="288.57" rx="2.04" ry="5.62"/><ellipse class="beard-2" cx="506.87" cy="280.79" rx="2.04" ry="4.98"/><ellipse class="beard-2" cx="506.49" cy="273.51" rx="1.91" ry="4.6"/><ellipse class="beard-2" cx="506.36" cy="268.15" rx="1.53" ry="3.83"/><ellipse class="beard-2" cx="506.62" cy="263.43" rx="2.04" ry="3.45"/><ellipse class="beard-2" cx="506.36" cy="258.96" rx="1.79" ry="3.57"/><ellipse class="beard-2" cx="506.36" cy="254.62" rx="2.04" ry="3.83"/><ellipse class="beard-2" cx="505.85" cy="249.13" rx="2.3" ry="4.98"/><ellipse class="beard-2" cx="505.72" cy="243.26" rx="1.15" ry="2.94"/><ellipse class="beard-2" cx="504.57" cy="238.66" rx="1.79" ry="3.19"/><ellipse class="beard-2" cx="318.96" cy="332.49" rx="3.83" ry="4.6"/><ellipse class="beard-2" cx="317.81" cy="339.13" rx="4.47" ry="4.09"/><ellipse class="beard-2" cx="315.51" cy="348.19" rx="5.23" ry="5.49"/><ellipse class="beard-2" cx="314.74" cy="356.87" rx="4.72" ry="6.26"/><circle class="beard-2" cx="293.3" cy="262.4" r="4.21"/><ellipse class="beard-2" cx="297" cy="214.15" rx="3.06" ry="2.94"/><ellipse class="beard-2" cx="294.96" cy="257.55" rx="3.32" ry="3.45"/><circle class="beard-2" cx="297.26" cy="222.45" r="3.57"/><ellipse class="beard-2" cx="294.57" cy="251.55" rx="3.19" ry="4.6"/><ellipse class="beard-2" cx="296.36" cy="228.19" rx="2.68" ry="3.96"/><ellipse class="beard-2" cx="296.49" cy="219" rx="2.81" ry="3.45"/><circle class="beard-2" cx="296.11" cy="246.32" r="2.68"/><ellipse class="beard-2" cx="296.74" cy="233.68" rx="2.55" ry="3.06"/><ellipse class="beard-2" cx="296.11" cy="243.77" rx="2.68" ry="2.94"/><ellipse class="beard-2" cx="295.98" cy="238.79" rx="3.06" ry="3.83"/><ellipse class="beard-2" cx="316.53" cy="298.79" rx="3.7" ry="3.83"/><ellipse class="beard-2" cx="316.91" cy="324.83" rx="4.34" ry="4.09"/><ellipse class="beard-2" cx="316.91" cy="304.02" rx="3.57" ry="3.19"/><ellipse class="beard-2" cx="316.91" cy="318.57" rx="3.57" ry="3.7"/><ellipse class="beard-2" cx="318.57" cy="309.13" rx="2.43" ry="2.94"/><circle class="beard-2" cx="316.53" cy="314.23" r="4.47"/></g></g></svg>
