<svg xmlns="http://www.w3.org/2000/svg" viewBox="0 0 800 800"><defs><style>.beard-1{fill:none;}.beard-2{fill:#fff;}</style></defs><title>7000_beard_biker_moustache</title><g id="Layer_2" data-name="Layer 2"><g id="_7000_beard_biker_moustache" data-name="7000_beard_biker_moustache"><rect class="beard-1" width="800" height="800"/><ellipse class="beard-2" cx="381.94" cy="265.64" rx="16.68" ry="11.79"/><ellipse class="beard-2" cx="358.45" cy="267.04" rx="12.94" ry="10.38"/><ellipse class="beard-2" cx="340.91" cy="270.11" rx="11.74" ry="8.68"/><ellipse class="beard-2" cx="328.15" cy="275.72" rx="9.87" ry="9.53"/><ellipse class="beard-2" cx="316.91" cy="285.43" rx="11.57" ry="8.68" transform="translate(-109 307.69) rotate(-45)"/><ellipse class="beard-2" cx="309.6" cy="301.77" rx="6.98" ry="12.09"/><ellipse class="beard-2" cx="303.3" cy="319.47" rx="9.53" ry="12.09"/><ellipse class="beard-2" cx="305.51" cy="336.83" rx="8" ry="11.4"/><ellipse class="beard-2" cx="308.06" cy="354.02" rx="7.15" ry="13.62"/><ellipse class="beard-2" cx="303.64" cy="370.19" rx="6.81" ry="11.06"/><ellipse class="beard-2" cx="301.09" cy="358.11" rx="7.32" ry="9.53"/><ellipse class="beard-2" cx="299.89" cy="342.45" rx="6.47" ry="13.96"/><ellipse class="beard-2" cx="407.94" cy="263.98" rx="19.28" ry="9.36"/><ellipse class="beard-2" cx="432.83" cy="267.38" rx="11.06" ry="10.38"/><ellipse class="beard-2" cx="451.38" cy="271.47" rx="12.26" ry="8.34"/><ellipse class="beard-2" cx="469.77" cy="276.06" rx="10.55" ry="9.19"/><ellipse class="beard-2" cx="485.6" cy="283.38" rx="10.04" ry="11.06"/><ellipse class="beard-2" cx="500.06" cy="295.13" rx="7.83" ry="11.57"/><ellipse class="beard-2" cx="506.02" cy="310.62" rx="10.04" ry="11.06"/><ellipse class="beard-2" cx="511.13" cy="326.11" rx="7.66" ry="9.53"/><ellipse class="beard-2" cx="507.89" cy="328.15" rx="9.87" ry="16"/><ellipse class="beard-2" cx="510.62" cy="344.15" rx="8.17" ry="10.55"/><ellipse class="beard-2" cx="506.53" cy="351.3" rx="9.19" ry="15.32"/></g></g></svg>
