<svg xmlns="http://www.w3.org/2000/svg" viewBox="0 0 800 800"><defs><style>.beard-1,.beard-2{fill:none;}.beard-1{stroke:#fff;stroke-miterlimit:10;stroke-width:2px;}</style></defs><title>7000_beard_lines_white</title><g id="Layer_2" data-name="Layer 2"><g id="_7000_beard_lines_white" data-name="7000_beard_lines_white"><line class="beard-1" x1="299.81" y1="201" x2="299.81" y2="365.68"/><line class="beard-1" x1="359.55" y1="250.79" x2="359.55" y2="456.83"/><line class="beard-1" x1="309.77" y1="218.62" x2="309.77" y2="429.26"/><line class="beard-1" x1="323.55" y1="237" x2="323.55" y2="430.02"/><line class="beard-1" x1="336.57" y1="246.19" x2="336.57" y2="434.62"/><line class="beard-1" x1="348.06" y1="252.32" x2="348.06" y2="428.49"/><line class="beard-1" x1="367.21" y1="250.79" x2="367.21" y2="469.85"/><line class="beard-1" x1="380.23" y1="246.96" x2="380.23" y2="488.23"/><line class="beard-1" x1="394.79" y1="240.83" x2="394.79" y2="482.87"/><line class="beard-1" x1="411.64" y1="239.3" x2="411.64" y2="497.43"/><line class="beard-1" x1="426.96" y1="243.13" x2="426.96" y2="496.66"/><line class="beard-1" x1="443.04" y1="247.72" x2="443.04" y2="475.21"/><line class="beard-1" x1="498.96" y1="219.38" x2="498.96" y2="382.53"/><line class="beard-1" x1="486.7" y1="237.77" x2="486.7" y2="431.55"/><line class="beard-1" x1="454.53" y1="252.32" x2="454.53" y2="452.23"/><line class="beard-1" x1="470.62" y1="251.55" x2="470.62" y2="425.43"/><rect class="beard-2" width="800" height="800"/></g></g></svg>
