<svg xmlns="http://www.w3.org/2000/svg" viewBox="0 0 800 800"><defs><style>.beard-1{fill:#fff;stroke:#000;stroke-miterlimit:10;stroke-width:8px;}.beard-2{fill:none;}</style></defs><title>7000_beard_cotton_dood</title><g id="Layer_2" data-name="Layer 2"><g id="_7000_beard_cotton_dood" data-name="7000_beard_cotton_dood"><path class="beard-1" d="M529.77,391.56l.24-.43c.37-.66.73-1.33,1.07-2a2.12,2.12,0,0,1,.11-.21c.36-.75.7-1.51,1-2.29l.2-.48c.26-.66.51-1.33.74-2l.16-.45c.26-.8.51-1.61.73-2.42l.12-.49c.17-.68.33-1.38.48-2.08l.12-.61c.16-.84.31-1.69.42-2.55,0-.12,0-.24,0-.36.09-.75.17-1.51.22-2.28,0-.23,0-.47,0-.7,0-.88.08-1.77.08-2.67,0-.63,0-1.27,0-1.89l0-.59c0-.44,0-.88-.09-1.31,0-.22,0-.44-.06-.65,0-.44-.09-.86-.14-1.29,0-.19-.05-.39-.07-.58-.09-.6-.18-1.19-.28-1.79l-.06-.26c-.09-.51-.19-1-.31-1.51,0-.21-.09-.43-.15-.64-.08-.37-.18-.75-.28-1.12l-.18-.68-.33-1.09c-.07-.21-.13-.43-.2-.63-.17-.54-.35-1.07-.55-1.59-.07-.19-.15-.38-.23-.58s-.26-.68-.41-1-.21-.5-.32-.75-.25-.55-.37-.82-.25-.52-.38-.78l-.37-.75c-.14-.26-.27-.52-.42-.78s-.23-.42-.35-.63c-.3-.53-.61-1-.93-1.55l-.32-.53c-.19-.29-.39-.58-.59-.86s-.21-.32-.32-.47c-.21-.3-.42-.59-.64-.88l-.26-.34a36.61,36.61,0,0,0-2.53-3l-.13-.14c-.29-.31-.59-.61-.89-.91l-.18-.18-.95-.89h0a35.63,35.63,0,0,0-4.49-3.47l0,0a34.48,34.48,0,0,0-6.25-3.21h0a38.48,38.48,0,0,0,4-2l.32-.19c.38-.22.75-.45,1.12-.68l.25-.16c1.16-.75,2.29-1.57,3.38-2.44l.33-.27.94-.8.38-.33c.31-.28.62-.56.92-.85a1.59,1.59,0,0,0,.13-.13c.62-.59,1.22-1.2,1.8-1.84l.36-.38c.26-.28.5-.57.75-.86l.45-.53.69-.85.45-.6c.36-.47.71-.95,1.05-1.43.18-.26.36-.51.53-.77s.36-.54.53-.82.33-.51.49-.77.33-.55.49-.82.33-.58.49-.87.29-.52.43-.78c.28-.52.55-1,.8-1.57.11-.22.2-.43.3-.65s.35-.74.51-1.12.21-.51.32-.76.3-.73.44-1.1.19-.49.28-.73c.17-.48.34-.95.5-1.44,0-.14.1-.27.14-.41.2-.62.38-1.23.56-1.86.06-.21.11-.43.17-.64.11-.45.23-.89.33-1.34.06-.23.11-.47.16-.7.11-.48.21-1,.3-1.45,0-.19.07-.37.11-.56.11-.66.22-1.33.31-2l.06-.47c.07-.53.13-1.07.18-1.6l.06-.69c0-.5.07-1,.1-1.5l0-.64c0-.7,0-1.41,0-2.12s0-1.56,0-2.33c0-.32,0-.64-.07-1s0-.9-.09-1.34-.09-.86-.14-1.29-.07-.65-.11-1c-.07-.49-.15-1-.23-1.45,0-.26-.07-.52-.12-.78-.1-.54-.21-1.07-.33-1.61,0-.19-.07-.39-.12-.58-.12-.57-.27-1.13-.42-1.69,0-.15-.07-.3-.11-.45-.17-.6-.35-1.19-.53-1.78,0-.11-.06-.22-.1-.32-.2-.63-.42-1.25-.64-1.87a1.07,1.07,0,0,1-.07-.19c-.24-.63-.49-1.26-.75-1.88l0-.12c-.27-.64-.56-1.28-.86-1.9l0-.05a45.45,45.45,0,0,0-6.86-10.44c.39-.37.76-.77,1.12-1.18l.22-.27q.41-.5.78-1c.1-.14.18-.28.27-.41.22-.33.42-.65.61-1,.1-.17.19-.34.28-.51.17-.33.33-.66.48-1l.24-.58c.14-.33.26-.67.38-1s.14-.41.2-.62.19-.72.27-1.08.11-.43.15-.64c.08-.4.13-.8.18-1.21,0-.19.06-.38.08-.57q.09-.9.09-1.83c0-.55,0-1.09-.07-1.62s-.09-.77-.15-1.16c0-.12,0-.25-.05-.38-.08-.49-.19-1-.31-1.43v0c-.13-.49-.27-1-.43-1.43h0a18.47,18.47,0,0,0,2.72-4.2v0c.24-.5.45-1,.65-1.54l.06-.19c.17-.48.33-1,.47-1.47,0-.14.06-.29.1-.44.1-.43.21-.85.29-1.29,0-.27.07-.56.11-.84s.1-.64.13-1c0-.58.07-1.16.08-1.75V225h0c0-.6,0-1.2-.08-1.78,0-.21-.05-.4-.07-.61,0-.38-.09-.76-.16-1.13s-.09-.48-.14-.72-.14-.64-.22-1-.15-.51-.22-.76-.18-.57-.27-.84l-.3-.79c-.1-.25-.21-.49-.32-.73s-.25-.54-.38-.81l-.33-.61c-.16-.28-.32-.56-.49-.84l-.3-.45c-.2-.31-.41-.61-.62-.9l-.2-.23a15.78,15.78,0,0,0-9.61-6h0c-.05-.34-.12-.67-.19-1l0-.06c-.07-.32-.16-.64-.26-1l0-.08q-.15-.45-.33-.9a.14.14,0,0,1,0-.07c-.13-.29-.26-.59-.41-.87h0a11.87,11.87,0,0,0-2.23-3.06.94.94,0,0,1-.1-.1l-.5-.44-.28-.24-.46-.33-.37-.26-.45-.27-.44-.24-.43-.21-.5-.21-.43-.15-.56-.16-.4-.11c-.22,0-.44-.08-.66-.11l-.34-.06c-.34,0-.69-.06-1-.06-5.87,0-10.62,5.38-10.62,12,0,.44,0,.86.07,1.28,0,.12,0,.23,0,.34,0,.31.08.61.13.91,0,.11.06.22.08.33.06.3.13.59.21.88l.1.28a9.37,9.37,0,0,0,.31.89,1.89,1.89,0,0,0,.09.21c.13.31.26.61.41.9l.08.14c.17.31.34.62.53.91l.05.08q.31.47.66.9l0,0a10.38,10.38,0,0,0,.76.86,19.82,19.82,0,0,0-.91,3.3c0,.05,0,.1,0,.15-.09.54-.16,1.09-.22,1.64,0,.06,0,.13,0,.19-.06.62-.09,1.25-.09,1.88s0,1.12.08,1.67l0,.39c.05.52.12,1,.21,1.55,0,.12,0,.23.07.34.08.41.17.82.28,1.22,0,.16.07.31.12.47.13.44.27.89.43,1.32.06.18.13.35.2.53s.25.61.39.91.14.33.22.49a17.42,17.42,0,0,0-2.08,4.42c0,.05,0,.09,0,.13-.1.35-.2.7-.28,1.06,0,.11-.05.23-.08.34-.07.34-.14.69-.2,1,0,.1,0,.2,0,.3a19.58,19.58,0,0,0-.2,2.43h0c-.66-.07-1.33-.13-2-.17s-1.37-.06-2.05-.06h0c-.65,0-1.3,0-1.94.06l-.64.05c-.43,0-.86.06-1.28.11l-.75.09c-.39.05-.77.1-1.15.17l-.78.13-1.1.22-.78.18-1.08.28-.76.21-1.12.37-.67.22c-.57.2-1.14.42-1.7.65l-.63.28-1.08.47-.79.4-.87.44-.82.46-.81.46-.82.51-.75.49c-.28.18-.55.37-.82.56l-.72.51-.81.61-.66.53c-.72.59-1.43,1.19-2.12,1.83a21.57,21.57,0,0,0-2.81-1.75l0,0c-.47-.25-1-.48-1.45-.69l0,0q-.74-.31-1.5-.57l-.11,0c-.45-.15-.9-.28-1.36-.4l-.25-.07c-.5-.12-1-.23-1.51-.31l-.15,0c-.44-.08-.89-.13-1.35-.17l-.39,0c-.5,0-1-.06-1.52-.06s-.79,0-1.19,0l-.64.06-.52,0c-.34,0-.66.09-1,.15l-.16,0c-.35.06-.71.13-1.06.21l-.07,0a21,21,0,0,0-4.31,1.5h0a19.35,19.35,0,0,0-2.33-1.25l-.2-.09c-.33-.15-.67-.29-1-.42l-.23-.09c-.39-.14-.78-.27-1.18-.39h0c-.42-.13-.84-.23-1.27-.33l-.26-.05c-.32-.07-.65-.13-1-.18l-.4-.06-.92-.1c-.12,0-.25,0-.38,0-.43,0-.86,0-1.29,0s-1.1,0-1.65.08l-.27,0c-.55.06-1.09.13-1.62.23l-.11,0a19.21,19.21,0,0,0-3.33,1h0c-.42-.27-.86-.52-1.3-.76l0,0c-.39-.21-.8-.41-1.2-.59l-.27-.12c-.35-.16-.7-.3-1.06-.44l-.28-.11c-.43-.15-.86-.3-1.3-.43h0c-.46-.13-.92-.25-1.38-.35l-.32-.07c-.35-.07-.7-.14-1.06-.19l-.44-.07-1-.11-.42,0c-.47,0-.94-.05-1.42-.05h0c-.43,0-.86,0-1.28,0l-.33,0c-.32,0-.64.05-1,.09l-.33.05-.93.14-.29.06c-.32.07-.65.13-1,.21l-.22.06c-.35.09-.69.18-1,.29l-.16.05c-.36.11-.71.23-1.06.37l-.1,0c-.37.14-.74.3-1.1.46h0c-.38.17-.76.36-1.13.55h0c-.31-.46-.64-.9-1-1.34l-.1-.14c-.31-.4-.62-.79-.95-1.18l-.12-.14q-.51-.6-1.05-1.17l-.05-.06a28.82,28.82,0,0,0-3.71-3.29l-.2-.15c-.36-.26-.72-.52-1.09-.76l-.31-.2c-.34-.22-.69-.44-1-.64l-.35-.2c-.36-.21-.73-.4-1.1-.59l-.3-.15a27.66,27.66,0,0,0-2.92-1.22l-.33-.1c-.38-.13-.76-.25-1.16-.36l-.5-.13q-.51-.13-1-.24l-.56-.12-1-.17-.57-.08-1.08-.11-.51,0c-.53,0-1.06-.06-1.6-.06h0q-.79,0-1.59.06l-.5,0c-.36,0-.71.06-1.07.11l-.57.08-1,.16-.56.12c-.33.07-.66.14-1,.23l-.52.13-1.06.32-.4.13c-.47.16-.93.33-1.38.52l-.05,0a25.44,25.44,0,0,0-2.88,1.39l-.18.1c-.4.23-.8.47-1.19.72l-.21.13c-.38.25-.76.51-1.13.78l-.18.13c-.4.29-.79.59-1.18.91l-.07.05a30.6,30.6,0,0,0-5.64,6.14h0a28.77,28.77,0,0,0-19.07,7.16c-3.55-8.46-11.17-14.32-20-14.32a21.17,21.17,0,0,0-17,9,19.06,19.06,0,0,0,.3-3.41,18.7,18.7,0,0,0-1.25-6.75,17,17,0,0,0,3.66-10.66,16.19,16.19,0,0,0-7.51-14,11.55,11.55,0,0,0,1.19-5.15,11.4,11.4,0,0,0-2.07-6.62,10.12,10.12,0,0,0,1.22-4.86c0-5.14-3.68-9.31-8.23-9.31s-8.23,4.17-8.23,9.31a10.34,10.34,0,0,0,1,4.48,11.58,11.58,0,0,0-.16,13.8,16.65,16.65,0,0,0-5.29,12.39,17.7,17.7,0,0,0,.72,5A17.82,17.82,0,0,0,280.91,247a18.77,18.77,0,0,0,1.1,6.32,24,24,0,0,0-5.61,15.63c0,9.92,5.68,18.33,13.56,21.31a28.55,28.55,0,0,0,5,15.48,23.88,23.88,0,0,0-9.45,8.4c-2.63,3.11-4.33,7.51-4.54,14.17,0,.46,0,.94,0,1.41h0c0,.62,0,1.23.07,1.84,0,.14,0,.28,0,.42,0,.6.1,1.19.18,1.78l0,.16c.07.55.17,1.09.28,1.62,0,.12.05.25.07.37.13.57.26,1.14.42,1.69a1.42,1.42,0,0,0,.07.22c.14.51.31,1,.48,1.51a2.31,2.31,0,0,0,.1.28c.2.55.41,1.08.64,1.61l.09.2c.22.5.46,1,.71,1.47l.07.15c.27.51.56,1,.87,1.51l.1.17a25.2,25.2,0,0,0,2.05,2.83l.09.11a24,24,0,0,0,2.43,2.51l.06.05a22.78,22.78,0,0,0,2.79,2.12l0,0a21.89,21.89,0,0,0,3.09,1.66h0c-.37.29-.74.59-1.1.9l-.11.09c-.31.27-.6.54-.9.82l-.22.22c-.26.26-.52.53-.77.8l-.2.21a23.51,23.51,0,0,0-1.77,2.19l-.13.19c-.22.32-.44.64-.65,1l-.2.31c-.19.31-.37.62-.55.93l-.18.31c-.22.41-.44.82-.64,1.24v0c-.21.43-.4.88-.59,1.32-.05.11-.09.22-.13.33q-.21.51-.39,1l-.15.43c-.12.33-.22.66-.32,1,0,.14-.09.27-.12.41-.13.45-.25.9-.36,1.36,0,0,0,0,0,.06-.11.48-.21,1-.29,1.45,0,.15-.05.29-.07.44-.06.35-.11.7-.15,1.06l-.06.51-.09,1.06,0,.47c0,.51,0,1,0,1.54s0,1,0,1.49l0,.46c0,.34.05.68.08,1l.06.52c0,.32.08.64.13.95s.05.34.08.51c.06.34.12.68.19,1,0,.13,0,.27.08.4.21.94.47,1.86.76,2.76a2.83,2.83,0,0,1,.11.31c.12.34.24.68.38,1,0,.12.09.24.14.36.13.33.27.65.41,1l.15.32c.17.36.34.72.53,1.08a1.09,1.09,0,0,0,.08.15,25.71,25.71,0,0,0,1.45,2.44l.06.08c.24.35.49.7.74,1l.13.15c.24.33.5.64.76.95a1.47,1.47,0,0,1,.1.13,24.64,24.64,0,0,0,3,2.91,22.78,22.78,0,0,0-2.43,3.43h0c-.35.61-.68,1.24-1,1.89l0,0c-.29.64-.57,1.3-.81,2a.14.14,0,0,0,0,.06c-.25.67-.46,1.35-.65,2.05,0,0,0,.05,0,.08-.19.7-.34,1.4-.47,2.12,0,0,0,.06,0,.09-.12.72-.22,1.45-.29,2.2v.06c-.06.75-.1,1.52-.1,2.3,0,13,9.3,23.49,20.77,23.49.51,0,1,0,1.51-.07l.27,0a14.63,14.63,0,0,0,1.5-.2h0a29,29,0,0,0,3,4.25l0,.05c.36.42.72.84,1.1,1.24h0a26.35,26.35,0,0,0,2.44,2.29l.07.06c.38.31.78.61,1.18.91l.19.14c.4.28.8.55,1.21.81l.11.08a24.62,24.62,0,0,0,2.77,1.49l.33.15c.36.16.73.32,1.1.46l.38.14c.42.16.84.3,1.26.43l.2.06c.49.15,1,.27,1.49.39l.36.07c.38.08.76.15,1.15.21l.5.07c.36.05.73.09,1.09.12l.47,0c.52,0,1,.06,1.57.06s1.22,0,1.82-.08l.43,0c.6-.05,1.19-.13,1.78-.23l.11,0c.56-.1,1.11-.23,1.66-.37l.38-.1c.57-.15,1.14-.33,1.7-.53l.14-.05c.52-.19,1-.4,1.55-.63l.31-.14c.54-.25,1.08-.52,1.61-.81l.13-.07c.5-.29,1-.59,1.48-.91a1.37,1.37,0,0,0,.2-.13c.52-.35,1-.71,1.53-1.1l.08-.06c.49-.39,1-.79,1.42-1.21l.09-.07q.72-.66,1.41-1.38l0,0a28.09,28.09,0,0,0,2.58-3.15h0a30.55,30.55,0,0,0,3.87-7.52h0c-.13.67-.25,1.34-.35,2v.06c-.1.63-.18,1.27-.25,1.91a2,2,0,0,1,0,.23c-.06.58-.1,1.17-.14,1.76,0,.12,0,.24,0,.36,0,.7-.05,1.39-.05,2.1,0,20.87,15,37.79,33.41,37.79.68,0,1.35,0,2-.08l.58-.05c.5,0,1-.1,1.49-.17l.55-.08c.6-.09,1.2-.2,1.79-.33l.15,0c.68-.16,1.36-.34,2-.54l.15,0c.61-.19,1.21-.4,1.81-.62l.24-.1a31.46,31.46,0,0,0,5.64-2.86h0c.39.46.78.91,1.18,1.34l0,0c.39.43.79.84,1.2,1.25l.06.06c.4.39.81.77,1.22,1.14l.1.09c.4.35.81.7,1.23,1l.14.12,1.23.93.2.15c.4.28.8.56,1.22.83l.25.16c.39.25.79.49,1.2.73l.31.18c.39.22.79.43,1.19.63l.36.19c.38.19.78.37,1.17.54l.42.19,1.15.46.47.18,1.13.38.52.16,1.12.31.57.15,1.11.23.6.12c.37.07.75.12,1.13.17l.6.09,1.22.1.54.05c.59,0,1.18,0,1.78,0s1.11,0,1.67,0l.55-.05,1.1-.09.64-.09c.33,0,.66-.08,1-.14s.45-.08.68-.12l.92-.19.69-.16.89-.23.69-.2.86-.28c.23-.08.46-.15.68-.24l.84-.32c.23-.09.45-.17.67-.27s.55-.24.83-.37l.64-.29.84-.43.6-.31.95-.55.71-.43c.35-.23.71-.45,1.05-.69l.63-.45c.23-.16.46-.32.68-.5s.44-.34.65-.51l.62-.49.65-.57c.19-.16.39-.33.57-.5l.65-.61.53-.52.63-.66c.17-.17.33-.35.49-.52l.63-.71.44-.52c.21-.25.42-.5.62-.76l.39-.51c.21-.27.42-.55.62-.83l.31-.44c.22-.32.44-.63.65-.95l.1-.17a38.87,38.87,0,0,0,2.21-3.88,2.4,2.4,0,0,0,.11-.23c.19-.38.36-.76.54-1.15l.18-.41c.16-.37.31-.74.46-1.11l.2-.48c.14-.37.27-.74.41-1.12l.18-.51.36-1.14.16-.52c.11-.39.22-.78.32-1.17.05-.17.09-.34.13-.52.1-.4.2-.8.28-1.21,0-.16.07-.32.1-.48.09-.42.17-.85.25-1.28l.06-.37c.08-.47.15-.95.21-1.42h0c.42,0,.84,0,1.27,0,.78,0,1.57,0,2.35-.06.26,0,.51-.05.77-.06.52,0,1-.08,1.55-.14.31,0,.61-.08.91-.12l1.39-.19.95-.18,1.31-.26,1-.23c.42-.1.85-.21,1.27-.33l.95-.27,1.24-.4.93-.32c.41-.15.83-.31,1.24-.48l.88-.35c.43-.18.85-.37,1.27-.57l.81-.37c.48-.23,1-.48,1.43-.73l.59-.3c.66-.36,1.31-.74,2-1.13l.63-.41c.43-.27.86-.54,1.28-.83l.79-.56,1.06-.77.83-.65c.32-.25.65-.51,1-.78s.55-.47.82-.71.61-.53.91-.8.55-.51.81-.76l.86-.84.79-.81c.28-.29.55-.58.82-.88s.51-.56.76-.85l.78-.92c.24-.29.49-.58.73-.88l.74-1,.69-.91c.25-.35.49-.71.74-1.07.41-.59.8-1.19,1.19-1.8.21-.34.43-.67.63-1s.42-.73.63-1.1.38-.65.56-1,.4-.76.6-1.14l.51-1c.19-.39.37-.78.56-1.18l.46-1c.18-.41.35-.81.51-1.22s.29-.69.42-1,.32-.84.47-1.26.25-.7.37-1.06.29-.86.43-1.29.21-.71.32-1.07.26-.88.38-1.33.18-.72.27-1.08.23-.91.33-1.37.14-.68.21-1c.26-1.25.49-2.51.66-3.79V406c.73-.39,1.45-.81,2.16-1.25l.18-.12c.65-.42,1.28-.86,1.91-1.32l.15-.11c.66-.49,1.32-1,2-1.56l.08-.07c.59-.51,1.17-1.05,1.73-1.6l.22-.22a38.45,38.45,0,0,0,3.26-3.71l.26-.33A40.64,40.64,0,0,0,529.77,391.56Z"/><rect class="beard-2" width="800" height="800"/></g></g></svg>
