<svg xmlns="http://www.w3.org/2000/svg" viewBox="0 0 800 800"><defs><style>.beard-1{fill:#fff;stroke:#000;stroke-miterlimit:10;stroke-width:8px;}.beard-2{fill:none;}</style></defs><title>7000_beard_cotton_3_points_white_dood</title><g id="Layer_2" data-name="Layer 2"><g id="_7000_beard_cotton_3_points_white_dood" data-name="7000_beard_cotton_3_points_white_dood"><path class="beard-1" d="M530.6,479.09a26.7,26.7,0,0,0,1.36-8.47,25.18,25.18,0,0,0-8.24-19,33.07,33.07,0,0,0,1.92-11.14c0-10.7-5-20.08-12.54-25.28a60.18,60.18,0,0,0,2-9.22c12.08-6.46,20.44-20.36,20.44-36.48,0-17.72-10.1-32.76-24.14-38.18,15.16-6.5,25.95-23.07,25.95-42.5a48.45,48.45,0,0,0-11.67-32,17.74,17.74,0,0,0,5.35-12.93,18.79,18.79,0,0,0-1-6.06A19.62,19.62,0,0,0,534.67,225c0-9.17-5.94-16.75-13.71-18.14-.86-5.64-5.2-10-10.44-10-5.87,0-10.62,5.38-10.62,12a12.69,12.69,0,0,0,3.54,8.93,20.49,20.49,0,0,0-1.28,7.16,20.24,20.24,0,0,0,2,8.89,18.16,18.16,0,0,0-2.92,9.72,36.6,36.6,0,0,0-4.07-.23,37.28,37.28,0,0,0-25.46,10.29,20.74,20.74,0,0,0-21.41-2.13,19.7,19.7,0,0,0-10.48-3,19.24,19.24,0,0,0-7,1.31,21.47,21.47,0,0,0-21.44-.92c-5.2-7.69-13.39-12.65-22.6-12.65-9.06,0-17.13,4.8-22.34,12.27a28.77,28.77,0,0,0-19.07,7.16c-3.55-8.46-11.17-14.32-20-14.32a21.17,21.17,0,0,0-17,9,19.06,19.06,0,0,0,.3-3.41,18.7,18.7,0,0,0-1.25-6.75,17,17,0,0,0,3.66-10.66,16.19,16.19,0,0,0-7.51-14,11.55,11.55,0,0,0,1.19-5.15,11.4,11.4,0,0,0-2.07-6.62,10.12,10.12,0,0,0,1.22-4.86c0-5.14-3.68-9.31-8.23-9.31s-8.23,4.17-8.23,9.31a10.34,10.34,0,0,0,1,4.48,11.58,11.58,0,0,0-.16,13.8,16.65,16.65,0,0,0-5.29,12.39,17.7,17.7,0,0,0,.72,5A17.82,17.82,0,0,0,280.91,247a18.77,18.77,0,0,0,1.1,6.32,24,24,0,0,0-5.61,15.63c0,9.92,5.68,18.33,13.56,21.31a28.55,28.55,0,0,0,5,15.48c-8.24,4-14,13.21-14,24,0,11.08,6.13,20.54,14.75,24.3a28.08,28.08,0,0,0-.78,42.69A25.07,25.07,0,0,0,289.06,413a26.15,26.15,0,0,0,1.59,9c-7.45,5-12.45,14.15-12.45,24.64a31.56,31.56,0,0,0,2.39,12.12,19.49,19.49,0,0,0-7.8,16c0,10.44,7.48,18.9,16.7,18.9s16.53-8.28,16.69-18.55c12.07-1.45,21.6-12.5,22.52-26.26a23.39,23.39,0,0,0,6.4.89c11,0,20.47-7.72,24.32-18.65a43.29,43.29,0,0,0-.84,8.44c0,18.93,12.3,34.6,28.36,37.36a36.92,36.92,0,0,0-1.27,9.62c0,11.43,5.19,21.49,13.06,27.33a23,23,0,0,0-2.23,9.94c0,11.57,8.29,20.94,18.52,20.94s18.51-9.37,18.51-20.94a23,23,0,0,0-2.48-10.44c7.5-5.9,12.41-15.71,12.41-26.83a36.8,36.8,0,0,0-.2-3.81c9-3.2,16.34-10.5,20.36-20,5.46,7.65,13.82,12.54,23.19,12.54a26,26,0,0,0,3.07-.18c1.84,11.15,10.48,19.59,20.86,19.59l.66,0c1.06,7,6.42,12.27,12.89,12.27,7.23,0,13.09-6.63,13.09-14.81A15.19,15.19,0,0,0,530.6,479.09Z"/><rect class="beard-2" width="800" height="800"/></g></g></svg>
