<svg xmlns="http://www.w3.org/2000/svg" viewBox="0 0 800 800"><defs><style>.mouth-1{fill:#fff;}.mouth-2{fill:none;}</style></defs><title>8000_mouth_half_circle_only_bottom_teeth_reindeer</title><g id="Layer_2" data-name="Layer 2"><g id="_8000_mouth_half_circle_only_bottom_teeth_reindeer" data-name="8000_mouth_half_circle_only_bottom_teeth_reindeer"><path d="M473.23,287.36c0,37.79-32.3,68.43-72.16,68.43s-72.16-30.64-72.16-68.43"/><path class="mouth-1" d="M462.31,294.32c0,27.78-27.25,50.3-60.86,50.3s-60.85-22.52-60.85-50.3"/><path d="M339.55,314H459c1.31,0,2.68,0,4,0,.12,24.54-37.85,33.94-60.15,34.23A94.34,94.34,0,0,1,364,340.37c-4.65-2-11.53-4.41-15.39-7.12s-5.32-7.71-7.5-11.32C340.67,321.27,338.13,314.1,339.55,314Z"/><rect class="mouth-2" width="800" height="800"/></g></g></svg>
