<svg xmlns="http://www.w3.org/2000/svg" viewBox="0 0 800 800"><defs><style>.mouth-1{fill:#fff;}.mouth-2{fill:none;}</style></defs><title>8000_mouth_canine_teeth_elves</title><g id="Layer_2" data-name="Layer 2"><g id="_8000_mouth_canine_teeth_elves" data-name="8000_mouth_canine_teeth_elves"><path d="M456.14,476.51c-8.07,1.61-16.36,1.65-24.58,1.68l-42.62.17-25.49.1c-11.81.05-24.43-.14-34.2-6.84-13.53-9.29-19.71-51.81-.12-58.1,12.07-3.88,23.82,5.57,35.28,11,22.14,10.48,48.32,6.15,71.59-1.46,19.28-6.31,55.23-19.7,56.87,12.36C493.91,455.77,474.64,472.82,456.14,476.51Z"/><path class="mouth-1" d="M451.46,455.53c.06-.2.13-.4.2-.6,1.07-3,1.24-6.09,2.44-9.1,1.45-3.64,3.3-7.16,4.6-10.86-.19.54,8.36,11.65,9.11,12.83,3.77,5.92,7.94,13.31-1.71,16.16C458.52,466.2,448.39,465.38,451.46,455.53Z"/><path class="mouth-1" d="M344.65,465.33c-4-1.84-6.88-6.32-6-10.62.63-3,2.9-5.4,5.28-7.33s5-3.61,6.9-6c3.68,5.54,7.23,13.39,7.09,20.23C357.8,468,349.25,467.47,344.65,465.33Z"/><path class="mouth-1" d="M436.38,465.49a9.69,9.69,0,0,1-6.24-3.48c-1.77-2.39-1.92-5.69-1.1-8.55a28.91,28.91,0,0,1,4.13-7.87,48.94,48.94,0,0,1,11.78,17,3.11,3.11,0,0,1,.28,2.26C444.55,466.57,437.67,465.71,436.38,465.49Z"/><path class="mouth-1" d="M406.72,461a9.84,9.84,0,0,1,1.37-5l3.77-7.84c.25-.53.6-1.13,1.17-1.19s1,.4,1.4.83l6.72,7.85c1.15,1.34,2.37,2.92,2.13,4.68-.48,3.52-6,3.93-8.76,4.66C411.3,465.86,407.09,465,406.72,461Z"/><path class="mouth-1" d="M383.84,463.81c-2-2.24-1.91-5.8-.57-8.5s3.65-4.74,5.91-6.71c-1.08.94,6.82,13.74,5.95,16.11C394,468,385.61,465.8,383.84,463.81Z"/><path class="mouth-1" d="M364.27,462.91a6.5,6.5,0,0,1-.39-6.08,19.37,19.37,0,0,1,3.55-5.22l3.29-3.82a2.1,2.1,0,0,1,1.22-.87c1.08-.13,1.61,1.28,1.74,2.37a32,32,0,0,1,.33,8.29C373.43,461.75,368.43,468.77,364.27,462.91Z"/><path class="mouth-1" d="M451.45,432.54a8.85,8.85,0,0,0,.71-2.84,2.87,2.87,0,0,0-1.23-2.52c-1.07-.63-2.42-.19-3.58.26l-7.72,3c-1.08.43-2.33,1.06-2.46,2.22a3.25,3.25,0,0,0,1.14,2.37c1.46,1.65,6.15,8.89,8.53,8.14C449,442.51,450.66,434.61,451.45,432.54Z"/><path class="mouth-1" d="M368.45,440.69c1-1.78,1.74-4.18.47-5.8-1.75-2.24-10.09-3.83-11.32-.77-.74,1.85,3.49,14,2.65,14.32C363.67,447.18,366.65,443.82,368.45,440.69Z"/><path class="mouth-1" d="M429.39,436.74a2.76,2.76,0,0,0-.18-2.1c-.63-.94-2-.8-3.11-.56l-5.88,1.3c-1.47.33-3.28,1.06-3.28,2.57a3.44,3.44,0,0,0,1.23,2.19c1.55,1.59,4.68,6.2,7.38,5.2C427.9,444.47,428.92,438.87,429.39,436.74Z"/><path class="mouth-1" d="M399.92,436.3a15.57,15.57,0,0,0-7.06.19c-3.45,1.1-2,3.61-.53,6,.72,1.18,5.43,7.76,4.45,9.09,2.05-2.77,8-8.3,7.32-12.06C403.76,437.74,402,436.75,399.92,436.3Z"/><path class="mouth-1" d="M381.63,438.54a5.75,5.75,0,0,1-.07,4.88,16.61,16.61,0,0,1-2.91,4.08l-3.09-6.77a5.76,5.76,0,0,1-.75-3.59C375.63,433.79,380.68,436.76,381.63,438.54Z"/><rect class="mouth-2" width="800" height="800"/></g></g></svg>
