<svg xmlns="http://www.w3.org/2000/svg" viewBox="0 0 800 800"><defs><style>.mouth-1,.mouth-2,.mouth-3{fill:none;}.mouth-1,.mouth-2{stroke:#000;stroke-miterlimit:10;stroke-width:2px;}.mouth-1{stroke-linecap:round;}</style></defs><title>8000_mouth_stitched</title><g id="Layer_2" data-name="Layer 2"><g id="_8000_mouth_stitched" data-name="8000_mouth_stitched"><path class="mouth-1" d="M331.21,329.17c1.87-2.2,3.39-4.64,5.62-6.57a58.32,58.32,0,0,1,7.46-4.88c.35-.23.38-1,.8-1.23a9.2,9.2,0,0,1,1.94-.72c1-.42,2-1,3.08-1.45a13,13,0,0,1,3.07-.43c2-.33,2.43-1.66,4.34-2.5a28.12,28.12,0,0,1,6.13-1.55c1.77-.3,3.68.32,5.42-.11,1.92-.48,2.9-2.28,4.81-2.88a12.45,12.45,0,0,1,3.76-.15c2.65,0,5.45.24,8.08,0,2.88-.22,5.34-1.07,8.3-1.06,11.41.05,22.83.07,34.24,0a18.09,18.09,0,0,1,7.1,1c3.53,1.33,7.4.69,10.83,2.53,1.22.65,2.16,2,3.48,2.4,1,.33,2.06.18,3.07.41,2.74.62,4.69,2.67,7.38,3.57,5.2,1.74,10.2,3,15.07,5.59,1.51.81,2.36,1.89,4.11,2.39a16,16,0,0,1,4.08,1.47c2.38,1.37,5.36,3.73,8.17,4.11"/><path class="mouth-2" d="M332.23,316.4c.82-.07.88.81,1.51,1.05s1,0,1.58.35.8.45,1.23.64a3.67,3.67,0,0,1,1.7,1.05A13.84,13.84,0,0,1,340.9,323c.36.71.76,1.33,1.05,2.07a5.38,5.38,0,0,0,1,2"/><path class="mouth-2" d="M341.43,309.77a33.86,33.86,0,0,1-1,10c-.45,1.5-1.14,2.9-1.54,4.38-.45,1.66-.69,3.75-2,5"/><path class="mouth-2" d="M350.62,308.74c.84-.32,1.87-1.24,2.83-1.16,1.14.1,1.66,1.45,2.31,2.23.81,1,1.65,1.89,2.5,2.76s2,2,2.91,2.8c1.1.94,2.73,1.57,3.74,2.57"/><path class="mouth-2" d="M363.38,304.15c-.76-1.55-2.29.88-2.55,1.62-.33.93-.15,1.16-.76,2s-.63.52-.78,1.5a8.21,8.21,0,0,1-1.54,3.48c-.81,1.37-1.34,2.77-2,4.19"/><path class="mouth-2" d="M377.68,301.09c1.52,0,1.78,1.45,2.39,2.29a5.62,5.62,0,0,0,1,.78,2.25,2.25,0,0,1,.34.89c.28.35.64.64.9,1,.39.52.68,1,1,1.58a10.13,10.13,0,0,0,.71,1.1,21.15,21.15,0,0,1,1.47,1.84c.36.53.58,1.3,1.38,1.25"/><path class="mouth-2" d="M389.94,299c-.8,0-1.2-.22-1.56.47-.24.47-.12.95-.48,1.46a32.67,32.67,0,0,1-3.88,4.5,11.74,11.74,0,0,0-2.44,2.69c-.23.45-.38.93-.65,1.38-.53.88-1.31,1.69-1.87,2.56-.34.54-.6,1.3-1.38,1.24"/><path class="mouth-2" d="M400.66,301.6l.06-.45c1.94-.93,3.81,3.89,4.37,5.23s1.31,2.44,1.72,3.66c.23.72.55,2.1,1.51,2.28"/><path class="mouth-2" d="M410.36,299.55a29.32,29.32,0,0,1-2.54,2.29,43.27,43.27,0,0,1-3.57,3.46c-1.4,1.11-2.68,2.3-4.13,3.33-.57.41-2.08,1.36-2,2.16"/><path class="mouth-2" d="M422.62,300.57c.38,1.26,1.29,2.26,1.54,3.58a6.93,6.93,0,0,0,1.12,3.08c.27.35.69.61.93,1,.43.64.38,1.39.8,2,.3.45.9.57,1.15,1.08a5.35,5.35,0,0,1,.07,2.07"/><path class="mouth-2" d="M430.79,300.06l-.24-.32c-1.14.45-1.94,1.72-2.83,2.51s-1.82,1.86-2.81,2.62a16.78,16.78,0,0,0-2.17,2c-.34.36-.87.76-1.16,1.12-.45.56-.47,1.3-1,1.82"/><path class="mouth-2" d="M440.49,303.64c-.31,2.56,1.59,4.86,2.16,7s2.14,4,2.44,6.26"/><path class="mouth-2" d="M449.17,302.62c.24,1.35-.47,1.13-1.27,1.56s-1.4,1.4-2.14,2c-1.68,1.46-3.94,3-4.76,5.08"/><path class="mouth-2" d="M463,310.28c-.69,0-1,.26-1.55.51s-1.1.32-1.73.55c-.91.33-1.3,1.17-2.19,1.62a33.14,33.14,0,0,0-2.85,1.8,3.7,3.7,0,0,0-1.4,1.07c-.38.5-.33.74-1,1.08"/><path class="mouth-2" d="M453.26,308.23a15.87,15.87,0,0,1,3.1,3.45c.59,1,.62,2.09,1.17,3.19a27.37,27.37,0,0,0,2,3.48c.38.52,1.4,2.5,1.91,2.65"/><path class="mouth-2" d="M475.72,314.87c-2.27-.19-3.94,1.31-5.61,2.56a26.34,26.34,0,0,0-2.43,2.05c-.8.75-2,1.09-2.68,2"/><path class="mouth-2" d="M468.06,310.79c1.31.25.68,1.76,1,2.6.22.6.61.38,1,.92s.1,1.29.09,1.82a26.11,26.11,0,0,0,1,8.44"/><path class="mouth-2" d="M482.36,320.49l-.21-.3a14.69,14.69,0,0,0-2.72.8,9.77,9.77,0,0,1-1.48.65,1,1,0,0,0-.24.58c-.75.6-2.13,1.36-2.5,2.35"/><path class="mouth-2" d="M476.23,316.4a13.45,13.45,0,0,0,.11,3.36c.23.85.75,1.4,1,2.22a22.28,22.28,0,0,1,.41,3.11c.3,1.4,1.53,2,1.51,3.57"/><path class="mouth-2" d="M492.4,327.09a8.22,8.22,0,0,0-4.91,1.46c-1.68,1.09-3.85,1.72-5.3,3.13"/><path class="mouth-2" d="M485.77,324.53c1.08.24,1.16,1.33,1.5,2.16a15.17,15.17,0,0,1,1.1,2.06c.2.8,0,1.81.2,2.68a30.6,30.6,0,0,0,1,3.32,11.64,11.64,0,0,1,.25,3.57"/><rect class="mouth-3" width="800" height="800"/></g></g></svg>
