<svg xmlns="http://www.w3.org/2000/svg" viewBox="0 0 800 800"><defs><style>.mouth-1{fill:#fff;}.mouth-2{fill:none;}</style></defs><title>8000_mouth_half_circle_missing_teeth_reindeer</title><g id="Layer_2" data-name="Layer 2"><g id="_8000_mouth_half_circle_missing_teeth_reindeer" data-name="8000_mouth_half_circle_missing_teeth_reindeer"><path d="M473.23,287.36c0,37.79-32.3,68.43-72.16,68.43s-72.16-30.64-72.16-68.43"/><path class="mouth-1" d="M462.31,294.32c0,30.46-27.25,55.15-60.86,55.15s-60.85-24.69-60.85-55.15"/><path d="M339.55,308.88c.19,0,48.49,0,51.6,0H459c1.31,0,2.68,0,4,0,0,7.78-4.16,22.65-13,22.83-6.54.14-13.1,0-19.64,0H363c-3.23,0-10.7,1.48-13.53,0-3.29-1.78-6.62-10.27-8.4-13.66C340.67,317.23,338.13,309,339.55,308.88Z"/><rect x="401.1" y="314.63" width="2.74" height="37.9" transform="translate(804.93 667.16) rotate(180)"/><rect x="425.48" y="314.71" width="5.47" height="34"/><rect x="379.7" y="312.96" width="22.89" height="37.79"/><rect x="390.64" y="292.54" width="2.74" height="37.9" transform="translate(784.03 622.99) rotate(180)"/><rect x="420.5" y="292.62" width="21.4" height="34" transform="translate(862.41 619.25) rotate(180)"/><rect x="366.26" y="290.87" width="2.99" height="36.07" transform="translate(735.51 617.82) rotate(180)"/><rect class="mouth-2" width="800" height="800"/></g></g></svg>
