<svg xmlns="http://www.w3.org/2000/svg" viewBox="0 0 800 800"><defs><style>.mouth-1{fill:#fff;}.mouth-2{fill:none;}</style></defs><title>8000_mouth_half_circle_missing_teeth</title><g id="Layer_2" data-name="Layer 2"><g id="_8000_mouth_half_circle_missing_teeth" data-name="8000_mouth_half_circle_missing_teeth"><path d="M328.91,355.79c0-37.79,32.31-68.43,72.16-68.43s72.16,30.64,72.16,68.43"/><path class="mouth-1" d="M339.84,348.83c0-30.46,27.25-55.15,60.86-55.15s60.85,24.69,60.85,55.15"/><path d="M462.6,334.27H343.14c-1.31,0-2.68,0-4,0,0-7.78,4.16-22.65,13-22.83,6.54-.14,13.1,0,19.64,0h67.32c3.23,0,10.7-1.48,13.52,0,3.3,1.78,6.63,10.27,8.41,13.66C461.48,325.92,464,334.16,462.6,334.27Z"/><rect x="398.32" y="290.62" width="2.74" height="37.9"/><rect x="371.19" y="294.44" width="5.47" height="34" transform="translate(747.86 622.88) rotate(180)"/><rect x="399.56" y="292.4" width="22.89" height="37.79" transform="translate(822.01 622.6) rotate(180)"/><rect x="408.77" y="312.7" width="2.74" height="37.9"/><rect x="360.25" y="316.52" width="21.4" height="34"/><rect x="432.9" y="316.2" width="2.99" height="36.07"/><rect class="mouth-2" width="800" height="800"/></g></g></svg>
