<svg xmlns="http://www.w3.org/2000/svg" viewBox="0 0 800 800"><defs><style>.mouth-1,.mouth-5{fill:none;}.mouth-1{stroke:#900;stroke-miterlimit:10;stroke-width:2px;}.mouth-2{fill:#900;}.mouth-3{fill:#fff;}.mouth-4{fill:#ff0;}</style></defs><title>8000_mouth_gold_teeth_blood_elves</title><g id="Layer_2" data-name="Layer 2"><g id="_8000_mouth_gold_teeth_blood_elves" data-name="8000_mouth_gold_teeth_blood_elves"><path class="mouth-1" d="M388.4,372.4c0,1.56,0,3.12,0,4.68.05,2.72,2.54,3.85,2.59,6.44.06,3.23,0,6.47,0,9.71V404.5c0,2,0,4,0,6a6,6,0,0,1-.23,2.39,21,21,0,0,1-1.3,2.95c0,1.51,1-1,1,.54a7.78,7.78,0,0,1,0,1.67c-.16.67-.85,1-.7,1.7"/><path class="mouth-2" d="M413.73,487a3.82,3.82,0,0,1-1.72-.64,7,7,0,0,1-1.22-1.3c-.74-.84-1.45-1.79-2.2-2.53a2.56,2.56,0,0,0-1.24-.75,7.16,7.16,0,0,0-1.56-.24,19.32,19.32,0,0,0-3.3.14,12.32,12.32,0,0,0-1.57.25,1.61,1.61,0,0,0-1,.71l-.51.69a4,4,0,0,1-.74.77c-.34.24-.64.36-.79.47s-.17.13-.22.25a4,4,0,0,1-.24.48,2,2,0,0,1-.53.55,4.89,4.89,0,0,1-.92.52,13.41,13.41,0,0,1-1.75.6,14,14,0,0,1-1.8.38c-.61.07-1.2.12-1.81.14a5.88,5.88,0,0,1-2.06-.24,4.84,4.84,0,0,1-1.84-1.17,14.47,14.47,0,0,1-2.16-3c-.14-.23-.29-.46-.43-.66a1.58,1.58,0,0,0-.19-.25c-.06-.05-.09-.13-.16-.17a2.41,2.41,0,0,0-1-.5,9.69,9.69,0,0,0-3-.16l-1.67.13-.88.06-.86,0c-.48,0-1.07.11-1.7.14a6,6,0,0,1-2.23-.23,2.82,2.82,0,0,1-1.39-1,3.84,3.84,0,0,1-.54-1.19l-.05-.12-.06-.15-.18-.4a4.93,4.93,0,0,0-.28-.59c-.06-.09,0,0-.07-.06a2.64,2.64,0,0,0-.49-.18c-.43-.14-1-.29-1.57-.44a50.35,50.35,0,0,0-6.46-1.42c-.53-.07-1.06-.12-1.59-.16s-1,0-1.53,0-1.18.05-1.85,0a8.2,8.2,0,0,1-1.06-.12,4.35,4.35,0,0,1-1.25-.41c-.36-.17-.61-.34-.79-.43a1,1,0,0,0-.22-.1.75.75,0,0,0-.16-.05c-.39-.09-.92-.13-1.59-.25a18.18,18.18,0,0,1-1.83-.45q-.85-.24-1.68-.51l-3.25-1.06c-1.05-.34-2.12-.64-3.24-1a21.07,21.07,0,0,1-6.73-3.06,15.24,15.24,0,0,1-1.49-1.3c-.4-.41-.81-.83-1.22-1.27a15.57,15.57,0,0,1-2.29-3.1,9.05,9.05,0,0,1-.77-2,15.94,15.94,0,0,1-.36-1.88,24.05,24.05,0,0,1-.15-3.66,36.72,36.72,0,0,0-.09-6.51c-.41-2.24-.6-4.54-1.17-6.5a18.28,18.28,0,0,0-2.94-5.55c-.64-.89-1.33-1.76-2-2.65a7.82,7.82,0,0,1-1.09-1.74,5.87,5.87,0,0,1-.48-2.09,9.39,9.39,0,0,1,.09-2,5.22,5.22,0,0,1,.78-2.06,7.32,7.32,0,0,1,3.11-2.39l1.53-.76.36-.18a1.28,1.28,0,0,0,.21-.13l.23-.22a2.46,2.46,0,0,1,.53-.43,5.74,5.74,0,0,1,2-.59c.61-.09,1.21-.16,1.79-.19,2.34-.13,4.55,0,6.44-.83a6,6,0,0,0,1.28-.73,7.18,7.18,0,0,0,1-1.13c.69-.9,1.4-1.81,2.2-2.69a9.81,9.81,0,0,1,2.87-2.23c.55-.29,1.1-.49,1.6-.71l1.57-.68c1-.46,2.18-.89,3.21-1.23.51-.18,1-.43,1.59-.64a5,5,0,0,1,1.91-.29,7.34,7.34,0,0,1,3.45,1.21,8.51,8.51,0,0,0,3,1.21,25,25,0,0,1,3.42.73,6.61,6.61,0,0,1,1.66.88,15.61,15.61,0,0,1,1.36,1.16c.84.81,1.6,1.66,2.4,2.42a13.16,13.16,0,0,0,2.59,1.92,6,6,0,0,0,3,.61c1.09,0,2.29,0,3.42,0a37.58,37.58,0,0,0,6.66-.23c2.1-.34,4.16-1.26,6.46-1.88.56-.16,1.19-.29,1.74-.39a12.1,12.1,0,0,1,1.84-.24,8.5,8.5,0,0,1,1.93.18l.22.05h.09l.4,0a2.31,2.31,0,0,1,.69.12,2.25,2.25,0,0,1,.71.41,12.17,12.17,0,0,1,1.16,1.4c.11.1.09.07.27.14a4,4,0,0,0,.61.1,9,9,0,0,1,1,.14,6.51,6.51,0,0,1,1,.33c.6.25,1.09.5,1.5.64a8.14,8.14,0,0,0,2.91.17c.54,0,1.21-.07,1.76-.07l1.7,0,6.81-.13a19.69,19.69,0,0,0,6.25-.88,12.29,12.29,0,0,0,1.41-.58l1.54-.73c1-.49,2.11-1,3.23-1.41.58-.22,1.1-.42,1.75-.62a15.35,15.35,0,0,1,1.93-.39c1.25-.16,2.34-.19,3.35-.36a26.75,26.75,0,0,1,7.27-.35,17.62,17.62,0,0,1,1.9.35c.31.07.65.19.92.26a5.62,5.62,0,0,0,.62.15,14.43,14.43,0,0,0,3,.1c2.46-.12,4.89.36,6.12-.22,1.6-.58,3-2.12,4.92-3.71a13.41,13.41,0,0,1,3.39-2.13,16.67,16.67,0,0,1,3.75-1,30.64,30.64,0,0,1,3.65-.31,22.31,22.31,0,0,1,3.82.14,8.27,8.27,0,0,1,4,1.95,19.2,19.2,0,0,1,2.53,2.83,23.48,23.48,0,0,1,2.29,2.91c.1.17.19.34.28.52l.12.27.07.18.07.18.26.82c0,.08.06.16,0,.12l0-.06c0-.06,0-.06,0,0l.05.08c.09.11.23.25.4.42.34.33.81.72,1.33,1.3.36.41.7.75,1.1,1.17a14.27,14.27,0,0,1,2.5,3.1,9.44,9.44,0,0,1,1,4.24c0,.64,0,1.24,0,1.79s0,1,0,1.58c.05,1.09.14,2.26.15,3.49a18,18,0,0,1-.07,1.92c0,.33-.08.68-.14,1a5.41,5.41,0,0,1-.13.58,4.87,4.87,0,0,1-.27.75,9.3,9.3,0,0,1-1.23,1.84c-.41.5-.82,1-1.23,1.38a11.32,11.32,0,0,0-1.82,2.12l-.33.73a9.6,9.6,0,0,1-.52,1c-.37.59-.76,1.09-1.09,1.54a12.7,12.7,0,0,0-.81,1.19c-.07.12-.27.51-.43.78s-.34.56-.51.82l-.92,1.38a5.89,5.89,0,0,0-.56,1.05c-.11.32-.19.83-.33,1.49a7.63,7.63,0,0,1-.3,1.07,5.71,5.71,0,0,1-.22.53l-.14.34c-.77,1.81-1.18,4.08-2,6.4a14,14,0,0,1-1.75,3.51,10,10,0,0,1-1.42,1.56,8.47,8.47,0,0,1-1.73,1.21,7.3,7.3,0,0,1-4.31.8,26.73,26.73,0,0,1-3.46-.8,25.64,25.64,0,0,0-3.18-.29,10,10,0,0,0-1.41-.06,1.24,1.24,0,0,0-.68.35,7.53,7.53,0,0,0-1.59,2.3c-.25.48-.51,1-.84,1.56s-.64,1-1,1.54a17.06,17.06,0,0,1-2.47,2.77,15.79,15.79,0,0,1-1.46,1.16c-.47.32-.94.66-1.45,1a11.31,11.31,0,0,1-3.47,1.61,8.35,8.35,0,0,1-1,.17l-.52,0h-.43l-1.72-.05c-2.29-.08-4.56-.13-6.83-.18l-1.71,0c-.57,0-1.19,0-1.76-.08-1.15-.09-2.26-.22-3.34-.24a10.07,10.07,0,0,0-1.57.08,4.15,4.15,0,0,0-1.39.43c-.48.23-1,.53-1.54.78a11.61,11.61,0,0,1-1.72.58,8.8,8.8,0,0,0-1.5.52,7.76,7.76,0,0,0-1.34.91,4.75,4.75,0,0,1-1.76.68c-.58.13-1.15.22-1.71.31C418.26,486.48,416.06,486.73,413.73,487Zm0-.4,6.65-1.36c.55-.11,1.1-.23,1.63-.38a4,4,0,0,0,1.37-.61,8.34,8.34,0,0,1,1.42-1.09,9.69,9.69,0,0,1,1.67-.69,9.64,9.64,0,0,0,1.49-.6c.46-.24.92-.55,1.45-.85a5.73,5.73,0,0,1,1.81-.68,11.67,11.67,0,0,1,1.83-.21c1.19-.05,2.35,0,3.47.06.57,0,1.08,0,1.65,0l1.71,0c2.27-.05,4.55-.11,6.8-.12l1.7,0h.42l.33,0a5,5,0,0,0,.65-.14,8.89,8.89,0,0,0,2.62-1.39c.44-.31.87-.64,1.33-1a14.39,14.39,0,0,0,1.17-1,14.61,14.61,0,0,0,2-2.4c.29-.44.55-.89.8-1.36s.47-.93.72-1.46A10.72,10.72,0,0,1,460.6,468a4.47,4.47,0,0,1,2.32-1.15,12.09,12.09,0,0,1,2,0,28.13,28.13,0,0,1,3.62.23c.64.1,1.36.31,1.79.42a9.56,9.56,0,0,0,1.4.24,3.89,3.89,0,0,0,2.29-.48,5.74,5.74,0,0,0,1-.77,6,6,0,0,0,.84-1,10.31,10.31,0,0,0,1.21-2.61c.67-2,1-4.23,1.94-6.65l.18-.45c0-.14.07-.16.1-.26a4.51,4.51,0,0,0,.14-.58c.1-.45.16-1.07.38-1.84a9.14,9.14,0,0,1,1-2c.33-.55.67-1,.95-1.47l.39-.63.38-.72a14.77,14.77,0,0,1,1.08-1.65c.34-.47.64-.88.86-1.25a4.2,4.2,0,0,0,.29-.55l.37-.82a6.33,6.33,0,0,1,.62-1c.24-.33.46-.58.66-.82l1.2-1.29c.36-.39.71-.79,1-1.17a5.37,5.37,0,0,0,.66-1s0-.08,0-.05,0-.17,0-.25a4.58,4.58,0,0,0,.08-.66,14.43,14.43,0,0,0,0-1.49c0-1-.12-2.14-.19-3.32,0-.58-.07-1.2-.07-1.83s0-1.12,0-1.62a5.28,5.28,0,0,0-.5-2.34,11.49,11.49,0,0,0-1.8-2.17c-.39-.39-.85-.86-1.24-1.31-.23-.27-.63-.62-1.11-1.08a10.74,10.74,0,0,1-.76-.82l-.2-.27a1.78,1.78,0,0,1-.14-.21,2.35,2.35,0,0,1-.14-.25,5.8,5.8,0,0,1-.27-.67l-.25-.81v0h0l0-.12c0-.08-.08-.16-.13-.24a24,24,0,0,0-1.94-2.42,18.63,18.63,0,0,0-2-2.28,4,4,0,0,0-2-1,20.61,20.61,0,0,0-3-.12,24.87,24.87,0,0,0-3.15.21,12.3,12.3,0,0,0-2.84.7,9.17,9.17,0,0,0-2.37,1.47c-.82.65-1.64,1.43-2.62,2.21a12.25,12.25,0,0,1-3.45,2,10,10,0,0,1-4.12.49l-1.7-.1c-.51,0-1,0-1.59,0a17.52,17.52,0,0,1-3.79-.23,7.91,7.91,0,0,1-1-.26c-.27-.08-.47-.16-.72-.21a9.92,9.92,0,0,0-1.44-.29,24.24,24.24,0,0,0-6.32.21c-1.24.16-2.44.17-3.44.28a8.94,8.94,0,0,0-1.42.25c-.44.11-1,.3-1.48.47-1,.37-2,.8-3.05,1.25l-1.56.69a17.72,17.72,0,0,1-1.76.67,22.43,22.43,0,0,1-7.22.85l-6.83-.13-1.71,0c-.59,0-1.06,0-1.65,0a10,10,0,0,1-3.84-.45c-.66-.25-1.17-.55-1.62-.75a3.54,3.54,0,0,0-1.32-.36,5.88,5.88,0,0,1-1.05-.24,2.87,2.87,0,0,1-1.16-.75c-.56-.65-.78-1.18-.94-1.29s.11,0-.16-.05l-.45,0a2.33,2.33,0,0,1-.33-.06l-.19,0a6.7,6.7,0,0,0-1.46-.2,10,10,0,0,0-1.54.16c-.58.08-1.06.17-1.61.29a66.33,66.33,0,0,1-6.68,1.7,40.45,40.45,0,0,1-7,0c-1.15-.06-2.22-.07-3.4-.09a7.42,7.42,0,0,1-3.6-.85c-2.15-1.19-3.67-3.08-5.23-4.62a7.27,7.27,0,0,0-2.56-1.79,24.85,24.85,0,0,0-3.24-.69c-2.5-.4-4.25-2.41-6.22-2.39a4,4,0,0,0-1.45.23c-.47.18-1,.44-1.56.66a31,31,0,0,0-3.14,1.22l-1.56.7c-.53.25-1,.46-1.5.71a8.61,8.61,0,0,0-2.43,2c-.7.82-1.38,1.73-2.05,2.65a8.69,8.69,0,0,1-1.23,1.4,9,9,0,0,1-1.63,1c-2.32,1.08-4.8,1-7,1.26-.55.06-1.08.14-1.6.23a5,5,0,0,0-1.24.38l-.12.12c-.08.08-.22.24-.38.38a4.61,4.61,0,0,1-.48.36l-.4.22-1.49.81a5.35,5.35,0,0,0-2.21,1.74,4.38,4.38,0,0,0-.36,2.57,3.78,3.78,0,0,0,1.1,2.31c.75.86,1.51,1.74,2.24,2.66a21.25,21.25,0,0,1,3.64,6.32,28.37,28.37,0,0,1,.87,3.5l.64,3.36a38.74,38.74,0,0,1,.3,7.11,22.86,22.86,0,0,0,.17,3.15,13.47,13.47,0,0,0,.29,1.46,5.35,5.35,0,0,0,.47,1.19,12.24,12.24,0,0,0,1.78,2.35l1.15,1.19a10.77,10.77,0,0,0,1.08.93,18.8,18.8,0,0,0,5.63,2.56c1.05.33,2.17.66,3.28,1l3.23,1.09,1.57.49a15,15,0,0,0,1.47.39c.46.09,1,.14,1.77.31a4,4,0,0,1,1.21.47l.7.4a1,1,0,0,0,.37.11,5.3,5.3,0,0,0,.63.09c.46,0,1,0,1.56,0s1.2,0,1.87,0,1.21.13,1.8.22a53.65,53.65,0,0,1,6.83,1.66c.55.17,1,.3,1.69.51a5.3,5.3,0,0,1,1.08.48,3.11,3.11,0,0,1,1.12,1.13,10.26,10.26,0,0,1,.45,1l.15.38.1.25.1.28c.1.38.16.5.09.38s-.06,0,0,0a3.37,3.37,0,0,0,1.14.12l1.7-.08h.85l.82,0,1.73-.08a12.26,12.26,0,0,1,3.81.39,4.88,4.88,0,0,1,2,1.13,4.54,4.54,0,0,1,.72.89c.17.27.32.54.46.79a13.57,13.57,0,0,0,1.67,2.63,2.94,2.94,0,0,0,1,.7,4,4,0,0,0,1.31.18c.52,0,1.07,0,1.59-.05a12.32,12.32,0,0,0,1.54-.25,11,11,0,0,0,1.5-.44,3,3,0,0,0,.59-.27c.11-.08,0,.07.23-.32a2.29,2.29,0,0,1,.94-1c.34-.18.58-.26.71-.35a2.38,2.38,0,0,0,.45-.43l.55-.65a3.25,3.25,0,0,1,1.82-1.14,13.72,13.72,0,0,1,1.81-.17,21.7,21.7,0,0,1,3.51.06,8.86,8.86,0,0,1,1.79.4,3.67,3.67,0,0,1,1.58,1.08c.82.91,1.38,1.86,2.08,2.78a6,6,0,0,0,1,1.28A3.52,3.52,0,0,0,413.73,486.63Z"/><path d="M468.77,416.36a21.18,21.18,0,0,1,10.88,4.88c1.72,1.52,3.62,3.4,3.76,5.67a37,37,0,0,1-.72,8.71c-.88,4.36-1.53,8.92-2.94,13.16-1.45,5.11-5.52,10-8.33,14.49-6.14,9.86-22.05,15.13-32.65,18a167.9,167.9,0,0,1-22.07,4.48c-18.82,2.51-37.77-.61-55.67-7a81.34,81.34,0,0,1-21.7-11.42c-5-3.75-9.55-8.44-12.31-14.09a28.63,28.63,0,0,1-2.77-13.57,35.77,35.77,0,0,1,6.42-20.28c2-2.88,4.64-5.54,8-6.71,5.43-1.89,11.29.54,16.67,2.57,16.48,6.21,33.84,8.5,51.36,8,13.1-.38,25.89-3.49,38.79-5.47C452.55,416.72,461.15,415.1,468.77,416.36Z"/><path class="mouth-3" d="M472.42,421.8c1.4,0,3,0,3.91,1.12a4.66,4.66,0,0,1,.67,3.22l-.21,6.12-9.82.28a2.08,2.08,0,0,1-2.65-2.33c-.13-1.58-1.4-6.59-.22-7.86S470.75,421.84,472.42,421.8Z"/><path class="mouth-3" d="M456.47,420.67a3.49,3.49,0,0,1,2,.29c1.07.64,1.13,2.13,1.06,3.37l-.46,8.84a3.74,3.74,0,0,1-.66,2.35,3.83,3.83,0,0,1-2.74.91l-9,.53a4.32,4.32,0,0,1-2.47-.34c-1.26-.73-1.46-2.43-1.52-3.88l-.3-7.48a4.72,4.72,0,0,1,.68-3.3c1.27-1.54,3.59-.83,5.31-.87C451.07,421,453.78,420.81,456.47,420.67Z"/><path class="mouth-3" d="M439.76,430.56c.27-1.79.49-3.78-.53-5.28-1.34-1.95-4.1-2.13-6.47-2.13-1.54,0-3.37.17-4.15,1.5a4.49,4.49,0,0,0-.46,1.82l-1.4,12.93,5,.72a9.3,9.3,0,0,0,4.89-.17C439.73,438.67,439.36,433.29,439.76,430.56Z"/><path class="mouth-3" d="M409.51,441.42a4.65,4.65,0,0,1-3.31-.7c-1.17-1-1.07-2.78-.87-4.3l.95-7.35a3.59,3.59,0,0,1,4.5-3.87l7.09.1a4.72,4.72,0,0,1,2.94.71c1.13.91,1.16,2.59,1.09,4-.1,2.19-.21,4.37-.31,6.56,0,1.12.2,3.12-.76,4s-3.73.53-5.07.58C413.68,441.25,411.59,441.42,409.51,441.42Z"/><path class="mouth-3" d="M377.71,432.8c.19-1.92-.1-4.15-1.67-5.27a6.64,6.64,0,0,0-2.9-.92l-14.27-2.19a2.32,2.32,0,0,0-3.29,2.11l-1.65,7a5.64,5.64,0,0,0,0,3.78c.79,1.57,2.78,2,4.52,2.28l13.46,2.09C378.2,442.61,377.26,437.3,377.71,432.8Z"/><path class="mouth-3" d="M349.72,427.1a5.89,5.89,0,0,0,.08-2.09,4.38,4.38,0,0,0-3.13-3c-3.47-1.15-7.4.24-10.09,2.72s-4.32,5.88-5.6,9.31c-.56,1.49-1,3.33,0,4.56.81,1,2.22,1.14,3.48,1.24l10.85.8c3.18.23,2.58-1.37,2.8-3.68C348.44,433.68,349.19,430.36,349.72,427.1Z"/><path class="mouth-3" d="M375.24,472a6.92,6.92,0,0,0-3.59-.55l-13.66.32c.52,0,2.44,1.89,3,2.23a26.16,26.16,0,0,0,3.24,1.79,27.36,27.36,0,0,0,7.34,2.19c1.51.22,4.52.85,5.61-.67S376.7,472.77,375.24,472Z"/><path class="mouth-3" d="M397.37,471.49a6.81,6.81,0,0,1,4.26,1.4c1.31,1.23,1.54,3.2,1.69,5,.09,1.22.15,2.59-.64,3.53-.93,1.1-2.59,1.11-4,1l-9.18-.47c-1.53-.08-3.19-.21-4.34-1.23-1.8-1.61-2.13-6.48.07-8,1.42-1,3.81-1,5.46-1.17A39.57,39.57,0,0,1,397.37,471.49Z"/><path class="mouth-3" d="M421.17,470.81a11.39,11.39,0,0,1,5.3.41A5.85,5.85,0,0,1,430,476.9a3.4,3.4,0,0,1-1.31,2.62,4.78,4.78,0,0,1-2.22.6l-14.37,1.44a4.46,4.46,0,0,1-2.54-.23c-1.55-.78-1.69-2.89-1.62-4.62.09-2.43.53-4.85,3.24-5.14C414.49,471.22,417.85,471.07,421.17,470.81Z"/><path class="mouth-3" d="M458.25,463.11a4.51,4.51,0,0,1,2.67,1.16,3.41,3.41,0,0,1,1.09,2.66,4.06,4.06,0,0,1-1.62,2.77,12,12,0,0,1-2.91,1.55l-2.68,1.13a2.92,2.92,0,0,1-2.41.26,2.47,2.47,0,0,1-1-2.25C451.31,466.73,454.3,462.74,458.25,463.11Z"/><path class="mouth-4" d="M399.87,440.91a5.65,5.65,0,0,0,.45-1.39,17.69,17.69,0,0,0,0-6,5.8,5.8,0,0,0-1.25-2.75c-1.33-1.75-2.55-2.66-5-2.23a15.4,15.4,0,0,1-3.39-.06,10.71,10.71,0,0,0-5.51.83,7.64,7.64,0,0,0-3.58,4.74,21.22,21.22,0,0,0-.57,6c0,1.17.07,2.5,1,3.24a4.41,4.41,0,0,0,2.77.63l8.45,0c1.67,0,3.46,0,4.84-.91A4.86,4.86,0,0,0,399.87,440.91Z"/><path class="mouth-4" d="M439.75,468.77c-3.4-.39-5.64,1.67-6,5.84-.2,2.49,1.18,4.78,3.5,4,3.2-1.12,8.48.2,8.6-5.74C445.93,469.34,443.17,468.76,439.75,468.77Z"/><rect class="mouth-5" width="800" height="800"/><path class="mouth-2" d="M406,386.17c0,.72-.86,1.3-1.91,1.3s-1.92-.58-1.92-1.3.9-8.74,1.16-8.74C404.36,377.43,406,385.46,406,386.17Z"/></g></g></svg>
