<svg xmlns="http://www.w3.org/2000/svg" viewBox="0 0 800 800"><defs><style>.mouth-1{fill:#fff;}.mouth-2{fill:none;}</style></defs><title>8000_mouth_half_circle_missing_teeth_elves</title><g id="Layer_2" data-name="Layer 2"><g id="_8000_mouth_half_circle_missing_teeth_elves" data-name="8000_mouth_half_circle_missing_teeth_elves"><path d="M473.23,410.26c0,37.79-32.3,68.42-72.16,68.42s-72.16-30.63-72.16-68.42"/><path class="mouth-1" d="M462.31,417.21c0,30.46-27.25,55.15-60.86,55.15s-60.85-24.69-60.85-55.15"/><path d="M339.55,431.77H459c1.31,0,2.68,0,4,0,0,7.78-4.16,22.65-13,22.83-6.54.14-13.1,0-19.64,0H363c-3.23,0-10.7,1.49-13.53,0-3.29-1.77-6.62-10.27-8.4-13.66C340.67,440.12,338.13,431.88,339.55,431.77Z"/><rect x="401.1" y="437.52" width="2.74" height="37.9" transform="translate(804.93 912.95) rotate(180)"/><rect x="425.48" y="437.6" width="5.47" height="34"/><rect x="379.7" y="435.85" width="22.89" height="37.79"/><rect x="390.64" y="415.44" width="2.74" height="37.9" transform="translate(784.03 868.78) rotate(180)"/><rect x="420.5" y="415.52" width="21.4" height="34" transform="translate(862.41 865.04) rotate(180)"/><rect x="366.26" y="413.77" width="2.99" height="36.07" transform="translate(735.51 863.61) rotate(180)"/><rect class="mouth-2" width="800" height="800"/></g></g></svg>
