<svg xmlns="http://www.w3.org/2000/svg" viewBox="0 0 800 800"><defs><style>.mouth-1,.mouth-2,.mouth-3{fill:none;}.mouth-1,.mouth-2{stroke:#000;stroke-miterlimit:10;stroke-width:2px;}.mouth-1{stroke-linecap:round;}</style></defs><title>8000_mouth_stitched_elves</title><g id="Layer_2" data-name="Layer 2"><g id="_8000_mouth_stitched_elves" data-name="8000_mouth_stitched_elves"><path class="mouth-1" d="M331.21,452.06c1.87-2.2,3.39-4.64,5.62-6.56a57.34,57.34,0,0,1,7.46-4.89c.35-.23.38-.94.8-1.22a8.71,8.71,0,0,1,1.94-.73c1-.41,2-1.05,3.08-1.44a13,13,0,0,1,3.07-.44c2-.33,2.43-1.65,4.34-2.5a27.54,27.54,0,0,1,6.13-1.54c1.77-.31,3.68.32,5.42-.12,1.92-.48,2.9-2.28,4.81-2.87a11.84,11.84,0,0,1,3.76-.15c2.65,0,5.45.23,8.08,0,2.88-.21,5.34-1.07,8.3-1.06q17.12.09,34.24,0a18.1,18.1,0,0,1,7.1,1c3.53,1.33,7.4.69,10.83,2.52,1.22.66,2.16,2,3.48,2.41,1,.32,2.06.17,3.07.4,2.74.62,4.69,2.67,7.38,3.57,5.2,1.74,10.2,3,15.07,5.6,1.51.8,2.36,1.88,4.11,2.39a15.61,15.61,0,0,1,4.08,1.46c2.38,1.38,5.36,3.73,8.17,4.11"/><path class="mouth-2" d="M332.23,439.3c.82-.08.88.8,1.51,1.05s1,0,1.58.34.8.45,1.23.65a3.57,3.57,0,0,1,1.7,1,14,14,0,0,1,2.65,3.54c.36.71.76,1.33,1.05,2.07a5.31,5.31,0,0,0,1,2"/><path class="mouth-2" d="M341.43,432.66a33.83,33.83,0,0,1-1,10c-.45,1.5-1.14,2.91-1.54,4.38-.45,1.67-.69,3.76-2,5"/><path class="mouth-2" d="M350.62,431.64c.84-.32,1.87-1.25,2.83-1.16,1.14.09,1.66,1.45,2.31,2.22.81,1,1.65,1.9,2.5,2.76s2,2,2.91,2.8c1.1.94,2.73,1.57,3.74,2.57"/><path class="mouth-2" d="M363.38,427c-.76-1.55-2.29.88-2.55,1.62-.33.94-.15,1.16-.76,2s-.63.52-.78,1.5a8.15,8.15,0,0,1-1.54,3.48c-.81,1.37-1.34,2.77-2,4.2"/><path class="mouth-2" d="M377.68,424c1.52,0,1.78,1.46,2.39,2.29a5.19,5.19,0,0,0,1,.78,2.3,2.3,0,0,1,.34.9c.28.34.64.64.9,1,.39.52.68,1,1,1.59a11.13,11.13,0,0,0,.71,1.09,21.15,21.15,0,0,1,1.47,1.84c.36.54.58,1.31,1.38,1.25"/><path class="mouth-2" d="M389.94,421.94c-.8,0-1.2-.23-1.56.47-.24.46-.12.94-.48,1.46a32.59,32.59,0,0,1-3.88,4.49,11.74,11.74,0,0,0-2.44,2.69c-.23.45-.38.93-.65,1.39-.53.87-1.31,1.68-1.87,2.56-.34.53-.6,1.29-1.38,1.23"/><path class="mouth-2" d="M400.66,424.49l.06-.44c1.94-.94,3.81,3.89,4.37,5.22s1.31,2.44,1.72,3.67c.23.71.55,2.1,1.51,2.27"/><path class="mouth-2" d="M410.36,422.45a29.22,29.22,0,0,1-2.54,2.28,43.27,43.27,0,0,1-3.57,3.46c-1.4,1.12-2.68,2.31-4.13,3.33-.57.41-2.08,1.36-2,2.16"/><path class="mouth-2" d="M422.62,423.47c.38,1.25,1.29,2.26,1.54,3.57a6.89,6.89,0,0,0,1.12,3.08c.27.36.69.61.93,1,.43.64.38,1.38.8,2s.9.57,1.15,1.09a5.29,5.29,0,0,1,.07,2.06"/><path class="mouth-2" d="M430.79,423l-.24-.33c-1.14.45-1.94,1.73-2.83,2.51s-1.82,1.86-2.81,2.62a17.54,17.54,0,0,0-2.17,2c-.34.36-.87.76-1.16,1.13-.45.56-.47,1.3-1,1.81"/><path class="mouth-2" d="M440.49,426.53c-.31,2.56,1.59,4.87,2.16,7s2.14,4,2.44,6.26"/><path class="mouth-2" d="M449.17,425.51c.24,1.35-.47,1.13-1.27,1.56s-1.4,1.4-2.14,2c-1.68,1.47-3.94,3-4.76,5.08"/><path class="mouth-2" d="M463,433.17c-.69-.05-1,.26-1.55.51s-1.1.33-1.73.56c-.91.32-1.3,1.16-2.19,1.61s-1.86,1.17-2.85,1.8c-.65.42-.89.41-1.4,1.07-.38.5-.33.75-1,1.09"/><path class="mouth-2" d="M453.26,431.13a15.43,15.43,0,0,1,3.1,3.45c.59,1,.62,2.09,1.17,3.18a26.06,26.06,0,0,0,2,3.48c.38.53,1.4,2.5,1.91,2.65"/><path class="mouth-2" d="M475.72,437.77c-2.27-.2-3.94,1.3-5.61,2.55a28,28,0,0,0-2.43,2.05c-.8.75-2,1.1-2.68,2"/><path class="mouth-2" d="M468.06,433.68c1.31.25.68,1.76,1,2.61.22.6.61.38,1,.92s.1,1.29.09,1.82a26.14,26.14,0,0,0,1,8.44"/><path class="mouth-2" d="M482.36,443.38l-.21-.29a14.66,14.66,0,0,0-2.72.79,8.86,8.86,0,0,1-1.48.65,1,1,0,0,0-.24.58c-.75.6-2.13,1.36-2.5,2.36"/><path class="mouth-2" d="M476.23,439.3a13.45,13.45,0,0,0,.11,3.36c.23.84.75,1.4,1,2.22a22.14,22.14,0,0,1,.41,3.1c.3,1.4,1.53,2,1.51,3.57"/><path class="mouth-2" d="M492.4,450a8.16,8.16,0,0,0-4.91,1.47c-1.68,1.08-3.85,1.71-5.3,3.12"/><path class="mouth-2" d="M485.77,447.43c1.08.23,1.16,1.32,1.5,2.16a14.5,14.5,0,0,1,1.1,2.05c.2.8,0,1.82.2,2.68a29.92,29.92,0,0,0,1,3.32,11.64,11.64,0,0,1,.25,3.57"/><rect class="mouth-3" width="800" height="800"/></g></g></svg>
