<svg xmlns="http://www.w3.org/2000/svg" viewBox="0 0 800 800"><defs><style>.mouth-1{fill:#fff;}.mouth-2{fill:none;}</style></defs><title>8000_mouth_missing_teeth_reindeer</title><g id="Layer_2" data-name="Layer 2"><g id="_8000_mouth_missing_teeth_reindeer" data-name="8000_mouth_missing_teeth_reindeer"><path d="M468.77,293.47a21.24,21.24,0,0,1,10.88,4.87c1.72,1.53,3.62,3.41,3.76,5.67a37,37,0,0,1-.72,8.72c-.88,4.36-1.53,8.92-2.94,13.15-1.45,5.12-5.52,10-8.33,14.5-6.14,9.85-22.05,15.12-32.65,18a166.25,166.25,0,0,1-22.07,4.47c-18.82,2.52-37.77-.6-55.67-7a81,81,0,0,1-21.7-11.41c-5-3.75-9.55-8.45-12.31-14.09a28.67,28.67,0,0,1-2.77-13.58,35.77,35.77,0,0,1,6.42-20.27c2-2.89,4.64-5.55,8-6.71,5.43-1.9,11.29.53,16.67,2.56,16.48,6.22,33.84,8.51,51.36,8,13.1-.38,25.89-3.49,38.79-5.47C452.55,293.83,461.15,292.21,468.77,293.47Z"/><path class="mouth-1" d="M472.42,298.91c1.4,0,3,0,3.91,1.11a4.68,4.68,0,0,1,.67,3.22l-.21,6.13-9.82.27a2.76,2.76,0,0,1-2-.49,2.7,2.7,0,0,1-.61-1.83c-.13-1.59-1.4-6.59-.22-7.87S470.75,298.94,472.42,298.91Z"/><path class="mouth-1" d="M456.47,297.78a3.41,3.41,0,0,1,2,.29c1.07.64,1.13,2.13,1.06,3.37l-.46,8.83a3.73,3.73,0,0,1-.66,2.35,3.79,3.79,0,0,1-2.74.92l-9,.52a4.4,4.4,0,0,1-2.47-.33c-1.26-.73-1.46-2.43-1.52-3.88l-.3-7.49a4.73,4.73,0,0,1,.68-3.3c1.27-1.53,3.59-.83,5.31-.87C451.07,298.14,453.78,297.91,456.47,297.78Z"/><path class="mouth-1" d="M439.76,307.67c.27-1.8.49-3.78-.53-5.28-1.34-1.95-4.1-2.14-6.47-2.13-1.54,0-3.37.17-4.15,1.5a4.49,4.49,0,0,0-.46,1.81l-1.4,12.93,5,.73a9.41,9.41,0,0,0,4.89-.17C439.73,315.78,439.36,310.4,439.76,307.67Z"/><path class="mouth-1" d="M409.51,318.53a4.71,4.71,0,0,1-3.31-.7c-1.17-1-1.07-2.79-.87-4.31l.95-7.35a4.72,4.72,0,0,1,1.17-3.07,4.78,4.78,0,0,1,3.33-.79l7.09.1a4.71,4.71,0,0,1,2.94.7c1.13.91,1.16,2.6,1.09,4.05-.1,2.18-.21,4.37-.31,6.55,0,1.12.2,3.12-.76,4s-3.73.53-5.07.59C413.68,318.35,411.59,318.53,409.51,318.53Z"/><path class="mouth-1" d="M377.71,309.9c.19-1.92-.1-4.14-1.67-5.26a6.51,6.51,0,0,0-2.9-.92l-14.27-2.2a2.32,2.32,0,0,0-3.29,2.12l-1.65,6.95a5.61,5.61,0,0,0,0,3.77c.79,1.57,2.78,2,4.52,2.29l13.46,2.09C378.2,319.71,377.26,314.4,377.71,309.9Z"/><path class="mouth-1" d="M349.72,304.21a6,6,0,0,0,.08-2.1,4.42,4.42,0,0,0-3.13-3c-3.47-1.14-7.4.24-10.09,2.72s-4.32,5.89-5.6,9.31c-.56,1.5-1,3.34,0,4.57.81,1,2.22,1.14,3.48,1.23l10.85.8c3.18.24,2.58-1.36,2.8-3.68C348.44,310.78,349.19,307.47,349.72,304.21Z"/><path class="mouth-1" d="M375.24,349.06a6.92,6.92,0,0,0-3.59-.56l-13.66.33c.52,0,2.44,1.89,3,2.23a26.09,26.09,0,0,0,3.24,1.78,26.65,26.65,0,0,0,7.34,2.19c1.51.23,4.52.86,5.61-.66S376.7,349.88,375.24,349.06Z"/><path class="mouth-1" d="M397.37,348.6a6.75,6.75,0,0,1,4.26,1.4c1.31,1.23,1.54,3.2,1.69,5,.09,1.22.15,2.59-.64,3.52-.93,1.1-2.59,1.12-4,1.05l-9.18-.47c-1.53-.08-3.19-.21-4.34-1.23-1.8-1.61-2.13-6.49.07-8,1.42-1,3.81-1,5.46-1.17A38.55,38.55,0,0,1,397.37,348.6Z"/><path class="mouth-1" d="M421.17,347.91a11.53,11.53,0,0,1,5.3.41A5.87,5.87,0,0,1,430,354a3.42,3.42,0,0,1-1.31,2.63,4.78,4.78,0,0,1-2.22.6l-14.37,1.44a4.64,4.64,0,0,1-2.54-.23c-1.55-.78-1.69-2.89-1.62-4.62.09-2.44.53-4.85,3.24-5.14C414.49,348.32,417.85,348.18,421.17,347.91Z"/><path class="mouth-1" d="M441.17,346a2.76,2.76,0,0,1,3.63,3.18c.09,1.66.1,3.57-1.15,4.67a5.58,5.58,0,0,1-2.83,1l-4.57.76a1.68,1.68,0,0,1-1.23-.11,1.72,1.72,0,0,1-.49-1.44c0-1.55-.93-6.56.24-7.69.61-.58,1.35-.11,2.11-.07A32.61,32.61,0,0,0,441.17,346Z"/><path class="mouth-1" d="M458.25,340.22a4.45,4.45,0,0,1,2.67,1.16A3.4,3.4,0,0,1,462,344a4,4,0,0,1-1.62,2.77,12,12,0,0,1-2.91,1.56l-2.68,1.13a3,3,0,0,1-2.41.26,2.48,2.48,0,0,1-1-2.25C451.31,343.84,454.3,339.84,458.25,340.22Z"/><rect class="mouth-2" width="800" height="800"/></g></g></svg>
