<svg xmlns="http://www.w3.org/2000/svg" viewBox="0 0 800 800"><defs><style>.mouth-1,.mouth-5{fill:none;}.mouth-1{stroke:#900;stroke-miterlimit:10;stroke-width:2px;}.mouth-2{fill:#900;}.mouth-3{fill:#fff;}.mouth-4{fill:#ff0;}</style></defs><title>8000_mouth_gold_teeth_blood</title><g id="Layer_2" data-name="Layer 2"><g id="_8000_mouth_gold_teeth_blood" data-name="8000_mouth_gold_teeth_blood"><path class="mouth-1" d="M388.4,249.51c0,1.56,0,3.12,0,4.67.05,2.73,2.54,3.86,2.59,6.45.06,3.23,0,6.47,0,9.7v11.28c0,2,0,4,0,6a6,6,0,0,1-.23,2.39,20.84,20.84,0,0,1-1.3,2.94"/><path class="mouth-2" d="M399.64,287.61a3.71,3.71,0,0,1,1.72.64,7.07,7.07,0,0,1,1.22,1.3c.74.83,1.44,1.78,2.2,2.53a2.63,2.63,0,0,0,1.24.75,7.16,7.16,0,0,0,1.56.24,20.4,20.4,0,0,0,3.3-.14,14.4,14.4,0,0,0,1.57-.25,1.65,1.65,0,0,0,.95-.71l.52-.69a4,4,0,0,1,.74-.77,8.53,8.53,0,0,1,.79-.47c.16-.12.17-.14.22-.26s.1-.25.24-.48a2,2,0,0,1,.53-.55,5.41,5.41,0,0,1,.92-.51,12.38,12.38,0,0,1,1.74-.6,12.89,12.89,0,0,1,1.81-.38,18.14,18.14,0,0,1,1.81-.14,5.85,5.85,0,0,1,2.06.23,5,5,0,0,1,1.84,1.17,15.25,15.25,0,0,1,2.16,3c.14.24.29.47.42.67a1.08,1.08,0,0,0,.2.24c.06.06.09.14.16.18a2.34,2.34,0,0,0,1,.49,9.65,9.65,0,0,0,3,.17l1.67-.13.88-.06.86,0c.48,0,1.07-.1,1.7-.13a6,6,0,0,1,2.23.22,3,3,0,0,1,1.39,1,3.85,3.85,0,0,1,.54,1.2l0,.12.06.14.18.41a5.43,5.43,0,0,0,.28.58c.06.09,0,0,.07.06a3.61,3.61,0,0,0,.48.19c.44.13,1,.29,1.58.43a50.58,50.58,0,0,0,6.45,1.42c.54.07,1.07.13,1.6.16a13,13,0,0,0,1.53,0c.57,0,1.18,0,1.85,0a8.2,8.2,0,0,1,1.06.12,4.68,4.68,0,0,1,1.25.41c.36.18.61.34.79.44l.22.1.16,0c.38.09.92.14,1.59.25s1.24.3,1.83.46,1.13.33,1.68.51l3.25,1.06c1.05.34,2.12.64,3.24,1a21.17,21.17,0,0,1,6.72,3.07,13.18,13.18,0,0,1,1.5,1.3c.39.4.81.82,1.21,1.27a15,15,0,0,1,2.3,3.1,9,9,0,0,1,.77,2,15.72,15.72,0,0,1,.36,1.89,23.87,23.87,0,0,1,.15,3.65,35.77,35.77,0,0,0,.09,6.51c.41,2.24.6,4.55,1.17,6.51a18.59,18.59,0,0,0,2.93,5.55c.65.89,1.34,1.76,2.05,2.65a8.38,8.38,0,0,1,1.09,1.73,6.09,6.09,0,0,1,.48,2.09,10.08,10.08,0,0,1-.09,2,5.1,5.1,0,0,1-.78,2.06,7.35,7.35,0,0,1-3.11,2.4l-1.53.75-.36.18-.21.14a1.64,1.64,0,0,0-.23.21,3.16,3.16,0,0,1-.53.44,6,6,0,0,1-2,.59c-.6.09-1.2.15-1.78.18-2.34.13-4.56,0-6.44.83a6.05,6.05,0,0,0-1.28.74,7.18,7.18,0,0,0-1,1.13c-.69.9-1.4,1.8-2.2,2.68a10,10,0,0,1-2.87,2.24c-.55.28-1.1.48-1.6.71l-1.57.68a34.26,34.26,0,0,1-3.22,1.23c-.5.17-1,.43-1.59.64a4.91,4.91,0,0,1-1.9.29,7.39,7.39,0,0,1-3.46-1.22,8.58,8.58,0,0,0-3-1.21,23.54,23.54,0,0,1-3.42-.72,6.48,6.48,0,0,1-1.66-.89,12.77,12.77,0,0,1-1.36-1.16c-.84-.8-1.6-1.66-2.4-2.41a12.77,12.77,0,0,0-2.59-1.92,6.13,6.13,0,0,0-3-.62c-1.09,0-2.29,0-3.42,0a37.59,37.59,0,0,0-6.66.22c-2.1.34-4.16,1.27-6.46,1.89-.56.15-1.2.29-1.74.38a12,12,0,0,1-1.84.25,9,9,0,0,1-1.93-.19l-.22,0h-.09l-.4,0a2.78,2.78,0,0,1-.69-.13,2.07,2.07,0,0,1-.71-.4,14.29,14.29,0,0,1-1.16-1.4c-.11-.1-.09-.08-.27-.14a2.94,2.94,0,0,0-.61-.11,8.75,8.75,0,0,1-1-.13,6,6,0,0,1-1-.34c-.59-.24-1.08-.5-1.49-.63a8.15,8.15,0,0,0-2.91-.17c-.54,0-1.21.06-1.76.07l-1.7,0-6.81.14a19.41,19.41,0,0,0-6.25.87c-.48.16-.95.37-1.42.58l-1.54.73c-1,.5-2.11,1-3.22,1.42-.58.22-1.1.41-1.75.61a12.46,12.46,0,0,1-1.93.39c-1.26.16-2.34.2-3.35.36a26,26,0,0,1-7.27.35,15.47,15.47,0,0,1-1.9-.35c-.31-.07-.65-.18-.92-.26a6.21,6.21,0,0,0-.62-.14,13.72,13.72,0,0,0-3-.11c-2.46.13-4.89-.35-6.13.22-1.59.59-3,2.12-4.91,3.72a13.39,13.39,0,0,1-3.39,2.12,16.19,16.19,0,0,1-3.75,1,30.6,30.6,0,0,1-3.65.3,22.22,22.22,0,0,1-3.82-.13,8.27,8.27,0,0,1-4-1.95,20.27,20.27,0,0,1-2.53-2.83,22.79,22.79,0,0,1-2.29-2.92c-.1-.16-.19-.34-.28-.51l-.12-.27-.08-.18-.06-.18-.26-.82c0-.09-.06-.16,0-.13l0,.07,0,0-.05-.07a4.72,4.72,0,0,0-.4-.42c-.34-.34-.81-.72-1.33-1.3-.36-.41-.7-.76-1.11-1.17a15.09,15.09,0,0,1-2.49-3.1,9.44,9.44,0,0,1-1-4.24c0-.64,0-1.25,0-1.8s0-1,0-1.57c0-1.1-.14-2.27-.16-3.5,0-.61,0-1.25.08-1.92a9.58,9.58,0,0,1,.14-1,5,5,0,0,1,.13-.59,4.15,4.15,0,0,1,.27-.74,9,9,0,0,1,1.23-1.84c.41-.51.82-1,1.23-1.39a11,11,0,0,0,1.82-2.12l.33-.72a9.6,9.6,0,0,1,.52-1c.37-.6.75-1.1,1.08-1.54a11.27,11.27,0,0,0,.82-1.2c.06-.12.26-.51.42-.78s.35-.55.51-.81l.93-1.38a5.59,5.59,0,0,0,.56-1.06c.1-.31.18-.83.33-1.49a7.52,7.52,0,0,1,.3-1.06c.06-.18.16-.41.22-.54l.14-.33c.76-1.81,1.18-4.09,2-6.41a13.81,13.81,0,0,1,1.75-3.5,9.57,9.57,0,0,1,1.42-1.56,8.62,8.62,0,0,1,1.73-1.22,7.28,7.28,0,0,1,4.31-.79,25.36,25.36,0,0,1,3.46.79,23.85,23.85,0,0,0,3.18.29,10.44,10.44,0,0,0,1.41.07,1.35,1.35,0,0,0,.68-.35,7.66,7.66,0,0,0,1.58-2.3c.26-.49.52-1,.85-1.57s.64-1,1-1.54a17.44,17.44,0,0,1,2.47-2.77,15.67,15.67,0,0,1,1.46-1.15c.47-.33.94-.67,1.45-1a11.56,11.56,0,0,1,3.47-1.62,8.35,8.35,0,0,1,1-.16l.52,0h.43l1.72.06c2.29.08,4.56.13,6.83.17l1.71,0c.57,0,1.19,0,1.76.09,1.15.09,2.26.21,3.34.24a11.46,11.46,0,0,0,1.57-.08,4.17,4.17,0,0,0,1.39-.44c.48-.22,1-.52,1.54-.78a13.28,13.28,0,0,1,1.71-.58,8.62,8.62,0,0,0,1.51-.51,7,7,0,0,0,1.33-.92,5.17,5.17,0,0,1,1.77-.68c.58-.13,1.14-.21,1.71-.3C395.11,288.16,397.31,287.91,399.64,287.61Zm0,.4L393,289.36c-.55.12-1.11.24-1.63.39a4,4,0,0,0-1.37.61,8.88,8.88,0,0,1-1.42,1.08,10.63,10.63,0,0,1-1.67.7,10.28,10.28,0,0,0-1.49.59c-.46.24-.92.56-1.45.86a6,6,0,0,1-1.81.68,11.63,11.63,0,0,1-1.83.2c-1.19,0-2.35,0-3.47-.06-.57,0-1.08,0-1.65,0l-1.71,0c-2.27.05-4.55.1-6.8.12l-1.7,0h-.42l-.33,0a5.13,5.13,0,0,0-.66.13,9.22,9.22,0,0,0-2.61,1.39c-.44.31-.88.65-1.33,1a11.31,11.31,0,0,0-1.17,1,13.82,13.82,0,0,0-2,2.4c-.29.43-.55.89-.8,1.35s-.47.94-.73,1.47a10.46,10.46,0,0,1-2.22,3.3,4.5,4.5,0,0,1-2.33,1.15,10.11,10.11,0,0,1-2,0,24.94,24.94,0,0,1-3.62-.23,16.61,16.61,0,0,1-1.79-.42,8.32,8.32,0,0,0-1.4-.23,3.89,3.89,0,0,0-2.29.48,5.3,5.3,0,0,0-1,.77,6.56,6.56,0,0,0-.85,1,10.73,10.73,0,0,0-1.2,2.62c-.68,2-1,4.23-1.94,6.65l-.18.45c0,.13-.07.16-.1.26a4.32,4.32,0,0,0-.14.57,18.53,18.53,0,0,1-.39,1.85,8.62,8.62,0,0,1-.94,2c-.33.55-.67,1-.95,1.47-.14.22-.28.44-.39.64l-.38.72a14.58,14.58,0,0,1-1.08,1.64c-.34.47-.64.88-.87,1.26a4.68,4.68,0,0,0-.28.54l-.37.83a6.78,6.78,0,0,1-.62,1,9,9,0,0,1-.67.81l-1.19,1.29q-.55.6-1,1.17a6.14,6.14,0,0,0-.67,1l0,.06s0,.17-.05.24-.06.43-.08.67c0,.46,0,1,0,1.48,0,1,.12,2.15.19,3.32,0,.59.07,1.2.07,1.84s0,1.12,0,1.61a5.25,5.25,0,0,0,.5,2.34,11.12,11.12,0,0,0,1.8,2.17c.39.4.84.87,1.23,1.32.24.27.64.62,1.12,1.07a9.39,9.39,0,0,1,.76.83,3.16,3.16,0,0,1,.2.27,2.32,2.32,0,0,1,.14.21,1.66,1.66,0,0,1,.14.25c.14.29.2.48.27.66l.25.81v0l0,.12c0,.08.08.16.13.24a25.29,25.29,0,0,0,1.94,2.41,18.63,18.63,0,0,0,2,2.28,3.92,3.92,0,0,0,2,1,19.14,19.14,0,0,0,3,.13,26.85,26.85,0,0,0,3.15-.22,12.83,12.83,0,0,0,2.84-.69A9.34,9.34,0,0,0,348,359c.82-.66,1.64-1.43,2.62-2.21a12.35,12.35,0,0,1,3.44-2.05,10.19,10.19,0,0,1,4.13-.48l1.7.1c.51,0,1,0,1.59,0a18.13,18.13,0,0,1,3.79.22,9.77,9.77,0,0,1,1,.27l.72.21a11.63,11.63,0,0,0,1.45.29,24.7,24.7,0,0,0,6.32-.21c1.24-.17,2.43-.18,3.43-.28a10.12,10.12,0,0,0,1.43-.25c.44-.12,1-.3,1.48-.48,1-.36,2-.79,3.05-1.24l1.56-.7a17.67,17.67,0,0,1,1.76-.66,22.44,22.44,0,0,1,7.22-.86l6.83.13,1.71,0H405a10.21,10.21,0,0,1,3.84.44c.66.26,1.17.56,1.62.76a3.74,3.74,0,0,0,1.32.36,5.12,5.12,0,0,1,1,.24,2.87,2.87,0,0,1,1.16.75c.56.65.78,1.18.94,1.28s-.11,0,.16.06l.45,0,.33.05.19.05a7.38,7.38,0,0,0,1.46.2,11.52,11.52,0,0,0,1.54-.16c.58-.09,1.06-.17,1.6-.3,2.12-.48,4.28-1.37,6.69-1.69a39.47,39.47,0,0,1,7,0c1.15.06,2.22.07,3.4.09a7.4,7.4,0,0,1,3.6.84c2.15,1.2,3.67,3.09,5.23,4.62a7.18,7.18,0,0,0,2.56,1.79,24.8,24.8,0,0,0,3.24.7c2.5.39,4.25,2.41,6.22,2.38a3.77,3.77,0,0,0,1.45-.23c.47-.17,1-.44,1.56-.65a33.57,33.57,0,0,0,3.14-1.23l1.56-.7c.52-.25,1-.46,1.49-.71a8.3,8.3,0,0,0,2.43-2c.71-.83,1.38-1.73,2.06-2.65a6.58,6.58,0,0,1,2.86-2.44c2.32-1.08,4.79-1,7-1.26.55-.05,1.08-.13,1.6-.23a4.25,4.25,0,0,0,1.24-.38s0,0,.12-.11a4.35,4.35,0,0,1,.38-.39,3.64,3.64,0,0,1,.48-.35l.4-.22,1.49-.82a5.27,5.27,0,0,0,2.21-1.74,4.34,4.34,0,0,0,.36-2.56,3.74,3.74,0,0,0-1.11-2.32c-.74-.85-1.5-1.73-2.23-2.65a21.3,21.3,0,0,1-3.64-6.33,27.93,27.93,0,0,1-.87-3.5l-.64-3.36a38.63,38.63,0,0,1-.3-7.1,23.1,23.1,0,0,0-.17-3.16,13.28,13.28,0,0,0-.29-1.45,4.79,4.79,0,0,0-.48-1.19,11.54,11.54,0,0,0-1.77-2.36l-1.15-1.18a9.62,9.62,0,0,0-1.08-.93,18.8,18.8,0,0,0-5.63-2.56c-1.05-.33-2.17-.66-3.28-1l-3.23-1.09-1.57-.5c-.51-.14-1.1-.32-1.47-.39s-1.06-.13-1.78-.3A4.81,4.81,0,0,1,459,303a4.93,4.93,0,0,1-.56-.27l-.69-.39a1.14,1.14,0,0,0-.37-.12,3.86,3.86,0,0,0-.63-.08c-.46,0-1,0-1.56,0a17.4,17.4,0,0,1-1.88,0c-.6-.06-1.2-.13-1.79-.23a52,52,0,0,1-6.83-1.65c-.55-.17-1-.3-1.7-.51a6.18,6.18,0,0,1-1.07-.48,3.14,3.14,0,0,1-1.12-1.14,6.92,6.92,0,0,1-.45-1l-.15-.37-.11-.25-.09-.29c-.11-.37-.16-.49-.1-.37s.06,0,0,0a3.18,3.18,0,0,0-1.14-.11l-1.7.07h-.85l-.82,0-1.73.07a11.69,11.69,0,0,1-3.81-.39,4.74,4.74,0,0,1-2-1.12,4.3,4.3,0,0,1-.72-.9c-.18-.27-.32-.53-.46-.79a13.47,13.47,0,0,0-1.67-2.62,2.68,2.68,0,0,0-1-.7,3.7,3.7,0,0,0-1.31-.18,14.08,14.08,0,0,0-1.59.05,11.08,11.08,0,0,0-1.55.25,11.83,11.83,0,0,0-1.5.43c-.22.09-.46.2-.59.27s0-.06-.22.33a2.27,2.27,0,0,1-.94.95c-.34.18-.58.27-.71.35a2.92,2.92,0,0,0-.45.44l-.55.64a3.2,3.2,0,0,1-1.82,1.14,13.83,13.83,0,0,1-1.81.18,20.62,20.62,0,0,1-3.51-.07,8.2,8.2,0,0,1-1.79-.39,3.78,3.78,0,0,1-1.59-1.09c-.81-.91-1.37-1.85-2.07-2.78a6.93,6.93,0,0,0-1-1.28A3.5,3.5,0,0,0,399.64,288Z"/><path d="M338.92,359.43a21.14,21.14,0,0,1-10.87-4.88c-1.72-1.52-3.62-3.4-3.76-5.66a36,36,0,0,1,.72-8.72c.87-4.36,1.53-8.92,2.94-13.15,1.45-5.12,5.52-10,8.33-14.5,6.13-9.86,22.05-15.13,32.65-18A167.24,167.24,0,0,1,391,290c18.82-2.51,37.77.61,55.66,7a80.93,80.93,0,0,1,21.71,11.41c5,3.75,9.54,8.45,12.3,14.09a28.56,28.56,0,0,1,2.78,13.58A35.84,35.84,0,0,1,477,356.36c-2,2.88-4.64,5.55-8,6.71-5.43,1.9-11.3-.53-16.68-2.56-16.47-6.22-33.84-8.51-51.35-8-13.1.38-25.89,3.49-38.79,5.47C355.15,359.07,346.55,360.69,338.92,359.43Z"/><path class="mouth-3" d="M335.28,354c-1.41,0-3,0-3.92-1.11a4.74,4.74,0,0,1-.67-3.22l.21-6.13,9.82-.28a2.08,2.08,0,0,1,2.66,2.33c.13,1.59,1.4,6.59.21,7.86S337,354,335.28,354Z"/><path class="mouth-3" d="M351.22,355.12a3.5,3.5,0,0,1-2-.29c-1.06-.64-1.12-2.13-1.06-3.37l.46-8.84a3.89,3.89,0,0,1,.66-2.35,3.83,3.83,0,0,1,2.74-.91l9-.53a4.42,4.42,0,0,1,2.48.34c1.26.73,1.46,2.43,1.51,3.88l.31,7.48a4.87,4.87,0,0,1-.68,3.31c-1.27,1.53-3.6.83-5.31.86C356.62,354.76,353.92,355,351.22,355.12Z"/><path class="mouth-3" d="M367.93,345.23c-.26,1.79-.48,3.78.54,5.28,1.34,1.95,4.1,2.14,6.46,2.13,1.54,0,3.37-.17,4.15-1.5a4.34,4.34,0,0,0,.46-1.82l1.4-12.93-5-.72a9.26,9.26,0,0,0-4.88.17C368,337.12,368.33,342.5,367.93,345.23Z"/><path class="mouth-3" d="M398.18,334.37a4.67,4.67,0,0,1,3.32.7c1.16,1,1.06,2.79.87,4.3l-.95,7.35a3.6,3.6,0,0,1-4.51,3.87l-7.08-.1a4.76,4.76,0,0,1-2.94-.7c-1.13-.92-1.16-2.6-1.09-4.05l.3-6.56c.06-1.11-.2-3.12.76-4s3.74-.52,5.07-.58C394,334.54,396.1,334.37,398.18,334.37Z"/><path class="mouth-3" d="M430,343c-.19,1.92.09,4.15,1.66,5.27a6.68,6.68,0,0,0,2.91.92l14.26,2.19a2.34,2.34,0,0,0,3.3-2.11l1.65-6.95a5.61,5.61,0,0,0,0-3.77c-.78-1.58-2.78-2-4.51-2.29l-13.47-2.09C429.5,333.18,430.43,338.5,430,343Z"/><path class="mouth-3" d="M458,348.69a5.72,5.72,0,0,0-.09,2.1,4.43,4.43,0,0,0,3.13,3c3.47,1.14,7.41-.25,10.1-2.72s4.32-5.89,5.59-9.31c.56-1.5,1-3.34,0-4.57-.81-1-2.22-1.14-3.49-1.23l-10.84-.81c-3.19-.23-2.59,1.37-2.8,3.68C459.26,342.12,458.5,345.43,458,348.69Z"/><path class="mouth-3" d="M432.46,303.84a6.9,6.9,0,0,0,3.58.55l13.66-.32c-.51,0-2.43-1.89-3-2.23a25.64,25.64,0,0,0-3.25-1.78,26.81,26.81,0,0,0-7.34-2.2c-1.5-.22-4.52-.85-5.61.67S431,303,432.46,303.84Z"/><path class="mouth-3" d="M410.33,304.3a6.84,6.84,0,0,1-4.27-1.4c-1.31-1.23-1.53-3.2-1.68-5-.1-1.22-.16-2.59.64-3.52.93-1.1,2.58-1.12,4-1.05l9.18.47c1.54.08,3.2.21,4.34,1.23,1.8,1.61,2.14,6.48-.06,8-1.43,1-3.82,1-5.46,1.16A37.61,37.61,0,0,1,410.33,304.3Z"/><path class="mouth-3" d="M386.52,305a11.41,11.41,0,0,1-5.3-.4,5.86,5.86,0,0,1-3.51-5.68,3.41,3.41,0,0,1,1.3-2.63,4.81,4.81,0,0,1,2.22-.6l14.37-1.44a4.59,4.59,0,0,1,2.55.23c1.54.78,1.69,2.89,1.62,4.62-.1,2.44-.54,4.85-3.25,5.14C393.21,304.57,389.85,304.72,386.52,305Z"/><path class="mouth-3" d="M349.44,312.68a4.56,4.56,0,0,1-2.67-1.16,3.43,3.43,0,0,1-1.08-2.66,4,4,0,0,1,1.62-2.77,12.43,12.43,0,0,1,2.9-1.55l2.68-1.13a2.92,2.92,0,0,1,2.41-.26,2.47,2.47,0,0,1,1,2.25C356.39,309.06,353.4,313.05,349.44,312.68Z"/><path class="mouth-4" d="M407.82,334.88a7,7,0,0,0-.45,1.39,18,18,0,0,0,0,6,5.93,5.93,0,0,0,1.25,2.76c1.33,1.74,2.56,2.65,5,2.22a16,16,0,0,1,3.39.06,10.67,10.67,0,0,0,5.5-.83,7.66,7.66,0,0,0,3.59-4.74,21.59,21.59,0,0,0,.56-5.95c0-1.16-.07-2.49-1-3.24a4.46,4.46,0,0,0-2.78-.63l-8.44,0a8.76,8.76,0,0,0-4.85.91A4.78,4.78,0,0,0,407.82,334.88Z"/><path class="mouth-4" d="M367.94,307c3.4.39,5.64-1.67,6-5.84.21-2.49-1.17-4.78-3.49-4-3.21,1.11-8.48-.21-8.61,5.74C361.76,306.45,364.52,307,367.94,307Z"/><rect class="mouth-5" width="800" height="800"/><path class="mouth-2" d="M406,263.28c0,.72-.86,1.29-1.91,1.29s-1.92-.57-1.92-1.29.9-8.75,1.16-8.75C404.36,254.53,406,262.57,406,263.28Z"/></g></g></svg>
