<svg xmlns="http://www.w3.org/2000/svg" viewBox="0 0 800 800"><defs><style>.mouth-1{fill:#fff;}.mouth-2{fill:#ff0;}.mouth-3{fill:none;}</style></defs><title>8000_mouth_gold_teeth_elves</title><g id="Layer_2" data-name="Layer 2"><g id="_8000_mouth_gold_teeth_elves" data-name="8000_mouth_gold_teeth_elves"><path d="M468.77,416.36a21.18,21.18,0,0,1,10.88,4.88c1.72,1.52,3.62,3.4,3.76,5.67a37,37,0,0,1-.72,8.71c-.88,4.36-1.53,8.92-2.94,13.16-1.45,5.11-5.52,10-8.33,14.49-6.14,9.86-22.05,15.13-32.65,18a167.9,167.9,0,0,1-22.07,4.48c-18.82,2.51-37.77-.61-55.67-7a81.34,81.34,0,0,1-21.7-11.42c-5-3.75-9.55-8.44-12.31-14.09a28.63,28.63,0,0,1-2.77-13.57,35.77,35.77,0,0,1,6.42-20.28c2-2.88,4.64-5.54,8-6.71,5.43-1.89,11.29.54,16.67,2.57,16.48,6.21,33.84,8.5,51.36,8,13.1-.38,25.89-3.49,38.79-5.47C452.55,416.72,461.15,415.1,468.77,416.36Z"/><path class="mouth-1" d="M472.42,421.8c1.4,0,3,0,3.91,1.12a4.66,4.66,0,0,1,.67,3.22l-.21,6.12-9.82.28a2.08,2.08,0,0,1-2.65-2.33c-.13-1.58-1.4-6.59-.22-7.86S470.75,421.84,472.42,421.8Z"/><path class="mouth-1" d="M456.47,420.67a3.49,3.49,0,0,1,2,.29c1.07.64,1.13,2.13,1.06,3.37l-.46,8.84a3.74,3.74,0,0,1-.66,2.35,3.83,3.83,0,0,1-2.74.91l-9,.53a4.32,4.32,0,0,1-2.47-.34c-1.26-.73-1.46-2.43-1.52-3.88l-.3-7.48a4.72,4.72,0,0,1,.68-3.3c1.27-1.54,3.59-.83,5.31-.87C451.07,421,453.78,420.81,456.47,420.67Z"/><path class="mouth-1" d="M439.76,430.56c.27-1.79.49-3.78-.53-5.28-1.34-1.95-4.1-2.13-6.47-2.13-1.54,0-3.37.17-4.15,1.5a4.49,4.49,0,0,0-.46,1.82l-1.4,12.93,5,.72a9.3,9.3,0,0,0,4.89-.17C439.73,438.67,439.36,433.29,439.76,430.56Z"/><path class="mouth-1" d="M409.51,441.42a4.65,4.65,0,0,1-3.31-.7c-1.17-1-1.07-2.78-.87-4.3l.95-7.35a3.59,3.59,0,0,1,4.5-3.87l7.09.1a4.72,4.72,0,0,1,2.94.71c1.13.91,1.16,2.59,1.09,4-.1,2.19-.21,4.37-.31,6.56,0,1.12.2,3.12-.76,4s-3.73.53-5.07.58C413.68,441.25,411.59,441.42,409.51,441.42Z"/><path class="mouth-1" d="M377.71,432.8c.19-1.92-.1-4.15-1.67-5.27a6.64,6.64,0,0,0-2.9-.92l-14.27-2.19a2.32,2.32,0,0,0-3.29,2.11l-1.65,7a5.64,5.64,0,0,0,0,3.78c.79,1.57,2.78,2,4.52,2.28l13.46,2.09C378.2,442.61,377.26,437.3,377.71,432.8Z"/><path class="mouth-1" d="M349.72,427.1a5.89,5.89,0,0,0,.08-2.09,4.38,4.38,0,0,0-3.13-3c-3.47-1.15-7.4.24-10.09,2.72s-4.32,5.88-5.6,9.31c-.56,1.49-1,3.33,0,4.56.81,1,2.22,1.14,3.48,1.24l10.85.8c3.18.23,2.58-1.37,2.8-3.68C348.44,433.68,349.19,430.36,349.72,427.1Z"/><path class="mouth-1" d="M375.24,472a6.92,6.92,0,0,0-3.59-.55l-13.66.32c.52,0,2.44,1.89,3,2.23a26.16,26.16,0,0,0,3.24,1.79,27.36,27.36,0,0,0,7.34,2.19c1.51.22,4.52.85,5.61-.67S376.7,472.77,375.24,472Z"/><path class="mouth-1" d="M397.37,471.49a6.81,6.81,0,0,1,4.26,1.4c1.31,1.23,1.54,3.2,1.69,5,.09,1.22.15,2.59-.64,3.53-.93,1.1-2.59,1.11-4,1l-9.18-.47c-1.53-.08-3.19-.21-4.34-1.23-1.8-1.61-2.13-6.48.07-8,1.42-1,3.81-1,5.46-1.17A39.57,39.57,0,0,1,397.37,471.49Z"/><path class="mouth-1" d="M421.17,470.81a11.39,11.39,0,0,1,5.3.41A5.85,5.85,0,0,1,430,476.9a3.4,3.4,0,0,1-1.31,2.62,4.78,4.78,0,0,1-2.22.6l-14.37,1.44a4.46,4.46,0,0,1-2.54-.23c-1.55-.78-1.69-2.89-1.62-4.62.09-2.43.53-4.85,3.24-5.14C414.49,471.22,417.85,471.07,421.17,470.81Z"/><path class="mouth-1" d="M458.25,463.11a4.51,4.51,0,0,1,2.67,1.16,3.41,3.41,0,0,1,1.09,2.66,4.06,4.06,0,0,1-1.62,2.77,12,12,0,0,1-2.91,1.55l-2.68,1.13a2.92,2.92,0,0,1-2.41.26,2.47,2.47,0,0,1-1-2.25C451.31,466.73,454.3,462.74,458.25,463.11Z"/><path class="mouth-2" d="M399.87,440.91a5.65,5.65,0,0,0,.45-1.39,17.69,17.69,0,0,0,0-6,5.8,5.8,0,0,0-1.25-2.75c-1.33-1.75-2.55-2.66-5-2.23a15.4,15.4,0,0,1-3.39-.06,10.71,10.71,0,0,0-5.51.83,7.64,7.64,0,0,0-3.58,4.74,21.22,21.22,0,0,0-.57,6c0,1.17.07,2.5,1,3.24a4.41,4.41,0,0,0,2.77.63l8.45,0c1.67,0,3.46,0,4.84-.91A4.86,4.86,0,0,0,399.87,440.91Z"/><path class="mouth-2" d="M439.75,468.77c-3.4-.39-5.64,1.67-6,5.84-.2,2.49,1.18,4.78,3.5,4,3.2-1.12,8.48.2,8.6-5.74C445.93,469.34,443.17,468.76,439.75,468.77Z"/><rect class="mouth-3" width="800" height="800"/></g></g></svg>
