<svg xmlns="http://www.w3.org/2000/svg" viewBox="0 0 800 800"><defs><style>.mouth-1{fill:#fff;}.mouth-2{fill:none;}</style></defs><title>8000_mouth_canine_teeth_dood</title><g id="Layer_2" data-name="Layer 2"><g id="_8000_mouth_canine_teeth_dood" data-name="8000_mouth_canine_teeth_dood"><path d="M353.44,291.67C361.5,290.06,369.79,290,378,290l42.62-.17,25.49-.1c11.81-.05,24.44.14,34.2,6.84,13.53,9.29,19.71,51.81.12,58.1-12.07,3.88-23.82-5.57-35.28-11-22.14-10.48-48.32-6.15-71.59,1.46-19.28,6.31-55.23,19.7-56.87-12.36C315.66,312.41,334.93,295.36,353.44,291.67Z"/><path class="mouth-1" d="M358.11,312.65c-.06.2-.13.4-.2.61-1.07,3-1.24,6.08-2.44,9.09-1.45,3.64-3.3,7.17-4.6,10.86.19-.54-8.36-11.65-9.11-12.83-3.77-5.91-7.94-13.31,1.71-16.16C351.05,302,361.18,302.81,358.11,312.65Z"/><path class="mouth-1" d="M464.92,302.85c4,1.84,6.88,6.32,6,10.62-.63,3-2.9,5.4-5.28,7.33s-5,3.61-6.9,6c-3.68-5.54-7.23-13.39-7.09-20.23C451.77,300.18,460.32,300.71,464.92,302.85Z"/><path class="mouth-1" d="M373.19,302.69a9.69,9.69,0,0,1,6.24,3.48c1.77,2.39,1.92,5.69,1.1,8.55a28.77,28.77,0,0,1-4.13,7.87,48.94,48.94,0,0,1-11.78-17,3.11,3.11,0,0,1-.28-2.26C365,301.61,371.9,302.47,373.19,302.69Z"/><path class="mouth-1" d="M402.85,307.22a9.84,9.84,0,0,1-1.37,5L397.71,320c-.25.53-.6,1.13-1.17,1.2s-1-.41-1.4-.84l-6.72-7.85c-1.15-1.34-2.37-2.92-2.13-4.68.48-3.52,6-3.93,8.76-4.66C398.27,302.33,402.48,303.16,402.85,307.22Z"/><path class="mouth-1" d="M425.73,304.37c2,2.24,1.91,5.8.57,8.5s-3.65,4.75-5.91,6.71c1.08-.94-6.82-13.74-5.95-16.11C415.62,300.21,424,302.38,425.73,304.37Z"/><path class="mouth-1" d="M445.3,305.27a6.5,6.5,0,0,1,.39,6.08,19.37,19.37,0,0,1-3.55,5.22l-3.29,3.82a2.1,2.1,0,0,1-1.22.87c-1.08.13-1.61-1.28-1.74-2.37a32,32,0,0,1-.33-8.29C436.14,306.43,441.14,299.41,445.3,305.27Z"/><path class="mouth-1" d="M358.12,335.64a8.85,8.85,0,0,0-.71,2.84,2.87,2.87,0,0,0,1.23,2.52c1.07.63,2.42.19,3.58-.26l7.72-3c1.08-.42,2.33-1.05,2.46-2.22a3.25,3.25,0,0,0-1.14-2.37c-1.46-1.65-6.15-8.89-8.53-8.14C360.59,325.67,358.91,333.57,358.12,335.64Z"/><path class="mouth-1" d="M441.12,327.49c-1,1.79-1.74,4.18-.47,5.8,1.76,2.24,10.09,3.83,11.32.77.74-1.85-3.49-14-2.65-14.32C445.9,321,442.92,324.36,441.12,327.49Z"/><path class="mouth-1" d="M380.18,331.44a2.79,2.79,0,0,0,.18,2.11c.63.93,2,.79,3.11.55l5.88-1.3c1.47-.33,3.28-1.06,3.28-2.57A3.44,3.44,0,0,0,391.4,328c-1.55-1.59-4.68-6.2-7.38-5.2C381.67,323.71,380.65,329.32,380.18,331.44Z"/><path class="mouth-1" d="M409.65,331.88a15.57,15.57,0,0,0,7.06-.19c3.45-1.09,2-3.61.53-6-.72-1.18-5.43-7.76-4.45-9.09-2.05,2.77-8,8.3-7.32,12.06C405.81,330.45,407.56,331.43,409.65,331.88Z"/><path class="mouth-1" d="M427.94,329.64a5.75,5.75,0,0,1,.07-4.88,16.61,16.61,0,0,1,2.91-4.08l3.09,6.77a5.76,5.76,0,0,1,.75,3.59C433.94,334.39,428.89,331.42,427.94,329.64Z"/><rect class="mouth-2" width="800" height="800"/></g></g></svg>
