<svg xmlns="http://www.w3.org/2000/svg" viewBox="0 0 800 800"><defs><style>.mouth-1{fill:#fff;}.mouth-2{fill:none;}</style></defs><title>8000_mouth_canine_teeth_reindeer</title><g id="Layer_2" data-name="Layer 2"><g id="_8000_mouth_canine_teeth_reindeer" data-name="8000_mouth_canine_teeth_reindeer"><path d="M456.14,353.62c-8.07,1.61-16.36,1.64-24.58,1.68l-42.62.17-25.49.1c-11.81,0-24.43-.15-34.2-6.85-13.53-9.28-19.71-51.8-.12-58.1,12.07-3.87,23.82,5.57,35.28,11,22.14,10.49,48.32,6.15,71.59-1.45,19.28-6.31,55.23-19.7,56.87,12.35C493.91,332.88,474.64,349.93,456.14,353.62Z"/><path class="mouth-1" d="M451.46,332.63c.06-.19.13-.39.2-.6,1.07-3,1.24-6.08,2.44-9.1,1.45-3.63,3.3-7.16,4.6-10.85-.19.53,8.36,11.64,9.11,12.82,3.77,5.92,7.94,13.32-1.71,16.17C458.52,343.3,448.39,342.48,451.46,332.63Z"/><path class="mouth-1" d="M344.65,342.44c-4-1.84-6.88-6.32-6-10.63.63-3,2.9-5.39,5.28-7.32s5-3.61,6.9-6c3.68,5.55,7.23,13.4,7.09,20.24C357.8,345.1,349.25,344.58,344.65,342.44Z"/><path class="mouth-1" d="M436.38,342.6a9.7,9.7,0,0,1-6.24-3.49c-1.77-2.38-1.92-5.68-1.1-8.55a28.86,28.86,0,0,1,4.13-7.86,48.85,48.85,0,0,1,11.78,17,3.11,3.11,0,0,1,.28,2.26C444.55,343.67,437.67,342.82,436.38,342.6Z"/><path class="mouth-1" d="M406.72,338.06a9.8,9.8,0,0,1,1.37-4.95l3.77-7.85c.25-.52.6-1.12,1.17-1.19s1,.41,1.4.84l6.72,7.85c1.15,1.34,2.37,2.92,2.13,4.68-.48,3.52-6,3.93-8.76,4.66C411.3,343,407.09,342.13,406.72,338.06Z"/><path class="mouth-1" d="M383.84,340.91c-2-2.24-1.91-5.79-.57-8.49s3.65-4.75,5.91-6.72c-1.08.95,6.82,13.75,5.95,16.12C394,345.08,385.61,342.9,383.84,340.91Z"/><path class="mouth-1" d="M364.27,340a6.5,6.5,0,0,1-.39-6.08,19.22,19.22,0,0,1,3.55-5.22l3.29-3.82a2.1,2.1,0,0,1,1.22-.87c1.08-.14,1.61,1.28,1.74,2.37a32,32,0,0,1,.33,8.29C373.43,338.85,368.43,345.88,364.27,340Z"/><path class="mouth-1" d="M451.45,309.64a8.73,8.73,0,0,0,.71-2.83,2.86,2.86,0,0,0-1.23-2.52c-1.07-.63-2.42-.19-3.58.26l-7.72,3c-1.08.42-2.33,1.05-2.46,2.21a3.27,3.27,0,0,0,1.14,2.38c1.46,1.65,6.15,8.88,8.53,8.13C449,319.62,450.66,311.71,451.45,309.64Z"/><path class="mouth-1" d="M368.45,317.8c1-1.79,1.74-4.18.47-5.8-1.75-2.25-10.09-3.83-11.32-.77-.74,1.84,3.49,14,2.65,14.32C363.67,324.29,366.65,320.93,368.45,317.8Z"/><path class="mouth-1" d="M429.39,313.85a2.79,2.79,0,0,0-.18-2.11c-.63-.93-2-.79-3.11-.55l-5.88,1.3c-1.47.32-3.28,1.05-3.28,2.57a3.44,3.44,0,0,0,1.23,2.19c1.55,1.59,4.68,6.19,7.38,5.2C427.9,321.58,428.92,316,429.39,313.85Z"/><path class="mouth-1" d="M399.92,313.4a15.41,15.41,0,0,0-7.06.2c-3.45,1.09-2,3.61-.53,6,.72,1.18,5.43,7.76,4.45,9.09,2.05-2.77,8-8.3,7.32-12.06C403.76,314.84,402,313.85,399.92,313.4Z"/><path class="mouth-1" d="M381.63,315.65a5.73,5.73,0,0,1-.07,4.87,16.48,16.48,0,0,1-2.91,4.09l-3.09-6.77a5.77,5.77,0,0,1-.75-3.59C375.63,310.9,380.68,313.87,381.63,315.65Z"/><rect class="mouth-2" width="800" height="800"/></g></g></svg>
