<svg xmlns="http://www.w3.org/2000/svg" viewBox="0 0 800 800"><defs><style>.mouth-1{fill:#fff;}.mouth-2{fill:#ff0;}.mouth-3{fill:none;}</style></defs><title>8000_mouth_gold_teeth</title><g id="Layer_2" data-name="Layer 2"><g id="_8000_mouth_gold_teeth" data-name="8000_mouth_gold_teeth"><path d="M338.92,359.43a21.14,21.14,0,0,1-10.87-4.88c-1.72-1.52-3.62-3.4-3.76-5.66a36,36,0,0,1,.72-8.72c.87-4.36,1.53-8.92,2.94-13.15,1.45-5.12,5.52-10,8.33-14.5,6.13-9.86,22.05-15.13,32.65-18A167.24,167.24,0,0,1,391,290c18.82-2.51,37.77.61,55.66,7a80.93,80.93,0,0,1,21.71,11.41c5,3.75,9.54,8.45,12.3,14.09a28.56,28.56,0,0,1,2.78,13.58A35.84,35.84,0,0,1,477,356.36c-2,2.88-4.64,5.55-8,6.71-5.43,1.9-11.3-.53-16.68-2.56-16.47-6.22-33.84-8.51-51.35-8-13.1.38-25.89,3.49-38.79,5.47C355.15,359.07,346.55,360.69,338.92,359.43Z"/><path class="mouth-1" d="M335.28,354c-1.41,0-3,0-3.92-1.11a4.74,4.74,0,0,1-.67-3.22l.21-6.13,9.82-.28a2.08,2.08,0,0,1,2.66,2.33c.13,1.59,1.4,6.59.21,7.86S337,354,335.28,354Z"/><path class="mouth-1" d="M351.22,355.12a3.5,3.5,0,0,1-2-.29c-1.06-.64-1.12-2.13-1.06-3.37l.46-8.84a3.89,3.89,0,0,1,.66-2.35,3.83,3.83,0,0,1,2.74-.91l9-.53a4.42,4.42,0,0,1,2.48.34c1.26.73,1.46,2.43,1.51,3.88l.31,7.48a4.87,4.87,0,0,1-.68,3.31c-1.27,1.53-3.6.83-5.31.86C356.62,354.76,353.92,355,351.22,355.12Z"/><path class="mouth-1" d="M367.93,345.23c-.26,1.79-.48,3.78.54,5.28,1.34,1.95,4.1,2.14,6.46,2.13,1.54,0,3.37-.17,4.15-1.5a4.34,4.34,0,0,0,.46-1.82l1.4-12.93-5-.72a9.26,9.26,0,0,0-4.88.17C368,337.12,368.33,342.5,367.93,345.23Z"/><path class="mouth-1" d="M398.18,334.37a4.67,4.67,0,0,1,3.32.7c1.16,1,1.06,2.79.87,4.3l-.95,7.35a3.6,3.6,0,0,1-4.51,3.87l-7.08-.1a4.76,4.76,0,0,1-2.94-.7c-1.13-.92-1.16-2.6-1.09-4.05l.3-6.56c.06-1.11-.2-3.12.76-4s3.74-.52,5.07-.58C394,334.54,396.1,334.37,398.18,334.37Z"/><path class="mouth-1" d="M430,343c-.19,1.92.09,4.15,1.66,5.27a6.68,6.68,0,0,0,2.91.92l14.26,2.19a2.34,2.34,0,0,0,3.3-2.11l1.65-6.95a5.61,5.61,0,0,0,0-3.77c-.78-1.58-2.78-2-4.51-2.29l-13.47-2.09C429.5,333.18,430.43,338.5,430,343Z"/><path class="mouth-1" d="M458,348.69a5.72,5.72,0,0,0-.09,2.1,4.43,4.43,0,0,0,3.13,3c3.47,1.14,7.41-.25,10.1-2.72s4.32-5.89,5.59-9.31c.56-1.5,1-3.34,0-4.57-.81-1-2.22-1.14-3.49-1.23l-10.84-.81c-3.19-.23-2.59,1.37-2.8,3.68C459.26,342.12,458.5,345.43,458,348.69Z"/><path class="mouth-1" d="M432.46,303.84a6.9,6.9,0,0,0,3.58.55l13.66-.32c-.51,0-2.43-1.89-3-2.23a25.64,25.64,0,0,0-3.25-1.78,26.81,26.81,0,0,0-7.34-2.2c-1.5-.22-4.52-.85-5.61.67S431,303,432.46,303.84Z"/><path class="mouth-1" d="M410.33,304.3a6.84,6.84,0,0,1-4.27-1.4c-1.31-1.23-1.53-3.2-1.68-5-.1-1.22-.16-2.59.64-3.52.93-1.1,2.58-1.12,4-1.05l9.18.47c1.54.08,3.2.21,4.34,1.23,1.8,1.61,2.14,6.48-.06,8-1.43,1-3.82,1-5.46,1.16A37.61,37.61,0,0,1,410.33,304.3Z"/><path class="mouth-1" d="M386.52,305a11.41,11.41,0,0,1-5.3-.4,5.86,5.86,0,0,1-3.51-5.68,3.41,3.41,0,0,1,1.3-2.63,4.81,4.81,0,0,1,2.22-.6l14.37-1.44a4.59,4.59,0,0,1,2.55.23c1.54.78,1.69,2.89,1.62,4.62-.1,2.44-.54,4.85-3.25,5.14C393.21,304.57,389.85,304.72,386.52,305Z"/><path class="mouth-1" d="M349.44,312.68a4.56,4.56,0,0,1-2.67-1.16,3.43,3.43,0,0,1-1.08-2.66,4,4,0,0,1,1.62-2.77,12.43,12.43,0,0,1,2.9-1.55l2.68-1.13a2.92,2.92,0,0,1,2.41-.26,2.47,2.47,0,0,1,1,2.25C356.39,309.06,353.4,313.05,349.44,312.68Z"/><path class="mouth-2" d="M407.82,334.88a7,7,0,0,0-.45,1.39,18,18,0,0,0,0,6,5.93,5.93,0,0,0,1.25,2.76c1.33,1.74,2.56,2.65,5,2.22a16,16,0,0,1,3.39.06,10.67,10.67,0,0,0,5.5-.83,7.66,7.66,0,0,0,3.59-4.74,21.59,21.59,0,0,0,.56-5.95c0-1.16-.07-2.49-1-3.24a4.46,4.46,0,0,0-2.78-.63l-8.44,0a8.76,8.76,0,0,0-4.85.91A4.78,4.78,0,0,0,407.82,334.88Z"/><path class="mouth-2" d="M367.94,307c3.4.39,5.64-1.67,6-5.84.21-2.49-1.17-4.78-3.49-4-3.21,1.11-8.48-.21-8.61,5.74C361.76,306.45,364.52,307,367.94,307Z"/><rect class="mouth-3" width="800" height="800"/></g></g></svg>
