<svg xmlns="http://www.w3.org/2000/svg" viewBox="0 0 800 800"><defs><style>.mouth-1{fill:#fff;}.mouth-2{fill:none;}</style></defs><title>8000_mouth_half_circle_only_bottom_teeth</title><g id="Layer_2" data-name="Layer 2"><g id="_8000_mouth_half_circle_only_bottom_teeth" data-name="8000_mouth_half_circle_only_bottom_teeth"><path d="M328.91,355.79c0-37.79,32.31-68.43,72.16-68.43s72.16,30.64,72.16,68.43"/><path class="mouth-1" d="M339.84,348.83c0-27.78,27.25-50.3,60.86-50.3s60.85,22.52,60.85,50.3"/><path d="M462.6,329.15c-.19,0-48.49,0-51.61,0H343.14c-1.31,0-2.68,0-4,0-.12-24.54,37.85-33.94,60.15-34.23a94.34,94.34,0,0,1,38.86,7.84c4.65,2,11.53,4.41,15.38,7.12s5.33,7.71,7.51,11.32C461.48,321.88,464,329.05,462.6,329.15Z"/><rect class="mouth-2" width="800" height="800"/></g></g></svg>
