<svg xmlns="http://www.w3.org/2000/svg" viewBox="0 0 800 800"><defs><style>.mouth-1{fill:#fff;}.mouth-2{fill:none;}</style></defs><title>8000_mouth_half_circle_only_bottom_teeth_elves</title><g id="Layer_2" data-name="Layer 2"><g id="_8000_mouth_half_circle_only_bottom_teeth_elves" data-name="8000_mouth_half_circle_only_bottom_teeth_elves"><path d="M473.23,410.26c0,37.79-32.3,68.42-72.16,68.42s-72.16-30.63-72.16-68.42"/><path class="mouth-1" d="M462.31,417.21c0,27.78-27.25,50.3-60.86,50.3S340.6,445,340.6,417.21"/><path d="M339.55,436.9c.19,0,48.49,0,51.6,0H459c1.31,0,2.68,0,4,0,.12,24.54-37.85,33.94-60.15,34.23A94.34,94.34,0,0,1,364,463.26c-4.65-2-11.53-4.41-15.39-7.12s-5.32-7.71-7.5-11.32C340.67,444.16,338.13,437,339.55,436.9Z"/><rect class="mouth-2" width="800" height="800"/></g></g></svg>
