<svg xmlns="http://www.w3.org/2000/svg" viewBox="0 0 800 800"><defs><style>.mouth-1,.mouth-2,.mouth-3{fill:none;}.mouth-1,.mouth-2{stroke:#000;stroke-miterlimit:10;stroke-width:2px;}.mouth-1{stroke-linecap:round;}</style></defs><title>8000_mouth_stitched_reindeer</title><g id="Layer_2" data-name="Layer 2"><g id="_8000_mouth_stitched_reindeer" data-name="8000_mouth_stitched_reindeer"><path class="mouth-1" d="M480.4,308.16c-1.86,2.2-3.38,4.64-5.61,6.56a57.34,57.34,0,0,1-7.46,4.89c-.36.22-.38.94-.8,1.22a8.61,8.61,0,0,1-1.95.73c-1,.41-2,1.05-3.07,1.44a13.08,13.08,0,0,1-3.08.44c-2,.33-2.42,1.65-4.33,2.5a27.54,27.54,0,0,1-6.13,1.54c-1.77.3-3.68-.32-5.42.12-1.92.48-2.91,2.28-4.81,2.87a11.85,11.85,0,0,1-3.76.15c-2.65,0-5.45-.24-8.09,0-2.87.21-5.33,1.07-8.29,1.05-11.42-.05-22.83-.07-34.25,0a17.89,17.89,0,0,1-7.09-1c-3.53-1.33-7.41-.69-10.83-2.52-1.22-.66-2.16-2-3.49-2.41a30.64,30.64,0,0,0-3.07-.4c-2.73-.62-4.68-2.67-7.37-3.57-5.21-1.74-10.21-3-15.07-5.6-1.52-.8-2.37-1.89-4.11-2.39a15.61,15.61,0,0,1-4.08-1.46c-2.38-1.38-5.36-3.73-8.18-4.11"/><path class="mouth-2" d="M479.38,320.92c-.82.08-.88-.8-1.5-1.05s-1,0-1.59-.34-.79-.45-1.23-.65a3.59,3.59,0,0,1-1.69-1,13.78,13.78,0,0,1-2.65-3.54c-.36-.72-.77-1.34-1.05-2.07a5.61,5.61,0,0,0-1-2"/><path class="mouth-2" d="M470.19,327.56a33.83,33.83,0,0,1,1-10c.44-1.5,1.13-2.91,1.53-4.39.45-1.66.7-3.75,2.05-5"/><path class="mouth-2" d="M461,328.58c-.84.32-1.87,1.25-2.84,1.16-1.14-.09-1.66-1.45-2.3-2.22-.81-1-1.65-1.9-2.5-2.76s-2-2-2.91-2.8c-1.1-.94-2.74-1.57-3.75-2.57"/><path class="mouth-2" d="M448.23,333.18c.76,1.54,2.3-.88,2.56-1.62.32-.94.15-1.17.76-2s.63-.52.78-1.51a8.17,8.17,0,0,1,1.54-3.47c.8-1.37,1.34-2.77,2-4.2"/><path class="mouth-2" d="M433.94,336.24c-1.53,0-1.78-1.46-2.39-2.29a5.75,5.75,0,0,0-1-.79,2.18,2.18,0,0,1-.33-.89c-.28-.34-.64-.64-.9-1a18.79,18.79,0,0,1-1-1.59,11.81,11.81,0,0,0-.71-1.09,19.54,19.54,0,0,1-1.48-1.84c-.35-.54-.58-1.31-1.38-1.25"/><path class="mouth-2" d="M421.68,338.28c.8,0,1.19.23,1.56-.47.24-.46.12-.94.47-1.46a33.37,33.37,0,0,1,3.89-4.49,12.22,12.22,0,0,0,2.44-2.69c.23-.45.38-.94.65-1.39.53-.87,1.31-1.68,1.87-2.56.33-.53.6-1.29,1.38-1.24"/><path class="mouth-2" d="M411,335.73l-.06.44c-1.94.94-3.81-3.89-4.37-5.22s-1.32-2.44-1.72-3.67c-.23-.71-.56-2.1-1.51-2.27"/><path class="mouth-2" d="M401.26,337.77a28.92,28.92,0,0,1,2.53-2.28,45,45,0,0,1,3.58-3.46c1.39-1.12,2.68-2.31,4.12-3.34.58-.41,2.09-1.35,2-2.15"/><path class="mouth-2" d="M389,336.75c-.38-1.25-1.29-2.26-1.54-3.57a7,7,0,0,0-1.13-3.08c-.26-.36-.68-.62-.92-1-.44-.64-.39-1.38-.8-2-.3-.46-.91-.57-1.15-1.09a5.34,5.34,0,0,1-.08-2.07"/><path class="mouth-2" d="M380.83,337.26l.24.33c1.14-.46,1.94-1.73,2.82-2.51s1.82-1.86,2.82-2.63a17.37,17.37,0,0,0,2.16-1.95c.35-.36.87-.76,1.17-1.13.45-.56.47-1.3,1-1.81"/><path class="mouth-2" d="M371.13,333.69c.31-2.56-1.6-4.87-2.16-7s-2.15-4-2.44-6.26"/><path class="mouth-2" d="M362.45,334.71c-.24-1.35.46-1.13,1.27-1.56s1.39-1.4,2.13-2c1.69-1.46,3.95-3,4.77-5.07"/><path class="mouth-2" d="M348.66,327.05c.69.05,1-.26,1.54-.51s1.1-.33,1.74-.56c.9-.32,1.3-1.16,2.18-1.61,1-.53,1.87-1.17,2.86-1.8.65-.42.89-.41,1.4-1.07.38-.5.32-.75,1-1.09"/><path class="mouth-2" d="M358.36,329.09a15.43,15.43,0,0,1-3.1-3.45c-.59-1-.63-2.09-1.17-3.18a25.07,25.07,0,0,0-2-3.48c-.37-.53-1.39-2.51-1.9-2.65"/><path class="mouth-2" d="M335.89,322.45c2.27.2,3.95-1.3,5.62-2.55a28,28,0,0,0,2.43-2c.79-.75,2-1.1,2.68-2"/><path class="mouth-2" d="M343.55,326.54c-1.3-.25-.67-1.76-1-2.61-.23-.6-.61-.38-1-.92s-.1-1.29-.09-1.82a26.14,26.14,0,0,0-1-8.44"/><path class="mouth-2" d="M329.26,316.84l.21.29a14.89,14.89,0,0,0,2.72-.79,8.76,8.76,0,0,1,1.47-.65,1,1,0,0,0,.25-.58c.75-.6,2.13-1.36,2.49-2.36"/><path class="mouth-2" d="M335.38,320.92a13.45,13.45,0,0,0-.1-3.36c-.23-.84-.75-1.4-1-2.22a20.75,20.75,0,0,1-.41-3.1c-.3-1.4-1.53-2-1.51-3.57"/><path class="mouth-2" d="M319.21,310.24a8.17,8.17,0,0,0,4.92-1.47c1.68-1.08,3.85-1.72,5.3-3.13"/><path class="mouth-2" d="M325.85,312.79c-1.08-.23-1.16-1.32-1.5-2.16a16.34,16.34,0,0,1-1.11-2.05c-.19-.8,0-1.82-.19-2.69a32.79,32.79,0,0,0-1-3.31,11.68,11.68,0,0,1-.25-3.57"/><rect class="mouth-3" width="800" height="800"/></g></g></svg>
