<svg xmlns="http://www.w3.org/2000/svg" viewBox="0 0 800 800"><defs><style>.glasses-1,.glasses-2{fill:none;}.glasses-2{stroke:#000;stroke-linecap:round;stroke-miterlimit:10;stroke-width:7px;}</style></defs><title>8100_glasses_reading</title><g id="Layer_2" data-name="Layer 2"><g id="_8100_glasses_reading" data-name="8100_glasses_reading"><rect class="glasses-1" width="800" height="800"/><path class="glasses-2" d="M286.67,217.26h82.47a0,0,0,0,1,0,0V243a9.39,9.39,0,0,1-9.39,9.39h-61.9a11.18,11.18,0,0,1-11.18-11.18v-24A0,0,0,0,1,286.67,217.26Z"/><path class="glasses-2" d="M425.25,217.26h82.47a0,0,0,0,1,0,0V243a9.39,9.39,0,0,1-9.39,9.39h-61.9a11.18,11.18,0,0,1-11.18-11.18v-24A0,0,0,0,1,425.25,217.26Z"/><line class="glasses-2" x1="298.11" y1="217.26" x2="485.35" y2="217.26"/></g></g></svg>
