<svg xmlns="http://www.w3.org/2000/svg" viewBox="0 0 800 800"><defs><style>.glasses-1,.glasses-2,.glasses-3,.glasses-4{fill:none;}.glasses-1,.glasses-2,.glasses-3{stroke:#000;stroke-miterlimit:10;}.glasses-1{stroke-width:1.5px;}.glasses-2,.glasses-3{stroke-linecap:round;}.glasses-3{stroke-width:3px;}</style></defs><title>8100_glasses_wire_square</title><g id="Layer_2" data-name="Layer 2"><g id="_8100_glasses_wire_square" data-name="8100_glasses_wire_square"><path class="glasses-1" d="M438.1,172.23h35a30.28,30.28,0,0,1,30.28,30.28v15.42a37,37,0,0,1-37,37h0a54.14,54.14,0,0,1-54.14-54.14v-2.75A25.83,25.83,0,0,1,438.1,172.23Z"/><line class="glasses-2" x1="361.91" y1="172.23" x2="444.19" y2="172.23"/><line class="glasses-3" x1="503.09" y1="203.55" x2="511.98" y2="203.55"/><line class="glasses-3" x1="386.24" y1="196.06" x2="414.94" y2="196.06"/><path class="glasses-1" d="M351,172.23h0a37,37,0,0,1,37,37v15.42A30.28,30.28,0,0,1,357.76,255h-35a25.83,25.83,0,0,1-25.83-25.83v-2.75A54.14,54.14,0,0,1,351,172.23Z" transform="translate(684.91 427.19) rotate(-180)"/><line class="glasses-3" x1="297.2" y1="203.55" x2="288.32" y2="203.55"/><rect class="glasses-4" width="800" height="800"/></g></g></svg>
