<svg xmlns="http://www.w3.org/2000/svg" viewBox="0 0 800 800"><defs><style>.glasses-1{fill:none;}</style></defs><title>8100_glasses_ski_goggles</title><g id="Layer_2" data-name="Layer 2"><g id="_8100_glasses_ski_goggles" data-name="8100_glasses_ski_goggles"><path d="M510.17,174.72h.51a3,3,0,0,1,3,3v43.34a3,3,0,0,1-3,3H510a6,6,0,0,1-6-6V180.93a6.21,6.21,0,0,1,6.21-6.21Z" transform="translate(1017.64 398.78) rotate(-180)"/><path d="M293.68,174.72h.68a3,3,0,0,1,3,3v43.34a3,3,0,0,1-3,3h-.51a6.21,6.21,0,0,1-6.21-6.21V180.76A6,6,0,0,1,293.68,174.72Z"/><path d="M506.61,192c-.19-9.25-.63-19.27-6.08-26.42-4.36-5.72-11.15-8.5-17.69-10.78a273.87,273.87,0,0,0-58.39-13.46s-16-2-24.2-1.74c-8.18-.23-24.19,1.74-24.19,1.74a273.73,273.73,0,0,0-58.39,13.46c-6.54,2.28-13.33,5.06-17.69,10.78-5.46,7.15-5.89,17.17-6.08,26.42-.18,8.89-.35,17.85,1.08,26.61s4.58,17.41,10.27,23.86c6.71,7.61,16.22,11.43,25.38,15,9,3.52,18.7,7.08,27.92,4.37,8.71-2.55,15.2-10.16,21.37-17.26,5.76-6.63,12.24-13.43,20.33-15.54,8.1,2.11,14.58,8.91,20.34,15.54,6.17,7.1,12.66,14.71,21.37,17.26,9.22,2.71,18.93-.85,27.92-4.37,9.16-3.58,18.66-7.4,25.38-15,5.69-6.45,8.85-15.1,10.27-23.86S506.79,200.85,506.61,192Zm-3.12,22.4c-1.4,7.44-4.49,14.79-10.07,20.26-6.59,6.47-15.91,9.72-24.89,12.76-8.82,3-18.33,6-27.38,3.71-8.54-2.17-14.9-8.63-20.95-14.66-5.66-5.64-12-11.41-19.95-13.21-7.93,1.8-14.29,7.57-19.94,13.21-6.05,6-12.41,12.49-20.95,14.66-9.05,2.3-18.56-.72-27.38-3.71-9-3-18.3-6.29-24.89-12.76-5.58-5.47-8.67-12.82-10.07-20.26s-1.23-15.06-1.06-22.61c.19-7.86.61-16.37,6-22.44,4.28-4.86,10.94-7.22,17.35-9.16a303.48,303.48,0,0,1,57.26-11.44s15.7-1.67,23.72-1.48c8-.19,23.73,1.48,23.73,1.48a303.48,303.48,0,0,1,57.26,11.44c6.41,1.94,13.07,4.3,17.35,9.16,5.34,6.07,5.77,14.58,6,22.44C504.72,199.3,504.89,206.91,503.49,214.36Z"/><rect class="glasses-1" width="800" height="800"/></g></g></svg>
