<svg xmlns="http://www.w3.org/2000/svg" viewBox="0 0 800 800"><defs><style>.glasses-1{fill:#666;opacity:0.72;}.glasses-2{fill:none;}</style></defs><title>8100_glasses_wayfarer</title><g id="Layer_2" data-name="Layer 2"><g id="_8100_glasses_wayfarer" data-name="8100_glasses_wayfarer"><path d="M535.83,182.52q-.29-7.32-.58-14.63l-36.86-2.63a71.27,71.27,0,0,0-10-.62c-11.05,0-22.12.12-33.15,1-19.1,1.59-37.52,10-56.74,9.22v0h-.82v0c-19.22.77-37.65-7.63-56.75-9.22-11-.92-22.09-1-33.15-1a71.37,71.37,0,0,0-10,.62l-36.86,2.63q-.28,7.32-.58,14.63a5.51,5.51,0,0,0,.44,3c1.05,1.83,3.64,1.84,5.56,2.7,3.82,1.73,4.71,6.63,5.31,10.78a120.31,120.31,0,0,0,8.09,29.19c4.21,16.21,19.93,31.54,62.68,29.76,12.15-.5,22.35-8.06,29.46-17.48a75.32,75.32,0,0,0,9.58-17.29c2.88-7.19,2.7-16.76,7.72-22.7a10.6,10.6,0,0,1,17.85,0c5,5.94,4.83,15.51,7.72,22.7a75.32,75.32,0,0,0,9.58,17.29c7.1,9.42,17.3,17,29.45,17.48,42.75,1.78,58.47-13.55,62.69-29.76A121.22,121.22,0,0,0,524.53,199c.6-4.15,1.48-9.05,5.3-10.78,1.93-.86,4.51-.87,5.56-2.7A5.51,5.51,0,0,0,535.83,182.52ZM339.19,253.47c-40.67,1.69-53.57-14.2-55.92-29.65-6.62-43.48,1.32-52.53,25.42-52.53s71,.34,70.74,22.45C379.07,221.31,363.26,252.47,339.19,253.47Zm173.69-29.65c-2.36,15.45-15.25,31.34-55.92,29.65-24.08-1-39.88-32.16-40.24-59.73-.29-22.11,46.64-22.45,70.74-22.45S519.5,180.34,512.88,223.82Z"/><path class="glasses-1" d="M379.43,193.74c-.36,27.57-16.17,58.73-40.24,59.73-40.67,1.69-53.57-14.2-55.92-29.65-6.62-43.48,1.32-52.53,25.42-52.53S379.72,171.63,379.43,193.74Z"/><path class="glasses-1" d="M416.72,193.74c.36,27.57,16.16,58.73,40.24,59.73,40.67,1.69,53.56-14.2,55.92-29.65,6.62-43.48-1.32-52.53-25.42-52.53S416.43,171.63,416.72,193.74Z"/><rect class="glasses-2" width="800" height="800"/></g></g></svg>
