<svg xmlns="http://www.w3.org/2000/svg" viewBox="0 0 800 800"><defs><style>.glasses-1,.glasses-2,.glasses-3,.glasses-4{fill:none;}.glasses-1,.glasses-2,.glasses-3{stroke:#000;stroke-miterlimit:10;}.glasses-1{stroke-width:1.5px;}.glasses-2,.glasses-3{stroke-linecap:round;}.glasses-3{stroke-width:3px;}</style></defs><title>8100_glasses_wire_square_elves</title><g id="Layer_2" data-name="Layer 2"><g id="_8100_glasses_wire_square_elves" data-name="8100_glasses_wire_square_elves"><path class="glasses-1" d="M438.1,295.13h35a30.28,30.28,0,0,1,30.28,30.28v15.42a37,37,0,0,1-37,37h0a54.14,54.14,0,0,1-54.14-54.14V321a25.83,25.83,0,0,1,25.83-25.83Z"/><line class="glasses-2" x1="361.91" y1="295.13" x2="444.19" y2="295.13"/><line class="glasses-3" x1="503.09" y1="326.45" x2="511.98" y2="326.45"/><line class="glasses-3" x1="386.24" y1="318.96" x2="414.94" y2="318.96"/><path class="glasses-1" d="M351,295.13h0a37,37,0,0,1,37,37v15.42a30.28,30.28,0,0,1-30.28,30.28h-35A25.83,25.83,0,0,1,296.88,352v-2.75A54.14,54.14,0,0,1,351,295.13Z" transform="translate(684.91 672.98) rotate(180)"/><line class="glasses-3" x1="297.2" y1="326.45" x2="288.32" y2="326.45"/><rect class="glasses-4" width="800" height="800"/></g></g></svg>
