<svg xmlns="http://www.w3.org/2000/svg" viewBox="0 0 800 800"><defs><style>.hat-1{fill:#fff;}.hat-2{fill:none;}</style></defs><title>4000_hat_two_hairs</title><g id="Layer_2" data-name="Layer 2"><g id="_4000_hat_two_hairs" data-name="4000_hat_two_hairs"><path class="hat-1" d="M393,126.45c0-.94,0-1.94.08-3a8.87,8.87,0,0,1,.29-1.59,15.26,15.26,0,0,1,.52-1.46,22.33,22.33,0,0,0,1.57-5.38,17.91,17.91,0,0,1,.66-3,13.4,13.4,0,0,1,1.37-2.76c.52-.84,1.05-1.63,1.47-2.44a2.94,2.94,0,0,0,.33-1.14,5.1,5.1,0,0,1,.39-1.63,13.6,13.6,0,0,1,1.86-2.48c.69-.73,1.24-1.4,2-2.18a3.76,3.76,0,0,1,1.43-1,4.68,4.68,0,0,1,1.62-.25,11.15,11.15,0,0,1,1.53,0,3.74,3.74,0,0,1,1.63.48,12.09,12.09,0,0,1,1.24.87l.55.36.65.36a9.85,9.85,0,0,1,2.41,1.9,5.48,5.48,0,0,1,.89,1.34,8.77,8.77,0,0,1,.43,1.48,9.55,9.55,0,0,1,.2,1.53,3.88,3.88,0,0,1-.05.82,1.39,1.39,0,0,1-.53.94l-.2.14-.22-.1a8,8,0,0,1-2.33-1.21,2.62,2.62,0,0,1-.76-1.25,4.31,4.31,0,0,1-.08-1.38,4.91,4.91,0,0,1,1-2.47,8.46,8.46,0,0,1,1.92-1.73c.69-.48,1.41-.9,2.11-1.34s1.36-.91,2.05-1.37l4.11-2.78a7.93,7.93,0,0,1,2.24-1.22,11.41,11.41,0,0,1,1.25-.06,4.83,4.83,0,0,0,1.14-.35,17.4,17.4,0,0,1,2.31-.93c.81-.23,1.63-.36,2.44-.52a8.34,8.34,0,0,0,2.34-.71c.75-.34,1.47-.76,2.26-1,1.59-.58,3.29-.32,4.93-.3-1.64,0-3.35-.2-4.89.41a24,24,0,0,0-2.22,1.09,9.1,9.1,0,0,1-2.38.78c-.81.18-1.62.33-2.4.56a17.75,17.75,0,0,0-2.26,1,4.85,4.85,0,0,1-1.22.4c-.45.06-.86,0-1.22.08a7.47,7.47,0,0,0-2.05,1.21l-4.05,2.87c-.67.47-1.34,1-2,1.43s-1.4.89-2.05,1.37a8,8,0,0,0-1.72,1.61,4.28,4.28,0,0,0-.78,2.1,3.24,3.24,0,0,0,.09,1.09,1.65,1.65,0,0,0,.53.82,7.12,7.12,0,0,0,2.09,1l-.42,0a.76.76,0,0,0,.1-.32,2.52,2.52,0,0,0,0-.62,7.86,7.86,0,0,0-.2-1.35,8.24,8.24,0,0,0-.41-1.3,4.87,4.87,0,0,0-.74-1,8.48,8.48,0,0,0-2.18-1.62l-.63-.34a6.5,6.5,0,0,1-.68-.42,11.53,11.53,0,0,0-1.15-.77,4.61,4.61,0,0,0-2.52-.27,2.63,2.63,0,0,0-2.16.88,34.08,34.08,0,0,0-3.46,4.37,4.1,4.1,0,0,0-.23,1.19,4.49,4.49,0,0,1-.45,1.64c-.45.92-1,1.76-1.46,2.57a12.16,12.16,0,0,0-1.16,2.46,15.69,15.69,0,0,0-.52,2.71,24.76,24.76,0,0,1-1.55,5.78c-.16.46-.33.9-.43,1.29a8.63,8.63,0,0,0-.2,1.27c-.06.88,0,1.82,0,2.82Z"/><path class="hat-1" d="M419.1,129.75l-.2-.15-.23-.16,0-.26a2.39,2.39,0,0,1,.46-1.22,5.32,5.32,0,0,0,.53-.83,5.64,5.64,0,0,0,.36-2,11.23,11.23,0,0,0-.23-4.15,9.82,9.82,0,0,0-.42-1,3.22,3.22,0,0,1-.26-1.1,2,2,0,0,1,.91-2,2.15,2.15,0,0,0,.74-1.84c0-.71,0-1.42,0-2.14,0,.71.15,1.42.16,2.14a4,4,0,0,1-.09,1.09,2,2,0,0,1-.6.94,2.15,2.15,0,0,0-.64.76,2.3,2.3,0,0,0-.07,1,3.27,3.27,0,0,0,.28,1,8,8,0,0,1,.49,1,11.29,11.29,0,0,1,.5,4.33,6.38,6.38,0,0,1-.28,2.26c-.34.81-.87,1.3-.82,1.77l-.21-.42.21.14a.5.5,0,0,1-.55.84Z"/><rect class="hat-2" width="800" height="800"/></g></g></svg>
