<svg xmlns="http://www.w3.org/2000/svg" viewBox="0 0 800 800"><defs><style>.eyes-1{fill:#fff;}.eyes-2{fill:none;}</style></defs><title>5000_eyes_mixed</title><g id="Layer_2" data-name="Layer 2"><g id="_5000_eyes_mixed" data-name="5000_eyes_mixed"><ellipse class="eyes-1" cx="448.48" cy="205.52" rx="14.18" ry="28.36"/><path d="M445,206.66l8.88-5.6c-.15-1.11-.33-2.22-.56-3.33-.29-1.47-.65-2.93-1.05-4.42-1.05-3.78-2.4-10.34-8.11-8.76a7,7,0,0,0-4.38,4.3,20.78,20.78,0,0,0-1.18,6.23c-.73,8.72-3.11,22.61,4.67,28.89a6,6,0,0,0,4.82,1.38,6.12,6.12,0,0,0,3.88-3.09c1.62-2.87,1.75-6.62,2.1-9.86,0-.31.05-.62.08-.93Z"/><ellipse class="eyes-1" cx="349.21" cy="203.21" rx="14.27" ry="28.54"/><path d="M357.76,203.6a6.57,6.57,0,0,0-2.55-4.94c-2.54-1.8-6.4-.88-8.33,1.57a9.21,9.21,0,0,0-1,8.88,5.92,5.92,0,0,0,3.51,3.79,5.24,5.24,0,0,0,4.24-.84A9.15,9.15,0,0,0,357.76,203.6Z"/><rect class="eyes-2" width="800" height="800"/></g></g></svg>
