<svg xmlns="http://www.w3.org/2000/svg" viewBox="0 0 800 800"><defs><style>.brows-1{fill:none;}</style></defs><title>6000_brows_bushy_black</title><g id="Layer_2" data-name="Layer 2"><g id="_6000_brows_bushy_black" data-name="6000_brows_bushy_black"><path d="M349.81,182.07a3.52,3.52,0,0,1-1.16-.82,13.54,13.54,0,0,0-1-1.16,5.69,5.69,0,0,0-2.06-1.09c-2.4-.85-5-.86-7.46-1.76a25.06,25.06,0,0,0-4.72-1.63c-1.29-.22-1.65.11-2.83-.55a6,6,0,0,0-2.72-1.2,7.25,7.25,0,0,1-1.86-.07c-.86-.3-1.29-1.08-2-1.53-1.05-.64-2.54-.76-3.62-1.4a12.79,12.79,0,0,1-3.62-3.33c-1.05-1.38-2.64-3-2.91-4.63a14.22,14.22,0,0,1,.07-5.21c.75-2.3,2.77-2.95,4.86-2.92a39.79,39.79,0,0,0,10.74-.74,9,9,0,0,1,2.18-.39,3.44,3.44,0,0,0,1.74-.93,4.8,4.8,0,0,1,1.85-.25,32.57,32.57,0,0,1,4.19-.05c2.28.28,3.87,2.52,6.25,3,1.6.3,3.2.32,4.65,1.07a17,17,0,0,0,5.24,1.54c.51.1,1,.17,1.51.28.66.14,1.13-.1,1.79.18a28.16,28.16,0,0,1,2.58,1.46c.3.17.42.16.68.33.06,0,.07.32.19.4s.45.05.58.11c.46.21.75.75,1.24,1s.57.59,1,1,1.08.76,1.55,1.22,1.13.51,1.47.89.42.84,1,1.23.58.6,1,1.19c.23.35.6.48.88.77.74.78,1.34,1.7,2.12,2.46.3.3.5.61.78.91a4.51,4.51,0,0,1,.74.77c.15.23.2.5.34.73a4.25,4.25,0,0,0,1.14,1.25,5.06,5.06,0,0,1,.67.3c.3.25.41.79.56,1.12a18.64,18.64,0,0,0,1.11,1.79c.23.41.38.88.59,1.3.29.61.76.88,1.16,1.4.87,1.15.68,2.62.5,4a15.74,15.74,0,0,1-.55,3.05,6,6,0,0,1-2,2.55c-.38.35-.68.8-1.06,1.12a6.82,6.82,0,0,1-1.42.66c-1.9.87-3.81,1.73-5.7,2.61a3.14,3.14,0,0,1-1.78.48,5.4,5.4,0,0,0-1.55-.31,4.67,4.67,0,0,1-1.76.06c-.58-.1-1,.07-1.5-.06a5.08,5.08,0,0,1-1.37-.61,10.94,10.94,0,0,1-1.94-1.38,7.34,7.34,0,0,0-1.19-1c-.53-.38-.63-.76-1-1.21s-1-.62-1.32-1.11c-.82-1.16-2.18-2.09-2.71-3.43a10.48,10.48,0,0,0-.42-1.23C352.62,182.75,351.1,182.67,349.81,182.07Z"/><path d="M450.75,177.35a2.8,2.8,0,0,0,.66-.3,4.19,4.19,0,0,1,3.18-.45c1.64.25,2.82-.73,4.22-1.37s3.09-1.47,4.65-2.08c1.26-.49,2.9-.59,4.06-1.24,2.67-1.51,4.9-4.07,7.42-5.84,2-1.42,3.69-2.23,5.37-4,.9-1,2.29-1.9,2.65-3.24.68-2.49-.1-5.52-.83-7.83-.65-2,.3-4.79-2.59-5.53-2.46-.64-5.19.68-7.63.63-3.22-.06-6.26.91-9.45,1.18a45.68,45.68,0,0,0-6.33,1.24,42.1,42.1,0,0,0-6.46,1.49c-.32.13-.58.34-.92.45s-.69,0-.9.09-.24.38-.38.46a3.62,3.62,0,0,1-.63.11c-1,.32-1.77,1.16-2.73,1.57-.37.16-.72.41-1.09.54a10.94,10.94,0,0,0-1.44.46c-.34.17-.78.25-1.11.43a11.66,11.66,0,0,1-1.41.87,20.74,20.74,0,0,0-5.46,3.33c-1,.79-2.15,1.46-3.11,2.27a39.32,39.32,0,0,0-3.44,2.66c-.41.43-.52.8-1,1.18a6.51,6.51,0,0,0-1.49,1.38c-.25.35-.41.81-.69,1.14a9.71,9.71,0,0,0-1.11,1.27c-.49.79-1,1.56-1.48,2.35-.23.37-.89,1.08-.9,1.51,0,.21.16.36.17.51,0,.49-.31.93-.38,1.42a4.33,4.33,0,0,0,.23,1.46,11.77,11.77,0,0,0,.34,1.77c.15.38.27.8.4,1.16s.26.32.45.57a2.15,2.15,0,0,1,.46.74c.11.29,0,.29.17.58.1.14.54.33.66.45.44.45.36,1,.67,1.46.12.18.32.27.44.45s.26.74.52,1.07a15.22,15.22,0,0,0,1.44,1.33,17.23,17.23,0,0,0,2.88,2.72,5.17,5.17,0,0,0,4.14.91,13.39,13.39,0,0,0,3-.85c.53-.24,1.06-.64,1.57-.93s1.23-.66,1.78-1,1-.68,1.53-1a4.51,4.51,0,0,0,1.49-1.42c.44-.58,1-.59,1.56-1a5.9,5.9,0,0,0,.85-.88,4.22,4.22,0,0,1,.95-.77,8.16,8.16,0,0,0,1.77-1.75,3.63,3.63,0,0,1,.69-.87A7.75,7.75,0,0,1,450.75,177.35Z"/><rect class="brows-1" width="800" height="800"/></g></g></svg>
