<svg xmlns="http://www.w3.org/2000/svg" viewBox="0 0 800 800"><defs><style>.mouth-1{fill:#fff;}.mouth-2{fill:none;}</style></defs><title>8000_mouth_canine_teeth</title><g id="Layer_2" data-name="Layer 2"><g id="_8000_mouth_canine_teeth" data-name="8000_mouth_canine_teeth"><path d="M352.21,291.67c8.14-1.61,16.5-1.65,24.79-1.68l43-.17,25.72-.1c11.92-.05,24.65.14,34.5,6.84,13.64,9.29,19.89,51.81.12,58.1-12.18,3.88-24-5.57-35.59-11-22.33-10.48-48.74-6.15-72.21,1.46-19.46,6.31-55.72,19.7-57.38-12.36C314.1,312.41,333.55,295.36,352.21,291.67Z"/><path class="mouth-1" d="M356.93,312.65c-.06.2-.13.4-.2.61-1.08,3-1.26,6.08-2.47,9.09-1.46,3.64-3.33,7.17-4.63,10.86.19-.54-8.44-11.65-9.2-12.83-3.8-5.91-8-13.31,1.73-16.16C349.81,302,360,302.81,356.93,312.65Z"/><path class="mouth-1" d="M464.67,302.85c4,1.84,6.95,6.32,6.05,10.62-.64,3-2.92,5.4-5.33,7.33s-5.06,3.61-7,6c-3.72-5.54-7.29-13.39-7.15-20.23C451.41,300.18,460,300.71,464.67,302.85Z"/><path class="mouth-1" d="M372.14,302.69a9.83,9.83,0,0,1,6.3,3.48c1.78,2.39,1.93,5.69,1.1,8.55a28.59,28.59,0,0,1-4.16,7.87,48.81,48.81,0,0,1-11.88-17,3.07,3.07,0,0,1-.29-2.26C363.9,301.61,370.84,302.47,372.14,302.69Z"/><path class="mouth-1" d="M402.06,307.22a9.65,9.65,0,0,1-1.38,5l-3.8,7.84c-.26.53-.61,1.13-1.19,1.2s-1-.41-1.4-.84l-6.79-7.85c-1.16-1.34-2.39-2.92-2.15-4.68.49-3.52,6.1-3.93,8.84-4.66C397.44,302.33,401.69,303.16,402.06,307.22Z"/><path class="mouth-1" d="M425.14,304.37c2,2.24,1.92,5.8.58,8.5s-3.69,4.75-6,6.71c1.09-.94-6.87-13.74-6-16.11C414.94,300.21,423.35,302.38,425.14,304.37Z"/><path class="mouth-1" d="M444.89,305.27a6.47,6.47,0,0,1,.39,6.08,19.29,19.29,0,0,1-3.59,5.22l-3.31,3.82a2.15,2.15,0,0,1-1.24.87c-1.09.13-1.61-1.28-1.75-2.37a31.17,31.17,0,0,1-.33-8.29C435.64,306.43,440.68,299.41,444.89,305.27Z"/><path class="mouth-1" d="M356.94,335.64a8.36,8.36,0,0,0-.71,2.84,2.83,2.83,0,0,0,1.23,2.52c1.08.63,2.44.19,3.61-.26l7.79-3c1.09-.42,2.35-1.05,2.49-2.22a3.3,3.3,0,0,0-1.15-2.37c-1.48-1.65-6.21-8.89-8.61-8.14C359.43,325.67,357.73,333.57,356.94,335.64Z"/><path class="mouth-1" d="M440.66,327.49c-1,1.79-1.75,4.18-.47,5.8,1.77,2.24,10.18,3.83,11.42.77.74-1.85-3.52-14-2.67-14.32C445.48,321,442.48,324.36,440.66,327.49Z"/><path class="mouth-1" d="M379.19,331.44a2.79,2.79,0,0,0,.18,2.11c.64.93,2,.79,3.14.55l5.94-1.3c1.48-.33,3.31-1.06,3.3-2.57a3.41,3.41,0,0,0-1.24-2.19c-1.56-1.59-4.72-6.2-7.44-5.2C380.7,323.71,379.67,329.32,379.19,331.44Z"/><path class="mouth-1" d="M408.92,331.88a15.84,15.84,0,0,0,7.12-.19c3.48-1.09,2-3.61.54-6-.73-1.18-5.48-7.76-4.49-9.09-2.07,2.77-8.1,8.3-7.39,12.06C405,330.45,406.81,331.43,408.92,331.88Z"/><path class="mouth-1" d="M427.37,329.64a5.65,5.65,0,0,1,.08-4.88,16.65,16.65,0,0,1,2.92-4.08l3.12,6.77a5.63,5.63,0,0,1,.76,3.59C433.42,334.39,428.33,331.42,427.37,329.64Z"/><rect class="mouth-2" width="800" height="800"/></g></g></svg>
