<svg xmlns="http://www.w3.org/2000/svg" viewBox="0 0 800 800"><defs><style>.mouth-1{fill:#fff;}.mouth-2{fill:none;}</style></defs><title>8000_mouth_missing_teeth</title><g id="Layer_2" data-name="Layer 2"><g id="_8000_mouth_missing_teeth" data-name="8000_mouth_missing_teeth"><path class="mouth-1" d="M340.2,357.25l-1.72.13a27.48,27.48,0,0,1-9-.31c-9.24-2.39-9-9.45-6.8-17.12,3.63-12.88,7.82-26.63,18.29-35,8.2-6.53,19-8.65,29.28-10.57,19.16-3.56,39.22-7.08,57.84-1.35a81.47,81.47,0,0,1,12.74,5.29,120.58,120.58,0,0,1,34.33,26.08c3.42,3.73,6.75,8.05,7.07,13.1A14.91,14.91,0,0,1,477.37,349a24.13,24.13,0,0,1-11.32,5.73c-8.28,1.94-16.94.82-25.37-.31-16-2.14-31.58-5.73-47.58-3.15-9,0-18.19,3.56-27.16,4.21C357.39,356.09,348.78,356.62,340.2,357.25Z"/><path d="M406,288.38a165.44,165.44,0,0,1,17.82,2.44c17.89,3.19,35.69,8.91,48.82,22.08,15.19,15.23,14.27,33.94-1.34,49-3.84,3.7-8.76.56-13-.84a146.34,146.34,0,0,0-15.53-4.17,180.68,180.68,0,0,0-32.13-3.7c-21-.61-42.05,1.88-62.61,6.1-9.1,1.86-17.85.62-26.68-1.07-5.3-1-5.64-5.15-5.76-9.44-.71-24.55,13.23-44.21,37-51.88A117.18,117.18,0,0,1,370,292.34c9.45-1.48,18.83-3.71,28.43-4.1A71.22,71.22,0,0,1,406,288.38Zm20.18,55.25c0,.67,0,1.31,0,1.89.13,3.26,2.81,4.24,5.8,4.48a60.81,60.81,0,0,1,11.2,1.68c6.15,1.72,9.11-.27,10.1-6.58s-1.61-8.49-7.39-8.59a34.11,34.11,0,0,1-8.89-.84c-2.57-.75-6.36-1.6-8.46.66C427,338,426.37,341.05,426.22,343.63Zm40.53-8c-12.39-1.62-8.38,7.48-9.92,12.48s1.13,5.82,5.7,5.64c7.07-.27,17-7.15,15.78-12.44C476.78,334.7,470.17,336.51,466.75,335.59Zm-87,5.65a33.25,33.25,0,0,0,1.09,5.77c1.07,3.82,4.84,4.45,8.35,4.09,5.87-.59,11.51-6.24,10.68-12-1.17-8.07-8-4.48-12.44-5-2.16-.27-5.62-.58-7,1.61C379.66,337,379.55,339.1,379.73,341.24Zm-38.61,5.31c-.88,4.92.21,9.54,7.6,9.19s9.53-3.89,9.41-12.87c-.07-5.46-3.64-5.21-6.55-4C347.83,340.41,339.2,335,341.12,346.55Zm43.3-51.34-.36,0-9.45.65a3.56,3.56,0,0,0-2,.55c-1.18.91-.07,4.76.53,5.89a5.82,5.82,0,0,0,4.61,3.2c5.26.32,10.64-.76,15.92-1.55,1.87-.28,2.21-2.07,1.9-3.86-.43-2.46-.91-5-3.91-5.42C389.39,294.15,386.72,295,384.42,295.21Zm-23.08,51c-.65,5.29,2.27,6.81,5.8,6.34,4.69-.62,10.3-1.19,9.59-8.2-.41-4.08.09-9.05-6.75-8.65C362.42,336.08,361.66,341.25,361.34,346.16Zm47.5-53c-3.71.61-8.54-1.49-8.29,5,.23,5.71,4,7.1,8.28,5.88s12.32,2.62,12.12-5.22C420.76,291.77,412.91,294.82,408.84,293.21Zm-81.37,49.18c-2.21.72-6.25-.87-5.84,3.37.47,5,3.11,8.46,9,8,3.24-.25,6.88.48,6.79-4.45C337.35,342.53,331.81,343.44,327.47,342.39Zm119.47-38.18c-5.72-5.33-10.87-5.4-15.41-7-2.22-.76-4.53-1.05-4.95,2.15-.32,2.41.62,4.61,3.29,4.74C434.87,304.39,439.89,304.21,446.94,304.21ZM361.6,307c3.58.39,5.95-1.67,6.32-5.84.21-2.49-1.24-4.78-3.69-4-3.38,1.11-8.94-.21-9.07,5.74C355.08,306.45,358,307,361.6,307ZM346,303.71c-2.35,1.62-6.52,2-7.34,5.76-.45,2,2.39,2.92,4.14,2.74,3.39-.36,6-2.28,6.47-5.92C349.53,304.49,348.72,303.15,346,303.71Z"/><rect class="mouth-2" width="800" height="800"/></g></g></svg>
